<svg xmlns="http://www.w3.org/2000/svg" width="27" height="27" viewBox="0 0 27 27">
  <g id="location" transform="translate(0 -0.489)">
    <circle id="whatsapp-back" cx="13.5" cy="13.5" r="13.5" transform="translate(0 0.489)" fill="#d35525"/>
    <g id="noun_Location_3731983" transform="translate(-9.373 -4.728)">
      <path id="Path_1272" data-name="Path 1272" d="M26.856,22.026A2.755,2.755,0,1,0,24.1,19.271,2.758,2.758,0,0,0,26.856,22.026Zm0-4.723a1.968,1.968,0,1,1-1.968,1.968A1.97,1.97,0,0,1,26.856,17.3Z" transform="translate(-3.593 -3.593)" fill="#fff" stroke="#fff" stroke-width="0.5"/>
      <path id="Path_1273" data-name="Path 1273" d="M18.084,18.509l4.834,9.934a.394.394,0,0,0,.354.221h0a.394.394,0,0,0,.354-.222l5.081-10.472a.386.386,0,0,0,.027-.077,5.9,5.9,0,1,0-10.923.05l.006.017A5.788,5.788,0,0,0,18.084,18.509Zm5.179-7.948a5.117,5.117,0,0,1,4.722,7.086c0,.011-.009.023-.012.034l-4.7,9.69-4.488-9.224c-.083-.151-.157-.3-.231-.471,0-.01-.007-.02-.011-.029a5.117,5.117,0,0,1,4.722-7.086Z" transform="translate(0 0)" fill="#fff" stroke="#fff" stroke-width="0.5"/>
    </g>
  </g>
</svg>
