<svg xmlns="http://www.w3.org/2000/svg" width="25" height="26" viewBox="0 0 25 26">
  <g id="logo-instagram" transform="translate(-0.029 0)">
    <ellipse id="instagram-back" cx="12.5" cy="13" rx="12.5" ry="13" transform="translate(0.029 0)" fill="#517ea3"/>
    <path id="instagram-instagram" d="M40.748,34.18H39.509a4.378,4.378,0,1,1-8.469,0H29.8V40.2a.547.547,0,0,0,.548.547H40.2a.548.548,0,0,0,.548-.547Zm0-3.831A.548.548,0,0,0,40.2,29.8H38.558a.547.547,0,0,0-.547.547v1.642a.547.547,0,0,0,.547.547H40.2a.548.548,0,0,0,.548-.547Zm-5.473,2.189a2.737,2.737,0,1,0,2.737,2.736,2.736,2.736,0,0,0-2.737-2.736m5.473,9.851H29.8a1.642,1.642,0,0,1-1.641-1.642V29.8A1.642,1.642,0,0,1,29.8,28.16H40.748A1.641,1.641,0,0,1,42.389,29.8V40.747a1.642,1.642,0,0,1-1.641,1.642" transform="translate(-22.459 -22.218)" fill="#fff" fill-rule="evenodd"/>
  </g>
</svg>
