<svg xmlns="http://www.w3.org/2000/svg" width="25" height="26" viewBox="0 0 25 26">
  <g id="logo-whatsApp" transform="translate(0 0)">
    <ellipse id="whatsapp-back" cx="12.5" cy="13" rx="12.5" ry="13" transform="translate(0 0)" fill="#25d366"/>
    <g id="whatsapp-whatsapp" transform="translate(5.592 5.795)">
      <path id="Path_466" data-name="Path 466" d="M28.16,42.464l1.018-3.717a7.173,7.173,0,1,1,6.216,3.593h0a7.165,7.165,0,0,1-3.428-.873Zm3.979-2.3.218.129a5.956,5.956,0,0,0,3.034.831h0a5.963,5.963,0,1,0-5.051-2.794l.142.226-.6,2.2Z" transform="translate(-28.16 -27.988)" fill="#fff"/>
      <path id="Path_467" data-name="Path 467" d="M53.273,52.218c-.045-.075-.164-.12-.343-.21s-1.06-.523-1.225-.583-.284-.09-.4.09-.463.583-.567.7-.209.135-.388.045a4.906,4.906,0,0,1-1.441-.89,5.4,5.4,0,0,1-1-1.242c-.1-.179-.011-.276.079-.366s.179-.209.269-.314a1.231,1.231,0,0,0,.179-.3.331.331,0,0,0-.015-.314c-.045-.09-.4-.972-.553-1.331s-.293-.3-.4-.308-.224-.006-.344-.006a.659.659,0,0,0-.478.224,2.01,2.01,0,0,0-.627,1.5,3.484,3.484,0,0,0,.732,1.854,7.987,7.987,0,0,0,3.062,2.706,10.287,10.287,0,0,0,1.022.378,2.457,2.457,0,0,0,1.129.071,1.846,1.846,0,0,0,1.21-.852A1.5,1.5,0,0,0,53.273,52.218Z" transform="translate(-42.426 -43.333)" fill="#fff" fill-rule="evenodd"/>
    </g>
  </g>
</svg>
