<svg xmlns="http://www.w3.org/2000/svg" xmlns:xlink="http://www.w3.org/1999/xlink" width="33" height="349" viewBox="0 0 33 349">
  <defs>
    <clipPath id="clip-path">
      <rect id="Rectangle_59" data-name="Rectangle 59" width="33" height="349" transform="translate(32.259)" fill="#fff"/>
    </clipPath>
  </defs>
  <g id="vertical-divider-1" transform="translate(65.259 349) rotate(180)" clip-path="url(#clip-path)">
    <g id="Group_31" data-name="Group 31" transform="translate(32.306 -27.832)">
      <path id="Path_311" data-name="Path 311" d="M6.381,392.567c.2-1.735.4-3.472.59-5.191,2.858-31.836,1.905-63.671,3.811-99.042,1.906-24.76.954-53.056.954-77.81C9.979,269.2,10.644,330.874,4.044,387.254A55.108,55.108,0,0,1,0,366.815q1.33-28.622,1.934-56.588H5.719c-2.859-53.056,4.766-102.58,0-155.636-.508,1.886-1.285.767-1.9.376,0-.129,0-.255-.005-.376,0,.121,0,.246.005.376-.541-.354-.959-.136-.959,3.164,0-3.3.418-3.518.959-3.164.928,52.2.01,101-1.84,153.127,1.783-80.936-.073-158.967-.073-241.929V52.021A213.148,213.148,0,0,0,5.719,9.578c4.766,3.532,14.3-10.617,12.391,17.686h3.811c4.766-28.3,18.109-38.917,21.922-10.614,3.812,31.829,0,74.278,1.906,113.179.953,28.3,1.906,56.6,0,84.889-2.859,38.907-1.906,81.355-5.719,120.256-.953,14.154,1.906,38.917-.953,45.995-1.369,5.081-3.4,5.282-5.661,4.5.337-23.256.441-46.442.857-69.367,1.067-28.125,2.255-56.251,4.149-84.358-2.614,27.489-3.629,55.719-4.149,84.358-.869,22.872-1.661,45.762-2.682,68.637-1.945-.837-3.974-1.64-5.856-.245v10.609c-4.766,14.154-11.437,10.607-16.2,3.546C8.562,396.85,7.471,394.826,6.381,392.567Z" fill="#3cb9e1"/>
    </g>
  </g>
</svg>
