<svg xmlns="http://www.w3.org/2000/svg" width="37.159" height="30.197" viewBox="0 0 37.159 30.197">
  <defs>
    <style>
      .cls-1 {
        fill: #313133;
      }
    </style>
  </defs>
  <g id="twitter-dark" transform="translate(0)">
    <path id="Path_2" data-name="Path 2" class="cls-1" d="M142.731,343.559a15.253,15.253,0,0,1-4.379,1.2,7.636,7.636,0,0,0,3.352-4.219,15.267,15.267,0,0,1-4.841,1.85,7.627,7.627,0,0,0-13.188,5.216,7.709,7.709,0,0,0,.2,1.737,21.644,21.644,0,0,1-15.712-7.964,7.63,7.63,0,0,0,2.359,10.176,7.616,7.616,0,0,1-3.452-.953v.1a7.627,7.627,0,0,0,6.114,7.475,7.63,7.63,0,0,1-3.441.131,7.626,7.626,0,0,0,7.121,5.293,15.3,15.3,0,0,1-9.468,3.264,15.778,15.778,0,0,1-1.82-.106,21.594,21.594,0,0,0,11.688,3.425c14.022,0,21.689-11.616,21.689-21.69,0-.331-.008-.66-.021-.988A15.5,15.5,0,0,0,142.731,343.559Z" transform="translate(-105.572 -339.985)"/>
  </g>
</svg>
