<svg xmlns="http://www.w3.org/2000/svg" width="41.695" height="42.017" viewBox="0 0 41.695 42.017">
  <defs>
    <style>
      .cls-1 {
        opacity: 0.49;
      }

      .cls-2 {
        fill: #313133;
        fill-rule: evenodd;
      }
    </style>
  </defs>
  <g id="whatsapp-light" class="cls-1">
    <path id="Path_10" data-name="Path 10" class="cls-2" d="M557.038,408.7a20.472,20.472,0,0,0-17.532,31.036l-3.7,10.981,11.334-3.628a20.469,20.469,0,1,0,9.893-38.39Zm0,37.506a16.941,16.941,0,0,1-9.375-2.817l-6.549,2.095,2.13-6.327a17.033,17.033,0,1,1,13.794,7.049Zm9.595-12.388c-.512-.281-3.033-1.641-3.5-1.833s-.818-.293-1.186.218-1.413,1.648-1.731,1.985-.624.37-1.138.089a14.267,14.267,0,0,1-4.1-2.75A15.763,15.763,0,0,1,552.2,427.8c-.287-.533,0-.807.268-1.057.245-.225.547-.591.818-.886a3.538,3.538,0,0,0,.556-.851.962.962,0,0,0-.01-.916c-.121-.268-1.071-2.877-1.465-3.939s-.838-.9-1.144-.915-.651-.069-1-.081a1.916,1.916,0,0,0-1.417.6,5.858,5.858,0,0,0-1.993,4.288,10.165,10.165,0,0,0,1.931,5.484c.248.358,3.4,5.93,8.628,8.222s5.261,1.592,6.221,1.54,3.139-1.148,3.62-2.351a4.379,4.379,0,0,0,.4-2.472C567.49,434.241,567.147,434.1,566.633,433.816Z" transform="translate(-535.811 -408.698)"/>
  </g>
</svg>
