<svg id="youtube-alternative" xmlns="http://www.w3.org/2000/svg" width="33.601" height="40.301" viewBox="0 0 33.601 40.301">
  <defs>
    <style>
      .cls-1 {
        fill: #b56576;
      }
    </style>
  </defs>
  <path id="Path_3" data-name="Path 3" class="cls-1" d="M169.4,352.223h2.3v-6.167l2.672-8.695h-2.332l-1.418,5.94h-.148l-1.489-5.94H166.67l2.73,8.971Z" transform="translate(-161.536 -337.361)"/>
  <path id="Path_4" data-name="Path 4" class="cls-1" d="M170.614,347.709a3.059,3.059,0,0,0,.8,2.224,2.843,2.843,0,0,0,2.141.826,2.927,2.927,0,0,0,2.18-.8,2.987,2.987,0,0,0,.8-2.21v-5.659a2.758,2.758,0,0,0-.807-2.053,2.848,2.848,0,0,0-2.076-.8,3.138,3.138,0,0,0-2.212.757,2.618,2.618,0,0,0-.824,2.027Zm2.1-5.767a.77.77,0,0,1,.235-.58.842.842,0,0,1,.607-.219.94.94,0,0,1,.653.219.74.74,0,0,1,.248.58v5.973a.959.959,0,0,1-.243.693.879.879,0,0,1-.659.252.79.79,0,0,1-.622-.246,1.014,1.014,0,0,1-.22-.7Z" transform="translate(-157.886 -335.621)"/>
  <path id="Path_5" data-name="Path 5" class="cls-1" d="M176.008,350.509a2.419,2.419,0,0,0,1.184-.35,4.532,4.532,0,0,0,1.175-1.021v1.211H180.4V339.386h-2.037v8.322a2.878,2.878,0,0,1-.632.589,1.093,1.093,0,0,1-.568.231.475.475,0,0,1-.414-.173.961.961,0,0,1-.129-.564v-8.4h-2.037v9.163a2.467,2.467,0,0,0,.358,1.469A1.234,1.234,0,0,0,176.008,350.509Z" transform="translate(-154.209 -335.487)"/>
  <path id="Path_6" data-name="Path 6" class="cls-1" d="M174.973,351.3a.9.9,0,0,0-.426.11,1.458,1.458,0,0,0-.424.333v6.832a1.732,1.732,0,0,0,.481.387,1.079,1.079,0,0,0,.495.119.641.641,0,0,0,.547-.233,1.243,1.243,0,0,0,.179-.755v-5.661a1.362,1.362,0,0,0-.22-.841A.74.74,0,0,0,174.973,351.3Z" transform="translate(-154.637 -324.459)"/>
  <path id="Path_7" data-name="Path 7" class="cls-1" d="M178.9,351.325a.8.8,0,0,0-.7.3,1.764,1.764,0,0,0-.212.99v1.109h1.8v-1.109a1.746,1.746,0,0,0-.214-.99A.772.772,0,0,0,178.9,351.325Z" transform="translate(-151.064 -324.438)"/>
  <path id="Path_8" data-name="Path 8" class="cls-1" d="M197.379,351.56a4.826,4.826,0,0,0-4.856-4.794q-5.447-.222-11.13-.223H180.21q-5.675,0-11.131.223a4.824,4.824,0,0,0-4.85,4.794q-.243,3.151-.223,6.294-.014,3.145.223,6.292a4.827,4.827,0,0,0,4.85,4.8q5.733.243,11.723.221,5.985.015,11.723-.221a4.828,4.828,0,0,0,4.856-4.8c.158-2.1.229-4.2.225-6.292S197.537,353.66,197.379,351.56Zm-26.1,13.515h-2.3V352.366h-2.374v-2.158h7.045v2.158h-2.374Zm8.166,0h-2.037v-1.211a4.518,4.518,0,0,1-1.175,1.019,2.4,2.4,0,0,1-1.184.349,1.248,1.248,0,0,1-1.067-.487,2.511,2.511,0,0,1-.356-1.471v-9.165h2.039v8.407a.964.964,0,0,0,.129.564.482.482,0,0,0,.414.173,1.139,1.139,0,0,0,.57-.231,2.864,2.864,0,0,0,.63-.589v-8.324h2.037Zm7.846-2.274a2.881,2.881,0,0,1-.478,1.789,1.648,1.648,0,0,1-1.384.622,2.279,2.279,0,0,1-1.067-.243,2.707,2.707,0,0,1-.87-.741v.847h-2.058V350.208h2.058v4.785a3.2,3.2,0,0,1,.874-.761,1.888,1.888,0,0,1,.938-.264,1.727,1.727,0,0,1,1.479.7,3.475,3.475,0,0,1,.508,2.047Zm7.536-2.954h-3.9v2.068a2.455,2.455,0,0,0,.2,1.2.73.73,0,0,0,.687.335.812.812,0,0,0,.707-.283,2.452,2.452,0,0,0,.2-1.252v-.761h2.1v.82a3.7,3.7,0,0,1-.768,2.543,2.922,2.922,0,0,1-2.289.849,2.71,2.71,0,0,1-2.155-.9,3.666,3.666,0,0,1-.788-2.49v-4.921a3.219,3.219,0,0,1,.863-2.324,2.974,2.974,0,0,1,2.237-.9,2.736,2.736,0,0,1,2.147.834,3.449,3.449,0,0,1,.753,2.389Z" transform="translate(-164.004 -328.864)"/>
</svg>
