<svg xmlns="http://www.w3.org/2000/svg" width="41.581" height="50.64" viewBox="0 0 41.581 50.64">
  <g id="footer-mommy" transform="translate(0 0)">
    <path id="Path_559" data-name="Path 559" d="M1303.413,726.62l3.662-.822v2.83l-4.193,1.063Z" transform="translate(-1268.831 -683.023)" fill="#e8ac8e"/>
    <path id="Path_560" data-name="Path 560" d="M1320.128,719.785v3.4l1.211,2.27s-2.835,1.024-2.3,2.668h1.358l3.455-2.047-1.3-6.91Z" transform="translate(-1282.268 -677.482)" fill="#4a3c3a"/>
    <path id="Path_561" data-name="Path 561" d="M1147.08,595.011l-3.386,5.512-8.19-1.417-.418,2.048s6.6,2.935,9.041,2.323,5.509-6.811,5.509-6.811Z" transform="translate(-1128.68 -573.783)" fill="#a53c37"/>
    <path id="Path_562" data-name="Path 562" d="M1103.025,606.292l-2.52-2.677s-.866.2-.591.866l-2.441-.433a2.036,2.036,0,0,0-1.22,2.244c.354,1.575,2.389,2.008,3.36,1.969s2.994.079,2.994.079Z" transform="translate(-1096.202 -580.969)" fill="#e8ac8e"/>
    <path id="Path_563" data-name="Path 563" d="M1146.559,466.285s-5.2,1.181-5.119,5.04.63,14.647.63,14.647,6.615,2.283,10.395,0,4.961-4.41,4.961-4.41-3.035-8.176-5.276-12.462A4.906,4.906,0,0,0,1146.559,466.285Z" transform="translate(-1133.987 -466.161)" fill="#4a3c3a"/>
    <g id="Group_101" data-name="Group 101" transform="translate(8.872 2.69)">
      <path id="Path_564" data-name="Path 564" d="M1159.5,488.664c0,3.7-3.043,7.363-5.315,7.363-1.9,0-4.134-3.153-4.134-6.848s1.768-6.69,4.7-6.69S1159.5,484.969,1159.5,488.664Z" transform="translate(-1150.05 -482.489)" fill="#e8ac8e"/>
      <rect id="Rectangle_91" data-name="Rectangle 91" width="3.372" height="5.227" transform="translate(5.967 10.526) rotate(-46.7)" fill="#e8ac8e"/>
    </g>
    <path id="Path_565" data-name="Path 565" d="M1153.834,483.386c.545.15.8.941.574,1.766a2.216,2.216,0,0,1-.289.632,8.818,8.818,0,0,0,4.753,2.019s-.512-9.686-4.134-10.985c0,0-7.6-3.111-7.8,6.221l2.166-2.008a33.706,33.706,0,0,0,3.376,3.437C1152.741,483.724,1153.321,483.244,1153.834,483.386Z" transform="translate(-1138.583 -474.646)" fill="#4a3c3a"/>
    <path id="Path_566" data-name="Path 566" d="M1208.567,547.615a2.226,2.226,0,0,0-2.215,1.545c-.63,1.693-.487,8.237-.2,10.414s3.5,2.244,3.5,2.244a10.412,10.412,0,0,1,3.367,5.847s4.784,1.536,8.387-.354c0,0-1.418-8.682-6.836-15.352C1214.577,551.96,1210.87,547.612,1208.567,547.615Z" transform="translate(-1187.834 -534.193)" fill="#dc564a"/>
    <path id="Path_567" data-name="Path 567" d="M1160.324,575.481l-2.635,8.812-9.613.873-.194,2.08s8.372.827,10.732-.046,4.823-9.514,4.823-9.514,1.417-3.741-.315-4.894C1161.369,571.624,1160.324,575.481,1160.324,575.481Z" transform="translate(-1139.368 -555.04)" fill="#a53c37"/>
    <path id="Path_568" data-name="Path 568" d="M1114.362,636.907l-2.8-2.389s-.84.29-.493.925l-2.474-.166a2.037,2.037,0,0,0-.97,2.364c.523,1.527,2.593,1.737,3.554,1.593s2.985-.246,2.985-.246Z" transform="translate(-1105.654 -606.781)" fill="#e8ac8e"/>
    <path id="Path_569" data-name="Path 569" d="M1194.014,667.539s-10.847,9.332-10.867,12.875,1.713,4.292,2.737,4.292,17.875-1.3,17.875-1.3l.394-6.379-7.954,1.339s3.977-2.126,5.765-4.337c1.348-1.666,1.44-4.641.436-6.846Z" transform="translate(-1168.823 -634.066)" fill="#5bbeca"/>
  </g>
</svg>
