<svg xmlns="http://www.w3.org/2000/svg" width="15.64" height="33.431" viewBox="0 0 15.64 33.431">
  <g id="footer-kid" transform="translate(0 0)">
    <path id="Path_551" data-name="Path 551" d="M953.1,642.375s-1.252.234-1.15,1.4,1.656,1.269,1.656,1.269,2.784.322,3.689-.275c.949-.625,3.771-3.232,3.81-4.043a1.17,1.17,0,0,0-2-.932c-.911.933-2.809,3.122-2.809,3.122A19.566,19.566,0,0,0,953.1,642.375Z" transform="translate(-947.277 -628.075)" fill="#ffc1a9"/>
    <g id="Group_99" data-name="Group 99" transform="translate(1.144 0.622)">
      <rect id="Rectangle_90" data-name="Rectangle 90" width="3.898" height="3.146" transform="translate(2.711 13.656) rotate(-72.934)" fill="#ffc1a9"/>
      <path id="Path_552" data-name="Path 552" d="M938.74,574.739s2.315.827,2.393,4.977a2.887,2.887,0,0,1,.417,3.747,4.884,4.884,0,0,1-4.315,2.281s-5.95.961-6.615-4.134a5.458,5.458,0,0,1,2.656-5.667S936.133,573.518,938.74,574.739Z" transform="translate(-930.561 -574.396)" fill="#ffc1a9"/>
    </g>
    <path id="Path_553" data-name="Path 553" d="M926,572.138a6,6,0,0,0-2.323,5.6c.715,5.091,4.99,4.769,4.99,4.769a1.685,1.685,0,0,0,.535-1.965.974.974,0,0,1-.617.223.982.982,0,0,1-.415-1.874,13.56,13.56,0,0,0-2.17-1.933c2.2-4.676,8.3-4.22,8.3-4.22C932.2,568.358,926,572.138,926,572.138Z" transform="translate(-923.619 -570.621)" fill="#983c25"/>
    <path id="Path_554" data-name="Path 554" d="M961.75,740.789s-.433,3.838-.345,4.193c0,0,1.23.315.954.63s-2.871,1.024-3.03.158A43.262,43.262,0,0,1,959.4,741Z" transform="translate(-953.399 -712.754)" fill="#ffc1a9"/>
    <path id="Path_555" data-name="Path 555" d="M933.19,731.754l-1.494,4.292s1.339.787,1.024.906-2.717,1.063-3.229-.473l1.6-5.351Z" transform="translate(-928.523 -704.684)" fill="#ffc1a9"/>
    <path id="Path_556" data-name="Path 556" d="M926.109,703.666s-.936,2.395.364,3.5a32.4,32.4,0,0,0,4.858,2.8s1.875.827,2.544-.315c0,0-.433-4.016-.984-4.725Z" transform="translate(-925.427 -681.747)" fill="#4d9aa0"/>
    <path id="Path_557" data-name="Path 557" d="M926.861,658.13s2.284,3.622,6.93,1.457c0,0,2.008-6.576,1.1-7.971-1.122-1.72-3.46-3.093-5.428-1.557S926.861,658.13,926.861,658.13Z" transform="translate(-926.327 -636.415)" fill="#efc564"/>
    <path id="Path_558" data-name="Path 558" d="M960.986,660.158a1.364,1.364,0,0,0-1.5,1c-.238,1.142,1.219,1.693,1.219,1.693s2.572,1.112,3.611.8c1.089-.325,4.544-2.006,4.815-2.771.305-.861-.5-2.1-1.645-1.469s-3.591,2.178-3.591,2.178A19.566,19.566,0,0,0,960.986,660.158Z" transform="translate(-953.551 -644.644)" fill="#ffc1a9"/>
  </g>
</svg>
