<svg xmlns="http://www.w3.org/2000/svg" width="104.014" height="82.817" viewBox="0 0 104.014 82.817">
  <g id="footer-family" transform="translate(0)">
    <g id="Group_93" data-name="Group 93" transform="translate(38.879 44.873)">
      <path id="Path_506" data-name="Path 506" d="M1658.619,1222.413c-3.423,0-6.2,1.969-6.2,4.4V1234h12.394v-7.187C1664.816,1224.382,1662.041,1222.413,1658.619,1222.413Z" transform="translate(-1638.148 -1222.413)" fill="#4a3c3a"/>
      <g id="Group_91" data-name="Group 91" transform="translate(16.102 4.731)">
        <rect id="Rectangle_85" data-name="Rectangle 85" width="2.703" height="5.102" transform="translate(3.017 5.531)" fill="#ffc1a9"/>
        <path id="Path_507" data-name="Path 507" d="M1670.8,1254.773l-.647-2.666-1.219,2.666h-5.045v.932a4.449,4.449,0,0,0,8.853,0v-.932Z" transform="translate(-1663.894 -1252.107)" fill="#ffc1a9"/>
      </g>
      <rect id="Rectangle_86" data-name="Rectangle 86" width="7.234" height="2.323" transform="translate(13.763 35.022) rotate(-70.715)" fill="#ffc1a9"/>
      <rect id="Rectangle_87" data-name="Rectangle 87" width="2.656" height="2.871" transform="translate(13.34 35.237) rotate(-70.722)" fill="#efc564"/>
      <path id="Path_508" data-name="Path 508" d="M1640.42,1442.312a4.1,4.1,0,0,1-4.542-.682,2.128,2.128,0,0,1,2.4-1.639S1641.218,1440.029,1640.42,1442.312Z" transform="translate(-1624.24 -1405.306)" fill="#dc564a"/>
      <rect id="Rectangle_88" data-name="Rectangle 88" width="2.323" height="7.234" transform="matrix(0.98, -0.198, 0.198, 0.98, 22.134, 28.448)" fill="#ffc1a9"/>
      <rect id="Rectangle_89" data-name="Rectangle 89" width="2.871" height="2.656" transform="translate(22.896 33.314) rotate(-11.452)" fill="#efc564"/>
      <path id="Path_509" data-name="Path 509" d="M1708.052,1442.152a4.1,4.1,0,0,0,4.592-.056,2.128,2.128,0,0,0-2.151-1.951S1707.572,1439.782,1708.052,1442.152Z" transform="translate(-1684.87 -1405.439)" fill="#dc564a"/>
      <path id="Path_510" data-name="Path 510" d="M1658.058,1366.168h-7.292l-3.416,7.844,12.593.58Z" transform="translate(-1633.884 -1343.265)" fill="#dc564a"/>
      <path id="Path_511" data-name="Path 511" d="M1739.869,1278.213h1.967l2.922-8.865s.543-1.76,2.113-1.1c1.683.7-.514,3.256-.514,3.256l-2.686,8.056a1.647,1.647,0,0,1-1.836.672h-1.967Z" transform="translate(-1711.593 -1263.871)" fill="#ffc1a9"/>
      <path id="Path_512" data-name="Path 512" d="M12.038,4.275l-3.969.963L2.757,1S1.912-.641.482.283c-1.533.99,1.08,3.114,1.08,3.114L6.631,7.16A1.647,1.647,0,0,0,8.556,7.5l4.624-.814Z" transform="translate(2.233 6.255) rotate(17)" fill="#ffc1a9"/>
      <g id="Group_92" data-name="Group 92" transform="translate(10.859 11.796)">
        <path id="Path_513" data-name="Path 513" d="M1669.728,1304.868l-1.409,1.313-1.409-1.313-3.017.438.78,9.329h7.292l.781-9.329Z" transform="translate(-1658.651 -1303.527)" fill="#5bbeca"/>
        <path id="Path_514" data-name="Path 514" d="M1.375,0A6.621,6.621,0,0,1,3.182.457L5.6,1.561,4.839,4.074,0,3.46Z" transform="matrix(0.966, -0.259, 0.259, 0.966, 12.3, 2.178)" fill="#5bbeca"/>
        <path id="Path_515" data-name="Path 515" d="M4.464,0A6.413,6.413,0,0,0,2.737.457L0,1.79,1.542,4.851,6,3.293Z" transform="translate(2.05 0) rotate(25)" fill="#5bbeca"/>
      </g>
    </g>
    <g id="Group_95" data-name="Group 95" transform="translate(0 0)">
      <path id="Path_516" data-name="Path 516" d="M1393.253,1459.175s-3.109,1.673-3.223,1.711a2.777,2.777,0,0,0-1.655,3.028,8.041,8.041,0,0,0,5.652-.076l4.112-2.952v-1.6Z" transform="translate(-1377.265 -1381.668)" fill="#4a3c3a"/>
      <path id="Path_517" data-name="Path 517" d="M1485.246,1460.491V1462s1.211,3.313,6.275,3.35a3.858,3.858,0,0,0,2.208-.836s.157-1.993-3.539-4.309Z" transform="translate(-1458.728 -1382.536)" fill="#4a3c3a"/>
      <path id="Path_518" data-name="Path 518" d="M1415.881,1255.435s-1.485,27.014-1.028,32.3a11.788,11.788,0,0,0,5.8.192l2.882-23.08h1.611v23.179a7.229,7.229,0,0,0,6.435-.291s2.063-26.134,1.546-32.3Z" transform="translate(-1399.476 -1210.388)" fill="#4d9aa0"/>
      <path id="Path_519" data-name="Path 519" d="M1524.458,1120.287a61.348,61.348,0,0,1,8.811,23.89l-2.743,1.746s-6.052-14.758-6.851-16.628Z" transform="translate(-1491.033 -1096.771)" fill="#918a76"/>
      <path id="Path_520" data-name="Path 520" d="M1404.559,1102.026s7.73-8.357,19.761-.286c0,0,2.17,17.876.228,21.532H1407.3s-1.371,0-1.714-2.285S1404.559,1102.026,1404.559,1102.026Z" transform="translate(-1390.896 -1078.224)" fill="#e2ddd3"/>
      <path id="Path_521" data-name="Path 521" d="M1429.32,1036.044l8.967.628v2.684l-9.253-.569Z" transform="translate(-1411.472 -1025.95)" fill="#dc564a"/>
      <g id="Group_94" data-name="Group 94" transform="translate(20.005 7.328)">
        <path id="Path_522" data-name="Path 522" d="M1453.676,1040.066c-.852,3.526-3.1,6.009-6.039,5.3-3.016-.729-3.806-3.945-2.954-7.471s2.533-6.138,6.039-5.3C1454.036,1033.389,1454.528,1036.54,1453.676,1040.066Z" transform="translate(-1444.361 -1030.246)" fill="#e8ac8e"/>
        <path id="Path_523" data-name="Path 523" d="M1450.413,1023.82l1.134-.465s3.084,2.551,6.4,1.98c0,0-1,4.2.26,4.363s3.281-3.031,2.976-5.544c-.247-2.036-1.542-4.7-5.711-5.388S1449.47,1021.905,1450.413,1023.82Z" transform="translate(-1449.245 -1018.685)" fill="#4a3c3a"/>
        <path id="Path_524" data-name="Path 524" d="M1450.039,1088.407a6.23,6.23,0,0,1-5.557-2.4c.142,2.177,1.161,3.885,3.257,4.392,2.032.491,3.732-.543,4.869-2.391A16.29,16.29,0,0,1,1450.039,1088.407Z" transform="translate(-1444.463 -1075.285)" fill="#bf8d77"/>
        <path id="Path_525" data-name="Path 525" d="M1493.254,1085.575a1.084,1.084,0,1,1,.052-1.7A1.216,1.216,0,0,1,1493.254,1085.575Z" transform="translate(-1483.796 -1073.317)" fill="#e8ac8e"/>
      </g>
      <path id="Path_526" data-name="Path 526" d="M1567.222,1270.237s1.79,3.581.267,4.99a1.718,1.718,0,0,1-2.7-.381.984.984,0,0,1-.723-.948,5.933,5.933,0,0,1,.416-1.915A3.705,3.705,0,0,1,1567.222,1270.237Z" transform="translate(-1524.986 -1222.831)" fill="#e8ac8e"/>
      <path id="Path_527" data-name="Path 527" d="M1357.679,1099.577s-3.3,1.523-4.591,2.284a27.387,27.387,0,0,1-.99-6.085l-2.817-.464s-1.9,7.33,1.828,10.785c0,0,3.6,2.047,8.2-1.095C1359.305,1105,1359,1101.481,1357.679,1099.577Z" transform="translate(-1344.016 -1075.776)" fill="#918a76"/>
      <path id="Path_528" data-name="Path 528" d="M1371.645,1046.882l-3-10.761s2.653-2.97,9.906-1.713l1.2,9.443Z" transform="translate(-1360.708 -1024.314)" fill="#dc564a"/>
      <path id="Path_529" data-name="Path 529" d="M1382.226,990.712a4.731,4.731,0,0,1-4.6,4.854,4.6,4.6,0,0,1-4.6-4.854c.286-3.427,2.059-4.855,4.6-4.855C1381.027,985.857,1382.226,988.03,1382.226,990.712Z" transform="translate(-1364.378 -983.759)" fill="#ffc1a9"/>
      <path id="Path_530" data-name="Path 530" d="M1368.631,979.126a9.664,9.664,0,0,0,4.889-2.932s3.617,1.17,4.321,3.821c0,0,1.716-2.433.628-4.716-1.333-2.8-4.627-3.1-5.94-2.07a3.808,3.808,0,0,0-3.8,1.556A3.1,3.1,0,0,0,1368.631,979.126Z" transform="translate(-1359.994 -972.688)" fill="#4a3c3a"/>
      <path id="Path_531" data-name="Path 531" d="M1368.886,1011.526a1.114,1.114,0,1,1-1.114-1.114A1.114,1.114,0,0,1,1368.886,1011.526Z" transform="translate(-1359.033 -1004.402)" fill="#ffc1a9"/>
      <path id="Path_532" data-name="Path 532" d="M1387.422,1098.455a2.382,2.382,0,0,0,1.714,2.375l2.043,1.192v5.509s1.155,1.142,2.222.381c0,0,.99-4.569.647-6.092a11.129,11.129,0,0,0-1.409-3.122l.588-.243,2.649,2.947s.428,4.337.614,5.462c0,0,1.709.535,2.546-.655,0,0,.008-4.122-.914-6.292a35.632,35.632,0,0,0-2.589-4.493S1388.374,1094.633,1387.422,1098.455Z" transform="translate(-1376.484 -1075.812)" fill="#efc564"/>
      <path id="Path_533" data-name="Path 533" d="M1352.822,1071.35a4.886,4.886,0,0,1,1.238-3.979,1.578,1.578,0,0,1,1.842-.359s.956-.549,1.5.156c.606.784-.334,1.65-1.156,1.989,0,0-.453,1.712-.8,2.657Z" transform="translate(-1347.367 -1051.813)" fill="#e8ac8e"/>
      <path id="Path_534" data-name="Path 534" d="M1331.113,1046.8s-4.544,1.508-7.114,7.661l2,1.363s2.959-4.52,6.02-5.772C1332.018,1050.049,1333.029,1048.453,1331.113,1046.8Z" transform="translate(-1323.171 -1034.99)" fill="#dc564a"/>
      <path id="Path_535" data-name="Path 535" d="M1319.628,1094.886s-1.449,1.782-.514,3.419c.8,1.4,1.771-.319,1.771-.319s.971,0,1.009-.556a2.453,2.453,0,0,0-.267-1.18Z" transform="translate(-1318.799 -1075.417)" fill="#ffc1a9"/>
      <path id="Path_536" data-name="Path 536" d="M1444.035,1165.316l-.062,1.547a4.553,4.553,0,0,0,3.865,1.139c2.243-.507-1.544-3.028-1.544-3.028Z" transform="translate(-1424.03 -1134.34)" fill="#4d9aa0"/>
      <path id="Path_537" data-name="Path 537" d="M1409.089,1171.779l-.367,1.506s.756,3.254,3.383,2.226c0,0,1.509-.97-1.116-3.256Z" transform="translate(-1394.396 -1140.06)" fill="#4d9aa0"/>
    </g>
    <g id="Group_97" data-name="Group 97" transform="translate(72.412 4.478)">
      <path id="Path_538" data-name="Path 538" d="M1853.806,1108.939l-4.835,2.113,3.046,15.154h8.377l3.427-14.925-5.731-2.342Z" transform="translate(-1836.915 -1091.71)" fill="#5bbeca"/>
      <g id="Group_96" data-name="Group 96" transform="translate(14.054 4.777)">
        <path id="Path_539" data-name="Path 539" d="M1861.781,1033.922s-1.713,6.111,3.541,8.967c0,0,5.712-.686,5.255-8.167,0,0,.026-3.827-4.518-3.941A4.174,4.174,0,0,0,1861.781,1033.922Z" transform="translate(-1861.514 -1030.779)" fill="#e8ac8e"/>
        <path id="Path_540" data-name="Path 540" d="M1879.321,1091.016v2.856l2.113,7.539,2.171-7.539v-2.856Z" transform="translate(-1876.484 -1081.419)" fill="#e8ac8e"/>
      </g>
      <path id="Path_541" data-name="Path 541" d="M1863.987,1005.573a7.583,7.583,0,0,0-2.339-1.99,1.558,1.558,0,0,0,.245-.826c0-1.083-1.167-1.961-2.608-1.961s-2.608.878-2.608,1.961a1.527,1.527,0,0,0,.164.678,8.556,8.556,0,0,0-2.219,1.511,6.175,6.175,0,0,0,0,8.458l.57-3.165s3.218-.838,4.083-2.437a10.3,10.3,0,0,0,2.846,3.274l.622,2.839S1866.843,1009.626,1863.987,1005.573Z" transform="translate(-1840.243 -1000.796)" fill="#4a3c3a"/>
      <path id="Path_542" data-name="Path 542" d="M1850.946,1464.225s-2.936,2.205-3.364,3.1,1.2,1.085,2.056.771c0,0,3.2-.942,4.6-2.542a2.311,2.311,0,0,0-.209-1.916Z" transform="translate(-1835.689 -1389.899)" fill="#7b324d"/>
      <path id="Path_543" data-name="Path 543" d="M1865.74,1450.095s-.8,2.873-1.94,3.863c0,0,0,1.162,2.093.21,0,0,1.788-.986,1.827-1.916l-.153-2.158Z" transform="translate(-1849.382 -1378.513)" fill="#e8ac8e"/>
      <path id="Path_544" data-name="Path 544" d="M1904.08,1464.225s2.935,2.205,3.364,3.1-1.2,1.085-2.056.771c0,0-3.2-.942-4.6-2.542a2.309,2.309,0,0,1,.209-1.916Z" transform="translate(-1880.377 -1389.899)" fill="#7b324d"/>
      <path id="Path_545" data-name="Path 545" d="M1904.722,1450.095s.8,2.873,1.94,3.863c0,0,0,1.162-2.093.21,0,0-1.789-.986-1.827-1.916l.152-2.158Z" transform="translate(-1882.12 -1378.513)" fill="#e8ac8e"/>
      <path id="Path_546" data-name="Path 546" d="M1863.406,1217.319h-8.757a20.139,20.139,0,0,0-2.415,11.651l3.253,25.435h2.659l.882-27.719.882,27.719h2.66l3.253-25.435A20.143,20.143,0,0,0,1863.406,1217.319Z" transform="translate(-1839.547 -1182.823)" fill="#7b324d"/>
      <path id="Path_547" data-name="Path 547" d="M1791.942,1122.2l-10.808,22.237,2.413.63,9.657-17.017Z" transform="translate(-1779.886 -1102.86)" fill="#5bbeca"/>
      <path id="Path_548" data-name="Path 548" d="M1774.809,1262.2a5.315,5.315,0,0,0-1.391,2.313c-.328,1.3.052,1.987,1.078,2.131,1.114.157,1.718-.457,1.994-1.539.177-.693.474-2.342.474-2.342Z" transform="translate(-1773.303 -1220.552)" fill="#e8ac8e"/>
      <path id="Path_549" data-name="Path 549" d="M1929.707,1123.637l4,24.1-2.323.609-4.038-19.514Z" transform="translate(-1902.802 -1104.066)" fill="#5bbeca"/>
      <path id="Path_550" data-name="Path 550" d="M1954.7,1275.4a10.408,10.408,0,0,0-.177,1.878c.077.38,1.447,2.315,1.828,2.033a2.161,2.161,0,0,0,.876-1.941,13.265,13.265,0,0,0-.686-2.453Z" transform="translate(-1925.642 -1231.241)" fill="#e8ac8e"/>
    </g>
  </g>
</svg>
