<svg xmlns="http://www.w3.org/2000/svg" xmlns:xlink="http://www.w3.org/1999/xlink" width="360" height="26" viewBox="0 0 360 26">
  <defs>
    <clipPath id="clip-path">
      <rect id="Rectangle_60" data-name="Rectangle 60" width="26" height="360" transform="translate(20.204)" fill="#fff"/>
    </clipPath>
  </defs>
  <g id="horizontal-divider-2" transform="translate(0 46.204) rotate(-90)" clip-path="url(#clip-path)">
    <g id="Group_34" data-name="Group 34" transform="translate(7.101 -33.035)">
      <path id="Path_319" data-name="Path 319" d="M253.076,348.438V346.5c-.1,0-.2.021-.3.031C252.876,347.225,252.976,347.85,253.076,348.438Z" transform="translate(-241.715 -339.847)" fill="#7ee8c4"/>
      <path id="Path_320" data-name="Path 320" d="M255.405,349.107v-.61a.877.877,0,0,1-.245.118A5.432,5.432,0,0,1,255.405,349.107Z" transform="translate(-240.401 -338.618)" fill="#7ee8c4"/>
      <path id="Path_321" data-name="Path 321" d="M255.248,349.056c-1.111.148-2.22.956-3.332-.031v-4.3c-.607-1.073-1.213,0-1.821,0,0-1.073,0-2.145-.3-2.145-.8-.7-1.325.458-1.514,2.539C251.681,349.747,252.895,361.528,255.248,349.056Z" transform="translate(-244.195 -342.376)" fill="#7ee8c4"/>
      <path id="Path_322" data-name="Path 322" d="M255.082,354.357v-5.651c-.7-.587-1.393-1.385-2.09-.812A18.75,18.75,0,0,0,255.082,354.357Z" transform="translate(-241.596 -339.11)" fill="#7ee8c4"/>
      <path id="Path_323" data-name="Path 323" d="M255.4,629.378c.186,0,.284.1.011,1.07,0-.376-.008-.72-.011-1.07-.174-.015-.427.048-.538-.437.346,3.744.672,8.118.768,12.368.323.552.648,1.086.974,1.572-.18-10.512-.18-21.027-1.8-29.632C254.8,619.335,255.336,623.519,255.4,629.378Z" transform="translate(-240.597 -176.055)" fill="#7ee8c4"/>
      <path id="Path_324" data-name="Path 324" d="M257.144,632.114c0,.365.012.709.012,1.07C257.429,632.222,257.332,632.124,257.144,632.114Z" transform="translate(-239.307 -164.471)" fill="#7ee8c4"/>
      <path id="Path_325" data-name="Path 325" d="M253.552,522.836a129.6,129.6,0,0,0-2.328-17.94c.862,12.221,1.294,24.756,2.453,34.079Q253.562,530.939,253.552,522.836Z" transform="translate(-242.571 -242.586)" fill="#7ee8c4"/>
      <path id="Path_326" data-name="Path 326" d="M248.713,487.155a86.849,86.849,0,0,0,1.221,20.974q-.412-9.643-.768-19.175C249.015,488.359,248.876,487.728,248.713,487.155Z" transform="translate(-244.062 -253.479)" fill="#7ee8c4"/>
      <path id="Path_327" data-name="Path 327" d="M249.865,492.677a107.681,107.681,0,0,0,2.108,19.722C251.488,505.487,250.849,498.723,249.865,492.677Z" transform="translate(-243.32 -250.088)" fill="#7ee8c4"/>
      <path id="Path_328" data-name="Path 328" d="M267.838,586.4a89.341,89.341,0,0,1,1.36,9.431c.424.738.945,1.714,1.6,3.036v-.86q-.821-7.483-1.5-15.17a56.007,56.007,0,0,0-1.3-5.762C267.912,580.186,267.846,583.31,267.838,586.4Z" transform="translate(-233.412 -198.267)" fill="#7ee8c4"/>
      <path id="Path_329" data-name="Path 329" d="M269.259,589.378c-3.627-6.295.383,6.508,0,0Z" transform="translate(-233.473 -191.814)" fill="#7ee8c4"/>
      <path id="Path_330" data-name="Path 330" d="M256.505,570.428c0-.244,0-.494,0-.741-.07-.71-.135-1.443-.206-2.15C256.366,568.522,256.437,569.458,256.505,570.428Z" transform="translate(-239.775 -204.123)" fill="#7ee8c4"/>
      <path id="Path_331" data-name="Path 331" d="M262.4,536.751c.121,4.243.338,8.495.63,12.673-.321-8.614-.638-17.3-1.54-24.5,0,1.07-.3,2.152-.3,3.225A33.325,33.325,0,0,1,262.4,536.751Z" transform="translate(-237.079 -230.287)" fill="#7ee8c4"/>
      <path id="Path_332" data-name="Path 332" d="M265.2,737.471c-.771-11.682-1.742-23.15-2.829-34.258-.11-22.553-.836-44.3-3.317-63.83-2.429-17.193-1.821-47.276-6.675-64.474-.13,1.85-.189,3.622-.191,5.328-.413-2.521-.889-4.9-1.441-7.113-1.055-28.389-1.7-56.25-1.7-85.251,0-4.3-.912-7.526-.912-11.826-.047-4.353-.107-8.633-.172-12.9-.068-.016-.135.039-.2.155-.383-17.7-.982-35.118-1.978-53.452-.3-8.6,0-17.2,0-25.792,0-3.225,1.213-3.225,1.517-5.376,1.517-8.593,2.732-15.041,3.337-24.707h.911a25.011,25.011,0,0,1,0-3.9c3.4,4.621,4.617,16.4,6.97,3.929h.011c.1.692.2,1.314.3,1.908v.208a.166.166,0,0,1,.033-.013,18.772,18.772,0,0,0,2.09,6.462v-5.652c.425.357.852.588,1.277.394.081.165.164.315.242.5v1.538a2.833,2.833,0,0,0,.7.613c1.3,4.929,1.984,12.7,3.244,11.206.647-1.149.087-4.753-.3-8.845a5.526,5.526,0,0,0,.3-.82c.3,5.373,2.124,0,2.426,3.222,0,4.3.307,8.591.307,12.888,0,17.5.3,32.243,1.21,49.431.04.76.073,1.511.107,2.264.379,8.333.444,16.2.206,24.36-.208-.521-.4-1.065-.589-1.622-.194,6.563-.262,13.14.2,19.714,1.215,16.118,2.428,32.232,2.732,49.423.242,18.014.878,35.36,1.894,53.648-.676-7.473-1.291-14.938-1.5-22.6.033-3.443.047-6.869-.016-10.2-.1,3.452-.076,6.84.016,10.2-.123,13.241-.487,26.846,2.361,37.05-.253,1.1-.555,1.1-.555,2.174,0,7.528-.3,15.046.911,21.491.3,0,.3,3.23.909,2.155.3,6.448.3,13.974.911,20.417a47.338,47.338,0,0,0,1.492,8.362c1.626,23.068,3.264,45.872,4.8,70.731.29,6.175.3,13.3.3,19.549-1.013-9.2-1.852-18.674-2.606-28.3.223-9.334.22-18.274-1.337-25.634-.29-1.714-.562-3.417-.818-5.131.672,10.369,1.364,20.658,2.155,30.765-.13,5.513-.338,11.159-.351,16.7-.022-.113-.043-.215-.064-.333q-.586-6.515-1.1-13.136c.2-8.3.216-16.284-.878-23.129-.136-.852-.285-1.7-.461-2.51-.288-1.706-.56-3.42-.814-5.128q.619,9.59,1.286,19.065c.278,3.914.563,7.822.867,11.7-.059,2.439-.13,4.91-.2,7.374-.074-.26-.15-.536-.233-.773-.3-2.16-3.867-8.175-4.778-4.953.074,16.542,1.517,39.758,1.213,39.758-1.213,1.068-2.806-27.28-3.11-26.21q-.2,2.382-.351,4.763c-.247-1.507-.5-2.983-.788-4.34-.3-3.22,0-7.52-.607-9.674-1.821-7.518-1.215-16.117-2.425-24.712-.912-5.379-2.125-11.819-3.341-18.266-.605,0-.3-3.231-.911-2.153,0-6.065,0-13.082-1.771-15.68-.019-.148-.031-.3-.048-.441a9.1,9.1,0,0,0-.239-1.685c.31-10.089-1.373-17.131-2.539-26.279-.155-3.147-.258-6.346-.258-9.641a62.475,62.475,0,0,0,0,7.526q.123,1.07.258,2.114c.4,8.156,1.21,15.921,1.868,23.676.18.633.467,1.653.672,2.6-.016.562-.036,1.12-.065,1.685a3.914,3.914,0,0,1,.352.441c.87,7.418,1.182,15.809,2.077,22.131,1.035,11.923.526,24.636.352,36.8q-.763-9.079-1.643-17.878c.518,7.339,1.041,14.26,1.609,20.976-.009,1.041-.016,2.06-.016,3.088v6.453c.133-2.008.236-4,.324-5.978.351,4.009.715,7.972,1.118,11.874,1.419,21.547,2.156,43.785,1.686,65.594a14.932,14.932,0,0,1-1.1-1.461c-.182-10.515-.182-21.024-1.8-29.625,0,6.069.534,10.264.6,16.119-.175,0-.425.052-.537-.437.344,3.745.672,8.12.766,12.371-.785-1.361-1.564-2.886-2.342-4.409-.607-2.155-.607-5.376-.911-8.6-.524-13.947-.369-27.09-1.1-40.83.115-12.229.228-24.448.175-36.443C263.231,715.866,264.1,726.819,265.2,737.471Zm-7.932-360.579c.126,1.1.275,2.243.436,3.38.067-.176.135-.345.211-.51A7.16,7.16,0,0,0,257.271,376.893Zm-.293,25.138c.523-7.378-.174-17.091-.647-26.48a.452.452,0,0,0-.233-.086C255.819,383.341,256.561,393.026,256.978,402.031Zm-6.3,29.474c.034-.056.065-.118.1-.177a1.375,1.375,0,0,1-.14.016C250.65,431.395,250.663,431.448,250.675,431.5Zm9.671,130.939c-1.516-8.6-1.516-19.347-2.124-30.092,0-3.225-1.215-6.44-1.215-10.743-.3-5.375-.909-8.6-1.212-12.9l-.607,3.23c.3-7.526-1.519-11.826-.911-19.344-.3,0-.912-1.073-.912-2.148-.3-5.37.3-10.751-.3-15.048-.3-5.373-.3-10.74-.911-15.043,0-1.078-.911-3.222-1.215-5.375-.123-2.621-.2-5.247-.284-7.867-.082.118-.163.224-.242.321-.012,2.135.019,4.3.222,6.467.608,6.453,1.216,13.971,1.519,20.417.607,16.126,1.821,31.17,3.036,46.209.3,3.222.909,6.451,1.212,9.67,1.213,9.674.911,21.5,3.034,27.939C259.739,559.217,259.739,561.366,260.346,562.444ZM273.5,574.459a264.191,264.191,0,0,1-1.626-34.584c0-8.6-1.821-33.31-5.462-29.01C273.029,521.507,266.548,581.925,273.5,574.459ZM279.08,664.1a126.828,126.828,0,0,1-.907-13.969Q278.638,657.115,279.08,664.1Zm-12.362-45.779c2.124,13.966,2.431,29.009,3.641,42.978.911,10.749-.607,22.567,1.519,32.238h.911l-.3-1.072c.178-3.774.666-6.813.918-9.975.028.179.051.373.079.552-.017-.316-.033-.633-.048-.954a39.623,39.623,0,0,0-.039-6.824c-.146-1.157-.287-2.334-.424-3.517-.537-13.432-1.007-27.295-2.915-39.461-.907-7.521-2.426-13.966-3.338-21.491A62.441,62.441,0,0,0,266.718,618.321Z" transform="translate(-245.646 -337.65)" fill="#7ee8c4"/>
      <path id="Path_333" data-name="Path 333" d="M258.748,595.151q.556,6.965,1.035,14.039c.375,3.64.776,7.255,1.213,10.869,1.624,17.249,1.077,37.4,1.807,55.932a2.293,2.293,0,0,0,2.743-.057c.99-20.122-.636-40.241-.13-60.353-.033-.155-.061-.316-.1-.471-1.82-8.6-1.215-22.572-2.732-33.316-1.82-10.745-2.426-21.494-3.945-32.234C258.643,565.089,259.3,579.849,258.748,595.151Z" transform="translate(-238.481 -215.161)" fill="#7ee8c4"/>
      <path id="Path_334" data-name="Path 334" d="M249.431,500.15q.27,6.314.56,12.7c.718,11.866,1.627,22.4,2.724,33.171-.158-7.906-.258-15.853-.258-23.862C252.135,514.143,250.607,507.35,249.431,500.15Z" transform="translate(-243.559 -245.5)" fill="#7ee8c4"/>
      <path id="Path_335" data-name="Path 335" d="M252.466,538.883c-.323-2.954-.627-5.848-.918-8.737.233,11.716.6,23.344.994,34.947,1.235,19.076,2.31,38.164,3.909,57.24q.244,3.251.41,6.456c.341-35.5.686-70.894-3.141-101.025-.079-.552-.147-1.169-.222-1.754.206,14.341.647,28.523,1.128,42.667C253.98,558.742,253.3,548.81,252.466,538.883Z" transform="translate(-242.392 -229.621)" fill="#7ee8c4"/>
      <path id="Path_336" data-name="Path 336" d="M258.492,575.022c-.016,1.041-.026,2.068-.034,3.1.1,1.2.2,2.382.309,3.562.029-.725.057-1.449.084-2.164C258.729,578.011,258.618,576.51,258.492,575.022Z" transform="translate(-238.583 -199.527)" fill="#7ee8c4"/>
      <path id="Path_337" data-name="Path 337" d="M264.181,565.809c.011-.132.022-.266.031-.4-.175-3.4-.321-6.853-.462-10.341-.551-4.807-1.018-9.829-1.374-14.962C262.721,549.4,263.078,558.6,264.181,565.809Z" transform="translate(-236.424 -220.967)" fill="#7ee8c4"/>
      <path id="Path_338" data-name="Path 338" d="M268.445,539.954v-4.3c-.185-.654-.368-1.3-.549-1.954-.016,1.005-.034,2.022-.057,3.036Z" transform="translate(-233.412 -224.899)" fill="#7ee8c4"/>
      <path id="Path_339" data-name="Path 339" d="M265.372,503.772c1.182,19.047,2.422,36.9,3.667,54.6q.33,1.288.69,2.576a209.162,209.162,0,0,0-1.879-34.58c-.3-2.147-1.215-5.375-1.215-7.521-.287-10.173-1.252-19.859-2.127-29.52.257,4.619.532,9.282.839,14.05C265.355,503.509,265.365,503.638,265.372,503.772Z" transform="translate(-235.247 -252.147)" fill="#7ee8c4"/>
    </g>
  </g>
</svg>
