<svg xmlns="http://www.w3.org/2000/svg" xmlns:xlink="http://www.w3.org/1999/xlink" width="360" height="40" viewBox="0 0 360 40">
  <defs>
    <clipPath id="clip-path">
      <rect id="Rectangle_59" data-name="Rectangle 59" width="40" height="360" transform="translate(29.259)" fill="#fff"/>
    </clipPath>
  </defs>
  <g id="horizontal-divider-1" transform="translate(360 -29.259) rotate(90)" clip-path="url(#clip-path)">
    <g id="Group_31" data-name="Group 31" transform="translate(32.306 -28.709)">
      <path id="Path_311" data-name="Path 311" d="M6.381,404.941c.2-1.789.4-3.582.59-5.355,2.858-32.84,1.905-65.678,3.811-102.164,1.906-25.54.954-54.728.954-80.263-1.757,60.528-1.092,124.144-7.692,182.3A58.4,58.4,0,0,1,0,378.377Q1.33,348.852,1.934,320H5.719c-2.859-54.728,4.766-105.813,0-160.541-.508,1.946-1.285.791-1.9.388,0-.133,0-.263-.005-.388,0,.125,0,.254.005.388-.541-.365-.959-.141-.959,3.264,0-3.4.418-3.629.959-3.264.928,53.841.01,104.185-1.84,157.954,1.783-83.487-.073-163.978-.073-249.554V53.661A226.6,226.6,0,0,0,5.719,9.88c4.766,3.643,14.3-10.951,12.391,18.244h3.811c4.766-29.2,18.109-40.144,21.922-10.949,3.812,32.833,0,76.62,1.906,116.746.953,29.2,1.906,58.386,0,87.565-2.859,40.134-1.906,83.919-5.719,124.047-.953,14.6,1.906,40.144-.953,47.445-1.369,5.242-3.4,5.448-5.661,4.647.337-23.989.441-47.905.857-71.553,1.067-29.011,2.255-58.024,4.149-87.016-2.614,28.355-3.629,57.475-4.149,87.016-.869,23.593-1.661,47.2-2.682,70.8-1.945-.863-3.974-1.692-5.856-.253v10.943c-4.766,14.6-11.437,10.941-16.2,3.658C8.562,409.358,7.471,407.27,6.381,404.941Z" transform="translate(0 0)" fill="#3cb9e1"/>
    </g>
  </g>
</svg>
