<svg xmlns="http://www.w3.org/2000/svg" width="78.037" height="82.591" viewBox="0 0 78.037 82.591">
  <g id="texture-color-2" transform="translate(-1497.81 24.281)">
    <g id="Group_404" data-name="Group 404">
      <path id="Path_1245" data-name="Path 1245" d="M1575.077-13.884a9.8,9.8,0,0,0,.77,5.232V-17.88A14.134,14.134,0,0,0,1575.077-13.884Z" fill="#7be1be" fill-rule="evenodd"/>
      <path id="Path_1246" data-name="Path 1246" d="M1575.331,24.766a6.837,6.837,0,0,1-.254,2.7,4.185,4.185,0,0,0,.59,3.352c.055.116.118.234.18.339V21.677A6.909,6.909,0,0,0,1575.331,24.766Z" fill="#7be1be" fill-rule="evenodd"/>
    </g>
    <g id="Group_405" data-name="Group 405">
      <path id="Path_1247" data-name="Path 1247" d="M1535.648,46.438c-.5-4.208-3.111-8.636-8.164-9.775a16.584,16.584,0,0,0-4.839-.128,7.822,7.822,0,0,0-6.96,4.851,12.125,12.125,0,0,0-1.076,5.768c0,5.621,2.478,8.671,7.709,9.882.97.232,1.918.579,2.89.823a5.854,5.854,0,0,0,6.465-2.383c.578-.814,1.2-1.6,1.7-2.456C1534.572,50.972,1535.933,48.862,1535.648,46.438Zm-2.943,3.228a44,44,0,0,1-2.921,4.554,3.267,3.267,0,0,1-3.079,1.415c-1.433-.159-2.857-.4-4.261-.687a7.516,7.516,0,0,1-4.893-3.585c-.906-1.372-.432-2.816-.684-4.64.1-.856.2-2.109.442-3.344a6.6,6.6,0,0,1,6.759-5.083,9.288,9.288,0,0,1,9.038,6.875A5.607,5.607,0,0,1,1532.7,49.666Z" fill="#7be1be" fill-rule="evenodd"/>
      <path id="Path_1248" data-name="Path 1248" d="M1573.791,46.1c-1.181-5.737-3.459-7.626-9.017-9.313a5.567,5.567,0,0,0-3.944.548c-2.245,1.014-3.29,3.069-4.534,4.935a9.208,9.208,0,0,0-1.771,5.789c-.116,3.7,1.254,6.477,4.493,8.208.874.472,1.751.959,2.657,1.38a7.567,7.567,0,0,0,1.666.548,5.313,5.313,0,0,0,2.193,0,5.714,5.714,0,0,0,2.509-1.233c1.13-.907,2.194-1.909,3.228-2.91A8.206,8.206,0,0,0,1573.791,46.1Zm-3.132,5.316c-.822.842-1.686,1.633-2.5,2.478-2.068,2.161-4.461,2.109-6.98,1.031-2.879-1.234-4.473-3.321-4.326-6.527a8.478,8.478,0,0,1,1.531-5.156,18.8,18.8,0,0,1,2.066-2.857,4.791,4.791,0,0,1,5.241-1.067c4.05,1.478,5.6,4.609,6.021,8.585A4.08,4.08,0,0,1,1570.659,51.417Z" fill="#7be1be" fill-rule="evenodd"/>
      <path id="Path_1249" data-name="Path 1249" d="M1548.388,17.131c-3.734-1.55-8.374.392-9.851,3.49a11.562,11.562,0,0,1-.76,1.458c-2.741,4.059-2,8.183.118,12.094,1.233,2.3,3.172,4.049,6,3.332a12.367,12.367,0,0,0,8.593-3.406,7.906,7.906,0,0,0,2.215-3.026C1556.707,25.7,1553.659,19.3,1548.388,17.131Zm4.649,11.759a4.71,4.71,0,0,1-1.276,2.91,11.633,11.633,0,0,1-5.282,3.207c-2.079.706-4.019-.464-5.916-1.234a1.594,1.594,0,0,1-.676-.833,13.172,13.172,0,0,1-1.423-5.727,10.748,10.748,0,0,1,2.953-6.855c2.319-2.572,7.5-1.91,9.607,1.066A11.491,11.491,0,0,1,1553.037,28.89Z" fill="#7be1be" fill-rule="evenodd"/>
      <path id="Path_1250" data-name="Path 1250" d="M1547.638-23.586a6.959,6.959,0,0,0-7.319,1.562,12.584,12.584,0,0,0-3.848,7.6,10.041,10.041,0,0,0,1.982,7.161,6.706,6.706,0,0,0,5.82,2.952,41.076,41.076,0,0,0,4.262-.3c4.787-.464,7.329-3.312,7.224-8.047A11.1,11.1,0,0,0,1547.638-23.586Zm1.1,16.62c-1.119.128-2.32.666-3.342-.326a.584.584,0,0,0-.506-.127c-2.237,1.244-3.154-1.095-4.588-1.835a3.987,3.987,0,0,1-1.424-2.771,9.929,9.929,0,0,1,2.974-8.375,4.4,4.4,0,0,1,4.734-1.192,9.926,9.926,0,0,1,6.529,5.673,17.925,17.925,0,0,1,.674,3.418C1553.65-9.1,1552.108-7.335,1548.735-6.966Z" fill="#7be1be" fill-rule="evenodd"/>
      <path id="Path_1251" data-name="Path 1251" d="M1515.527-18.428a10.1,10.1,0,0,0-7.584-5.547c-2.889-.526-7.118.474-9,3.681a12.752,12.752,0,0,0-1.13,2.414v9.228a5.772,5.772,0,0,0,1.4,1.686,19.024,19.024,0,0,1,1.212,1.478A10.7,10.7,0,0,0,1513.639-3.7a5.774,5.774,0,0,0,2.457-2.762,51.233,51.233,0,0,0,1.351-6.635C1517.509-15.148,1516.4-16.74,1515.527-18.428Zm-.179,5.409a39.274,39.274,0,0,1-.854,5.094,3.546,3.546,0,0,1-1.435,1.889c-1.941,1.275-4.029,2.076-6.4,1.115a4.4,4.4,0,0,0-1.317-.336c-3.29-.253-4.713-2.743-6.127-5.187a6.8,6.8,0,0,1-.4-2.132,48.075,48.075,0,0,1,.909-4.8,6.627,6.627,0,0,1,7.72-4.441c4.121.686,6.21,3.448,7.708,6.929A3.719,3.719,0,0,1,1515.348-13.019Z" fill="#7be1be" fill-rule="evenodd"/>
      <path id="Path_1252" data-name="Path 1252" d="M1513.66,19.483a6.1,6.1,0,0,0-4.281-3.427,10.523,10.523,0,0,0-3.217-.454c-3.069.19-6.054.771-7.466,4-.3.685-.622,1.372-.886,2.078v9.481a19.016,19.016,0,0,0,1.139,1.73,9.285,9.285,0,0,0,10.577,3.511c4.1-1.266,6.444-4.345,6.539-8.986A22.652,22.652,0,0,0,1513.66,19.483Zm-1.318,12.529c-.59.423-1.212.822-1.751,1.3a5.2,5.2,0,0,1-4.05,1.381c-1.14-.221-2.457-.136-3.374-.708-2.119-1.317-3.869-3.257-3.944-5.84a16.341,16.341,0,0,1,1.329-7.415,4.98,4.98,0,0,1,2.921-2.646,7.057,7.057,0,0,1,8.837,3.554,19.442,19.442,0,0,1,1.657,6.558A3.932,3.932,0,0,1,1512.342,32.012Z" fill="#7be1be" fill-rule="evenodd"/>
      <path id="Path_1253" data-name="Path 1253" d="M1534.624,1.63a6.153,6.153,0,0,0-4.956-3.84c-1.159-.146-2.318-.337-3.479-.5A6.837,6.837,0,0,0,1520.24-.5a27.264,27.264,0,0,0-3.458,5.2,5.013,5.013,0,0,0-.465,4.693c1.857,3.944,4.209,7.056,9.07,7.561a7.456,7.456,0,0,0,5.326-1.391,14.887,14.887,0,0,0,2.066-1.762C1536.365,10.245,1536.881,6.681,1534.624,1.63Zm-2.445,9.88c-1.794,2-3.776,3.46-6.76,3.449-3.723-.009-6.888-4.788-7.1-7.539a3.654,3.654,0,0,1,.485-1.815c.591-1.107,1.287-2.171,1.973-3.225,1.35-2.048,3.057-3.4,5.61-2.765,3.09-.432,5.273.75,6.484,3.491C1534.171,6.007,1534.51,8.906,1532.179,11.51Z" fill="#7be1be" fill-rule="evenodd"/>
      <path id="Path_1254" data-name="Path 1254" d="M1572.283,2.979c-1.412-3.28-4.008-4.492-7.14-4.692-4.155.337-7.792,1.213-9.542,5.388-.211.5-.633.9-.875,1.382a3.7,3.7,0,0,0-.519,1.508,9.99,9.99,0,0,0,3.936,8.54c1.865,1.448,4.017,1.543,6.147,1.91a5.535,5.535,0,0,0,4.607-1.19C1572.958,12.386,1574.541,8.231,1572.283,2.979Zm-4.492,10.8a3.376,3.376,0,0,1-3.291.761,5.731,5.731,0,0,0-1.613-.169,6.279,6.279,0,0,1-6.043-5.463A7.435,7.435,0,0,1,1564.7.639c3.787-.287,5.474,1.623,6.34,5.642C1571.725,9.4,1570.258,11.881,1567.791,13.777Z" fill="#7be1be" fill-rule="evenodd"/>
      <path id="Path_1255" data-name="Path 1255" d="M1504.922,49.817c-1.463.044-2.253-.757-2.313-2.342a2.311,2.311,0,0,1,2.572-2.709,2.524,2.524,0,0,1,2.454,2.625A2.6,2.6,0,0,1,1504.922,49.817Z" fill="#7be1be" fill-rule="evenodd"/>
      <path id="Path_1256" data-name="Path 1256" d="M1563.531,30.186c-1.962-1.389-2.475-2.287-2.067-3.482a2.32,2.32,0,0,1,2.747-1.6,2.453,2.453,0,0,1,2.088,2.15C1566.435,29.122,1565.029,29.61,1563.531,30.186Z" fill="#7be1be" fill-rule="evenodd"/>
      <path id="Path_1257" data-name="Path 1257" d="M1506.578,8.488c-1.558.041-2.656-.859-2.607-2.137a2.682,2.682,0,0,1,2.575-2.362,2.139,2.139,0,0,1,2.316,2.409C1508.883,7.737,1508.107,8.449,1506.578,8.488Z" fill="#7be1be" fill-rule="evenodd"/>
      <path id="Path_1258" data-name="Path 1258" d="M1543.278,49.268c-1.391.041-2.378-.625-2.384-1.613a2.733,2.733,0,0,1,2.172-2.675,2.285,2.285,0,0,1,2.491,2.243C1545.621,48.479,1544.8,49.221,1543.278,49.268Z" fill="#7be1be" fill-rule="evenodd"/>
      <path id="Path_1259" data-name="Path 1259" d="M1544.789,8.311a2.113,2.113,0,0,1-2.27-2.157c.023-1.142.777-2.193,1.585-2.209,1.287-.026,2.982,1.635,2.845,2.786A1.947,1.947,0,0,1,1544.789,8.311Z" fill="#7be1be" fill-rule="evenodd"/>
      <path id="Path_1260" data-name="Path 1260" d="M1565.232-13.564c.018,1.513-.627,2.263-2,2.327-1.225.057-1.983-.894-2.08-2.6a1.691,1.691,0,0,1,1.833-1.835A1.988,1.988,0,0,1,1565.232-13.564Z" fill="#7be1be" fill-rule="evenodd"/>
      <path id="Path_1261" data-name="Path 1261" d="M1523.64-11.965c.508-1.281.194-2.916,2.1-3.165a1.815,1.815,0,0,1,2.007,1.082,2.575,2.575,0,0,1-.362,2.547C1526.175-10.7,1525.008-10.846,1523.64-11.965Z" fill="#7be1be" fill-rule="evenodd"/>
      <path id="Path_1262" data-name="Path 1262" d="M1524.9,29.6a1.579,1.579,0,0,1-1.77-1.57,2.189,2.189,0,0,1,2.033-2.138,2.151,2.151,0,0,1,1.791,2.076C1526.946,28.99,1526.178,29.6,1524.9,29.6Z" fill="#7be1be" fill-rule="evenodd"/>
    </g>
    <path id="Path_1263" data-name="Path 1263" d="M1563.341-24.281a5.3,5.3,0,0,0,2.193,0Z" fill="#7be1be" fill-rule="evenodd"/>
  </g>
</svg>
