<svg xmlns="http://www.w3.org/2000/svg" width="89.51" height="91.487" viewBox="0 0 89.51 91.487">
  <g id="texture-color-1" transform="translate(-39.824 -1185.948) rotate(90)" opacity="0.38">
    <path id="Path_1264" data-name="Path 1264" d="M1265.323-40.084c.022.09.051.17.071.26h-5.571c.112-.111.2-.21.291-.3-2.961-2.84-7.08-6.75-9.621-9.351a24.391,24.391,0,0,0-4.679-4.219c-1-.611-1.02-1.35-.26-2.21q4.575-5.116,9.179-10.191c.831-.9,1.8-1.67,2.692-2.519a5.563,5.563,0,0,0,.58-.8c-3.561-5.34-8.721-9.08-12.861-13.8.06-.62.07-1.23.179-1.82a2.769,2.769,0,0,1,.491-1.311c1.2-1.289,2.47-2.519,3.72-3.76.68-.669,1.379-1.3,2.07-1.95,1.18-1.119,2.35-2.25,3.53-3.369.791-.75,1.609-1.471,2.381-2.23a1.717,1.717,0,0,0,.16-2.7c-.731-.979-1.58-1.879-2.361-2.819-1.729-2.11-3.42-4.25-5.18-6.33-1.039-1.25-2.151-2.45-3.3-3.61-1.24-1.241-1.33-1.481-.182-2.9a32.183,32.183,0,0,1,2.661-2.819c2.48-2.431,5.009-4.82,7.49-7.25.48-.471,2.019-2.21,3.019-3.25h5.571a1.031,1.031,0,0,1,.06.269c-4.07,4-10.189,10.071-14.359,14.181a10.134,10.134,0,0,0,.619,1.039c2.14,2.461,3.8,5.29,6.051,7.671a39.47,39.47,0,0,1,2.929,3.92c.2.27.289.7.549.85,1.24.67,1.131,1.889,1.321,3a14.744,14.744,0,0,1-4.729,5.429,1.52,1.52,0,0,0-.15.141c-2.59,2.769-5.192,5.529-7.93,8.45.738.84,1.34,1.63,2.049,2.319,1.33,1.271,2.75,2.441,4.07,3.71a26.479,26.479,0,0,1,2.17,2.42c.81,1,1.59,2.031,2.34,3.071a17.394,17.394,0,0,1,1.631,2.57,2.508,2.508,0,0,1-.821,3.109,14.437,14.437,0,0,0-3.189,2.761c-.82.94-1.74,1.859-2.6,2.8-1.839,2-3.568,4.1-5.388,6.2a70.142,70.142,0,0,0,6.66,7.2c.889.841,1.648,1.811,2.558,2.63.75.681,3.581,2.971,4.4,3.591a8.962,8.962,0,0,1,1.25,1.04A1.235,1.235,0,0,1,1265.323-40.084Z" fill="#93ccda" fill-rule="evenodd"/>
    <path id="Path_1265" data-name="Path 1265" d="M1219.544-40.975a2,2,0,0,1,.57,1.151h-4.73c.14-.16.269-.34.42-.5-2.11-2.06-5.9-5.87-7.86-7.771-1.17-1.13-2.359-2.25-3.609-3.289a6.448,6.448,0,0,1-2.781-5.62c3.97-4.3,8.281-8.54,12.56-12.91a7.371,7.371,0,0,0-1.84-2.9c-2.32-2.309-4.71-4.549-7.041-6.849a15.742,15.742,0,0,1-3.589-4.21c.441-1.62,1.72-2.71,2.7-3.981,1.949-2.54,4.029-4.969,6.039-7.45,1.16-1.42,2.291-2.859,3.49-4.38a47.718,47.718,0,0,0-4.279-5.509c-1.41-1.571-2.83-3.13-4.3-4.651a7.3,7.3,0,0,0-2.039-1.659,4.517,4.517,0,0,1-1.811-1.79,1.939,1.939,0,0,1,.061-2.45,6.575,6.575,0,0,1,1.109-1.2c2.869-2.621,5.789-5.19,8.6-7.871,1.48-1.4,2.791-2.969,4.14-4.5l.02-.019h4.74c.061.83-.679,1.56-1.51,2.58a5.328,5.328,0,0,1-.919,1.029,99.58,99.58,0,0,0-8.2,7.96c-1.07,1.131-2.24,2.17-3.519,3.4.92,1.03,1.769,1.98,2.631,2.929,2.058,2.25,4.148,4.481,6.189,6.761.949,1.06,1.811,2.2,2.69,3.329,1.16,1.481,1.2,1.921.031,3.4-1.481,1.87-3.022,3.679-4.541,5.53-1.77,2.16-3.551,4.309-5.289,6.5a20.854,20.854,0,0,0-1.281,2.019c.39.451.75.92,1.17,1.33q3.81,3.722,7.64,7.391c.779.739,1.67,1.369,2.459,2.109a7.13,7.13,0,0,1,1.151,1.411,1.979,1.979,0,0,1-.17,2.77,8.111,8.111,0,0,1-3.151,2.829,3.493,3.493,0,0,0-1.129.861c-2.26,2.37-4.49,4.75-6.72,7.129a4.842,4.842,0,0,0-.42.451c-1.51,2.17-1.719,2.059.2,4.04a73.505,73.505,0,0,1,5.648,5.8C1214.394-46.074,1218.095-42.6,1219.544-40.975Z" fill="#93ccda" fill-rule="evenodd"/>
    <path id="Path_1266" data-name="Path 1266" d="M1235.483-40.584a1,1,0,0,1,.17.76h-4.8c.2-.241.379-.481.549-.7-2.24-2.6-6.509-5.36-8.66-7.2-1.738-1.5-3.619-2.83-5.429-4.259a7.291,7.291,0,0,1-1.02-.991c-.99-1.139-1.051-1.679-.119-2.849a137.1,137.1,0,0,1,9.738-11.271A25.106,25.106,0,0,0,1228.124-70a1.164,1.164,0,0,0-.18-1.65c-2.759-2.72-5.121-5.821-8.07-8.37a43.455,43.455,0,0,1-3.81-4.21,3.662,3.662,0,0,1,1.2-2.96c1.91-1.94,3.75-3.951,5.609-5.94,2.01-2.131,4-4.261,6-6.4.27-.3.52-.62.891-1.05a27.961,27.961,0,0,0-2.711-3.061c-3-2.569-5.549-5.62-8.789-7.939a2.636,2.636,0,0,1-.4-4.25c1.789-1.96,3.66-3.851,5.59-5.66a94.643,94.643,0,0,0,7.4-7.84h4.8a1.422,1.422,0,0,1-.379.68c-.041.049-.1.11-.15.17s-.119.139-.189.21c-2.051,2.209-5.491,5.99-7.4,8-1.82,1.929-3.65,3.85-5.461,5.79-.129.129-.148.36-.25.62,1.491,2.139,3.631,3.63,5.491,5.41,1.66,1.59,3.191,3.33,4.8,4.979.709.731,1.459,1.42,2.141,2.071.039,1.63-1.031,2.6-1.871,3.61-.99,1.2-2.221,2.2-3.28,3.35-.96,1.049-1.82,2.19-2.74,3.27-1.769,2.069-3.55,4.109-5.349,6.2a5.069,5.069,0,0,0,1.709,2.7,54.835,54.835,0,0,1,8.769,9.64,5.636,5.636,0,0,1,1.2,2.949,73.666,73.666,0,0,0-4.98,5.551c-1.74,2.34-4,4.26-5.449,6.829a22.748,22.748,0,0,1-2.022,2.62c.461.481.8.891,1.2,1.231,1.959,1.68,3.94,3.349,5.92,5a18.068,18.068,0,0,0,1.8,1.349,34.4,34.4,0,0,1,6.211,6.25A1.2,1.2,0,0,1,1235.483-40.584Z" fill="#93ccda" fill-rule="evenodd"/>
    <path id="Path_1267" data-name="Path 1267" d="M1249.243-40.305a1.7,1.7,0,0,1,.281.481h-4.73a.965.965,0,0,0,.1-.12,10.93,10.93,0,0,0-1.04-.991c-2.441-1.989-6.429-6.37-8.621-8.609-.949-.971-2-1.84-3.009-2.75-1.389-1.25-1.51-2.12-.491-3.74a16.169,16.169,0,0,1,1.221-1.63q4.321-5.161,8.65-10.311a16.409,16.409,0,0,0,.94-1.38c-2-2.429-3.91-4.74-5.811-7.059-.82-1-1.589-2.04-2.429-3.03-.66-.781-1.4-1.48-2.09-2.23a8.125,8.125,0,0,1-1.051-1.221c-.619-1.029-.578-1.529.272-2.359q3.418-3.36,6.929-6.641a23.251,23.251,0,0,0,4-4.349,22.246,22.246,0,0,1,2.03-2.41c-.809-1.12-1.54-2.17-2.33-3.18-2.049-2.63-4.1-5.271-6.2-7.86a35.641,35.641,0,0,0-2.58-2.621c-.24-.24-.529-.429-.769-.669-1.26-1.321-1.282-1.88.039-3.26,2.55-2.66,5.131-5.271,7.679-7.92.871-.91,3.391-3.76,4.561-5.17h4.73a1.214,1.214,0,0,1-.58,1.41.208.208,0,0,1-.031.029,77.654,77.654,0,0,0-6.469,6.731c-1.57,1.78-3.2,3.51-4.849,5.229-1.2,1.25-1.272,1.531-.182,2.651a73.969,73.969,0,0,1,5.961,7.21c.98,1.309,2.07,2.53,3.141,3.759a6.678,6.678,0,0,1,1.519,4.141,2.4,2.4,0,0,1-.939,2.329,9.876,9.876,0,0,0-1.881,2.131c-1.65,2.3-3.879,4-5.891,5.93-1.068,1.03-2,2.21-3,3.32a1.006,1.006,0,0,0-.138,1.31c.308.52.638,1.04.949,1.559,1.98,3.221,4.769,5.771,7.029,8.761.7.91,1.541,1.71,2.3,2.569.711.8.791,1.511.211,2.191-2.942,3.38-5.932,6.719-8.58,10.349-.721.971-1.59,1.841-2.451,2.821a8.817,8.817,0,0,0,1,1.63c2.5,2.5,5.07,4.929,7.56,7.44C1245.3-44.725,1248.265-41.524,1249.243-40.305Z" fill="#93ccda" fill-rule="evenodd"/>
    <path id="Path_1268" data-name="Path 1268" d="M1276.935-70a1.159,1.159,0,0,1,0,1.64c-.01.009-.022.03-.032.04-.648.78-1.4,1.49-2.049,2.259-.7.84-1.33,1.72-2,2.581a16.289,16.289,0,0,1-1.29,1.58c-2.19,2.13-4.4,4.24-6.59,6.33a4.2,4.2,0,0,0,2.05,3.05,26.838,26.838,0,0,1,4.67,4.49c.58.7,3.18,3.34,5.241,5.729v2.481h-2.772c-1.879-2.39-4.209-5.16-5.889-6.96a76.342,76.342,0,0,0-7.509-6.88c-.942-.771-.951-1.141-.121-2.17a69.916,69.916,0,0,1,7.111-7.3,53.912,53.912,0,0,0,4.469-5.27,7.369,7.369,0,0,0-.629-1.241q-5.4-6.4-10.83-12.79c-1.061-1.25-1.022-2.239.209-3.339,2.17-1.96,4.461-3.8,6.47-5.9,1.879-1.96,3.981-3.73,5.469-6.03.33-.521.672-1.021,1.16-1.78-1.549-2.071-3-4.04-4.478-5.98a36.285,36.285,0,0,0-6.451-6.761,3.206,3.206,0,0,1-1.059-1.46,2.044,2.044,0,0,1,.43-2.42c2.388-2.319,4.679-4.75,7.039-7.1,1.76-1.75,3.55-3.46,5.359-5.16-.238-.31-.488-.64-.75-.97h2.772v4.13c-2.112,1.88-5.411,4.54-6.221,5.649-1.25,1.691-2.61,3.3-3.99,5.04a19.733,19.733,0,0,0,3.57,4.591,2.25,2.25,0,0,1,.57.579c.99,2.191,2.8,3.761,4.3,5.551a7.826,7.826,0,0,1,1.74,3.609c.01.051.022.09.032.141.129.609.3,1.239.5,2.05-.161.22-.331.45-.5.67-3.481,4.6-7.8,8.63-11.76,13,.119,1.42,1.228,2.28,1.949,3.28a57.487,57.487,0,0,0,4.061,4.75q2.788,3.1,5.65,6.17A1.524,1.524,0,0,1,1276.935-70Z" fill="#93ccda" fill-rule="evenodd"/>
    <path id="Path_1269" data-name="Path 1269" d="M1203.614-40.194a1.078,1.078,0,0,1,.11.37h-4.27c-1.939-2.62-4.791-6.29-6.609-8.79a34.715,34.715,0,0,0-4.8-5.26c-.15-.141-.289-.28-.43-.441-.359-.389-.7-.819-1.1-1.269.359-.511.728-1.011,1.1-1.481a58.632,58.632,0,0,1,4.19-4.809c2.26-2.351,4.2-5,6.291-7.51a1.779,1.779,0,0,0-.051-2.25,35.38,35.38,0,0,0-4.98-6.381c-1.79-1.869-3.61-3.71-5.45-5.58-.381-.389-.76-.779-1.15-1.17a6.156,6.156,0,0,1,1.15-1.729c.25-.28.51-.55.77-.83,2.269-2.43,4.381-5.01,6.551-7.54.929-1.09,1.859-2.18,2.728-3.31,1.32-1.721,1.352-1.82.092-3.56-1.272-1.76-2.66-3.44-4-5.15a32.893,32.893,0,0,0-5.871-6.2,1.34,1.34,0,0,1-.27-.25,1.842,1.842,0,0,1,0-2.44,3.342,3.342,0,0,1,.41-.46c2.411-2.31,4.9-4.55,7.19-6.97a41.628,41.628,0,0,0,4.17-5.28l.349-.48c-.089-.12-.179-.24-.279-.37h4.27a.947.947,0,0,1-.039.529,5.376,5.376,0,0,1-1.741,3.2c-.75.84-1.74,1.441-2.189,2.59-.17.45-.781.721-1.151,1.12-1.8,1.931-3.611,3.851-5.371,5.821a10.63,10.63,0,0,0-.99,1.66c3.381,5.05,7.821,9.09,10.932,14.39-.4.629-.781,1.339-1.262,1.969-1.42,1.91-2.818,3.83-4.328,5.66-1.471,1.781-3.092,3.441-4.611,5.181a21.056,21.056,0,0,0-1.321,1.85c.83,1.99,2.522,3,3.67,4.469,1.491,1.92,3.151,3.721,4.651,5.641a13.44,13.44,0,0,1,1.211,2.359,4.183,4.183,0,0,0,.679,1.231,2.055,2.055,0,0,1,.35,2.62,4.065,4.065,0,0,1-1.811,2.09,8.721,8.721,0,0,0-2.449,2.359c-.881,1.111-1.57,2.361-2.39,3.521a18.109,18.109,0,0,1-1.42,1.729c-.9,1.011-1.83,2-2.719,2.961a5.188,5.188,0,0,0,1.689,2.4,13.443,13.443,0,0,1,1.95,2.3c1.919,2.63,3.82,5.271,5.669,7.951C1201.3-42.9,1203.153-41.1,1203.614-40.194Z" fill="#93ccda" fill-rule="evenodd"/>
    <path id="Path_1270" data-name="Path 1270" d="M1185.948-42.305a29.078,29.078,0,0,1,1.971,2.481h-1.971Z" fill="#93ccda" fill-rule="evenodd"/>
    <path id="Path_1271" data-name="Path 1271" d="M1185.948-125.2v-4.13h1.971a5.2,5.2,0,0,1,.639,1.149,7.312,7.312,0,0,1-.889,1.231.174.174,0,0,0-.041.059A14.113,14.113,0,0,1,1185.948-125.2Z" fill="#93ccda" fill-rule="evenodd"/>
  </g>
</svg>
