<?xml version="1.0" encoding="utf-8"?>
<!-- Generator: Adobe Illustrator 25.1.0, SVG Export Plug-In . SVG Version: 6.00 Build 0)  -->
<svg version="1.1" id="Layer_1" xmlns="http://www.w3.org/2000/svg" xmlns:xlink="http://www.w3.org/1999/xlink" x="0px" y="0px"
	 viewBox="0 0 683.1 1.9" style="enable-background:new 0 0 683.1 1.9;" xml:space="preserve">
<style type="text/css">
	.st0{fill:none;}
	.st1{fill:#6D6E71;}
</style>
<g id="Layer_2_1_">
	<g id="Layer_1-2">
		<line class="st0" x1="-3" y1="1" x2="680.1" y2="1"/>
		<path class="st1" d="M679.3,0.4c1,0,0.7-0.1,0.8-0.1C678.5,0.3,679.4,0.4,679.3,0.4z"/>
		<polygon class="st1" points="662.7,0.6 663,0.6 660.5,0.7 		"/>
		<path class="st1" d="M647.1,0.6c1.5,0.2,5.6,0,8.4,0h0.5l1.2-0.2C653.9,0.6,649.5,0.6,647.1,0.6z"/>
		<path class="st1" d="M638.8,0.2c0.5,0.1-1.8,0.1,1.9,0h-0.3H638.8z"/>
		<path class="st1" d="M640.4,0.2C642,0.2,639.3,0.1,640.4,0.2z"/>
		<path class="st1" d="M632.8,0.2l2.2-0.1c-0.6,0-1.1,0-1.7-0.1C631.1,0.1,631.6,0.2,632.8,0.2z"/>
		<path class="st1" d="M630.8,0.4h1.1C631.5,0.4,631.2,0.4,630.8,0.4z"/>
		<path class="st1" d="M634.3,0.3h-2.4c0.4,0.1,0.7,0.1,1.1,0C632.8,0.4,633.3,0.3,634.3,0.3z"/>
		<path class="st1" d="M635.6,0.3c1.2,0,2.8,0.1,0.6,0.1C640.4,0.4,639.8,0.3,635.6,0.3z"/>
		<path class="st1" d="M646.3,0.8h1.6l1.4-0.1C648.7,0.8,646.2,0.7,646.3,0.8z"/>
		<path class="st1" d="M619.4,0.2c-0.1,0,0.7,0.1,0.9,0.2h1.6C621,0.2,619.5,0.2,619.4,0.2z"/>
		<path class="st1" d="M620.3,0.3l-2.4,0.1C620,0.4,620.4,0.3,620.3,0.3z"/>
		<polygon class="st1" points="630.4,0.6 634.3,0.4 629.7,0.6 		"/>
		<polygon class="st1" points="610.3,0.2 611.6,0.1 609.2,0.2 		"/>
		<path class="st1" d="M604.2,0.2c1-0.1-1.4-0.1-0.3-0.2c-1.7,0-3,0.1-4.3,0.1C600.9,0.1,602.4,0.1,604.2,0.2z"/>
		<path class="st1" d="M597.5,0.2c0.7,0,1.4,0,2.1-0.1C598.9,0.2,598.2,0.2,597.5,0.2z"/>
		<path class="st1" d="M613.8,0.3c-0.6-0.1-1.3-0.1-1.9-0.1l0.9,0.1H613.8z"/>
		<path class="st1" d="M612.9,0.4L612.9,0.4z"/>
		<path class="st1" d="M614.1,0.3h-0.2C613.9,0.4,614,0.4,614.1,0.3z"/>
		<path class="st1" d="M624.2,0.5c-1.4,0.1-4.3,0.1-1.5,0.2C623.7,0.6,622,0.6,624.2,0.5z"/>
		<path class="st1" d="M615.2,0.5h2.5c0,0-0.5-0.1,0.2-0.1L615.2,0.5z"/>
		<polygon class="st1" points="614,0.5 615.2,0.5 614.3,0.5 		"/>
		<path class="st1" d="M601.8,0.3c-1.1,0-2.3,0-3.6,0.1c1.5,0,2.9,0,4.4,0C602.8,0.4,603.4,0.3,601.8,0.3z"/>
		<path class="st1" d="M607.2,0.3H607C607.1,0.4,607.2,0.4,607.2,0.3z"/>
		<path class="st1" d="M584.8,0.4h0.2l0,0H584.8z"/>
		<path class="st1" d="M602.8,0.4c1.1,0,1.7,0,2.4,0h-2.6C602.5,0.4,602.4,0.4,602.8,0.4z"/>
		<path class="st1" d="M593.8,0.3c0.6,0,1.2,0,1.9,0.1C595.1,0.3,594,0.2,593.8,0.3z"/>
		<path class="st1" d="M606.6,0.3h0.2C606.4,0.3,606.5,0.3,606.6,0.3z"/>
		<path class="st1" d="M606.6,0.3l-1.4,0.1h1.8L606.6,0.3z"/>
		<path class="st1" d="M580.8,1.1c1.8-0.2,3.7-0.2,5.5-0.1c2.4-0.1,0.8-0.4-1.3-0.6c-0.9,0.2-1.7,0.2-2.6,0.1
			c0.9,0.1,5.6,0.1,3.4,0.2c-1.4,0-2.9,0-4.3-0.1c1.4,0.1-4.2,0.2-3.5,0.4l2.9,0C581,1,580,1,580.8,1.1z"/>
		<path class="st1" d="M589.8,0.4h1c-1.2,0-2-0.1-3.6-0.1c-0.7,0-1.5,0-2.2,0.1h5.1L589.8,0.4z"/>
		<path class="st1" d="M595.5,0.4c-0.8,0.1-3.3,0.1-1.8,0.3c3,0,2.1-0.1,3.9-0.1C592.8,0.5,599.1,0.5,595.5,0.4l2.7,0h-2.5h0.1
			c0.2,0,0.3,0,0,0h-0.1L595.5,0.4c-1.4,0-0.3,0,0.2,0h0.1l0,0l-4.9,0.1C591.9,0.4,593.2,0.4,595.5,0.4z"/>
		<path class="st1" d="M620,0.9c-0.2,0-0.1,0-0.2,0C619.6,0.9,619.5,0.9,620,0.9z"/>
		<path class="st1" d="M618,0.9c0.4,0,0.7-0.1,1.8,0c1,0,0,0.1,0,0.1c0.7,0,2.4-0.1,0.2-0.1h-0.3c-2,0-4.5-0.2-4.2-0.2
			C616.4,0.7,617.2,0.8,618,0.9z"/>
		<path class="st1" d="M606.6,0.6l-4.1,0.1l2.1,0.1l-0.1-0.1C606.8,0.8,606.3,0.7,606.6,0.6z"/>
		<polygon class="st1" points="584.4,0.3 584.9,0.2 582.6,0.4 		"/>
		<polygon class="st1" points="579.1,0.3 579.3,0.2 577.9,0.3 		"/>
		<path class="st1" d="M280.4,1.6h-1.2H280.4z"/>
		<path class="st1" d="M289.1,1.6l0.2,0C288.9,1.5,288.8,1.6,289.1,1.6z"/>
		<path class="st1" d="M449.1,0.3c-1.2-0.1-2.3-0.2-3.5-0.1l0.5,0.1C447.4,0.3,448.3,0.3,449.1,0.3z"/>
		<path class="st1" d="M360.1,1h0.5l1.2-0.1L360.1,1z"/>
		<path class="st1" d="M358.9,1.4l-2.3-0.1C357.1,1.4,357.8,1.4,358.9,1.4z"/>
		<path class="st1" d="M233.1,1.7l-1.4,0.1C233.9,1.8,233,1.7,233.1,1.7z"/>
		<path class="st1" d="M524.9,0.4c-1.5,0-2.7-0.1-3.8-0.1C522.4,0.4,523.6,0.4,524.9,0.4z"/>
		<path class="st1" d="M283.9,0.4c-0.3,0-0.7,0-1,0.1C283.6,0.4,284,0.4,283.9,0.4z"/>
		<path class="st1" d="M516.8,0.3h0.8c1.1,0,2.2,0,3.5,0C519.8,0.3,518.3,0.2,516.8,0.3z"/>
		<path class="st1" d="M61.5,1.6h-0.4C61.1,1.6,61.3,1.6,61.5,1.6z"/>
		<path class="st1" d="M11.5,0.5h2.1C13.2,0.5,12.6,0.5,11.5,0.5z"/>
		<path class="st1" d="M557.8,0.3C558.9,0.3,558,0.3,557.8,0.3z"/>
		<path class="st1" d="M563.3,0.7c-0.2,0-0.3,0-0.5,0.1C563,0.7,563.1,0.7,563.3,0.7z"/>
		<path class="st1" d="M505.6,1L505.6,1C505.9,1,505.8,1,505.6,1z"/>
		<path class="st1" d="M559.5,0.3H558H559.5z"/>
		<path class="st1" d="M559.3,0.3h1C560.4,0.3,560.3,0.3,559.3,0.3z"/>
		<path class="st1" d="M556.2,0.3h1.8c-0.2,0-0.3,0-0.2,0H556.2z"/>
		<path class="st1" d="M153.5,1.3h-0.2C152.1,1.3,152.6,1.3,153.5,1.3z"/>
		<path class="st1" d="M419.9,1.5L419.9,1.5z"/>
		<path class="st1" d="M415.9,1.5c1.3-0.1,2.7-0.1,4-0.1l-1.3-0.3L415.9,1.5z"/>
		<path class="st1" d="M259.7,1.6l2.8,0.1c-3.4,0.2-5.9,0.1-3.2,0.2c0.4-0.3,11,0,11.4-0.4l1.9,0.1c-0.5,0-0.6,0-1.1,0
			c3.6,0.2,2.7-0.2,7.4-0.2c1.6,0,2.8,0.1,1.6,0.1l3.6-0.1c1,0,0.8,0.1-0.3,0.1h5.5l0,0c0.8-0.1,2.6-0.1,3.5-0.2
			c1.4,0-0.7,0-0.4,0.1l3.1-0.1c1.2,0.1-1.3,0.2-3.4,0.2c2.9,0.3,2.5-0.1,8.7,0.1H298c1.9,0.2,4.1,0.1,7.4,0.2
			c-0.8-0.1-6.6-0.3-3.2-0.4c0.9,0,2.2,0,4,0c1.3,0.1,2.7,0.2,4,0.1L310,1.7c2.4,0,2.2-0.1,3.6-0.2c1.3,0,2.6,0,3.8,0.2
			c4.2,0-2.9-0.2,2.1-0.2c3.5,0.1,6,0,10.2-0.1c2.5,0.1-0.4,0.1,0.5,0.1l2.2-0.1c0.5,0,0.4,0,0.3,0.1c1.8,0,0.1-0.2,3-0.2
			c0.8-0.2,5.9,0.3,9.5,0.1c0.9,0-0.4,0.1-0.1,0.2c4.9-0.1,4.2-0.1,8.2-0.3l3.4,0.1c-2.5-0.1,0.7-0.3,3.5-0.4
			c-0.9-0.1-1.7-0.1-2.2-0.1l4.5-0.1c0.5,0,0.1,0.1-0.6,0.1h0.8c1.6,0.1,0.8,0.1-0.4,0.2L360.6,1c-1.1,0.1-2.2,0.2-1.9,0.3
			s0.9,0,1.5,0c-0.3,0-0.5,0-0.3,0.1s0.6,0,1.4-0.1l1,0.2l0.2-0.1l5.9,0.1c4.2-0.2,7.9-0.4,14.6-0.5c-1.7,0.1-0.4,0.2-0.4,0.4
			c-1.8-0.2-5.2,0.1-8.7,0c1.8,0,1.4,0.1,1,0.1l6.2-0.1c1,0.1,2,0.2,2.9,0.1c-1.2-0.2,4.6-0.2,7.1-0.2c0.2,0.1-0.5,0.2-3.5,0.1
			c3.4,0.2,4.4-0.3,7.7-0.1c-0.5,0-1,0-1.5,0c1.7-0.1,3.3-0.1,5,0.1h-0.8c5,0,15.2,0,15.9-0.2c-0.3,0.1-0.6,0.2-1,0.3l8.9-0.7
			c-0.8,0.2,2.2,0.6-1.9,0.7c1.2,0,2.7,0.1,5.2,0c-0.8,0-2-0.3-0.9-0.3c3,0.2,2.1,0.1,5.9,0.3c-1.2,0,0.1-0.3,2-0.3
			c-0.3,0,0.2,0.3-0.5,0.3l4.8-0.3c-1.2,0-0.2,0.2,0.9,0.3c-0.5-0.1,4.1,0,5.4,0l-2-0.1C446,1.4,446,1,451.3,1
			c-0.6,0.1-1.6,0.4,1.1,0.4c1.2-0.1,5.5-0.7,10.2-0.8l0.9,0.1l3.6-0.1c-2.3,0.2-8.6,0.7-12.1,0.9c2,0.1,0.6,0.1,3.6,0.1
			c1.1,0.1-1.6,0.1-2.5,0.1l7,0c-0.3-0.2,5.4-0.2,5.1-0.3l-7.6,0.2c-0.3-0.2,4.4-0.5,9.4-0.4c1.3,0.1-1,0.3-0.9,0.4
			c0.6-0.1,4.7-0.1,5.2-0.1l-2.1,0.1c2.8,0.1,4.5-0.2,7.9-0.1c1.1,0,3.4,0.2,3.6,0.1c-1.9-0.2-2.2-0.8-1-0.9c0.4,0,6,0.2,7.4,0.3
			c1.9,0.1-2.8,0.4-1.2,0.5c0.1,0,1.1-0.1,1.6-0.1c1.2,0-0.5,0.1,2.1,0.1c0.4-0.2,5.3,0,1.2-0.1c2.6,0,2.7,0,5.8,0
			c-1-0.1,2.7-0.4,5.3-0.4c-0.1,0,0.4,0.1,0.7,0.1c5.3,0,8.1,0.1,13,0.1c0.5,0,2.8,0.1,1.8,0.2c0.7,0,1.3-0.1,2.9-0.1
			c2.9,0.1-3.4,0-1.1,0.2c0.2-0.1,3.9-0.1,6.1-0.2c-0.7-0.1-5,0-7.1,0c0-0.2,3.8-0.4,8.9-0.5c4.1-0.1,1.8,0.1,2.5,0.1
			c7.7,0.1,6.6-0.3,12.9-0.2c2.5,0.1,0.1,0.3,0.7,0.4c-3.3,0-5.1-0.1-7.3-0.1l2.8,0.1c-1.1,0-3.3,0.1-4.5,0c2.1,0.1,12.9,0,18.8,0.1
			c1,0,2.9-0.1,2-0.1h-1.9c-1.7-0.1,3.5-0.1,1.2-0.2c2.5-0.1,5.3-0.2,8.8-0.1l0.7,0.2c-1.1-0.1-2.2-0.1-3.3-0.1c1.5-0.1,5.4,0.2,7,0
			l-2.5,0c2.5-0.1,5.6-0.2,8.8-0.2c-1.4-0.2-0.7,0-3-0.2c1.9,0.2-8,0-4.9,0.2c-2.3-0.2-4-0.1-6.9-0.3c0.1,0.1,1.1,0.1-1.6,0.1
			l-0.6,0.1l0,0c0.6,0,1.1,0,1.3,0.1c-1.3,0.1-5.5,0.1-6.9,0.2s0.7-0.1-0.2-0.1l-2.1,0.1c-0.2-0.1-4.1-0.2-0.5-0.2H548
			c-2-0.1-4.6-0.1-6.3,0s-3.9,0.1-2.6,0L534,0.4l0,0c-5.1,0-10.5,0.2-16.4,0c-1.7,0-3.5,0.1-6.4,0l-0.6-0.1c-2.2,0-6.6-0.1-7.6,0
			c-2.4-0.3-10.8-0.1-14.7-0.1l-0.1,0.1c-2.7,0-5.2,0-8.6,0.1l0.2,0.1c-2.9,0.1-7.4-0.1-11.9-0.1c0.8,0,1.5,0,2.3,0
			c-5.4-0.3-11.4,0.2-16.3,0c-1.2,0-2.1,0-3,0h-0.2l-1.7-0.1l1.4,0.1c-1,0-2.4,0-3.8,0l-0.6-0.1h-0.3c-1.4,0-1.1,0.1-0.4,0.2
			c-0.7,0-1.4,0-1.9,0.1c-1.1-0.2-3.7,0.1-5.2-0.1c-1,0.1-7.1,0.1-7.8,0.3c0,0-0.5,0,0.3,0c-1.6,0-3.1,0-4.5,0l-0.7-0.2l-3.4,0.2
			c-2.1-0.1-2.9-0.2-0.9-0.3c-5,0.2-4,0.1-8.3,0.2l0.2-0.1c-1.5,0-3.9,0.1-4.8,0.1c-3.4-0.2-16.7,0-25.4-0.2c1.7,0.3-4-0.1-4.4,0.1
			c-0.5-0.1-1.7-0.1-0.3-0.2c-4.4,0.1-6.7-0.1-9.7,0.1c-0.5-0.1,1-0.1,0.5-0.1s-1.4,0.1-1.9,0s0.7,0,1.4-0.1c-4.5,0-5,0.2-5.3,0.4
			c-1.7-0.1-3.4-0.1-5.1,0c-0.8-0.1-2.1-0.1,0.7-0.2c-1.6,0-9.7-0.1-9.8,0.1c-0.5,0-2.2,0-2.6,0c-3.5,0-3.9,0-7.4,0h1
			c-1.9,0.1-3.8,0.1-5.7,0.1h0.1c-6.4-0.1-2.8,0.1-9.1-0.1l0.4,0.1c-0.6,0.3-5.6-0.1-9.3,0l1.3,0.1c-2,0.1-5.6-0.3-7.7-0.4
			c0.4,0,0.9,0,1.3,0c-5.3-0.2-0.7,0.2-4.6,0.2c-0.8-0.1,0.9-0.2-1.8-0.3c-1.3-0.1-7.7,0.3-11.3,0.1c0.8,0.1,1.6,0.1-0.2,0.2
			c-2.8,0-7.6-0.2-10.1,0c-0.2,0-0.3,0-0.5-0.1c-2.1,0.1-7,0.1-8.3,0.2c-2-0.4-13.4,0.2-13.3-0.2h-6.6h0.2c-4.2,0-5.7,0.1-7.2,0.2
			c-1,0-0.3-0.1-0.2-0.1c-6.2-0.1-6.8-0.1-12,0.1l-0.5-0.1c-1.4,0.1-8.9-0.2-15-0.1c0.2,0,0.4-0.1,0.7-0.1
			c-6.8,0.2-16.3-0.3-18.8,0.1l-4.5,0.1c5.8,0-0.9,0.2,1.5,0.3c-2.3,0-5.9-0.1-3.1-0.2h0.4c1-0.2-7.2-0.1-7.1-0.2
			c-11.4,0-22.6-0.1-33.3-0.1l1.2,0.2h-3.7c-1,0-1.3-0.1,1.4-0.1c-1.5-0.1-3,0-4.6,0.1c-5.2-0.1,2-0.2,0.4-0.2h-2.2h0.5
			c-1.8,0.1-1.9,0.2-5.1,0.1c-2,0-1-0.1-1.8-0.1c-0.4,0-0.8,0-1.2,0H136l1.9,0.1c-2.1,0.1-4.4,0-2.2,0.2c-3.2-0.3-17.6-0.1-19.6-0.2
			c-2.9,0.1-5.8,0.1-9.4,0.1c0.9,0,1.4,0.2-1.7,0.2c1.1-0.3-5.7-0.1-8.1-0.4c2.2,0.2-8.8,0-5.3,0.3c-2.6,0-0.2-0.1-2.1-0.2
			c-6.1,0.1-13.5-0.1-21.1,0c-0.1,0,1.2,0.1-0.5,0.2l-4-0.2c-1.4,0.1-2.7,0.2-4.1,0.1c0.4,0,1,0.1,0,0.1C45,0.4,29.5,0.8,14.5,0.4
			c2,0.1,0.7,0.1-0.9,0.1c1,0,0,0.1,0.2,0.2L7.5,0.5C6.3,0.6,0.7,0.5,0,0.6h2C-0.6,0.8,5.8,1,5.4,1.3c3-0.2,7.8,0.3,12.7,0
			c1.1,0-0.9,0.1-0.3,0.1c1.2-0.1,2.7-0.1,5.5-0.1h-0.3c7.8,0,11.1,0.1,19.8,0.1l-0.6-0.1c1.9,0,2.3,0.1,3.2,0.1
			c2.2-0.2-5.3,0-3.3-0.2c2.5,0.2,13.2,0,14.9,0.3c2.9,0-0.8-0.1,2-0.1l0.8,0.1l0.7-0.1c1,0,2,0,2.9,0.2c-0.5,0-1.3,0-1.8,0
			c2.4,0.1,6.9,0,7.8,0h-2.8c7.9-0.1,17.5,0,25.1-0.1H91c5.8-0.1,4.7,0.1,11,0h-0.2c1.3,0,3-0.1,4.7-0.1c-1.6,0.1,3,0.1,0.9,0.2
			c6.3-0.1,3.1-0.1,7.3-0.3l1,0.1c1.4-0.1,1.5-0.1,4.7-0.1c-2.6,0.1,2,0.1-0.9,0.2c6.7,0.2,9.9-0.2,13,0.1c3.1-0.3-5.8-0.1-4.1-0.2
			c-1.4-0.1,2.5-0.2,4.6-0.2s3.6,0.3,9,0.3H141c2,0.1,3.9-0.1,6.4,0c1.4-0.2,3.2,0,3.6-0.2h-4.9c2.8,0,5.4-0.3,10-0.2
			c-0.4,0-1.7,0.1-2.7,0.1c1.4,0.1,2.6,0,4,0c-0.4,0.2-6,0-9,0.2c1.4,0.1,5.7-0.1,4.1,0.1c2.2-0.3,5.3,0,8.9-0.2l-0.2,0.1
			c0.6,0,1.8-0.1,2.8-0.1l-1.9,0.2c2.9-0.1,5.7,0.1,8.5,0c-5.9,0-1.3-0.1-3.8-0.2c7.3-0.2,4.2,0.3,12.4,0.2c-1.1,0-4.2-0.1-2.4-0.1
			c1.6,0,3.6,0.1,4.6,0.1c5.4,0-0.8-0.1,1.5-0.2c1.7,0.1,3.3,0,5-0.1v0.1c6.2,0.1,1.6-0.2,7.2-0.2l-2.4,0.2h2.9L195,1.5
			c3.1-0.1,4.1-0.1,7.2,0c-0.7-0.1,0.4-0.2,3.1-0.2c0.9,0.2,1.9,0.2,2.8,0.1c-1.2,0.1-2.3,0.1-3.5,0.1c-0.2,0-0.9,0.1-1,0.1
			c2,0.1,5,0,6.4,0c-0.5,0-1.2,0-1.5,0l5.6-0.2c0.9,0,0.2,0.1-0.5,0.1c1.1,0,1.9-0.1,3.6-0.1c-0.9,0.2-1.8,0.3-2.7,0.2l5.4-0.1
			c0.7,0,1.4,0.1,2.1,0.2c3,0,7.3-0.2,11.2-0.1c0.2,0,0.6,0,1.4,0c3.7,0,7,0.1,11.4,0l2.5,0.2c3.4,0-3.4-0.2,2.4-0.3
			c4-0.1,1.5,0.1,2.9,0.2c2-0.1,5.5-0.3,9.2-0.1C261.8,1.6,260.9,1.6,259.7,1.6z M302,1.5c-1,0.1-2,0.1-3,0C300,1.4,301,1.4,302,1.5
			z M366.3,1.2c-0.6,0-1.5,0-2.6,0C364.5,1.2,365.4,1.2,366.3,1.2L366.3,1.2z M545.5,0.4L545.5,0.4C543.6,0.3,544.2,0.4,545.5,0.4z
			 M549.3,0.4c0.4,0,0.3,0,0.2,0s-1.1,0-2.1,0C548,0.4,548.7,0.5,549.3,0.4L549.3,0.4z M141.5,0.5h0.7C140.6,0.6,141,0.5,141.5,0.5z
			"/>
		<path class="st1" d="M359,1.4c-0.1,0-0.2,0-0.4-0.1C358.4,1.3,358.4,1.4,359,1.4z"/>
		<path class="st1" d="M233.4,1.6h-0.1h-0.1H233.4z"/>
		<path class="st1" d="M490.5,1.5c-0.8,0-1.2,0-1.5-0.1C489.5,1.5,490,1.5,490.5,1.5z"/>
		<path class="st1" d="M569.4,0.2l-2.4,0c1.2,0,1.6,0,2.2,0C569.1,0.3,568.7,0.2,569.4,0.2z"/>
		<path class="st1" d="M590.5,1c0.4,0,0.8,0,1.1,0l-0.1-0.1C590,0.9,589,1,590.5,1z"/>
		<path class="st1" d="M571.7,0.6c1.1,0.1,2.3,0.1,3.4,0.1h-0.3C575.3,0.5,573.5,0.6,571.7,0.6z"/>
		<path class="st1" d="M575.5,0.7h1.6C576.5,0.6,576,0.6,575.5,0.7z"/>
		<path class="st1" d="M554.1,0.4c0.8,0,0.5-0.1,1-0.1C556,0.2,549.7,0.4,554.1,0.4z"/>
		<polygon class="st1" points="573,1 572.4,0.8 571.5,0.9 		"/>
		<path class="st1" d="M559.6,0.9h2.7c0.2,0,0.5-0.1,0.7-0.1C561.4,0.9,559.5,0.8,559.6,0.9z"/>
		<path class="st1" d="M563,0.9c0.9,0,1.7,0,2.2,0H563z"/>
		<polygon class="st1" points="569.3,1 568.5,1 566.6,1 		"/>
		<path class="st1" d="M530.3,0.9h-3c-0.3,0.1,0.5,0.1,1.6,0.1C529.7,0.9,530.8,0.9,530.3,0.9z"/>
		<path class="st1" d="M539.3,1.2c-0.8,0-0.8,0-1.3-0.1l-0.1,0.1L539.3,1.2z"/>
		<path class="st1" d="M530.7,1.2c-0.3,0-4.3,0.1-0.5,0.1C530.4,1.3,533.4,1.3,530.7,1.2z"/>
		<polygon class="st1" points="485.9,1 486.6,1 486.5,0.8 		"/>
		<path class="st1" d="M446.4,1.6c3.5,0.1,0.8-0.2,4-0.1c0.8-0.1-2.6-0.1-1.8-0.1C446.5,1.5,445.4,1.5,446.4,1.6z"/>
		<path class="st1" d="M448.7,1.4h1.1H448.7z"/>
		<polygon class="st1" points="3.2,0.3 1,0.3 2.4,0.4 		"/>
		<path class="st1" d="M-1.1,0.5l-0.5-0.2L-3,0.5C-2.5,0.5-1.5,0.5-1.1,0.5z"/>
		<path class="st1" d="M308.3,1.8h0.2c-0.4,0-0.9,0-1.9,0L308.3,1.8z"/>
		<polygon class="st1" points="277.6,1.7 278.1,1.7 277.1,1.6 		"/>
		<path class="st1" d="M251.8,1.9c1.1,0,2.3,0,3.3,0C252.9,1.9,251.5,1.7,251.8,1.9z"/>
	</g>
</g>
</svg>
