<svg xmlns="http://www.w3.org/2000/svg" xmlns:xlink="http://www.w3.org/1999/xlink" width="25" height="346" viewBox="0 0 25 346">
  <defs>
    <clipPath id="clip-path">
      <rect id="Rectangle_60" data-name="Rectangle 60" width="25" height="346" transform="translate(5.204)" fill="#fff"/>
    </clipPath>
  </defs>
  <g id="vertical-divider-2" transform="translate(-5.204)" clip-path="url(#clip-path)">
    <g id="Group_34" data-name="Group 34" transform="translate(7.101 -31.75)">
      <path id="Path_319" data-name="Path 319" d="M253.076,348.362V346.5c-.1,0-.2.02-.3.029C252.876,347.2,252.976,347.8,253.076,348.362Z" transform="translate(-241.715 -340.105)" fill="#7ee8c4"/>
      <path id="Path_320" data-name="Path 320" d="M255.405,349.083V348.5a.894.894,0,0,1-.245.113A5.142,5.142,0,0,1,255.405,349.083Z" transform="translate(-240.401 -339.002)" fill="#7ee8c4"/>
      <path id="Path_321" data-name="Path 321" d="M255.248,348.8c-1.111.143-2.22.918-3.332-.03v-4.131c-.607-1.032-1.213,0-1.821,0,0-1.032,0-2.062-.3-2.062-.8-.676-1.325.441-1.514,2.44C251.681,349.46,252.895,360.783,255.248,348.8Z" transform="translate(-244.195 -342.376)" fill="#7ee8c4"/>
      <path id="Path_322" data-name="Path 322" d="M255.082,354.1v-5.431c-.7-.565-1.393-1.331-2.09-.78A17.541,17.541,0,0,0,255.082,354.1Z" transform="translate(-241.596 -339.444)" fill="#7ee8c4"/>
      <path id="Path_323" data-name="Path 323" d="M255.4,628.751c.186,0,.284.095.011,1.029,0-.362-.008-.692-.011-1.029-.174-.014-.427.047-.538-.42.346,3.6.672,7.8.768,11.887.323.531.648,1.044.974,1.511-.18-10.1-.18-20.21-1.8-28.479C254.8,619.1,255.336,623.12,255.4,628.751Z" transform="translate(-240.597 -193.057)" fill="#7ee8c4"/>
      <path id="Path_324" data-name="Path 324" d="M257.144,632.114c0,.351.012.681.012,1.028C257.429,632.218,257.332,632.123,257.144,632.114Z" transform="translate(-239.307 -182.657)" fill="#7ee8c4"/>
      <path id="Path_325" data-name="Path 325" d="M253.552,522.138a119.976,119.976,0,0,0-2.328-17.242c.862,11.746,1.294,23.793,2.453,32.753Q253.562,529.926,253.552,522.138Z" transform="translate(-242.571 -252.787)" fill="#7ee8c4"/>
      <path id="Path_326" data-name="Path 326" d="M248.713,487.155a80.286,80.286,0,0,0,1.221,20.159q-.412-9.268-.768-18.429C249.015,488.312,248.876,487.706,248.713,487.155Z" transform="translate(-244.062 -262.566)" fill="#7ee8c4"/>
      <path id="Path_327" data-name="Path 327" d="M249.865,492.677a99.629,99.629,0,0,0,2.108,18.955C251.488,504.989,250.849,498.488,249.865,492.677Z" transform="translate(-243.32 -259.522)" fill="#7ee8c4"/>
      <path id="Path_328" data-name="Path 328" d="M267.838,586.037a82.729,82.729,0,0,1,1.36,9.064c.424.709.945,1.647,1.6,2.918v-.827q-.821-7.192-1.5-14.58a52.053,52.053,0,0,0-1.3-5.538C267.912,580.065,267.846,583.068,267.838,586.037Z" transform="translate(-233.412 -212.998)" fill="#7ee8c4"/>
      <path id="Path_329" data-name="Path 329" d="M269.259,589.308c-3.627-6.05.383,6.255,0,0Z" transform="translate(-233.473 -207.205)" fill="#7ee8c4"/>
      <path id="Path_330" data-name="Path 330" d="M256.505,570.315c0-.234,0-.475,0-.712-.07-.682-.135-1.387-.206-2.066C256.366,568.483,256.437,569.383,256.505,570.315Z" transform="translate(-239.775 -218.256)" fill="#7ee8c4"/>
      <path id="Path_331" data-name="Path 331" d="M262.4,536.291c.121,4.078.338,8.164.63,12.18-.321-8.279-.638-16.63-1.54-23.547,0,1.029-.3,2.068-.3,3.1A30.872,30.872,0,0,1,262.4,536.291Z" transform="translate(-237.079 -241.746)" fill="#7ee8c4"/>
      <path id="Path_332" data-name="Path 332" d="M265.2,722.406c-.771-11.228-1.742-22.25-2.829-32.925-.11-21.676-.836-42.574-3.317-61.347-2.429-16.524-1.821-45.438-6.675-61.966-.13,1.778-.189,3.481-.191,5.121-.413-2.423-.889-4.71-1.441-6.836-1.055-27.285-1.7-54.063-1.7-81.936,0-4.136-.912-7.233-.912-11.366-.047-4.184-.107-8.3-.172-12.4-.068-.016-.135.037-.2.149-.383-17.014-.982-33.752-1.978-51.373-.3-8.262,0-16.535,0-24.789,0-3.1,1.213-3.1,1.517-5.167,1.517-8.259,2.732-14.456,3.337-23.747h.911a23.106,23.106,0,0,1,0-3.751c3.4,4.441,4.617,15.761,6.97,3.776h.011c.1.665.2,1.263.3,1.834v.2a.172.172,0,0,1,.033-.012,17.562,17.562,0,0,0,2.09,6.211V356.65c.425.343.852.565,1.277.379.081.158.164.3.242.478v1.478a2.8,2.8,0,0,0,.7.589c1.3,4.738,1.984,12.205,3.244,10.77.647-1.1.087-4.568-.3-8.5a5.181,5.181,0,0,0,.3-.788c.3,5.164,2.124,0,2.426,3.1,0,4.129.307,8.257.307,12.387,0,16.816.3,30.989,1.21,47.509.04.731.073,1.452.107,2.176.379,8.009.444,15.57.206,23.413-.208-.5-.4-1.024-.589-1.559a182.555,182.555,0,0,0,.2,18.947c1.215,15.491,2.428,30.979,2.732,47.5.242,17.313.878,33.985,1.894,51.562-.676-7.182-1.291-14.357-1.5-21.724.033-3.309.047-6.6-.016-9.8-.1,3.318-.076,6.574.016,9.8-.123,12.727-.487,25.8,2.361,35.609-.253,1.061-.555,1.061-.555,2.09,0,7.235-.3,14.461.911,20.655.3,0,.3,3.1.909,2.071.3,6.2.3,13.431.911,19.623a43.9,43.9,0,0,0,1.492,8.037c1.626,22.17,3.264,44.088,4.8,67.981.29,5.935.3,12.782.3,18.789-1.013-8.841-1.852-17.948-2.606-27.2.223-8.971.22-17.563-1.337-24.637-.29-1.647-.562-3.284-.818-4.931.672,9.965,1.364,19.855,2.155,29.568-.13,5.3-.338,10.725-.351,16.046-.022-.109-.043-.206-.064-.32q-.586-6.262-1.1-12.626c.2-7.978.216-15.651-.878-22.229-.136-.819-.285-1.633-.461-2.412-.288-1.64-.56-3.287-.814-4.928q.619,9.217,1.286,18.323c.278,3.762.563,7.517.867,11.247-.059,2.344-.13,4.719-.2,7.088-.074-.25-.15-.515-.233-.743-.3-2.076-3.867-7.857-4.778-4.761.074,15.9,1.517,38.212,1.213,38.212-1.213,1.027-2.806-26.219-3.11-25.191q-.2,2.29-.351,4.578c-.247-1.449-.5-2.867-.788-4.171-.3-3.095,0-7.227-.607-9.3-1.821-7.226-1.215-15.491-2.425-23.751-.912-5.17-2.125-11.36-3.341-17.555-.605,0-.3-3.106-.911-2.069,0-5.83,0-12.573-1.771-15.07-.019-.143-.031-.284-.048-.424a8.427,8.427,0,0,0-.239-1.62c.31-9.7-1.373-16.465-2.539-25.257-.155-3.025-.258-6.1-.258-9.266a57.715,57.715,0,0,0,0,7.233q.123,1.029.258,2.032c.4,7.838,1.21,15.3,1.868,22.755.18.608.467,1.588.672,2.5-.016.54-.036,1.077-.065,1.62a3.8,3.8,0,0,1,.352.424c.87,7.129,1.182,15.195,2.077,21.271,1.035,11.459.526,23.678.352,35.367q-.763-8.726-1.643-17.183c.518,7.054,1.041,13.705,1.609,20.16-.009,1-.016,1.979-.016,2.968v6.2c.133-1.93.236-3.842.324-5.746.351,3.853.715,7.662,1.118,11.413,1.419,20.709,2.156,42.082,1.686,63.043a14.419,14.419,0,0,1-1.1-1.4c-.182-10.106-.182-20.207-1.8-28.473,0,5.833.534,9.865.6,15.492-.175,0-.425.05-.537-.42.344,3.6.672,7.8.766,11.89-.785-1.308-1.564-2.773-2.342-4.238-.607-2.071-.607-5.167-.911-8.268-.524-13.4-.369-26.036-1.1-39.242.115-11.754.228-23.5.175-35.026C263.231,701.641,264.1,712.168,265.2,722.406ZM257.271,375.85c.126,1.061.275,2.156.436,3.248.067-.169.135-.332.211-.49A6.66,6.66,0,0,0,257.271,375.85Zm-.293,24.161c.523-7.091-.174-16.426-.647-25.45a.464.464,0,0,0-.233-.082C255.819,382.047,256.561,391.356,256.978,400.01Zm-6.3,28.327c.034-.054.065-.113.1-.171-.047,0-.093.016-.14.016C250.65,428.232,250.663,428.284,250.675,428.338Zm9.671,125.847c-1.516-8.262-1.516-18.595-2.124-28.922,0-3.1-1.215-6.189-1.215-10.325-.3-5.166-.909-8.262-1.212-12.4l-.607,3.1c.3-7.233-1.519-11.366-.911-18.592-.3,0-.912-1.032-.912-2.065-.3-5.161.3-10.333-.3-14.462-.3-5.164-.3-10.322-.911-14.458,0-1.036-.911-3.1-1.215-5.166-.123-2.519-.2-5.043-.284-7.561-.082.113-.163.216-.242.309a60.157,60.157,0,0,0,.222,6.216c.608,6.2,1.216,13.428,1.519,19.623.607,15.5,1.821,29.958,3.036,44.412.3,3.1.909,6.2,1.212,9.294,1.213,9.3.911,20.663,3.034,26.852C259.739,551.084,259.739,553.149,260.346,554.185ZM273.5,565.733a244.13,244.13,0,0,1-1.626-33.239c0-8.27-1.821-32.015-5.462-27.882C273.029,514.84,266.548,572.909,273.5,565.733Zm5.577,86.155a117.223,117.223,0,0,1-.907-13.426Q278.638,645.175,279.08,651.888Zm-12.362-44c2.124,13.423,2.431,27.881,3.641,41.307.911,10.331-.607,21.69,1.519,30.985h.911l-.3-1.03c.178-3.627.666-6.548.918-9.587.028.172.051.358.079.531-.017-.3-.033-.608-.048-.917a36.607,36.607,0,0,0-.039-6.559c-.146-1.112-.287-2.243-.424-3.38-.537-12.91-1.007-26.233-2.915-37.927-.907-7.229-2.426-13.423-3.338-20.655A57.684,57.684,0,0,0,266.718,607.889Z" transform="translate(-245.646 -338.133)" fill="#7ee8c4"/>
      <path id="Path_333" data-name="Path 333" d="M258.748,593.378q.556,6.695,1.035,13.493c.375,3.5.776,6.973,1.213,10.446,1.624,16.578,1.077,35.949,1.807,53.757a2.367,2.367,0,0,0,2.743-.054c.99-19.339-.636-38.676-.13-58.006-.033-.149-.061-.3-.1-.453-1.82-8.268-1.215-21.694-2.732-32.021-1.82-10.327-2.426-20.658-3.945-30.98C258.643,564.485,259.3,578.671,258.748,593.378Z" transform="translate(-238.481 -228.166)" fill="#7ee8c4"/>
      <path id="Path_334" data-name="Path 334" d="M249.431,500.15q.27,6.069.56,12.21c.718,11.4,1.627,21.528,2.724,31.881-.158-7.6-.258-15.236-.258-22.934C252.135,513.6,250.607,507.07,249.431,500.15Z" transform="translate(-243.559 -255.403)" fill="#7ee8c4"/>
      <path id="Path_335" data-name="Path 335" d="M252.466,538.383c-.323-2.839-.627-5.62-.918-8.4.233,11.261.6,22.436.994,33.588,1.235,18.334,2.31,36.679,3.909,55.014q.244,3.125.41,6.205c.341-34.121.686-68.137-3.141-97.1-.079-.531-.147-1.123-.222-1.686.206,13.783.647,27.414,1.128,41.007C253.98,557.469,253.3,547.923,252.466,538.383Z" transform="translate(-242.392 -241.148)" fill="#7ee8c4"/>
      <path id="Path_336" data-name="Path 336" d="M258.492,575.022c-.016,1-.026,1.987-.034,2.977.1,1.154.2,2.29.309,3.424.029-.7.057-1.393.084-2.08C258.729,577.895,258.618,576.452,258.492,575.022Z" transform="translate(-238.583 -214.129)" fill="#7ee8c4"/>
      <path id="Path_337" data-name="Path 337" d="M264.181,564.809c.011-.127.022-.256.031-.386-.175-3.264-.321-6.587-.462-9.939-.551-4.62-1.018-9.447-1.374-14.38C262.721,549.042,263.078,557.884,264.181,564.809Z" transform="translate(-236.424 -233.378)" fill="#7ee8c4"/>
      <path id="Path_338" data-name="Path 338" d="M268.445,539.711v-4.133c-.185-.628-.368-1.25-.549-1.878-.016.966-.034,1.944-.057,2.918Z" transform="translate(-233.412 -236.908)" fill="#7ee8c4"/>
      <path id="Path_339" data-name="Path 339" d="M265.372,503.21c1.182,18.306,2.422,35.468,3.667,52.476q.33,1.238.69,2.476a193.309,193.309,0,0,0-1.879-33.236c-.3-2.063-1.215-5.166-1.215-7.229-.287-9.778-1.252-19.087-2.127-28.372.257,4.44.532,8.921.839,13.5C265.355,502.957,265.365,503.081,265.372,503.21Z" transform="translate(-235.247 -261.37)" fill="#7ee8c4"/>
    </g>
  </g>
</svg>
