<svg xmlns="http://www.w3.org/2000/svg" viewBox="0 0 256.71 268.86"><defs><style>.cls-1{isolation:isolate;}.cls-2{mix-blend-mode:multiply;}.cls-3{fill:#fbb040;}.cls-4{opacity:0.8;}.cls-5{fill:#fbb042;}.cls-6{fill:none;}</style></defs><g class="cls-1"><g id="Layer_2" data-name="Layer 2"><g id="Layer_1-2" data-name="Layer 1"><g class="cls-2"><path class="cls-3" d="M75.13,133.29c-1.1,0-1.29,1.83-.13,1.89S76.27,133.33,75.13,133.29Z"/><g class="cls-4"><path class="cls-5" d="M75.27,130.12a4.32,4.32,0,0,0,.59.91,9.52,9.52,0,0,1,.7.87,1.56,1.56,0,0,1,.28,1.56.81.81,0,0,1-.31.48c-.14.07,0-.05.31-.48a1.4,1.4,0,0,0,0-.67A2.27,2.27,0,0,1,75.59,134a.33.33,0,0,1-.1.14.92.92,0,0,1-.26.21.33.33,0,0,1-.31,0,.44.44,0,0,1,.13.14.58.58,0,0,0-.24-.2c-.17-.06,0,0,0-.05h-.11c-.11,0,0,0,.11.06l.06,0-.06,0-.14-.06h.11s-.18,0-.11,0a.62.62,0,0,1,.27.15l.06.06,0,0a0,0,0,0,1,0,0h0a.53.53,0,0,1,0-.14h0v-.12h0v.06a.54.54,0,0,1,0,.08s0,0,0,.08l0,0,0,0,.1-.08.13-.05.18,0-.11,0a.57.57,0,0,1-.17-.12s0,0,0,0l0,0h0v0l0,.08h0v0h0v-.11c0-.59,0-1.17.08-1.73,0-.33-.18-.43-.36-1a5.15,5.15,0,0,1,0-1c-.2,0-.29-.44-.24-.85l-.13,0v-.59a4.25,4.25,0,0,0-1.6-.54,1.41,1.41,0,0,0-1.44.66,2,2,0,0,0-.17.95c0,.14-.34.12-.43.16a6.17,6.17,0,0,0,.87,1,1.61,1.61,0,0,0-1,.44c-.2.25-.12.57.6.87-.2.27.47.56.46.83a10.15,10.15,0,0,0,.14,1.16,2.32,2.32,0,0,1,.15.63l.09.24a6.64,6.64,0,0,0,.58,1.21,3.13,3.13,0,0,0,1,1,2.12,2.12,0,0,0,1.3.32,1.8,1.8,0,0,0,1.29-.78,8,8,0,0,0,.84-2.12,11.24,11.24,0,0,0,.54-1.71,3.32,3.32,0,0,0-.65-2.42,4.35,4.35,0,0,0-.81-.84,2.65,2.65,0,0,0-.57-.37A4.21,4.21,0,0,0,75.27,130.12Z"/></g><path class="cls-3" d="M5.64,177.36a19.65,19.65,0,0,0-.2,2A5.56,5.56,0,0,0,7.66,178c-.25-.07-.8-.27-1-.36A4.2,4.2,0,0,0,5.64,177.36Z"/><g class="cls-4"><path class="cls-5" d="M6.19,174.23c.06,1.41.87,1.8.91,2.43a1.86,1.86,0,0,1,.09.47c0,.15-.06,0-.09-.47a1.23,1.23,0,0,0-.21-.38,15,15,0,0,1-.17,1.66l.18.2c.17.22.37.35.55.56l-.35-1.24a.89.89,0,0,1-.36,0c-.17,0-.34.07-.58-.11a3.38,3.38,0,0,0,.58-.21l.57,2-.6-.41v.11l.48.69-.76-2.71H6.28s-.06,0-.13,0l.13,0s0-.06,0-.11l.84,3-.23,0c-.07-.07-.1-.31-.17-.37a1.56,1.56,0,0,1,0-.52l-.08-.13s0,0-.06,0v0a4.31,4.31,0,0,0,.17,2.28l-1.47-5.3c-.3-.19-.46-.32-.41-.24a6.17,6.17,0,0,1,.65,1s-.16-.15,0,0a3.15,3.15,0,0,1,.2.31c0,.09-.35-.33-.15.06.06.18-1.21-1.81-1-1.44.79,1.38.21.38.11.27s.27.56.23.5c-.23-.33,0,.16,0,.35.13.5-.3-.42,0,.55,0,.1.11.77.11.77S5,178,5,178l1.92,1.43c-.1-.11-.25-.2.54-.23-1-.22.22-.33,0-.5s.63-.15,1.33-.2c.11,0,0-.06.25,0s-.38-.12-.27-.14l.43.06.14,0,.33,0a6.56,6.56,0,0,0,.79.1,3.57,3.57,0,0,0,.58-.06l-.72-.24-.56-.1L9.45,178l-1.18-.2c-1.22-.19-2.39-.45-3.5-.61-.33-.05-.44.05-1,0-.18,0-.57-.1-1-.18,0,.07-.47,0-.86-.09l-.08,0-.57-.11c-.56.11-1.62.19-1.1.45a4,4,0,0,0,.59.23c.11,0-.15.06-.19.07.4.08.87.13,1.3.19-.45.08-1.23.3.32.44-.08.1.63.19.7.3a1.36,1.36,0,0,1,.22.51.22.22,0,0,1,.06.19l-.33,3.45,3.42-1.16.1,0,.1,0a2.92,2.92,0,0,1,1.19-.19c.4-.06.77-.29.76-1a2.11,2.11,0,0,1,.28-1.35L10,177l-2-.35a.75.75,0,0,1-.49-.47c-.14-.25-.13-.54-.33-.89a9.05,9.05,0,0,0-.8-1.58Z"/></g><path class="cls-3" d="M73.16,86a5.66,5.66,0,0,1,3.63-2.44c1.15-.28,3.26.13,2.85-1.39,1.66,1,2.82-1.39,3.47-2.85,1.35,1.48,2.47-2.15,3.81-3.17,1.63-1.22,2-2.38,3.13-4,2.25-3.06,3.4-6.89,4.68-10.43.79-2.21.22-4.51,1.24-6.67.83-1.7,1.57-3.43,2.38-5.15,1.51-3.28,1.89-7.25,3.61-10.32.52-.92.36-2.13,1.07-3,.7-.41,1.41-.79,2.11-1.16,1.46-1.1,2.38-2.52,3.92-3.54s1.69-2.61,2.84-3.75c1.37-1.24,2.59-2.63,4-3.84,2.76-2.35,5.29-5.2,4.82-9.08-.28-2.29-2-8-4.7-8.51-3.09.91-6.38,1.69-8.89,3.83-1.43,1.53-3.23,4.37-5.05,5.37-1.43.75-2.86,5.09-3.61,6.57-1.24,2.45-1.18,5.25-2.09,7.81-1.18,3.33-3.92,5.48-5.37,8.57-1,2.08-2.3,4.34-3.43,6.34a67.06,67.06,0,0,0-3.5,7.18c-1,2.37-1.34,5.29-2.8,7.41-3.43,5-4.75,11-7.9,16.15-.54,1.1-5.76,3.21-7,3.64-3,.34-3.85,1.08-5.52,4-.88,1.46-2,6.87,1,7s2.56-2.08,4.62-3.21C69,87.76,71.57,88.31,73.16,86Z"/><g class="cls-4"><path class="cls-5" d="M75.78,87.79a8.8,8.8,0,0,1-1.72,1.48,6.87,6.87,0,0,1-2.58,1,8.71,8.71,0,0,1-2.6,0c-.43-.08-.76-.19-1.2-.31s-.6.07-.85.25a6.94,6.94,0,0,0-.69.73L66,91l-.19.19a3.83,3.83,0,0,1-.6.51,4.36,4.36,0,0,1-1.5.7,5.17,5.17,0,0,1-1.41.16,5.87,5.87,0,0,1-.69,0,6.71,6.71,0,0,1-.89-.19,5.18,5.18,0,0,1-.91-.46,4.3,4.3,0,0,1-.73-.68,4.25,4.25,0,0,1-.49-.76,4.53,4.53,0,0,1-.29-.74,7.07,7.07,0,0,1-.22-2.56,12.48,12.48,0,0,1,.4-2.24,10.06,10.06,0,0,1,.36-1.1,8.41,8.41,0,0,1,.55-1.13,18.53,18.53,0,0,1,1.44-2A6.29,6.29,0,0,1,63,78.94a8.29,8.29,0,0,1,2.53-.65,2.64,2.64,0,0,0,.78-.14c.21-.06.58-.19.86-.3,1.22-.44,2.37-.89,3.38-1.35l.71-.34c.2-.1.39-.2.57-.31a3.11,3.11,0,0,0,.51-.36,2.28,2.28,0,0,0,.36-.46v0l.3-.46c.11-.18.21-.36.32-.53.21-.35.4-.7.59-1,.37-.68.7-1.33,1-1.94.61-1.24,1.14-2.3,1.6-3.22.39-.77.16-.25-.49,1.15-.33.69-.77,1.61-1.32,2.66-.28.53-.58,1.09-.92,1.67s-.74,1.23-1.09,1.71v0a2.73,2.73,0,0,1-1.28,1.1c-.53.28-1.25.62-2,.92s-1.48.61-2.28.91l-.6.21-.5.17c-.18,0-.32,0-.55.06s-.5.07-.8.13a7.75,7.75,0,0,1,.8-.06c.23,0,.37,0,.57,0l.53-.11.63-.16c.85-.22,1.68-.45,2.46-.7s1.54-.5,2.18-.77a3.21,3.21,0,0,0,1.62-1.11c.74-1,1.19-1.7,1.61-2.3,1.08-2.14,2-4.38,3-6.61A39.51,39.51,0,0,1,82,59.76c1.48-2.46,1.75-5.18,2.86-7.46a66.5,66.5,0,0,1,3.6-7c1.32-2.28,2.64-4.58,4-6.88a34.59,34.59,0,0,1,2.08-2.79,21.78,21.78,0,0,0,2.61-3.91,20.34,20.34,0,0,0,1.38-4.52,15,15,0,0,1,1-3.16c-.61,1.57-.79,3.5-1.34,5.55a13.24,13.24,0,0,1-1.22,3,21.78,21.78,0,0,1-1.74,2.6c-.61.79-1.22,1.54-1.75,2.3-.26.37-.52.75-.74,1.13s-.39.75-.65,1.2L89.1,45.1c-1,1.71-1.88,3.35-2.71,5.1-.42.87-.81,1.74-1.2,2.63a23.33,23.33,0,0,0-.92,2.64c-.28.93-.56,1.9-1,2.89a11.52,11.52,0,0,1-.71,1.46c-.13.24-.3.48-.44.7l-.39.58a35.89,35.89,0,0,0-2.68,5c.2-.37.39-.74.6-1.09.45-.9.93-1.77,1.43-2.62.27-.41.51-.84.8-1.24l.42-.6a8.78,8.78,0,0,0,.48-.76,39.22,39.22,0,0,0,2.27-6c.32-.84.79-1.8,1.21-2.69s.9-1.81,1.38-2.69,1-1.73,1.49-2.62l1.56-2.72,1.05-1.87,1.07-1.84-2.12,3.71C89.86,44.77,89,46.4,88.19,48s-1.54,3.29-2.29,5.09c-.45,1-.82,2.12-1.27,3.41a18.41,18.41,0,0,1-1.76,3.93l-.25.38-.21.28L82,61.6c-.27.38-.53.75-.8,1.11-.52.75-1,1.52-1.5,2.32-.53,1.08-1,2.19-1.53,3.3-.12.35-.24.71-.39,1.08l0,0c.58-.58,1.76-2.86,3.5-5.6.44-.67.92-1.37,1.46-2.06l.41-.51c.18-.25.39-.52.55-.79a11.93,11.93,0,0,0,.89-1.64c.51-1.1.87-2.17,1.23-3.15q.27-.73.54-1.38c.1-.2.19-.41.29-.6l.35-.7c1-1.89,2-3.75,3-5.45.26-.41.54-.85.82-1.32l.82-1.36,1.52-2.58c.25-.41.48-.81.71-1.2l.55-1a15.13,15.13,0,0,1,1-1.46c.7-.93,1.41-1.81,1.79-2.4A16,16,0,0,0,99,33a14,14,0,0,0,.84-3.67c.24-2.3.13-4.17.87-5.71.4-.88.68-1.47,1-2.07a8.5,8.5,0,0,0,.65-1.63,2.48,2.48,0,0,1,.18-1.16,2.19,2.19,0,0,1,.91-1.05,7,7,0,0,0,1-.67c.37-.29.69-.58,1-.87A14.05,14.05,0,0,0,108,12.9a2,2,0,0,1,.45-.47,1.26,1.26,0,0,1,.54-.22,8.62,8.62,0,0,1,1.71-.27c1.2-.06,2.32.07,2.39-.19.22-.87.38-1.07.58-1.06a2.8,2.8,0,0,0,1,.22l.22,0a2.25,2.25,0,0,1,.55-.17.59.59,0,0,1,.63.25,7.67,7.67,0,0,0,.33.85l.46.91c.2.41.42.84.63,1.36A8.09,8.09,0,0,1,118,15.8a3.51,3.51,0,0,1-.16,2.15,6,6,0,0,1-1,1.56c-.38.48-.8.94-1.3,1.52l-.8.95-.48.58c-.2.24-.4.49-.59.76l-2.76,3.29a7.15,7.15,0,0,0-1.09,1.45c-.28.49-.45.89-.6,1.21l-.18.4a2.68,2.68,0,0,1-.12.24,2.08,2.08,0,0,1-.11.21,3.4,3.4,0,0,1-.83.74,22.09,22.09,0,0,0-3,2.89,4.11,4.11,0,0,1-1.13.89c-.52.29-1,.58-1.54.85l-.18.1-.17.2a5.34,5.34,0,0,0-1,2.11,5.1,5.1,0,0,1-.24.65,2.44,2.44,0,0,1-.35.51c-.34.45-.71,1-1.07,1.52C98.74,43.43,98.22,46.49,97,49l-2.14,4.09-.52,1c-.07.14-.2.44-.3.65s-.17.46-.24.69a10.32,10.32,0,0,0-.4,2.52,8.67,8.67,0,0,1-.48,3.13c-.43,1-.85,1.9-1.29,2.74a31.75,31.75,0,0,1-3.14,4.84c-.34.49-.61.91-.89,1.26l-.48.6c-.19.22-.36.41-.53.58a4.55,4.55,0,0,0-.77,1.34,2.22,2.22,0,0,1-.72,1.08c-.15.11-.29.24-.43.35,0-.23.08-.47.14-.7a8.26,8.26,0,0,0-1.16,1c-.2.22-.4.45-.55.65l-.34.43c-.33.43-.36.22-.42,0-.08-.41-.21-.74-.87-.14a5.72,5.72,0,0,1-.43.47c-.06.07-.08,0-.11.07h0l.06,0,.13.09.49.4c.32.27.64.59.92.87A3.63,3.63,0,0,1,83.76,79s0,0,0,0a.75.75,0,0,1,.08-.22.65.65,0,0,0,.09-.11,1.82,1.82,0,0,1,.15-.23,1.67,1.67,0,0,1,.39-.36l-6.17-.93a7.38,7.38,0,0,1-.49.76c-.1.1-.09,0-.13,0a.27.27,0,0,1,.07.14,1.05,1.05,0,0,0,0,.18.37.37,0,0,1-.07.23s0,0-.07.06l-.38.08-.61.11a5.43,5.43,0,0,0-.67.16,3.06,3.06,0,0,1-.77.77,11.36,11.36,0,0,0-2.49,1.46c-.25.69.19,1,.07,1.4.36.49.08,1.5.15,2.36s.33,1.54,1,1.62c.2,0,.69-.58,1.45-.93a3.09,3.09,0,0,1,2.29-.21c.23.15-.26.59-.28,1.07a1.52,1.52,0,0,1,.64,0,3.19,3.19,0,0,1,.72.15c.15.06.17.16.06.27a.83.83,0,0,1-.24.18,3.51,3.51,0,0,0-.34.18l.49,0,.51,0,.49-.07c-.15.19-.71.7-.71.7a7.55,7.55,0,0,0,1.56-.24A4.41,4.41,0,0,0,81.71,87l.11-.07.05,0h0c0-.06.06.12-.05-.12H82a4.3,4.3,0,0,0,.63-.12,5.74,5.74,0,0,0,1.44-.6,8.66,8.66,0,0,0,2.49-2.34c.17-.22.36-.51.48-.69l.35-.55.59-1L79.2,82.88c.2.22.42.44.64.64l.36.29a4.18,4.18,0,0,0,.44.31,6,6,0,0,0,2.86.9,5.18,5.18,0,0,0,1.58-.12,6.36,6.36,0,0,0,1.34-.43c.28-.14.56-.29.83-.46l.4-.27.24-.19c.17-.14.33-.27.48-.42l.34-.33.3-.33.23-.26c.3-.36.49-.62.68-.87.36-.48.63-.87.74-1s0,0,0,0l.12-.1.22-.18.43-.4a9.15,9.15,0,0,0,.79-.86,11,11,0,0,0,1.16-1.71,10.52,10.52,0,0,0,.77-1.67,11.38,11.38,0,0,1,.51-1c.18-.41.37-.79.5-1.13.3-.68,1.24-1.94,1.49-2.43,0-1-.46-1.09-.7-1.62.5-.88,1.07-2,1.6-3.19.26-.58.52-1.18.77-1.76l.36-.86.08-.21.13-.36c.09-.24.15-.48.21-.7a10.2,10.2,0,0,0,.32-3.69c-.08-.66-.28-.91-.67-1,.1-.47.16-.73.18-.93a1.07,1.07,0,0,1,.08-.29l.09-.35c.06-.23.12-.45.17-.67a17.36,17.36,0,0,1,1-3.22l.52-1.23c.2-.48.38-1,.55-1.46.32-1,.59-2,.85-3A26.67,26.67,0,0,1,104,40.9a5.71,5.71,0,0,0,.57-1.49c.16-.64.2-.95.26-1.15s0-.12,0-.12h0l-.07,0-.11-.06a.5.5,0,0,1-.12-.09l-.35.74,1.48-.85.52-.29a2.24,2.24,0,0,0,.51-.36l.48-.39.38-.36c1-1,1.69-1.76,2.37-2.28l.27-.2a7,7,0,0,0,2.26-2.54,11.86,11.86,0,0,1,.86-1.41,5.29,5.29,0,0,1,.53-.52l.75-.73c1-1,1.85-1.87,2.71-2.6a16.5,16.5,0,0,0,5.33-6.84,10.11,10.11,0,0,0,.44-4.74,22.07,22.07,0,0,0-1-4l-.17-.48-.23-.57c-.16-.39-.36-.78-.55-1.16s-.43-.75-.64-1.12-.48-.71-.76-1a6.55,6.55,0,0,0-1.9-1.58,5.16,5.16,0,0,0-1.15-.44c-.38-.06-.74,0-1.14-.1l-2.08.59-1,.3-.92.29a23.72,23.72,0,0,0-3.09,1.24c-.51.27-1,.55-1.54.88-.25.16-.5.34-.75.52s-.56.45-.84.67-.53.59-.69.78l-.51.63-.93,1.2a20.83,20.83,0,0,1-1.72,2,3.74,3.74,0,0,1-.38.34l-.1.07-.23.16c-.16.1-.3.23-.46.33a6.54,6.54,0,0,0-1.43,1.75,53.35,53.35,0,0,0-2.65,6.39c-1,2.94-.86,5.53-1.54,7.56S92.47,33.71,91,36a18.46,18.46,0,0,0-1,1.8c-.31.67-.58,1.15-.87,1.73L87.32,42.8c-.6,1.11-1.19,2.23-1.79,3.33s-1.15,2.28-1.68,3.43-1,2.25-1.5,3.54-.73,2.43-1.11,3.5a13.18,13.18,0,0,1-.62,1.51,7.08,7.08,0,0,1-.38.66l-.48.7a30.45,30.45,0,0,0-1.91,3.21c-1.15,2.16-2.06,4.33-3,6.36-.46,1-.93,2-1.42,2.94-.24.47-.49.93-.75,1.37l-.39.66L72,74.5a2.12,2.12,0,0,1-1,.85l-.75.36-.87.38c-.59.25-1.19.48-1.79.7l-.89.32-.44.15-.28.08a.86.86,0,0,1-.28,0,2.57,2.57,0,0,0-.4,0,10.48,10.48,0,0,0-1.27.23,6.94,6.94,0,0,0-2.44,1.07,8.87,8.87,0,0,0-1.84,1.83c-.48.63-.79,1.1-1.17,1.68a8.38,8.38,0,0,0-.72,1.48A10.82,10.82,0,0,0,57.39,85,12.24,12.24,0,0,0,57,87.79a6.73,6.73,0,0,0,.74,3.42,6.15,6.15,0,0,0,.72,1,5,5,0,0,0,1.06.84,5.27,5.27,0,0,0,2.31.69,6.47,6.47,0,0,0,3.36-.6A6,6,0,0,0,66.73,92l.38-.39a2.09,2.09,0,0,1,.42-.38c.16-.1.32-.19.49-.09l.43.12.19,0,0,0,.33,0a9.13,9.13,0,0,0,2.76-.16,7.87,7.87,0,0,0,2.39-1.37A7.65,7.65,0,0,0,75.78,87.79Z"/></g><path class="cls-3" d="M86.07,138.62c-1.09-.35-1.61.68-2.11,1.45l1.47,1.43C86,140.75,87.19,139.31,86.07,138.62Z"/><g class="cls-4"><path class="cls-5" d="M87.74,135.92a4.66,4.66,0,0,0,.21,1.21c.06.23.12.45.17.68a3.54,3.54,0,0,1,.09.71,1.67,1.67,0,0,1-.76,1.61.9.9,0,0,1-.53.24c-.16,0,.06,0,.53-.24a1.53,1.53,0,0,0,.42-.57,2.8,2.8,0,0,1-1.72.25.87.87,0,0,1-.21.17,2.81,2.81,0,0,1-1.09.57,4.13,4.13,0,0,0-.47.21l1.94-.19a.64.64,0,0,1,0-.27l.1.15-2.19.22c.45-.41.81-.67,1.1-.95l-.11,0-.9.27a.27.27,0,0,1-.18.06l.18-.06c.08-.08,0-.25.06-.36s.29,0,.35,0a3.6,3.6,0,0,1,.49.11l.13,0,0,0h0c-.55-.19-1.22-.4-1.76-.53s-1-.12-1,0a2.5,2.5,0,0,0,.39.65l4.55-.45a1.21,1.21,0,0,1-.51.21c-.06,0,.08-.23-.1-.1s-.2.16-.29.23.16-.5-.2-.24c-.17.08,1.34-1.73,1-1.43-1.14,1.12-.31.31-.32.1,0,0-.48.39-.45.32.19-.37-.21,0-.43,0-.5.22.17-.54-.66.07a1.63,1.63,0,0,1-.3.13l.29,2.47-.28-.42c.23-.1-.36-.65.64-.13-.71-.69.32-.13.18-.23s0,0-.07-.08l-.16-.19a2.55,2.55,0,0,1-.18-.28l0-.09s0-.08,0-.06h0a.24.24,0,0,1,0,.09,1.22,1.22,0,0,1,0,.26v0l0,.11v.05c.07-.26.15-.51.22-.76.18-.57.38-1.11.54-1.65.09-.32-.08-.47-.1-1.07a5.39,5.39,0,0,1,.27-1c-.19,0-.18-.51,0-.88l-.13-.09.16-.57a4.35,4.35,0,0,0-1.41-1,1.54,1.54,0,0,0-1.68.24,1.81,1.81,0,0,0-.49.87c0,.14-.37,0-.46.05a5.23,5.23,0,0,0,.53,1.19c-.68-.11-1.91,0-.75,1.08-.25.15.29.65.2.86s-.16.57-.23.8a.45.45,0,0,1-.12.32l0,.09-.06.11-1,1.52,1.37,1.37c.47.48.16,1.55,1.41,1.22l.32-.07,2.87-.28a1.07,1.07,0,0,1,.2-1.2c.27-.32.71-.56,1.19-1a2.74,2.74,0,0,0,.66-1,3.41,3.41,0,0,0,.17-1.54,4.31,4.31,0,0,0-.82-2A6.18,6.18,0,0,0,87.74,135.92Z"/></g><path class="cls-3" d="M148.32,49.53c.78-1.87,1.05-4.09,2.19-5.77.74-1.12,1.77-2,2.43-3.21.48-1.16.78-3.77,1.61-4.64s-.46-1.86-1.28-2.72c-1.58.21-2.1,1-3.41,1.67-1.46.77-1.66,2.36-3.2,3.25s-1.4,2.8-2.91,3.52a15.16,15.16,0,0,0-3.56,2.72c-5.06,5.1-7.45,12.29-12.58,17.55-2.84,2.9-3.19,7-6,9.73-2.08,2-4.84-.33-7.06,2.44a20.86,20.86,0,0,0-3.23,8.15c-.29,2,1.26,8.13,3.8,5.16.94.83,5.51-3,6.22-4.37.73-1.14.69-3.52,2.43-3.51a13.52,13.52,0,0,0,2.82.3c5.17-.9,7.15-9.07,8.63-13.21,1.22-3.48,5.34-5,7.5-7.8A43.12,43.12,0,0,0,148.32,49.53Z"/><g class="cls-4"><path class="cls-5" d="M151.25,50.72c-.76,1-1.79,2.52-3.07,4.24-.64.86-1.34,1.77-2.09,2.71l-1.16,1.41-.61.71c-.2.23-.48.54-.73.78-2.06,2-4.3,3.08-5.72,4.48a5.94,5.94,0,0,0-1.53,2.15l-1,2.45a29.49,29.49,0,0,1-2.49,5.14c-.68,1,.86-1.33,2.49-5.14.34-.84.69-1.8,1.08-2.74a6.78,6.78,0,0,1,1.81-2.31,8.79,8.79,0,0,0-1.63,1.3,6,6,0,0,0-.62.79c-.19.28-.37.62-.55.93-.71,1.25-1.36,2.41-2,3.34a26.09,26.09,0,0,1-2.06,4.3c-1.18,1.9-2.74,3.6-4.76,3.93a3.61,3.61,0,0,1-1.6-.13,8.11,8.11,0,0,0-.93-.18,2.44,2.44,0,0,0-1.22.15,2.2,2.2,0,0,0-.94.83,4.65,4.65,0,0,0-.48.94l-.31.87c-.1.25-.18.5-.3.73a4.74,4.74,0,0,1-1,1.21c-.41.4-.85.77-1.3,1.13a10.71,10.71,0,0,1-2.81,1.67,1.39,1.39,0,0,1-.23,0s0,0,0,0,0,.22,0,.31a.6.6,0,0,1-.09.3l-1.08-.39c-.15.11-.33.33-.44.34s-.06,0-.07,0h0s0,.08,0,.08a.07.07,0,0,1,0,0s0,0,0,0a2.83,2.83,0,0,1-.68-1.16,7.09,7.09,0,0,1-.42-3.55,7.53,7.53,0,0,1,.29-1c-.09.33-.16.7-.21,1a8,8,0,0,0,.53,3.46,4.14,4.14,0,0,0,.35.7c.06.08.12.2.17.22l.06.08s0,0,0,0c-.13.33-.1.2-.12.33a.53.53,0,0,0,0-.21c0-.09-.08-.11,0-.12s.06,0,.14-.09a1.51,1.51,0,0,1,.23-.21l.51-.43.79,1a1.3,1.3,0,0,0,.09-.77l0-.15h0s0,0,0,0l.11,0a4,4,0,0,0,.65-.3,11.35,11.35,0,0,0,1.45-1c.48-.37,1-.76,1.39-1.16.22-.2.43-.41.62-.61a5.17,5.17,0,0,0,.48-.57,3.83,3.83,0,0,0,.34-.67l.28-.83a10.52,10.52,0,0,1,.44-1.06,3.11,3.11,0,0,1,1-1.18,2.79,2.79,0,0,1,1.65-.45,7.34,7.34,0,0,1,1.11.18,3.41,3.41,0,0,0,1.52.12,4.66,4.66,0,0,0,2.19-1.08,8.84,8.84,0,0,0,1.79-2.11A4.16,4.16,0,0,1,130,76a8.6,8.6,0,0,1-1.63,1.62,4.67,4.67,0,0,1-1.88.76,2.44,2.44,0,0,1-1-.06l-.52-.14a5.55,5.55,0,0,0-.84-.15,2.9,2.9,0,0,0-.6,0,2.4,2.4,0,0,0-.69.13,2.74,2.74,0,0,0-1.2.75,5,5,0,0,0-1,1.74l-.25.69c-.07.19-.12.32-.19.47a3,3,0,0,1-.56.8c-.19.2-.54.53-.84.79s-.65.54-1,.8a8.35,8.35,0,0,1-2,1.27,11,11,0,0,0,2-1.27A13.1,13.1,0,0,0,119,83.1a4.65,4.65,0,0,0,.82-1,10.7,10.7,0,0,0,.48-1.46,6.74,6.74,0,0,1,.52-1.23,3.54,3.54,0,0,1,1.48-1.44,3.09,3.09,0,0,1,1-.3l.5,0,.38,0,.61.11.27.07.16,0a2.81,2.81,0,0,0,1.24.2L127,78a4.09,4.09,0,0,0,.49-.18,8.22,8.22,0,0,0,1.26-.68A7.47,7.47,0,0,0,130,76a16.18,16.18,0,0,0,1.26-1.91c.08-.22.17-.45.26-.68l0,0c-.35.24-1,1.08-1.94,2a8.2,8.2,0,0,1-.75.68l-.41.33-.42.26a3.41,3.41,0,0,1-1.67.46,2.53,2.53,0,0,1-1.08-.29l-.7-.17a4.36,4.36,0,0,0-1.1-.08,4.06,4.06,0,0,0-1.55.36,4.37,4.37,0,0,0-1.32.92,6,6,0,0,0-1.2,1.81c-.23.49-.37.87-.49,1.15a1.9,1.9,0,0,1-.57.72c-.06,0-.3.26-.49.41l-.64.5c-.44.33-.88.63-1.27.87a6,6,0,0,1-1,.5s-.08,0-.08,0c.12.28.22.58.31.86a5.38,5.38,0,0,1,.21.76c.25,1,.1,1.51,0,1.51L112.31,85s-.09-.16.28.23a3.62,3.62,0,0,1,.36.42,3.2,3.2,0,0,0,.29.37,1.78,1.78,0,0,1,.35.51,1.72,1.72,0,0,1,.11.29.41.41,0,0,1,0,.09.59.59,0,0,1,0,.23s0-.06,0-.07v0a.23.23,0,0,0,0-.07,1.33,1.33,0,0,1,.11-.24,2.62,2.62,0,0,1,.17-.21,3.51,3.51,0,0,1,.29-.36,3.07,3.07,0,0,1,.34-.29c.11-.06.28-.26.43-.36.45-.36.3-.2.3-.23l-.1-.08a3.34,3.34,0,0,1-.57-.74,6.86,6.86,0,0,1-.82-2,5.1,5.1,0,0,1,.17-1.55,18.87,18.87,0,0,0,.76-2.27c-.11-.12-.08-.49,0-.86a6.37,6.37,0,0,1,.62-1.19,4.64,4.64,0,0,1,.57-.72c.4-.4.79-.7,1.17-1A.75.75,0,0,1,118,75c.13.08.33.2.37.31s0,0,0,.05l.13,0,.27.09.56.17c1.51.49,3.06.36,3.14.08.27-1.05.25-1.16.65-1.33a5.1,5.1,0,0,0,2.59-2c.37-.42.42-1.78.81-2.39a6.76,6.76,0,0,0,1.17-2.32,13,13,0,0,1,.74-2.3,4.29,4.29,0,0,1,.9-1.49l.25-.26.34-.33.64-.62a7.94,7.94,0,0,0,2.06-3.36c.08-.19.73-1.47,1.28-2.68l1.06-2.38c1.08-1.64,1.75-3,2.51-4.28a7.82,7.82,0,0,1,3-3,7.87,7.87,0,0,1,3.73-3.72,5.21,5.21,0,0,0,1.72-1.1A7.75,7.75,0,0,0,147,40.55a2.49,2.49,0,0,1,.52-.67s0,0,.06,0l.3-.19a5.38,5.38,0,0,0,.84-.7c.8-.85,1.22-1.62,1.46-1.81a1.76,1.76,0,0,1,1-.55,11,11,0,0,1,1.65-.62c.38,0,.5.09.84.19l-2.57-.9c.3.43.55.75.7,1l.12.17,0,0h0s0,0,0,0l.08-.06a6.68,6.68,0,0,1,1.67-1.1,1.15,1.15,0,0,1,.36-.09c-.06,0-.06,0-.19-.08a2.53,2.53,0,0,1-.3-.2,1.35,1.35,0,0,1-.19-.16l0,0,0,0c.29.27-2.47-2.39-1.3-1.26h0l0,0-.14.15-.28.35-.21.34a4.62,4.62,0,0,0-.49,1.29c-.18.78-.22,1.45-.4,1.93l-.36-.36c-.11.31-.34.91-.45,1.21s-.23.15-.35.06a1,1,0,0,0-.38-.23.31.31,0,0,0-.21,0l-.12.07-.08,0a.64.64,0,0,1-.36,0,11.12,11.12,0,0,0-1.4,1.31c-.24.39-.5.83-.76,1.35a10.35,10.35,0,0,0-.67,1.58,13.47,13.47,0,0,0-.57,2.64,1.24,1.24,0,0,1,.42.53c0,.43,0,.83,0,1.19.35.32.82.4,1.06.62a3.66,3.66,0,0,1,1.49,1.25c.44.52.84,1.05,1.43,1.08.19,0,.54-.6.89-1.27a6.4,6.4,0,0,1,1.17-1.76c.24-.15.46.44.82.78.36-1.16.81-.95,1.05-.45l.23-.41.46.41a2.45,2.45,0,0,1,.48-.57c.16-.13.26-.14.48-.3a9.12,9.12,0,0,0,.83-.64,7.54,7.54,0,0,0,.57-.5l.31-.31c.09-.08.28-.31.41-.46a7.48,7.48,0,0,0,1.4-2.2,10.68,10.68,0,0,0,.43-1.24l.21-.7c.12-.41.21-.76.26-1a1.37,1.37,0,0,0,0-.29s0-.07,0,0c-.44-.16-1.15-.53-1.51-.68s-.81-.44-1.09-.59a4.35,4.35,0,0,1-.47-.32,3.52,3.52,0,0,1-.37-.27c-.05-.05-.11-.1-.16-.16h0c-.62-.61,5.46,5.26,2.89,2.78h0l0,0,.07-.07.12-.16c.17-.23.32-.42.49-.69a8.09,8.09,0,0,0,.48-1,5.87,5.87,0,0,0,.22-3.83,5.87,5.87,0,0,0-.36-1,4.85,4.85,0,0,0-.39-.69,6,6,0,0,0-1.23-1.34,5.76,5.76,0,0,1-.74-.75c-.18-.23-.23-.37-.21-.4l.7-1.89-5,.38h-.22c-1,.59-.73,1.05-1,1.58a8.85,8.85,0,0,0-2.16.79l-.74.37c-.21.1-.29.12-.52.22A7.16,7.16,0,0,0,145.49,33a9.8,9.8,0,0,0-.76,1,2.83,2.83,0,0,0-.25.4c0,.08,0,.11,0,.15l.07.07.1.12.1.11,0,.07v0l.19.28c.11-.06-.24.14-.44.28a5.6,5.6,0,0,0-.59.48,4.47,4.47,0,0,0-.76.94,4.08,4.08,0,0,0-.55,1.35c0,.23,0,.37,0,.57a.87.87,0,0,1-.3.59c-.11.09-.24.16-.41.28a18.92,18.92,0,0,0-3.56,3,32.68,32.68,0,0,0-3,3.81c-1.06,1.64-2,3.18-3,4.72-.35.57-.68,1.13-1,1.66A39.33,39.33,0,0,1,127.12,59c-.37.44-.78.82-1.16,1.23a14.39,14.39,0,0,0-1.44,1.67,23.56,23.56,0,0,0-2,3.46A28.38,28.38,0,0,1,121,68.18a6.48,6.48,0,0,1-.37.55c-.08.11-.19.23-.29.35a2.27,2.27,0,0,1-.69.58,2.06,2.06,0,0,1-.88.2l-.47,0-.74,0q-.33,0-.66.06a6.34,6.34,0,0,0-4.46,2.62,12,12,0,0,0-.66,1c-.22.37-.39.73-.53,1q-.41.88-.72,1.8a23.78,23.78,0,0,0-1,3.78c-.09.55-.16,1-.22,1.7a7.65,7.65,0,0,0,0,1.44c.06.44.14.86.23,1.27a13,13,0,0,0,.83,2.39,6.5,6.5,0,0,0,.71,1.22,3.48,3.48,0,0,0,.55.64l.35.31a4,4,0,0,0,.49.3,2.85,2.85,0,0,0,1.25.3,3.06,3.06,0,0,0,1.18-.29,3.62,3.62,0,0,0,.79-.54c.19-.19.38-.38.55-.57l-2.18.15a2.39,2.39,0,0,0,.47.31A2.69,2.69,0,0,0,115,89a2.33,2.33,0,0,0,.68,0,3.46,3.46,0,0,0,.85-.22,6.75,6.75,0,0,0,1.11-.56A16.08,16.08,0,0,0,119.42,87a20.53,20.53,0,0,0,1.56-1.4c.25-.25.48-.48.75-.78a6.84,6.84,0,0,0,.73-1,9.33,9.33,0,0,0,.83-2.06,3.37,3.37,0,0,1,.41-.89v0c0,.08,0,0,0,0s0,0,.1,0a5.66,5.66,0,0,1,.79.15,5.41,5.41,0,0,0,2.33.15,7.62,7.62,0,0,0,3.56-1.73,11.92,11.92,0,0,0,2.33-2.7,31.83,31.83,0,0,0,2.87-5.67c.37-.9.73-1.8,1.08-2.67.17-.41.35-.87.51-1.19a4.6,4.6,0,0,1,.49-.75,14.11,14.11,0,0,1,3.34-2.67c.66-.44,1.35-.9,2-1.42a14.81,14.81,0,0,0,2-1.83c1-1.08,1.85-2.11,2.6-3.06a36,36,0,0,0,3.14-4.58C151,52.18,151.15,51.46,151.25,50.72Z"/></g><path class="cls-3" d="M154.81,27c0,4.27,5.4,2.33,7.7,1.7,2.65-.72,3.86-1.85,5.81-3.78,1.66-1.64,2.78-1.92,4.67-3,3.17-1.78,4.13-6.3,7.3-8.19,2.15-1.27,1.59-4.35.87-6.41-1.3-3.65-4.15-4.15-7.36-5.44-3.19-.5-7.26,2.93-9.58,4.75-2.78,2.21-5.11,6.44-6.42,9.7S154.8,23.29,154.81,27Z"/><g class="cls-4"><path class="cls-5" d="M151.63,27c.34-.75.67-1.88,1.13-3.11s1-2.58,1.64-3.88,1.28-2.57,1.86-3.71a23.7,23.7,0,0,1,1.74-3,16.88,16.88,0,0,1,1.94-2.61c.49-.48-.54.67-1.94,2.61a35.68,35.68,0,0,0-1.79,3.32A28.21,28.21,0,0,1,159.67,13a24.31,24.31,0,0,1,1.49-2.25,16.75,16.75,0,0,1,4.12-4.11,22.78,22.78,0,0,1,5-3c.31-.11.73-.27,1.16-.39A5.61,5.61,0,0,1,172.74,3a2.27,2.27,0,0,1,1.25.29l.53.29c.2.1.39.21.54.3l-.94-.38a2.37,2.37,0,0,0-.79-.26,4.53,4.53,0,0,0-1.63.16,14.67,14.67,0,0,0-3.56,1.79C167,6,165.76,6.9,164.66,7.76a15.87,15.87,0,0,0-2.77,3l.34-.31a14.06,14.06,0,0,1,3.13-2.91,39.15,39.15,0,0,1,3.79-2.41,6.24,6.24,0,0,1,1.3-.63c-.43.18-.87.4-1.3.63A29.72,29.72,0,0,0,166,7.67c-.18.13-.38.27-.59.4l-.53.33a6.56,6.56,0,0,0-1,.81c-.49.47-1.08.83-1.63,1.28-.28.34-.55.69-.82,1a4.07,4.07,0,0,1-.17.38h0a9.06,9.06,0,0,0,2.08-1.43c.48-.36,1-.77,1.56-1.11.28-.17.56-.35.83-.48l.48-.26.55-.3c1.43-.81,2.79-1.53,3.83-2s1.79-.63,1.82-.7a8.74,8.74,0,0,1,.85-.69,1.48,1.48,0,0,1,.67-.15,2.72,2.72,0,0,1,.56.07,3.63,3.63,0,0,1,.59.14c.52.16.81.55,1.22.5.09-.11.31-.13.51-.15a2.4,2.4,0,0,1,.92.78c.23.28.37.52.73.61.19.11-.06.75-.41,1.23-.18.26-.36.45-.46.62s-.14.28,0,.27c.81-.07.92-.06.85.08a3.38,3.38,0,0,0-.19.33.94.94,0,0,0-.17.35s.66.25.6.43a.54.54,0,0,0-.11.6,1,1,0,0,1,0,.81c-.09.41-.42.51-.63.63a3.56,3.56,0,0,0-1.85,2.52c-.05.13-.35.91-.65,1.66s-.5,1.39-.5,1.39c-.64.84-1,1.57-1.46,2.1a2.16,2.16,0,0,1-.79.6,1.93,1.93,0,0,1-.49.08,3,3,0,0,1-.66,0c-.57.87-1.72,1.29-2.94,2a12.59,12.59,0,0,0-1.7,1.14,9.79,9.79,0,0,0-1.19,1.06c-1.33,1.43-2.31,1-3.78.78a1.29,1.29,0,0,0-.29,0l-.34.06a1.09,1.09,0,0,1-.57,0c-.36-.12-.84.66-1.31.66v-.45l-.58,0c-.13,0-.13-.16-.12-.31a.88.88,0,0,0-.24-.76,3.61,3.61,0,0,1-.65-.24c-.06-.05-.14-.08-.17-.12v-.06l-.07.75a5.28,5.28,0,0,1-.21,1.33,2.46,2.46,0,0,1-.11.45,2.14,2.14,0,0,1-.1.22.73.73,0,0,0-.07.17c-.15.37-.35.48-.15.33l.12-.07a.19.19,0,0,1,.1,0l.22-.11a2.22,2.22,0,0,1,.49-.13H158c-.2,0-.39.08-.54.09a4.6,4.6,0,0,1-1.81,0,4.51,4.51,0,0,0-1.75-.22c-.15.05-.26.47-.31,1a8.57,8.57,0,0,0,.06,1c.06.34.13.67.2,1,0,.15-.15.19-.39.17s-.53-.11-.8-.14c.42.77.81,1.15.8,1.41s-.24.31-.71.13a6.47,6.47,0,0,0,.49.52,1.5,1.5,0,0,0,.23.21,4.58,4.58,0,0,1-.77.12,5.63,5.63,0,0,0,.84.73,6.49,6.49,0,0,0,.91.58c.28.15.57.29.88.42a6.67,6.67,0,0,0,.81.29,11.51,11.51,0,0,0,2.78.52,6.74,6.74,0,0,0,3.8-.66,2.85,2.85,0,0,0,.68-.45,6.38,6.38,0,0,1,.64-.57,4.74,4.74,0,0,1,1.24-.21c.28-.53,0-.94,0-1.42a8.63,8.63,0,0,0,3.52-1.43c1-.73,1.4-1.44.83-2a2.12,2.12,0,0,0,.71-1.12,1.74,1.74,0,0,1,.43-1A7.39,7.39,0,0,1,172.46,25a19.43,19.43,0,0,0,2.77-1.75,17.2,17.2,0,0,0,2.45-2.8l.63-1A11.1,11.1,0,0,1,181.12,16a7.76,7.76,0,0,0,2.07-1.73,5.68,5.68,0,0,0,1.06-2.41,8.59,8.59,0,0,0,.09-2.68c-.06-.44-.14-.9-.23-1.33s-.18-.72-.29-1.08A8.61,8.61,0,0,0,181,2.47,10.37,10.37,0,0,0,176.5.56l-.69-.15L175,.2l-.91-.2c-.31,0-.62,0-.93,0a7.81,7.81,0,0,0-1.8.39,10.75,10.75,0,0,0-1.58.66,33,33,0,0,0-4.92,3.32c-.75.6-1.44,1.07-2.24,1.77a19.81,19.81,0,0,0-2,2.08,39.37,39.37,0,0,0-3.16,4.31c-.92,1.4-1.72,2.91-2.38,4.08s-1.37,2.41-1.93,3.53a18.84,18.84,0,0,0-1.95,5.42C151.28,26.05,151.46,26.51,151.63,27Z"/></g><path class="cls-3" d="M151.29,83.24c-2.28,2.94-5.62,6.36-6.24,10.14a10.29,10.29,0,0,0,.07,3.87A8,8,0,0,0,142.84,99c-1.71,1.72-3.47,3.3-5.08,5.13s-.66,4.56.94,6.27,1.6,4.17,3.87,3,4.19-2.54,6.35-3.76,3.18-3.52,4.56-5.58c2.3-3.45,6.49-4.93,9.62-7.76a14.87,14.87,0,0,0,3.61-5.95c1.18-1.94,3.38-2.87,4.66-4.72,2.81-4,6-8,9.1-11.75,1.44-1.69,3.14-2,4.58-3.81,1.63-2,4.07-3.64,6-5.29,2.42-2.06,6.05-5.19,4.86-9.06a1.31,1.31,0,0,0,1,.44c.69-2.49.61-4.2,3.19-5.33,2.06-.89,3.66-2.16,5.83-2.8s3-2.22,4.48-3.89,3.66-3.07,5.27-4.84c3.3-3.6,6.85-7.53,7.32-12.56.28-3.11-.92-2.46-2-4.66a4.37,4.37,0,0,0-3.78-2.43c-4.85-3.29-6.31,1-9.69,3.56s-5.18,6.11-7.85,8.6c-3.76,3.57-5.94,8.31-9.26,12.19-1.55,1.81-3.27,2.27-5.27,3.32a18.54,18.54,0,0,1-4.76,4c-4.57,2.92-5.64,6.74-8.34,11.12-2.42,3.89-6.45,7.35-9.57,10.75C159.11,76.9,154.46,79.11,151.29,83.24Z"/><g class="cls-4"><path class="cls-5" d="M148.77,81.3c.82-.77,1.88-1.74,3.14-2.71s2.72-2,4.22-3a36.21,36.21,0,0,0,4.43-3.37l2.27-2.2,2.37-2.24a49.69,49.69,0,0,0,4.38-4.61A37.84,37.84,0,0,0,172.91,58a25.22,25.22,0,0,1,3.5-5A16.42,16.42,0,0,1,180.47,50a20.63,20.63,0,0,0,2.5-1.77c.34-.28.64-.56.9-.81s.57-.59.78-.81c.53-.29,1.08-.52,1.49-.7l1.09-.46a11.59,11.59,0,0,0,1.56-.82c.57-.39.48-.29-.14.15a11.27,11.27,0,0,1-1.45.76l-1.09.46c-.41.18-.94.39-1.43.66l-.46.5c-.17.18-.33.33-.47.46-.29.28-.61.55-.95.82A19.65,19.65,0,0,1,180.47,50a22.17,22.17,0,0,0-2.23,1.49,16.38,16.38,0,0,0-2.19,2.08,34,34,0,0,0-3.59,5.47,25.33,25.33,0,0,1,5.44-6.41,17.15,17.15,0,0,1,3.2-1.89,21.14,21.14,0,0,0,2.77-1.67,16.65,16.65,0,0,0,1.5-1.54c.85-.48,1.87-.85,2.86-1.37a8.91,8.91,0,0,0,2.68-2.1c2.16-2.48,3.83-5.25,5.71-7.79a29.91,29.91,0,0,1,3-3.58c.54-.52,1.18-1.1,1.71-1.71s1.07-1.22,1.57-1.84a46.19,46.19,0,0,1,3-3.56,16.09,16.09,0,0,1,1.7-1.52l1-.74c.32-.27.64-.54.93-.83a16.69,16.69,0,0,1,3.4-2.9,2.63,2.63,0,0,1,1.74-.18,6.12,6.12,0,0,1,1.82.89l.2.13.25.16.3,0a3.35,3.35,0,0,1,2.65,1.63c.11.18.36.75.64,1.17a8.15,8.15,0,0,0,.76.95,2.38,2.38,0,0,1,.52,2c0,.36-.1.71-.15,1.07s-.17.78-.3,1.16a12.34,12.34,0,0,1-.89,2.14,17.22,17.22,0,0,1-2.21,3.22,19.15,19.15,0,0,0,2.31-3.75,13.68,13.68,0,0,0,.72-2,12.65,12.65,0,0,0,.31-1.9,2.25,2.25,0,0,0-.41-1.67c-.2-.25-.37-.39-.62-.72a7.58,7.58,0,0,1-.76-1.25,3,3,0,0,0-2.58-1.72h-.37l-.35-.22a6.23,6.23,0,0,0-1.69-.85,2.18,2.18,0,0,0-1.47,0c-1,.33-2,1.52-3.14,2.63a18.08,18.08,0,0,1-1.89,1.66,16.74,16.74,0,0,0-1.64,1.41,34.48,34.48,0,0,0-3,3.42,32.49,32.49,0,0,1-3.21,3.63,27.35,27.35,0,0,0-3,3.35c-1.83,2.41-3.44,5.11-5.44,7.63l1-1.19c1.53-2,2.87-4.1,4.33-6a28.9,28.9,0,0,1,2.3-2.7c.2-.21.41-.41.62-.61l.68-.64c.48-.46.93-.94,1.36-1.43a61.56,61.56,0,0,1,4.78-5.42,15.74,15.74,0,0,1,1.29-1.06l.82-.63c.25-.23.53-.45.76-.68,1-.89,1.82-1.84,2.59-2.4a2.3,2.3,0,0,1,1.32-.6,2.85,2.85,0,0,1,1.46.47,3.19,3.19,0,0,0-1.45-.45,2.35,2.35,0,0,0-1.33.58,25.38,25.38,0,0,0-2.2,2.15,33.31,33.31,0,0,1-2.55,2.26,37.18,37.18,0,0,0-4.23,5c-.48.59-1,1.2-1.58,1.81-.3.3-.61.6-.94.9l-.83.75A25.68,25.68,0,0,0,197.47,37c-1.4,1.87-2.8,3.63-4.32,5.43-.46.6-.92,1.2-1.42,1.78A10.22,10.22,0,0,1,190,45.89a8.21,8.21,0,0,1-1.25.88l.07,0A6.36,6.36,0,0,0,191,45.58c.24-.19.5-.42.74-.65s.45-.46.7-.7c.48-.5,1-1.06,1.5-1.67,2.09-2.43,4.28-5.78,7.06-8.32l1.2-1.06c.45-.43.88-.86,1.28-1.3.81-.87,1.54-1.73,2.24-2.53a26.92,26.92,0,0,1,2.05-2.16,13.32,13.32,0,0,1,1-.88,6.28,6.28,0,0,1,.52-.38l.67-.5a30.7,30.7,0,0,0,2.62-2.32,6.93,6.93,0,0,1,1.48-1.17s.08,0,.08,0-.08-.35,0-.15v.09s0,0,0,.09v0s0,0,.08,0a5.64,5.64,0,0,1,1,.59l.57.37,1.4.26a1,1,0,0,1,.43.25l.08.11h0l.08.15.19.34a6.74,6.74,0,0,0,.38.62,3.79,3.79,0,0,0,.64.79l.25.21a1.2,1.2,0,0,1,.3.58,3.73,3.73,0,0,1,.11.75l0,.67-.09.69a13.38,13.38,0,0,1-2.85,5.93c-.53.68-1.11,1.25-1.64,1.81-.28.27-.53.54-.78.82a7,7,0,0,0-.62.8c0,.18-.31.68-.73,1.2-1.24,1.14-2.89,2.2-4.29,3.71-.68.72-1.2,1.41-1.61,1.88a10.5,10.5,0,0,1-1,1,1.07,1.07,0,0,1-.52.17l-.16,0-.33,0-.71.11c-1,.17-2,.41-2.91.61s-1.63.34-2.14.41l-.34,0a3.39,3.39,0,0,0-.45.15,1.2,1.2,0,0,0-.54.31c-.7,1.31-.66,1.46-1.33,1.89a5.7,5.7,0,0,0-1.36,1.23,6.68,6.68,0,0,0-.85,1.45,14,14,0,0,0-.66,2,5.1,5.1,0,0,0-.06,1.13l3.27-.51c0,.42-.16.23.37-.26l-4.36,2.17a.69.69,0,0,1,.17.45,8.45,8.45,0,0,1-.83,2.09,11.73,11.73,0,0,1-2.6,3.19c-2.14,2.11-4,3.24-5.55,4.72A13.73,13.73,0,0,0,183,68.27a8.38,8.38,0,0,1-.65.71c-.26.25-.59.53-1.07.93a12.51,12.51,0,0,0-1.68,1.64c-.08.09-.27.29-.53.62l-.21.26-.17.24c-.11.17-.24.35-.38.55L176.35,76c-1.34,2-2.58,3.85-2.58,3.85-1.11,1.39-2,2.7-2.88,3.93l-.63.92a5.76,5.76,0,0,1-.51.7,11.77,11.77,0,0,1-1.34,1.28c-.49.43-1,.86-1.56,1.37a7.52,7.52,0,0,0-1.49,1.85l-.25.54-.22.41c-.15.28-.31.54-.48.8A8.18,8.18,0,0,1,163.27,93a6.29,6.29,0,0,1-1.07,1.76,12,12,0,0,1-1.76,1.59c-1.35,1-3,1.91-4.63,3a18.12,18.12,0,0,0-2.43,1.94,14.86,14.86,0,0,0-2,2.43,21.11,21.11,0,0,1-2.84,3.73,3.65,3.65,0,0,1-.54.39l-.83.49-1.54.9a14.23,14.23,0,0,1-2,1,5.8,5.8,0,0,1-1.09.33.83.83,0,0,1-.53-.09,1.18,1.18,0,0,1-.39-.49c-.18-.4-.27-.84-.4-1.22s-.32-.68-.41-1.06c-.25-.63-.36-1.18,0-1.5a4.46,4.46,0,0,0,.34-.74,6,6,0,0,1,1.39-1.69v.6l1.69-1.45c.43-.37.43-.16.43,0,0,.41,0,.82.87.26.27-.22.5-.39.85-.69l.33-.29.16-.1a2.19,2.19,0,0,1,.41-.26l3.85-1.83-.54-3.28a8,8,0,0,1-.19-1.66,2.49,2.49,0,0,1,.06-.53V94.2a2.6,2.6,0,0,1,0-.39,5.11,5.11,0,0,1,.18-1,14.1,14.1,0,0,1,1.1-2.47,1.19,1.19,0,0,1-.12-.78c.29-.57.62-1.15,1-1.75-.08-.6-.53-.79-.58-1.19-.95-.76,0-3.84-1.36-4-.39,0-3.08,3-4.68,4.33-.41.27-.13-.83-.2-1.45a6.24,6.24,0,0,1-1.53,1.7c-.27.12-.33-.2-.18-.79-.39.52-.77,1.09-.77,1.09,0-.22-.14-.88-.14-.88a16.68,16.68,0,0,0-2.71,5.22A15.91,15.91,0,0,0,140,93.5l-.12.82c0,.1,0,.26,0,.31l0,0a.34.34,0,0,1-.2.08l-.13,0,0,0h0l-.13.11c-.57.54-.51.45-.88.78l-.84.76c-.57.52-1.15,1.07-1.73,1.66-.29.29-.57.6-.85.91l-.65.72-.73.85a12.59,12.59,0,0,0-.75,1.1,8.12,8.12,0,0,0-1.08,4.25,10,10,0,0,0,1.13,4.39,25,25,0,0,0,1.28,2.39c.27.44.6.81.84,1.2s.43.77.56,1c.64.68,1,.77,1.3.76s.49-.14.82-.09a5.21,5.21,0,0,0,2.92,2.06,5.15,5.15,0,0,0,2.07,0,8,8,0,0,0,2.22-.73c1.51-.74,3.45-1.9,4-2.2.82-.49,1.55-.93,2.11-1.31a6.72,6.72,0,0,0,2.22-2.08c.35-.56.37-.92.13-1,2.81-3.43,1.78-4.43,3.91-6.45,1.45-1.39,3.81-2.69,6.37-4.69a16,16,0,0,0,1.91-1.76,13.84,13.84,0,0,0,1.6-2.2,20.55,20.55,0,0,0,1.15-2.3l.43-1.06a1.94,1.94,0,0,1,.3-.57,7.42,7.42,0,0,1,1.3-1.32,24.52,24.52,0,0,0,2-1.8,9.42,9.42,0,0,0,1-1.2l.68-1,1.4-1.91c.7-1,1.4-1.88,2.06-2.75q1.35-1.75,2.7-3.42l1.36-1.64.67-.8a5.11,5.11,0,0,1,.52-.52,12.68,12.68,0,0,1,1.45-1,13.48,13.48,0,0,0,2-1.52c.16-.16.33-.32.47-.49l.38-.43a6.67,6.67,0,0,1,.58-.62c.41-.41.87-.81,1.35-1.21a78.73,78.73,0,0,0,6.32-5.18A13.2,13.2,0,0,0,198,60.46a8,8,0,0,0,.43-5.56l-4.4,2.55a4,4,0,0,0,1.24.92,4,4,0,0,0,1.66.36l1.95,0,.56-1.9c.19-.68.35-1.39.48-1.86a3.65,3.65,0,0,1,.35-.92,2,2,0,0,1,.7-.68c.29-.18.47-.21,1.26-.61,1.28-.65,2.33-1.3,3.28-1.73.24-.11.47-.21.7-.29s.32-.11.87-.3A7.79,7.79,0,0,0,209.59,49a24.72,24.72,0,0,0,2.85-3.28,26,26,0,0,1,2.63-2.51c.51-.46,1.06-1,1.6-1.51.27-.27.54-.57.81-.87l.67-.8c.9-1.08,1.82-2.21,2.7-3.45A26.43,26.43,0,0,0,223.5,32a17.92,17.92,0,0,0,.88-2.62c.12-.45.18-.92.27-1.37s.13-1.05.14-1.57a5,5,0,0,0-.65-3.05,9,9,0,0,0-1-1.2,3.5,3.5,0,0,1-.32-.39,3.17,3.17,0,0,1-.23-.36c-.05-.08-.23-.44-.37-.65a4.74,4.74,0,0,0-.51-.67A6.16,6.16,0,0,0,220.45,19a6,6,0,0,0-3.13-.95l.81.26A8.29,8.29,0,0,0,214.79,17a3.55,3.55,0,0,0-1,0,3.92,3.92,0,0,0-1,.2,5.87,5.87,0,0,0-1.71.88,18.89,18.89,0,0,0-2.31,2.17,16.75,16.75,0,0,1-2,1.84c-3.42,2.59-5.35,6.23-7.87,8.58-3,2.75-5,6.09-7.07,9-.52.73-1,1.43-1.58,2.1-.27.34-.55.66-.82,1a6.37,6.37,0,0,1-.78.78,8,8,0,0,1-1.88,1.13l-1.16.51c-.5.23-1,.47-1.53.74l-.46.52-.43.46-.68.62A16.11,16.11,0,0,1,181,48.58c-.51.36-1.05.69-1.61,1a19.33,19.33,0,0,0-1.87,1.28,22.2,22.2,0,0,0-5.3,6.54c-.65,1.08-1.24,2.09-1.85,3-.3.47-.6.89-.9,1.29s-.63.81-1,1.2a56.27,56.27,0,0,1-4.3,4.3c-1.44,1.32-2.91,2.67-4.17,3.91a30.37,30.37,0,0,1-3.35,2.67A62.3,62.3,0,0,0,151.05,78,25.82,25.82,0,0,0,148.77,81.3Z"/></g><path class="cls-3" d="M175.47,172.79a5.92,5.92,0,0,0,4.64-2.62l-1.05-.38c-1.45-.47-2.9.43-4.24.87a19.37,19.37,0,0,1-8.26,1.51c-1.47,0-2.53-1.18-3.82-1.77-2,1-2.45,3.47-2.72,5.51a5.78,5.78,0,0,0,3.94.43C167.87,175.37,171.45,173.31,175.47,172.79Z"/><g class="cls-4"><path class="cls-5" d="M175.88,175.94c-.6-.62-1.93-.77-3.38-.6s-3,.57-4,.64a9.36,9.36,0,0,1-1.8.21c-.39,0,.47-.12,1.8-.21l2-.43c-1.11-.21-2.21-.41-3-.62-.48.14-1,.27-1.46.38-.68.15-1.33.31-2,.43a4,4,0,0,1-1.86,0,6.43,6.43,0,0,1-1.75-.74l.6,1,.1-.33c.12-.37.26-1,.46-1.51a2.75,2.75,0,0,1,.71-1.21,10.41,10.41,0,0,0-.92,3.1l-.81-1.41a7.24,7.24,0,0,0,1.67.58,3.83,3.83,0,0,0,1.65-.06c.62-.13,1.18-.28,1.77-.44l-.27,0c-.52.1-1,.18-1.56.25a3.39,3.39,0,0,1-1.31,0,5.4,5.4,0,0,1-1.24-.49,2.8,2.8,0,0,1-.52-.26l1.14,2,.07-.19,0,.19-1.15-2,.51.28a3.38,3.38,0,0,0,1.62.13c.25,0,.55.08.84.07a2.43,2.43,0,0,0,.4,0,4.92,4.92,0,0,1,1.25.13l.73-.15.21-.13h0a6.4,6.4,0,0,0-2.8-.58,2.89,2.89,0,0,1-1.11-.55,8.25,8.25,0,0,0-1-.75l2.22,3.82a4.5,4.5,0,0,0,.27-1.12,2.49,2.49,0,0,0-.39-1,1.55,1.55,0,0,1-.25-.94c.06-.18.33-.12.22-.33a.69.69,0,0,1-.2-.32c.12-.21.45-.08.56-.19l-2,0a.4.4,0,0,0,.29,0c.3,0-.23,2.41.12,2.12,1.16-1.18.27-.3,1.38.44.15.11.85-.29,1.1-.13.71.57,1.18.31,1.93.13.16,0,.34-.08.54-.11a2.45,2.45,0,0,1,1.43-.1,1.27,1.27,0,0,0,1.24-.56c.07-.06.51-.3.92-.55l.79-.49c1.35-.14,1.85-1.13,3.2-.43a2.08,2.08,0,0,1,.34-.42,2.57,2.57,0,0,1,.35-.27,4.66,4.66,0,0,1,1-.27,9.9,9.9,0,0,0,1.54-.2c.3-.15.47,0,.44.29l0,.09s.06.1.08.15l.17.31c.12.21.23.44.37.67l-1.55-4.66h0c-.15,0-.14.13-.34,0s.17.41,0,.41l-.27-.34-.17,0a.91.91,0,0,1-.21-.26c-.16-.24-.34-.47-.47-.64l-.39-.44a1.8,1.8,0,0,1-.08.8c0,.19.06.39.07.55a2.53,2.53,0,0,1-.12.36c0,.43.12.9.13,1.19.21,1.21-.13,2.46.08,3.56.08.33.89.33,1.41.79.14.16,0,.59,0,1,.55-.13.72.3.57.76h.31v.6a9,9,0,0,0,3-.23,4.27,4.27,0,0,0,2.64-1.94,4.65,4.65,0,0,0,.55-1.71.58.58,0,0,1,.17-.27l2.84-3-5.19-4.08c-.12-.09-.23-.26-.3-.31a4.69,4.69,0,0,0-.71,1.13l-.29-.29a1.51,1.51,0,0,0-.55-.35,5,5,0,0,0-1.92-.47c-1.2,0-1.83.39-1.6,1.13-1,.17-.87.93-1.5,1.25l-.58.32c-.2.11-.28.15-.71.35s-.81.4-1.24.58a5.18,5.18,0,0,1-1.41.46l-.52.13a8.47,8.47,0,0,1-1.9.22c-.31,0-.62,0-.92,0l-.44,0a1.92,1.92,0,0,1-.29-.05,2.43,2.43,0,0,1-1.09-.5c-.11-.09-.4-.28-.76-.51a8.36,8.36,0,0,0-1.32-.69l-1.29-.52-1,.57a5.35,5.35,0,0,0-2.52,3.23,20.41,20.41,0,0,0-.45,4.45L158.5,177l1,.3a14.57,14.57,0,0,0,2.48.57,7.05,7.05,0,0,0,2.59-.18,61.55,61.55,0,0,1,7.21-1.23,18.5,18.5,0,0,1,3.75.12Z"/></g><path class="cls-3" d="M110.06,164.21c-1-.58-1.8,1.17-.73,1.58C110.37,166.38,111.15,164.63,110.06,164.21Z"/><g class="cls-4"><path class="cls-5" d="M111.4,161.34a3.7,3.7,0,0,0,.08,1c.09.31.27.67.34,1a1.59,1.59,0,0,1-.19,1.56.8.8,0,0,1-.43.37c-.15,0,.06,0,.43-.37a1.53,1.53,0,0,0,.18-.65,2.27,2.27,0,0,1-1.51.76.36.36,0,0,1-.14.1.54.54,0,0,1-.3.08c-.09,0-.24-.15-.14,0s0,.08,0,0,0,0-.1-.13-.16-.11-.1-.09h0c-.06,0,.06,0,.14.12l0,.05,0-.05a.6.6,0,0,0-.12-.11l0,0h.06s-.11-.05,0,0a.46.46,0,0,1,.17.2s0,0,0,0a.15.15,0,0,1,0-.07v0a.73.73,0,0,1,.09-.23l0,0h-.18a.28.28,0,0,1,0,.12l-.05.08,0,0s0,0,0,0l.09,0h.12l.12,0s-.08,0-.14-.1a.42.42,0,0,1-.09-.14v0h0a.46.46,0,0,1,0,.1s0,.09,0,.16h0v.08h0s0,0,0,0l.09-.21.74-1.56a6.78,6.78,0,0,0,.16-1,8.71,8.71,0,0,1,.4-.93c-.14-.05,0-.5.2-.85l-.06-.1.23-.53-.12-.28a1.46,1.46,0,0,0-.26-.32,3.36,3.36,0,0,0-.66-.59,1.5,1.5,0,0,0-1.67-.08,2.25,2.25,0,0,0-.67.8c-.07.13-.4,0-.5,0a4.52,4.52,0,0,0,.34,1.27,1.87,1.87,0,0,0-1.23.08c-.31.18-.38.54.18,1.07-.32.21.21.73.09,1a7.38,7.38,0,0,0-.29,1.21,3.07,3.07,0,0,1,0,.68,2,2,0,0,0,0,.25A4.91,4.91,0,0,0,107,167a2.93,2.93,0,0,0,.61.85,2.31,2.31,0,0,0,.8.49l-.34-.17a1.71,1.71,0,0,0,.71.16,1.83,1.83,0,0,0,.86-.22,5.52,5.52,0,0,0,1.83-1.63,7.81,7.81,0,0,0,1.08-1.54,3.5,3.5,0,0,0,.11-2.48,4.44,4.44,0,0,0-.47-1,2.13,2.13,0,0,0-.27-.46Z"/></g><path class="cls-3" d="M188.83,190.15c-3.38-1.11-6.05-2.57-9.61-2.51a40,40,0,0,1-7.89.08c-2.67-.38-5.36.17-8.09.08-2.35-.08-5.5,1.55-7.36.53-.07,1.37-3.54,3.77-4.7,5-1.43,1.55-3,3.74-5.13,4.28-4.88,1.25-2.79,7.68-2.45,11-.58,2.72-4.71,12.28,2,10.52,4.21-1.08,4-8.61,10.11-7.42,3.59.72,9.65-.6,12.71-2.81a16.64,16.64,0,0,1,6.56-2.45c2.14-.29,3.74-1.07,5.82-1.54,3.49-.87,6.69-2.93,9.7-4.86C194.07,197.8,193.48,191,188.83,190.15Z"/><g class="cls-4"><path class="cls-5" d="M189.37,187l1.26.58a10.19,10.19,0,0,1,1.4,1,7.56,7.56,0,0,1,2.26,3.13,8.79,8.79,0,0,1,.56,4,8.21,8.21,0,0,1-1.5,4.08,9.16,9.16,0,0,1-3.21,2.5c-1,.55-2,1.09-3,1.57a21.42,21.42,0,0,1-5.38,2L181,206l-.71.13-1.31.29c-.83.19-1.58.36-2.24.44s-.19,0,.77-.2l1.82-.4c.36-.08.74-.15,1.15-.22s.86-.12,1.36-.22a25.22,25.22,0,0,0,5.84-2.31,28.39,28.39,0,0,1-4.24,1.16,20.71,20.71,0,0,1-3.62.31,41.6,41.6,0,0,1-4.3,1.08,16.79,16.79,0,0,0-3.84.78,19.72,19.72,0,0,0-3.55,1.64h0l0,0a15.85,15.85,0,0,1-5.33,2.1,17.53,17.53,0,0,1-5.71.35c-.27,0-.58-.08-.93-.16s-.89-.14-1.38-.2a5.74,5.74,0,0,0-3.19.7,8.57,8.57,0,0,0-2.39,2.23c-.58.74-1,1.36-1.38,1.8.49-.75,1-1.54,1.65-2.39a6.86,6.86,0,0,1,2.64-2.14,6.05,6.05,0,0,1,3.34-.39c.63.06,1,.16,1.39.2a12.29,12.29,0,0,0,1.23.08,20.16,20.16,0,0,0,5.09-.67,15.17,15.17,0,0,0,4.64-2l.07,0h0a17.85,17.85,0,0,1,7.05-2.51l-.85,0a18.59,18.59,0,0,0-6.33,2.26l-.09.06a13.88,13.88,0,0,1-3.69,1.55,20.47,20.47,0,0,1-4.09.7,9.24,9.24,0,0,1-2.35,0,14.18,14.18,0,0,0,2.35,0,18.46,18.46,0,0,0,6-1.81c.53-.23,1.05-.49,1.55-.76l.12-.08c.88-.46,1.82-.86,2.69-1.22a11.76,11.76,0,0,1,3.84-.7c.87-.11,1.48-.14,2.19-.3l.63-.23h0a5.23,5.23,0,0,0-1.12-.11l-.84-.05a11.09,11.09,0,0,0-1.28,0,17.51,17.51,0,0,0-6.54,1.86l-.17.11a15.5,15.5,0,0,1-3.56,1.16,20.81,20.81,0,0,1-3.77.44,12.32,12.32,0,0,1-2.8-.18l-.3-.06-.15,0-.27,0c-.37,0-.72-.08-1-.1a6.31,6.31,0,0,0-1.52.06,7,7,0,0,0-4.85,3.27,12.57,12.57,0,0,0-1.16,2.2,17.14,17.14,0,0,1-.89,1.77c-.43.7-.95.86-1.06,1.24.06.13,0,.29-.11.49l-.29.11a3.43,3.43,0,0,1-.48.08,1.29,1.29,0,0,1-.61-.09s0,0,0,0l0,.07a1.8,1.8,0,0,1-.11.29l-.07.12,0,0s0,0,.05-.05l.15-.12c.07-.05.18-.09.24-.14s-.07,0-.14-.05.35-.83.95-1.39,1.19-1.07,1-1.21c-1.38-1-.43-.25.33-2.34a2.58,2.58,0,0,0-.05-.83,5.46,5.46,0,0,1,0-.57,3.51,3.51,0,0,1,.14-.69,3.2,3.2,0,0,0,.41-1.9,6.73,6.73,0,0,0-.12-.82,5.78,5.78,0,0,0-.17-.69,20.88,20.88,0,0,1-.74-2.32,4.78,4.78,0,0,1-.13-2.85,2.35,2.35,0,0,1,.11-.39l.08-.33c0-.24,0-.36.06-.77a1.65,1.65,0,0,1,.3-.34l.2-.12.1-.08.06,0,.13-.06a5.89,5.89,0,0,0,1.12-.57,8.57,8.57,0,0,0,1.55-1.33,7.35,7.35,0,0,0,.55-.64c1.49-1.36,2.15-2.64,3.05-3.42a13,13,0,0,1,1.56-1.26c.29-.2.59-.39.91-.57l.5-.29a3.21,3.21,0,0,0,.35-.1,10.59,10.59,0,0,0,.38-1.09c0-.07,0-.17,0-.21l.18.05a1.59,1.59,0,0,0,.39.08,4.85,4.85,0,0,0,.86,0c.86-.05,1.81-.2,2.61-.31a15.08,15.08,0,0,1,2.15-.17l.44,0,.64,0a12.07,12.07,0,0,0,1.22-.05,11.37,11.37,0,0,1,4.05.14,7.87,7.87,0,0,1,1.48.53,6.47,6.47,0,0,0,1,.37c.39.13.79.24,1.22.34a16.32,16.32,0,0,1,2.22.27c.56.22,1.84-.45,2.75-.41l-.2.45,1.24.06c.31,0,.24.16.18.31-.13.3-.27.6.3.77.06,0,0,.06.08.09s.16.06.22.08.36.12.54.2c.35.13.72.28,1.12.45a20.71,20.71,0,0,1,3.15.26,1.44,1.44,0,0,1,.49-.42l1.17.09c.36-.33.45-.8.69-1,.43-1.14,2.27-1.78,2.26-3,0-.34-1.91-1.13-2.61-2-.14-.24.48-.44.83-.77-1.17-.43-1.1-.91-.46-1.1l-.56-.27.49-.44a19.58,19.58,0,0,0-5.68-2.35l-.87-.15-.44,0-.5,0c-1,0-1.15,0-1.55,0a10.32,10.32,0,0,0-2.11.26,17,17,0,0,0-2.13.63c-.31.1-.93-.19-1.11-.25-.39.36-.35.84-.62,1.25a17.33,17.33,0,0,0-5.12-.63c-1.51.05-2.43.27-2.38,1a4.69,4.69,0,0,0-1,.07,6.55,6.55,0,0,0-.71.12,5.58,5.58,0,0,0-.58.18,20.36,20.36,0,0,1-2.26.83l-1,.26-.46.11-.23,0c-.08,0-.15.18-.22.27-.1.26-.4.32-.67.42s-.53.18-.77.24a5.53,5.53,0,0,1-.71.14h-.39l0,.07-.08.13a4.61,4.61,0,0,1-.7.71l-.46.38-.13.1s-.15,0-.22,0l-.49,0c-.09,0-.15,0-.27,0l-.07.08-.15.16-.33.32-.73.67c-.59.6-1.21,1.12-1.95,1.86-.4.41-.63.69-.92,1l-.8.89a14,14,0,0,1-1.06,1.09,4.26,4.26,0,0,1-1.22.81l-.33.1-.77.27a3.22,3.22,0,0,0-.76.35c-.25.15-.51.29-.74.46a6.43,6.43,0,0,0-2,2.75,9.88,9.88,0,0,0-.56,2.77,24.27,24.27,0,0,0,.27,4.58l.13,1,0,.35,0,.27a1,1,0,0,1-.08.53l-.21.63a38.68,38.68,0,0,0-1.19,4.07,15.11,15.11,0,0,0-.35,2.38,7.55,7.55,0,0,0,.4,3.12,4.91,4.91,0,0,0,1.34,1.92,4.83,4.83,0,0,0,2.17,1,7.07,7.07,0,0,0,3.25-.33,6.69,6.69,0,0,0,2.83-1.83,10.61,10.61,0,0,0,1.53-2.26c.47-.89.85-1.7,1.25-2.37a3.9,3.9,0,0,1,1.27-1.41,3,3,0,0,1,1.88-.44,4.41,4.41,0,0,1,.56,0c.25,0,.48.07.75.08.53,0,1,0,1.56,0a25.1,25.1,0,0,0,5.86-1,18.68,18.68,0,0,0,5.43-2.39l-.09.06a15,15,0,0,1,5.16-1.94,24.67,24.67,0,0,0,3-.46l2.78-.69c.43-.1.8-.16,1.28-.25s1-.23,1.48-.36a23.62,23.62,0,0,0,2.73-.93c1.72-.69,3.25-1.47,4.66-2.2l1-.53.53-.28c.24-.13.45-.29.68-.44a7.55,7.55,0,0,0,2.17-2.23,9.25,9.25,0,0,0,1.13-2.7,6.84,6.84,0,0,0,.23-1.3,9,9,0,0,0,.06-1.26,9.32,9.32,0,0,0-1.19-4.36,8.06,8.06,0,0,0-2.45-2.63,12.33,12.33,0,0,0-1.54-.46C190.36,187.07,189.85,187,189.37,187Z"/></g><path class="cls-3" d="M103.8,264l-.41.24c-1,1.5,2.18,1.79,1.33.15Z"/><g class="cls-4"><path class="cls-5" d="M105,261.08a5,5,0,0,0-.05,2.28,1.47,1.47,0,0,1,0,.42l.32.3s0,0,0,0,0,0,0,0l-.3-.28a4.17,4.17,0,0,1,0-.47c0-.11,0-.23-.08-.36-.14.58-.28,1.14-.4,1.61l.07.12-.18-.17,0,.06c-.07.11-.08.23-.17.26l-.06,0h0s0,0,0,0a.18.18,0,0,1,.13,0v0a.27.27,0,0,1-.09-.11c.06.15.2.13,0,.1,0,0-.11,0-.19,0a.79.79,0,0,0-.22.05c-.11,0-.08,0-.07,0l0-.05-.09.05-.11.06.19,0,.11,0a1.53,1.53,0,0,1,.38,0l.08,0-.08,0s0,0-.11,0a.58.58,0,0,0-.23,0l-.14,0-.22.06-.14,0,.27-.11.08-.06h0l.53.5h0v0l0,.08-.58-.55-.41.2,0,0h0l.05,0,.13-.06a1.52,1.52,0,0,1,.34-.1,1.36,1.36,0,0,1,.25-.07c.41,0,.36,0,.36,0s0,0,0-.05,0,0-.07-.1a.69.69,0,0,1,0-.1v0a1.94,1.94,0,0,1-.05-.2v-.15h0a.06.06,0,0,1,0,0,.84.84,0,0,1-.08.2s-.12.17-.11.15a.32.32,0,0,1-.1.1h0a.76.76,0,0,1,.3,0,3.75,3.75,0,0,1,.52.22l.13.09,0,0,.33,2.09c0-.11-.13-.31-.08-.26l.21.38.11.1a1.9,1.9,0,0,1,.17.28,6.39,6.39,0,0,0,.41.68,3.59,3.59,0,0,0,.4.43c-.07-.21-.16-.44-.25-.71l-.27-.49-.13-.3c-.22-.37-.45-.78-.6-1-.61-1.06-1.17-2.12-1.74-3.09-.17-.28-.29-.33-.61-.81-.1-.16-.28-.51-.49-.89a2.76,2.76,0,0,1-.46-.74l-.06-.05-.28-.51-.62-.71a.67.67,0,0,0-.21-.18s0,0,0,0a.11.11,0,0,0,0,.05v.06h0l-1.85,1.76h0a2,2,0,0,0,.31.7c.06.1-.22.11-.28.14a8.82,8.82,0,0,0,1.13.66c-.27.07-.65.13-.79.43s0,.62.77.75c-.14.34.57.46.63.78a4.28,4.28,0,0,0,.65,1.5c.24.23.37.41.55.6l.21.18a9.43,9.43,0,0,0,1.74,1.08,1.53,1.53,0,0,0,1.93-.8,4.14,4.14,0,0,0,.6-2.33,6.24,6.24,0,0,1,0-.72,4.5,4.5,0,0,1,0-.62l-.8-.77a14.26,14.26,0,0,1-.11-2.25Z"/></g><path class="cls-3" d="M121.47,213.09c-.29-1.37.91-2.73,1.1-4.06.24-1.63-.12-3.24.11-4.87.39-1.76,1.61-3.3,1.25-5.2a14.94,14.94,0,0,1-.3-4.76c.33-3.31,2.81-5.19,3.13-8.53.11-1-.08-3.44,1-4.07.91-.48,2.17.23,2.94-.66,1.9-2,5.89-4.88,8.74-4.77a7.65,7.65,0,0,1,.86-4.65c.93-1.66,2-.76,3.39-1.63,3-1.94,6.54-3.31,8.91-6.07s5.41-4.39,7.4-7.35c1.86-2.81,3.93-2.18,6.87-1.81,1.43.17,3.12-1.2,4.34-2,1.74-1.14,1-2.45,1.65-4,1-2.77,4.44-2.63,6.64-3.47,5.66-2.12,10.06-6.42,15.67-8.82A9.13,9.13,0,0,0,199,133.3c1-1.68,3.51-1.72,5.14-2.2,1.86-.55,4.07-.81,5.35-2.34.94-1.16,1.59-2.51,2.57-3.64,1.21-1.34,2.71-1.78,4.29-2.51.81-1.31,1.06-3.21,2.82-3.84a13.34,13.34,0,0,0,4.85-4.45c2-3.28,6.47-2.87,9.53-4.61,2.17-.3,6.61-2.66,7.54-4.78.66-1.25,2.38-1.14,3.19-2.26a8.78,8.78,0,0,1,1.8-2,2.06,2.06,0,0,1,1.66-.35,4,4,0,0,1,1.62-1.8c.9-.68,1.29-2,2.32-1.42,1.77-3.54,3.18-5.42,2.4-9.31-2.67-2.17-4.64-5.74-8.65-5.29-2-.2-4.29,1.32-6.29,1.65a11.53,11.53,0,0,0-6.32,2.9c-2.17,1.87-4.68,3-6.67,5.12a4.81,4.81,0,0,0-1.61,3,4.5,4.5,0,0,0-2.05,1.44c-1.65,1.93-2.44,5.19-4.35,6.72a49.79,49.79,0,0,0-5.82,1.22c-2.19.66-3.64.55-5.72,1.86s-3.55,3.17-5.63,4.32c-4,2.19-6.91,5.42-9.64,9-2.37,3.15-8.12.7-11.47,2.12-4.83,2-8.76,3.6-11,8.52-.94,2-1.13,4.33-2.48,6.14-1.74,1.69-2.67,4-4,5.93a66.48,66.48,0,0,0-11.14-11.29c-3.43-2.8-8.51-2.84-9.47-7.71a23.68,23.68,0,0,0-1.83-6c-1-2-.86-4.09-1.7-6.08-1.84-3.93-5.29-4-8.6-6.15-2-1.3-3.56-3.62-6-4.08-2-.39-4.23-.12-6.05-1.26-3-1.67-7-2.6-10.33-3.61-3.87-1.16-7.35-2.86-11.43-3.19-1.18-.16-2.11.69-3.25.82-.68-.27-1.36-.49-2.07-.7-2.06-.15-3.27,1.06-5.24-.11-4-2.38-8-7.38-12.81-3.6-1.28,1-.62,2.06-2.34,2.06a2.16,2.16,0,0,0-2.11.87c-1.34,1.21-2.7,2.23-4.09,3.35A22,22,0,0,0,59.56,101c-.08.12-.18.18-.25.28a2.36,2.36,0,0,0-.69-1.18,13.16,13.16,0,0,0-2.42,3.46,5.76,5.76,0,0,0-1,.68c-1,2-.49,4.13-2.62,5.18a9,9,0,0,0,.39,1.91A3,3,0,0,0,51.12,113c-.39,1.71-3,2.09-3.81,3.48-1.22,2-1.9,4.37-3,6.42s-3.23,3-4.2,5.08a9.48,9.48,0,0,1-2.6,3.64c-2.67,2.45-2.71,7.29-5.63,9.77-1.17,1.93-2.79,2.13-3.44,4.51-.56.53-1.07.91-1.55,1.29-.28-.57-.56-1.15-.8-1.75-.54.77-1.12,1.54-1.74,2.33a10.89,10.89,0,0,1,1.19.3c0,.08.08.15.11.22a10.59,10.59,0,0,0-.92,1.21c.82-.34,1.26,0,1.33.91-2.61,1.27-1.09,1.45-1.74,3.74-3.54-1.89-5,4.94-6.25,9.09a33.79,33.79,0,0,0-3.63-4.28A48.57,48.57,0,0,0,7,171.88a38,38,0,0,1,4.84,5.31c-.55,2.13-3.12,2.52-4.58,3.88-.45,1.71-.1,3.58-.76,5.25C11.61,199.45,24.43,204.1,31.39,213s12.49,15,22.69,18.24a49.73,49.73,0,0,1,5.74,2.22h0l0,0a52.89,52.89,0,0,1,5,2.63c.92.1,1.79.29,2.75.49,0,.11,0,.2,0,.31.06-.1.17-.15.22-.27a5.89,5.89,0,0,0,1.24.18c1.5.12,3.78-.17,5.15.33l0,0c1,2,1.27,4.38,2.65,6.17a12.5,12.5,0,0,1,2.14,1.49,23.7,23.7,0,0,0-1.6-7,27.69,27.69,0,0,0,7.47-.75c1.5-.33,2.73-1.29,4.22-1.58s3.34.57,5,.32c2.95-.4,5.51-2.42,8-3.79a11.88,11.88,0,0,1,4.88-1.32c1.67-.14,2.72-1.59,4-2.48,1.07-.85,2.4-.92,3.53-1.9a9.64,9.64,0,0,1,4.57-2.43C122,220.84,122.13,216.94,121.47,213.09Zm-100.25-50c1-1.46,1.1-.24,2.54.08,1.06.3,1.33,1.51,1.72,2.35C23,166,22.45,165.21,21.22,163.11Zm90.52,8.35c-.9,1.91-1.09.89-3.07,1.18-1.41.57-1.68.37-.83-.6-1.59.11-3,.9-4.66.77-1.34.06-3.28-1.56-4.44-1.09a25.12,25.12,0,0,1-8.9,1.6c-2.77-.24-5.45-2.67-8.13-2.85-2.07-.2-8.52-2.54-9.49-1.43.34-1.65,0-2.46-1.94-2.67,0-1.25-.59-2.48-.28-3.73.71-2.44.61-5.07,1.57-7.44,1.29-3.13,1.17-4.77.66-8.12,0-3.32.33-6.64.19-10,.14-1.22-.93-2.14-1-3.31s.92-2.63,1.39-3.61a17,17,0,0,1,2.3-3.85c.36-1.08.16-2.28.69-3.29,1.17-2.19,5.84.69,7.59,1,3.29.65,5.38,2.18,8.32,3.53A33.51,33.51,0,0,0,97.15,129c2,.52,2.44,2.45,4.33,3.06-1.82,0,.14,1.81.45,3.07s.5,2.57,1.45,3.5a19.79,19.79,0,0,1,4.64,7.26c1,2.77-1.51,3.7-2.86,5.93-.75,1.21-1.52,1.43-2.66,2.17-.78,1.69.67,2-1.45,2.63.12,2-.78,2.64.24,4.55a13.76,13.76,0,0,1,3.37.84c1.34-.14,5.07,0,6-.83a6.28,6.28,0,0,1,2.83-1.54c2.26-.72,2.07.11,2.59,2.23.7,2.77.39,5.43.77,8.2C114.39,169.15,113.12,168.47,111.74,171.46Z"/><path class="cls-6" d="M121.47,213.09c-.29-1.37.91-2.73,1.1-4.06.24-1.63-.12-3.24.11-4.87.39-1.76,1.61-3.3,1.25-5.2a14.94,14.94,0,0,1-.3-4.76c.33-3.31,2.81-5.19,3.13-8.53.11-1-.08-3.44,1-4.07.91-.48,2.17.23,2.94-.66,1.9-2,5.89-4.88,8.74-4.77a7.65,7.65,0,0,1,.86-4.65c.93-1.66,2-.76,3.39-1.63,3-1.94,6.54-3.31,8.91-6.07s5.41-4.39,7.4-7.35c1.86-2.81,3.93-2.18,6.87-1.81,1.43.17,3.12-1.2,4.34-2,1.74-1.14,1-2.45,1.65-4,1-2.77,4.44-2.63,6.64-3.47,5.66-2.12,10.06-6.42,15.67-8.82A9.13,9.13,0,0,0,199,133.3c1-1.68,3.51-1.72,5.14-2.2,1.86-.55,4.07-.81,5.35-2.34.94-1.16,1.59-2.51,2.57-3.64,1.21-1.34,2.71-1.78,4.29-2.51.81-1.31,1.06-3.21,2.82-3.84a13.34,13.34,0,0,0,4.85-4.45c2-3.28,6.47-2.87,9.53-4.61,2.17-.3,6.61-2.66,7.54-4.78.66-1.25,2.38-1.14,3.19-2.26a8.78,8.78,0,0,1,1.8-2,2.06,2.06,0,0,1,1.66-.35,4,4,0,0,1,1.62-1.8c.9-.68,1.29-2,2.32-1.42,1.77-3.54,3.18-5.42,2.4-9.31-2.67-2.17-4.64-5.74-8.65-5.29-2-.2-4.29,1.32-6.29,1.65a11.53,11.53,0,0,0-6.32,2.9c-2.17,1.87-4.68,3-6.67,5.12a4.81,4.81,0,0,0-1.61,3,4.5,4.5,0,0,0-2.05,1.44c-1.65,1.93-2.44,5.19-4.35,6.72a49.79,49.79,0,0,0-5.82,1.22c-2.19.66-3.64.55-5.72,1.86s-3.55,3.17-5.63,4.32c-4,2.19-6.91,5.42-9.64,9-2.37,3.15-8.12.7-11.47,2.12-4.83,2-8.76,3.6-11,8.52-.94,2-1.13,4.33-2.48,6.14-1.74,1.69-2.67,4-4,5.93a66.48,66.48,0,0,0-11.14-11.29c-3.43-2.8-8.51-2.84-9.47-7.71a23.68,23.68,0,0,0-1.83-6c-1-2-.86-4.09-1.7-6.08-1.84-3.93-5.29-4-8.6-6.15-2-1.3-3.56-3.62-6-4.08-2-.39-4.23-.12-6.05-1.26-3-1.67-7-2.6-10.33-3.61-3.87-1.16-7.35-2.86-11.43-3.19-1.18-.16-2.11.69-3.25.82-.68-.27-1.36-.49-2.07-.7-2.06-.15-3.27,1.06-5.24-.11-4-2.38-8-7.38-12.81-3.6-1.28,1-.62,2.06-2.34,2.06a2.16,2.16,0,0,0-2.11.87c-1.34,1.21-2.7,2.23-4.09,3.35A22,22,0,0,0,59.56,101c-.08.12-.18.18-.25.28a2.36,2.36,0,0,0-.69-1.18,13.16,13.16,0,0,0-2.42,3.46,5.76,5.76,0,0,0-1,.68c-1,2-.49,4.13-2.62,5.18a9,9,0,0,0,.39,1.91A3,3,0,0,0,51.12,113c-.39,1.71-3,2.09-3.81,3.48-1.22,2-1.9,4.37-3,6.42s-3.23,3-4.2,5.08a9.48,9.48,0,0,1-2.6,3.64c-2.67,2.45-2.71,7.29-5.63,9.77-1.17,1.93-2.79,2.13-3.44,4.51-.56.53-1.07.91-1.55,1.29-.28-.57-.56-1.15-.8-1.75-.54.77-1.12,1.54-1.74,2.33a10.89,10.89,0,0,1,1.19.3c0,.08.08.15.11.22a10.59,10.59,0,0,0-.92,1.21c.82-.34,1.26,0,1.33.91-2.61,1.27-1.09,1.45-1.74,3.74-3.54-1.89-5,4.94-6.25,9.09a33.79,33.79,0,0,0-3.63-4.28A48.57,48.57,0,0,0,7,171.88a38,38,0,0,1,4.84,5.31c-.55,2.13-3.12,2.52-4.58,3.88-.45,1.71-.1,3.58-.76,5.25C11.61,199.45,24.43,204.1,31.39,213s12.49,15,22.69,18.24a49.73,49.73,0,0,1,5.74,2.22h0l0,0a52.89,52.89,0,0,1,5,2.63c.92.1,1.79.29,2.75.49,0,.11,0,.2,0,.31.06-.1.17-.15.22-.27a5.89,5.89,0,0,0,1.24.18c1.5.12,3.78-.17,5.15.33l0,0c1,2,1.27,4.38,2.65,6.17a12.5,12.5,0,0,1,2.14,1.49,23.7,23.7,0,0,0-1.6-7,27.69,27.69,0,0,0,7.47-.75c1.5-.33,2.73-1.29,4.22-1.58s3.34.57,5,.32c2.95-.4,5.51-2.42,8-3.79a11.88,11.88,0,0,1,4.88-1.32c1.67-.14,2.72-1.59,4-2.48,1.07-.85,2.4-.92,3.53-1.9a9.64,9.64,0,0,1,4.57-2.43C122,220.84,122.13,216.94,121.47,213.09Zm-100.25-50c1-1.46,1.1-.24,2.54.08,1.06.3,1.33,1.51,1.72,2.35C23,166,22.45,165.21,21.22,163.11Zm90.52,8.35c-.9,1.91-1.09.89-3.07,1.18-1.41.57-1.68.37-.83-.6-1.59.11-3,.9-4.66.77-1.34.06-3.28-1.56-4.44-1.09a25.12,25.12,0,0,1-8.9,1.6c-2.77-.24-5.45-2.67-8.13-2.85-2.07-.2-8.52-2.54-9.49-1.43.34-1.65,0-2.46-1.94-2.67,0-1.25-.59-2.48-.28-3.73.71-2.44.61-5.07,1.57-7.44,1.29-3.13,1.17-4.77.66-8.12,0-3.32.33-6.64.19-10,.14-1.22-.93-2.14-1-3.31s.92-2.63,1.39-3.61a17,17,0,0,1,2.3-3.85c.36-1.08.16-2.28.69-3.29,1.17-2.19,5.84.69,7.59,1,3.29.65,5.38,2.18,8.32,3.53A33.51,33.51,0,0,0,97.15,129c2,.52,2.44,2.45,4.33,3.06-1.82,0,.14,1.81.45,3.07s.5,2.57,1.45,3.5a19.79,19.79,0,0,1,4.64,7.26c1,2.77-1.51,3.7-2.86,5.93-.75,1.21-1.52,1.43-2.66,2.17-.78,1.69.67,2-1.45,2.63.12,2-.78,2.64.24,4.55a13.76,13.76,0,0,1,3.37.84c1.34-.14,5.07,0,6-.83a6.28,6.28,0,0,1,2.83-1.54c2.26-.72,2.07.11,2.59,2.23.7,2.77.39,5.43.77,8.2C114.39,169.15,113.12,168.47,111.74,171.46Z"/><g class="cls-4"><path class="cls-5" d="M108.86,170.13c.23-.3.45-.62.77-1a8.33,8.33,0,0,1,1.34-1.39,6.08,6.08,0,0,1,.56-.38l.32-.18.17-.08.12-.05a1.12,1.12,0,0,1,.37,0,3,3,0,0,1,.84.27l.54.25.28.14.15.07v-.12c0-.31,0-.66.06-1a21.17,21.17,0,0,0,.09-2.62c0-.33,0-.65-.1-1s-.09-.59-.18-1l-.18-1,0-.17v-.06l0,0,.27-.14.16-.08a1.34,1.34,0,0,0,.26-.19.44.44,0,0,0,.11-.09c0-.05,0,0,0,0s0,0,0,0l0,.08c0,.07,0,.07,0,.19a2,2,0,0,0,0,.34,1.27,1.27,0,0,1,0,.2v.12h0a.56.56,0,0,0-.22,0,8.33,8.33,0,0,0-.91.22,4,4,0,0,0-1.54.72,5.2,5.2,0,0,1-1.12.72,6.16,6.16,0,0,1-1.26.33c-.41.06-.88.1-1.23.12l-1,0h-2.22a4.34,4.34,0,0,1-1-.11l-.94-.35a17.44,17.44,0,0,0-1.62-.72l-.41-.13c-.66,0-.86-.71-1-.89a4.72,4.72,0,0,1-.1-2.56c.11-.72.21-1.35.23-1.82l0-.64.5-.13a4.1,4.1,0,0,0,.78-.25h0c0,.05.13.09.12.09l0,0a.2.2,0,0,0-.11,0c-.11,0,0,0,0,0s0-.07,0-.13c0-.45,0-.49,0-.11a2.36,2.36,0,0,1,0,.25s-.06,0,.06,0,0,0,0,0l0,0s-.07-.06-.06,0a3.81,3.81,0,0,1-.81.26l-.48.1,0,.61a15.06,15.06,0,0,1-.25,2,4.66,4.66,0,0,0,.08,2.39,6.61,6.61,0,0,0,.35.63c0,.14.16.15.28.17l.33.1.42.12c.44.16.91.35,1.63.68l.72.25.38.14.4,0c.55,0,1.17,0,1.8,0h.89l.88,0a10.57,10.57,0,0,0,2.1-.31,9.55,9.55,0,0,1-2.1.11c-.63,0-1.13-.09-1.77-.15s-1.17-.12-1.66-.2l-.35,0-.33-.17-.58-.31c-.68-.34-1.06-.52-1.41-.66a7.15,7.15,0,0,1-.88-.26,5.2,5.2,0,0,1-.16-.76,2.61,2.61,0,0,1,0-1,24.58,24.58,0,0,0,.29-2.72l-.23.34a4.87,4.87,0,0,0,.8-.29,1.33,1.33,0,0,0,.44-.29.87.87,0,0,0,.25-.58c0-.38,0-.58,0-.81a1.89,1.89,0,0,1,.17-.66l.06-.14-.15.17c.5-.31,1.07-.57,1.63-1a4.85,4.85,0,0,0,1.33-1.45,10.12,10.12,0,0,1,1.19-1.41,11.46,11.46,0,0,0,1.35-1.59,3.43,3.43,0,0,0,.6-2,6,6,0,0,0-.49-2,18.86,18.86,0,0,0-1.81-3.56,21.15,21.15,0,0,0-2.38-3.09,3.41,3.41,0,0,1-.87-1.4c-.17-.51-.27-1.1-.44-1.8a7.2,7.2,0,0,0-.85-2,2.86,2.86,0,0,1-.28-.65h0s-.1,0-.14,0-.29,0-.31,0a.28.28,0,0,1-.18,0s0,0,0,0,.09.08.1.12,0,.1.1.25c.14.35,0,.2.09.23h.11l4.79-.4-4.47-1.6a5.35,5.35,0,0,1-1.92-1.64,5.77,5.77,0,0,0-1.72-1.31,12.21,12.21,0,0,0-2.07-.62,21.11,21.11,0,0,1-3.33-.94,22.42,22.42,0,0,1-2.4-1.34,23,23,0,0,0,2.78,1.33,29.32,29.32,0,0,0,3.07.76,12.3,12.3,0,0,1,1.88.52A5.85,5.85,0,0,1,99.79,129c1,1,1.45,1.58,2.1,1.79l4.9,1.59-5.32,1h-.09s0-.07,0-.1a1.23,1.23,0,0,0,0-.19,1.32,1.32,0,0,0-.13-.38.48.48,0,0,0-.09-.19c-.07-.07-.06-.06,0-.06h0a.22.22,0,0,0,.08,0c.08,0,.07,0,.23,0a1.58,1.58,0,0,0,.38,0,.94.94,0,0,1,.26-.07h0a.78.78,0,0,0,0,.09c0,.09.11.22.18.35a8,8,0,0,1,1,2.15c.19.74.29,1.29.46,1.74a3.12,3.12,0,0,0,.8,1.25,22.33,22.33,0,0,1,2.47,3.14,18.85,18.85,0,0,1,1,1.74c.16.31.3.58.45.93s.31.7.44,1.06a6.25,6.25,0,0,1,.51,2.2,4,4,0,0,1-.64,2.13A11.58,11.58,0,0,1,107.3,151a9.73,9.73,0,0,0-1.12,1.35,5.75,5.75,0,0,1-1.17,1.38,9.78,9.78,0,0,1-1.45.94l.49-.24.57-.29a5.71,5.71,0,0,0,1.67-1.72,9.6,9.6,0,0,1,1.13-1.31,11.66,11.66,0,0,0,1.51-1.77,4.16,4.16,0,0,0,.68-2.19,6.29,6.29,0,0,0-.47-2.29c-.13-.37-.28-.74-.44-1.11s-.29-.64-.44-.95c-.31-.62-.65-1.21-1-1.79a23.23,23.23,0,0,0-2.45-3.23,2.67,2.67,0,0,1-.66-1.06,5.25,5.25,0,0,1-.17-.6l-.19-.85c0-.11,0-.21-.08-.33a6,6,0,0,0-.35-1c-.14-.33-.34-.67-.47-.91a5.9,5.9,0,0,1-.31-.62l0-.08s0,0,0,0l-.17.06-.25.08-.26.06-.15,0a1.12,1.12,0,0,1-.32,0c-.14,0-.12,0-.2,0s-.14-.05-.11,0l.11,0c.07,0,.06,0,.19,0a1.05,1.05,0,0,0,.31,0l.15,0,.24-.05a3.73,3.73,0,0,0,.47-.15h0l0,.07a6.29,6.29,0,0,0,.32.62c.12.23.31.57.46.9a5.5,5.5,0,0,1,.34,1l.08.33.21.84a5.1,5.1,0,0,0,.2.59,2.55,2.55,0,0,0,.71,1,21.47,21.47,0,0,1,3.79,5c.14.27.24.5.38.81s.28.67.4,1a8.06,8.06,0,0,1,.5,2.09,4.26,4.26,0,0,1-.34,2.09,6.85,6.85,0,0,1-1.11,1.72c-.4.46-.94,1-1.23,1.24a8.52,8.52,0,0,0-.85.85,6,6,0,0,1-1.82,1.62c-.61.39-1.09.61-1.52.87l.4-.46a1.49,1.49,0,0,0-.18.83,2.35,2.35,0,0,1,0,.77,1.69,1.69,0,0,1-.29.68,2.28,2.28,0,0,1-.43.41l.08,0a1.51,1.51,0,0,0,.71-.73,3.38,3.38,0,0,0,.23-1.08c.06-.35.15-.36.35-.63l-.6.69a13.35,13.35,0,0,0,1.64-.75,6.08,6.08,0,0,0,2-1.82,12,12,0,0,1,.94-.91,14.82,14.82,0,0,0,1.72-1.79,5.68,5.68,0,0,0,1.1-2.4,6.18,6.18,0,0,0-.2-2.76c-.14-.47-.29-.94-.47-1.4-.08-.23-.18-.48-.27-.68l-.22-.54c-.31-.7-.66-1.39-1-2.06a23.8,23.8,0,0,0-2.61-3.67,1.63,1.63,0,0,1-.33-.72c0-.17-.1-.63-.3-1.48a11.15,11.15,0,0,0-1.16-2.76l0-.09h0s.09,0-.14.08-.61.27-.93.39l-.23.09-.14.06c-.09.05-.19.08-.28.12a4.73,4.73,0,0,1-.59.16,1.35,1.35,0,0,1-.36.07h-.26l-.14,0a.31.31,0,0,1,.11.15s0,0,0,.09a1.3,1.3,0,0,1,.08.17,6.08,6.08,0,0,1,.17,1.91l1.09-6.07v0l.06-.12,0,0,0-.05h0l0,0c-.06-.06-.18-.17-.36-.37l-.31-.31c-.1-.11-.3-.31-.44-.44a10,10,0,0,0-.83-.7,6.61,6.61,0,0,0-1.89-1,8.76,8.76,0,0,0-1-.25l-.5-.08-.36,0c-.93-.09-1.74-.1-2.47-.14l-1-.1a4.61,4.61,0,0,1-1-.24,18.88,18.88,0,0,1-2.49-1,13.61,13.61,0,0,0-3.33-1.52,4.31,4.31,0,0,1-1.3,0L83.9,122c-.54-.14-1.57-.71-2.49-1.11a7.56,7.56,0,0,0-3.18-.76,7.9,7.9,0,0,0-2.56,0,4.91,4.91,0,0,0-.51.15l-.55.28a3.83,3.83,0,0,0-1,.8,7.74,7.74,0,0,0-.67.85,6.53,6.53,0,0,0-.44.74c-.26.48-.44.89-.59,1.21s-.13.16-.18.22l-.15.09c-.17.1-.25.14-.15.2a2.26,2.26,0,0,1,.59.45c.13.16,0,.18-.2.24l-.09,0-.17.15a5.82,5.82,0,0,0-.42.43,7.87,7.87,0,0,0-1,1.45,4.68,4.68,0,0,0-.28,1.25,2.1,2.1,0,0,1-.32,1.17,7.07,7.07,0,0,0-1,2,5.87,5.87,0,0,0-.25,1.38,4.83,4.83,0,0,0,.17,1.58c.73,2.18,1.18,1.71,1.25,2.6l0,.11a18,18,0,0,1,0,4.77,14.87,14.87,0,0,0-.07,2,11,11,0,0,0,.1,1.2c0,.21.07.44.1.68s0,.24.07.36l.08.53c0,.14.22.88.36,1.42a20,20,0,0,1,.43,2,7.87,7.87,0,0,1,0,1.86,6.57,6.57,0,0,1-.12.86c-.16.5-.35,1-.55,1.46a10.12,10.12,0,0,0-.48,1.69,28.42,28.42,0,0,0-.4,2.92c-.05.44-.11.86-.18,1.27a12,12,0,0,1-.32,1.3,8.79,8.79,0,0,0-.43,3.33c.06.23.13.47.19.71.47.53.49,1.27,1.22,1.31a4,4,0,0,1,1,.51l.12.09s0,.11,0,.17v0l.2-.2v0h0l-.23.21h0l.35-.19.18-.09s0,0,.06,0l.09.1a1.56,1.56,0,0,1,.16.2,1.83,1.83,0,0,1,.28.82,1.64,1.64,0,0,1,0,.38c.06.06.2-.11.35-.07a3.73,3.73,0,0,1,1.2.14l.64.17c.18.28.35.61.52.92l.06.12.12,0,.13,0,.28.08.56.16,1.13.35a22.87,22.87,0,0,0,4.76,1.18,6,6,0,0,1,2.35.83c.75.42,1.45.9,2.22,1.38A10.77,10.77,0,0,0,89.16,176a5.74,5.74,0,0,0,1,.2l.79.12c.54.07,1.1.13,1.7.15,1.36,0,2.32-.29,3.12-.23a3.71,3.71,0,0,0,1.44-.41l.89-.39.45-.21.15-.08a.58.58,0,0,1,.21-.07c0,.16,0,.32,0,.48a.77.77,0,0,1,.52.06c.12.07.06.21,0,.35a1.73,1.73,0,0,0-.07.83.48.48,0,0,1,0,.14l0,.07s.15.1.4.22a9,9,0,0,0,3,.9,10.76,10.76,0,0,0,1.8.06c.52,0,1.55-.18,1.16-.09a.66.66,0,0,1,.14-.38c.09-.09,0-.11,0-.13h0s0,0,.15.05l.18.08a3.15,3.15,0,0,0,.5.1l.52,0h.38l.53,0,.36-.07.31-.07.21-.06c.59-.19.39-.19.45-.24v0a1.59,1.59,0,0,1,0-.53,1,1,0,0,1,.18-.17l.11-.08c.07,0,0-.05.34-.05.82-.42.57-.87,1.27-1.28-.08-.29.45-.73.71-1.33a2,2,0,0,0,.08-1.47c-.24-.76-.65-1.31-1.25-1.34-.08,0-.21.13-.36.28a.93.93,0,0,1-.22.19h0s0,0,0,0l.1.1a1.36,1.36,0,0,1,.19.26c0-.05,0,0,0-.14a2.63,2.63,0,0,1,0-.43s-.06,0-.13-.06c-.23-.05-.5-.12-.76-.16a8.26,8.26,0,0,0-1.52-.14,3.32,3.32,0,0,1-.6,0c-.25-.06,0-.44.4-1a2.38,2.38,0,0,0,.26-.31l-.32.06-.64.21h-.06l0,.15.09.37a8.38,8.38,0,0,1,.22,1.15,3,3,0,0,1,0,.7.66.66,0,0,1,0,.2v.07h0c-.62,2.45.84-3.34.69-2.75h0c0-.09.08-.18.13-.27l.23-.48s0,0,0-.05a.11.11,0,0,1,0-.09.41.41,0,0,1,.11-.31.21.21,0,0,1,.1-.07l0,0s-.06.11-.08.16l-.24.45-.07.13h0l-.83,3.28h0v-.11a.47.47,0,0,0,0-.17,2.27,2.27,0,0,0,0-.57,4.25,4.25,0,0,1,0,.68.59.59,0,0,1,0,.13v0h0l.86-3.43h0v0l.11-.22.23-.45a1.65,1.65,0,0,0,.08-.17h0c-.15,0-.13-.07-.1-.09a.5.5,0,0,1,.12-.1,2,2,0,0,1,0-.33.77.77,0,0,1,.07-.24c-.11-.13,1.14-.4-.23-.31-.8,0-1.59,0-2.44.08a12.2,12.2,0,0,0-1.3.17l-.66.11-.4.07-.1,0h-.06a.62.62,0,0,1-.11-.19c-.23-.19.74,0-1.7-1a8.37,8.37,0,0,0-2.64-.56,5.79,5.79,0,0,0-1.32.12,6.87,6.87,0,0,0-1.29.35l-.88.32-.35.14-.72.3c-.66.24-1.77.79-2.54,1.1a3.81,3.81,0,0,1-1.52-.07,1.37,1.37,0,0,0-.42.65c-.06.22,0,.44-.1.66l-1.28-.75a24.94,24.94,0,0,0-2.75-1.54,8.87,8.87,0,0,0-3.65-.92l-.39,0s0,0-.06.05,0,.11-.12.16a.58.58,0,0,0-.25.44,10,10,0,0,0-2.53-.3,15.48,15.48,0,0,1-2.94-.28,7.35,7.35,0,0,0-1-.13,2.62,2.62,0,0,0-.91,0,.47.47,0,0,0-.21.11s0-.13,0-.19a2,2,0,0,0,0-.48c-.06-.18,0-.23-.54-.72a1.3,1.3,0,0,0-.57-.23l-.29,0c-.08,0,0-.17-.06-.26s-.08-.42-.13-.66a2.71,2.71,0,0,1,0-1.57l.14-.84.13-.92c.07-.57.15-1.13.22-1.69a12.36,12.36,0,0,1,.67-2.77,17.35,17.35,0,0,0,.85-2.64,14,14,0,0,0,.19-4.91c0-.36-.09-.71-.14-1.06l0-.4a1.22,1.22,0,0,1,0-.32c0-.62,0-1.24.07-1.85.07-1.31.14-2.61.21-3.88,0-.66,0-1.31.07-2v-2a4.7,4.7,0,0,0-.35-2.1c-.12-.33-.3-.69-.42-1a1.93,1.93,0,0,1-.15-.38v0h0l-.16,0-.24,0h-.1l-.2,0h.5l.21,0h0s0,0,0-.08a4.69,4.69,0,0,1,.38-.84l.71-1.3.35-.69.3-.58c.2-.37.41-.73.63-1.07l.17-.25.24-.33c.21-.29.45-.57.68-.86a7.36,7.36,0,0,0,.53-2,8.56,8.56,0,0,1,.17-1.26s0-.06,0-.07h0l-.89-.48h0a.51.51,0,0,1-.22-.13s0,0,0,0h0l.06.1a.9.9,0,0,1,.08.21c0,.08,0,.09,0,.24a2.62,2.62,0,0,1,.09.38v.19c0,.08,0,0,0,0h.12a10.24,10.24,0,0,1,2.16.59l1.41.52a12.24,12.24,0,0,0,1.88.54,20.8,20.8,0,0,1,5.37,1.78l1.6.69.84.35,1,.34a26.74,26.74,0,0,0,3.61.72l.79.13a5.6,5.6,0,0,1,.59.12,2.69,2.69,0,0,1,1,.57,9,9,0,0,0,3.24,2.28l.48-2.94-.46,0a2.55,2.55,0,0,0-.64.17,2,2,0,0,0-.88.75,1.7,1.7,0,0,0-.23.59,2.56,2.56,0,0,0,0,.51,3.07,3.07,0,0,0,.29,1,5.66,5.66,0,0,0,.31.57,5.48,5.48,0,0,1,.78,1.52c.16.52.31,1.26.61,2a5.35,5.35,0,0,0,1.34,2,19.73,19.73,0,0,1,2.3,2.84,16,16,0,0,1,1.54,3,3.46,3.46,0,0,1,.31,1.37,2.15,2.15,0,0,1-.47,1.29,10.15,10.15,0,0,1-.94,1,11.57,11.57,0,0,0-1.31,1.58,3.25,3.25,0,0,1-.92,1l-.61.35c-.27.14-.56.31-.86.49l-.38.23-.2.45a4.51,4.51,0,0,0-.41,1.3,4.35,4.35,0,0,0,0,.71c0,.18,0,.4,0,.36s.19,0,.32,0h.45l.23,0c.07,0,.05,0,.08,0l.08,0,0,0a.73.73,0,0,1-.16-.14l-.07-.08c0-.05-.09-.1-.13-.16a1.85,1.85,0,0,1-.21-.33,1.28,1.28,0,0,0-.12-.21h0a4.14,4.14,0,0,1-.48.14l-1.13.3-.1,1.47c-.06.83-.21,1.76-.25,2.54a5.29,5.29,0,0,0,.34,2.33,3.06,3.06,0,0,0,.68.78,8.83,8.83,0,0,1,.89.33c.57.25,1.17.55,1.77.86.43.14.85.32,1.27.45a9.13,9.13,0,0,0,1.31.11h2.45c.36,0,.67,0,1.1-.05a11.33,11.33,0,0,0,1.32-.17,5.57,5.57,0,0,0,1.26-.39,7.13,7.13,0,0,0,1.08-.7l.2-.14.07,0,.17-.09a2,2,0,0,1,.34-.14c.19-.05.57-.16,1-.25a2.78,2.78,0,0,1,.4-.06c.06,0,0,0,.07,0,0-.35-.06-.45-.07-.68s0-.45,0-.58c0-.61.21-.77.08-.62a2.08,2.08,0,0,1-.54.34,3,3,0,0,1-.6.28l-.16.06-.28.11-.2.08c0,.06.06.49.12.89,0,.22.08.43.11.65l.07.46c0,.3,0,.6.07.91a1.73,1.73,0,0,1,0,.33l0,.23c0,.62-.14,1.12-.2,1.51l0,.28v.13s0,.12-.06.06l-.58-.28a1.39,1.39,0,0,0-.48-.15.62.62,0,0,0-.19,0l-.09,0-.22.11-.29.17a5.63,5.63,0,0,0-1.71,2.06,8.69,8.69,0,0,0-.37.87Z"/></g><g class="cls-4"><path class="cls-5" d="M24,161.51c-1,1-.66,1.92-.9,2.53a2.25,2.25,0,0,1-.08.52c0,.14-.06-.1.08-.52,0-.15,0-.3,0-.5a10.34,10.34,0,0,0-.93,1.46c.06.13.13.25.2.39a4.16,4.16,0,0,0,1.73,1.28c.26.16.79.16,1.05.42a6.73,6.73,0,0,1-1.59-.22,3.34,3.34,0,0,1-1.57-1,.61.61,0,0,1,0,.14,3.8,3.8,0,0,0,1.68,1.34.84.84,0,0,1,.33.13l-.33-.13a8.31,8.31,0,0,1-1-.09c-.22-.12-.37-.43-.54-.58s-.11-.45-.12-.67a1.57,1.57,0,0,1-.14-.25.16.16,0,0,1-.1,0v0a1.41,1.41,0,0,0-.16,1.06,2.85,2.85,0,0,0,.79,1.41,3.06,3.06,0,0,0,2.08,1.07c.39-.15.59-1.12.89-1.26.09-.05.21.19.25,0a1.42,1.42,0,0,1,0-.37c.08,0,.17,0,.26.08l1.65-3.18s.06-.08.05-.11l-.06-.05a.34.34,0,0,0-.15,0c-.2,0,1.76-1.42,1.35-1.26-1.45.66-.39.18-.4-.19,0-.06-.6.17-.58.07.23-.45-.27-.22-.55-.35-.61,0,.11-.75-.88-.37-.06,0-.29,0-.51.07a3.13,3.13,0,0,0-.42.07c-.21-.37-.91.17-.49-.85-.88.69-.66-.48-1.13-.51s-.16-.83-.38-1.68a.41.41,0,0,0-.1-.09.54.54,0,0,0-.18-.09,1.56,1.56,0,0,1-.51-.27c-.12-.14-.47-.06-.82.08a4.86,4.86,0,0,1-.89.37v-.46a6.29,6.29,0,0,0-.76.16c-.14,0-.18-.11-.22-.26s-.12-.6-.49-.64l-.57.15-.28.11-.19.06a3.7,3.7,0,0,0-.73.34,2.8,2.8,0,0,0,0,1.15c.15.13.3.26.42.38l.16.34c.33.28.71.55.94.73,1,.74,1.88,1.54,2.82,2.15a10,10,0,0,1,.93.45c.14.11.44.37.79.64a.71.71,0,0,1,.23.16l.26.2-.26-.2L24,165a7.32,7.32,0,0,1-1-.82c-.18-.18-.26-.23-.37-.35a3.11,3.11,0,0,1-.29-.33,1.55,1.55,0,0,1-.34-.58s0,0,0,.1a.24.24,0,0,1,0,.08l-1.33,4.18h0v-.17c0-.12-.18.08-.16.13.15-.37.32-.8.49-1.2-.09.44-.4,1.13.33-.21,0,.09.37-.52.49-.55a1.84,1.84,0,0,1,.53-.09.24.24,0,0,1,.27.06l.08,0c.23.12.21.45.18.71a1.07,1.07,0,0,0,0,.35.31.31,0,0,0,.06.13s0,.05.06,0a1.09,1.09,0,0,0,.13.17L25,163a1.46,1.46,0,0,0-.31.47c-.29.64-.69.85-.88.78s-.17-.36-.08-.73c.19-.79.72-1.86.75-2.16Z"/></g><g class="cls-4"><path class="cls-5" d="M124.6,212.56a22.93,22.93,0,0,1,0,6.08,13.75,13.75,0,0,1-1.17,3.76,11.91,11.91,0,0,1-3,3.92c-.55.11-1.21.23-1.69.38a7.13,7.13,0,0,0-.77.33,9.54,9.54,0,0,0-1.7,1.16,7.25,7.25,0,0,1-1.21.8,11.52,11.52,0,0,1-1.21.54,6.13,6.13,0,0,0-1.27.55l-.14.1a9.44,9.44,0,0,0-.78.59c-.31.25-.65.54-1.17.93a6.37,6.37,0,0,1-3.37,1.28l-.82.08-.7.1a9.59,9.59,0,0,0-1.28.31,5.49,5.49,0,0,0-1.15.5c-.47.25-.93.52-1.42.8-1.94,1.12-4.15,2.61-7.2,3a6.83,6.83,0,0,1-1.75,0c-.54-.06-1-.16-1.43-.24s-.79-.15-1-.17a2.58,2.58,0,0,0-.83,0,4.56,4.56,0,0,0-.94.3l-1.3.56a9.64,9.64,0,0,1-1.7.59c-.59.13-1,.2-1.54.29a17.18,17.18,0,0,1-4,.28c-.34-.11-.1.22-.08.39l.18.59c.12.39.24.8.34,1.2s.19.83.26,1.25l0,.32,0,.51c0,.36,0,.73,0,1.09v3.84l-2.9-2.48a10.14,10.14,0,0,0-.83-.67l-.21-.15a2.53,2.53,0,0,0-.32-.21l-.68-.4a7.28,7.28,0,0,1-1.31-2c-.17-.36-.33-.75-.44-1.05l-.16-.47-.12-.34-.39-1.23q-.1-.3-.24-.6l-.13-.3c-.06-.08-.19-.08-.28-.12l-.38-.08a12.55,12.55,0,0,0-1.94-.09h-.62c-.24,0-.53,0-.76,0-.52,0-1.1-.15-1.65-.24l1.81-.88a2,2,0,0,1-.44.61l0,0h0l-.07-.08-.45-.45a1.93,1.93,0,0,0-.35-.31l-.3-.24-.41,0h-.12c-.12,0-.2,0-1,.11a2.66,2.66,0,0,1,0-.34l1.24,1.53-3-.58c-1.15-.7-1.77-1.05-2.62-1.51s-1.61-.84-2.42-1.22l-.2-.09-.14-.13h0l2.1-.19h0l-.75.87-1-.48q-2.2-1-4.44-1.83l-2.3-.81c-.79-.26-1.55-.6-2.31-.91a35.75,35.75,0,0,1-8.07-4.91,68,68,0,0,1-10.65-11.62C28,210,23.75,206.89,20.18,203.92a61.87,61.87,0,0,1-8.79-8.38c-.92-1.14-1-1.37-.57-.75a45.76,45.76,0,0,0,3.47,3.82c1.86,1.84,4.48,4.06,7.58,6.59s6.65,5.45,9.55,9.53a71.14,71.14,0,0,0,10.2,11.15A34,34,0,0,0,49,230.6a36.08,36.08,0,0,0,4.28,1.73c1.45.49,2.84,1,4.26,1.59-1.75-.82-3.48-1.42-5.39-2.16a37.92,37.92,0,0,1-5.29-2.66,39,39,0,0,1-8.54-7.27,94.14,94.14,0,0,1-6.31-8,42.08,42.08,0,0,0-5.9-6.63c-3-2.61-6.23-5-9.23-7.64A38.94,38.94,0,0,1,9,190.49l-1-1.77a6.65,6.65,0,0,1-.42-.9L7.26,187l-.2-.47-.1-.23L7,186a5.35,5.35,0,0,0,.26-1.15c.06-.43.09-.88.12-1.25a10.74,10.74,0,0,1,.27-2.26,11.43,11.43,0,0,1,2.41-1.52,6.64,6.64,0,0,0,1.34-1,3.44,3.44,0,0,0,.88-1.54l.06-.22-.13-.19a24.13,24.13,0,0,0-2.3-2.8c-.74-.79-1.5-1.53-2.26-2.28-.08,0,0-.12,0-.18l.07-.2.16-.4c.1-.27.21-.53.32-.8.22-.52.46-1,.71-1.55.51-1.07,1.11-2.2,1.74-3.26a54.42,54.42,0,0,1,4.21-6.12l-.89.05a33.06,33.06,0,0,1,3.55,4.22l.72,1,.38-1.2c.62-2,1.14-4,1.9-5.86A8.41,8.41,0,0,1,22,155.08a1.53,1.53,0,0,1,2-.36l.75.39.22-.8a5.52,5.52,0,0,0,.21-1.29c0-.43-.05-.9,0-1.11s.58-.6,1.22-.89l.46-.21-.07-.47a1.9,1.9,0,0,0-.62-1.43,1.38,1.38,0,0,0-1-.26,2.24,2.24,0,0,0-.7.18l.87,1,.86-1.13.29-.37-.18-.37-.13-.28-.12-.26-.27-.07-1.27-.33.42,1.15,1.77-2.36-1.29-.15.81,1.82.39.87.75-.62,1.6-1.33.14-.12.07-.23a4,4,0,0,1,1.18-1.92,13.13,13.13,0,0,0,2-2,1.48,1.48,0,0,1,.38-.46,4.5,4.5,0,0,0,.47-.49A8.3,8.3,0,0,0,34,140a18.1,18.1,0,0,0,1.24-2.55,18.41,18.41,0,0,1,2.26-4.62c.44-.56,1.25-1.16,1.88-2a12.6,12.6,0,0,0,1.48-2.5c.67-1.45,2.37-2.4,3.73-4.19a39.71,39.71,0,0,0,2.62-5.41,14,14,0,0,1,.76-1.45,2.43,2.43,0,0,1,.68-.79,8.67,8.67,0,0,1,1-.62A8.32,8.32,0,0,0,51,115a3.38,3.38,0,0,0,1.19-1.79l-.08.21a1.91,1.91,0,0,1,1.23-1l1.06-.32L54.06,111a7.58,7.58,0,0,1-.33-1.68l-.62,1.1a4.25,4.25,0,0,0,1.52-1.24,5,5,0,0,0,.8-1.71,13.38,13.38,0,0,1,.83-2.7l-.24.32c.25-.17.51-.34.76-.53l.36-.27.13-.28a12,12,0,0,1,2.23-3.13l-1.67.09a1.28,1.28,0,0,1,.34.64l1.51-.08h0l.07,0,0,0h0l.44.38h0l.06-.06.12-.13c.08-.09.14-.2.21-.29a21.61,21.61,0,0,1,3.56-4.48c1.54-1.26,3.07-2.49,4.55-3.69v0l.13-.13a.89.89,0,0,1,.94-.39l.16,0h0a2.93,2.93,0,0,0,1.73-.45,2.46,2.46,0,0,0,.72-.8c.13-.23.2-.4.26-.5a1.41,1.41,0,0,1,.32-.45,7,7,0,0,1,.59-.41,4.09,4.09,0,0,1,2.66-.7,6.41,6.41,0,0,1,2.53.94A23.3,23.3,0,0,1,81.07,92c-1.81-1.34-3.66-2.53-5.31-2.41a4.38,4.38,0,0,0-2.4,1c-.35.26-.34.27-.63.83a3.4,3.4,0,0,1-.39.64,2.31,2.31,0,0,1-.84.67A3.6,3.6,0,0,1,70,93h-.21c-.39,0-.45,0-.78.34l-.16.16-2.33,1.9-1.16,1-.59.48-.5.43a13.9,13.9,0,0,0-1.8,2c-.57.76-1.06,1.5-1.66,2.41l-.21.3-.13.14-.06.06h0l-.61-.53,0,0-.07,0h0l-1.72.14a1,1,0,0,0-.29-.53l2-.11a11.65,11.65,0,0,0-2.18,3.08l-.15.32-.44.33q-.34.27-.72.51l.29-.39a12.69,12.69,0,0,0-.78,2.59,5.35,5.35,0,0,1-.81,1.8,4.54,4.54,0,0,1-1.65,1.39l.76-1.36a7.29,7.29,0,0,0,.32,1.61l.41,1.3-1.31.43a1.61,1.61,0,0,0-1.06.91l.1-.27a3.69,3.69,0,0,1-1.17,1.86,9,9,0,0,1-1.35.94,9.58,9.58,0,0,0-1,.62,2.38,2.38,0,0,0-.69.79,12.38,12.38,0,0,0-.66,1.28c-.23.48-.44,1-.66,1.5a33.61,33.61,0,0,1-1.44,3.15,7.68,7.68,0,0,1-1.12,1.64c-.43.49-.87.9-1.27,1.28a7.76,7.76,0,0,0-1.85,2.19,13.25,13.25,0,0,1-1.51,2.58c-.66.83-1.5,1.48-1.87,2a18,18,0,0,0-2.18,4.51,16.9,16.9,0,0,1-1.26,2.62,9,9,0,0,1-.91,1.27c-.09.09-.18.21-.26.29l-.21.2-.22.21-.14.22a13.67,13.67,0,0,1-2,2.1,3.54,3.54,0,0,0-1.05,1.71l-.11.38-.23.19-1.64,1.36-1.23,1-.65-1.44-.84-1.85,2.17.25-1.78,2.38-.71-2,1.33.35.46.11.21.45.15.33.3.63-.49.64-.81,1.07-1.51-1.78a3,3,0,0,1,.86-.21,1.87,1.87,0,0,1,1.32.36,2.1,2.1,0,0,1,.69,1,3.69,3.69,0,0,1,.14.78l.07.81-.75.38a7.38,7.38,0,0,0-.82.45c-.13.05-.1.17-.2.08s-.09-.07-.16-.1l-.07,0h0l.12,0,.19,0h0c0,.08.06.62,0,1.1a6,6,0,0,1-.22,1.42l-.29,1.07-1.44-.34c-.14,0-.29-.13-.41-.15s-.22-.06-.3,0-.41.17-.66.41a8,8,0,0,0-1.32,2.3c-.73,1.81-1.24,3.8-1.87,5.81l-.7,2.27-1.37-1.94a32.6,32.6,0,0,0-3.49-4.13l1.72-.1a52.22,52.22,0,0,0-4.17,6.07c-.31.53-.6,1.07-.9,1.61l-.42.81-.38.77c-.21.45-.42.91-.61,1.37-.1.23-.2.46-.29.7l-.13.35-.07.18c0,.06-.06.12,0,.16.68.66,1.34,1.31,2,2a25.45,25.45,0,0,1,2.36,2.86L13,177l-.12.49a4.05,4.05,0,0,1-1,1.81,6.8,6.8,0,0,1-1.46,1.11L9.27,181a4.07,4.07,0,0,0-1,.73,10.3,10.3,0,0,0-.23,2c0,.3,0,.79-.11,1.23a5.36,5.36,0,0,1-.23,1l-.08.21.09.2.18.4.3.7-.28-.7-.17-.41a1.19,1.19,0,0,1-.08-.2l.08-.2a6.42,6.42,0,0,0,.23-.86c.06-.36.11-.8.14-1.12a12.48,12.48,0,0,1,.26-2.23,4.15,4.15,0,0,1,1-.71l1.11-.61a7.3,7.3,0,0,0,1.5-1.12A4.2,4.2,0,0,0,13,177.49l.14-.54-.32-.47a26.74,26.74,0,0,0-2.36-2.89c-.64-.69-1.28-1.31-1.92-2-.07,0,0-.09,0-.15l.06-.17.14-.34c.08-.22.18-.44.28-.67.18-.44.39-.88.6-1.31l.37-.75.43-.81q.44-.81.9-1.59a52.22,52.22,0,0,1,4.18-6l-2.08.12a32.11,32.11,0,0,1,3.44,4.12l1.67,2.38.88-2.79c.63-2,1.15-4,1.89-5.78a7.77,7.77,0,0,1,1.26-2.2c.23-.2.41-.33.5-.31s.11,0,.18,0,.21.11.32.13l1.84.34.35-1.27a6.62,6.62,0,0,0,.25-1.5c0-.26,0-.52,0-.73l0-.26V152h-.15c-.69-.05-.52-.15-.28.06a1.55,1.55,0,0,1,.27.24c.06.08,0,0,.05,0s0,0,.08-.06a5.68,5.68,0,0,1,.77-.42l1-.48-.09-1a3.51,3.51,0,0,0-.16-.87,2.39,2.39,0,0,0-.8-1.19,2.31,2.31,0,0,0-1.57-.44,3.26,3.26,0,0,0-1,.24l1.95,2.29.78-1,.64-.82-.39-.83-.17-.35-.27-.58-.6-.16-1.37-.36.92,2.55,1.8-2.39L24.57,146l.83,1.89.85,1.9,1.64-1.36,1.67-1.38.29-.24.16-.52a3,3,0,0,1,.63-1.18c.3-.35.82-.76,1.42-1.33a8.26,8.26,0,0,0,.86-1l.1-.13,0-.07.1-.15.32-.31a3.26,3.26,0,0,0,.38-.41,6,6,0,0,0,.41-.5,10.88,10.88,0,0,0,.68-1,31,31,0,0,0,1.8-4,9.69,9.69,0,0,1,1.71-3.05c.15-.17.5-.48.83-.81a9.68,9.68,0,0,0,1-1.1,15,15,0,0,0,1.42-2.48,13.26,13.26,0,0,1,2.69-2.94,10.21,10.21,0,0,0,.93-1.08,11.34,11.34,0,0,0,.75-1.23c.4-.74.75-1.53,1.07-2.26-.31.72-.65,1.49-1,2.22a10.31,10.31,0,0,1-.73,1.23,11.23,11.23,0,0,1-.92,1.09c-1.26,1.26-2.32,2.09-2.73,3a14.11,14.11,0,0,1-1.41,2.44,10,10,0,0,1-1,1.12c-.34.33-.7.65-.85.82a9.85,9.85,0,0,0-1.68,3.06,31.13,31.13,0,0,1-1.76,4,8.44,8.44,0,0,1-.67,1.05,6.54,6.54,0,0,1-.41.51,3.43,3.43,0,0,1-.38.42l-.31.31-.1.15-.14.2a9.38,9.38,0,0,1-.86,1c-.6.59-1.12,1-1.4,1.35a2.86,2.86,0,0,0-.58,1.14l-.16.55-.34.29L28,148.61l-1.81,1.53-1-2.14c-.29-.62-.58-1.24-.87-1.89l3.23.37-1.78,2.42-1.07-3,1.41.35.68.18.34.69.18.38.46.95-.75,1-.75,1L24,147.74a3.53,3.53,0,0,1,1-.27,2.6,2.6,0,0,1,1.77.47,2.65,2.65,0,0,1,.95,1.35,4,4,0,0,1,.19,1L28,151.5l-1.17.6a5.61,5.61,0,0,0-.71.4l-.06,0c.09.08-.22-.21-.25-.25a2.05,2.05,0,0,0-.26-.24l-.18-.12s-.14-.07-.08,0h.07a1.68,1.68,0,0,0,.37.06h.1l.3,0h.17V152l0,.24a6,6,0,0,1,0,.76,6.46,6.46,0,0,1-.25,1.62l-.38,1.44-2.36-.27c-.11,0-.25-.11-.24-.07s0,0,0-.05a.2.2,0,0,0,0,.05v0s0,0,0,0a2,2,0,0,0-.67.78,15.54,15.54,0,0,0-1.39,3.25c-.42,1.24-.79,2.56-1.25,4l-1.15,3.6-2.13-3.08a32.3,32.3,0,0,0-3.37-4.1l2.64-.15a51.3,51.3,0,0,0-3.44,4.76c-.52.82-1,1.65-1.47,2.48S10,169,9.74,169.55c-.16.33-.3.67-.45,1l-.21.51-.1.25-.05.13,0,.06,0,.05c.59.61,1.16,1.19,1.76,1.87A24,24,0,0,1,13,176.37l.37.57-.16.61a4.32,4.32,0,0,1-1.16,1.93,6.76,6.76,0,0,1-1.55,1.12c-.43.24-.73.37-1.1.57a3.94,3.94,0,0,0-1,.66A11.9,11.9,0,0,0,8.1,184c0,.33-.06.77-.12,1.13a5.86,5.86,0,0,1-.21.85l-.07.2.08.2.17.4.35.81a8,8,0,0,0,.47,1c.36.63.67,1.29,1.06,1.9L11,192.33l1.34,1.73c.79.85,1.61,1.78,2.55,2.67l-.1-.13c-.54-.67-1.54-1.83-2.73-3.51-.62-.83-1.22-1.83-1.88-2.92-.3-.56-.58-1.17-.9-1.79a7.75,7.75,0,0,1-.44-1c-.09-.25-.19-.49-.28-.75l-.13-.34-.07-.17.07-.18c.05-.12.09-.25.13-.38l.05-.2s0-.13,0-.26c.07-.42.12-1,.15-1.24a7.68,7.68,0,0,1,.26-1.64,7.85,7.85,0,0,1,1.71-1A7.84,7.84,0,0,0,12.51,180a5.09,5.09,0,0,0,1.39-2.31l.24-.92-.55-.83a27.25,27.25,0,0,0-2.35-3c-.55-.62-1-1.07-1.47-1.6a10,10,0,0,1,.83-1.92l.32-.6.42-.77c.28-.52.58-1,.89-1.54a51.91,51.91,0,0,1,4.26-6l-3.93.22a30.47,30.47,0,0,1,3.25,4l3.11,4.58L20.68,164c.66-2,1.2-4,1.91-5.63a6.45,6.45,0,0,1,1-1.76c0-.08.15.14-.2-.39a1.25,1.25,0,0,1-.2-.36l0-.11s0,0,0,0v-.05h0v.09a1,1,0,0,1,0,.31l0,.07,0,.18a2,2,0,0,1-.1.35c0,.08,0,.06,0,.06h0v0l4.26-1.81a7.61,7.61,0,0,0,.31-1.85,8.24,8.24,0,0,0,0-.88V152s-.12,0-.2,0l-.3,0a5.8,5.8,0,0,1-.59,0l-.52,0c-.7-.05-.52-.15-.28.07a4.45,4.45,0,0,1,.63.6,4.14,4.14,0,0,1,.37.46c.06.08.11.17.22.3s0,0,.05,0l.55-.28,1.88-.88-.17-2.09a4.72,4.72,0,0,0-.22-1.22A3.9,3.9,0,0,0,27.54,147a3.59,3.59,0,0,0-1.4-.66,4.06,4.06,0,0,0-1.2-.09,4.85,4.85,0,0,0-1.41.35l3.81,4.48c.23-.28.46-.55.67-.84l1.2-1.59L28.49,147c-.07-.16-.15-.33-.23-.49l-.58-1.13-1.12-.31L25,144.69l1.81,5,1.86-2.43-5.56-.64c.3.67.59,1.34.88,2l1.63,3.73,3.24-2.65,1.79-1.47.53-.43.36-1.06a1.78,1.78,0,0,1,.19-.41,2.9,2.9,0,0,1,.42-.43c.25-.23.67-.57,1.14-1a8.87,8.87,0,0,0,.71-.77l.33-.43.09-.13c.08-.09.23-.21.34-.32l0,0,.08-.1.17-.19.34-.39a12.2,12.2,0,0,0,1.06-1.59A23.43,23.43,0,0,0,37.83,138a13.29,13.29,0,0,1,1.84-3.66l.22-.21.56-.53a13.24,13.24,0,0,0,1.2-1.32,16.29,16.29,0,0,0,1.62-2.77,8,8,0,0,1,1.6-1.72,17.26,17.26,0,0,0,1.55-1.6,12,12,0,0,0,1.3-2.06c.63-1.21,1.06-2.29,1.47-3.22q.3-.7.57-1.29l.28-.55.14-.24a1.13,1.13,0,0,1,.35-.37,1.37,1.37,0,0,1,.2-.13l.53-.31A9.31,9.31,0,0,0,53,116.76a5.78,5.78,0,0,0,1.74-2.94l-.32.69a2.71,2.71,0,0,1-.67-.41,2.63,2.63,0,0,1,.38.79l2.43-4.68a5.72,5.72,0,0,1-.23-1.12l-2,3.68a7.23,7.23,0,0,0,2.08-1.57,7.13,7.13,0,0,0,1.21-2,13.66,13.66,0,0,0,.65-2.29,4.86,4.86,0,0,1,.29-1l-.78,1a1,1,0,0,0,.32-.23L59.55,105v0a10,10,0,0,1,1.71-2.53l-4.19-.67c.11-.12.14-.11-.06,0a4.75,4.75,0,0,1-.53.25l-.51.19c-.08,0,0,0,0,0l3.74-.73h0l.07,0,0,0h0l2.19,1.9h0l.08-.08.15-.19c.1-.12.18-.26.27-.39l.82-1.32c.24-.39.48-.76.72-1.1a13.38,13.38,0,0,1,1.47-1.82c.13-.14.23-.23.39-.38l.58-.51,1.15-1,2.3-2,.28-.26,0-.08h0l-.14-.14-.28-.3a2.24,2.24,0,0,1-.23-.35,1.85,1.85,0,0,1,0,.83l0,.16.42,0,.5,0a4.6,4.6,0,0,0,.6-.09,4.2,4.2,0,0,0,1.69-.76,4.12,4.12,0,0,0,1.11-1.37c.16-.32.2-.43.23-.5s0,0,0,0L74,91.6h0l.07.07c.06.06.06,0,0,0h0l.07,0,.13-.1.27-.2a2.6,2.6,0,0,1,2.13-.46,9.51,9.51,0,0,1,3.14,1.57l1.85,1.31,1,.71c.15.11.41.28.65.42l.74.44a5.72,5.72,0,0,0,2.76.75,8.1,8.1,0,0,0,1.4-.12l1-.18a1.74,1.74,0,0,1,1,0l.52.19.74.25.68.24.56-.07A8.4,8.4,0,0,0,95,95.81a1.7,1.7,0,0,1,.94-.13l.28,0,.44,0,.88.11a15.08,15.08,0,0,1,3.94.74c1.8.59,3.7,1.32,5.64,1.9s3.72,1.1,5.42,1.71c.85.3,1.66.62,2.42,1,.38.17.77.36,1.09.53a14.11,14.11,0,0,0,1.43.74,11.25,11.25,0,0,0,3.24.72c.93.1,1.75.15,2.34.26a4,4,0,0,1,1.68.77c.62.43,1.29,1,2,1.62.29.23.62.51,1,.81s.85.6,1.3.89c.91.59,1.94,1.13,2.9,1.65a9.76,9.76,0,0,1,2.31,1.63,4.46,4.46,0,0,1,1,1.86c.09.53.15,1.49.24,2.61a13,13,0,0,0,.84,3.69l.08.2,0,.11.07.21.12.4c.08.25.15.48.2.68a2.85,2.85,0,0,0,.3.79,8,8,0,0,1,1.18,1.7,3.12,3.12,0,0,1,.23.67c.07.31.13.64.22,1.06a8.59,8.59,0,0,0,2.3,4.37,13,13,0,0,0,3.13,2.29c1.18.65,2.45,1.2,3.52,1.83.26.15.65.35,1.06.6a4.29,4.29,0,0,1,.42.28l.5.34,1,.75a30.5,30.5,0,0,1,4,3.36l1.89,2.09c.73.84,1.41,1.69,2.07,2.53l3.62,4.66.22-.14.22-.32.43-.65.81-1.25c.53-.83,1.06-1.66,1.58-2.49s1.07-1.75,1.62-2.65a11.71,11.71,0,0,1,.88-1.29l.14-.16.25-.28A3.7,3.7,0,0,0,169,138a17.3,17.3,0,0,0,1.93-5.06,10.17,10.17,0,0,1,2-3.94,13.63,13.63,0,0,1,5-3.48c.92-.43,1.81-.79,2.74-1.17l.18-.07.09,0,.18-.06a2.15,2.15,0,0,1,.4-.09,7,7,0,0,1,1-.1c1.48,0,3.17.18,5.07.1a10.57,10.57,0,0,0,1.64-.2,8.69,8.69,0,0,0,1.67-.5l.78-.39c.24-.15.47-.33.71-.5a5,5,0,0,0,.62-.6,5.17,5.17,0,0,0,.59-.65l1-1.31,1-1.19c.67-.8,1.38-1.59,2.16-2.38a26.29,26.29,0,0,1,2.61-2.34c.49-.37,1-.75,1.57-1.1l.52-.34c.2-.13.38-.27.57-.4.36-.28.72-.57,1.05-.86s.92-.82,1.74-1.58a12.18,12.18,0,0,1,2.9-2.16,11,11,0,0,1,2.08-.65c.43-.11.89-.22,1.37-.36l.71-.21.58-.19a24.23,24.23,0,0,1,2.37-.61l2.92-.6a6.53,6.53,0,0,0,2-2c.25-.38.47-.76.68-1.14l.46-.92c.56-1.15,1-2,1.39-2.68a8.9,8.9,0,0,1,.57-.78,2.39,2.39,0,0,1,.4-.39,2.94,2.94,0,0,1,.39-.27,3.83,3.83,0,0,1,.43-.17l.86-.29.13-.93a2.52,2.52,0,0,1,.38-1.14,8.41,8.41,0,0,1,1-1.14,15,15,0,0,1,2.43-2c.9-.63,1.85-1.23,2.78-1.92.46-.33.94-.74,1.33-1.07s.76-.62,1.14-.88A8.7,8.7,0,0,1,237.43,86a13.22,13.22,0,0,1,1.31-.35l.69-.13c.31-.06.59-.13.86-.21,1.07-.32,2-.72,2.82-1a5.5,5.5,0,0,1,2.19-.44h.29a4.71,4.71,0,0,1,3.76,1.32c1.13.94,2.44,2.5,3.23,3.19.15.08.13.26.15.4a3.8,3.8,0,0,1,.05.46,6.91,6.91,0,0,1,0,.91,4.78,4.78,0,0,1-.13.88,6.4,6.4,0,0,1-.31,1A34,34,0,0,1,250,96.29l2.71-.79a3.43,3.43,0,0,0-.74-.35,2.69,2.69,0,0,0-2.17.35,3.55,3.55,0,0,0-.9.86c-.34.44-.52.68-.6.76l.18-.12a5.86,5.86,0,0,0-2.26,2.64l1.92-1a3.86,3.86,0,0,0-1.78.08,4.29,4.29,0,0,0-1.42.76,7.44,7.44,0,0,0-.94.91l-.36.46-.28.36a2.57,2.57,0,0,1-.5.59,2.86,2.86,0,0,1-.68.39,4.74,4.74,0,0,0-2.43,2l0,.07,0,0a3.85,3.85,0,0,1-.91,1.11,10.44,10.44,0,0,1-1.52,1.11,13,13,0,0,1-3.49,1.56l-.67.16c-.21.08-.41.18-.62.27a36.2,36.2,0,0,1-4.75,1.44,12,12,0,0,0-2.78,1.18,7.45,7.45,0,0,0-2.39,2.35,11.71,11.71,0,0,1-4.1,3.64l.14-.06a4.77,4.77,0,0,0-1.74,1.08,5.8,5.8,0,0,0-1.07,1.45l-.28.54-.18.37a2.07,2.07,0,0,1-.41.69l-1.17.49a10,10,0,0,0-2,1.13,8.14,8.14,0,0,0-1.68,1.69c-.44.57-.79,1.13-1.12,1.63-.71,1.08-1,1.59-1.77,2a5.24,5.24,0,0,1-.53.25l-.69.24c-.49.15-1,.29-1.62.44l-.89.26-.79.18c-.57.12-1.19.23-2,.47a7.11,7.11,0,0,0-2,1,5.52,5.52,0,0,0-1.43,1.62,7.35,7.35,0,0,1-2.72,2.05l-.18.08-.19.09-.5.22c-.34.14-.65.3-1,.45-.64.3-1.25.63-1.83,1-2.36,1.29-4.39,2.62-6.38,3.76a29,29,0,0,1-5.94,2.71c-.78.22-2,.32-3.59.74a8.5,8.5,0,0,0-2.63,1.23,6.41,6.41,0,0,0-2.19,2.91l.1-.26a7.51,7.51,0,0,0-.4,1l-.13.51c0,.21,0,.18,0,.24a4.75,4.75,0,0,1-.14.54,1.38,1.38,0,0,1-.84.76l-.19.1-.57.34-.31.16a1.83,1.83,0,0,1-.63.16c-.22,0-.35,0-.71-.1s-1.09-.16-1.85-.21a7.68,7.68,0,0,0-6.68,2.79c-.41.46-.68.85-.93,1.17s-.44.55-.73.87c-.57.65-1.35,1.41-2.29,2.29s-2,1.88-3.08,3.06L150,162c-.15.18-.33.34-.49.51a9.88,9.88,0,0,1-1.14.91,8.64,8.64,0,0,0,.46-.91,17.08,17.08,0,0,1-2.15,1.41c-.9.52-1.93,1-2.64,1.43-1.45.79-1.18.47-.88.13.58-.66,1.14-1.35-1.47-.06l-.13.07a.37.37,0,0,1-.18,0h-.08l-.18,0-.45.08a6.88,6.88,0,0,0-2.69,1.17,6.77,6.77,0,0,0-1.1,1,7.54,7.54,0,0,0-.69.91l-.26.41-.17.3c-.12.2-.22.42-.33.63a12.88,12.88,0,0,0-.52,1.29c-.08.22-.14.44-.19.61l0,0a.56.56,0,0,1-.09.13l-.19,0h0l-.28.12-.57.25c-.41.2-.81.4-1.19.61a24.78,24.78,0,0,0-2.17,1.35,24.13,24.13,0,0,0-2,1.56c-.34.28-.65.57-1,.92l-.29.29-.14.14,0,0,0,0h0l3,2.68,0,0c.05.06.08.13.08.12s0,0,0-.06h0l-1.61-3.82,0,0-.06-.05-.14-.1c-.08-.11-.19-.06-.3,0s-.42.08-.62.12a5.83,5.83,0,0,0-1.07.37,6.23,6.23,0,0,0-1.77,1.09,7.24,7.24,0,0,0-2.25,3.82,12.91,12.91,0,0,0-.32,2.36l-.06,1.59a3.32,3.32,0,0,1-.31,1.1c-.21.53-.58,1.23-1,2.16a15.52,15.52,0,0,0-1.21,3.45c-.07.33-.13.67-.17,1s-.08.71-.09.94c0,.52,0,1.07,0,1.64a18.74,18.74,0,0,0,.4,3.24l.2.3.1.16c0,.07,0,0,.08.06a.58.58,0,0,1,.29.23,1.6,1.6,0,0,1,0,.38c0,.19-.19.64-.36,1.14-.09.26-.18.55-.28.88a11.07,11.07,0,0,0-.3,1.2,8.67,8.67,0,0,0-.12,1.24c0,.42,0,.69,0,1a1.62,1.62,0,0,0,.67,1,1.17,1.17,0,0,1,.57.59c.37,0,.81.76,1.09,1.53a3.58,3.58,0,0,1,.1,1.61,7,7,0,0,0,0,1.93,1.4,1.4,0,0,0,.65,1c.23.13.41.05.53-.32a5.19,5.19,0,0,1,.26-.9c.11-.28.29-.63.52-1.09a6.72,6.72,0,0,0,.65-1.8,17,17,0,0,0,.15-2.71c0-.43,0-.85,0-1.24a3.69,3.69,0,0,1,.19-1c.21-.63.65-1.43,1-2.42a6.38,6.38,0,0,0,.41-3.2,11.06,11.06,0,0,1-.1-2.27c.07-.47.2-.21.39.26l.37.84c.07.16.15.32.22.47s.14.27.24.53.11.29.15.41c0-.16,0-.31-.06-.42s-.07-.42-.11-.63,0-.32-.07-.47c0-.3-.06-.56-.07-.8a6.62,6.62,0,0,1,0-1.21,3.45,3.45,0,0,1,.16-.83.77.77,0,0,1,.17-.33c.11-.14.2-.1.27.05a2.62,2.62,0,0,1,.19.9l0-.45c0-.09,0-.18,0-.26s.09-.34.15-.49a5.86,5.86,0,0,1,.23-.54,2.7,2.7,0,0,0,.28,1,7.19,7.19,0,0,1,.73-1.52c.39-.68,1-1.6,1.53-2.81a13.4,13.4,0,0,0,.74-2c.09-.37.19-.74.25-1.13l.09-.57,0,.15h0v0a1.06,1.06,0,0,1,.15-.34c.07-.11.25-.08.36,0H132l.15-.05h0l.1,0,.2-.1.4-.2a6.19,6.19,0,0,0,.75-.51,4.61,4.61,0,0,0,.6-.53l.23-.23,0,0c.12-.11.43-.38.7-.59a15,15,0,0,1,1.8-1.23c.3-.17.61-.34.9-.47s.27-.13.46-.2l.77-.3,2.89-2.94,2.84-3.07a4.41,4.41,0,0,1,.05-.82l0-.16.08-.16.05-.06,0,0-1.58-.89-.29-.18a5.17,5.17,0,0,1-1.27-1s-.06-.09,0,0l.05.11a.5.5,0,0,1,.05.13l.08.24.09.33,0,.17.1.41c.06.28.12.56.16.85l.07.43v.12l.09.49.08.49c0,.09,0,0,0,.05h0l.14,0c.27,0,.53-.07.79-.12a8.7,8.7,0,0,0,3-1.11l.65-.4.41-.23.88-.49,1.95-1.08a26.77,26.77,0,0,0,4.45-3c.38-.32.75-.68,1.11-1,.19-.18.36-.39.54-.58l.36-.4a13.61,13.61,0,0,1,1.08-1.11c.84-.81,1.92-1.72,3.09-2.85a22,22,0,0,0,2.6-2.93l.17-.22.09-.14.18-.29s0,0,0-.06a.23.23,0,0,1,0-.12.27.27,0,0,1,.09-.12c.08,0-.06-.07.44,0l.41,0,.73.08a8.81,8.81,0,0,0,1.54,0,8,8,0,0,0,2.78-.72,15.34,15.34,0,0,0,1.8-.95l.71-.44,1-.65a8.69,8.69,0,0,0,2-1.72,7.13,7.13,0,0,0,1.28-2.27,10.87,10.87,0,0,0,.5-2.35h0l-.18,0-.45-.09-.6-.15-.32-.11.54-.16-.15,0c-.53-.24-.35-.23-.12.06l.14.17c.08.09.14.18.2.26l.14.22c0,.08,0,0,0,0a.74.74,0,0,1,.08-.76c.46-.13,1.24-.26,2.33-.49.28-.06.58-.12.92-.22a10.28,10.28,0,0,0,1-.32c.57-.21,1.15-.42,1.71-.67a48.27,48.27,0,0,0,6.54-3.55c2.06-1.28,4-2.5,5.83-3.43.45-.21.91-.44,1.35-.63l.47-.21.55-.27c.32-.16.64-.34,1-.53a12.58,12.58,0,0,0,3.68-3.25.86.86,0,0,1,.36-.37l.23-.1.12,0,.4-.1,1-.24.6-.15.56-.17,1.47-.49a11.42,11.42,0,0,0,2.81-1.31c.7-.49.91-.84.7-.9a7.67,7.67,0,0,0,2-1.88c.28-.39.42-.6.6-.86l.45-.69.68-1.08a6.75,6.75,0,0,1,.47-.64,3.54,3.54,0,0,1,1-.81c.13-.09.82-.42,1.31-.65l1.52-.76a15.19,15.19,0,0,0,.84-1.6c.13-.27.25-.56.37-.85l.27-.67.18-.42s0,0,0,0a.28.28,0,0,0-.06-.08l0,.05s0,0,0,0l.21-.08a13,13,0,0,0,3-2.1,19,19,0,0,0,2.69-3c.08-.11.16-.25.28-.44a3.88,3.88,0,0,1,2.3-1.61c.65-.24,1.44-.45,2.38-.71.47-.13,1-.28,1.53-.46l.86-.31.45-.19c.15-.07.32-.14.4-.19l.25-.13a2,2,0,0,0,.28-.06,16.36,16.36,0,0,0,4.25-1.83,15.34,15.34,0,0,0,2.15-1.5,8.07,8.07,0,0,0,2.29-2.82l-.6-.12-.05,0,.07,0,.18.19.15.18,0,0h0a2.66,2.66,0,0,1,.52-.26,5.84,5.84,0,0,0,2.75-2.09c.3-.39.37-.48.53-.67a3.43,3.43,0,0,1,.36-.38l.16-.12c.08.09-.15-.28-.17-.38-.11-.3,0-.2-.1.41l-1.57,7.3,4.31-8.67a1.57,1.57,0,0,1,.64-.73l.19-.12.05,0a8.34,8.34,0,0,0,1.29-1.35l.06-.07,0,0h0l-.15-.15-.34-.38-.21-.26-.1-.14-.06-.09a1.45,1.45,0,0,1-.1-.18c-.17-.38.1-.13-.39.64l3-.28A49.74,49.74,0,0,0,256,93.73a11.12,11.12,0,0,0,.46-1.54c0-.14,0-.28.08-.42l.08-.49c0-.32.06-.63.07-1a11.35,11.35,0,0,0-.1-1.93c-.05-.32-.09-.64-.15-1a2.5,2.5,0,0,0-.24-.93c-.47-.41-1-.86-1.53-1.36l-.38-.36-.27-.28-.57-.57a15.91,15.91,0,0,0-3.39-2.71,8.08,8.08,0,0,0-4.89-1h.49a8.59,8.59,0,0,0-3.39.49c-.91.31-1.68.63-2.37.87a10.48,10.48,0,0,1-2.1.5A15.18,15.18,0,0,0,235,83a13.74,13.74,0,0,0-2.54,1.48c-.38.28-.73.56-1.09.86s-.56.46-.86.68c-1.15.88-2.57,1.7-4,2.82a17.13,17.13,0,0,0-2.44,2.3,7.74,7.74,0,0,0-1.17,1.69,6.51,6.51,0,0,0-.61,2.13l1.52-1.88a6.7,6.7,0,0,0-2.44,1.47,6.17,6.17,0,0,0-.5.53l-.37.46c-.24.3-.47.65-.67,1-.75,1.22-1.24,2.35-1.76,3.27a6.24,6.24,0,0,1-.56.91,4.16,4.16,0,0,1-.32.39c-.13.1-.23.27-.4.26l-1.3.23c-.69.13-1.41.26-2.14.43l-1.09.28-1,.28c-.57.15-1.17.27-1.88.43a12.34,12.34,0,0,0-2.32.7,11.5,11.5,0,0,0-2.19,1.2c-1.29.91-2.3,1.88-3.25,2.65a12.52,12.52,0,0,1-1.36,1c-.34.22-1.11.62-1.69,1a26.37,26.37,0,0,0-3.43,2.56,38.83,38.83,0,0,0-2.94,2.94c-.45.51-.89,1-1.31,1.53L189.76,118a2.4,2.4,0,0,1-1.19.89,5.14,5.14,0,0,1-1.71.23c-1.52,0-3.26-.2-5.38,0a11,11,0,0,0-1.68.3l-.87.3-.59.24c-.79.31-1.62.65-2.45,1a22.41,22.41,0,0,0-4.93,2.86,15.11,15.11,0,0,0-3.88,4.58,15.63,15.63,0,0,0-1.18,2.73c-.3.88-.52,1.67-.76,2.33a8.56,8.56,0,0,1-.37.89,4.28,4.28,0,0,1-.38.61,8.38,8.38,0,0,0-1,1.18c-.26.37-.49.76-.72,1.14l-.35.57-.18.28-.1.13c0,.05-.07-.06-.1-.09-.4-.54-.82-1.06-1.25-1.56l-.66-.74-.33-.36-.57-.59c-1.78-1.81-3.65-3.53-5.58-5.15l-.73-.6c-.3-.22-.61-.47-.92-.68a18.32,18.32,0,0,0-1.85-1.1c-1.21-.62-2.35-1.1-3.27-1.59a5.51,5.51,0,0,1-1.93-1.5c-.1-.13-.16-.27-.25-.4s-.13-.3-.18-.48l-.07-.27a1.75,1.75,0,0,1-.08-.33l-.19-.93A29.1,29.1,0,0,0,143,118c-.13-.33-.26-.67-.41-1l-.4-.86a6,6,0,0,1-.41-1.26,35.39,35.39,0,0,0-.9-3.87,6.66,6.66,0,0,0-.54-1.22,9.63,9.63,0,0,0-.64-1.06,9.38,9.38,0,0,0-1.71-1.9,15,15,0,0,0-3.87-2.26,22.77,22.77,0,0,1-3-1.5,22,22,0,0,1-2.62-2.14,13.37,13.37,0,0,0-1.9-1.38,8.26,8.26,0,0,0-2.6-1c-1.5-.26-2.68-.26-3.6-.4a5.64,5.64,0,0,1-1.11-.27,2.45,2.45,0,0,1-.46-.23c-.29-.15-.67-.36-1-.49a43.84,43.84,0,0,0-7.15-2.49c-2.38-.64-4.44-1.26-6.79-2.08-1.16-.4-2.39-.8-3.67-1.13-.64-.17-1.3-.31-2-.43-.34-.06-.68-.12-1-.16l-.53-.07-.66-.06a5.13,5.13,0,0,0-2.54.35,12.2,12.2,0,0,1-1.32.51l1.12.15L92,91.29c-.28-.09-.56-.19-.84-.26l-.42-.11a3.15,3.15,0,0,0-.44,0,8.37,8.37,0,0,0-1.73.15l-.43.08-.22,0-.36.08a2.09,2.09,0,0,1-1.45-.2c-.23-.13-.4-.23-.68-.41l-1-.67c-1-.72-2.09-1.52-3.33-2.26a10.32,10.32,0,0,0-4.51-1.59,7.53,7.53,0,0,0-4.91,1.41l-.5.35a5.68,5.68,0,0,0-.59.54,4.92,4.92,0,0,0-.85,1.29l-.1.2,0,.06h0l.14.09.44.28.19.16.06.07,0,0a.92.92,0,0,0-.07-.13l-.07-.19a3.88,3.88,0,0,1-.15-.61H70l.27,0a4.27,4.27,0,0,0-2.19.28,4.36,4.36,0,0,0-1.66,1.31l.2-.22-2.22,1.87-1.11.94-.55.47c-.19.16-.44.37-.63.55a24.52,24.52,0,0,0-3.86,5l-.11.17-.07.07,0,0-.16.2h0l3.08.5a4.16,4.16,0,0,0-1.2-2L58.45,97.7,57.35,99a14.55,14.55,0,0,0-2.67,4l.69-.79c-.42.29-.84.59-1.24.9l-.19.15-.16.31a13.8,13.8,0,0,0-1,3.2c-.24.84-.37,1-.89,1.32l-1,.57.09,1a10.64,10.64,0,0,0,.48,2.24l1-2a4.66,4.66,0,0,0-1.69.94,4.58,4.58,0,0,0-1.14,1.55l-.07.15,0,.15a.78.78,0,0,1-.26.36,6.57,6.57,0,0,1-.91.63,13.76,13.76,0,0,0-1.39.92,4.41,4.41,0,0,0-1.14,1.33c-.18.3-.37.64-.5.91s-.27.55-.39.82c-.25.54-.47,1.07-.68,1.59-.44,1.06-.82,2-1.32,3a7.86,7.86,0,0,1-1.82,2.2,10.23,10.23,0,0,0-2.41,3,10.48,10.48,0,0,1-1.17,2.08,9,9,0,0,1-.8.86,9.84,9.84,0,0,0-1.06,1.12,20.15,20.15,0,0,0-2.54,5.22,14.88,14.88,0,0,1-1.06,2.23,6.2,6.2,0,0,1-1.11,1.39,3.44,3.44,0,0,0-.27.27l-.23.35a11.42,11.42,0,0,1-1.71,1.75,6.16,6.16,0,0,0-1.74,2.9l.37-.62L26,146.11l2.07.45c-.26-.55-.51-1.11-.76-1.65l-1-2.15L25,144.64l-1.7,2.28L22,148.58l2,.5,1,.25-.74-.62a.36.36,0,0,0,0,.09l.21-1.4-1,1.37L21,152.2l4.25-1.47.09,0h0c0-.1,0-.21,0-.29,0-.37.08-.54,0-.47a.72.72,0,0,1-.21.17,1.67,1.67,0,0,1-.23.11l-.14.06-.08,0h0s0,.09,0,.18l.75-1.32a8.54,8.54,0,0,0-1.19.69,3.16,3.16,0,0,0-.72.68,2.36,2.36,0,0,0-.45,1.26c0,.7.06.9,0,1.17a3.74,3.74,0,0,1-.13.78l2-.82a5.52,5.52,0,0,0-1.1-.4,3.16,3.16,0,0,0-1.3,0,3.35,3.35,0,0,0-1.2.47,5.56,5.56,0,0,0-.86.72,10.46,10.46,0,0,0-1.82,3.1c-.82,2.05-1.33,4.09-1.93,6l2.45-.39A35.55,35.55,0,0,0,15.42,158l-1.11-1.11-1,1.23a55.56,55.56,0,0,0-4.4,6.41c-.33.56-.64,1.12-.95,1.69l-.45.86-.47.95c-.32.71-.65,1.43-.94,2.15l-.43,1.09-.21.55-.11.28c0,.09-.08.18,0,.25,1.06,1.06,2.17,2.14,3.17,3.19a22.12,22.12,0,0,1,2.09,2.56l-.22-1.24a1.4,1.4,0,0,1-.4.66,4.39,4.39,0,0,1-.93.67c-.48.28-1.14.62-1.67,1a9.68,9.68,0,0,0-1.52,1.16,15.24,15.24,0,0,0-.45,3.16c0,.57-.06.88-.12,1.25,0,.14,0,.47-.08.71s-.08.51-.12.76l-.07.32.08.33.15.65.62,1.44A10.38,10.38,0,0,0,6.44,190c.43.74.78,1.53,1.27,2.23a35.77,35.77,0,0,0,3,4.08,57.84,57.84,0,0,0,7.06,6.8c2.45,2.05,4.91,4,7.15,5.94.57.49,1.11,1,1.64,1.5s1,1,1.53,1.56c1,1.05,1.82,2.13,2.78,3.37,3.71,4.76,7.64,9.5,12.63,13a36.57,36.57,0,0,0,7.88,4.22l2,.73c.61.21,1.23.43,1.83.66,1.21.47,2.39,1,3.54,1.52l1.62.78L61.66,235h0l-3.41.29,0,0,.22.19.32.16c.82.39,1.63.8,2.41,1.23s1.36.76,2.68,1.56l3.13.62-2-2.46a2.53,2.53,0,0,0,0,.35v.09h0L66,237l.89-.11h.35l.42,0,.29.24a2.81,2.81,0,0,1,.38.34l.56.57.61.63h0l.05-.06a3,3,0,0,0,.64-.88l-2.91,1.41c.61.11,1.3.23,1.85.28.24,0,.55,0,.8,0h.57a9.72,9.72,0,0,1,1.43.09l.27.07c.07,0,.17,0,.21.1l.1.22c.06.16.12.31.17.47.09.31.19.61.28.92,0,.08.16.49.27.81s.3.76.5,1.16a9.76,9.76,0,0,0,1.44,2.24l.8.46c.13.07.27.17.37.23l.19.14c.25.19.5.4.75.62l4.62,4v-6.19c0-.41,0-.81,0-1.21l-.08-.76c0-.3-.1-.6-.16-.89s-.15-.57-.23-.85l-.12-.4c0-.12-.16-.34.07-.26a10.3,10.3,0,0,0,1.47,0l.69-.06c.25,0,.38,0,.81-.11l.77-.14c.25,0,.46-.08.87-.18a12.78,12.78,0,0,0,1.83-.64l1.24-.54.23-.09.14,0,.3-.07a1.82,1.82,0,0,1,.57,0c.13,0,.48.08.91.16s.92.19,1.52.26a8.35,8.35,0,0,0,2,0,14.3,14.3,0,0,0,4.52-1.45c1.26-.62,2.33-1.27,3.28-1.84.48-.27.93-.53,1.36-.76a4.57,4.57,0,0,1,.91-.37,7.78,7.78,0,0,1,1.1-.25l.62-.09.8-.08a7.47,7.47,0,0,0,3.89-1.52c.62-.46.93-.74,1.23-1a6.4,6.4,0,0,1,.66-.51l.21-.15.22-.1.8-.32.6-.25a7.05,7.05,0,0,0,.73-.36,8.22,8.22,0,0,0,1.33-.91l.46-.37.39-.28c.25-.17.49-.32.71-.44a5.09,5.09,0,0,1,.62-.27c.62-.17,1.27-.29,1.88-.41a5.46,5.46,0,0,0,.68-.68c.21-.25.43-.48.63-.73a13.08,13.08,0,0,0,1.09-1.45,12.21,12.21,0,0,0,1.35-3.23,14.48,14.48,0,0,0,.44-3.06A21.42,21.42,0,0,0,124.6,212.56Z"/></g><path class="cls-3" d="M126.62,188.86c2.54.77,5.4.72,7.44-1.21l-.63-.13C131.08,186.91,128.77,188,126.62,188.86Z"/><g class="cls-4"><path class="cls-5" d="M125.48,185.9c.85,1.13,2.37.69,3.23,1a2.13,2.13,0,0,1,.72.2c.16.1-.16,0-.72-.2a5.94,5.94,0,0,0-.78,0,13.84,13.84,0,0,1,1.39,1.24,3,3,0,0,1,.52,0,4.2,4.2,0,0,1,2.1.26c.24.13.7.21.85.54a5.61,5.61,0,0,0-2.72-.2l.11.08a6.06,6.06,0,0,1,1.52.35.34.34,0,0,1,.22.1l-.22-.1c-.19,0-.36.16-.57.22s-.34-.2-.49-.19-.3-.24-.46-.38l-.26,0a.18.18,0,0,1,0,.07h0a7,7,0,0,0,1.45,1.5c.5.45.72.81.79.7s.3-1.07.55-1.13c.08,0,.08.24.19,0a.78.78,0,0,1,.17-.34c.23,0,.35.51.59.21L132.53,186l0,0c0,.21-1.6-1.48-1.31-1.16,1,1.27.26.35.09.29s.31.54.24.51c-.3-.28,0,.18-.06.42,0,.54-.41-.36-.21.65a2.75,2.75,0,0,1-.05.46c0,.2-.09.39-.09.39-.32-.06-.42.76-.82-.31-.19,1-.68-.12-1,0s-.41-.64-.55-1.34c-.05-.12-.11-.06-.11-.27s-.2.37-.25.25l.09-.43-.05-.15a.8.8,0,0,1,.05-.33,5.27,5.27,0,0,0,.13-.78,2.75,2.75,0,0,0-.1-.61l-.4.66c-.06.19-.13.38-.17.53l-.17.3-.36,1.14c-.33,1.18-.84,2.28-1.13,3.36-.08.32.14.5.11,1.09a6.88,6.88,0,0,1-.33,1c.17,0,.06.5-.12.87l.07.09-.19.55c.32.65.72,1.8,1.34,1.35a2.13,2.13,0,0,0,.51-.55c.07-.1.18.17.22.22a10.16,10.16,0,0,0,.25-1.29c.29.48,1.12,1.27,1.13-.29.28.08.34-.66.62-.73s.84-.27,1.3-.41a2.39,2.39,0,0,1,.73-.23l.26-.09c.67-.25,1.32-.4,2-.61a3.76,3.76,0,0,0,1.69-1l3.92-4.47-5.23-.09a3.53,3.53,0,0,0-1.11.29,12.24,12.24,0,0,1-2.67.77,8.42,8.42,0,0,1-2.3,0,18.91,18.91,0,0,1-3.06-.76Z"/></g><path class="cls-3" d="M139.16,190.2c-1.28.2-.74,2.26.46,2S140.35,189.88,139.16,190.2Z"/><g class="cls-4"><path class="cls-5" d="M138.5,187.1a3.54,3.54,0,0,0,.73.72,10,10,0,0,1,.92.63,1.64,1.64,0,0,1,.76,1.4.85.85,0,0,1-.13.57c-.1.11,0-.07.13-.57a1.6,1.6,0,0,0-.24-.64,2.41,2.41,0,0,1-.77,1.52.43.43,0,0,1,0,.19.85.85,0,0,1-.18.3.23.23,0,0,1-.14.07s-.19,0-.1,0,.1.06.09,0-.07-.06-.22-.07-.2,0-.13,0a.18.18,0,0,0,.09-.06l-.09,0c-.15.07-.06,0,0,0a.47.47,0,0,1,.2,0l.08,0-.08,0a.41.41,0,0,0-.19,0h-.06l.08,0,.08,0,0,0h0c-.1.06-.15.05,0,0a.64.64,0,0,1,.33.06c.05,0,0,0,0,0a.21.21,0,0,1,0-.06v0a1,1,0,0,1-.07-.24v0l-.06.12a.53.53,0,0,1,0,.13v.11s0,0,0,0l.09-.13.11-.09.11-.06a.42.42,0,0,1-.23,0,.45.45,0,0,1-.21-.07h0s0,.06,0,.08a1.2,1.2,0,0,0,.08.15v0l0,0v0h0s0,.13-.06-.29c-.12-.58-.24-1.14-.35-1.69-.08-.32-.27-.39-.55-.91a6.29,6.29,0,0,1-.24-1c-.16.05-.34-.39-.39-.79l-.11,0-.15-.56-.29-.14-.43-.08a4,4,0,0,0-.92,0,1.6,1.6,0,0,0-1.39,1,2.3,2.3,0,0,0,0,1c0,.15-.32.25-.4.32a4.32,4.32,0,0,0,1.07.76,1.88,1.88,0,0,0-.9.84c-.12.34,0,.65.82.72-.11.36.62.43.7.71a8.6,8.6,0,0,0,.51,1.12,2.42,2.42,0,0,1,.36.56l.16.19a5.28,5.28,0,0,0,1.46,1.34,2.54,2.54,0,0,0,2,.27l-.19,0a2,2,0,0,0,.66-.35,2,2,0,0,0,.53-.7,5.93,5.93,0,0,0,.4-2.48,9.45,9.45,0,0,0-.07-1.88,3.45,3.45,0,0,0-1.35-2.09,4,4,0,0,0-1-.56,2.42,2.42,0,0,0-.57-.21A4.49,4.49,0,0,0,138.5,187.1Z"/></g></g></g></g></g></svg>