<svg xmlns="http://www.w3.org/2000/svg" viewBox="0 0 237.87 247.23"><defs><style>.cls-1{isolation:isolate;}.cls-2{mix-blend-mode:multiply;}.cls-3{fill:#00aeef;}.cls-4{opacity:0.8;}.cls-5{fill:#2babe2;}.cls-6{fill:none;}</style></defs><g class="cls-1"><g id="Layer_2" data-name="Layer 2"><g id="Layer_1-2" data-name="Layer 1"><g class="cls-2"><path class="cls-3" d="M166.08,120.71c1-.1,1.23,1.62.18,1.7S165.05,120.77,166.08,120.71Z"/><g class="cls-4"><path class="cls-5" d="M166.15,121.63a.45.45,0,0,0,0-.17.84.84,0,0,0,0-.1.61.61,0,0,0,.19.1l.08,0h-.09c-.22,0,.26,0,0,0a.41.41,0,0,1-.15-.07l0,0h0l-.12,0a3.44,3.44,0,0,0-1-.21l-.21.22a2.55,2.55,0,0,0-.31,1.57c0,.31.4.73.57,1.2a2.42,2.42,0,0,1-1.1-1.41,2.48,2.48,0,0,1,0-1.35l-.14.06a2.68,2.68,0,0,0-.34,1.78,1,1,0,0,1,.08.38,1.84,1.84,0,0,1-.08-.38c-.13-.27-.41-.44-.54-.74s.24-.46.26-.63.39-.3.62-.41a1.43,1.43,0,0,1,.14-.2.23.23,0,0,1-.07-.07h0a2.45,2.45,0,0,0-2.2,1.74,3.17,3.17,0,0,0-.08,1.75,1.7,1.7,0,0,0,.64,1.06c.68.38,1.88-.34,2.45-.28.2,0,.28.4.51.16a1.48,1.48,0,0,1,.27-.44c.18,0,.31.16.48.27s.32.14.43-.16c.08-.12.29.59.6,1.23s.67,1.21.62.92c-.3-2.13-.17-.52.59-.58.11,0,0-.9.17-.87.7.24.52-.52.76-1,.07-.52.3-.56.52-.7s.33-.34-.14-.9a5.42,5.42,0,0,0-.35-.62,3.63,3.63,0,0,0-.34-.43c.15-.2-.06-.39-.1-.54s.06-.24.79-.48c-.67-.15-.64-.31-.51-.58s.33-.64.09-.81c-.44-.28.35-1,.42-2.24-.08-.25-.27-.28-.21-.59s-.68.17-.8,0l.33-.48a2.44,2.44,0,0,0-.23-.33c-.06-.08,0-.25.15-.42a1.54,1.54,0,0,0,.36-1A3.36,3.36,0,0,0,168,113.6a4.33,4.33,0,0,0-.83.32,5.84,5.84,0,0,0-.64.47,4.71,4.71,0,0,1-.13.74c-.1.14-.2.29-.29.44-.05.57,0,1.2,0,1.59,0,.82,0,1.63,0,2.42q0,.58.06,1.17l0,.57,0,.28v.27l0-.28v-.07s0,0,0,0v0h0c0-.08,0-.08,0-.06s0,0,0,0v0h0a1,1,0,0,1-.14.1l-.07,0s0,0,0,0h.15c.18,0,.23.16.17,0l0-.1a.28.28,0,0,1,0-.09v0h0v.09h0a.53.53,0,0,1,0,.12v0a.56.56,0,0,1,.28-.22c.11,0,0,0-.18,0a.42.42,0,0,1-.2-.11.19.19,0,0,1,0,.08s0,.1,0,.13Z"/></g><path class="cls-3" d="M230.63,158.65q.17.91.24,1.83a5,5,0,0,1-2.06-1.21l.94-.36A3.42,3.42,0,0,1,230.63,158.65Z"/><g class="cls-4"><path class="cls-5" d="M231.53,162.78a11.52,11.52,0,0,0-.71-1.68l-.24-.46a.36.36,0,0,0-.18-.19l-.22-.2a1.79,1.79,0,0,1-.44-.43c-.11-.14.07,0,.44.43.11.09.32.14.36.28-.08-.18-.16-.35-.25-.52s-.21-.33-.31-.48l-.55-.9-.25-.09c-.26-.11-.47-.12-.71-.23l-.66-.31.27,2a2.5,2.5,0,0,1,0,.49c0,.24.2.48.1.88a6.34,6.34,0,0,1-.58-.91l-1.51-2.93,2.15.18.58.06-.08-.12-.68-.45-1.47-1,.62,4.65,0,.26a.4.4,0,0,1,0,.24l0-.24a.42.42,0,0,0-.2-.1l-.69-.2L228,157a.5.5,0,0,1,.1-.18c.07,0,.23.27.3.29a4.37,4.37,0,0,1,.36.55l.14.08a.11.11,0,0,1,0-.08h0a17.23,17.23,0,0,0-1.51-2.44l-.88-1.24-.78,8.37c-.05.59.06,1,.23,1,.32,0,1.25-.86,1.5-.85.09,0,0,.31.16.11a3.16,3.16,0,0,1,.32-.37c.16,0-.1.68.3.24.16-.18-1.17,2.67-.86,2.18,1.08-1.84.29-.5.39-.24,0,.06.46-.68.46-.58-.09.55.27-.08.52-.23.48-.53,0,.74.72-.44l.64-.85c0,.08.11,0,.18,0l2.71-1.85-.22-.12c-.17-.09-.37-.15.65-.35-1.32,0,.19-.41-.08-.56s.78-.36,1.67-.66c.13-.07,0-.09.31-.16s-.54,0-.4-.09l.58-.08.18-.09a3.12,3.12,0,0,1,.42-.08,7.82,7.82,0,0,0,1.05-.18,3.45,3.45,0,0,0,.72-.35c-.3,0-.63-.05-1-.06l-.74.12h-.43l-1.58.27c-1.61.29-3.19.51-4.65.8-.43.09-.56.2-1.32.37-.23.05-.76.12-1.33.22a6.09,6.09,0,0,1-1.14.23l-.09,0-.76.13c-.7.22-2.08.53-1.35.5.1,0,.53,0,.82-.05s-.18.06-.23.08l1.72-.22c-.56.15-1.55.42.51.17-.08.07.88,0,1,0a1.2,1.2,0,0,1,.41.29c.09,0,.12.07.12.11l4-3.18,0,0h-.06c-.18,0-.16-.34-.14-.53s0-.22-.53.37-.81.66-1,.6l-.69,3a.77.77,0,0,1,.77.09,3.15,3.15,0,0,1,.48.3l.13.09.06,0h0c-.13-.3.28.67-.28-.67h0l0,0c.1.06.1.19.16.3a10.29,10.29,0,0,1,.34,1c.05.14.09.28.13.42l.07.24a3.12,3.12,0,0,0,.28.63Z"/></g><path class="cls-3" d="M166.42,77.63A5.11,5.11,0,0,0,163,75.52c-1-.22-2.95.21-2.63-1.18-1.47.93-2.6-1.17-3.24-2.48-1.18,1.39-2.31-1.88-3.57-2.77-1.51-1.06-1.87-2.1-3-3.5-2.14-2.71-3.3-6.16-4.57-9.34-.79-2-.34-4.09-1.34-6-.8-1.53-1.53-3.07-2.32-4.61-1.47-2.94-1.94-6.54-3.59-9.28-.51-.82-.4-1.92-1.07-2.66-.65-.35-1.31-.68-2-1-1.36-1-2.23-2.22-3.67-3.1s-1.61-2.33-2.7-3.33c-1.27-1.09-2.43-2.31-3.74-3.36-2.59-2.06-5-4.58-4.66-8.12.18-2.08,1.62-7.38,4-7.87,2.84.72,5.85,1.33,8.2,3.2,1.35,1.35,3.08,3.88,4.75,4.73,1.33.64,2.77,4.54,3.49,5.86,1.21,2.19,1.24,4.74,2.15,7,1.16,3,3.72,4.86,5.15,7.63,1,1.86,2.22,3.88,3.31,5.66a64.51,64.51,0,0,1,3.4,6.42c1,2.12,1.37,4.77,2.77,6.66,3.27,4.41,4.66,9.86,7.68,14.44.52,1,5.33,2.74,6.49,3.1,2.75.21,3.53.86,5.14,3.42.84,1.3,2,6.19-.73,6.39s-2.39-1.81-4.3-2.78C170.28,79.11,167.94,79.69,166.42,77.63Z"/><g class="cls-4"><path class="cls-5" d="M169.83,75.11a.74.74,0,0,0-.13.1c-.08.06-.21.2-.25.23a3,3,0,0,0-.28.3l0,.06h0l0,0a2,2,0,0,0,.07-.2,1.09,1.09,0,0,0,.05-.17s0,0,0,0,.05.09.14.14a1.47,1.47,0,0,0,.19.06h.53c.83,0,1.69-.13,2.56-.22.31.11.6.18.89.3a10.68,10.68,0,0,1,.87.63,9,9,0,0,1,1.5,1.58l.36.45.16.23.07.12,0,.05h0c-.12.14.27-.31-.26.31h0v0a.86.86,0,0,0-.14.18c0,.06,0,0,0,0a2.56,2.56,0,0,0,.09-.25s.07-.22.09-.33,0,0,0,0,.06,0,.11,0l.19,0h0l0,.43h0v.1s0,.08,0,.13a1.8,1.8,0,0,0,.07.27c0,.14,0,.12.09.2s-.08-.09-.1-.09a1.33,1.33,0,0,0-.44-.28,2.23,2.23,0,0,0-.35-.17s0,0,0,0a2,2,0,0,0,.13-.88,6.66,6.66,0,0,0-.14-1.32,3.91,3.91,0,0,0-.41-1.19c-.08-.15-.21-.36-.33-.57s-.24-.39-.36-.55a3.56,3.56,0,0,0-.61-.73,2,2,0,0,0-.73-.37,3.67,3.67,0,0,0-.55-.14l-.89-.13c-.43-.14-.89-.33-1.27-.48l-1-.45c-.67-.29-1.3-.6-1.91-.91A17.73,17.73,0,0,1,166,70.57a3.64,3.64,0,0,1-1.31-1.43l-.17-.28c-.23-.41-.45-.82-.65-1.2s-.32-.69-.48-1c-.3-.66-.56-1.27-.78-1.85-.45-1.14-.8-2.14-1.08-3s-.05-.3.43,1c.25.64.57,1.49,1,2.49.21.5.42,1,.68,1.63.12.29.24.57.41.9s.34.7.53,1l.16.29A3.68,3.68,0,0,0,166,70.55a19,19,0,0,0,1.88,1.06c.61.3,1.23.59,1.89.87l1,.43c.37.15.83.33,1.27.47l.62.09.57.1a4.08,4.08,0,0,0-.54-.19c-.24-.07-.45-.12-.61-.18-.43-.19-.88-.43-1.23-.62l-1-.59c-.66-.4-1.27-.8-1.85-1.21-1.21-.85-2.28-1.63-2.5-2.78a15,15,0,0,1-.77-2.13c-1-1.91-1.77-3.94-2.65-6-.49-1.13-1-2.26-1.59-3.35-.29-.55-.59-1.09-.92-1.62s-.73-1.08-1-1.52c-1.15-1.86-1.43-4.35-2.52-6.66s-2.08-4.41-3.28-6.53l-1.69-3.14-1.73-3.28a23,23,0,0,0-2-2.83,16.34,16.34,0,0,1-2-3.11,13.75,13.75,0,0,1-.94-3.5,27.77,27.77,0,0,0-.74-3.46,51.28,51.28,0,0,1,1.38,5.34,8.83,8.83,0,0,0,.84,2.05,15,15,0,0,0,1.37,2c.52.68,1.1,1.38,1.67,2.16.28.4.57.8.83,1.24s.5.94.71,1.28l2.59,4.55c.89,1.53,1.81,3.17,2.6,4.79.4.82.79,1.65,1.16,2.47a22.7,22.7,0,0,1,1,2.69c.27.85.51,1.66.81,2.39a8.63,8.63,0,0,0,.5,1c.09.16.18.28.29.45l.4.58a34.88,34.88,0,0,1,2.68,4.88l-.4-1.12c-.4-.88-.85-1.75-1.33-2.62-.26-.43-.5-.86-.78-1.28l-.41-.63a5.06,5.06,0,0,1-.27-.46,38.42,38.42,0,0,1-1.7-5c-.38-1.06-.76-1.86-1.15-2.76s-.81-1.75-1.25-2.62-.9-1.73-1.36-2.56l-1.3-2.42-.91-1.63c-.14-.28-.29-.56-.44-.84s-.28-.54-.46-.94l1.81,3.41,1.24,2.08,1.35,2.19c.9,1.5,1.76,3.06,2.56,4.74a21.59,21.59,0,0,1,1.14,3.64,10,10,0,0,0,1,2.74l.69,1.15c.22.42.44.85.62,1.28.37.85.67,1.71,1,2.56.48,1,.92,2.1,1.35,3.14.17.28.34.59.5.91,0,0,0,0,0,0a19.76,19.76,0,0,0-1.66-6.19,26.49,26.49,0,0,0-1.2-2.49l-.37-.65c-.06-.14-.1-.22-.15-.36s-.18-.55-.28-.89c-.18-.68-.35-1.54-.58-2.54-.12-.5-.25-1-.43-1.63-.09-.3-.2-.6-.31-.91l-.28-.75a59,59,0,0,0-2.54-5.81l-2.37-4.73-1.15-2.24a21,21,0,0,0-1.43-2.23c-.88-1.18-1.42-1.81-1.76-2.19-.52-.59-1-1-1.32-1.4a6.33,6.33,0,0,1-1.07-1.45A24.71,24.71,0,0,1,146,22.57c-.2-.52-.42-1.08-.69-1.68a19.4,19.4,0,0,0-.92-1.82,13.14,13.14,0,0,1-.65-1.6,5.15,5.15,0,0,0-.88-1.61c-.22,0-.62-.48-1.09-1-.23-.36-.49-.75-.81-1.17a5.47,5.47,0,0,0-1.69-1.47c-.07-.1-.44-.43-.74-.82A12.64,12.64,0,0,0,136.17,9a3.43,3.43,0,0,1-.55-.68l-.31-.5c-.12-.17-.26-.33-.39-.51-.27-.36-.57-.75-.89-1.13s-.59-.72-.89-1.06c-1.21-1.36-2.37-2.37-2.63-2.16-1,.81-1.09.93-1.46.68a7.28,7.28,0,0,0-2.64-1.39l-.18,0-2.18,0a6.3,6.3,0,0,0-1.55.73,6.6,6.6,0,0,0-1.29,1.15c-.16.2-.35.41-.48.6l-.36.55c-.26.36-.39.63-.6.88a8.68,8.68,0,0,0-1.39,2.16,7.88,7.88,0,0,0-.57,1.77,17.79,17.79,0,0,0-.27,1.83c-.07.7-.14,1.35-.2,2.55v.51a13.09,13.09,0,0,0,1,4.4,14,14,0,0,0,.76,1.6,11.57,11.57,0,0,0,.8,1.27,9.73,9.73,0,0,0,1.87,2,10.55,10.55,0,0,0,1.23.83c.23.12.47.25.71.36l.66.26a11.32,11.32,0,0,1,1.08.68l1,.69c.34.24.79.57,1.1.77a3,3,0,0,1,.73.52,5.25,5.25,0,0,1,.63.73,9.84,9.84,0,0,0,.9,1,5.77,5.77,0,0,0,1.6,1.38c.77.53,1.51,1.29,2.55,2.11.27.21.53.4.8.58s.58.29.87.43c.48.22.89.43,1.32.66l-.49-.39s0,0,0,.16,0,.26.1.63a8.84,8.84,0,0,0,.51,2,5.28,5.28,0,0,1,.14,1.18c1.17,1.31,1.75,3.45,2.5,5.79.21.6.41,1.2.68,1.83l.67,1.63c.23.54.45,1.08.67,1.61l.64,1.51a5.4,5.4,0,0,1,.3.94c.07.29.13.64.21,1.08q.15,1,.27,1.92a14.42,14.42,0,0,0,.48,2.06,33.39,33.39,0,0,1,.88,4,23.1,23.1,0,0,0,1.26,4.83A13.2,13.2,0,0,0,146.86,68l.25.37.11.21a1.89,1.89,0,0,1,.13.44c.05.32.46.76,1.26,1.56.4.38.89.81,1.37,1.18.25.17.48.35.71.52-.07-.06,0,0,0,0l0,0,.07.08c-.16.11-.32.24-.48.36a1.83,1.83,0,0,1,.25.55.14.14,0,0,1,0,.11.17.17,0,0,1-.05.12c-.05.06-.17.06-.26.09a2.43,2.43,0,0,0-.5.29c-.12.14-.32.14-.2.57a8.83,8.83,0,0,0,.49.89c.09.16.28.42.42.62a10.47,10.47,0,0,0,.68.82c.2.19.4.38.61.56l.32.27q.27.19.54.36t.57.33a6.4,6.4,0,0,0,.71.33,8.61,8.61,0,0,0,1.94.48,8.29,8.29,0,0,0,2.43-.14,6.89,6.89,0,0,0,1-.31,6.63,6.63,0,0,0,.94-.43,6,6,0,0,0,.83-.5c.17-.12.34-.26.51-.4a8.86,8.86,0,0,0,.94-.9L150.87,75a14.07,14.07,0,0,0,.71,1.65,11.34,11.34,0,0,0,1.57,2.3c.2.2.46.42.69.62s.6.45.9.65a9.65,9.65,0,0,0,1.2.66,9.24,9.24,0,0,0,1.56.54,9.13,9.13,0,0,0,1.88.24,8.81,8.81,0,0,0,1.88-.19,8.68,8.68,0,0,0,1.61-.54,10.51,10.51,0,0,0,1.23-.69l-10.45-7.45A10.4,10.4,0,0,0,153.5,74a7.54,7.54,0,0,0,0,.83c0,.31.05.62.1.93a7.22,7.22,0,0,0,.27,1.1,7.75,7.75,0,0,0,.48,1.15,8.77,8.77,0,0,0,.72,1.11,6.94,6.94,0,0,0,.84.91,8.38,8.38,0,0,0,.9.7,3,3,0,0,0,.4.25l.36.19c.25.12.52.24.75.33l.54.18.53.13.4.07.38,0,.29,0a6.45,6.45,0,0,0,1.42,0c.11,0,.21,0,.21-.07h0l0-.48,0-.32c0-.36.05-.72.09-1.07l.21-1.69c0-.16,0-.33.09-.52l0-.14v0h0l-.83,3.86h0v0l0-.08A1.74,1.74,0,0,1,162,81a.51.51,0,0,0,.23-.15s0,0,.14-.28a3.9,3.9,0,0,1,.18-.36l.2-.31c.16-.23.3-.44.43-.59a3.37,3.37,0,0,1,2-1.43c.85-.24,1.76-.27,2.2-.95.09-.21-.33-1.16-1.38-2.07a9.4,9.4,0,0,0-1.69-1.13l-.81-.43c-.42-.16-.69-.27-.91-.38s-.06-.31.22-.53a2.43,2.43,0,0,1,.61-.32l.41-.13.23-.17-.25-.06-.39-.07-.54-.08a4.92,4.92,0,0,1-.59-.11c-.25-.08-.33-.18-.37-.29a.77.77,0,0,1,.3-.76l-.22-.05s0,0,0,0h0s0,0,0,0,0,.31,0,.46a14.2,14.2,0,0,1-.18,1.52c0,.09,0,.17-.05.24v.21c0-.07,0-.16,0-.25s.06-.32.09-.49c0-.35.09-.75.12-1.11.07-.75.14-1.39.14-1.39h0l0,.22,0,.44-.12,1.24c0,.31-.08.62-.13.92l-.05.23v.15l0,.29c0,.19-.09.39-.14.58a3.18,3.18,0,0,1-.11.38,2.22,2.22,0,0,1-.25.55c-.1.21-.25.21-.05.15a1.18,1.18,0,0,1,.39,0,2.14,2.14,0,0,1,.67.11l-2.72-2a1.07,1.07,0,0,1,.21.38.78.78,0,0,1,.07.25s0,0,0,0,0-.05,0-.18a5.4,5.4,0,0,1,1.63-2c.25-.22.51-.42.84-.7s.63-.45,1-.76l.29-.2.06,0h0a0,0,0,0,0,0,0s0,0,0-.08a3,3,0,0,0-.12-.65l-7.6,2.06a1.35,1.35,0,0,1,.44.42l.08.13a.12.12,0,0,1,.05,0,.4.4,0,0,1,.07.13.19.19,0,0,1,0,.07h0a.51.51,0,0,1,.07-.26,1.53,1.53,0,0,1,.3-.52,5.46,5.46,0,0,1,.59-.74l.18-.17.25-.27a6.88,6.88,0,0,1,.54-.54L160,67.82l1-.79.25-.19c.09-.07,0,0,.05,0h0l0-.09a2.43,2.43,0,0,0-.14-.27l-.12-.21-.17-.26c-.17-.25-.34-.5-.54-.76A9.62,9.62,0,0,0,159,63.8c-.25-.2-.47-.43-.73-.62l-.09-.07,0,0h0L158,63l0,0c-.14.16.25-.39-.33.34h0l-.12.15-.22.27c-.24.29-.27.26.27-.21l.44-.37s0,0,0,0a.29.29,0,0,1-.14-.08l-1.4-1.42-.28-.27c-.12-.11-.11-.07-.17-.12l-.27-.15a4.07,4.07,0,0,1-.49-.31c-.31-.19-.42-1.07-.52-1.39-.72-.26-1.26.07-1.89.09-.3-1.22-.73-3.32-1.38-5.29a3,3,0,0,0-.09-.5c-.06-.29-.15-.73-.29-1.18-.27-.9-.78-1.75-1.32-1.53a7.19,7.19,0,0,0-1.12-2.83,1.62,1.62,0,0,0-.21-.29l-.14-.17-.3-.33c-.21-.21-.41-.42-.62-.65A9.29,9.29,0,0,1,146,44.88l-.53-1c-.14-.25-.29-.54-.43-.85-.28-.63-.56-1.36-.84-2.17a33.62,33.62,0,0,0-2.36-5.76,2.11,2.11,0,0,1-.29-.56l-.1-.33c0-.11-.13-.46-.25-.8a5.44,5.44,0,0,0-1.12-1.86l-.44-.48-.42-.2-1.47-.69a2.65,2.65,0,0,1-.77-.51,33.61,33.61,0,0,0-2.56-2.28l-.11-.07a2.91,2.91,0,0,1-1.06-1L133,26c-.14-.21-.29-.45-.44-.66a7.62,7.62,0,0,0-1-1.22l-.94-.84-.79-.74c-.54-.51-1.11-1.05-1.72-1.58l-.87-.73c-.24-.21-.48-.41-.69-.62-1.85-1.73-2.47-3.09-2.25-4.64l.06-.32a3.82,3.82,0,0,1,.09-.44c.07-.29.15-.6.25-.9a13.51,13.51,0,0,1,.64-1.73,6.38,6.38,0,0,1,.73-1.26.52.52,0,0,1,.14-.15s0-.05,0,0h0s0,0,0,0l-.1-.11a6.91,6.91,0,0,1-.55-.8c-.07-.17-.09-.2-.12-.27a.7.7,0,0,1-.06-.23l-1.25,1.62A40.52,40.52,0,0,1,129,11.79a9.45,9.45,0,0,1,1.65.86,2.79,2.79,0,0,1,.54.49l.9,1a23.58,23.58,0,0,0,2.35,2.37,9.11,9.11,0,0,0,1.91,1.3l.08,0,0,0h0c2-4.07.56-1.12,1-2h0c0,.08-.07.15-.1.22a2.16,2.16,0,0,1-.27.38,5.74,5.74,0,0,1-.91,1c-.15.15-.1.1-.1.11h0l.11.12c.79.91,1.76,3,2.86,4.71a11,11,0,0,1,1.07,2.62,27.54,27.54,0,0,0,1.25,3.62,15.29,15.29,0,0,0,2.22,3.39c.8,1,1.59,1.78,2.25,2.59a22.53,22.53,0,0,1,1.74,2.6l1.83,3c.59,1,1.17,1.95,1.76,2.91s1.07,1.92,1.56,2.89l.72,1.48.34.74c.09.21.19.44.27.67.35.93.64,2,1,3.11a15.83,15.83,0,0,0,.68,1.73c.14.29.29.58.47.88s.41.63.52.8a21.84,21.84,0,0,1,1.5,2.57c.91,1.78,1.65,3.69,2.43,5.61.39,1,.79,1.92,1.22,2.88.21.48.44,1,.67,1.44l.42.8.48.86a8.39,8.39,0,0,0,.81,1.14,7.41,7.41,0,0,0,1.08.86c.38.25.78.49,1.19.71l1.09.57c.65.33,1.28.63,1.9.91l1,.42c.43.17.84.34,1.27.49l.58.08.3,0,.14,0a2.29,2.29,0,0,1,.44.14c.24.1.23.16.26.23s.16.23.33.52l.27.48.15.28.09.19a3.23,3.23,0,0,1,.25,1,4.07,4.07,0,0,1,0,1.11s0,.14,0,.16l0,0h0s0,0,0,0h.14a6.62,6.62,0,0,1,1,.25,3,3,0,0,1,.39.14,2.33,2.33,0,0,0,.31.16,1.81,1.81,0,0,1,.34.24l.07.07s0,0,0,0a.31.31,0,0,1,0-.08,1.05,1.05,0,0,1-.08-.25,1.22,1.22,0,0,1,0-.26v-.07h0c-.29-3.91-.08-1.08-.14-2h0s-.05-.21,0,.33a3.27,3.27,0,0,1,0,.54l0,.28v.17c0,.24-.14.51-.15.58a1.51,1.51,0,0,1-.06.15h0s0,0,.07-.1c.45-.56.91-1.11,1.36-1.66a2.48,2.48,0,0,0-.32-.5c-.26-.34-.52-.64-.78-.93a9.14,9.14,0,0,0-1.66-1.42,8.49,8.49,0,0,0-.87-.56l-.83-.38c-1.1.16-2.14.31-3.05.41l-.52,0-.07,0v0c0,.13,0,.26-.05.38a5.05,5.05,0,0,1-.08.53,2.63,2.63,0,0,1-.23.73,1,1,0,0,1,.08-.11s.11-.14.17-.19l.26-.24C169.74,75.17,169.91,75,169.83,75.11Z"/></g><path class="cls-3" d="M156.3,125.89c1-.35,1.48.56,2,1.24l-1.3,1.35C156.47,127.82,155.31,126.54,156.3,125.89Z"/><g class="cls-4"><path class="cls-5" d="M157,126.92a.94.94,0,0,0-.23-.29.25.25,0,0,0-.1-.08h0a1,1,0,0,0,.41,0c.16,0,.63-.17.27,0a3.25,3.25,0,0,0-.45.35c-.14.13,0-.11.45-.35.27-.1-.11,0-.34,0h.18s.05,0,0,0a3.09,3.09,0,0,0-.54.17,6.13,6.13,0,0,0-.92.51q0,.15,0,.33c-.06.52.15.88,0,1.47a4.52,4.52,0,0,1-.05.49l0,.08,2.61.09a1.09,1.09,0,0,1,.31.08l-.15.08-2.59,1.26-.33-1.46c-.09-.41-.35-1-.52-1.65l-.09.12c0,.49-.05,1-.07,1.38a.3.3,0,0,1,0,.22l0-.22c-.07-.13-.31-.14-.45-.28s.14-.4.12-.52.24-.38.4-.58l0-.22s-.07,0-.09,0h0a4.28,4.28,0,0,0-1.52,2.12c-.29.8-.42,1.38-.27,1.34a4,4,0,0,0,.81-.44l6.08.4a2,2,0,0,1-.35-.62c0-.07.27.14.09-.1a3.2,3.2,0,0,1-.31-.37c0-.14.59.29.23-.17-.13-.21,2.22,1.87,1.81,1.46-1.49-1.52-.4-.41-.17-.37,0,0-.55-.63-.46-.58.46.29,0-.24-.12-.5-.36-.6.63.31-.22-.75a2,2,0,0,1-.22-.37l.25-3.28c-.26.12-.57.24-.57.24.05-.28-.89.23.2-.81-.61.28-.63.15-.6-.11s.12-.64-.13-.71c-.5-.1.06-1.06-.24-2.24-.15-.23-.34-.2-.39-.53s-.64.35-.84.17l.19-.56-.34-.25c-.08-.07,0-.25,0-.44a1.54,1.54,0,0,0,.07-1.07,3.88,3.88,0,0,0-1.54-.81,4.15,4.15,0,0,0-1.19,1.17,7.41,7.41,0,0,1,.09.74c-.06.17-.12.34-.17.5.12.57.32,1.17.4,1.55a47.22,47.22,0,0,0,1.37,4.52l.1.27c0,.06,0,0,0,0v0a1.24,1.24,0,0,1,0-.16s0,0,0,0,0-.08,0-.07v0c0-.23,0-.3,0-.22l0,.09,0,.08,0,0a2.36,2.36,0,0,1-.27.38l-.27.31-.29.28c-.1.1-.2.19-.38.34l-.26.22,0,0,0,0,.09,0a.35.35,0,0,1,.2,0c.15,0,.16.05.21.13l.08.07a.52.52,0,0,1,.1.11l.3-3.86c-.43.42-1.7-.16-1.07,1.31a2.22,2.22,0,0,1,.14.38L159,127c-.72,0-1,0-1.09-.28a.44.44,0,0,1,.12-.36.66.66,0,0,1,.21-.15c-.17.09-.46.18-.59.24-.73.24-1,.13-1,.13l0,0,.08.06s.14.13.16.17A.57.57,0,0,1,157,126.92Z"/></g><path class="cls-3" d="M97,46.77c-.77-1.67-1.08-3.68-2.16-5.18-.72-1-1.67-1.8-2.31-2.84-.48-1-.83-3.41-1.61-4.17s.36-1.7,1.08-2.51c1.44.15,1.94.8,3.15,1.41,1.36.65,1.58,2.09,3,2.87s1.35,2.49,2.75,3.1a13.88,13.88,0,0,1,3.33,2.36c4.75,4.49,7.15,11,12,15.57,2.67,2.56,3.11,6.24,5.75,8.67,2,1.77,4.39-.44,6.5,2a18.81,18.81,0,0,1,3.18,7.31c.33,1.84-.89,7.43-3.28,4.8-.84.79-5.11-2.56-5.8-3.77-.7-1-.74-3.18-2.32-3.12a13.16,13.16,0,0,1-2.55.36c-4.74-.66-6.78-8-8.25-11.75-1.22-3.13-5-4.4-7.07-6.87A38.84,38.84,0,0,1,97,46.77Z"/><g class="cls-4"><path class="cls-5" d="M100.83,45c-.22,1.51.93,4.56,2.89,7.58a9.54,9.54,0,0,0,1.44,1.91c.59.59,1.32,1.19,2.08,1.84a17.55,17.55,0,0,1,2.26,2.23,8.16,8.16,0,0,1,1.5,2.76c.29,1,.47,1.76.63,2.48.59,2.07,1.07,3.59,1.46,4.74.35,1-.71-1.13-1.46-4.74-.2-.68-.37-1.35-.74-2.44a8.37,8.37,0,0,0-2.21-3.48,7.1,7.1,0,0,1,1.48,3.79c.26,1.85.31,3.18.41,4.33a29.45,29.45,0,0,0,1.81,4.1,10.6,10.6,0,0,0,2.17,2.77,6.12,6.12,0,0,0,3.14,1.51,5.75,5.75,0,0,0,1.75-.17,6.51,6.51,0,0,1,.8-.12.49.49,0,0,1,.25.09,2.17,2.17,0,0,1,.47.91,9.69,9.69,0,0,0,.63,1.66A11.12,11.12,0,0,0,124,79.45c.43.37.88.73,1.36,1.07a8.18,8.18,0,0,0,1.68,1,3.43,3.43,0,0,0,.67.18,2.44,2.44,0,0,0,.61,0,1.86,1.86,0,0,0,1-.47l-2-.07a3.88,3.88,0,0,0,1.09.9,2.37,2.37,0,0,0,1,.3,2.55,2.55,0,0,0,1.21-.21A3.6,3.6,0,0,0,132,80.87a6.67,6.67,0,0,0,.66-1.26,12.15,12.15,0,0,0,.67-2.42,9,9,0,0,0,.12-2.27c-.06-.49-.11-.84-.15-1.14.1.35.18.75.25,1.13a8.25,8.25,0,0,1,0,2.48,11.5,11.5,0,0,1-.6,2.34A7.5,7.5,0,0,1,132.3,81,3.92,3.92,0,0,1,131,82.28a2.73,2.73,0,0,1-1.28.4,3.09,3.09,0,0,1-1.29-.23,4,4,0,0,1-.85-.51l-.58-.55,2.58.1a3.54,3.54,0,0,1-.51.35,3.94,3.94,0,0,1-.48.18,2.84,2.84,0,0,1-.72.07,3.69,3.69,0,0,1-.88-.17,6.31,6.31,0,0,1-1.09-.48,13.84,13.84,0,0,1-1.65-1.08,18.36,18.36,0,0,1-1.46-1.21,10,10,0,0,1-1.44-1.54,6.68,6.68,0,0,1-.89-1.89c-.12-.36-.19-.53-.26-.7l-.09-.19,0,0h0l.11-.11c.24-.27.1-.27.1.11,0,.07,0,.08,0,.07s0,0,0,0h0l-.12,0-.51.09a6.64,6.64,0,0,1-2,.19,7.13,7.13,0,0,1-3.2-1.39A10.69,10.69,0,0,1,112,71.15c.14.29.29.56.45.83a8,8,0,0,0,5.05,3.48,5.8,5.8,0,0,0,1.5,0l.76-.12.37-.06h.16a2,2,0,0,0,0-.24h0v0c-.06-.67.28-.54-.42,0l-.13.12h0v0l0,.12c0,.08.08.23.13.4a7.08,7.08,0,0,0,1.37,2.81,11.07,11.07,0,0,0,1.1,1.18c.36.34.68.64,1,.94a22.29,22.29,0,0,0,2.6,1.79,14,14,0,0,1-2.6-1.79,14.5,14.5,0,0,1-3-2.9,5.87,5.87,0,0,1-.53-1c-.13-.32-.27-.64-.4-1s-.19-.33-.16-.35a2.84,2.84,0,0,0,1-.84v0l0,.06s0,0,0,.13a1,1,0,0,0,0,.25V75h0l0,.81h0l-.93.12a6.51,6.51,0,0,1-2,0,9.81,9.81,0,0,1-2-.7,7.37,7.37,0,0,1-3-3.25,12,12,0,0,1-.75-1.15c-.22-.36-.38-.72-.56-1.08a4.44,4.44,0,0,1-.41-.62.06.06,0,0,1,0,0,3.21,3.21,0,0,0,.11,1.18,5.47,5.47,0,0,0,.28.92,9,9,0,0,0,.57,1.23,10,10,0,0,0,2,2.65A8.7,8.7,0,0,0,117.24,77a8.08,8.08,0,0,0,2.65.06l.35,0,.15,0h.08c0-.12,0,.25,0-.25v-.09l0-.09,0-.19v-.15L120.29,75h0a.78.78,0,0,1,0-.16,1.21,1.21,0,0,1,0-.25c0-.23.07,0-.52.46a8.81,8.81,0,0,1-1.45.87l-.31.16h0s0,0,0,0v.09a10.27,10.27,0,0,0,.32,1.19,8.07,8.07,0,0,0,1.38,2.57,21.43,21.43,0,0,0,1.83,1.95,19.07,19.07,0,0,0,1.62,1.38,11,11,0,0,0,2,1.23,6.89,6.89,0,0,0,1.69.58,5.9,5.9,0,0,0,1.76.1l.64-.1a6.39,6.39,0,0,0,.82-.26,5.35,5.35,0,0,0,1.67-1.06l-7-.25c.2.21.41.42.62.61l.31.27a3.72,3.72,0,0,0,.37.29,10.17,10.17,0,0,0,1,.57l.5.22c.23.07.47.14.7.19a6.75,6.75,0,0,0,1.37.17,6.46,6.46,0,0,0,1.32-.18,4.93,4.93,0,0,0,1.07-.36,6,6,0,0,0,.72-.41,6.11,6.11,0,0,0,.72-.53c.16-.15.31-.3.45-.46a6.4,6.4,0,0,0,.42-.49c.13-.17.18-.28.28-.42s.33-.56.43-.79.18-.46.26-.69a8.85,8.85,0,0,0,.39-2.34,9.57,9.57,0,0,0,0-1.07c0-.37,0-.77-.07-1.14a12.39,12.39,0,0,0-.45-2.26c-.13-.37-.25-.74-.39-1.12s-.23-.63-.35-1c-.37-1-.37-2-1-2.59-.21,0-.51-.31-.81-.61-.51-.93-.86-1.94-1.56-3a5.57,5.57,0,0,0-.65-.8,4.76,4.76,0,0,0-.85-.74,4,4,0,0,0-2.08-.72,4.48,4.48,0,0,1-.77-.21l-.43-.17a1.52,1.52,0,0,1-.28-.19,1.94,1.94,0,0,1-.55-.93c-.21-.68-.08-1.38-.24-1.11-1.25,1.9-.49.52-.84-.22,0-.07-.88.18-.95-.12a1,1,0,0,0,0-.37,4.17,4.17,0,0,0-.19-.47,4.1,4.1,0,0,0-.56-.84c-.45-.55-1-1.14-1.83-2.25-.71-.78-1.3-1.46-1.85-2l-.37-.4-.21-.26-.39-.49a5.52,5.52,0,0,0-2.34-1.88,19.12,19.12,0,0,1-1.88-1.67c-.84-.82-1.64-1.65-1.64-1.65a30.77,30.77,0,0,0-2.73-3.75,10.67,10.67,0,0,1-2-3.82,43.74,43.74,0,0,1-4.53-3.26,6.94,6.94,0,0,1-.83-.67,3.1,3.1,0,0,1-.48-.94,3,3,0,0,0-.28-.6,4.9,4.9,0,0,0-.83-1.06,4.24,4.24,0,0,0-.62-.5c-.19-.13-.53-.31-.44-.26a.61.61,0,0,0-.13-.07,2.09,2.09,0,0,1-.48-.52c-.28-.38-.54-.75-.81-1.08a9.69,9.69,0,0,0-1.73-1.67A7.53,7.53,0,0,0,95,29.43a7.84,7.84,0,0,0-2.64-1.35L89,29.4c-.11,0-.38.07-.78.34a5.08,5.08,0,0,0-.81.81,5.51,5.51,0,0,0-1,1.68,5.44,5.44,0,0,0-.21,3,6.32,6.32,0,0,0,.45,1.3,8.78,8.78,0,0,0,.51.92,4.07,4.07,0,0,0,.28.38l.09.09,0,.05v0L90,35.47h0l-.11.13a2.09,2.09,0,0,1-.28.22c-.11.08-.26.21-.4.3s-.71.46-1.17.68l-.83.42s0,0,0,0a.87.87,0,0,1,.5.73h-.6c0,.12,0,.31,0,.5l0,.16,0,.24c0,.16.06.31.08.43.1.48-.11.43-.34.38-.43-.1-.89-.25-.87.75a9.6,9.6,0,0,0,.45,1.65,14.31,14.31,0,0,0,.81,1.55c.15.25.32.5.49.75l.26.36a3.41,3.41,0,0,1,.21.31,3.94,3.94,0,0,1,.38.65.51.51,0,0,0,.17.05l.08-.05a.67.67,0,0,1,.38-.09,2.24,2.24,0,0,1,.67.6,2.14,2.14,0,0,1,.8,0c.24.26.5.57.77.91.63,0,1.19-.24,1.61-.21a7,7,0,0,1,2.55-.12A3.41,3.41,0,0,0,98,46.27c.17-.15.11-.63.09-1.26a6.38,6.38,0,0,1,.15-2c.14-.31.83,0,1.45.07-.44-1.28,0-1.72.78-1.26-.08-.37-.2-.77-.2-.77l.87.09a11.74,11.74,0,0,0-.44-1.57,15.67,15.67,0,0,0-.73-1.71c-.14-.25-.29-.53-.43-.77l-.35-.62-.29-.52-.12-.22,0-.1s0,0,0,0a.87.87,0,0,1,.3-.28l.11,0s0,0,0,0l-.13-.5a11.59,11.59,0,0,0-1.42-3.09c-.15-.23-.26-.42-.52-.76l-.38-.48c-.16-.18-.37-.41-.57-.61l-.32-.3-4,4.12c-.08.08-.2.16-.27.22a.75.75,0,0,1-.2.11.14.14,0,0,1-.1,0,1.79,1.79,0,0,1,.75.27c.09.06.32.17.46.27l.56.4.31.24.14.12.22.18c.3.24.59.49.85.73l1.28,1.15s0,0,0,0l.2-.12a5.56,5.56,0,0,0,.88-.63l-5.53.75,0-.28c0-.23.06-.44.09-.64l.06-.27a1.67,1.67,0,0,1,.06-.24l0-.07-.08.2-.1.21-.21.45-.12.23-.12.23s0,0,0,0,0,0,0,0a1.24,1.24,0,0,0,.24.29c.15.14.38.34.59.5s.14.28.19.41a.83.83,0,0,0,.09.16l.06.07.34.38a5.53,5.53,0,0,0,2,1.41c.62.22,1.15.18,1.25-.19l.19.11,0,0h0c.51-1-1.13,2.18,1.14-2.17h0s-.06.11-.09.13a2,2,0,0,1-.25.27c-.11.09-.32.3-.47.41l-.14.1-.22.17-.45.32-.1.07h0l.06,0s.25.21.4.34a25.89,25.89,0,0,0,2.31,2,14.57,14.57,0,0,0,1.66.9,14.89,14.89,0,0,1,4.54,4,28.19,28.19,0,0,1,2.75,3.78l1,1.46a55.58,55.58,0,0,0,5.62,7.39l.19.2.1.12c.07.09.15.16.22.26a6.31,6.31,0,0,1,.39.57,12,12,0,0,1,.75,1.4,38.54,38.54,0,0,0,2,4A9,9,0,0,0,121.58,70a8.38,8.38,0,0,0,2.83.43h1.28s.1,0,.08,0l.1-.34a.61.61,0,0,1,0-.12.59.59,0,0,0,0,.08l-.06.09a1.58,1.58,0,0,1-.14.2s0,0,.06,0a.46.46,0,0,1,.12.11,7.05,7.05,0,0,1,.86,1.13,30.36,30.36,0,0,1,1.79,3.27c.14.34.24.51.34.76a3.86,3.86,0,0,1,.23,1.27,6.12,6.12,0,0,1-.15,1.42,4.3,4.3,0,0,1-.14.53s0,.14,0,.1a1.84,1.84,0,0,1,.37.37l.09.11.05.06a.63.63,0,0,1,.11.12l.08.16,0,.09h0a.12.12,0,0,1,0,.08s0,0,0-.06,0-.07,0-.11l0-.09,0,0,0-.12a1.59,1.59,0,0,1,.23-.45s.12-.17.12-.15,0,0,0,0l-.13-.08-.66-.27-1.11,1.39a1.2,1.2,0,0,1-.11-.7,6.48,6.48,0,0,1,.11-.75l0-.16h0a2,2,0,0,1-.48-.17,9.08,9.08,0,0,1-1.28-.74,13.4,13.4,0,0,1-1.22-.92,6.22,6.22,0,0,1-.93-.92,4.33,4.33,0,0,1-.55-1.17,5,5,0,0,0-1.37-2.22,3,3,0,0,0-1.89-.7,3.08,3.08,0,0,0-.65,0l-.31.05a4,4,0,0,1-1.24.16,4.09,4.09,0,0,1-2.47-1.48,7.28,7.28,0,0,1-.8-1.16c-.08-.16-.23-.4-.35-.67s-.25-.49-.36-.76A28.33,28.33,0,0,1,113,64.38c-.33-1.18-.65-2.34-1-3.46a10.21,10.21,0,0,0-2.28-3.83c-.89-1-1.75-1.72-2.45-2.37A12.49,12.49,0,0,1,105.72,53c-.07-.11-.17-.23-.22-.33l-.19-.34c-.2-.32-.39-.64-.57-.95A41.18,41.18,0,0,1,102.1,46C101.66,45.66,101.24,45.35,100.83,45Z"/></g><path class="cls-3" d="M93.12,29.51c.42,4.18-5,2.12-7.25,1.43-2.62-.78-3.9-1.93-6-3.87-1.75-1.66-2.86-2-4.78-3.06-3.22-1.84-4.57-6.29-7.8-8.24-2.2-1.31-2-4.31-1.45-6.31.91-3.55,3.61-4,6.58-5.12,3-.4,7.27,3.08,9.67,4.94,2.89,2.24,5.54,6.46,7.11,9.7S92.79,25.91,93.12,29.51Z"/><g class="cls-4"><path class="cls-5" d="M88.91,29.9a3.23,3.23,0,0,0,.69-2.18,12.74,12.74,0,0,0-.55-3.48c-.35-1.27-.83-2.59-1.25-3.82s-.76-2.25-1-3.09c-.5-1.22-.9-2.15-1.16-2.89s.5.7,1.16,2.89c.19.46.4,1,.61,1.51s.43,1.18.67,1.84c0-1-.07-1.9-.1-2.77s-.12-1.69-.17-2.38q-.65-1.18-1.38-2.4a19.82,19.82,0,0,0-4-4.76c-1.51-1.31-3-2.66-4.78-3.93A9.24,9.24,0,0,0,72.23,2.6l-.42.11c-.24,0-.46.11-.67.14L70.49,3l1.25-.43.31-.1.16,0A7,7,0,0,1,75,2.75a11.61,11.61,0,0,1,2.2,1,25.93,25.93,0,0,1,3.63,2.46c.56.44,1.1.88,1.63,1.32l.8.67c.3.25.58.51.85.78a23.75,23.75,0,0,1,2.78,3.38c-.07-.16-.14-.32-.2-.48a20.27,20.27,0,0,0-3.19-4c-1.17-1.09-2.31-2.17-3.64-3.23-.46-.32-.93-.67-1.42-1.06.5.34,1,.7,1.42,1.06,1.22.85,2.45,1.57,3.65,2.46a9.22,9.22,0,0,1,1.16,1.23l1,1.3a7.63,7.63,0,0,1,1,2.22c.27.41.52.83.76,1.25a2.42,2.42,0,0,1,.31.33,0,0,0,0,1,0,0,5.46,5.46,0,0,0-.62-2.91A15.23,15.23,0,0,0,86,8.25c-.25-.4-.54-.8-.85-1.21l-1-1.13a27.45,27.45,0,0,0-3.7-3.69,11,11,0,0,0-3.33-2A8.87,8.87,0,0,0,72,.55l-.91.24a5.36,5.36,0,0,1-.6.56l-.18.13L70,1.64l-.6.28c-.74.34-1.59.33-2,.86,0,.18-.13.45-.29.71-.64.42-1.36.77-2,1.22A2.5,2.5,0,0,0,64,6.39c-.1.4-1.11.78-2,1.34S60.37,8.9,60.63,9.06c1,.58,1.11.62.93.84a2.57,2.57,0,0,0-.84,1.72c0,.29.81,1.13.79,1.64a2.63,2.63,0,0,0,.39,2A11.75,11.75,0,0,0,63.43,17c.58.48,1.05.8,1.42,1.15s.7.67,1,.95a5.61,5.61,0,0,0,.75.64,3.48,3.48,0,0,0,1,.3,7.61,7.61,0,0,1,1.34.83l1.22.91a10.1,10.1,0,0,0,2.15,2.29,8.72,8.72,0,0,1,1.07,1,4.63,4.63,0,0,1,.93,1.4,3.71,3.71,0,0,1,2.9,1.15,13.15,13.15,0,0,1,.91,1.15,6,6,0,0,0,1.2,1.22,9.56,9.56,0,0,1,2.1,2.18,13.24,13.24,0,0,0,2.25,2.54,6.75,6.75,0,0,0,.83.4.74.74,0,0,1,.41.36c.2.36,1.19-.18,1.76.13l-.3.52c.18.1.57.31.78.41s.1.27,0,.45c-.2.34-.41.69-.08,1.07A8.69,8.69,0,0,0,91,39.36c.24,0,.41-.07.71-.14s.56-.14.83-.22a10.22,10.22,0,0,0,1.88-.73c.17-.09.31-.15.49-.26l.57-.36a10.81,10.81,0,0,0,1-.83,8.49,8.49,0,0,0,1.68-2.24,2.86,2.86,0,0,1-.24-1.12,5.72,5.72,0,0,0,.26-2.32c-.51-.47-1.16-.41-1.52-.65a14.26,14.26,0,0,1-2.41-.75A4.47,4.47,0,0,0,92,29.62c-.22.05-.36.31-.55.48a.58.58,0,0,1-.17.06h-.12s0,0,0,0a.67.67,0,0,1,.23.1l.09.06h0l-.13-.08c.22.14.09.06.12.07s0,0,0,0h0s0,0,0,0h0l-.06-.07-.07-.09.11.14a1.19,1.19,0,0,1-.18-.3l0-.08-.08-.15c0-.1-.08-.21-.11-.31a1.8,1.8,0,0,1-.06-.32c0-.1-.08-.3-.1-.45a4.45,4.45,0,0,1-.08-1,9.08,9.08,0,0,1,0-1.28c0-.22,0-.43,0-.64s0-.25,0-.38v-.24a.48.48,0,0,0-.1-.31A1.84,1.84,0,0,0,89,24.25a7.84,7.84,0,0,0-.84.09l-.27.05-.14.08-.27.16c-.16.1-.25-.29-.28-.36-.32.44-.57,1-.88,1.51a4.83,4.83,0,0,0-.77-1.39,1.07,1.07,0,0,0-1.74.12A1.82,1.82,0,0,0,82.62,24a4.12,4.12,0,0,1-1.6-.62c-1.72-1.16-4.08-1.92-4.78-2.44a5.15,5.15,0,0,1-1.62-1.59L74,18.55l-1.73-2.33q-.48-.61-1-1.23c-.28-.3-.49-.53-.65-.68-.34-.32-.73-.56-.89-1a2.64,2.64,0,0,1-.18-1.3,7.43,7.43,0,0,1,.67-2.46,7.27,7.27,0,0,1,2-2l.19-.15.31-.2.7-.41-.62.16a2.13,2.13,0,0,1,1.56-.1,9.52,9.52,0,0,1,2.19.82,24.93,24.93,0,0,1,4.26,2.91,18.18,18.18,0,0,1,5,7.6c.25.67.48,1.34.66,2s.4,1.37.59,2c.36,1.29.62,2.43.79,3.4a15.44,15.44,0,0,1,.23,3.77C88.38,29.5,88.64,29.69,88.91,29.9Z"/></g><path class="cls-3" d="M95.29,77.52c2.17,2.61,5.31,5.61,6,9a9.31,9.31,0,0,1,0,3.53,7.13,7.13,0,0,1,2.13,1.49c1.6,1.52,3.26,2.9,4.78,4.51s.74,4.14-.67,5.73-1.32,3.85-3.43,2.81-3.89-2.18-5.89-3.22-3-3.1-4.31-4.94c-2.2-3.06-6.06-4.27-9-6.76a13.62,13.62,0,0,1-3.47-5.29c-1.12-1.73-3.16-2.51-4.37-4.16-2.69-3.53-5.67-7.1-8.64-10.39-1.36-1.51-2.92-1.77-4.28-3.34-1.54-1.77-3.81-3.17-5.67-4.62-2.26-1.81-5.66-4.53-4.7-8.09a1.15,1.15,0,0,1-.86.43c-.71-2.24-.68-3.8-3.07-4.75-1.9-.74-3.39-1.85-5.39-2.37s-2.8-1.92-4.19-3.39S36.89,41,35.37,39.48c-3.11-3.17-6.45-6.64-7-11.19C28,25.47,29.09,26,30,24a4,4,0,0,1,3.36-2.33c4.31-3.14,5.77.75,8.93,2.95s4.89,5.39,7.39,7.58c3.54,3.13,5.66,7.36,8.8,10.8,1.47,1.6,3,2,4.9,2.85a16.6,16.6,0,0,0,4.44,3.51c4.25,2.52,5.34,5.95,7.93,9.86,2.32,3.46,6.09,6.49,9,9.48C88,72,92.28,73.86,95.29,77.52Z"/><g class="cls-4"><path class="cls-5" d="M92,80.21a7.91,7.91,0,0,0-1.41-2.27,26.38,26.38,0,0,0-3-2.92,51.59,51.59,0,0,1-4.24-3.87l-2-2.14-2-2.14a55,55,0,0,1-4.14-4.72,25,25,0,0,1-1.75-2.68c-.51-.88-1-1.75-1.39-2.56a21.57,21.57,0,0,0-2.59-4.09A10.31,10.31,0,0,0,68,51.38a17.19,17.19,0,0,0-1.54-1.16,18,18,0,0,1-2.44-1.91,9.17,9.17,0,0,1-.84-.87c-.19-.22-.35-.43-.47-.6-.7-.46-1.3-.68-2-1.05a9.22,9.22,0,0,1-1.6-1c-.57-.5-.45-.41.22.1a11.76,11.76,0,0,0,1.48.88,18.8,18.8,0,0,1,1.9,1.05c.19.25.39.49.61.74s.58.62.91.93a23.44,23.44,0,0,0,2.19,1.77,18.35,18.35,0,0,1,1.77,1.27,13.3,13.3,0,0,1,1.58,1.6,30.41,30.41,0,0,1,2.83,4.62,23,23,0,0,0-3.26-6.36,15.31,15.31,0,0,0-2.35-2.28A16.53,16.53,0,0,1,65,47a14.08,14.08,0,0,1-1.37-1.4,10.5,10.5,0,0,0-1.38-.7c-.48-.21-.91-.41-1.34-.63a7,7,0,0,1-2.19-1.75c-1.88-2.19-3.39-4.67-5.15-7a28.1,28.1,0,0,0-2.9-3.39c-.57-.55-1-1-1.51-1.5s-.92-1.05-1.37-1.61c-.9-1.11-1.81-2.27-2.87-3.35a17.76,17.76,0,0,0-1.7-1.54l-.84-.65c-.25-.22-.5-.43-.75-.68a15.94,15.94,0,0,0-3.56-3,4.47,4.47,0,0,0-2.91-.36,7.8,7.8,0,0,0-2.43,1.07l-.23.15.72-.26a5.35,5.35,0,0,0-4.42,2.63,6,6,0,0,1-.55,1c-.27.39-.59.76-.87,1.14a3.89,3.89,0,0,0-.72,2.77,14.11,14.11,0,0,0,1.45,5.43,29,29,0,0,0,2.12,3.58,21,21,0,0,1-2.55-4,14.79,14.79,0,0,1-.9-2.46,13.49,13.49,0,0,1-.41-2.66A4.15,4.15,0,0,1,27,25.13a20.64,20.64,0,0,0,1.31-1.86,5.78,5.78,0,0,1,4.95-3.39l-.95.34A8.21,8.21,0,0,1,34.68,19a5,5,0,0,1,3.17,0,7.25,7.25,0,0,1,2.35,1.48c.6.53,1.1,1.05,1.59,1.52a15.19,15.19,0,0,0,1.42,1.22A19.18,19.18,0,0,1,45,24.74a37.24,37.24,0,0,1,3,3.31,26.31,26.31,0,0,0,2.68,3,26.39,26.39,0,0,1,3,3.33c1.81,2.33,3.3,4.74,5,6.83-.26-.36-.5-.74-.73-1.12-1.28-1.75-2.46-3.66-3.85-5.55a30.88,30.88,0,0,0-2.28-2.76c-.21-.23-.42-.45-.65-.66l-.59-.59c-.35-.34-.69-.72-1-1.12a57.22,57.22,0,0,0-4.53-5.29,16.28,16.28,0,0,0-1.48-1.25l-.54-.45c-.18-.16-.35-.3-.53-.48a33,33,0,0,0-2.61-2.49,6.37,6.37,0,0,0-3.4-1.34,7,7,0,0,0-3.58.83,6.89,6.89,0,0,1,3.54-.87,6.22,6.22,0,0,1,3.44,1.38c1.06.81,1.75,1.56,2.43,2.16a24,24,0,0,0,2.25,1.73,32.88,32.88,0,0,1,4.69,4.77c.41.5.81,1,1.22,1.48.2.22.4.45.61.67l.81.83a42.4,42.4,0,0,1,2.86,3.55C56.14,36.48,57,38.34,58,40.07c.39.52.77,1,1.18,1.53a7.16,7.16,0,0,0,1.18,1.21c.27.15.57.3.91.46,0,0,0,0,0,0-.2-.28-.58-.67-1-1.26l-.72-1.14-.94-1.59c-.68-1.16-1.43-2.53-2.36-4.08a31.22,31.22,0,0,0-3.56-5l-.6-.64-.4-.44c-.24-.3-.49-.61-.75-1l-1.7-2.32a29.42,29.42,0,0,0-2.14-2.62c-.41-.44-.84-.88-1.31-1.3-.23-.21-.47-.42-.73-.62L44.73,21l-.15-.15c-.43-.39-.94-1-1.62-1.68a12,12,0,0,0-3.17-2.55,8.85,8.85,0,0,0-1.38-.56,7.34,7.34,0,0,0-1.55-.31A8.55,8.55,0,0,0,34,16a11.44,11.44,0,0,0-3.54,1.7L33,16.79a8.77,8.77,0,0,0-6,2.76,8.45,8.45,0,0,0-1.47,2.14l-.16.34v0s0,0,0,0a12,12,0,0,0-.76,1.11A8,8,0,0,0,24,24.37,6.28,6.28,0,0,0,23.66,27,13.82,13.82,0,0,0,25,32c.18.37.37.73.57,1.1l.57.92c.4.59.82,1.15,1.25,1.7.87,1.08,1.79,2.07,2.72,3.07.61.67,1.12,1.31,1.61,1.88a9.35,9.35,0,0,0,.73.79,5.85,5.85,0,0,0,.84.69,6.17,6.17,0,0,1,1.56.74,18.09,18.09,0,0,1,3.3,3l.63.8a10.18,10.18,0,0,0,1,1.09,6,6,0,0,0,2.41,1.54c.47.19,1.06.49,1.77.85a9,9,0,0,1,1.38,1.64c.25.33.52.69.82,1s.74.72.65.81c.06.25.1.35.21.25.85-.78,1.07-.83,1.1-.61s0,.79,0,1.53c0,0,0,.08.12.13a1.36,1.36,0,0,1,.17.25l.24.39L50.74,59l2.35-.23a5.6,5.6,0,0,0,2.25-.71A5.43,5.43,0,0,0,57,56.6l-7.27-3.89c-.08.72-.13,1.41-.17,2a8,8,0,0,0,.58,4,8.46,8.46,0,0,0,1.55,2.37,25.12,25.12,0,0,0,4.2,3.39A35.67,35.67,0,0,1,59.59,67a15.24,15.24,0,0,1,1.85,1.85,9,9,0,0,0,1.09,1,8.78,8.78,0,0,0,1.3.85,9.36,9.36,0,0,0,2.11.79,3.57,3.57,0,0,1,1,.78c.63.56,1.43,1.28,2.2,2,1.55,1.43,3,2.86,3,2.86,1.21,1.57,2.35,2.92,3.37,4.14A8.33,8.33,0,0,0,77,82.79c.49.4.95.72,1.35,1a7.77,7.77,0,0,1,1,.83,2.62,2.62,0,0,1,.61,1l.19.67c.09.3.19.61.29.93.2.63.41,1.31.69,2a19.18,19.18,0,0,0,2.09,1.88c.77.58,1.49,1,2.24,1.53,1.47.94,2.95,1.8,4.17,2.75a11.91,11.91,0,0,1,1.58,1.47,11.13,11.13,0,0,1,1.16,1.7c.41.68.85,1.43,1.41,2.19a9.88,9.88,0,0,0,2.14,2.2,9.05,9.05,0,0,0,1.26.75,49,49,0,0,1,5.73,3.73c.21.12.42.23.66.34a5.78,5.78,0,0,0,.94.28,4.37,4.37,0,0,0,2.77-.39,3.82,3.82,0,0,0,.59-.35l.26-.19.13-.1c.18-.14.31-.26.44-.38a7.53,7.53,0,0,0,.77-.82c.8-1.3,2.34-2.48,3.21-4.22a10.52,10.52,0,0,0,.79-5.4,3.52,3.52,0,0,0-.68-1.71A10.91,10.91,0,0,0,111,92.65c-.77-.65-1.54-1.28-2.14-1.9.28,0,.57,0,.86,0l-.53-.56L109,90l-.2-.22-.7-.76c-.33-.37-.11-.43.11-.49.45-.12.88-.24.45-1a4.66,4.66,0,0,1-.43-.57s-.09-.11,0-.06l.06,0h0v-.07a.67.67,0,0,1,.1-.19l.15-.12.07,0h0s0,.11,0-.22a14.85,14.85,0,0,0-.38-1.45,11.77,11.77,0,0,0-.53-1.45,15.88,15.88,0,0,0-1.31-2.44,20,20,0,0,0-2.88-3.4,2.11,2.11,0,0,1-1-.07c-.58-.48-1.14-.91-1.68-1.32-.7.09-1.08.6-1.55.66-1.24,1.09-4.16.12-4.91,1.54-.18.52,2.27,3.43,2.51,5.08,0,.41-.89.09-1.56.2,1.16,1.5.57,1.86-.21,1.63.18.34.33.66.33.66l-.84.14a2.47,2.47,0,0,1,.29,1.8,1.43,1.43,0,0,0-.1.28s0,0,0,.07a1.93,1.93,0,0,1,0,.24l-.09.51-.24,1-1,4.29,3.66,2,.47.24a5.24,5.24,0,0,1,.52.29l.16.09.06.06.13.14.25.26.72.75.69.68.57.54s0,0,0,0a.45.45,0,0,1,.14-.07,1.07,1.07,0,0,1,.87.16c.12.12-.33.17-.38.17a13.32,13.32,0,0,1,1.32,1.06,3.15,3.15,0,0,1-.27.19s-.07,0-.07,0v0h0l2.48,2.79h0l.07.07a.57.57,0,0,1,.12.18l0,0c0,.09,0,0,0-.07a1.77,1.77,0,0,0,0-.19.85.85,0,0,1,0-.23,3.29,3.29,0,0,1,.18-.77,9.1,9.1,0,0,1,.41-1.06l.13-.26,0-.06,0,0,.67-1.37h0l-.12-.08-1-.66c-.67-.45-1.39-.93-2.14-1.39-.37-.22-.75-.44-1.13-.64l-.56-.29-.28-.13a.6.6,0,0,0-.19-.08,1.44,1.44,0,0,0-1.3.48l-.41-.49-.49-.54c-.35-.35-.71-.69-1.1-1l-.62-.58-.82-.79c-.6-.54-1.28-1.13-2.11-1.77-2.09-1.59-4.36-2.62-6.12-3.79A13.22,13.22,0,0,1,87,87.07a6,6,0,0,1-.88-.92,9,9,0,0,1-.8-1.25c-.13-.23-.26-.48-.39-.74L84.33,83a7.94,7.94,0,0,0-.67-.94,15.91,15.91,0,0,0-2.72-2.39c-.35-.26-.65-.49-.88-.69a4.29,4.29,0,0,1-.54-.59l-2.07-2.67-2-2.48c-1.44-1.71-2.86-3.35-4.27-4.94a11.62,11.62,0,0,0-1.41-1.42,14.37,14.37,0,0,0-1.59-1.13,5.77,5.77,0,0,1-1.65-1.3A24.77,24.77,0,0,0,62.71,61L61,59.72c-.49-.38-1-.84-1.5-1.26a9.84,9.84,0,0,1-2.09-2.37,1.92,1.92,0,0,1-.29-.82,1.25,1.25,0,0,1,.06-.54l-4.56-2c.43.37.31.54.29.15l3.38.26c-.09-.28-.33-1.3-.57-2a9,9,0,0,0-1-2.24A6.74,6.74,0,0,0,53,47.15,11.8,11.8,0,0,0,50.82,46l-.39-.18-.24-.11-.48-.24-1.09-.56a17.16,17.16,0,0,0-2.74-1.11,3.07,3.07,0,0,1-1.8-1.09c-.37-.41-.95-1.09-1.6-1.7a18.58,18.58,0,0,0-1.93-1.59l-1.71-1.23-.72-.55c-.24-.2-.39-.32-.69-.6-1.08-1-2.12-1.93-3.08-2.91a16.94,16.94,0,0,1-2.41-3,11.6,11.6,0,0,1-.76-1.47,7,7,0,0,1-.43-1.46,2.18,2.18,0,0,1,.1-1.51c.13-.22.3-.41.45-.62l.21-.34c.12-.23.24-.45.34-.69l.1-.25.05-.1a.94.94,0,0,1,.12-.22,1.82,1.82,0,0,1,.35-.39,2,2,0,0,1,1-.43l.66-.08.4-.3a4.54,4.54,0,0,1,1.54-.83,1.4,1.4,0,0,1,1.17.27c1.07.68,2.34,2.23,4,3.4a18.35,18.35,0,0,1,3.46,3.33,42.73,42.73,0,0,0,3.65,4.07c2.34,2.11,4,4.89,6,7.68.49.7,1,1.4,1.54,2.09.26.34.54.68.83,1a9.31,9.31,0,0,0,1.08,1.1A11.92,11.92,0,0,0,60.33,47l1,.47a3.94,3.94,0,0,1,.7.39c.13.18.27.34.41.5s0,0,.05,0l.09.1.2.2.4.39a19.38,19.38,0,0,0,1.67,1.38c.55.41,1.13.8,1.65,1.14a11.74,11.74,0,0,1,1.15.9A15.35,15.35,0,0,1,71,57.37c.5,1,1,2,1.58,3,.27.51.6,1,.94,1.57s.68,1,1,1.45c1.39,1.84,2.78,3.35,4,4.73l1.79,1.94.79.9.37.43.41.46a35.63,35.63,0,0,0,3.63,3.45c2.17,1.79,3.54,2.94,4.33,3.74A17.78,17.78,0,0,1,92,80.21Z"/></g><path class="cls-3" d="M135.27,149.89c.92-.56,1.67,1,.71,1.42C135.05,151.87,134.29,150.31,135.27,149.89Z"/><g class="cls-4"><path class="cls-5" d="M135.72,150.76a.94.94,0,0,0-.14-.13l-.09-.09s.09,0,.14,0h.06s.09,0,0,0-.08,0,0,0h-.21a3.4,3.4,0,0,0-1,.08c0,.09-.09.18-.14.28a2.15,2.15,0,0,0,.32,1.64c.12.32.76.52,1.13.85a2.44,2.44,0,0,1-1.74-.87,2.38,2.38,0,0,1-.53-1.36l-.11.12a2.51,2.51,0,0,0,.37,1.9,1.33,1.33,0,0,1,.28.35,2.68,2.68,0,0,1-.28-.35c-.25-.22-.59-.31-.84-.58-.08-.2.05-.55,0-.73s.26-.42.45-.59a1.82,1.82,0,0,1,.07-.25l-.09,0h0a2.34,2.34,0,0,0-1.47,2.46,3.26,3.26,0,0,0,.22,1,4,4,0,0,0,.5.85,2.1,2.1,0,0,0,1.19.8,1.88,1.88,0,0,0,1.25-.55,4.17,4.17,0,0,1,1-.77c.18-.08.42.22.51-.1a1.35,1.35,0,0,1,0-.5c.16-.1.33,0,.51,0s.33,0,.29-.32c0-.06.09,0,.23.12l-.4.2c.23.27.65.78,1,1.15s.68.59.58.39c-.94-1.93-.31-.47.37-.73.1,0-.27-.85-.11-.87.74,0,.34-.63.41-1.2a.76.76,0,0,1,.29-.81c.16-.18.23-.43-.39-.83-.07,0-.28-.31-.51-.5a4.19,4.19,0,0,0-.46-.31c.09-.24-.17-.37-.26-.5s0-.25.6-.73c-.69.07-.72-.1-.7-.42s.06-.75-.25-.84-.3-.35-.35-.77a3.75,3.75,0,0,0-.34-1.54c-.2-.21-.4-.16-.5-.47s-.59.46-.81.31l.09-.58-.38-.19c-.1,0-.09-.24-.07-.44a1.38,1.38,0,0,0-.13-1,3.52,3.52,0,0,0-1.61-.52c-.11.1-.21.21-.31.32a.74.74,0,0,0-.22.32,4.34,4.34,0,0,0-.2.64c.09.25.17.5.23.71v.49c.2.54.48,1.1.63,1.46l1,2.21.51,1.06.44.86a.75.75,0,0,1,0-.15v0c0-.06,0-.07,0,0v0h0c0-.14,0-.19,0-.2s0,0,0,0h0a.42.42,0,0,1-.08.13s0,0-.06.06-.07,0,0,0l.07,0h0c.26,0,.19.15,0-.21h-.16a.57.57,0,0,1,.1.19.31.31,0,0,1,0,.13c0,.09,0-.12.14-.18s.05,0-.08,0-.17,0-.15,0a.23.23,0,0,1,.07.07l.11.1Z"/></g><path class="cls-3" d="M71.22,182.24c4.33-2.16,7.88-4.56,12.25-5.42a56.07,56.07,0,0,0,9.68-1.94c3.35-1.12,6.55-1.19,9.93-2,2.9-.7,6.47.39,8.94-1.28-.16,1.58,3.68,3.48,4.89,4.67,1.48,1.45,3,3.6,5.53,3.69,5.77.19,2.07,8.24,1,12.24.24,3,3.62,13.12-4.3,12.81-5-.18-3.36-9-11.11-6-4.54,1.76-11.73,1.78-15.12,0a16.09,16.09,0,0,0-7.62-1.15c-2.57.2-4.41-.28-6.87-.3-4.15-.11-7.71-1.7-11-3.17C63.41,192.54,65.36,184.39,71.22,182.24Z"/><g class="cls-4"><path class="cls-5" d="M72.67,186.22a3.14,3.14,0,0,0-3,.94,5.74,5.74,0,0,0-1.44,2,4.37,4.37,0,0,0-.41,2.27c0,.12,0,.31.09.38a.84.84,0,0,1,.05.17.24.24,0,0,1,.09.11c0,.12.15.12.2.23.2.12.55.29.81.43,1.14.59,2.24,1.14,3.29,1.6A24.31,24.31,0,0,0,78,196.06c.53.08,1.22.12,1.8.21s1.12.18,1.61.27l2.47.46c.59.08.2.1-.85-.05-.53-.08-1.22-.22-2.08-.39-.43-.08-.9-.18-1.41-.26s-1.08-.14-1.54-.24a21.58,21.58,0,0,1-6.17-1.86,25.14,25.14,0,0,0,4.13,2.37,36.13,36.13,0,0,0,3.9,1.36,42.85,42.85,0,0,0,5.21.44,16,16,0,0,1,7.64,1.32l-.07,0a13.08,13.08,0,0,0,3.71,1.24,25.27,25.27,0,0,0,3.77.41,28.33,28.33,0,0,0,7.58-.75c.54-.13,1.22-.36,2-.49a3.44,3.44,0,0,1,2.41.4,4.69,4.69,0,0,1,1.52,1.93l.48,1,.27.55c.09.18.23.39.33.57-.83-1.17-1-1.74-1.5-2.44a3.38,3.38,0,0,0-1.79-1.56,4.06,4.06,0,0,0-2.39.08c-.39.11-.78.23-1.17.37s-1.1.31-1.67.42a27.73,27.73,0,0,1-6.9.55,17,17,0,0,1-7-1.61l.13.06a14.61,14.61,0,0,0-6.63-1.19c.29,0,.56.06.83.1a14.39,14.39,0,0,1,5.68,1.39l-.16-.08a16.2,16.2,0,0,0,6.05,1.74,28.56,28.56,0,0,0,6,0c1.08-.14,2.2-.32,3.33-.56a22.7,22.7,0,0,1-3.33.56,28.31,28.31,0,0,1-8.78,0,11.44,11.44,0,0,1-3.5-1.39l.21.1a9.34,9.34,0,0,0-2-.81,29.87,29.87,0,0,0-3.53-1c-.4,0-.78,0-1.23,0s-1,0-1.44,0a8,8,0,0,1-.87,0l0,0a4.13,4.13,0,0,0,1.36.51,10.21,10.21,0,0,0,1.15.19l1.08.2a15.58,15.58,0,0,1,5,1.95l-.31-.15a14.6,14.6,0,0,0,3.39,1.53,21.12,21.12,0,0,0,3.29.77,27.68,27.68,0,0,0,6.24.28,25.23,25.23,0,0,0,2.85-.35c.45-.08.87-.19,1.27-.29l.27-.06h.08l.16,0a4.66,4.66,0,0,0,.52-.11,2.33,2.33,0,0,0,.37-.08,2.68,2.68,0,0,1,1.76-.08,3.2,3.2,0,0,1,.93.54,2.88,2.88,0,0,1,.32.34l.41.48c.18.21.37.42.55.64s.46.47.69.7a9.39,9.39,0,0,0,1.1.92,5.25,5.25,0,0,0,1.26.73,4.89,4.89,0,0,0,.65.26l.64.12.63.06a1.72,1.72,0,0,0,.54,0c.13-.21.67-.31,1.26-.53a10.65,10.65,0,0,0,2.43-.55,6.56,6.56,0,0,0,2.38-1.46,5.36,5.36,0,0,0,1.78-4.09,13.93,13.93,0,0,1,1.46-3.42c.62-1.26,1.1-2.38.79-2.48-1.12-.37-1.28-.41-1.18-.75,0-.17.15-.41.23-.79a5.54,5.54,0,0,0,.07-.67c0-.12,0-.26,0-.4a1.48,1.48,0,0,0,0-.21c0-.08-.46-.26-.69-.54a.26.26,0,0,1,0-.29,2.4,2.4,0,0,0,.23-.29.52.52,0,0,0,.09-.17l.11-.3a6.67,6.67,0,0,0,.24-1.18c.1-.82.13-1.7.35-3.18.1-1.22.18-2.17.25-3a10,10,0,0,0-.14-2.9,5.62,5.62,0,0,0-2.12-3.3,5.15,5.15,0,0,0-4.12-.86.35.35,0,0,0-.22.07,1.06,1.06,0,0,1-.27.09,2,2,0,0,1-1-.16,6.46,6.46,0,0,1-1.33-.76l-.66-.48c-.25-.29-.47-.54-.79-.85a7.72,7.72,0,0,0-.84-.71c-.27-.19-.52-.35-.76-.5l-1.31-.8-.29-.18-.07,0,0,0-.08,0-.33.1-.33.1-.17,0s0,0-.08,0l-.33-.24a5.86,5.86,0,0,1-1.11-1.05,1.48,1.48,0,0,1-.31-.61l0-.15c0-.07-.09,0-.12,0l-.3,0a3,3,0,0,1-1.42-.3,8.23,8.23,0,0,1-.87,0c-.29,0-.67-.23-.93-.23a6.06,6.06,0,0,1-1.4.2c-1,.05-2.19-.06-3.54,0-.34,0-.7.06-1.06.11l-.79.09-1.56.14a21.84,21.84,0,0,0-3.12.41c-1,.22-1.93.38-2.78.5l-1.24.17-.6.07-.54,0c-1.22,0-2.49-.18-4.17-.31a7.68,7.68,0,0,1-2.22.05,2.07,2.07,0,0,0-1.23.32,7.35,7.35,0,0,1-.77.32,2.48,2.48,0,0,1-.39.1c-.21,0-.42,0-.62.08.1-.22.2-.43.31-.63-.27,0-.74.08-1,.1s-.63.08-.84.11c-.42.06-.37-.15-.32-.37.1-.42.23-.86-.61-.93a23.5,23.5,0,0,0-5.32,1.25,34.67,34.67,0,0,0-3.64,3,2.16,2.16,0,0,1,0,.84l-.87,1c.06.62.42,1.14.45,1.56.78,1.45-.05,3.66,1,4.81.35.32,2.62-.69,3.93-.53.34.09.07.84.12,1.47,1.26-.67,1.62-.15,1.36.58l.62-.22.08.84a27,27,0,0,1,4.82-.95c.7-.08,1.31-.13,1.85-.22l.2,0h0l.36-.06a11,11,0,0,0,1.42-.38,17.3,17.3,0,0,0,2.92-1.32,6.36,6.36,0,0,1,1.88-.14c.53-.66.3-1.26.44-1.88a18.88,18.88,0,0,0,2.81-.3c.33-.06.45-.07.62-.09l.51-.06c.34,0,.68-.08,1-.14,1.33-.22,2.63-.67,2.38-1.69,2.07-.23,2.4-1.21,4.73-1.83a15.35,15.35,0,0,1,4-.4l.75-.05c.24,0,.58,0,.64-.07a4.89,4.89,0,0,0,.74-.16,4,4,0,0,0,.71-.31c.31-.32.18.16.37.32h0a3.5,3.5,0,0,0,.6.55l1,.7c.82.58,1.7,1.17,2.07,1.49a1.79,1.79,0,0,0,.14.13l1.15,1.17a13.66,13.66,0,0,0,2.63,2.15,8.08,8.08,0,0,0,1.86.83,9.05,9.05,0,0,0,1,.24l.53,0,.27,0h.09a1.28,1.28,0,0,1,.33.06,3.88,3.88,0,0,1,.22-.46l.08-.11,0,0-.08.06-.19.12-.32.16c-.08,0,0,0,0,0a1.64,1.64,0,0,1,0,.39,13.61,13.61,0,0,1-.8,3.58l-.72,2.1-.2.55-.26.79-.48,1.62c0,.56.09,1.13.16,1.69l.23,1.49c.12.76.22,1.46.31,2.15a13.23,13.23,0,0,1,.06,3.47c-.08.39-.17.6-.17.65s0,.12-.26.25a3,3,0,0,1-.58.16l-.4.06a.12.12,0,0,0-.1,0c-.08,0-.15.19-.56-.11l-.39-.38-.51-.67c-.42-.62-.86-1.21-1.31-1.78a7.22,7.22,0,0,0-3.4-2.45,9.58,9.58,0,0,0-1-.21l-1.06,0c-.35,0-.7.1-1,.14a4.19,4.19,0,0,0-1,.25,19.6,19.6,0,0,0-2,.68c-.38.15-.53.19-.79.28s-.48.15-.72.22a21.26,21.26,0,0,1-6.06.7,12.8,12.8,0,0,1-5.47-1.16l0,0-.12-.06a19.06,19.06,0,0,0-7.51-1.58l-.94,0h-.71c-.48,0-1-.06-1.45-.12l-3.18-.47c-.54-.08-1.24-.12-1.63-.18s-.86-.13-1.28-.22a17.36,17.36,0,0,1-2.48-.76,37,37,0,0,1-4.6-2.26l-.55-.31-.27-.15-.14-.08,0,0h0s0-.07,0,0v0a.42.42,0,0,1-.1.2c0,.07,0,0,0,0l.05,0s0,0,.06,0a.83.83,0,0,1,.16-.12.7.7,0,0,1,.17-.09s0,0,0,0l0-.06a.88.88,0,0,0,0-.15A4.85,4.85,0,0,1,70,189.1a5.2,5.2,0,0,1,2.14-1.81c.06-.16.12-.37.2-.54Z"/></g><path class="cls-3" d="M144,240.44l.38.21c.92,1.32-1.93,1.69-1.2.17Z"/><g class="cls-4"><path class="cls-5" d="M145.81,244.27A8,8,0,0,0,144,242a2.59,2.59,0,0,1-.35-.38l.42-.42-.06,0c-.07,0-.07,0,0,0l-.38.39c.06.06.19.21.38.44a3.3,3.3,0,0,0,.35.28l-1.18-1.85a.38.38,0,0,1-.13-.06l-.23.23-.08,0a1,1,0,0,0-.47.43,2.25,2.25,0,0,0-.33,1,1.45,1.45,0,0,0,.2.7,3.38,3.38,0,0,1,.34.72,2.37,2.37,0,0,1-1-1.91,2.13,2.13,0,0,1,.18-.77,2.81,2.81,0,0,1,.29-.46h-.14l-.29.2a.78.78,0,0,0-.28.31,1.89,1.89,0,0,0-.38,1.09,1.49,1.49,0,0,1,0,.52,4.56,4.56,0,0,1,0-.52,3.75,3.75,0,0,0-.15-.58,1.7,1.7,0,0,1-.09-.5.66.66,0,0,1,.24-.29,2.59,2.59,0,0,0,.25-.17c.09-.09.45-.07.7-.06l.17-.09,0,0v0h0l.68-.69h0v0h0l-.73.73h0l-.07,0-.15,0-.31-.06a2.93,2.93,0,0,0-.66,0,1.82,1.82,0,0,0-1.38.74,2.9,2.9,0,0,0-.5.86,4.35,4.35,0,0,0-.12,1.23,2.57,2.57,0,0,0,.64,1.67c.79.73,2.16.11,2.69.22.18,0,.2.4.44.17a1.56,1.56,0,0,1,.28-.41c.17,0,.25.18.36.3s.24.17.37-.11c.07-.11.15.62.28,1.3s.31,1.32.32,1c0-2.13,0-.57.45-.42.07,0,.1-.84.2-.76.4.46.36-.27.59-.59s.31-.3.48-.29.31-.05.17-.76c0-.08,0-.39,0-.67s-.06-.55-.06-.55c.24-.11.2-.4.25-.57s.2-.26,1-.26c-.52-.49-.45-.67-.24-1s.45-.62.27-.87-.05-.43.22-.68a6.79,6.79,0,0,0,.91-1.06c.06-.19-.08-.22.12-.45s0-.1-.08-.1l-1.61-1.43c-.09.13-.25.39-.23.3l.29-.51.05-.18s.11-.22.21-.39c.19-.34.37-.67.5-.94s.2-.55.25-.72l-.57.8c-.13.23-.26.47-.37.65l-.24.37-.76,1.4c-.8,1.43-1.56,2.83-2.29,4.14-.2.39-.21.54-.55,1.24-.11.21-.37.67-.66,1.18a5.65,5.65,0,0,1-.52,1l0,.09-.38.68c-.25.69-.82,2-.38,1.38h0l2.22-5.56h0l0,0,.07-.06.09,0,0,0c.06,0,.22-.09.28-.12l.1,0a1.49,1.49,0,0,1,.17,0,.16.16,0,0,1,.07,0s0,0,0,0-.06,0-.09-.06a.08.08,0,0,1,0,0,.79.79,0,0,1-.19-.33.77.77,0,0,1-.08.46c-.09.19-.15.11.05.11a1,1,0,0,1,.48.06,1.92,1.92,0,0,1,.62.25l-.6,1.26a19.38,19.38,0,0,1,1.88,2.1Z"/></g><path class="cls-3" d="M128.87,204.41a8.74,8.74,0,0,1,4.22,2.07c1.07.85,2.27.88,3.27,1.62,1.21.77,2.21,2.06,3.74,2.13a10.81,10.81,0,0,1,4.47,1.05c2.27,1.17,4.66,2.94,7.35,3.21,1.53.16,3.09-.71,4.55-.45s2.52,1.05,3.89,1.3a24.94,24.94,0,0,0,6.82.46,21,21,0,0,0-1.25,6.45,11.26,11.26,0,0,1,1.91-1.43c1.19-1.67,1.37-3.87,2.23-5.7h0c1.25-.5,3.33-.3,4.69-.45a5.43,5.43,0,0,0,1.11-.21,1.28,1.28,0,0,0,.22.24c0-.1,0-.19,0-.28a23,23,0,0,1,2.48-.54,49.92,49.92,0,0,1,4.46-2.53l0,0h0a45.37,45.37,0,0,1,5.14-2.19c9.18-3.24,14-9,20.08-17.28s17.57-12.93,21.82-25c-.65-1.5-.39-3.21-.85-4.75-1.38-1.19-3.72-1.47-4.29-3.39a34.58,34.58,0,0,1,4.24-5,44.11,44.11,0,0,0-7.15-11.54,30,30,0,0,0-3.17,4c-1.29-3.74-2.79-9.9-6-8.08-.65-2.06.72-2.27-1.69-3.34,0-.87.42-1.16,1.18-.87a10.46,10.46,0,0,0-.87-1.08c0-.06.05-.12.09-.19a8.87,8.87,0,0,1,1.07-.32c-.59-.69-1.14-1.39-1.65-2.07-.2.56-.43,1.1-.67,1.62a16.87,16.87,0,0,1-1.45-1.12c-.67-2.14-2.15-2.28-3.27-4-2.74-2.16-2.92-6.56-5.42-8.7a8.63,8.63,0,0,1-2.47-3.23c-.95-1.83-3-2.7-4-4.49s-1.77-4-2.94-5.75c-.81-1.23-3.15-1.51-3.57-3a2.68,2.68,0,0,0-1.76-1.44,8.67,8.67,0,0,0,.29-1.74c-2-.9-1.53-2.85-2.54-4.63a4.81,4.81,0,0,0-.9-.59,11.92,11.92,0,0,0-2.3-3.08,2.24,2.24,0,0,0-.6,1.09,2.49,2.49,0,0,0-.23-.23,19.68,19.68,0,0,0-4-4.65c-1.3-1-2.56-1.87-3.82-2.93a2,2,0,0,0-2-.72c-1.57,0-1-.92-2.19-1.81-4.52-3.28-8,1.39-11.54,3.67-1.75,1.12-2.89.06-4.75.27-.65.21-1.26.43-1.87.69-1-.08-1.91-.83-3-.64-3.71.42-6.82,2.07-10.3,3.25-3,1-6.58,2-9.29,3.6-1.61,1.08-3.63.92-5.45,1.33-2.22.49-3.54,2.65-5.35,3.89-3,2.06-6.08,2.23-7.63,5.86-.71,1.84-.5,3.7-1.37,5.58a21,21,0,0,0-1.47,5.55c-.73,4.46-5.35,4.65-8.38,7.3a60,60,0,0,0-9.78,10.61c-1.32-1.74-2.24-3.78-3.87-5.27-1.28-1.6-1.53-3.71-2.44-5.5-2.23-4.41-5.85-5.79-10.3-7.41-3.09-1.2-8.24,1.21-10.51-1.58-2.58-3.17-5.32-6-9-7.89-1.91-1-3.39-2.66-5.24-3.76s-3.25-1-5.26-1.51a45.06,45.06,0,0,0-5.33-.93c-1.78-1.34-2.61-4.28-4.17-6A4,4,0,0,0,29,90.65,4.48,4.48,0,0,0,27.49,88c-1.89-1.9-4.2-2.81-6.23-4.43a10.33,10.33,0,0,0-5.83-2.45c-1.83-.24-4-1.55-5.78-1.31-3.65-.29-5.34,3-7.7,5.07-.59,3.57.75,5.24,2.46,8.4.93-.6,1.33.62,2.16,1.21A3.67,3.67,0,0,1,8.1,96.05a1.87,1.87,0,0,1,1.52.28A7.92,7.92,0,0,1,11.33,98c.76,1,2.31.84,3,2,.91,1.9,5,3.91,7,4.12,2.84,1.48,6.87,1,8.8,3.89a12.32,12.32,0,0,0,4.55,3.9c1.62.52,1.91,2.24,2.69,3.4,1.46.62,2.84,1,4,2.16.94,1,1.56,2.21,2.45,3.23,1.22,1.35,3.24,1.52,4.94,2,1.5.38,3.82.34,4.74,1.84a8.32,8.32,0,0,0,3.55,2.7c5.17,2,9.3,5.79,14.51,7.55,2,.7,5.19.46,6.15,3,.68,1.38,0,2.59,1.62,3.58,1.13.66,2.71,1.86,4,1.66,2.66-.43,4.52-1.07,6.31,1.43s4.81,4.15,6.94,6.46,5.5,3.57,8.29,5.24c1.31.76,2.24-.09,3.13,1.38a7,7,0,0,1,.93,4.21c2.59-.19,6.3,2.27,8.09,4.07.73.78,1.85.1,2.69.51,1,.54.95,2.72,1.08,3.67.39,3,2.71,4.66,3.12,7.65a13.73,13.73,0,0,1-.14,4.34c-.26,1.75.9,3.11,1.3,4.69s0,3,.25,4.43c.22,1.21,1.35,2.4,1.13,3.67C125.91,198.21,126.17,201.75,128.87,204.41Zm83.35-55.91c.34-.78.53-1.88,1.5-2.18,1.29-.34,1.34-1.45,2.3-.16C215,148.11,214.53,148.83,212.22,148.5Z"/><path class="cls-6" d="M128.87,204.41a8.74,8.74,0,0,1,4.22,2.07c1.07.85,2.27.88,3.27,1.62,1.21.77,2.21,2.06,3.74,2.13a10.81,10.81,0,0,1,4.47,1.05c2.27,1.17,4.66,2.94,7.35,3.21,1.53.16,3.09-.71,4.55-.45s2.52,1.05,3.89,1.3a24.94,24.94,0,0,0,6.82.46,21,21,0,0,0-1.25,6.45,11.26,11.26,0,0,1,1.91-1.43c1.19-1.67,1.37-3.87,2.23-5.7h0c1.25-.5,3.33-.3,4.69-.45a5.43,5.43,0,0,0,1.11-.21,1.28,1.28,0,0,0,.22.24c0-.1,0-.19,0-.28a23,23,0,0,1,2.48-.54,49.92,49.92,0,0,1,4.46-2.53l0,0h0a45.37,45.37,0,0,1,5.14-2.19c9.18-3.24,14-9,20.08-17.28s17.57-12.93,21.82-25c-.65-1.5-.39-3.21-.85-4.75-1.38-1.19-3.72-1.47-4.29-3.39a34.58,34.58,0,0,1,4.24-5,44.11,44.11,0,0,0-7.15-11.54,30,30,0,0,0-3.17,4c-1.29-3.74-2.79-9.9-6-8.08-.65-2.06.72-2.27-1.69-3.34,0-.87.42-1.16,1.18-.87a10.46,10.46,0,0,0-.87-1.08c0-.06.05-.12.09-.19a8.87,8.87,0,0,1,1.07-.32c-.59-.69-1.14-1.39-1.65-2.07-.2.56-.43,1.1-.67,1.62a16.87,16.87,0,0,1-1.45-1.12c-.67-2.14-2.15-2.28-3.27-4-2.74-2.16-2.92-6.56-5.42-8.7a8.63,8.63,0,0,1-2.47-3.23c-.95-1.83-3-2.7-4-4.49s-1.77-4-2.94-5.75c-.81-1.23-3.15-1.51-3.57-3a2.68,2.68,0,0,0-1.76-1.44,8.67,8.67,0,0,0,.29-1.74c-2-.9-1.53-2.85-2.54-4.63a4.81,4.81,0,0,0-.9-.59,11.92,11.92,0,0,0-2.3-3.08,2.24,2.24,0,0,0-.6,1.09,2.49,2.49,0,0,0-.23-.23,19.68,19.68,0,0,0-4-4.65c-1.3-1-2.56-1.87-3.82-2.93a2,2,0,0,0-2-.72c-1.57,0-1-.92-2.19-1.81-4.52-3.28-8,1.39-11.54,3.67-1.75,1.12-2.89.06-4.75.27-.65.21-1.26.43-1.87.69-1-.08-1.91-.83-3-.64-3.71.42-6.82,2.07-10.3,3.25-3,1-6.58,2-9.29,3.6-1.61,1.08-3.63.92-5.45,1.33-2.22.49-3.54,2.65-5.35,3.89-3,2.06-6.08,2.23-7.63,5.86-.71,1.84-.5,3.7-1.37,5.58a21,21,0,0,0-1.47,5.55c-.73,4.46-5.35,4.65-8.38,7.3a60,60,0,0,0-9.78,10.61c-1.32-1.74-2.24-3.78-3.87-5.27-1.28-1.6-1.53-3.71-2.44-5.5-2.23-4.41-5.85-5.79-10.3-7.41-3.09-1.2-8.24,1.21-10.51-1.58-2.58-3.17-5.32-6-9-7.89-1.91-1-3.39-2.66-5.24-3.76s-3.25-1-5.26-1.51a45.06,45.06,0,0,0-5.33-.93c-1.78-1.34-2.61-4.28-4.17-6A4,4,0,0,0,29,90.65,4.48,4.48,0,0,0,27.49,88c-1.89-1.9-4.2-2.81-6.23-4.43a10.33,10.33,0,0,0-5.83-2.45c-1.83-.24-4-1.55-5.78-1.31-3.65-.29-5.34,3-7.7,5.07-.59,3.57.75,5.24,2.46,8.4.93-.6,1.33.62,2.16,1.21A3.67,3.67,0,0,1,8.1,96.05a1.87,1.87,0,0,1,1.52.28A7.92,7.92,0,0,1,11.33,98c.76,1,2.31.84,3,2,.91,1.9,5,3.91,7,4.12,2.84,1.48,6.87,1,8.8,3.89a12.32,12.32,0,0,0,4.55,3.9c1.62.52,1.91,2.24,2.69,3.4,1.46.62,2.84,1,4,2.16.94,1,1.56,2.21,2.45,3.23,1.22,1.35,3.24,1.52,4.94,2,1.5.38,3.82.34,4.74,1.84a8.32,8.32,0,0,0,3.55,2.7c5.17,2,9.3,5.79,14.51,7.55,2,.7,5.19.46,6.15,3,.68,1.38,0,2.59,1.62,3.58,1.13.66,2.71,1.86,4,1.66,2.66-.43,4.52-1.07,6.31,1.43s4.81,4.15,6.94,6.46,5.5,3.57,8.29,5.24c1.31.76,2.24-.09,3.13,1.38a7,7,0,0,1,.93,4.21c2.59-.19,6.3,2.27,8.09,4.07.73.78,1.85.1,2.69.51,1,.54.95,2.72,1.08,3.67.39,3,2.71,4.66,3.12,7.65a13.73,13.73,0,0,1-.14,4.34c-.26,1.75.9,3.11,1.3,4.69s0,3,.25,4.43c.22,1.21,1.35,2.4,1.13,3.67C125.91,198.21,126.17,201.75,128.87,204.41Zm83.35-55.91c.34-.78.53-1.88,1.5-2.18,1.29-.34,1.34-1.45,2.3-.16C215,148.11,214.53,148.83,212.22,148.5Z"/><g class="cls-4"><path class="cls-5" d="M212.8,144.31a3.72,3.72,0,0,0,.29,1.83c.18.39.31.63.49,1a4.43,4.43,0,0,0,.36.45c.13.13-.12,0-.36-.45l-.25-.37a5.82,5.82,0,0,0,.86,2c.14,0,.29,0,.46,0a2.43,2.43,0,0,0,1-.36,4.85,4.85,0,0,1,.94-.47c.28-.08.54-.44,1-.42-.27.3-.57.63-.93,1a4.61,4.61,0,0,1-1.47,1l.16.06a6.38,6.38,0,0,0,2-.8.51.51,0,0,1,.27-.15l-.27.15c-.16.19-.17.52-.37.8s-.57.11-.79.22-.53-.1-.8-.22a1.86,1.86,0,0,1-.33,0,.23.23,0,0,1,0,.11v0a1.89,1.89,0,0,0,1.18.73,4.11,4.11,0,0,0,1.81-.05c1.16-.27,1.9-.64,1.86-.85s-1-1.15-1-1.43c0-.09.32,0,.09-.17a3.6,3.6,0,0,1-.39-.29c0-.08.12-.08.23-.09l-.24-3.23c0-.18,0-.35-.32-.22s1.66-2.49,1.09-2.22c-.83.68-.92.8-.89.63a2.28,2.28,0,0,0,.06-.41.64.64,0,0,0,0-.27,1,1,0,0,0-.28-.34c-.06-.06-.33,0-.58.11a1.94,1.94,0,0,1-.39.12.63.63,0,0,1-.37-.06,1.84,1.84,0,0,0-1.8-.31,3.09,3.09,0,0,0-.74.39l-.37.25a2,2,0,0,1-.27.23c-.31.33-.33.42-.49.5s-.19,0-.28.05-.15,0-.12.1a1.48,1.48,0,0,0,.24.53c.07.13.44.93.44.93-.16-.14.32.81-.52-.48-.14.74-.39.81-.82.88s-.93.12-1,.45c-.16.61-1.15.22-2.2.29-.19.07-.13.18-.43.14s.4.42.23.46l-.53-.24-.23.06a1.39,1.39,0,0,1-.41-.15,5.34,5.34,0,0,0-1-.36c-.36,0-.64,0-.84.08a4.32,4.32,0,0,0,.86.49l.69.28a3.42,3.42,0,0,0,.4.17l1.47.62c1.52.61,2.95,1.33,4.33,1.92.4.16.62,0,1.37.22a13,13,0,0,1,1.24.54c.05-.12.64.09,1.11.34l.11,0,.71.31a6.27,6.27,0,0,1,1.31,0,2.7,2.7,0,0,0,.35,0h0l-1.41-.59c-.44-.17-1.18-.5-1.58-.69l-.57-.27-.25-.13a5.87,5.87,0,0,1-.53-.29,3.22,3.22,0,0,1-.43-.27,3.43,3.43,0,0,1-.31-.23l-.15-.14-.09-.1s0-.07,0,0a.55.55,0,0,1,0,.09v0h0l.46,1.61h0l0,0,.17-.08a2.32,2.32,0,0,1,.72-.41l.25-.16a2.29,2.29,0,0,1,.76-.41h.05v0l-.07-.1c-.15-.24-.43-.67-.4-.61a7.11,7.11,0,0,1-.65-1.07,1.58,1.58,0,0,1-.2-.42s0-.17,0-.15a2.22,2.22,0,0,1-.67,1c-.13.12-.35.37-.53.53s-.38.33-.63.54c-.42.37-.23.21-.25.24l.07,0-.27-3.7a1.66,1.66,0,0,0,.29.65c.5.74.54,1.25.38,1.42a.12.12,0,0,1-.12,0s-.12-.1-.09,0,.06.11,0,0l0-.07a.64.64,0,0,1-.06-.18,4.47,4.47,0,0,1-.11-.52l0-.15,0-.2,0-.19c0-.24-.07-.5-.09-.73a9.19,9.19,0,0,0-.15-1Z"/></g><g class="cls-4"><path class="cls-5" d="M125.9,207.42a12.83,12.83,0,0,1-2.29-3.57,13.82,13.82,0,0,1-1.09-4.61,20.76,20.76,0,0,1,.3-4.77l.05-.32h0l1.66.26h0s0,0-.06,0a3.11,3.11,0,0,0-.74.07c-.21,0-.37.09-.72.18-.08,0,0,0,0,0a1.19,1.19,0,0,0-.07-.23c0-.16-.35-.77-.52-1.24a7.14,7.14,0,0,1-.42-1.57,12.65,12.65,0,0,1-.12-1.75c0-.61,0-1,0-1.36l0-.45v-.35a2.16,2.16,0,0,0-.12-.71c-.09-.27-.1-.32-.38-1a11,11,0,0,1-.59-1.79,6.59,6.59,0,0,1-.17-1.88c0-.32.06-.64.11-1l.14-.83a9.55,9.55,0,0,0,.1-2.14,4.56,4.56,0,0,0-.43-1.78c-.27-.65-.77-1.45-1.3-2.49a11.07,11.07,0,0,1-1.21-3.77c0-.22,0-.46-.05-.66l0-.49a6.91,6.91,0,0,0-.06-.75l0-.24v-.08h0L118,168a3.78,3.78,0,0,0,.91-.54c.15-.08.31-.39.18-.1a.31.31,0,0,0,0,.08l-.06.19,0,.28V168c0-.17-.2,1.47-.11.77h0a.19.19,0,0,1-.1,0l-.69,0a5.45,5.45,0,0,1-1.32-.18,3,3,0,0,1-1.15-.67c-.35-.28-.71-.58-1-.9l-.24-.22-.23-.18-.32-.27c-.22-.17-.44-.33-.68-.49a14.85,14.85,0,0,0-1.4-.88l-.36-.18-.09,0-.16-.07c-.09-.08-.16-.16-.24-.24a3.94,3.94,0,0,0-1-.76,7.79,7.79,0,0,0-1.93-.89c-.17,0-.16-.17-.19-.3s-.07-.28-.11-.42a7.52,7.52,0,0,0-.33-.89,11.87,11.87,0,0,0-1-1.94c0-.06-.09-.21-.15-.32a1.21,1.21,0,0,0-.14-.26s0,0,0,0a3.32,3.32,0,0,0,.27-.25,1.88,1.88,0,0,0,.27-.3c.06-.1,0-.05,0,0a1.72,1.72,0,0,0-.07.21,4.18,4.18,0,0,0-.13.51c0,.12,0,0-.07,0l-.15,0-.42-.06a5.66,5.66,0,0,1-.82-.16,6.16,6.16,0,0,1-1.51-.72l-.85-.48-.77-.43-1.63-.87a25.87,25.87,0,0,1-3.36-2.15,13.44,13.44,0,0,1-1.58-1.45l-.58-.61c-.19-.19-.37-.37-.57-.55-.8-.74-1.72-1.46-2.67-2.26a20.72,20.72,0,0,1-2.79-2.76c-.21-.24-.44-.58-.6-.79a3.72,3.72,0,0,0-.36-.45,1.61,1.61,0,0,0-.64-.46,2.47,2.47,0,0,0-1-.1c-.21,0-.45,0-.7.07l-1,.16a5.66,5.66,0,0,1-2.09,0,6.91,6.91,0,0,1-1.92-.75c-.31-.16-.6-.34-.89-.52l-.77-.5a5.89,5.89,0,0,1-.9-.64,3.8,3.8,0,0,1-.92-1.15,3.23,3.23,0,0,1-.15-.34l-.07-.17,0-.11a1.93,1.93,0,0,1-.08-.33l-.08-.6a3.7,3.7,0,0,0-.36-1.14,2.93,2.93,0,0,0-1.82-1.38,11.34,11.34,0,0,0-1.11-.29l-1.28-.3-.83-.25-.71-.28c-.47-.18-.92-.39-1.37-.59-.88-.42-1.71-.87-2.5-1.32-1.57-.91-2.95-1.84-4.24-2.66s-2.24-1.38-3.33-1.95c-.54-.29-1.08-.55-1.62-.79l-.4-.18a5.11,5.11,0,0,1-.48-.22c-.3-.14-.59-.29-.88-.46a8.47,8.47,0,0,1-3-2.71,3,3,0,0,0-2-1l-1.54-.3-1.47-.38a11.22,11.22,0,0,1-3-1,5.81,5.81,0,0,1-2.08-2.07c-.55-.82-.91-1.43-1.34-2a5.38,5.38,0,0,0-.7-.76c-.09-.08,0,0,.23.18a6.48,6.48,0,0,1,1,1.16l.75,1.11a10.11,10.11,0,0,0,1.1,1.42,7.92,7.92,0,0,0,4,1.86l1.11.28c.46.13.87.2,1.29.28a7.38,7.38,0,0,1,2.18.64,1.52,1.52,0,0,1,.6.58,6.92,6.92,0,0,0,1.12,1.33,11.34,11.34,0,0,0,2.83,1.88,28.4,28.4,0,0,1,2.82,1.39c.93.53,1.86,1.11,2.83,1.73,1.74,1.08,3.57,2.29,5.67,3.38a27.66,27.66,0,0,0,3.39,1.46c.35.11.68.2,1,.27l.74.16a13.28,13.28,0,0,1,1.38.35,3.64,3.64,0,0,1,1.26.7,2.88,2.88,0,0,1,.76,1.25c.17.49.14,1,.29,1.51l0,.12.08.21a3.49,3.49,0,0,0,.19.39,3.19,3.19,0,0,0,.53.72,3.81,3.81,0,0,0,.61.54l.31.22.21.13.94.59a10.5,10.5,0,0,0,1.09.61,5.16,5.16,0,0,0,2.4.65c.43,0,.85-.08,1.27-.14s.92-.15,1.18-.17a3.59,3.59,0,0,1,1.42,0,4.46,4.46,0,0,0-2-.06,6.37,6.37,0,0,1-3.16-.07A12.4,12.4,0,0,1,79,142.74l-.55-.38a3.89,3.89,0,0,1-.72-.64,3.11,3.11,0,0,1-.79-1.61c0-.36,0-.73-.12-1.09a4.32,4.32,0,0,0-.35-1.05,3.06,3.06,0,0,0-1.6-1.41,14.36,14.36,0,0,0-2.08-.65c-.31-.08-.8-.21-1.2-.35s-.79-.32-1.18-.48a53.8,53.8,0,0,1-7.92-4.89c-1.2-.82-2.37-1.59-3.55-2.25-.59-.33-1.19-.64-1.77-.92a11.14,11.14,0,0,1-1.57-1,6.54,6.54,0,0,1-1.84-1.75,3.82,3.82,0,0,0-2.49-1.56c-.93-.24-1.83-.31-2.68-.54s-1.78-.39-2.58-.67a4.36,4.36,0,0,1-2.12-1.4c-.53-.67-1-1.4-1.56-2.2a6.58,6.58,0,0,0-2.16-2,25.81,25.81,0,0,0-2.61-1.15h0l.24.2a10.8,10.8,0,0,1-.61-1.15,8.34,8.34,0,0,0-.69-1.24,3.23,3.23,0,0,0-1-1c-.41-.22-.86-.38-1.27-.62A12.82,12.82,0,0,1,30.83,108a6.19,6.19,0,0,0-1.93-2,9.31,9.31,0,0,0-2.55-1.06,24.82,24.82,0,0,1-4.73-1.44l-.1,0-.16,0a11.55,11.55,0,0,1-3.62-1.37A10.87,10.87,0,0,1,16.12,101,4.28,4.28,0,0,1,15,99.67l0,0v0a2.81,2.81,0,0,0-1-1,7.07,7.07,0,0,0-.95-.43,3.28,3.28,0,0,1-.82-.45,5.09,5.09,0,0,1-.62-.69,9.22,9.22,0,0,0-.78-.85,4.4,4.4,0,0,0-1.14-.78,1.86,1.86,0,0,0-1.18-.17c-.1.06-.1-.09-.15-.14l-.13-.22a4.08,4.08,0,0,0-.31-.39,3.32,3.32,0,0,0-.77-.63,3.06,3.06,0,0,1-.71-.68,1.48,1.48,0,0,0-.78-.58.72.72,0,0,0-.47.13,2.73,2.73,0,0,1-.24-.42l-1-1.91A11.07,11.07,0,0,1,3,88.56a6.63,6.63,0,0,1-.28-2,6.5,6.5,0,0,1,.08-1c0-.16,0-.36.12-.47l.37-.34c1.55-1.47,2.93-3.56,5.12-4a7.3,7.3,0,0,1,3.22.2,24.68,24.68,0,0,0,3.7,1.09A9.48,9.48,0,0,1,19,83.27a14.14,14.14,0,0,1,1.62,1.15c.6.48,1.23.91,1.84,1.31a32.58,32.58,0,0,1,3.43,2.35c.25.21.48.43.71.66a8,8,0,0,1,.64.71,2.61,2.61,0,0,1,.6,1.39l.11.7.71.24a2.88,2.88,0,0,1,1.46,1,11.84,11.84,0,0,1,1.22,1.93L32,96c.24.43.5.86.77,1.26a9.35,9.35,0,0,0,.93,1.15,2.35,2.35,0,0,0,1.19.79l2,.31,1,.16.82.16c.34.08.69.16,1,.26s.83.23,1.25.31c.88.19,1.74.31,2.46.54,1.45.41,2.77,1.61,4.52,3,.44.34.92.7,1.44,1,.26.16.55.33.82.47l.68.37a19.7,19.7,0,0,1,2.58,1.77A26.06,26.06,0,0,1,56,109.8c.38.4.76.81,1.13,1.23s.72.83,1.2,1.42a11.64,11.64,0,0,0,1.27,1.35,5.23,5.23,0,0,0,1.64.85,10.42,10.42,0,0,0,3.65.37c1.13,0,2-.13,3-.13A8.52,8.52,0,0,1,69,115a5.24,5.24,0,0,1,1.05.28,26.68,26.68,0,0,1,5.63,2.66,9.32,9.32,0,0,1,3,3.36,9.87,9.87,0,0,0-3.54-3.55A30.56,30.56,0,0,0,70,115.42a4.4,4.4,0,0,0-1.07-.26,8.9,8.9,0,0,0-1.19,0c-.45,0-.92,0-1.41.07l-.75,0-.85,0a10.61,10.61,0,0,1-3.69-.41,5.23,5.23,0,0,1-1.63-.87,11.67,11.67,0,0,1-1.29-1.34c-.51-.62-.85-1-1.22-1.44s-.75-.83-1.14-1.22a25,25,0,0,0-2.42-2.21A19.68,19.68,0,0,0,50.65,106l-.77-.41c-.32-.18-.6-.36-.89-.54-.56-.37-1.07-.77-1.54-1.15a26.51,26.51,0,0,0-2.61-2,7,7,0,0,0-2.68-.93c-.56-.11-1.19-.21-1.83-.37l-.85-.22-.79-.18-.8-.14-1-.16-2.15-.32a2.7,2.7,0,0,1-1.24-.83,9.45,9.45,0,0,1-1-1.18c-.3-.42-.57-.86-.83-1.31L30.94,95a11.73,11.73,0,0,0-1.19-1.84,2.43,2.43,0,0,0-.57-.56,2.32,2.32,0,0,0-.65-.32l-1-.32-.19-1.06a2.08,2.08,0,0,0-.49-1.12c-.16-.19-.38-.43-.61-.66s-.44-.42-.68-.62a31.73,31.73,0,0,0-3.37-2.28,22.57,22.57,0,0,1-1.9-1.33,11.9,11.9,0,0,0-1.55-1.09,8.8,8.8,0,0,0-3.46-1.09,24.2,24.2,0,0,1-3.79-1.09,6.33,6.33,0,0,0-2.87-.16,5.11,5.11,0,0,0-2.5,1.42c-.17.16-.37.36-.58.58L5,84c-.33.36-.66.72-1,1.06l-.33.3c-.11.1-.07.28-.11.42a6.51,6.51,0,0,0-.06.88,5.87,5.87,0,0,0,.25,1.77,10.29,10.29,0,0,0,.71,1.64l1,1.84a4,4,0,0,0,.22.37.62.62,0,0,1,.42-.11,1.25,1.25,0,0,1,.69.51,2.86,2.86,0,0,0,.64.61,2.83,2.83,0,0,1,1,.9l.12.19c0,.06.05.17.14.12a1.32,1.32,0,0,1,.44,0l.11,0,.23,0c.17.05.33.11.48.17a4.84,4.84,0,0,1,.74.43,6.06,6.06,0,0,1,.6.49c.17.16.33.33.48.49l.32.37a5.41,5.41,0,0,0,.55.62,3.42,3.42,0,0,0,.73.39,7.06,7.06,0,0,1,1,.44,3.47,3.47,0,0,1,1.31,1.28l0,0,0,0a3.68,3.68,0,0,0,1,1,9.79,9.79,0,0,0,1.52,1,12,12,0,0,0,1.7.8,7,7,0,0,0,1.63.46l.3,0,.23.13a24.71,24.71,0,0,0,4.59,1.35,10.68,10.68,0,0,1,2.78,1.17,7,7,0,0,1,2.13,2.15,12,12,0,0,0,3.12,2.83l1.3.65a3.63,3.63,0,0,1,1.09.94,3.66,3.66,0,0,0-1.07-1l-1.29-.68c-.25-.18-.62-.44-.91-.69a12,12,0,0,1-2.12-2.16,7.34,7.34,0,0,0-2.16-2.21,10.55,10.55,0,0,0-2.82-1.2,23.8,23.8,0,0,1-4.54-1.38l-.24-.13-.37,0A7.6,7.6,0,0,1,19.9,102a14.89,14.89,0,0,1-1.66-.8,10.34,10.34,0,0,1-1.48-1,3.34,3.34,0,0,1-.86-1v0l-.05-.09a3.7,3.7,0,0,0-1.41-1.38,8.51,8.51,0,0,0-1-.46,2.52,2.52,0,0,1-.68-.38,3.66,3.66,0,0,1-.52-.59L12,95.94c-.15-.16-.32-.34-.5-.51a5.63,5.63,0,0,0-.63-.52,5.35,5.35,0,0,0-.79-.46,4.6,4.6,0,0,0-.52-.19l-.25-.06-.1,0a1.48,1.48,0,0,0-.42,0c-.08,0-.09-.06-.13-.12l-.11-.18a2.69,2.69,0,0,0-.26-.33A2.51,2.51,0,0,0,7.61,93,2.7,2.7,0,0,1,7,92.46,1.26,1.26,0,0,0,6.37,92a.65.65,0,0,0-.38.11,1.46,1.46,0,0,1-.2-.35l-1-1.81a8.63,8.63,0,0,1-.64-1.54A5.32,5.32,0,0,1,4,86.74,5.67,5.67,0,0,1,4,85.92c0-.13,0-.29.1-.39l.31-.27c.33-.31.64-.64,1-1l.48-.49c.2-.21.4-.41.56-.55A4.75,4.75,0,0,1,8.72,82a5.84,5.84,0,0,1,2.63.18,25.7,25.7,0,0,0,3.85,1.13,8.2,8.2,0,0,1,3,.9,10,10,0,0,1,1.33.89l.78.61c.3.23.6.44.89.64,1.19.81,2.31,1.45,3.22,2.12a11,11,0,0,1,1.24,1,5.38,5.38,0,0,1,.85,1,1.45,1.45,0,0,1,.18.57l.25,1.44,1.39.45a1.65,1.65,0,0,1,.48.23l.18.14.09.1.15.18a10.51,10.51,0,0,1,1.1,1.72l.72,1.32A16.17,16.17,0,0,0,32,98,8.82,8.82,0,0,0,33,99.32a3.62,3.62,0,0,0,1.33,1l1.81.3-1.82-.29A3.58,3.58,0,0,1,33,99.36,9.23,9.23,0,0,1,32,98.11c-.32-.45-.62-.93-.9-1.41s-.56-1-.73-1.34a11.52,11.52,0,0,0-1.1-1.74,1.94,1.94,0,0,0-.43-.44,1.71,1.71,0,0,0-.47-.24l-1.43-.48L26.68,91a1.55,1.55,0,0,0-.17-.57,5.3,5.3,0,0,0-.86-1,10.83,10.83,0,0,0-1.25-1c-.92-.66-2-1.28-3.24-2.07-.3-.19-.6-.4-.9-.62l-.8-.61a10.53,10.53,0,0,0-1.33-.85,8.12,8.12,0,0,0-3-.81,25,25,0,0,1-3.84-1,5.69,5.69,0,0,0-2.43-.14,4.28,4.28,0,0,0-2.12,1.21c-.76.73-1.22,1.33-1.84,1.94l-.19.18c-.06.06-.14.1-.13.21a5.49,5.49,0,0,0,0,1.63,5.61,5.61,0,0,0,.53,1.75l.21.44.29.55.63,1.19c.06.1.11.22.17.31a.58.58,0,0,1,.34-.09,1,1,0,0,1,.57.43,2.66,2.66,0,0,0,.53.53,2.7,2.7,0,0,1,.58.49c.18.17.28.46.44.6a1.2,1.2,0,0,1,.38,0,5,5,0,0,1,.94.29,4.84,4.84,0,0,1,.89.53,5,5,0,0,1,.68.56,6.68,6.68,0,0,1,.53.55l.17.2.13.15a3.1,3.1,0,0,0,.47.55,2.63,2.63,0,0,0,.63.36,7.77,7.77,0,0,1,1,.47,4.12,4.12,0,0,1,1.56,1.55l.07.13h0a3.75,3.75,0,0,0,.87.9,11.09,11.09,0,0,0,1.57,1,15.18,15.18,0,0,0,1.48.69,8.48,8.48,0,0,0,1.29.4l.52.09.24.14a26.13,26.13,0,0,0,4.47,1.48A10.43,10.43,0,0,1,29.58,105a7.57,7.57,0,0,1,2.11,2.29,11.4,11.4,0,0,0,2,2.23c.3.24.68.49.93.65.47.26,1,.46,1.41.72A3.87,3.87,0,0,1,37.19,112a8.76,8.76,0,0,1,.79,1.36l.33.69c.08.17.17.3.24.43l-.64-.53c.65.29,1.32.51,2.17.92a7.28,7.28,0,0,1,2.2,1.56,12.19,12.19,0,0,1,1.25,1.49c.39.53.63.87.92,1.25l-.05-.11c-.12-.24-.22-.48-.45-.9-.12-.22-.26-.47-.42-.74s-.41-.62-.65-1a7.45,7.45,0,0,0-2.08-1.85,15.73,15.73,0,0,0-1.4-.73l-1.23-.57.95.78a3.54,3.54,0,0,0-.16-.34c-.09-.22-.19-.44-.29-.67a11.66,11.66,0,0,0-.78-1.48,5.06,5.06,0,0,0-1.2-1.29,16.18,16.18,0,0,0-1.61-.9,11.66,11.66,0,0,1-2.63-2.66,8.4,8.4,0,0,0-2.21-2.4,11.16,11.16,0,0,0-3.09-1.48,24.42,24.42,0,0,1-4.45-1.46l-.18-.12-.91-.21a9.48,9.48,0,0,1-1.17-.41A11.87,11.87,0,0,1,19,99.94a8.7,8.7,0,0,1-1.26-.9,2.49,2.49,0,0,1-.23-.22.7.7,0,0,1-.17-.19.33.33,0,0,1-.08-.11v0a1.35,1.35,0,0,1-.25.18,2.89,2.89,0,0,1-.58.3l.76-.63a5.35,5.35,0,0,0-1.94-2c-.33-.19-.61-.32-.71-.37l-.26-.12a2.15,2.15,0,0,1-.48-.3,2.56,2.56,0,0,1-.36-.44L13.32,95l-.16-.18a7.68,7.68,0,0,0-.57-.61,7.49,7.49,0,0,0-.77-.65l-.44-.3a4.75,4.75,0,0,0-.6-.33,4.82,4.82,0,0,0-.73-.28l-.36-.1-.14,0a.88.88,0,0,0-.28,0s0,0-.07,0l0-.07-.07-.13a2.2,2.2,0,0,0-.17-.25c-.25-.31-.63-.46-.83-.8A.83.83,0,0,0,7.67,91a.48.48,0,0,0-.26.06s-.08-.16-.13-.24l-.15-.3L6.87,90c-.16-.31-.37-.7-.42-.84a5.5,5.5,0,0,1-.39-1A3.54,3.54,0,0,1,6,87,5,5,0,0,1,6,86.48c0-.08,0-.18.08-.24l.21-.18c.23-.2.44-.4.65-.6l.33-.32a4.78,4.78,0,0,1,.46-.43A2.9,2.9,0,0,1,9.22,84a3.78,3.78,0,0,1,1.61.18l1.54.56c.35.12.7.24,1.14.36a10.68,10.68,0,0,0,1.41.3,5.73,5.73,0,0,1,2.53.88c.18.11.38.26.59.41l.76.61c.73.58,1.46,1.07,2.1,1.49a22.69,22.69,0,0,1,2.91,2.06c.17.15.29.28.46.45a3.55,3.55,0,0,1,.33.39h0l.34-.25.26-.17.19-.12c.23-.14.22-.12.16-.1a5.21,5.21,0,0,1-.74.25l-.32.08h-.06v0l3.23,3.7c0,.07.06-.17.1-.27a2.93,2.93,0,0,1,.13-.29,1,1,0,0,1,.13-.23s0,.05-.15.15-.06,0-.08.09l0,.09,0,0h0l-.34.3h0l.1.13a13,13,0,0,1,.89,1.5l.4.75.51.89a15.92,15.92,0,0,0,1.12,1.65,11,11,0,0,0,1.32,1.4,9.61,9.61,0,0,0,1.47,1.13l2.53.4,1.23.19.75.13c.4.08.76.16,1.12.26l.7.18.88.21c2.44.46,2.18.42,3,.91s1.82,1.46,3,2.36a16.92,16.92,0,0,0,2,1.25l.62.32.43.23a19.54,19.54,0,0,1,3.26,2.27c.53.45,1.06.93,1.58,1.44l.79.79.42.44.67.75A8.24,8.24,0,0,0,60,117.2a12.43,12.43,0,0,0,4.63.42l.57-.05.42,0,.76-.1,1.32-.16c.42,0,.68,0,.89-.06a2.46,2.46,0,0,1,.71.08l.8.24.85.26c.56.19,1.1.37,1.61.56a12.28,12.28,0,0,1,2.69,1.35,7.38,7.38,0,0,1,2,1.94,10.12,10.12,0,0,1,.73,1.25c.06.13.29.71.44,1.16s.35.94.54,1.4A12.28,12.28,0,0,0,81,129c.8,1.08,1.63,2.27,2.37,3.3l2.06,3c.34.48.67.94,1,1.4.08.09.18.29.25.29L87,137l.48.08,1.16-1.72A48.07,48.07,0,0,1,92.08,130a37.2,37.2,0,0,1,2.47-2.79l.64-.65.5-.49.92-.86c.62-.57,1.25-1.12,1.9-1.66a8.17,8.17,0,0,1,.8-.61c.25-.17.54-.34.85-.51.63-.34,1.35-.67,2.15-1.06a16.33,16.33,0,0,0,2.78-1.66,8.46,8.46,0,0,0,3.28-5.65l.24-1.43c.07-.39.14-.78.22-1.16a20.41,20.41,0,0,1,.52-2v0a18.09,18.09,0,0,0,.91-2.83c.12-.49.22-1,.34-1.37a4,4,0,0,1,.36-.91,3.2,3.2,0,0,1,1.19-1.23,3.29,3.29,0,0,1,.76-.31c.15,0,.22,0,.41-.1l.6-.18a26.1,26.1,0,0,0,3.13-1,12.65,12.65,0,0,0,1.69-.84,16.51,16.51,0,0,0,1.48-1l1.53-1.15.09-.08h0l.05,0a.16.16,0,0,0,0-.12c-.09-1,.15-1.33.42-1.41a11.21,11.21,0,0,1,1.2,0,11.8,11.8,0,0,0,2-.14,9.58,9.58,0,0,0,3.33-1.15,34.63,34.63,0,0,1,3.53-1.37c.61-.2,1.86-.84,3.44-1.55l2.53-1.15c.84-.38,1.6-.73,2.27-1,1.2-.39,2.2-.71,3.07-1a20.16,20.16,0,0,1,2-.46,1.67,1.67,0,0,1,.8,0l.38.11s.37.12.69.19a8.3,8.3,0,0,0,1.13.16l1,.07,1-.41c.49-.2,1-.41,1.48-.64l-.85.19s0,0,.26,0c.59.07,1.19.16,1.79.18a6.78,6.78,0,0,0,3.68-.86,15.7,15.7,0,0,0,1.75-1.21c.29-.21.58-.45.88-.69l.6-.52,1.06-.89a6.55,6.55,0,0,1,.71-.53,2.68,2.68,0,0,1,3.23-.24,1.25,1.25,0,0,1,.45.4,1.35,1.35,0,0,1,.15.26l.08.12c0,.07,0,0,.2.21a1.67,1.67,0,0,0,.13.12l.29.2a4.28,4.28,0,0,0,.58.32,5.05,5.05,0,0,0,1,.32c.29,0,.5.07.75.09h1l-.17-.91a2.17,2.17,0,0,1,0-.75,3.26,3.26,0,0,1-.84,1l-.3.25.43.34,2.41,1.91c.75.61,1.64,1.27,2,1.61a13.37,13.37,0,0,1,1.38,1.59l.75,1,.44.62.32.43a1.71,1.71,0,0,0,.18.2l.09.09s.06.07,0,0l2.48-2.08,0,0L183,92h0l-.07,0-.31-.09-.45-.16a2.38,2.38,0,0,1-.5-.21c-.2-.1-.2-.14-.12-.05l-4,1a12.47,12.47,0,0,1,1.79,2.05l.58,1,.92.63a.7.7,0,0,0,.31.11l-.73-.89a4.15,4.15,0,0,1,.61,1.34,10.21,10.21,0,0,0,.71,1.68,5.93,5.93,0,0,0,1.79,2,8.09,8.09,0,0,0,1.14.63l-1.73-2.86a5,5,0,0,1-.1,1.15l-.71,3.43,2.69.09h.07l.05-.09.07-.12s0,0-.05,0-.06,0-.06.09l-.2-.51a4.79,4.79,0,0,0,1.6,2.34,6.51,6.51,0,0,0,.86.58,4.74,4.74,0,0,0,.61.32,2.89,2.89,0,0,1,1.42,1c.22.33.38.58.6,1l.69,1.3c.45.87.9,1.73,1.36,2.44a8.16,8.16,0,0,0,1,1.45,13.9,13.9,0,0,0,1.07,1c.61.51,1.08.88,1.33,1.12a4.93,4.93,0,0,1,.91,1.07,12.41,12.41,0,0,0,1.16,1.88c.24.31.29.36.29.36a12.83,12.83,0,0,0,1.27,1.28,5.33,5.33,0,0,1,1.25,1.63c.36.68.68,1.46,1,2.27a11.9,11.9,0,0,0,3.34,4.93l-.42-.47a10.19,10.19,0,0,0,2.22,2.27,2.39,2.39,0,0,1,.89,1.23l.23.6.31.24,1.6,1.21,1.91,1.44.86-2.15.7-1.77-3.15.48,1.72,2.12.91-2.87-1.25.37-.65.2-.28.64c-.06.12-.11.23-.16.35l-.43,1,.76.93.71.87,2.11-2.67a3.28,3.28,0,0,0-1.14-.23l-.41,0a1,1,0,0,0-.27.07.92.92,0,0,0-.26.14,1,1,0,0,0-.3.4c0,.08-.06.15-.08.22l0,.05h.07l.13,0,.27,0a4,4,0,0,1,.32.26l.17.14.13.06a1.26,1.26,0,0,1,.26.13.83.83,0,0,1,.55.82,6.73,6.73,0,0,0-.07,1,2.63,2.63,0,0,0,.06.48c0,.08.05.16.07.24l0,.12h0a9.34,9.34,0,1,1-.2-1.1l.05,0,.12.08.93.65a7.2,7.2,0,0,0,.81,0,5.36,5.36,0,0,1,.79.11,5.45,5.45,0,0,1,.76.3c1.93,1,3.06,3.35,3.58,5.34.28,1,.46,1.95.64,2.84l.13.67c.09.25.22.53.33.8a2.73,2.73,0,0,1,.29,1.31l-.09.68h0c.15-.22.31-.45.45-.69l.41-.66c.2-.32.42-.65.64-1,.45-.65,1-1.28,1.48-1.91l-3.35-.08a38.57,38.57,0,0,1,4,5.13c.66,1,1,1.67,1.42,2.43.2.38.38.77.56,1.16.08.19.17.39.25.59l.12.29s.05.1.05.15l-.12.11c-.52.55-1.06,1.08-1.57,1.64l-.38.42-.17.2-.28.34c-.36.45-.72.92-1,1.42l-.54.8.28,1a4.88,4.88,0,0,0,1.27,2.14,7.6,7.6,0,0,0,1.61,1.19,13,13,0,0,1,2,1.18l-.7-1.08a10.1,10.1,0,0,1,.19,1.72l.05.58,0,.58a4.36,4.36,0,0,0,.14.72c.21.31-.08.6-.17.9a13.5,13.5,0,0,1-.68,1.4,17.76,17.76,0,0,1-1,1.7,29.93,29.93,0,0,1-2.29,3.16,57,57,0,0,1-5.45,5.54c-3.09,2.79-6,5.09-8.53,7.54-.64.58-1.23,1.25-1.82,1.85s-1.13,1.31-1.64,1.92c-.94,1.16-1.86,2.28-2.8,3.33a48.48,48.48,0,0,1-5.89,5.76,28.66,28.66,0,0,1-7.56,4.41c-1.57.68-2.85,1.07-4.56,1.71s-2.92,1.18-4.11,1.67l6.64,3.75h0v-8.84L180,207.89l0,0,1-.69-.71.32a24.69,24.69,0,0,0-2.84,1.59l-.21.14-.09.06h0v0l-.07.05a.73.73,0,0,1-.33.19,2,2,0,0,1-.55.18l-1.21.33.73,4.34a2,2,0,0,1-.32,0l-.85-.08-2.87-.33h0a6.49,6.49,0,0,0,0,1l7.94-3a4.55,4.55,0,0,0-.51-.56l-.11-.11s0,0,0,0h0l-.87.94-1,1.1-.63.66-.16.15-.09.07-1.5-4.06a.76.76,0,0,0-.2.06.64.64,0,0,1-.31.1c-.27,0-.65.07-1.09.09a23.34,23.34,0,0,0-3.36.31c.6-.33,1.13-.58,1.61-.81a10,10,0,0,0-3.14.61l-1.32.8a5,5,0,0,1,2.38-1.09,4.9,4.9,0,0,1,2.61.29L165.61,213a21,21,0,0,0-1,2.51l-.31.94c-.08.2-.1.24-.15.35-.21.4-.34.17-.47,0a.88.88,0,0,0-1-.41h0a.35.35,0,0,1-.11,0l-.1,0h0l-.15.12-.3.23-.57.46,11.17,4.77a27.35,27.35,0,0,1,1.28-4.31l3.21-9.23-10.63.33a21.1,21.1,0,0,1-4.68-.6c-.08-.06.22,0-.5-.27a15.2,15.2,0,0,0-3.59-1,12.44,12.44,0,0,0-4.83.33l-.27.07-.13,0h0v0l0,0-.07.07c-.1,0,0,.13-.59-.06a15.79,15.79,0,0,1-2-.86l-1.35-.67-.75-.36c-.28-.13-.75-.35-1.15-.5a15.49,15.49,0,0,0-4.47-1l-.33.13-.08,0s0,0,0,0l0,.07a.93.93,0,0,1-.32.4,1.44,1.44,0,0,1-.7-.14c-.05,0-.83-.58-1.46-.93a9.74,9.74,0,0,0-2-.94c-.53-.05-.69.06-.76.18l-.26.36a1.26,1.26,0,0,1-.57.55,1.38,1.38,0,0,1-1.25.65c-.56-.06-1.37-.27-2.12-.35a7.07,7.07,0,0,0-2.16,0,2.35,2.35,0,0,0-1.31.6.56.56,0,0,0,0,.86,12,12,0,0,1,3.2,2,7.13,7.13,0,0,0,2.28,1.38,6.25,6.25,0,0,1,.82.41,6,6,0,0,1,.7.55c.32.29.64.58,1,.86a8.35,8.35,0,0,0,1.18.87,6.29,6.29,0,0,0,2.63.84,2.81,2.81,0,0,1,.59.13l.45.13a5.72,5.72,0,0,1,.73.31c.3.2.08.3-.31.42l-.71.2-.4.13-.2.07-.36.06-.54.12.52,0,.58.07.35.06a4.91,4.91,0,0,1,.57.13,2.69,2.69,0,0,1,.69.31,1.56,1.56,0,0,1,.2.16l.29.22a2.36,2.36,0,0,1,.36.37c.13.21.06.31-.18.32a2.06,2.06,0,0,1-.47,0l-.32-.05a.53.53,0,0,0-.22,0l1.33.8.77.47-1,0c-.35,0-.62,0-.62,0,.85.53,1.9,1.24,3.23,2a19.56,19.56,0,0,0,2.28,1,15.25,15.25,0,0,0,3.13.78,10.57,10.57,0,0,0,2.25.06c.38,0,.76-.08,1.14-.14l.56-.09.13,0h0a.65.65,0,0,1,.31.12.39.39,0,0,1,.1.08l0,.05,0,0s0,0,.1.06c.35.16.73.35,1.39.6a14.4,14.4,0,0,0,1.84.54,29.76,29.76,0,0,0,8.71.86l-7.53-9c-.33.95-.74,2.12-1.12,3.55a18.91,18.91,0,0,0-.66,5.1l.18,14.72,12.09-9.48.24-.19.36-.27,1.22-1.06,1.23-1.07a14.84,14.84,0,0,0,1.44-2.51c.2-.44.38-.9.55-1.36l.23-.68.18-.56a16.09,16.09,0,0,1,.57-1.72l-9.61,3.79a7.55,7.55,0,0,0,7.67-1.24l-3.79-3.16a9.89,9.89,0,0,1,.38,1.13c.07.22.1.41.17.68s.13.54.18.81l.17.95c.06.34.1.66.15,1h.06l.9-.05c.45,0,1,0,1.84-.09l.53,0,.78-.13c.52-.09,1-.2,1.54-.32l-8.42-3.49A8,8,0,0,0,170.9,220l.08.08,3.85-4.18.55-.6a2.8,2.8,0,0,1,.42-.39l.27-.24.46,0h.26l.57.05,1,.12,2.89.32,2.2.26h0a6.86,6.86,0,0,0,0-1.57L178,221.6l1.3-.33,1.56-.4.37-.09a3.65,3.65,0,0,0,.34-.18l.66-.39,1-.56.48-.3.8-.52,1.74-1.17,1.53-1,0,0,0,0L176,211.86h0l1.6,11,8.61-5.23c.94-.57,1.91-1.12,2.88-1.61.51-.26.93-.47,1.49-.72l1.84-.86c.47-.25,1.1-.53,1.8-.83s1.47-.67,2.21-1.06a34.73,34.73,0,0,0,3.63-2.06,5.34,5.34,0,0,0,1.51-2.23,8.88,8.88,0,0,1,.36-1.47,55.18,55.18,0,0,0,7.81-7.85c.64-.76,1.26-1.53,1.88-2.3s1.27-1.62,1.71-2.12,1-1.15,1.58-1.72,1.14-1.12,1.78-1.67c2.42-2.2,5-4.32,6.68-6.1s2.53-3.07,2-3.3a27.3,27.3,0,0,0,6.65-9.37c.22-.54.45-1.08.69-1.64s.5-1.44.76-2.2a6.71,6.71,0,0,0,0-2.05c-.07-.44-.14-.91-.19-1.41-.06-.11.06-.28,0-.37l0-.18c0-.15,0-.3-.07-.45a17.43,17.43,0,0,0-.54-3l-.3-1-.78-.64a9.27,9.27,0,0,0-1.16-.82c-.87-.51-1.56-.79-2-1l-.23-.14-.06,0h0l-.12.12c-.52.54-.75.52-.38.41l.26,2.68c.18-.29.39-.6.62-.91l.18-.24.25-.31c.22-.28.46-.55.71-.84,1-1.12,2.15-2.33,3.48-3.74.07-.28-.17-.64-.29-1s-.29-.67-.44-1c-.29-.67-.59-1.35-.91-2s-.67-1.38-1.06-2.07-.85-1.5-1.12-1.94a54,54,0,0,0-4.74-6.48l-2.43-2.85-2.5,2.74c-.54.59-1.09,1.22-1.67,1.94-.28.37-.58.75-.88,1.17-.12.16-.23.33-.35.5l-.24.35a27.07,27.07,0,0,0-1.17-3.25,2.74,2.74,0,0,0-1.21-1.43,1.22,1.22,0,0,0-.95.12,2.19,2.19,0,0,1-.12-1,.65.65,0,0,0-.19-.58,2.69,2.69,0,0,0-.54-.33l-.14-.06s0-.11,0-.16a.61.61,0,0,1,.11-.29.52.52,0,0,1,.11-.1h0l-.12,0-.07,0h0c.08.52-.64-4.57-.34-2.41h0v0s0,.07,0,.1a4.68,4.68,0,0,1-.36,1.52l3.43-4c-.38-.49-.77-1-1.16-1.42l.58,3.27s0,0,0,.06l-1.63,1.46.75-.22L218,134l-2.95-3.67c-.53-.66-1.05-1.31-1.57-1.94l-3.32-4.13-2,4.93-.57,1.4,4.62-1.2-1.23-.94.89,1.38a7.42,7.42,0,0,0-1-2,8.31,8.31,0,0,0-1.39-1.54,5.78,5.78,0,0,1-1.27-1.22l-.31-.47-.36-.26c-.7-.52-1.39-2-2.22-4a17.71,17.71,0,0,0-1.18-2.34,10.12,10.12,0,0,0-2-2.38,5.92,5.92,0,0,1-.91-.92,8.83,8.83,0,0,1-.74-1.25c-.13-.24-.27-.47-.41-.7a9.53,9.53,0,0,0-1.34-1.63c-.5-.49-.88-.8-1.23-1.11l-.44-.41c-.11-.1-.2-.2-.3-.3a4.35,4.35,0,0,1-.47-.68c-.41-.71-.77-1.51-1.18-2.42-.21-.45-.42-.91-.67-1.39a16.86,16.86,0,0,0-1-1.73,6.93,6.93,0,0,0-2.8-2.43l-.39-.22-.2-.11-.13-.09-.06,0s0,0-.11.1a2.11,2.11,0,0,1-.25.27,3.65,3.65,0,0,1-.4.34,1.2,1.2,0,0,1-.21.13h0l1-.91a5.72,5.72,0,0,0-1.56-1.94,6,6,0,0,0-2.08-1.07l2.1,3.73a11,11,0,0,0,.39-2.37l.19-3.39-2,.44s0,0,0,0-.12.2-.2.3l-.09.1a.23.23,0,0,1,.09-.07,2.12,2.12,0,0,1,.35-.23s0,0,0,0a2.15,2.15,0,0,1-.1-.29,13.32,13.32,0,0,0-1.14-3.16l-.3-.54-.36-.27c-.48-.35-1-.68-1.45-1l1.34,1.41a15.06,15.06,0,0,0-2.86-3.92l-2.08-2.25-2.32,2.18a5.41,5.41,0,0,0-1.43,2.52l5.59-.92a4.6,4.6,0,0,0-.32-.42l0,0-.07-.08-.12-.17-.38-.55c-.29-.41-.6-.83-.93-1.25a18,18,0,0,0-2.31-2.53l-.7-.58-.56-.44-1.07-.83q-1.06-.84-2.13-1.65l.35.34a5.31,5.31,0,0,0-2.15-1.53,5.14,5.14,0,0,0-2.75-.25l.45,0h0v.19l0,.79a4.17,4.17,0,0,1-.08.63,1.6,1.6,0,0,1-.1.42.85.85,0,0,1-.09.24l0,0v0h0l1.47-1.88s.14,0,.08-.1l-.15-.18a6.86,6.86,0,0,0-1.23-1.35,14.23,14.23,0,0,0-1.58-1,9.35,9.35,0,0,0-1.75-.62,8.12,8.12,0,0,0-3.67,0,11.9,11.9,0,0,0-3.41,1.5c-.54.33-1.06.7-1.57,1.07l-1.13.87-.86.66c-.2.14-.39.29-.59.42a1.76,1.76,0,0,1-1.36.35l-.7-.12s-.5-.06-.82-.07a8.51,8.51,0,0,0-1.12,0l-.37,0-.32.12-2.16.79,1.53.73a3.12,3.12,0,0,1,.06-.45,1.65,1.65,0,0,1,.06-.32l0-.21s0,0,0,0l-.27-.09a12.36,12.36,0,0,0-1.3-.43,6.19,6.19,0,0,0-1.35-.19c-.45,0-.9.09-1.35.12l-.91.15-.82.16c-.48.11-1,.23-1.41.36-.92.26-1.8.56-2.63.86-1.67.61-3.18,1.23-4.62,1.71-3,1-6.46,1.83-10,3.84a3.41,3.41,0,0,1-1.33.47l-1.19.15c-.4,0-1.21.15-1.83.28a8.9,8.9,0,0,0-3.7,1.78c-.27.22-.54.43-.8.68l-.59.54-1,.9a16.63,16.63,0,0,1-4,2.35l-.75.4c-.25.14-.59.34-.87.53a10.75,10.75,0,0,0-1.63,1.31,10.28,10.28,0,0,0-2.32,3.46,12.63,12.63,0,0,0-.58,2c-.13.69-.19,1.14-.26,1.59a7.26,7.26,0,0,1-.44,1.82,18.21,18.21,0,0,0-1.07,3.11c-.13.51-.23,1-.33,1.5l-.22,1.24a3,3,0,0,1-.56,1.51,4.17,4.17,0,0,1-1.26,1.06c-.67.39-1.67.86-2.71,1.45a18,18,0,0,0-1.66,1c-.28.19-.56.44-.84.66l-.21.17-.15.14-.31.28a36.83,36.83,0,0,0-6.32,6.9l-.27.4s0,.09-.07.07l-.06-.08-.14-.18c-.18-.23-.35-.47-.52-.71a11.62,11.62,0,0,0-1.11-1.45,6,6,0,0,1-.65-.68,5.27,5.27,0,0,1-.48-.83c-.13-.29-.25-.6-.37-.9l-.18-.46-.31-.71a16.54,16.54,0,0,0-1-1.82,15.56,15.56,0,0,0-1.25-1.68,14.42,14.42,0,0,0-3.16-2.7,21.55,21.55,0,0,0-3.45-1.75c-1.16-.47-2.21-.83-3.38-1.23l-1-.28c-.33,0-.66-.11-1-.15a13.44,13.44,0,0,0-1.88,0q-.84,0-1.59.12l-1.35.11a5.91,5.91,0,0,1-2-.12,2.52,2.52,0,0,1-.9-.44,7.07,7.07,0,0,1-.7-.75L60,108.43c-.41-.45-.85-.9-1.29-1.34a28.72,28.72,0,0,0-2.87-2.5,22.65,22.65,0,0,0-3.26-2.1l-.79-.41a5.45,5.45,0,0,1-.6-.35c-.41-.26-.83-.57-1.27-.91a29.63,29.63,0,0,0-3.07-2.23,11.06,11.06,0,0,0-4-1.37c-.6-.1-1.12-.18-1.61-.29l-.86-.21-.93-.2-.93-.16-.7-.09-1.28-.17a1,1,0,0,1-.78-.43,5.81,5.81,0,0,1-.58-.73c-.18-.26-.34-.52-.5-.79l-.52-.93a15.43,15.43,0,0,0-1.61-2.39,6.29,6.29,0,0,0-1.29-1.19,6,6,0,0,0-1.65-.79l1.31,1.5a6.09,6.09,0,0,0-.44-1.49,5.94,5.94,0,0,0-.84-1.33c-.31-.37-.59-.65-.87-.93s-.61-.57-.93-.83a35.77,35.77,0,0,0-3.76-2.52,18.38,18.38,0,0,1-1.62-1.11,15.64,15.64,0,0,0-2-1.36,12.22,12.22,0,0,0-4.72-1.48,26.93,26.93,0,0,1-3.38-1,10,10,0,0,0-4.6-.19,8.43,8.43,0,0,0-4,2.26c-.29.28-.52.52-.75.75L2.26,82c-.54.56-1.09,1.12-1.65,1.65l-.35.55a2.34,2.34,0,0,0-.14.67A13.22,13.22,0,0,0,0,86.24,9.61,9.61,0,0,0,.34,89a14.11,14.11,0,0,0,1.08,2.6c.4.72.79,1.44,1.18,2.16a5.16,5.16,0,0,0,.55.43.76.76,0,0,1,.52-.07,2.16,2.16,0,0,1,.66.26c.19,0,0,.33,0,.46l.24.27c.09.08.15.19.25.25a.62.62,0,0,1,.28.23,3.44,3.44,0,0,0,.5.51l1.09.94.49.44.21.21c.07.08.13.15.25.12s.45,0,.68.05.2,0,.19-.06c0,.09,0,0,0,0L8.7,98l.24.19.28.29.41.49a6.82,6.82,0,0,0,.91,1,6.06,6.06,0,0,0,1.14.64c.38.17.89.37.92.41s0,.08.1,0,.05-.07.1-.1l0,0-.19-.05a6.92,6.92,0,0,0,1.9,2.24,15,15,0,0,0,2,1.34,17.14,17.14,0,0,0,2.12,1,10.52,10.52,0,0,0,2.47.67l-.7-.22a26.26,26.26,0,0,0,5.3,1.66,6.66,6.66,0,0,1,1.74.74,4.26,4.26,0,0,1,1.25,1.32,14.63,14.63,0,0,0,1.93,2.11c.35.31.7.61,1.07.89a14.7,14.7,0,0,0,1.24.84c.27.17.57.27.85.42a1.9,1.9,0,0,1,.67.65,5.4,5.4,0,0,1,.44.82l.22.46a8.37,8.37,0,0,0,.45.77l.34.53.61.25,1.37.57.29.12.23.11.45.23a4.39,4.39,0,0,1,1.43,1.38l.82,1.2a12.44,12.44,0,0,0,1.14,1.46,7.29,7.29,0,0,0,3.14,1.86c.56.18,1.27.35,1.68.44l1.37.34c1.15.25,2,.34,2.52.54a1.2,1.2,0,0,1,.44.22s0,0,0,0l.07,0v0h0l-.1.07,0,0,.16.24c.11.15.2.27.31.4a10.21,10.21,0,0,0,2.78,2.31,14,14,0,0,0,1.5.76c.44.2.77.33,1.15.53.75.35,1.48.76,2.22,1.18,1.48.87,3,1.83,4.51,2.8a38,38,0,0,0,5,2.68c.45.2.91.37,1.36.55.2.08.55.19.81.27l.77.19a16.11,16.11,0,0,1,1.6.41,2.41,2.41,0,0,1,1.26.86,3,3,0,0,1,.46,1.45,1.85,1.85,0,0,0,.07.41l0,.16.13.34a5.59,5.59,0,0,0,.36.68,5.81,5.81,0,0,0,1.88,1.81l1.23.78a10.8,10.8,0,0,0,1.54.81,5.83,5.83,0,0,0,3.36.48l1.6-.23a4.5,4.5,0,0,1,.76,0c.37,0,.2,0,.29.1a2.49,2.49,0,0,1,.26.32l.3.4c.15.21.3.42.46.61a27.49,27.49,0,0,0,3.84,3.68c.59.49,1.13,1,1.6,1.39.24.22.46.44.66.65l.8.86a20.48,20.48,0,0,0,4.31,3.2l2,1.1.9.5,1,.58a6.43,6.43,0,0,0,2.7,1l.48.07H106l.3-1.52c.19-.8.27-.75.16-.61l-.11.13a1.53,1.53,0,0,1-.18.18,2.18,2.18,0,0,1-.28.25l-.35.27c-.14.1-.28.2-.43.29l-.23.14-.17.1h0l0,.12c0,.06.07.18.07.16a21.16,21.16,0,0,1,1.4,2.09c.19.32.34.61.48.9l.18.4c.06.13.08.29.23.31a12.4,12.4,0,0,1,2,1.26l.55.44a5.31,5.31,0,0,1,.51.61l.12.16.06.08.15.06.17.09.31.16a13,13,0,0,1,1.24.8c.21.14.4.3.6.45l.28.23.07.06.18.15.27.25a11.79,11.79,0,0,0,1.24,1,4,4,0,0,0,1.37.74,7.1,7.1,0,0,0,1.52.25,4.37,4.37,0,0,0,.82,0l.07,0,.33-2.36,0-.17a.81.81,0,0,1,0-.21c.08-.21,0-.05.12-.34a2.89,2.89,0,0,1-1.3.85l-.34.13-.42.15c-.15,0-.29.09-.44.12l-.33.1a.75.75,0,0,0,0,.11c0,.13,0,.35,0,.62l0,.48c0,.22,0,.5.06.74a12.14,12.14,0,0,0,.6,2.55,16.36,16.36,0,0,0,.93,2.06,22.3,22.3,0,0,1,1.21,2.37,2.65,2.65,0,0,1,.14.59,1.3,1.3,0,0,1,0,.31l0,.51a5,5,0,0,1,0,.87l-.06.47c0,.29-.09.58-.13.87a8.68,8.68,0,0,0,.33,4.25c.11.34.23.66.36,1l.33.8a3.52,3.52,0,0,1,.13.43,2,2,0,0,1,0,.42c0,.24,0,.48,0,.71s0,.74,0,1.41a14.22,14.22,0,0,0,.16,1.75,9.34,9.34,0,0,0,.84,2.57l.2.44.07.18,0,0h0l.06,0,.49-.17.74-.24.56-.15a2.91,2.91,0,0,1,1-.11l0,0h0l-3-.47h0v0l0,.23-.06.46c-.08.58-.12,1.09-.16,1.62a17.63,17.63,0,0,0,1,5.84A13,13,0,0,0,125.9,207.42Z"/></g><path class="cls-3" d="M121,172.81c-2.29.78-4.9.82-6.81-.87l.56-.14C116.85,171.18,119,172.12,121,172.81Z"/><g class="cls-4"><path class="cls-5" d="M119.58,176.8c.14-1.87-1-2.52-1.26-3.42a2.12,2.12,0,0,1-.32-.66c-.06-.2.13.07.32.66.12.17.26.35.43.56,0-.83-.06-1.65-.09-2.31l-.42-.3c-.66-.46-1.38-.63-2.19-1.09-.3-.2-1-.17-1.31-.48a8.3,8.3,0,0,1,3.65.72.59.59,0,0,1-.07-.16,9.54,9.54,0,0,0-1.88-1.09.77.77,0,0,1-.36-.15c.12,0,.24.09.36.15.31,0,.62-.13,1-.12s.4.4.59.49.23.46.32.72l.24.19.1,0v0a3.53,3.53,0,0,0-1.16-2.67c-.77-.81-1.8-1.25-2.06-1.07-.44.22-.66,1.52-1,1.75-.13.08-.31-.22-.36.09a1.65,1.65,0,0,1,0,.5c-.2.14-.5-.47-.55,0l-1.3,5.11.07,0c.14,0-.22.61-.52,1.24s-.56,1.24-.37,1c1.4-1.61.37-.44.65,0,0,.07.65-.55.69-.42,0,.64.51.08,1,0,.78-.38.41.94,1.34-.17,0-.06.32-.23.56-.41l.44-.35c.48.31.88-.71,1.11.82.3-.63.52-.56.79-.36s.54.52.77.37c.45-.27.74.76,1.35,1.6.16.12.24,0,.37.28s.16-.58.31-.46l.09.57.22.15c.06,0,.09.23.12.42a3.3,3.3,0,0,0,.27,1,2.89,2.89,0,0,0,.82.58,5.88,5.88,0,0,0,.33-1.12c-.07-.26-.13-.52-.17-.73l0-.47c-.15-.56-.36-1.15-.46-1.53-.5-1.56-.85-3.12-1.37-4.52-.16-.41-.38-.49-.68-1.21-.09-.22-.2-.74-.36-1.3-.08,0-.26-.57-.39-1.09l-.06-.08c0-.19-.21-.75-.21-.75-.37-.64-.75-2-.66-1.27,0,.11,0,.54.08.82s-.06-.18-.08-.23c.07.53.16,1.15.23,1.72-.21-.55-.37-1.56-.26.52-.08-.09-.06.87-.17,1a1.18,1.18,0,0,1-.49.33c-.11.13-.18.06-.27,0a.14.14,0,0,1-.09,0c-.25,0-.37-.23-.42-.45s-.05-.44-.24-.44L115,175.4a1.14,1.14,0,0,0,.42-.37,3.52,3.52,0,0,0,.14-.45c.24-.88.78-1.19,1.25-1.13s.82.47,1.15,1c.62,1.08,1,2.62,1.23,3Z"/></g><path class="cls-3" d="M121.15,184c1.16.15.73,2-.36,1.79S120.05,183.73,121.15,184Z"/><g class="cls-4"><path class="cls-5" d="M121,185a.66.66,0,0,0,0-.17s0-.1,0-.07.08.13.14.17.17.08-.11,0c-.08,0-.07,0,0,0l.15.07-.06,0-.11-.11,0,0,0,0-.18-.16a4,4,0,0,0-.9-.53l-.27.16c-.42.3-.58.71-.78,1.52-.11.33.26.9.35,1.41a2.47,2.47,0,0,1-.81-1.81,2.5,2.5,0,0,1,.42-1.41l-.15,0a2.61,2.61,0,0,0-.9,1.73,1.29,1.29,0,0,1,0,.44,1.62,1.62,0,0,1,0-.44c0-.33-.26-.62-.29-1s.38-.39.46-.56.47-.16.73-.19a1.49,1.49,0,0,1,.2-.15.26.26,0,0,1,0-.1h0a2.39,2.39,0,0,0-2.67,1,3.36,3.36,0,0,0-.43.87,4.07,4.07,0,0,0-.15,1A2.1,2.1,0,0,0,116,188c.62.63,2,.23,2.58.43.19.06.19.45.47.26a1.78,1.78,0,0,1,.35-.37c.19,0,.26.22.39.36s.27.21.44-.06c0,0,.06,0,.09.15l-.24,0c0,.3.08,1,.19,1.54s.24,1,.28.74c.37-2.12,0-.55.77-.39.11,0,.28-.85.43-.78.62.44.66-.34,1-.76.21-.47.44-.44.69-.5s.41-.21.13-.89c0-.07,0-.41-.13-.69a4.13,4.13,0,0,0-.19-.52c.21-.14.08-.39.09-.55s.13-.21.91-.21c-.58-.36-.5-.52-.29-.75s.52-.53.34-.8,0-.46.22-.81a3.82,3.82,0,0,0,.73-1.4c0-.29-.21-.38-.09-.69s-.75,0-.83-.29l.44-.39c0-.1-.12-.3-.17-.4s.08-.24.22-.37c.28-.28.57-.54.58-.9a3.78,3.78,0,0,0-1-1.46,2.83,2.83,0,0,0-.87.14,4.38,4.38,0,0,0-.64.34,7.42,7.42,0,0,1-.27.7c-.13.12-.24.24-.35.36-.18.56-.3,1.17-.41,1.55-.2.79-.39,1.58-.58,2.35q-.13.57-.24,1.14l-.18,1a.62.62,0,0,1,.06-.14l0,0c0-.06,0-.06,0,0l0,0h0c.06-.14.08-.17.09-.17l0,0h0a.93.93,0,0,1-.19.06.41.41,0,0,1-.11,0h-.07l.08,0,0,0c.26.17.14.34.2,0l-.06-.13a.63.63,0,0,1,0,.22.27.27,0,0,1-.06.12.82.82,0,0,1,.3-.09c.16,0,.09,0,0-.05a.86.86,0,0,1-.17-.18s0,0,0,.06a.74.74,0,0,1,0,.12Z"/></g></g></g></g></g></svg>