<svg xmlns="http://www.w3.org/2000/svg" xmlns:xlink="http://www.w3.org/1999/xlink" width="107" height="107" viewBox="0 0 107 107">
  <defs>
    <linearGradient id="linear-gradient" x1="0.5" y1="1" x2="0.5" gradientUnits="objectBoundingBox">
      <stop offset="0" stop-color="#7c8c00"/>
      <stop offset="1" stop-color="#bbd258"/>
    </linearGradient>
    <linearGradient id="linear-gradient-2" x1="0.5" y1="1" x2="0.5" gradientUnits="objectBoundingBox">
      <stop offset="0" stop-color="#2b9dc5"/>
      <stop offset="1" stop-color="#51c7e2"/>
    </linearGradient>
    <linearGradient id="linear-gradient-3" x1="0.5" y1="1" x2="0.5" gradientUnits="objectBoundingBox">
      <stop offset="0" stop-color="#ff9406"/>
      <stop offset="1" stop-color="#ffd62a"/>
    </linearGradient>
    <linearGradient id="linear-gradient-4" x1="0.5" y1="1" x2="0.5" gradientUnits="objectBoundingBox">
      <stop offset="0" stop-color="#fe3e3a"/>
      <stop offset="1" stop-color="#ff7570"/>
    </linearGradient>
  </defs>
  <g id="home-feature-3" transform="translate(-1264 -905)">
    <circle id="Ellipse_12" data-name="Ellipse 12" cx="53.5" cy="53.5" r="53.5" transform="translate(1264 905)" fill="#c9e4ff"/>
    <g id="Group_89" data-name="Group 89" transform="translate(1002.5 616.754)">
      <path id="Path_485" data-name="Path 485" d="M350.6,346.084c0-.024,0-.048,0-.073H350.6c-.059-4.2-2.645-7.957-5.782-7.957a4.984,4.984,0,0,0-3.83,2c-1.064,1.429-4.285,1.4-3.787-1.762l1.829-11.816a3.572,3.572,0,0,0-3.744-3.616l-13.617,2.17c-.735.1-4.352-1.606-1.775-4.1a5.558,5.558,0,0,0,1.775-3.859c0-3.2-3.293-6.076-7.524-6.076-.173,0-.482-.008-.651,0v.059c-3.737.451-7.017,3.118-7.017,6.018a5.174,5.174,0,0,0,2.073,3.859s2.34,3.086-2.073,4.1l-15.234-2.17a3.844,3.844,0,0,0-3.83,3.858L285.5,338.295c1.915,3.859,3.83,1.929,3.83,1.929s2.353-1.929,3.83-1.929c3.173,0,6.013,3.6,6.013,7.861s-2.839,7.572-6.013,7.572a5.927,5.927,0,0,1-3.83-1.929c-1.775-1.635-3.83,1.929-3.83,1.929l1.915,11.573a3.764,3.764,0,0,0,3.945,3.642h43.622c2.115,0,3.906-1.124,3.906-3.255l-1.685-11.96c-.25-1.872,2.451-3.15,3.787-1.762a5.257,5.257,0,0,0,3.83,2c3.138,0,5.723-3.613,5.782-7.813h.005C350.607,346.132,350.6,346.108,350.6,346.084Z" transform="translate(0 -0.696)" opacity="0.2"/>
      <path id="Path_486" data-name="Path 486" d="M329.5,385.136h20.834c2.115,0,3.906-.473,3.906-2.6l-1.685-11.96c-.25-1.872,2.451-3.8,3.787-2.413a5.257,5.257,0,0,0,3.83,2c3.174,0,5.787-2.9,5.787-7.162H329.5Z" transform="translate(-15.353 -18.843)" fill="url(#linear-gradient)"/>
      <path id="Path_487" data-name="Path 487" d="M329.5,363v1.3h36.371a10.177,10.177,0,0,0,.089-1.3Z" transform="translate(-15.353 -18.843)" fill="#fff" opacity="0.5"/>
      <path id="Path_488" data-name="Path 488" d="M350.334,394.652H329.5v1.3h20.834c2.115,0,3.906-1.124,3.906-3.255l-.079-.562C353.795,393.787,352.19,394.652,350.334,394.652Z" transform="translate(-15.353 -29.009)" fill="#696a1d"/>
      <path id="Path_489" data-name="Path 489" d="M372.52,369.511a5.257,5.257,0,0,1-3.83-2c-1.336-1.388-4.037-.111-3.787,1.762l.074.523a2.336,2.336,0,0,1,3.714-.983,5.257,5.257,0,0,0,3.83,2c3.174,0,5.787-3.551,5.787-7.813h-.089C377.751,366.658,375.364,369.511,372.52,369.511Z" transform="translate(-27.7 -18.843)" fill="#696a1d"/>
      <path id="Path_490" data-name="Path 490" d="M299.172,363c0,4.262-2.839,7.572-6.013,7.572a5.927,5.927,0,0,1-3.83-1.929c-1.775-1.635-3.83,1.929-3.83,1.929l1.9,11.038a3.688,3.688,0,0,0,3.96,3.527h22.787V363Z" transform="translate(0 -18.843)" fill="url(#linear-gradient-2)"/>
      <path id="Path_491" data-name="Path 491" d="M289.33,369.945a5.927,5.927,0,0,0,3.83,1.929c3.173,0,6.013-3.31,6.013-7.572h14.975V363H299.172c0,4.262-2.839,7.572-6.013,7.572a5.927,5.927,0,0,1-3.83-1.929c-1.775-1.635-3.83,1.929-3.83,1.929l.171,1.031C286.194,370.808,287.857,368.588,289.33,369.945Z" transform="translate(0 -18.843)" fill="#fff" opacity="0.5"/>
      <path id="Path_492" data-name="Path 492" d="M287.415,386.058a3.764,3.764,0,0,0,3.945,3.642h22.787v-1.3H291.36a3.764,3.764,0,0,1-3.945-3.642l-1.744-10.542c-.107.163-.171.271-.171.271Z" transform="translate(0 -22.755)" fill="#206c8c"/>
      <path id="Path_493" data-name="Path 493" d="M360.109,336.056a4.984,4.984,0,0,0-3.83,2c-1.065,1.429-4.285,1.4-3.787-1.762l1.829-11.816a3.572,3.572,0,0,0-3.744-3.616l-13.617,2.17c-.735.1-4.352-1.606-1.775-4.1.193-1.591,1.775-2.371,1.775-3.859,0-3.2-3.293-6.076-7.524-6.076h-.118l.118,34.507,36.441.021C365.636,339.524,363.126,336.056,360.109,336.056Z" transform="translate(-15.289)" fill="url(#linear-gradient-3)"/>
      <path id="Path_494" data-name="Path 494" d="M306.479,315.076c0,1.488,1.414,2.147,2.073,3.859,0,0,2.34,3.086-2.073,4.1l-15.234-2.17a3.844,3.844,0,0,0-3.83,3.858L285.5,336.3c1.775,2.356,3.83,1.278,3.83,1.278s2.353-1.929,3.83-1.929c3.173,0,6.013,3.6,6.013,7.861h14.975V309C310.149,309.2,306.479,312.009,306.479,315.076Z" transform="translate(0 0)" fill="url(#linear-gradient-4)"/>
      <path id="Path_495" data-name="Path 495" d="M329.5,361v1.3h36.46a10.492,10.492,0,0,0-.088-1.3Z" transform="translate(-15.353 -18.145)" fill="#cc5c11"/>
      <path id="Path_496" data-name="Path 496" d="M289.33,352.157s2.353-1.929,3.83-1.929c3.173,0,6.013,3.6,6.013,7.861h14.975v-1.3H299.172c0-4.261-2.839-7.861-6.013-7.861-1.477,0-3.83,1.929-3.83,1.929s-1.807,1.8-3.664-1.626l-.165,1C287.415,354.087,289.33,352.157,289.33,352.157Z" transform="translate(0 -13.932)" fill="#ba1919"/>
      <path id="Path_497" data-name="Path 497" d="M291.245,328.525l15.234,2.17c2.725-.626,2.875-2.041,2.591-3.033-.24.687-.945,1.353-2.591,1.731l-15.234-2.17a3.844,3.844,0,0,0-3.83,3.858L285.5,342.655c.055.111.11.2.165.3l1.749-10.575A3.844,3.844,0,0,1,291.245,328.525Z" transform="translate(0 -6.359)" fill="#fff" opacity="0.5"/>
      <path id="Path_498" data-name="Path 498" d="M324.739,310.361s.479-.059.651-.059c3.934,0,7.055,2.491,7.472,5.412a4.441,4.441,0,0,0,.051-.638c0-3.2-3.293-6.076-7.524-6.076-.173,0-.651.059-.651.059-3.737.451-7.017,3.118-7.017,6.018a3.948,3.948,0,0,0,.061.652C318.225,313.091,321.284,310.778,324.739,310.361Z" transform="translate(-11.243 0)" fill="#fff" opacity="0.5"/>
      <path id="Path_499" data-name="Path 499" d="M368.671,353.861a4.984,4.984,0,0,1,3.83-2c2.846,0,5.235,3.09,5.7,6.8h.088c0-4.261-2.613-8.1-5.787-8.1a4.984,4.984,0,0,0-3.83,2c-.9,1.215-3.361,1.367-3.772-.555l-.015.1C364.386,355.26,367.607,355.29,368.671,353.861Z" transform="translate(-27.681 -14.5)" fill="#fff" opacity="0.5"/>
      <path id="Path_500" data-name="Path 500" d="M339.622,330.7l13.617-2.17a3.585,3.585,0,0,1,3.665,2.828l.079-.514a3.572,3.572,0,0,0-3.744-3.616l-13.617,2.17a3.34,3.34,0,0,1-2.547-1.7C336.335,329.573,339,330.781,339.622,330.7Z" transform="translate(-17.951 -6.359)" fill="#fff" opacity="0.5"/>
      <path id="Path_501" data-name="Path 501" d="M319.8,320.542a5.5,5.5,0,0,1-2.012-3.207,3.963,3.963,0,0,0-.061.65,5.174,5.174,0,0,0,2.073,3.859,3.6,3.6,0,0,1,.518,1.066A2.894,2.894,0,0,0,319.8,320.542Z" transform="translate(-11.243 -2.909)" fill="#ba1919"/>
      <path id="Path_502" data-name="Path 502" d="M337.069,322.932a3.112,3.112,0,0,1,.772-1.1,5.558,5.558,0,0,0,1.775-3.859,4.707,4.707,0,0,0-.051-.664,5.779,5.779,0,0,1-1.724,3.221C336.884,321.459,336.783,322.275,337.069,322.932Z" transform="translate(-17.945 -2.901)" fill="#cc5c11"/>
    </g>
  </g>
</svg>
