<svg xmlns="http://www.w3.org/2000/svg" viewBox="0 0 79.62 79.97"><defs><style>.cls-1{fill:#f15a29;}.cls-2{fill:#f15a2b;fill-rule:evenodd;}.cls-3{fill:#c1d7e0;}.cls-4{fill:#231f20;}.cls-5{fill:#c91f46;}</style></defs><g id="Layer_2" data-name="Layer 2"><g id="Layer_1-2" data-name="Layer 1"><circle class="cls-1" cx="39.85" cy="39.65" r="36.28"/><path class="cls-2" d="M8.77,26.9c.11.05,0,.27.15.27l-.1.26c-.1,0,0-.39-.13-.15C8.63,27.22,8.73,27,8.77,26.9Zm.13-1.29c0,.05-.05.19,0,.22,0,.2-.15.08-.19.12s-.16.54-.32.38A1.72,1.72,0,0,1,8.9,25.61Zm0,1.34c.06-.14.1-.3.17-.43C9.2,26.59,9.08,27.13,8.88,27Zm1.68-5.12c-.05.24,0,.22-.21.44s.15.16.11.29l-.51.81c-.2.23,0-.19.1-.28-.14,0-.27.23-.41.09-.08.16.15.16.12.29-.21.52-.46.47-.7.6a.91.91,0,0,1-.4.67,4,4,0,0,1,.85-1.3c-.08,0-.16.17-.25.08.17-.31.38-.66.59-.55.4-.39.3-.86.56-1.24,0,0,.19.05.2-.1s-.27.22-.4,0c.27-.2.18-.4.31-.61s.25-.19.35-.46c.05,0,0,.13,0,.2,0,.36.35.52.09,1,.07-.24-.18-.34-.15-.56-.06,0-.13.12-.2.21a2,2,0,0,0,.25.4C10.73,22,10.64,21.87,10.56,21.83Zm-.94,3.4c.22,0,.05.39-.1.47S9.51,25.44,9.62,25.23Zm1-1.83-.1.16c-.12.28-.22.21-.33.35-.4.72,0-.13,0-.31S10.43,23.3,10.57,23.4ZM10,24.7c-.06.19-.14.2-.22.31-.05-.15.19-.47-.1-.48C9.82,24.35,10,24.62,10,24.7Zm-1,.74c-.14.22-.17-.08,0-.23-.17,0-.28.61-.45.64,0-.26.18-.3.25-.63.14,0,.25-.25.4-.12C9.13,25.28,8.85,25.3,9,25.44Zm-.7,1.87c-.27,0,0-.83.24-.62A1.19,1.19,0,0,0,8.29,27.31ZM33.74,74.7c-.14.18.29.14.47.2-.1.1-.5.1-.5-.08-.18,0-.1.19-.24.2s-.57-.09-.78-.19c0,0,.06-.15,0-.17s-.69-.14-.36-.22a.66.66,0,0,1,.54.31,1.36,1.36,0,0,0,.62,0c-.08-.27-.32-.06-.59-.1-.27-.31-1.76-.46-2.36-.79.7.14,1.49.36,2.28.55s1.6.28,2.27.42C34.87,74.94,34,74.56,33.74,74.7ZM37,74.37c.15-.25.54-.05.8-.13s.09,0,.38,0C38.31,74.71,37.07,74.37,37,74.37Zm-.85-.25c-.07,0-.17.14,0,.18s.24-.08.11-.1c.2-.16.45.1.77,0v.12a10.86,10.86,0,0,1-2.07,0c-.32-.06-.34-.25-.76-.19-.1-.1,0-.1,0-.18s-.46-.21-.73-.3c0-.24.77.2.6,0,.22-.16.25.22.33.3.26-.06.23.14.27.16s.3,0,.39.06,0,.18.17.15,0-.06,0-.11-.2,0-.46-.2c0,0,.15-.09.12-.1s-.58,0-.46-.2C35.2,73.86,35.58,74,36.13,74.12Zm-.22.15c-.18-.06-.15-.2-.46-.2C35.31,74.23,35.82,74.39,35.91,74.27ZM8.43,26c-.18.35-.38.24-.5.72A.56.56,0,0,1,8.22,26a.77.77,0,0,1,.34-.81c.22-.14-.16.21-.22.44S8.4,25.9,8.43,26ZM39,74.13c.38,0,.86.33.27.32C39.57,74.27,38.89,74.34,39,74.13Zm-.81.37.49,0C38.77,74.73,38,74.68,38.14,74.5ZM8.52,27.71l.1-.26.22.1-.09.26C8.69,27.62,8.67,27.79,8.52,27.71ZM33.2,73.46c.1-.15.46-.06.54-.22a13.46,13.46,0,0,1,2,.39,15,15,0,0,1-1.8-.24C33.61,73.39,33.5,73.5,33.2,73.46ZM10.62,54.73c.4.13.51.64.85,1.22-.21,0-.26-.37-.43-.6A4.52,4.52,0,0,1,10.62,54.73Zm.74-33.63c-.21.35.3,0,.05.38.08,0,.17-.15.25-.06s-.19.24-.3.37-.23.51-.35.33a.87.87,0,0,1,.3-.36c.11-.18-.16-.13-.15-.1-.06-.13.22-.37-.05-.38.36-.3.18-.53.46-.73a.21.21,0,0,0,.09.18C11.56,20.83,11.46,21.19,11.36,21.1ZM31.49,72.78a.46.46,0,0,1,.56.15c.09,0,.09-.05.12-.09.19.17.45.06.66.12s.43,0,.35.19c-.39-.14-.65,0-.88,0S31.89,72.86,31.49,72.78Zm39.65-15.2c.29,0-.14,1-.37.72.1-.17.2,0,.31-.28s-.19,0-.26.08c-.24.36.15.39-.12.76a.9.9,0,0,1,.08-.91C70.91,57.74,71,57.8,71.14,57.58ZM66,64.11c-.14.19-.32.57-.49.35.15-.12.24,0,.42-.28-.09-.2-.33.24-.41,0,.2-.18.82-.55.54-.59,0-.21.39-.38.47-.24s-.22.19-.27.3,0,.14,0,.15S66.05,64,66,64.11Zm1.6-.58c-.11.32-.7.79-1,1.17,0-.17,0-.34-.16-.45.19-.29.24,0,.35.07.23-.17,0-.18,0-.28s.11-.22.14-.15c0-.1-.1-.13-.24-.09s0,.13,0,.12-.47.11-.54.31c0-.18.24-.48.41-.44.38-.39.21-.49.64-.78.11.11-.14.33-.32.53l.13.12c.26-.3.12-.44.51-.63.07-.1,0-.14-.07-.2.16-.23.23-.07.36-.22s0-.29.28-.56c.15.13,0,.38-.18.64s0,.38,0,.58c-.2.35-.21-.16-.41.18C67.41,63.55,67.5,63.61,67.57,63.53Zm2.33-5.2c0-.17.14-.14.26-.3s.09-.29.16-.37.38-.27.52-.5c.14.39-.5.52-.53,1A.81.81,0,0,0,69.9,58.33Zm-.59,1.28c-.11,0,.09-.5.22-.45a1.43,1.43,0,0,1,.27-.78c-.19.48.12.29.35,0,0,.54-.53.66-.69,1.22C69.42,59.54,69.37,59.55,69.31,59.61Zm-5.73,6.77.22-.2a.35.35,0,0,1-.1.5C63.53,66.61,63.7,66.47,63.58,66.38Zm.58.53c.16-.11.24,0,.46-.24,0-.1,0-.18.15-.3,0,.07.1.14.19.07C64.82,66.66,64.38,67.13,64.16,66.91Zm.84-.59c-.08-.25.38-.31.65-.65-.31,0,.52-.46.62-.83.24.13-.25.5-.43.73S65.27,66.25,65,66.32Zm-.35-.09s.06-.11.11-.18-.16-.06-.27,0,.39-.44,0-.26c-.11-.2.3-.2.34-.23s.2-.21.31-.27.12,0,.15,0,.23-.27.3-.12c.13-.12.3-.42.36-.21-.23.13-.45.42-.73.56s-.51,0-.53.31c.21,0,.53-.41.65-.18C65,66,64.86,65.85,64.65,66.23Zm6-8.93c-.07,0-.15,0-.1-.06a8.76,8.76,0,0,1,.48-.8c.18-.34.37-.71.52-1s.25-.28,0,0A6.29,6.29,0,0,1,70.68,57.3Zm-6.1,8c.08-.19-.13-.32.17-.55-.16.26.41.06,0,.35.14,0,.39-.32.46-.09-.39.13-.63.57-1.12.85.09-.3-.15.07-.23-.12C64.2,65.34,64.31,65.56,64.58,65.25Zm-.26-.57c-.33.11.55-.44.41-.56.26-.14.24-.36.51-.46-.22.29-.41.81-.61.91C64.78,64.26,64.6,64.43,64.32,64.68Zm5.25-4.63c.16-.15.05-.25.09-.31.13-.23.19,0,.36-.24,0,.31.28.15.08.55-.19,0,0-.25-.24-.29-.17.2-.17.58.07.42,0,.06,0,.1-.07.08l-.12.16c-.19-.05.08-.29-.12-.34-.22.39-.19.53-.5.76-.14-.11,0-.32,0-.5C69.32,60.08,69.4,60.21,69.57,60.05Zm4.57-11c-.16.15.17-.78.23-1.08C74.58,48.23,74.2,48.65,74.14,49.07ZM74,53.21a1.34,1.34,0,0,0,.41-.72c.16.1-.08.74-.21.7.12.09-.07.41,0,.55.29-.23.32-1,.35-1.09,0,0,.11,0,.11.05a.85.85,0,0,0-.08-.48c.06-.17.14-.24.22-.25a3.35,3.35,0,0,1,.2-.7c.06-.4.26.07.32-.33,0-.14-.1,0-.15.06-.09-.11.17-.55.19-.81,0,.15,0,.41,0,.56s.09-.08.15-.06a3.28,3.28,0,0,0,0-.56c.17.15.35-.73.44-1a2.39,2.39,0,0,1,0,.66c.09,0,.12-.24.17-.39a5.35,5.35,0,0,1-.42,2.19c-.07.17-.1.18-.19.16s.07.1,0,.24-.17.11-.19.15,0,.2,0,.34-.3.47-.41.74a11.74,11.74,0,0,1-.45,1.3c-.21.37-.5.66-.72,1a.94.94,0,0,0-.09.31,7.84,7.84,0,0,0-.9,1.78,1,1,0,0,0-.27.21c-.07-.14.35-.55.06-.57a5,5,0,0,0-.18.87c-.43.31-.76,1.17-1.2,1.71-.16.19-.22.12-.37.25s-.38.5-.56.48c-.18-.22.31-.51.42-.71s.35-.6.49-.79a.33.33,0,0,0,.06-.21c.05-.06.25-.17.26-.19s.14-.35.22-.48a1.62,1.62,0,0,0,.39-.73c.17.07,0,.47.26.16.06-.15-.09,0-.16-.1s.24-.52.1-.65c.45-.68.62-1.19,1-1.68a1.12,1.12,0,0,0,0-.89,2.33,2.33,0,0,0,.43-.82l.22.1C74.11,53.42,74.14,53.24,74,53.21Zm-1.41,3.44c.07,0,.13-.06.2-.13-.25-.13-.23.21-.38.49.13,0,.27.12.4,0C72.77,56.74,72.5,57,72.57,56.65Zm.43-.6c-.17.28,0,.33-.08.56,0,0-.14.12-.09.18.12-.38.27,0,.39-.38C73,56.4,73.19,56.1,73,56.05Zm.43-.59c-.18,0-.33.27-.49.44.11.16.2,0,.31.05C73.38,55.74,73.25,55.7,73.43,55.46Zm2-4c0-.07.09-.1.15-.06.06-.25.14-.52,0-.57C75.47,51.11,75.41,51.33,75.48,51.46Zm-1.29,2.86c-.09.33-.59.86-.37.75S74.4,54.15,74.19,54.32Zm-.26-.46c-.32-.07-.48.94-.33,1.11C73.92,54.46,73.59,54.41,73.93,53.86ZM39.62,74.29c.33.07.13-.22.49-.17,0,.18-.4.16-.3.43C39.64,74.52,39.59,74.43,39.62,74.29ZM76.15,39.65c.24.13,0,.5,0,.91C76,40.8,76.15,39.89,76.15,39.65ZM71.3,57.44c.13-.37.25-.08.37-.37.09.22-.33.39-.27.55C71.16,57.88,71.54,57.37,71.3,57.44Zm.84-.33c.15,0,0,.21,0,.27a1.34,1.34,0,0,0-.38.61C71.65,57.71,72,57.55,72.14,57.11ZM72,54.52l.17-.36c0,.07,0,.14.12.17l.09-.18c0-.12-.07-.14-.11,0-.11-.19.21-.32.28-.42-.1-.06-.17.06-.27,0,.31-.13.36-.42.49-.87.12.09-.13.46.08.47,0,.06-.22.23-.22.23s.07.14.07.14a5,5,0,0,0-.4.81C72.21,54.4,72.13,54.66,72,54.52ZM12.5,19.82c.16.1,0,.4-.19.45S12.35,20,12.5,19.82ZM72.19,55.39c.18-.37.54-.55.34-.84.11-.36.27-.19.38-.49s0-.56.27-.76a1.24,1.24,0,0,1-.16.82C72.82,54.58,72.48,55.44,72.19,55.39Zm0,.21c.38.3-.36.8-.37,1.3-.19-.24,0-.09-.26.08C71.44,56.53,72.1,56.18,72.15,55.6Zm.84-.48c.08-.16,0-.22.13-.39.28,0-.18.4,0,.45a8.85,8.85,0,0,0-.79,1.32C72.09,56.57,72.86,55.38,73,55.12ZM71.68,40.06c.24.24.59.34.73.76a4.54,4.54,0,0,0,0,.46,1.3,1.3,0,0,1,.07.84,3.37,3.37,0,0,0,.15.48,23.78,23.78,0,0,1-.45,3,.82.82,0,0,1-.08-.3c-.19,0-.11.23-.13.44-.2,0-.38.47-.37.67a1.31,1.31,0,0,0,.5-.73c.1.39-.14.66-.17,1.09-.15-.2-.27.21-.18-.23a.72.72,0,0,0-.2.51c.18,0,.25-.31.48-.16l-.12.45c.07-.6-.41,0-.33.29.08,0,.07-.19.13-.25s-.12.5-.08.74c-.07,0-.11.19-.22.13.07.31-.28.64-.43.91,0-.48.15-1-.18-1.19,0-.09.13,0,.16-.14,0-.27-.14.05-.23-.07.13-.31,0-.43.13-.7.2,0,0,.22,0,.37.25.16.3-.58.19-.69.05-.28.23-.15.26-.49a1.88,1.88,0,0,0-.12-.3c-.12,0,0,.28,0,.26s-.15.11-.19.23a1.75,1.75,0,0,1-.19.69c.06-.39.16-.78.21-1.18l.11-1.21a.61.61,0,0,0,.59.11c.09-.26-.06-.28,0-.54s-.15.22-.31,0l.07-.44c-.27,0-.27.25-.28.59-.19-.26,0-.92,0-1.35a.24.24,0,0,0,.16.11c0-.22,0-.28,0-.45a.23.23,0,0,0-.14.16,7,7,0,0,1-.14-1.61c.08.11.14.11.19-.07s-.2-.38-.23-.19c-.13,0,0-.38,0-.53C71.18,40.34,71.5,40.32,71.68,40.06Zm-.13,6.42c-.19,0-.44.59-.25.68C71.45,46.94,71.38,46.8,71.55,46.48Zm.23-1.62c-.2.24-.21.35-.51.18-.14.44.33.2.31.34-.17.1-.31.79,0,.82.12-.26,0-.23-.06-.38C71.62,45.48,72,45.21,71.78,44.86Zm0-1.92a.84.84,0,0,0,0,.63c0,.13-.16.56,0,.46s.08-.39.19-.43C71.66,43.44,71.86,43.18,71.74,42.94Zm.32.23c.15,0,.2-.17.23-.34C72.09,42.71,72.1,42.93,72.06,43.17Zm-.41-.69a.39.39,0,0,0,.15.38c0-.12.1-.16.08-.35Zm-.17-.29c0,.08.4.29.37,0C71.85,42,71.42,41.9,71.48,42.19Zm-.16-1.26c0-.09-.07-.07-.07.09.2,0,.3-.09.33-.34C71.39,40.59,71.47,41,71.32,40.93ZM46.87,73.68c-.25,0-.75.13-.8-.07.41-.11.56,0,1-.1C47,73.58,46.85,73.6,46.87,73.68Zm-.33-.2c-.34-.08.39-.31.55-.23C47,73.42,46.61,73.27,46.54,73.48Zm3.07-.84c0,.13-.71.61-1.1.39a2.72,2.72,0,0,1-.54.25s0-.06.09-.08-.05,0-.11,0c.22-.34,1.3,0,1.18-.48C49.38,72.58,49.39,72.71,49.61,72.64Zm-3.82,1.07c-.47,0-.47.24-.94.25,0-.25.58-.22.73-.4.15,0,.6.15.33.31,0,.19.35-.23.39-.05s-.41.23-.66.21C45.53,73.86,45.77,73.83,45.79,73.71Zm2.64-.17c-.62.09-.87.22-1.53.32,0-.29.39-.46.87-.59.2.19-.4.12-.34.27C47.77,73.67,48.21,73.28,48.43,73.54Zm17.7-10.66c-.09-.06,0-.23-.13-.12,0-.23.33-.3.4-.17ZM44.19,74.18a5.43,5.43,0,0,0,1-.14c0,.15-.45.1-.36.3C44.56,74.31,44.17,74.4,44.19,74.18Zm-3.79-.43a1.58,1.58,0,0,1,1.24,0c.1.22-.17,0-.28,0A6.32,6.32,0,0,1,40.4,73.75Zm9.06-.52c.6-.16,0-.39.57-.51,0,.17-.24.27-.17.47-.4.1-.8.36-1,.12C49.18,73.28,49.63,72.93,49.46,73.23Zm-7.34.33c.22-.15.85,0,1.23-.11A2.51,2.51,0,0,1,42.12,73.56Zm1.08.5c.26.1.29,0,.58,0,0,.13-.35.11-.37.24A.28.28,0,0,1,43.2,74.06Zm-2.51.27c0-.15-.14-.19-.39-.16.23-.28.77,0,1.16-.17.1.08.09.22.29.23s-.09-.12,0-.24a.74.74,0,0,0,.39.05c.09.11-.29.21,0,.24,0,.08-.49.22-.58.08-.19,0-.12.17-.39.14,0-.13.14-.12.3-.14s-.1-.1-.1-.17c-.36.11-.46.37-1,.4.25-.29-.13-.11-.39,0,0-.1.12-.13.11-.24C40.4,74.24,40.39,74.39,40.69,74.33Zm3.59-1.13c.23.09.58-.08.94-.14.17,0,.21,0,.38,0S45.79,73,46,73a15.39,15.39,0,0,0,2.59-.56c.06.33-.59.26-.8.32s-.4.26-.64.22-.07.14,0,.11c-.07.18-.42.06-.41-.08a16,16,0,0,0-2,.4C44.59,73.33,44.33,73.35,44.28,73.2ZM66.64,62.15c-.28.09.24-.57.41-.68C67.16,61.63,66.56,62,66.64,62.15Zm1.89.05c-.13.14-.37.22-.46.41-.22-.11.47-.51.42-.45s.25-.43.45-.68a3.46,3.46,0,0,0,.49-.65c.1,0,.22-.06.34-.25,0,.36-.49.55-.79.93S68.72,62,68.53,62.2Zm-1.42,0c.19.07-.18.3.09.35-.11.12-.21.16-.29.14C67,62.49,66.81,62.4,67.11,62.17Zm-.2.49c-.2.2.37.17,0,.42-.2,0,0-.38-.22-.21C66.62,62.76,66.79,62.58,66.91,62.66Zm1,.34c.2-.23.39-.18.43-.44C68.59,62.35,68,63.41,67.9,63ZM53.58,70.19c.35-.18.37-.09.6-.28.14.3-.54.17-.31.47C53.61,70.58,53.67,70.27,53.58,70.19Zm8.6-5.62c.25-.47.89-.75,1.27-1.12s.3-.64.56-.76c.14.1-.18.33-.3.5a2.22,2.22,0,0,1-.25.41c-.1.1-.14,0-.18.08s-.19.35-.39.27A1.53,1.53,0,0,1,62.18,64.57Zm6.38-3c0,.12-.13.31-.21.48C68.15,62,68.4,61.63,68.56,61.57Zm0-1.32a3,3,0,0,0,.51-.36c.17.51-.57,1.1-1,1.65-.06.1,0,.14.08.2-.34.07-.32.43-.5.75s-.3.09-.47.25c.11-.33.52-.48.65-.88,0-.2-.12-.33.07-.59.1,0,0,.14.08.19C68.24,60.94,68.9,60.55,68.51,60.25Zm-2.09.56c-.14-.24.08-.52.38-.79,0-.16.31-.79.51-.57C67,59.89,66.67,60.57,66.42,60.81ZM53.58,8.21c-.44-.13-1.14-.41-1.64-.54A3.74,3.74,0,0,1,53.58,8.21ZM32.94,77.49c.1-.18.42,0,.65,0C33.49,77.72,33.17,77.55,32.94,77.49Zm.8-.17-1-.16C32.8,77,33.84,77.11,33.74,77.32Zm-.22.57c-.11.17-.3,0-.55,0C33,77.71,33.4,77.79,33.52,77.89Zm-6.15-2.3c-.09.1-.5-.17-.72-.21C26.83,75.2,27.07,75.49,27.37,75.59Zm6.26,2.86c.79,0,1.15.22,1.74.28-.19.2.49.09.3.29-.35-.13-.7-.12-1-.21,0,0,0-.11,0-.12s-.44,0-.54-.09,0,.09-.16.22c-.23-.24-.57-.09-1-.28-.12,0-.07,0,0,.06-.15.16-.28-.12-.42-.13s.68,0,.37-.18c.24-.11.53.18.28.29C33.38,78.53,33.68,78.62,33.63,78.45Zm2.35-.9c-.11.21-.79,0-1.18-.06C35.06,77.27,35.54,77.64,36,77.55Zm-10.54-1.8c.08-.13-.08-.23-.21-.33a.52.52,0,0,0-.28.09,4.72,4.72,0,0,0-.66-.37c.3,0,.12-.15.42-.13.34.27-.05,0-.1.21.35.15.45-.11,1,.2-.16.3.13.23.54.4-.1.23-.49.13-.93,0C25.19,75.68,25.31,75.71,25.44,75.75ZM35.53,78.4c.14-.09.57.15,1,.09C36.46,78.67,35.79,78.5,35.53,78.4Zm-1.22.65c0,.13-.39,0-.56,0C33.84,78.8,34.15,78.92,34.31,79.05ZM23.5,75a1,1,0,0,1-.67-.13C22.91,74.72,23.24,74.92,23.5,75Zm-2.68-1.45a.8.8,0,0,0,.25.22,1,1,0,0,1-.65-.19C20.51,73.51,20.73,73.65,20.82,73.56Zm15.58,4c1.45.12,1.84.12,3.3.26.33.11-.39,0-.65,0l-2.88-.17C36.15,77.58,36.27,77.58,36.4,77.58ZM17,71.25c-.39-.27-.24-.37-.08-.44C17.19,71,17,71.1,17,71.25ZM12.73,68.6c-.23-.19-.34-.34-.2-.43C12.75,68.36,12.86,68.51,12.73,68.6Zm3.32,2.77a5.81,5.81,0,0,1-1.69-1.43c-.24-.25-.31,0-.57-.36,0,0,.12,0,.16,0a3.68,3.68,0,0,0-1-.74c.31-.12,0-.4-.15-.64.4,0,.73.68.8.91a.88.88,0,0,1,.9.34c-.08.15-.34-.24-.45-.17s.29.23.37.26.42.3.48.44-.09.08-.08.09.27.08.43.18.09.14.14.18.31.06.43.33c0,0,.12.13.14.18S15.59,71,16.05,71.37ZM15.82,71c-.43-.27-.49-.78-.78-.45C15.31,70.7,15.68,71.09,15.82,71Zm8.47,3.44c.14-.16.5.14.69.27C24.88,74.78,24.5,74.46,24.29,74.4Zm-.33.17c.26,0,.8.4,1.19.5C24.88,75.14,24.34,74.71,24,74.57Zm-11.5-8.7c-.29,0-.32-.3-.61-.6C11.74,65,12.29,65.71,12.46,65.87Zm2.59,2.51a6.48,6.48,0,0,1-1.14-1l-.84-.8c-.25-.28-.37-.44-.05-.11C13.56,67,14.47,67.87,15.05,68.38ZM4.37,37.5c.28-.25,0,.76,0,1.1a.75.75,0,0,1,0-.8C4.43,37.66,4.44,37.52,4.37,37.5ZM4.64,36a6.54,6.54,0,0,0-.13,1.18C4.38,36.94,4.38,36,4.64,36Zm.59-.61c0-.24.2,0,.23,0,0,.24-.14.29-.19.47C5.12,35.82,5.47,35.48,5.23,35.42ZM40.55,77.88a4.58,4.58,0,0,1,1.61-.06A5.63,5.63,0,0,1,40.55,77.88ZM12.87,68c-.4.33-1.11-.27-1.38-1-.12-.1-.09.06,0,.16-.35-.11-.42-.59-.57-.82s-.09,0-.05,0a2.55,2.55,0,0,1-.76-.94c-.18-.07-.43-.46-.55-.27a5.61,5.61,0,0,0-.91-1.26c-.09-.26.1-.38-.14-.71-.26-.14.26.57-.17.39-.15-.17-.19-.29-.1-.34-.45-.59-1-1.43-1.38-1.86-.14-.2-.14-.33,0-.38C6.55,61,6.23,60.48,6,60c-.2,0-.41-.46-.61-.67.09-.11.18.08.27.23,0-.33-.42-.56-.45-.89-.07-.1-.08,0,0,0-.26,0-.06-.17-.11-.32l-.23-.5c-.07-.17-.18-.33-.24-.5a1.3,1.3,0,0,1,0-.35c0-.11-.26-.18-.35-.32s0-.2-.09-.33S4,56.27,4,56.17a3.4,3.4,0,0,0-.36-.93s0,.18,0,.28a4.53,4.53,0,0,1-.48-1.41c-.06-.17-.19-.31-.25-.5a1.85,1.85,0,0,0-.09-.44c-.06-.14-.09,0-.15-.06s-.14-.55-.26-.73c.11,0,.2.14.26.38-.06-.44.26.07.31-.21,0-.08-.09-.09-.13-.19-.15-.3-.09.13-.23.07s-.06-.23-.14-.42l-.23-.28s0-.52-.2-.4c-.09-.23.07-.18,0-.35S2,50.79,2,50.8a2.11,2.11,0,0,0-.32-1.29,3.54,3.54,0,0,0,0-.9c-.11,0-.09.11-.06.24-.14-.16-.08-.39-.24-.74s-.22,0-.29-.17c0-.35-.24-.45-.31-.63s0-.37-.08-.55a21.56,21.56,0,0,1-.45-3.54c0-.24-.19-.62,0-.78,0-.25-.12-.15-.14-.33A12.47,12.47,0,0,1,.13,39a1.29,1.29,0,0,1,0,.65,1.58,1.58,0,0,0,0,.68c.22.16.11-.39.1-.66a1.59,1.59,0,0,1,.07-.33c0-.26-.12-.38-.08-.56a2.55,2.55,0,0,0,0-1.66,7.29,7.29,0,0,1,.36-2.41,8.48,8.48,0,0,1,.43-2.62c-.23-.3.19-1.09.39-1.84.15-.57.18-1.15.31-1.64a18.16,18.16,0,0,1,.63-1.89A4.49,4.49,0,0,0,3,25.14c.28-.2.19-.5.31-.83.06-.18.13-.15.19-.28.28-.55.51-1.28.83-2,.16-.35.39-.64.54-1s.1-.44.22-.65.33-.4.46-.63a3.57,3.57,0,0,1,.53-1c.06-.09,0-.11,0-.16A3.54,3.54,0,0,0,6.52,18a2.46,2.46,0,0,0,.93-.83c.28-.07,0,.53.28.62s.35-.45.46-.61-.08,0-.12-.23c.21-.35.33-.05.52-.29s.07-.33.3-.59c.08.08.18,0,.25.07.27-.27.19-.39.42-.64.09,0,0,.14.07.2.21-.34.36-.67.65-.72.09-.1,0-.08,0,0a3,3,0,0,1,.92-.91c.11-.18-.08-.18.18-.28a1.26,1.26,0,0,0,.27-.64c.14-.07.24,0,.39-.07a.86.86,0,0,1,.18-.28c-.1-.1-.25,0-.33-.18.19-.2.12-.06.16,0,.25-.18.13-.28.33-.44s.74,0,.65-.42c-.07,0-.3.16-.24.22-.18.07-.26-.11-.41-.12a3.21,3.21,0,0,1,.61-.63c.06.13-.45.39-.28.5a2.09,2.09,0,0,0,.94-1.09c.31-.19.75-.73.89-.47.34-.21.13-.32.41-.52s0,.09-.13.19c.15.11.68-.26.54.16a1.15,1.15,0,0,0,.61-.45c-.13,0-.33.14-.51.23.09-.18-.35-.17.05-.48s-.05.14.14.19c.29-.23.26-.44.52-.39.24-.22-.15,0-.14-.19a4,4,0,0,0,.92-.6c.22,0,0,.32.34.12a.36.36,0,0,0,.2-.29c-.07-.05-.28.18-.33.1-.21-.11.22-.28.37-.43-.21-.13-.38.23-.65.4,0-.36.56-.5,1-.87,0,.09-.1.19-.08.28.51-.52.68-.22,1-.28.07,0,.06-.1.16-.16-.24-.08-.56,0-.75-.18.23-.08.44-.12.53,0a.57.57,0,0,0,.38-.43.26.26,0,0,1,.3.09c.29-.2,0-.18.54-.38.16-.07.39-.2.43-.12.32-.24-.13-.13,0-.37l-.28.16c0-.15.67-.44.65-.17a5.13,5.13,0,0,1,1-.47c-.3,0-1.07.45-.93.09.26-.16.3,0,.56-.11.07,0,.07-.1.17-.15s-.18,0-.21-.16c-.22.07-.24.16-.36.26-.25-.06.55-.43.79-.4.06.09-.07.17,0,.27.34-.28,1-.58,1.24-.45.14-.19-.17-.15-.32-.18.48-.42,1.16-.18,1.73-.68.29-.18.19.12.55-.1s.16-.22.35-.32c.53-.06.81-.27,1.19-.23.09-.07.06-.17.27-.22s.07-.24.24-.34c-.14,0-.13-.09.06-.15.08.16-.18.45.23.36s-.17,0-.07-.23a6.32,6.32,0,0,0,.9-.44c.4-.11.73,0,1.22-.13.26,0-.13-.25.27-.25s.07.06.14.09.35-.06.36.1c.41-.18.09-.24.24-.43a3.06,3.06,0,0,0,1.18-.29c.25.06,0,.19-.06.32.2.08.66-.17,1.07-.27-.06.22.11.26-.27.4,0,.08.28,0,.44,0s0-.26.05-.37c.33,0,.23-.25.63-.27.12,0,.07-.12.08-.2.72,0,1.37-.19,2-.21.11,0,.08-.09.1-.14a8.31,8.31,0,0,1,1.1-.08s0,.12,0,.12.43,0,.54,0,.08-.12.22-.13c.13-.2-.36,0-.23-.23.5-.19.29.34.89.08,0,.1-.1.11-.11.19.34.06.61-.2.77,0,.13,0,.09-.11.11-.19A9,9,0,0,0,40.48.11c0,.09-.33,0-.34.1s1.23-.17.45-.15c.06-.13.55,0,.78,0,0,.12.07.17.1.25s.06-.06,0-.06c.28-.2,1.05.26,1.22-.05.36,0,.23.2.65.16C43.41.22,43.2.22,43,.2c.12-.12.63,0,.76.11s-.11-.23.35-.13c.24,0,.2.11.2.21a6,6,0,0,0,1.12,0c.07,0,.12.07.21.09s.2,0,.23,0c.27,0,.74.15,1.21.2a6.71,6.71,0,0,1,.76.13c.28.07.56,0,.75.19a.79.79,0,0,0,.42.18l.14-.09s.67.47.87.17l1.31.29.45.07c.13.06.12.17.27.23.33.13.36-.08.52.2L53,2l2.3.78c.74.29,1.44.6,2.12.85a.56.56,0,0,1,.12.26,7.18,7.18,0,0,1,1.57.5l1.45.77c.24.18.2-.14.48.09-.15.13,0,.28.12.43.17-.11-.2-.26,0-.37.25.14.48.28.42.4a.28.28,0,0,0,.33-.08,9,9,0,0,1,1.57,1.11.76.76,0,0,0-.67.32c.18.16.22.06.29,0,.23.22.11.37.13.56.51.23.76.71,1.14.71.22.13.05.19.19.3s.13,0,.25,0c.34.2.29.32.56.54,0,.14,0,.28.29.51.32,0-.62-.67,0-.29a2.71,2.71,0,0,1,.33.31c.22.16.32.14.4.21s.14.21.29.35a13.33,13.33,0,0,1,1.8,1.66c.09.09.14,0,.21,0a4.45,4.45,0,0,0,1.47,1.39c.18.15.2.31.33.45s.27.13.32.18,0,.19,0,.24.36.39.38.42a3.62,3.62,0,0,1,.45.51c.05-.08-.13-.26-.22-.4s.48.57.65.78c-.28-.12,0,.37-.31.08-.07.18.25.08.38.42.2.05,0-.36.2-.14s-.1,0,0,.29.2,0,.28.08.29.52.37.3a5.89,5.89,0,0,1,.81,1.35c-.19.05-.07.33-.31.18a7.83,7.83,0,0,0,1,1.73c.07.08.1.06.17,0,.58.75.75,1.82,1.18,2.17.16.46.37,1.17.63,1.07a4.21,4.21,0,0,0,.44.8c.1.19.11.49.18.65s.19.21.23.27c.22.4.37.94.55,1.37s.36,1,.61,1.58c.14.37.33.6.43.95a5.89,5.89,0,0,0,.36,1.2c-.2,0-.19.16-.33.18-.06-.42-.28-.19-.37-.49-.13.13.17.32.16.65-.25-.23-.61-.24-.62.24,0,.07.17.22.2.3s.17.75.27,1.18.27.57.2,1A8.19,8.19,0,0,1,79.28,35c.06.22.19.31.26.54a8,8,0,0,1,0,1.89c-.24-.05-.24.29-.41.34-.06.61-.45.67-.55,1.2-.23-.22-.24,0-.29.32-.31-.4-.41.27-.65.3,0-.17-.06-.18-.07-.31-.08,0,0,.26,0,.42-.16-.26-.2-.06-.32-.33-.1,0-.11.08-.11.21,0-.14-.17-.08-.25-.22s0-.18,0-.2-.28,0-.31-.11.08-.12.05-.21a.66.66,0,0,0-.31-.41c0-.35-.11-.39-.09-.71,0-.12-.12-.08-.19-.1.21-.5.14-1.46.39-1.86l-.11-.81c-.37,0-.45.36-.72.47-.15-.65-.36.1-.57-.15L75,34.83c-.14,0-.15.19-.34.14,0-.54-.06-.62-.09-1.08a.53.53,0,0,0,.18-.43c-.07-.34-.16,0-.21-.17l0-.39.24,0c-.11-.37,0-.71-.22-.76-.08,0,.26.55-.06.51l-.72-3c-.06-.12-.14-.13-.19-.26-.14,0-.13.21-.32.19-.17-.44-.33-.34-.42-.89-.2,0,0,.23,0,.4s-.14-.14-.16-.26c-.16-.65-.75-1.64-.5-2a.89.89,0,0,1-.43-.67c.09,0,.11.26.21.23s0-.11.08-.13c-.1-.21-.26-.39-.41-.36-.34-.59-.37-1.15-.74-1.58.37.38,0-.43-.21-.44a8.56,8.56,0,0,0-.87-1.62c-.4-.58-.77-1.29-1.14-2a7.46,7.46,0,0,0-1.28-1.53c-.07-.17.08-.08.15-.11-.08-.08-.1-.14-.07-.19-.17-.22-.23-.12-.38-.32s-.14-.41-.25-.54-.28-.11-.41-.3-.17-.26-.05-.33c-.2-.11-.36,0-.59-.39.06,0,.16.11.22.06s-.28-.3-.41-.55c0,0,0-.21,0-.22a12.7,12.7,0,0,0-1.39-1.38.5.5,0,0,0-.27,0c-.12-.41-.74-.76-1.14-1.06l.12-.13c-.19-.11-.41-.34-.55-.27-.18-.24.19,0,.24-.11a1.48,1.48,0,0,0-.64-.32,3,3,0,0,0-1.16-.73c-.09-.11-.14-.22-.23-.33a31.67,31.67,0,0,1-3.94-2.33,2.87,2.87,0,0,0-.69-.16,7.38,7.38,0,0,0-1-.62L55,8.23c-.36-.06-1-.09-1.18-.45.17-.1.45.22.61.3s.31-.14.63.05c0-.1-.14-.2-.3-.28.33.05.3-.27.49-.3.44-.07.83.31,1.37.41.15.11.37.21.26.33.14.05.26.06.4.11,0-.1-.07-.21-.28-.31.27,0,.83.46,1,.63-.2.1-.13.11-.08.31.22.12.41,0,.54.27,0-.07.08-.08.15-.05.08-.17-.75-.36-.49-.52a6.24,6.24,0,0,1,1,.68c.34.16.12-.17.34-.14-.26-.17-.57-.18-.69-.43a.27.27,0,0,1,.3-.09.45.45,0,0,0-.16-.31c-.37-.1.07.23-.07.3-.17-.13-.22,0-.28,0-.28-.13-.27-.25-.48-.37.07-.06.24.09.38.16,0-.31-.48-.26-.67-.27-.32-.2-.34-.39-.48-.58s-.17.24-.48,0c-.12-.12-.1-.26-.12-.39s-.22.12-.39.07c-.44-.19-.93-.44-1.46-.71l-.8-.41A9,9,0,0,0,53.19,6c-.21-.1-.17.12-.36.06a.66.66,0,0,0,.33.25c-.33.08,0,.38,0,.56L53,6.77l-.19-.07c.21-.11.22-.28-.14-.43-.14.14.3.19.07.34a1.13,1.13,0,0,0-.95-.29c.12.18.36.12.56.21a5.26,5.26,0,0,1,.74.53c-.16,0-.46.17-.15.33a5,5,0,0,0-.93,0c-.26-.05-.14-.18-.32-.25a3,3,0,0,0-.74-.21c-.15-.05-.14-.12-.25-.16-.31-.12-.57-.13-.85-.22-.55-.2-1.73-.47-2.34-.63-.17,0-.42-.29-.57-.1-.27,0-.17-.15-.36-.18s-.19,0-.21.08c-.32,0-.09-.21-.35-.23s-.56,0-.77-.13c-.11,0-.1.1-.12.16a3.35,3.35,0,0,0-1.23-.32.46.46,0,0,0-.21.14c-.53-.09-1.46-.11-2.48-.18a13.48,13.48,0,0,0-1.56,0l-1.47.11c-.27,0-.48.11-.77.15a6.13,6.13,0,0,0-1.72.19c.49,0,.35.12-.17.21.31,0-2,.22-2.75.41-.15,0-.17,0-.29,0s-.4.17-.64.22-.37,0-.48.06-.33.26-.81.32a1.13,1.13,0,0,1-.31,0c-.14,0-.26.23-.42.29a.78.78,0,0,0-.28,0c-.24.09-.44.27-.69.37s-1.22.38-1.53.54c-.1,0,0,.17-.23.2s.05-.12,0-.2c-.17,0-.17.14-.34.19,0,.07.06.09.13.08,0,.17-.28.1-.22-.05a1.34,1.34,0,0,1-.5.29c-.07,0-.43.33-.56.39s-.35.1-.54.19l-1.6.84c-.21.12-.4.37-.6.5s-.16,0-.27.09a5,5,0,0,0-.62.44c-.17.08-.36.08-.47.14s-.43.17-.53.23-.15.23-.18.26-.15.05-.26.12-.13.17-.27.27-.35.17-.5.29-.66.8-1.19.95a5.1,5.1,0,0,1-.91,1c-.1.09-.29.17-.39.27-.74.7-1.42,1.51-2,2.12-.14.12-.37.13-.43.37.06,0,.15-.09.23-.17-.06.23-.64.89-.8.68.07.16-.11.22-.3.5-.1.13-.1.43-.44.74-.13-.05,0-.18.08-.3-.08,0-.3,0-.08-.2-.17-.06-.08.2-.23.31a.26.26,0,0,0-.13-.23c-.2.18-.08.25-.24.41-.12-.24-.41.05-.43.27.23,0,.5-.28.72-.15,0,.17-.16.39-.1.53-.14.06-.27,0-.41,0s.09.35.25.07c0,.4-.48.41-.65.34,0,.22-.24.52.05.63-.08.1-.17.21-.12.26-.23.08-.42.46-.62.37.12-.22.24-.41.35-.22l.29-.37c-.14-.2-.34.32-.48.12.13-.27.13-.21.34-.34-.18-.1-.4.23-.58.17-.18.23-.06.48-.31.6-.23-.17,0-.85-.19-.84,0-.25.37-.39.49-.73,0,.2.07,0,.19.14.3-.35-.21-.39.13-.76.15-.2.11-.07.16,0,.15-.16,0-.19.08-.31.21-.4.36-.2.57-.55s-.24.07-.29-.11c.11,0,.28-.38.39-.32.13-.19-.19,0-.26,0,.06-.27.49-.5.56-.82-.28,0-.16.32-.36.47-.14-.06-.39.24-.35,0-.33.31-.11.42-.39.71s-.17,0-.35.36a3.35,3.35,0,0,1-.21.47,2.33,2.33,0,0,0-.56.44c-.16.31.18-.21.2,0a1.75,1.75,0,0,1-.43.65c-.18.21-.32.42-.27.55a1,1,0,0,0-.47.52c-.17-.33.4-.4.37-.71-.37.16-.75.48-1.13.69,0,.41.41-.05.57-.23.15.15-.4.66,0,.7-.09.15-.17.2-.26.19,0,.23-.24.62-.47,1-.1-.09.22-.38.05-.43-.17.15-.35.33-.52.5s.08.28.22.36c-.14.2-.25.68-.4.68s.26-.35.16-.59c-.37.12-.2.55-.45.77.08.07.16,0,.25,0l-.39.8c-.26.21.34-.62.1-.62s-.24.68-.43,1c.41-.39-.16.53-.29.85s.17-.47.25-.65c-.29,0-.41.67-.41.91A1.59,1.59,0,0,0,6.5,27.3c.17-.07.26-.63.41-.9.12,0-.1.34-.13.49-.12.33-.3.72-.2.87a5.87,5.87,0,0,0-.69,1.55c0,.1.1.1.06.23s-.16.28-.3.21c0,.7-.4,1-.44,1.64-.17.16-.1-.08-.21-.16,0,.16-.1.15-.13.27s.14.17.17.05c.17.32-.1.7-.09,1.11.08,0,.16.05.19-.06.08.25-.14.51-.08.89-.09-.24-.32-.1-.39.12-.16-.1.09-.19.07-.39-.13,0-.21,0-.23.26,0,.44.32,0,.38.28a3.08,3.08,0,0,0-.29,1.06l-.18,0c-.08.49.11.67,0,1.21-.14-.16-.15.14-.19.18s-.24-.1-.25.17.2-.35.43-.15c0,.4-.24.26-.22.68,0,.14.1,0,.12-.09.15.23-.08.42-.1.69s.08.56.07.81-.12.49,0,.7c-.1,0-.1-.1-.18-.11,0,.3.17.4,0,.6-.14,0-.05-.29-.16-.31-.08.38.11.3.09.61.15-.06.16-.41.37-.39,0,.08,0,.34,0,.4s-.09-.15-.12-.1a1.85,1.85,0,0,0-.26,1c.06.28.12-.3.24,0l-.09.8H4c-.07.21,0,.22,0,.4,0,.36-.2.38.08.6,0-.21.18-.66.24-.11.13-.18,0-.76,0-1.1.21,0,.13.44.15.69s0,.68,0,.9l-.3,0c0,.42.14.53.31.38l.08.59c-.08,0-.12-.17-.2-.19.09.45,0,.63.09,1.1,0,0-.07-.09-.13-.09,0,.78.18,1.19.21,1.9.21.05.33.34.42.84.23-.07-.23-.53-.06-.8a5.27,5.27,0,0,1,.31,1.06c-.1.06-.13,0-.17-.17,0,.36-.22,0-.25.25.06.47.12-.16.23.16s-.21.28,0,.72c.05.19.18-.2.32,0-.09.27.31.81,0,.62a6,6,0,0,1,.43,1.33c.33.06,0-.43,0-.71.24,0,.13.41.26.65s.26.28.31.52c-.15.16-.23-.07-.3-.32-.12.05,0,.27,0,.51-.16,0-.25-.07-.25.18s.2-.19.35.1c.18.05.06-.47.25-.19s0,.13-.08.13a5.81,5.81,0,0,1,.4,1.13c-.28.11-.09-.51-.34-.41-.08.25.06.29.09.61s.19-.06.17-.07c.23,0,.08.36.32.2.09.37.36.54.34.83.27.13.55,1,.9,1.66.2.37.28.38.29.74.06.09.13,0,.19.13C9.28,57.45,9.86,58,10.25,59c.07.08.14,0,.21.1s0,.25.21.45c-.13.21-.29-.06-.42-.09a1,1,0,0,0-.35-.83c-.12.14.17.32.2.58,0,.06-.11.13-.1.18a2.21,2.21,0,0,0,.27.53c.24,0-.15-.28.09-.29s.61.5.43.08c.1,0,.64.64.41.67A6.39,6.39,0,0,1,12.48,62c.58.71,1.41,1.48,1.92,2,.21.17,0,.22.17.37a1.45,1.45,0,0,1,.33.37c.14.09.26,0,.45.25,0,.27-.2,0-.34-.08s-.22,0-.28,0-.25-.53-.38-.33.12.08.2.23-.18.26.15.4c.13-.07-.35-.29-.09-.33.4.27.69.83,1,1.11.14-.16-.45-.48-.46-.67s.29,0,.4-.12A11.08,11.08,0,0,1,17.38,67a4.34,4.34,0,0,1,1.57,1c.19-.13.09-.3-.13-.47.11-.09.38.21.5.15s-.22-.17-.31-.23c-.26-.19-.49-.46-.81-.7-.1,0-.13,0-.24,0-.3-.18-.32-.34-.44-.52s0,.15-.19.06c-.41-.54-1.1-.89-1.46-1.44.34,0-.29-.47-.17-.64-.17-.19-.18.29-.39,0,0,.06.1.16.17.24.19.25-.18-.06-.25-.15a2,2,0,0,0-.32-.63c-.2,0,.06.23.16.37-.15.13-.22-.18-.36-.33a10.69,10.69,0,0,1-1.09-1.12c.07-.12.19,0,.29.14.1-.32-.37-.4-.54-.44-.53-.58-.32-.83-.78-1.36-.23.07.21.42.31.62-.68-.42-1-1.4-1.43-1.85-.05,0-.21-.08-.22-.09s.11-.05.11-.07-.35-.26-.45-.4c-.19-.33-.07-.52-.24-.77-.07-.09-.14,0-.21,0-.4-.82-1-1.41-1.14-2-.06-.1-.08,0-.05,0A2.61,2.61,0,0,1,8.7,55a3.15,3.15,0,0,0-.42-.46c-.15-.36-.31-.79-.46-1.24s-.22-1-.3-1.38c.22-.22.21-.51.44-.56a12,12,0,0,1-.64-1.89.43.43,0,0,0-.21-.13.88.88,0,0,1-.06-.48c-.07-.22-.13.14-.13.23,0,.44.36.45.27.82a1.46,1.46,0,0,1-.38-.79.24.24,0,0,0-.08.21c-.11,0-.05-.14,0-.18s0-.27.19-.25c0-.12-.08-.25-.1-.37a1.05,1.05,0,0,1,0-.31c0-.17-.23-.13-.23-.44.21-.07,0-.54.22-.62-.14-.27-.19.17-.32,0s0-.46.11-.31c-.26-.19,0-.72-.3-.62s.24.41.08.47-.18-.39-.21-.55S6,45.89,6,45.85a3.12,3.12,0,0,1-.1-1.54,9.53,9.53,0,0,1-.15-1,2.89,2.89,0,0,0-.21-.56c-.17.44.14.75.11,1.15A1.15,1.15,0,0,1,5.39,43a8.62,8.62,0,0,0,0-1.17c.19-.09.13.25.25.28-.07-.29-.21-.46-.27-.76.17-.21,0-.42.08-.87-.16,0,.08.54-.16.39,0-.3,0-.76-.15-.78.07-.24.1-.57.29-.67,0-.14,0-.37-.22-.3-.05-.26.21-.4,0-.39,0-.35.24-.36.34-.56s-.13.25-.3.08a13.4,13.4,0,0,0,.17-1.84c0-.1-.13-.11-.1-.3.23.28.12-.21.34-.25-.1-.13-.06-.8-.2-.62-.19-.12.09-.18.1-.27,0-.28-.18.11-.22-.14.21-.92.23-1.77.38-2.51,0-.16.11-.15.14-.27a3.91,3.91,0,0,1,.08-.79c0-.09.09-.28.22-.34.06-.35.17-.78.25-1.15a3,3,0,0,1,1.2-2.14c.21.12.41.16.55-.09.09.07.06.21,0,.4.19-.14.35.38.55-.08-.08.32.18.39.22.59s-.17.34,0,.3a6.62,6.62,0,0,0-.61,1.35c-.14.48-.28,1-.44,1.41a4,4,0,0,0-.24.41c-.08.23-.05.48-.14.73s-.12.18-.15.35c-.05.32.11.54-.12.73,0,.1.11.09.09.21s0,.5-.12.73a1,1,0,0,1-.16.25c0,.1.07.19.07.3s-.15.44-.16.63,0,.22,0,.38a2.49,2.49,0,0,1-.11.92c0,.15,0,.18.1.19a13,13,0,0,0-.13,2.13c-.1.17-.24-.17-.31.17.08.29.22-.13.3.11a15.15,15.15,0,0,0,.07,1.66.29.29,0,0,1-.13-.28c-.22.33.18.47.2.46.07.43-.16-.12-.17.19S6.88,42,7,42l0,.65c-.11.16-.07,0-.23,0v.28c0,.2.23-.36.25.17.07.37-.09,0-.23.11,0,.25-.07.2,0,.37s.26,0,.38.06l.09.64a.25.25,0,0,0-.25-.07c.1.11.07.48.29.34.12.5.05.77-.11.95,0,.17.35.37.06.46.09.24.21-.26.21.24a.26.26,0,0,0,.1-.2c0,.05.35.78,0,.65.07.28.27.18.31.5l-.17,0c.11,0,.16.25.26.32a.59.59,0,0,1-.12.5c.26-.05.3.63.37.76a.38.38,0,0,0,0-.28c.29.44.2,1.12.49,1.67a1.34,1.34,0,0,0-.3.78c.05.28.22.12.27.4.12-.33.35.19.31-.2.16.06.19.62.43.33a5.56,5.56,0,0,1,.34.78c.13.27.25.55.38.83a16.21,16.21,0,0,0,.72,1.54c-.22,0-.33-.45-.5-.77A4,4,0,0,0,10,53c0,.19.11.46,0,.59.12.36.33.11.46.41l-.11,0a1.67,1.67,0,0,1,.22.91c.06.09.14,0,.19.12a4.32,4.32,0,0,0,.3.56c.05.23-.07.11-.06.25.18.32.06-.07.25.07s.25.53.4.31a17.13,17.13,0,0,0,.88,1.62c-.28-.2-.53-.87-.8-1.24-.13-.05-.27-.16-.4-.09.1.21.22.33.34.23.08.36.36.5.56.95-.12,0-.09,0-.15.1.46.66,1,1.22,1.6,2.06.07.23-.24,0-.14.21s.18-.29.47.24c0,.24-.33.08-.51-.09-.14.18.29.56.42.27.09.16.23.25.16.11.6.69,1.33,1.54,2.07,2.37a26,26,0,0,0,2.3,2.09c.08.06.08,0,0-.05a7.72,7.72,0,0,0,.83.6c-.08.19-.32-.14-.23.13s.29.27.33.33-.27-.2-.45-.19c.24.27.41.54.68.82.25-.16.59-.05.92,0,.16.16.36.33.23.47a13,13,0,0,1,1.61,1,.26.26,0,0,1-.05.25c.16.13.2,0,.26,0a11.21,11.21,0,0,0,1.28.79c.75.37,1.41.86,2,1.21.3.17.66.19.74.43.12,0,.18,0,.32,0s.26.21.37.33a21.22,21.22,0,0,1,2.78,1c.18.19-.17.06-.19.26.45.1.47-.27,1,0-.12.08-.3.07-.29.29.32.13.43-.14.66.12-.09.1-.44-.08-.51,0,.18.19.54-.07,1,.13,0,.16-.18.16-.42.07.12.25.35,0,.57.1,0,.12.41.12.44.24.28,0,.67-.21.91-.1-.11.06-.14.2-.25.27s-.19-.12-.37-.15c-.12.27.5.29.73.27,0,.17-.25.14-.27.32.17,0,.28-.13.44-.18.34,0,.31.21.43.32-.23,0-.62,0-1-.07a1.47,1.47,0,0,1-.89-.38c-.22,0,.09.12-.14.14a5.41,5.41,0,0,1-1.21-.38c-.1,0-.1,0-.13.08-.56-.14-.88-.4-1.35-.31a3.26,3.26,0,0,0-1.58-.54c-.08-.19-.48-.32-.76-.48-.11.21.3.32.43.49-.21.17-.18-.09-.46-.18s-.13.18-.21.24a1.49,1.49,0,0,0,1.14.11c.57.25,1,.41,1.45.57s.83.22,1.25.39c-.26,0-.28.26-.59.22,0,.14.51.14.55.27.06-.11,0-.19-.14-.23.07-.17.5,0,.8.09,0,.1-.11.21,0,.26.34.15.12-.27.53,0-.22.14-.21.09,0,.31.18,0,.1-.11-.06-.14,0-.08.29.06.32,0,.21.16.42.28.2.43.39.14.44-.08.92.07s.25.31.64.35.62,0,.47-.28c.55.09.84,0,.85-.17.28,0,.24.12.48.14,0,.13-.16.09-.32.07,0,.17.2.26.36.36a.89.89,0,0,1,.69.11c.1.21-.33,0-.23.21s.28,0,.22-.09a5.53,5.53,0,0,1,.92,0,.28.28,0,0,0-.07-.3,2,2,0,0,1-.71,0c.1-.28-.51-.26-.43-.54,1.12.17,3.13.15,4.16.32,0,.27-.24.08-.4.06-.84-.06-2.13-.11-3-.18.26.13.78.13.87.35.34.07.15-.24.51-.15s.14.12.29.14.28-.1.31-.1.13.06.2.07.17,0,.2,0a2.71,2.71,0,0,0,1.3,0c.17,0,.19,0,.2.11.3,0-.1-.12,0-.24s.24.13.4.16.05-.21.1-.3c.78-.07,1.51-.18,2.18-.21.11,0,.15.11.2.12s.43-.12.59-.15.5,0,.58-.14c.09,0,.28,0,.31.08.47-.26,1.63-.17,2.34-.48.12.17-.23.18-.25.3a3,3,0,0,0-1,.14c-.18.06,0,.25-.37.24.34.16.57-.2.88-.25.12.13.66-.09.63.15.16-.13-.14-.23.13-.4s.27,0,.5-.06c.06-.21-.24-.06-.41,0,.11-.18.62-.32.93-.41a5.38,5.38,0,0,1,.77-.19.86.86,0,0,1,.32,0c.11,0,.1-.14.16-.17s.41,0,.56-.2c.16-.06.19,0,.23.07.28-.07.25-.23.52-.31,0,.11-.12.19-.34.25.1.09.33,0,.45.1.21-.1.43-.2.3-.37.08,0,.61,0,.45-.22s-.33.21-.65.23c0-.11.27-.19.43-.28-.11-.15-.54.07-.65-.09a.77.77,0,0,1-.77.14c0-.13.46.09.45-.21-.05-.07-.2,0-.19.06-.33,0,.32-.51-.37-.26,0-.26.76-.12.77-.45a6.77,6.77,0,0,0-1.05.15c-.26.12.16.12.08.29-.25,0-.31-.18-.47-.26-.21.07-.35.21-.55.14.26-.4.95-.26,1.51-.59,0,.1-.27.15-.11.29.36-.07.07-.3.48-.36,0-.08,0-.1-.12-.09.26-.22.6-.42.56-.71.27-.14.3,0,.48,0,.41-.09.5-.26.86-.36.07.11,0,.2-.2.26.37.18.93-.36,1.1,0,.33-.24-.15-.31-.33-.31s.29-.17.4-.25c-.18.29.23.18.34.3.38-.29.44-.63,1-.89.21-.14.21,0,.33,0s.06-.1.15-.14-.32,0,0-.25.2,0,.25.08a4.22,4.22,0,0,1,.74-.6c.22-.11.32,0,.62-.23,0-.06-.17,0-.27.09.15-.3,1.15-.65,1.56-1.06.19-.05.23.22.48.07s-.07,0-.1-.16a7.58,7.58,0,0,0,1.19-.93c.1.14.25.17.51-.08-.08,0-.21.08-.25,0s.18,0,.22,0,.25-.39.53-.39c-.13.36-.48.41-.84.77-.17.15,0,.28-.28.43.1-.36-.59.36-.79.35,0,.11-.1.21-.14.31-.24.08-.34-.09-.52-.12-.16.29-.36.05-.68.33.07.38.62-.08.52.32-.27,0-.53.06-.65-.17-.38.16-.29.36,0,.31a.1.1,0,0,1-.2,0,1.36,1.36,0,0,1-.62.23c-.17.07,0,.31.16.11,0,.23-.41.12-.46.35s.13,0,.17.11c.1-.15.53-.29.4-.45.3-.25.34,0,.63-.24.11.09-.11.17-.07.26s.12-.14.13-.15.2,0,.31-.05.15-.24.35-.34,0-.17,0-.26c.32-.21.46-.08.7-.13s.15-.27.19-.41a1.86,1.86,0,0,1,.58,0c0-.32.49-.65.83-1,.06.23.36-.16.54-.24s0-.37.39-.59a.73.73,0,0,1-.15.27c.1.09.36-.22.38-.29s-.17,0-.26,0c-.33,0-.4.21-.38,0l-.68.5c0-.26.46-.36.8-.66s.66-.63,1.13-1c.07.19.21.1.3.21.43-.27.52-.49.9-.71.06.13,0,.27-.13.43.33,0,.18-.43.34-.62s.33,0,.55-.25-.19-.16-.33.06c-.06-.34.3-.17.48-.32.21-.33-.06-.23-.06-.46.27-.26.1.26.41,0-.07-.14.29-.39,0-.49.27-.14.5-.64.47-.33.15-.22.57-.5.54-.67.15-.09.09.06.14.12.25-.19-.06-.23,0-.37.28,0,.1-.26.48-.59a2,2,0,0,1,0,.43A19.79,19.79,0,0,0,65,62.75a9.69,9.69,0,0,1-1.28,1.53c-.08.1.07.08.16,0a7.07,7.07,0,0,1-.65.73c-.06,0-.2,0-.29.1s-.14.2-.11.18c-.13.08,0-.22-.36.16-.12-.39.44-.51.6-.77a4.08,4.08,0,0,0-1.51.86.27.27,0,0,0,0-.21c-.25.3,0,.37.23.44.35-.23.1-.36.38-.58.14.24,0,.71.53.33-.3.26-.58.66-1,1a4.93,4.93,0,0,1-1.22.82c-.13.32-.73.67-1.18,1-.14.13.06.24-.23.36a.67.67,0,0,1-.47-.21c-.37.28-.31.2-.8.54,0,.13.13.1.2.16.07-.19.41-.37.46-.55.71,0-.07.64-.54.8a.44.44,0,0,0,0-.15s-.5.3-.36.35c-.25.14-.63.37-1,.64s-.88.47-1.25.7-1.14.49-1.59.75a7.19,7.19,0,0,1-.76.48c-.36.16-.72.26-.87.5.12.17.58-.07.68.14.37-.26,1.08-.45,1.28-.29,0-.24.25-.46.58-.67,0-.19-.18-.08-.2-.23.51-.32.42.17.36.35.1,0,.46-.22.75-.28s-.23-.14,0-.32c-.08-.08-.35.39-.63.3.06-.12.19-.22.17-.35a14.25,14.25,0,0,0,2.37-1.2c.33-.06-.54.3-.34.41s.34-.06.57-.2-.05-.24.25-.36c-.12.28.23.14.35,0s-.14-.24.14-.15a.62.62,0,0,0,.66-.26c-.15,0-.43.15-.5,0,.26-.18.31,0,.52-.1s.06-.1.14-.15-.24,0-.35,0,.22-.2.23-.21c.17-.15.14-.2.27-.3.35-.26.85-.58,1.28-.91-.11.28-.28.26-.6.51.09.12.33-.1.54-.25.1.14.31,0,.49,0,.2-.27-.3,0-.29-.23.44-.38.53,0,.84,0a3.83,3.83,0,0,1,.8-.44c.15-.11-.07-.19,0-.31.36-.36.48-.06.86-.51.13.25.44-.06.57.22-.36.1-.49.52-.57.74.07,0,.22-.13.34-.22a.29.29,0,0,0,.07.26c-.16.15-.27.17-.34.06-.13.07,0,.35-.19.25s-.15,0,.08-.23c-.21,0-.27-.18-.15-.35-.21,0-.19.32-.43.43-.12-.1-.27-.09-.34-.28-.25.18.1.3-.15.48.07.14.35-.19.39,0-.13.06-.38.37-.44.25-.09.17-.08.32-.39.51,0-.26-.11-.38-.5,0-.3,0,.12-.29-.17-.24a.56.56,0,0,1-.34.39c0-.1-.12,0-.23,0,0-.15,0-.42-.26-.4s0,.28-.3.45c-.24-.13.19-.3,0-.42-.36.16-.12.29-.19.43s-.15-.22-.43,0c0,.09.09.21-.1.41.14.08.12-.26.48-.35,0,.22.25,0,.34,0s.06.12.1.15.23-.1.26,0a.92.92,0,0,1-.38.34c0-.08.1-.17.07-.26-.21.14-.34.24-.36.37.19.23.57-.07.85-.36.18.09-.13.23-.26.34.23,0,.39.07.22.36.06,0,.19-.09.23,0,.2-.17.16-.39.47-.42.08.26-.66.7-1.19,1a5.06,5.06,0,0,1-.77.53s.22-.25.33-.27c-.35.06-.28.23-.51.37a.58.58,0,0,1-.32.06c-.15.1-.2.29-.36.42s-.23.06-.39.16-.61.53-.91.48c-.06-.3.26-.57.77-.75-.12-.17-.46.11-.79.24s-.07.13,0,.26c-.2.06-.29.14-.23.23-.16.09-.49.17-.32.29s.31-.25.49-.17a8.77,8.77,0,0,1-1.47.76c-.12.07-.2.21-.33.29a10.19,10.19,0,0,1-1.42.66,17.63,17.63,0,0,1-2.07.73s0-.11,0-.11-.24.2-.38.2c.1-.47-.16.2-.69.21-.12,0-.06.13-.06.2-.41.09-1,.3-1.14.16-.32,0-.19.23-.58.26-.12-.18,0-.29.35-.33,0-.18-.34-.1-.64,0,0,.2.15.19.17.33A33.32,33.32,0,0,1,34,76.39,15.41,15.41,0,0,1,31.78,76c-.16,0-.19,0-.32,0-.34-.11-1-.32-1.59-.49-.34-.09-.68-.09-1-.21a27.44,27.44,0,0,0-2.63-1l-.8-.2a2.12,2.12,0,0,1-.82-.51,2.74,2.74,0,0,1-1.22-.6c0,.09.19.17.11.26-.65-.45-1.27-.53-2-1.08.07-.05.2,0,.27-.05-.33-.28-.33,0-.57-.07s.09-.25.16-.25c-.27-.13-.45-.11-.72-.24s-.45-.28-.79-.49c-.16-.1-.27-.24-.41-.33a3,3,0,0,1-1.09-.63,1.06,1.06,0,0,1-.17-.28c-.14-.12-.35,0-.42-.32-.3-.18-1.08-.56-1.48-.83a1.31,1.31,0,0,1-.28-.31c-.13-.13-.2-.1-.34-.24s-.09-.23-.15-.3-.18-.09-.27-.17a12.92,12.92,0,0,0-1.11-1.11c-.14-.11-.29-.13-.46-.27a1.31,1.31,0,0,0-.14-.3c-.23-.08-.47-.43-.67-.66s-.41-.3-.58-.47-.09-.21-.23-.35a16.51,16.51,0,0,1-1.62-1.78c-.11-.13-.06-.19-.14-.29-.44-.56-.91-1-1.15-1.37-.12-.19,0-.17-.08-.32a12.54,12.54,0,0,1-1-1.36c0-.09-.07-.24.05-.27-.07-.1-.14,0-.21,0-.32-.6-.84-.88-.85-1.45a6.28,6.28,0,0,1-.42-.72c0-.14,0-.32.18-.32-.2-.42-.18-.06-.35-.18-.26-.41-.08-.52-.29-.9-.09-.17-.22,0-.31-.1-.12-.52-.61-1.1-.78-1.83-.06-.21-.06-.49-.14-.73-.19-.61-.82-1.64-.67-2.09A.51.51,0,0,0,4,50.59c0-.72-.42-1-.46-1.83-.29-.11-.21-.38-.37-.78-.08,0-.14.2-.13.24s.16.16.19.28,0,.21,0,.32.18.25.22.38,0,.39.09.63a6.84,6.84,0,0,1,.26,1,1.34,1.34,0,0,1,0,.33,6.05,6.05,0,0,1,.31.68c.1.33.14.38.28.8s.28.85.5,1.39c-.08.06-.13-.06-.21,0,.1.3.29.63.07.65.06.11.14,0,.21,0s-.14-.34-.15-.51a3,3,0,0,1,.71,1.43c0,.27.36.21.24.36s-.13,0-.26-.12-.11.08-.2-.14,0-.13,0-.22.13.15.2.26c0-.37-.34-.61-.4-1-.37,0,.34.76-.06.71.33.51.67.55.85,1.26.3,0-.14-.49.1-.51a2.91,2.91,0,0,1,.38,1.11c-.15-.13-.41-.68-.45-.26.11.18.25,0,.35.31-.36.07.11.74.34.78,0-.14-.06-.34-.2-.61.24,0,.3.44.47.71-.33-.1-.11.28-.1.53.26,0,0-.42.26-.26s-.08.35.12.67,0-.19,0-.24a18,18,0,0,1,1,1.52c.35.59.82,1.15,1.22,1.71.07.1.22.56.49.56a8,8,0,0,0,.62,1c.27.33.56.63.72.8-.26,0-.58-.46-.86-.81A11.6,11.6,0,0,0,9.29,62.4c-.15.16.06.33-.23.3.28.28.25.52.45.61-.06-.13-.08-.22-.22-.51.39,0,.35.55.63.87.14-.05-.31-.38,0-.37a13.06,13.06,0,0,0,1.26,1.56l1.47,1.66c1.07,1,2.18,2.09,3.2,2.92.15.11.25.27.39.37s.38.21.55.35.46.71.81.7c0,.13.3.32.32.47s.16,0,.08-.1a25.67,25.67,0,0,1,2.48,1.47c.4.26.78.52,1.16.74a7.56,7.56,0,0,0,1.14.46c.13.09,0,0-.06.11a5.63,5.63,0,0,1,1.21.46c-.08.14-.41-.11-.49,0,.3.15.83.16,1,.42-.11.23-.38-.26-.56-.08-.32-.12-.3-.26-.65-.39-.09,0-.13,0-.23,0-.09.11-.08.21.09.31a.54.54,0,0,0-.59.18c.05.28.58.28.73.49,0,.2-.34-.11-.42-.14s-.11.08-.16.06c-.3-.11-.66-.31-1.12-.49a.27.27,0,0,1,.34-.37c.13-.08-.24-.39-.34-.3-.25-.24.3-.06.35-.16-.21-.12-.34-.12-.38,0-.33-.13-.13-.28-.51-.43.28-.1.57.42.85.26.33.17.61.6,1,.59.25-.17-.77-.39-.27-.41-.47-.06-.68-.32-1.06-.32-.17-.12-.39-.26-.28-.38a6.31,6.31,0,0,1-1.83-1.13,2.5,2.5,0,0,1-1.16-.59,3.34,3.34,0,0,1-.88-.45c0-.09.18,0,.23-.12-.21-.17-.29,0-.46-.12s-.66-.57-.89-.61c0,.1.11.23.26.35-.23,0-.58-.38-.8-.39-.38-.31-.38-.52-.69-.86-.14-.09,0,.09-.12.14-.35-.31-.33-.52-.72-.83-.11,0-.18,0-.32-.13-.1,0,0,.14.07.23a1.17,1.17,0,0,1-.59-.64c-.21-.14,0,.16-.21.06-.23-.28.17-.39-.35-.73,0,.09.14.21,0,.27-.19-.33-.39-.17-.52-.41,0,0,.2,0,.13-.12s-.3-.12-.16,0c-.09.15-.37-.48-.46-.33s.75.69.43.8c.13.09.18,0,.26-.09ZM22,75c.07-.17.1-.35-.22-.51l-.18.32Zm.28-.73-.3-.14c0,.2-.1.41.42.6C22.71,74.58,22,74.45,22.29,74.28Zm-6.8-4.63c.24.21-.15.32.36.58.22-.07,0-.22,0-.32S15.49,69.53,15.49,69.65Zm46.23-1.23c.14-.21.5-.43.31-.6-.29.14-.07.25-.22.38-.07-.13-.15-.25-.33-.12Zm-4,2.48-.26.15c.15.13,0,.25.08.37C57.83,71.25,57.66,71.07,57.68,70.9Zm.43.37c-.1.27,0,.31-.24.64C58.18,71.71,58.58,71.14,58.11,71.27Zm1.43-1.19c.09.15-.19.51.28.25-.21-.13.08-.27.1-.41C59.76,70,59.69,70,59.54,70.08Zm-.27-.26c0-.09.09-.17.08-.26-.13.06-.21,0-.38.16C59,69.85,59.11,69.9,59.27,69.82Zm-.1.83c0,.08-.07.17,0,.26a.77.77,0,0,1,.39-.16C59.51,70.59,59.43,70.46,59.17,70.65Zm-2,.29c.34,0,.52-.38,1-.56.06.06.19,0,.26.06s-.13.13-.12.2c.24-.08.33.12.64-.1s.17-.24.26-.36c-.18-.24-.45-.32-.87-.11,0,.14.15,0,.23,0s.39.07.23.21-.44.1-.52-.11A5.11,5.11,0,0,0,57.14,70.94ZM56.45,70c.24-.13.42-.27.44-.41-.25.28-.25.14-.52.25Zm-2.13.21c.09,0,.74-.17.58-.34S54.23,70.12,54.32,70.24Zm-.61,1c.43-.24.86-.13,1.17-.48-.05-.33-.5,0-.58.14C54,71.1,53.8,71,53.71,71.25Zm-1.25.49c.37.07.63-.4,1-.36C53.19,71.17,52.7,71.55,52.46,71.74Zm-.58-.49c.4-.14,1,0,1.16-.41C52.61,71.08,52.1,71,51.88,71.25Zm4.43,1s0,.08-.07.1.21.12.45,0C56.65,72.16,56.54,72.09,56.31,72.22Zm-.55-.93c0,.24.52-.17.77-.23-.06.24.13.2.46,0C56.91,70.73,56,71.12,55.76,71.29Zm.17.38c.27-.18.33,0,.45,0s.28-.18.31-.28c-.37.15-.44.09-.29-.13C56.17,71.35,55.8,71.7,55.93,71.67Zm.29.86c-.29.06-.32-.26-.77,0-.05.17.22,0,.28.13s-.19.17-.11.25.09.12.42-.06C55.81,72.62,56.14,72.7,56.22,72.53ZM54,73.19c-.23-.28.8-.27.35-.49.33-.1.36-.24.5-.37a5.12,5.12,0,0,0,1.13-.19l-.1-.22c-.4.21-.65.28-.56,0-.47.25-.75.51-1.2.76C54.29,72.9,53.26,73.21,54,73.19Zm-.78,1.17a5.38,5.38,0,0,0,.9-.58,4.65,4.65,0,0,0,1.36-.48.26.26,0,0,0-.21-.24c-.14.15-.54.27-.61.42.28,0,.3-.22.49-.16a.85.85,0,0,1-.79.24c.45-.32.06-.29.33-.56.17-.09.23,0,.39-.11-.05-.17-.33,0-.39-.15s.41-.29.14-.2-.16.44-.62.63c.34.13,0,.33-.18.39.19-.06,0,.24-.11.29-.07-.29-.73.11-.9-.06l.1.28c.26-.09.56-.23.63-.09C53.44,74.09,52.94,74.15,53.17,74.36Zm-.83-.85c-.26.14-.28,0-.5.11C51.75,73.93,52.41,73.64,52.34,73.51Zm-.39.77c.42-.12.07-.2.23-.27s.58-.17.54-.32c-.38.08-.58.31-.77.27C52.08,74.09,51.86,74.16,52,74.28Zm-.5.49c.17-.07.54,0,.58-.2-.08,0-.12,0-.13-.08C51.66,74.56,51.43,74.64,51.45,74.77Zm-.72.12c-.3.15-.13-.17-.43,0-.15.07,0,.21-.37.22-.08.22.34,0,.26.18-.3.09-.55-.11-.61.15.3-.09.35.06.64,0a8.07,8.07,0,0,1,1-.61c0-.07-.07-.15,0-.2.46-.25-.28,0-.27.16s-.36-.14-.41.06C50.71,74.79,50.87,74.84,50.73,74.89Zm-1.3-.11a1.35,1.35,0,0,0,.61-.09c.08-.22-.33,0-.26-.18.29-.12.38,0,.61-.09s0-.07-.06-.23c-.28.13-.79.19-.84.39C50,74.47,49.44,74.7,49.43,74.78Zm-.31.45c-.12-.11-.33-.5-.58-.23.18,0,.25,0,.25.18-.17.06-.51.07-.37.22a3,3,0,0,1,.81-.14c.13,0,.73-.17.39-.16Zm.12-.84c-.14,0-1,.08-.7.11C48.58,74.61,49.15,74.56,49.24,74.39Zm-.84,0c.33,0,0-.21.36-.21.16,0,.11.13.32,0L49,74c-.36.13-.48,0-.79.13C48.23,74.28,48.61,74.15,48.4,74.35Zm-.66.78c-.08.22.89,0,.61,0C48,75.28,48.11,75,47.74,75.13Zm-.49-.43a2.5,2.5,0,0,0,.81,0C48.07,74.46,47.43,74.51,47.25,74.7Zm-1.06.35c.25,0,.83.12.89-.13C46.83,74.92,46.18,74.85,46.19,75.05Zm-.32.65c.25-.06.51.2.62,0C46.35,75.65,46,75.44,45.87,75.7Zm.07.53a5.33,5.33,0,0,0,1.24-.11c.06-.25-.58,0-.55-.17.14,0,.08-.16-.12-.1,0,.09.17.29-.06.31A.37.37,0,0,0,45.94,76.23Zm-3.82.33c-.24,0-.31-.09-.62,0C41.35,76.72,42.12,76.65,42.12,76.56ZM45.47,75c-.07,0-.19,0-.19.08.4,0,.29-.21.36-.35l-.4.06C45.19,75,45.46,74.91,45.47,75Zm-.16,1.17c0,.15.18.17.33.2s.14-.14.08-.26Zm-1.53-.93c.53,0,.63-.19,1-.26,0,.15-.26.19-.37.29.33.11.52-.2.67-.34-.53,0-.85.17-1.2,0C44,75.11,43.73,75.13,43.78,75.27Zm.38.85c-1,.21.43.11.4-.12C44.37,76,44.34,76.09,44.16,76.12Zm-1.33,0v.3c0,.08-.74.07-.41.14a3.88,3.88,0,0,1,1,0c.15-.31-.54-.07-.43-.35.19,0,.22-.07.41-.07,0,.34,1,.41,1.13,0-.41.05-.79.07-.92.07-.22-.26.33-.2.28-.4C43.47,76,43.39,76.19,42.83,76.17Zm-1.55-.78c.27,0,.2.11.4.11s-.13-.15.1-.19c0,.1.13,0,.3,0,.07.19-.18.19,0,.3s.37,0,.4-.08-.11,0,0-.06c.51-.1.44.17.72.22-.05-.24.16-.34.06-.61a2.1,2.1,0,0,1-.9,0c0,.07,0,.14-.19.13s-.29-.18-.7-.1C41.44,75.2,41.19,75.2,41.28,75.39Zm.11.36c.38.13.19.21.5,0-.1.23.26.16.22.35.21,0,.38-.21.19-.19,0,.06-.17.08-.2,0v-.12c.21,0,.67,0,.71-.09-.2-.11-.48,0-.71,0-.28-.21-.61-.09-1-.14C41,75.8,41.26,75.7,41.39,75.75Zm-1.13.52c.19,0,.43,0,.52.1l-.72,0a.29.29,0,0,0-.11.31c.61.05.64-.22,1.13-.23.07-.12-.18-.11-.2-.17s.2-.09.2-.13-.2,0-.2-.05.21-.15-.1-.12C41,76.31,40.31,76.12,40.26,76.27Zm-.9-.49a2.28,2.28,0,0,0,1,.07C40.3,75.5,39.66,75.68,39.36,75.78ZM39,76,38.84,76c-.11,0-.06-.13-.29-.14-.08,0-.38,0-.42.09.18,0,.6,0,.61.1-.48-.08-.29.13-.42.16a1.4,1.4,0,0,0-.61-.1c0,.26.8.17,1.11.31,0,.06-.09.06-.11.11a1.14,1.14,0,0,0,.52,0c.16-.22-.46,0-.3-.26l.51,0c.12-.24-.46,0-.5-.21S39,76,39,76,39.08,76,39,76Zm-1.58-.32c.53.09.25-.09.41-.09.43,0,.87.19,1.21.13-.15,0-.08-.15-.09-.25a4.31,4.31,0,0,1-1.51,0Zm-2.69-.43a.22.22,0,0,0,.07.2.42.42,0,0,0,.43-.12A.63.63,0,0,0,34.75,75.29Zm-1.21.35c.19,0,.58.17.62,0S33.58,75.48,33.54,75.64Zm-2.3-.07c.17.15.13,0,.4.11C31.77,75.47,31.22,75.32,31.24,75.57ZM31.3,75c.21.11.65.43,1,.33C32,75.19,31.48,74.9,31.3,75Zm-1.62-1.24c.14.07,0,.2.34.22l.06-.17C29.93,73.74,29.73,73.65,29.68,73.72Zm-.84,0c.28.23.7.29.74,0,0,0-.32-.23-.38-.11s.11,0,.07.09C29,73.51,29,73.65,28.84,73.7ZM27.62,73c-.15.25.37.16.55.22s.59.39.77.22A6.56,6.56,0,0,0,27.62,73Zm-1,.33c.09.12.53.31.59.16C27,73.44,26.68,73.19,26.61,73.31Zm5.65.36c.31.08.31.28.73.3C33.06,73.69,32.56,73.65,32.26,73.67Zm-1-.34c.33,0,.43.36.64.24-.36-.17-.19-.19.06-.23C31.66,73.28,31.36,73.22,31.24,73.33Zm-1-.82c.05.16-.08.38.27.45C30.65,72.75,30.42,72.64,30.27,72.51Zm-.37.22c.49.2-.46.24.17.41A.22.22,0,0,0,29.9,72.73Zm-2.54-.68c-.1,0-.06-.12,0-.2a.93.93,0,0,0-.39-.08C26.83,71.88,27.24,72.15,27.36,72.05Zm-.41-1c0,.08-.12.19,0,.25,0-.12.26.11.25.16s-.25,0-.25.09c.39.17,1,.25,1.37.46.21.11.24.33.46.43-.3-.1-.87-.13-.75,0,.26-.12.87.13,1,0,0,0-.28-.15-.14-.19s.43,0,.45.18c-.11,0-.25-.11-.29,0,.11.12.34.21.39.34-.13,0-.15.1,0,.2,0-.19.34,0,.28-.23-.24-.05-.33,0-.35-.17l.45-.43a1.69,1.69,0,0,1-.36-.12c-.17.1.29.31,0,.26-.09,0-.4-.14-.34-.19s.26.06.2,0a2.94,2.94,0,0,0-.8-.3c-.19-.07-.45-.34-.56-.15.43.15.47.39.81.56-.33.08-.48-.32-.65-.44s-.73-.11-.81-.3.56.29.52,0C27.45,71.43,27.38,71.25,27,71.07Zm-2.26.45c0,.18.1.61.49.58a.26.26,0,0,1-.12-.2,1.59,1.59,0,0,1,.64.26c-.18.12.08.2.08.3.29.2.39.07.67.21,0-.19,0-.13.12-.27A18.88,18.88,0,0,1,24.69,71.52Zm-2.56-1.1a3.07,3.07,0,0,0,.79.42c0,.14-.28-.09-.34,0s.16.11.13.16l.18.1c.06-.07.08-.21.21-.17,0,.29.45.24.71.35l-.09.16c.46,0,.85.66,1,.44-.4-.14-.59-.45-.3-.49a1.67,1.67,0,0,0-.89-.24C23,71,22.49,70.17,22.13,70.42Zm-.77-2.53c.28.07.26.24.47.15-.15-.18-.16-.09-.37-.3Zm-1.15.61c.05.14.25.25.46.38C20.9,68.79,20.26,68.45,20.21,68.5Zm-.39.38c.54.38-.19.11,0,.36a4.76,4.76,0,0,0,1,.54c.25.06-.05-.24.22-.14a2.09,2.09,0,0,0,.51.67.5.5,0,0,0,.45-.15c-.3-.19-.66-.43-.4-.11-.28-.21-.36-.41-.66-.62C20.54,69.53,20.14,68.94,19.82,68.88Zm-.26.18c-.09-.08,0-.09.07-.09-.21-.17-.06-.29-.29-.45S19.28,69.07,19.56,69.06ZM8,30.41c0-.11.08-.25,0-.29-.12.32-.22-.34-.27.11C7.78,30.34,7.86,30.29,8,30.41ZM5.53,34.68c.08-.42.2-.64.1-1A2.61,2.61,0,0,0,5.53,34.68Zm1.13,4.61c0-.29.09-.34.1-.56C6.58,38.71,6.48,39.26,6.66,39.29Zm.08,1.39c-.15-.25.09-.53-.09-.74C6.6,40,6.52,40.74,6.74,40.68Zm1.32,8.8c-.1-.07-.23,0-.33-.11a2.24,2.24,0,0,0,.1.37C8,49.71,8.11,49.68,8.06,49.48ZM8.41,54c-.19-.32.17-.28-.12-.68-.2,0,0,.36-.24.2C8.16,53.75,8.27,53.93,8.41,54Zm2,.76c-.19-.24,0-.25-.05-.39-.17,0-.11.25-.15.38s-.18-.2-.3-.07C10.13,55.18,10.15,54.79,10.42,54.73ZM13,59.34c-.15-.22-.29-.37-.43-.38C12.81,59.22,12.76,59.5,13,59.34ZM13.53,62l-.32-.36C13,61.74,13.41,62.25,13.53,62Zm1.21,0c-.17-.18-.34-.43-.47-.34C14.43,61.8,14.63,62.23,14.74,62Zm.87,1.25c-.19-.26-.63-.5-.56-.26C15.13,63,15.46,63.64,15.61,63.27Zm.94,2.17c.07-.18,0-.39-.33-.64C15.87,64.92,16.3,65.2,16.55,65.44Zm2.16.33c-.13-.29-.48-.4-.59-.76-.15.08.07.16.13.29S18.47,65.9,18.71,65.77Zm.12,2.28a1.55,1.55,0,0,0-.94-.26c.23.15.45.56.72.54C18.45,68.18,18.74,68,18.83,68.05Zm-2.09-1.37c-.2.13.35.44.52.62s.2,0,.35.2c-.15.08-.1.19.13.32.17-.1-.15-.26,0-.35.27.27.41.18.59.22C17.84,67.38,17.06,67.13,16.74,66.68Zm-3.64-3.8q.06.1,0,.15a1.1,1.1,0,0,1,.33.38C13.6,63.36,13.08,62.82,13.1,62.88Zm-1.28-1.39c.12.19.23.29.33.25-.06-.12,0-.21-.19-.36Zm-.36-.6c-.07.19-.22.35.06.69.24,0,0-.16.07-.3,0,0,.16.07.1-.07ZM7.73,55.34c.11.27.23.46.36.5-.14-.26,0-.34-.15-.6ZM11.26,20c.12,0,0,.26-.09.53.1-.16.19,0,.32-.24C11.46,20.17,11.48,19.64,11.26,20Zm1.21-1.78c-.06.06-.11.06-.16,0-.23.24-.1.34-.15.51C12.23,18.54,12.56,18.29,12.47,18.19ZM56.26,8.13c-.24-.07-.24-.41-.51-.31C55.83,7.9,56.05,8.22,56.26,8.13Zm1.07,1.1c-.15-.09-.16-.17-.07-.26-.25-.19-.35-.09-.62-.31-.07.07.28.48.38.51s.06-.13.15-.05S57.29,9.43,57.33,9.23ZM59,9.81c.13-.1-.3-.47-.44-.41A4.42,4.42,0,0,0,59,9.81ZM75,33.43c0,.39.34.34.23,0Zm-.67-2.61c-.18,0-.1.33,0,.61C74.47,31.45,74.36,31.11,74.28,30.82Zm4.13-2.29c-.06.17-.38,0-.26.41a.24.24,0,0,0,.31,0C78.4,28.78,78.47,28.72,78.41,28.53Zm-.78-2.82c-.12,0-.06.18-.09.27s-.37-.12-.21.3c.08,0,.1-.09.13-.16.07.24.16.32.28.27A1.25,1.25,0,0,1,77.63,25.71Zm-5.39,1.5c.15.24.19.9.41.79s-.18-.09-.19-.35c.07,0,.13-.07.05-.22C72.36,27.64,72.37,27.13,72.24,27.21Zm4.6-2.29c.11.25.36.62.47.42-.16-.39-.57-.48-.55-1C76.57,24.32,76.76,24.74,76.84,24.92Zm-.77-1.13c.18.1.36.45.56.37C76.49,23.67,76,23.31,76.07,23.79Zm-7.2-3.35c-.1-.2.1-.28-.11-.51C68.6,20,68.73,20.42,68.87,20.44Zm-3.41-6.8.17-.17-.22-.21C65.27,13.35,65.25,13.47,65.46,13.64ZM54.82,6.55c.26.15.9.39.78.25S54.68,6.39,54.82,6.55Zm-1-.93c.22.12.12.27.49.4C54.34,5.88,54,5.53,53.79,5.62Zm-1.19.45c.12-.22-.53-.25-.66-.25C52.15,5.92,52.38,6.11,52.6,6.07ZM49.24,4.32c.28,0,.16.17.25.25a1.63,1.63,0,0,0,.92.12c0,.09.19.13.26.2a5,5,0,0,1,1.83.62c0-.13.56.18.23,0-.17-.08-.23,0-.4-.08,0-.15-.3-.34-.49-.45s-.26,0-.5-.12-.5-.34-.74-.39-.16,0-.31,0S49.32,4.07,49.24,4.32ZM37,3.31c.25,0,.49.15.72.15s.31-.11.51-.14.08.06.1.06.09-.07.1-.07c.52,0,.8-.09.92-.27a10,10,0,0,0-1.53.18C37.5,3.24,37.07,3.05,37,3.31ZM24.39,9.21c.21-.08.4-.07.52-.25S24.27,9.11,24.39,9.21Zm1.39-1.12c-.38,0-.24.41-.06.36C25.59,8.31,26,8.24,25.78,8.09ZM25.23,8c.21-.08.24.11.51,0C26.14,7.61,25.27,7.67,25.23,8ZM36.78,3.56c0-.18-.24-.18-.22-.35s.2,0,.2-.07C36.21,3.18,36.16,3.57,36.78,3.56ZM30.49,1.7a1.5,1.5,0,0,0,.84-.27C30.91,1.55,30.65,1.45,30.49,1.7Zm-2.82.88c.35-.26.39-.07.75-.13,0-.14.15-.23-.08-.29C28.19,2.3,27.58,2.39,27.67,2.58ZM22,5.1c.16,0,.52-.14.47-.29S21.93,5,22,5.1Zm1.83,2.65c.37,0,.39-.21.7-.39,0,.26.37-.11.39-.12.19-.07.3,0,.52,0-.17-.22.45-.34.43-.53.17-.06.45-.23.42,0-.29.13-.44,0-.45.24a1.43,1.43,0,0,0,.49-.13c.16-.09.64-.68.8-.41-.05,0-.09.08,0,0,.07-.2.64.06.64-.29-.08,0-.36.12-.41,0,.45-.18.84-.13,1-.42.07,0,.2.11.24.11s.59-.25.66-.24,0,.12,0,.12c.19,0,.36-.21.57-.2,0,.07,0,.17.14.15s-.06-.18-.17-.27c.38-.15,0-.25.51-.43.19-.05.16.13.42,0,0-.11.24-.17.36-.21a5.91,5.91,0,0,1,2-.43.43.43,0,0,1,.37-.24c1.06-.21,1.56-.32,2.69-.5,0-.44-.76,0-1.11,0-.62.08-1.2.07-1.73.12,0,.1-.06.16-.18.21a5.57,5.57,0,0,0-2.06.56c-.09-.11.24-.25-.14-.15-.09.14-.35.22-.44.36a18.1,18.1,0,0,1-1.78.41,1.84,1.84,0,0,1-1.05.37c.21.24-.44.3-.59.46,0-.12.22-.2.21-.32-.29.21-.46.15-.86.3-.07.28.42-.13.44,0s-.46.14-.84.35c0,.08,0,.15-.14.18.11-.24-.06,0-.3.07-.39.16-.69.28-.77.5a.26.26,0,0,1,0-.27c-.36.11-.24.26-.38.38-.61.24-1.14.51-1.36.44,0-.07.11-.2-.07-.16s-.05.27-.15.4-.53,0-.53.29c.41-.17.67-.41.86-.31-.12.12-.39.25-.57.42-.34.28-.14.05-.46.2-.12.3.31.13.75-.13S23.86,7.82,23.81,7.75Zm-3.92,2.57c-.06-.22-.4,0-.47.19S19.82,10.49,19.89,10.32Zm-1.64,2.76c.22-.16.48-.4.65-.4-.11,0-.51-.1-.53.09.05,0,.1-.06.11,0S18.25,13,18.25,13.08Zm-.89,0a.63.63,0,0,0,.41-.43A.53.53,0,0,0,17.36,13ZM17,13c.14.2.29,0,.44-.23C17.34,12.54,17.1,12.9,17,13Zm-2.39-2.45c.33-.09.32-.43.45-.64C14.72,10.15,14.55,10.37,14.56,10.55Zm-.39-.14c-.08-.17-.3,0-.52.23C13.73,10.82,13.94,10.63,14.17,10.41Zm-.9,1.29c.21-.17.4-.34.32-.45S13.07,11.59,13.27,11.7Zm1.16,2.94c.32-.22,0-.27.27-.44s.93-.46.82-.73c-.3.2-.5.57-.71.55,0,0,.2-.25,0-.11S14.15,14.48,14.43,14.64Zm-2.18-2c.18-.25.24-.15.42-.34a.28.28,0,0,0-.25-.11A.51.51,0,0,0,12.25,12.66ZM12.46,17c.23-.46.66-.48.63-.77-.25.19-.43,0-.7.32,0,.14,0,.18.18.15C12.45,16.85,12.43,16.94,12.46,17Zm-.93.52c.17-.2.14-.31,0-.39C11.37,17.37,11.34,17.62,11.53,17.54ZM8.35,22.08c.06-.06.11-.08.16,0,.2-.2.28-.63.37-.59s-.22.38-.06.43c.29-.24.18-.32.32-.62-.23,0-.18-.16-.35-.11A6.15,6.15,0,0,1,8.35,22.08ZM6.27,27.75c.05-.18.14-.18.19-.35-.18,0-.09-.19-.24-.21A.68.68,0,0,0,6.27,27.75Zm-.5,1.31c.12-.2.33-.3.33-.52a.2.2,0,0,0-.21,0c0-.39.34-.53.28-.75-.2,0-.31.57-.48.78.07,0,.22,0,.19.17s-.16.31-.25.34C5.63,29.79,5.62,29.36,5.77,29.06ZM.38,42.21c0-.46.08-.61-.1-.88,0,.13-.06.07-.12,0C.27,41.71,0,42.07.38,42.21Zm.13.22c.06,0,.06-.2,0-.22,0,.23-.23.24-.22.56C.48,42.86.39,42.48.51,42.43ZM.48,44c.05-.15,0-.67-.17-.65C.41,43.62.24,43.85.48,44Zm2.38,1.81c-.09-.26-.14-.58-.28-.7C2.56,45.54,2.65,45.62,2.86,45.79Zm-1.95.82c0-.42,0-.51-.21-.65A.59.59,0,0,0,.91,46.61Zm3.6,6.69a1.49,1.49,0,0,0-.27-.58.27.27,0,0,0-.16.28C4.28,52.79,4.36,53.22,4.51,53.3Zm.1.65c0-.08.12-.39-.09-.43-.16.35-.12-.24-.25-.36C3.94,53.31,4.45,53.89,4.61,54Zm1,4.49c0-.15-.24-.73-.4-.65C5.48,58,5.38,58.33,5.63,58.44ZM7.85,62c-.09,0-.19-.05-.3-.2-.19.06-.12.24-.06.43.09-.07.19,0,.3.2C8,62.32,7.91,62.13,7.85,62Zm.33,1a1,1,0,0,0,.1-.46C8.17,62.56,7.82,62.57,8.18,62.91Zm1-.68c-.32-.27-.68-.95-1-.9,0,.2.11.08.24.23S9,62.41,9.17,62.23Zm1.89,3.15c.18.11.39.31.54.25-.24-.2-.12-.27-.31-.44Zm-.64-.18a1.2,1.2,0,0,0-.41-.37c-.17,0-.24.34,0,.31C9.85,64.91,10.29,65.16,10.42,65.2Zm1,1.43c-.23-.18-.54-.79-.68-.58C11,66.22,11.31,66.83,11.45,66.63Zm0,0c.16-.21-.57-.73-.78-1.06-.1.06-.27-.25-.36-.13A7.56,7.56,0,0,1,11.49,66.59ZM29.26,5.52c0-.17.21-.29.53-.38,0,.08-.1.15-.27.19,0,0,.06,0,.12,0S29.41,5.47,29.26,5.52ZM58.13,69.66c0,.2-.27.26-.48.35C57.66,69.81,58,69.74,58.13,69.66ZM5.56,30.76a2.54,2.54,0,0,1-.3,1.36c-.25,0,0-.15.08-.29A2.7,2.7,0,0,1,5.56,30.76ZM4.64,44.65a10.45,10.45,0,0,1,.24,1.27A3.57,3.57,0,0,1,4.64,44.65Zm46.5,31.74c-.06.36-.9.38-1.33.46s-.75.3-.86.09A10,10,0,0,0,51.14,76.39Zm10.33-7.27c-.15.1-.13.19-.3.29a.92.92,0,0,1-.43-.28C61,69,61.3,69,61.47,69.12Zm-8.24,6.74c-.2.22-.91.35-1.31.53A4.55,4.55,0,0,1,53.23,75.86Zm-9.36,1.88,1.8-.26a10.22,10.22,0,0,1-3.3.39C42.15,77.78,43.42,77.78,43.87,77.74ZM62.14,69l-.83.61C61.44,69.46,61.94,68.82,62.14,69Zm2.13-2c0,.21-.2.32-.42.46C63.86,67.3,64.05,67.19,64.27,67.05ZM63.1,68.22a1.65,1.65,0,0,1-.87.56,1.75,1.75,0,0,1,.6-.58C62.89,68.29,63,68.28,63.1,68.22ZM54.23,72c-.4.11-.3.29-.58.41-.36-.26-.6.24-.87.24,0-.07.07-.13,0-.2.21,0,.59-.29.68-.18C53.68,72.15,54.12,71.7,54.23,72ZM46,6.08a12,12,0,0,1-2-.33,10.43,10.43,0,0,1,1.81.18C46,5.93,46,6,46,6.08ZM6.6,17.63A4.89,4.89,0,0,1,7.05,17C7.1,17.06,6.76,17.8,6.6,17.63Zm58.67-8.9c.09-.07.47.18.62.32s.43.46.29.51A7,7,0,0,0,65.27,8.73ZM9.94,13.3c.24-.1.56-.53.87-.85s.65-.85.84-.73C11.1,12.19,10.34,13.41,9.94,13.3ZM34,.56c-.4-.16.82-.19,1-.32,0,.07.2,0,.33,0C35.15.53,34.12.43,34,.56ZM15.32,9.05c.23-.16.46-.32.55-.18C15.63,9.07,15.39,9.23,15.32,9.05ZM9.81,14.24c-.16-.08.44-.41.28-.49.17,0,.54-.68.66-.44A11.66,11.66,0,0,0,9.81,14.24ZM7.63,17c.28-.42.49-.4.74-.68C8.37,16.35,7.77,17.27,7.63,17Zm2.58-2.85c.24-.26.51-.59.65-.44C10.66,13.79,10.35,14.33,10.21,14.16Zm1.09-.92c-.09-.2-.35.27-.44,0,.25-.27.4-.13.65-.43C11.57,12.93,11.48,13.07,11.3,13.24ZM50.61,7.11c-.23.13-.71-.16-1-.22-.87-.21-1.55-.41-2.31-.62-.38-.13-.94,0-1-.28.73.22,1.55.33,2.34.51C49.19,6.69,49.88,6.84,50.61,7.11ZM42.44,5.58a3.52,3.52,0,0,1-.95-.06C41.74,5.36,42.14,5.48,42.44,5.58Zm-5.55-.11a2.45,2.45,0,0,1-.66.16C36.13,5.4,36.67,5.52,36.89,5.47Zm4.41,0c0,.23-1,0-1.25,0C40.28,5.31,40.91,5.46,41.3,5.45ZM57.2,10c-.33,0-.49-.22-.85-.45C56.54,9.49,56.93,9.87,57.2,10Zm6.3,4.45c-.21.07-.29-.2-.47-.35L62,13.18c-.38-.32-.8-.57-1.12-.82.32-.18.57.29.77.43C62.16,13.21,62.68,13.7,63.5,14.44ZM51.78,7.55c-.19.15-1.13-.26-1-.37C51,7.35,51.34,7.34,51.78,7.55Zm4.44,1.83c-.08.15-.48-.07-.55-.2S56.05,9.34,56.22,9.38Zm-54,17.38c-.05-.26.3-.88.41-1.28C2.68,25.75,2.32,26.36,2.22,26.76ZM25.55,76.05c-.18,0-.5-.09-.69-.07a.26.26,0,0,0,.15.19c-.25.14-.09-.19-.38-.21A1.43,1.43,0,0,1,25.55,76.05Zm2.42,1c-.19.26-.53-.09-.85-.25C27.25,76.74,27.71,77,28,77.09Zm-3.7-.63c-.3-.15-.61-.29-.52-.45C23.76,76.16,24.46,76.29,24.27,76.46Zm2.47.75c-.22.09-.63-.23-.7-.33-.26-.09-.37,0-.52-.2C25.93,76.65,26.46,77.05,26.74,77.21Zm-2.16-1.14c-.15.09-.33-.14-.53-.18s-.13.06-.15.06-.14-.16-.27-.2-.39.08-.68-.14c0-.21.27,0,.45.09,0-.19.34-.1,0-.32.21-.12.18.16.27.2s.07-.07.15-.06.34.33.66.4C24.48,76,24.5,76,24.58,76.07ZM19.1,73.2c-.46-.31-.68-.18-1.2-.6.12-.08-.07-.17-.2-.29a1.4,1.4,0,0,1,1.15.66c.07-.13-.07-.26.17-.24a6.08,6.08,0,0,1-.9-.57c-.31-.24-.52-.54-.47-.71.36.29.42.53.79.77.1.09.42.06.2-.09.69.21,1.57,1.07,2.15,1.27-.28.09-.74-.25-1-.31s.21.42.31.33c.26.34-.43-.11-.63-.25s.14-.12.26-.19a6.43,6.43,0,0,1-.8-.57c-.21.15.22.3.27.38s-.19,0-.16,0,.36.21.18.33C19.17,73.1,19.15,73.17,19.1,73.2Zm5.1,3.69c-.43-.16-.86-.17-1.25-.28s-.1-.16-.41-.2a9.42,9.42,0,0,1-2.68-1c-.06-.13-.29-.27-.3-.39s.64.2.51-.18c.39.12.4.31.81.4.12-.21-.51-.46-.87-.72,0-.1.18,0,.22-.15.35.51,1.12.68,1.83,1.06,0,.13-.19,0-.35,0a.81.81,0,0,0-.55.06c.27.34.34.12.56.15a8.85,8.85,0,0,0,2.12,1A.71.71,0,0,0,24.2,76.89Zm-2-.84c0-.09-.19-.17-.24-.25-.19.17.3.34.62.51C23.29,76.63,22.52,76.16,22.21,76.05Zm-2.33-2.22c.06,0,.21.08.25,0s-.38-.27-.53-.4c0,0,.09.11.16.17s-.41.06.06.32c-.3,0-.34-.09-.6-.3-.07-.06.24.05.22.06s-.55-.31-.66-.41.19,0,.35.08a2.46,2.46,0,0,1,1.5.51c-.07,0-.15,0-.18.09.23.06.32-.14.68.14-.11.12-.1.25.17.36-.28.27-.71-.15-1.11-.3.08-.14.22,0,.13-.2S20.14,74.07,19.88,73.83Zm8.54,3c-.06.08-.32-.08-.35,0l-.82-.31c-.35-.14-.79-.29-.75-.47.26.07.18.18.49.24l.06-.16c-.21-.3-.57-.24-1.09-.48,0-.25.35,0,.55.08s.39,0,.55.08c.52.15,1.05.41,1.43.47.21.2-.19.06-.2.25,0-.27-.78-.52-1.17-.57,0,.19.18.36.5.51.11-.13,0-.22-.24-.28C27.82,76.15,28,76.64,28.42,76.8ZM17.63,72.41c-.51,0-.38-.43-.94-.78.34.35,0,.3-.32.05.23-.18-.29-.33-.34-.64.09,0,.49.14.11-.14.23-.11.47.3.74.49-.15.07-.49-.31-.54,0,.09.06.12,0,.17,0l.61.47c.15.1,0-.34.41,0C17.59,72.09,16.91,71.9,17.63,72.41Zm13.81,5.76c.38.11.22.24.63.21C32.08,78.63,31.34,78.3,31.44,78.17ZM75.88,43.59a9,9,0,0,1,.05-1.32A4,4,0,0,1,75.88,43.59ZM31.58,78.08c-.23,0-.53,0-.61.15-.37-.11-.83-.2-.81-.4a2,2,0,0,0,1,.25S31,78,30.92,78A.68.68,0,0,1,31.58,78.08ZM79,42.27c.11,0,.13.2.09.45.17,0,.14-.17.24,0a4.63,4.63,0,0,1,0,1.34c0,.72-.07,1.46-.18,2.23a1,1,0,0,1-.11.32c-.14,1.11-.3,2.23-.53,3.32,0,.2-.19.43-.23.63s0,.34,0,.47-.16.36-.21.52c-.25.73-.51,1.68-.85,2.44-.12-.15-.2.09-.32,0-.08.44.13,0,.28.11a6.75,6.75,0,0,0-.43,1.54c0,.28-.19.25-.25.37s0,.51-.35.71c.41.06,0,.34,0,.62a.93.93,0,0,1,.46-.27c0-.21-.22-.06-.22-.37s.28-.31.41-.68l.21.1c.19-.33-.26-.2-.07-.66.1,0,0,.18.16.2.25-.37,0-.63.29-.86a2.61,2.61,0,0,1,.22-1.26,1.54,1.54,0,0,1-.07.71,2.94,2.94,0,0,0,.33-.36c.08-.23-.16.06-.15.06s.06-.19.06-.34-.22-.28.09-.57c.19,0,0,.25,0,.36s.22.05.14.3c.38-.31.31-.61.52-1-.27-.1-.21.41-.37.47s0-.41-.12-.53c.18-.34.12,0,.32,0a1,1,0,0,0,.5-.66.35.35,0,0,1,0,.6c-.06.31.21-.25.32,0s-.19.51-.28.76a4.05,4.05,0,0,1-.11.46c-.2.49-.52,1-.72,1.57-.09.22,0,.32-.12.46-.38.74-.9,1.62-1.23,2.35a7.62,7.62,0,0,1-.46.8c-.5.83-1.08,1.64-1.63,2.46-.28.4-.54.81-.84,1.2s-.63.73-.95,1.07a4.22,4.22,0,0,1-.37.29,7.89,7.89,0,0,0-.76,1,3.62,3.62,0,0,0-.57.7c-.22.29-.32.12-.52.3-.29.49-.86.82-1.18,1.37-.13.16-.17-.16,0-.29-.43.15-.63.8-.49.79-.31.27-.7.63-.92.5-.21.56-1.21.81-1.35,1.36-.12.18-.27.09-.33.13s-.09.18-.21.27-.47.34-.78.54a10.12,10.12,0,0,0-.91.58c-.13.09-.43.34-.38.43-.11.07-.14,0-.19-.08a6.28,6.28,0,0,1-1.27.92c-.08.06,0,.11,0,.17-.39.16-.51.38-.82.38s-.07.18-.22.27a5.64,5.64,0,0,0-1.12.53c-.25.14-.7.47-.84.57s-.34.32-.52.44a21.16,21.16,0,0,1-2.13,1c-.6.26-1.13.8-1.63.75-.17.08-.2.19-.38.26s-.21,0-.34.06-.54.31-.81.41c-.59.23-1.2.32-1.82.58a2.09,2.09,0,0,1-.3.15c-.19.05-.38,0-.57.08s-.28.18-.4.23a2.31,2.31,0,0,0-.34,0c-.2,0-.22.12-.43.17-.85.18-1.77.41-2.52.55-.18,0-.21,0-.35,0a3.64,3.64,0,0,1-1.55.28,6,6,0,0,1-1.89.29c0-.11.37-.06.33-.19a.47.47,0,0,0-.44.2,4.1,4.1,0,0,0-1.13,0c-.25,0-.12.18-.33.2a27.79,27.79,0,0,1-3.15,0c-.26,0-.44.09-.68.08-.71,0-1.43-.14-2.14-.19a3.87,3.87,0,0,1-.68,0c-.2,0-.31-.15-.54-.21s-.35,0-.56,0c-.82-.14-1.78-.34-2.64-.57,0-.18.43.07.79.09s.77-.16.77.12c.39.1.31-.16.7-.06,0,.1,0,.16.19.21,0-.14.42-.2.67,0,.16-.2-.4-.16-.28-.35.75.07,1,.17,1.66.17.13-.22-.47-.13-.28-.38.75.19,1.31-.14,1.86.18.23,0,.24-.08.12-.17.26-.07.4.18.44,0,.26,0-.14.15-.13.23a7.75,7.75,0,0,1,2.1,0c0-.06-.13,0-.22-.05a8.91,8.91,0,0,1,2-.08c.39,0,.27-.23.66-.21a1.34,1.34,0,0,0,.66.09c.19,0,.2-.05.21-.13.25,0,.61.1.65-.11s-.61,0-.87,0c0-.15-.06-.25-.34-.22-.09,0-.11.06-.22.07.08,0,.26,0,.23.17-1.36,0-2.32.06-3.27.07s-1.89-.07-3.15-.21c-.13-.09,0-.1,0-.18A7.68,7.68,0,0,1,34.71,78c-.12,0-.09.11-.24.08s-.59-.16-.48-.38c-.29,0-.34,0-.26.2-.1,0-.08-.15-.29-.17.08-.2.49-.15.7-.25a2.21,2.21,0,0,0,1,.22c.13.23-.37,0-.35.12.19.18.84.15.56-.09.41.12.63,0,.85.12,0,.12-.17.11-.34.08.13.19.69.09.66-.06a8.73,8.73,0,0,0,1.82.11c.3,0,.45.17.75.22.11,0,.07-.11.22-.1,1,.11,2.29-.14,3.12,0,.12.2-.33.11-.54.14.39.2.79-.11,1-.22l1,0,.89-.1c.58-.08,1.15-.18,1.8-.3.09.11.32,0,.13.17.35,0,.25-.13.41-.18l.66,0,.66-.13c.44-.09.86-.21,1.23-.32s.87-.28,1.25-.37a6.69,6.69,0,0,0,.85-.18c.16-.06.33-.18.5-.24s.27,0,.44,0a10.76,10.76,0,0,0,1.19-.55c.1-.06,0-.13.17-.18a1.71,1.71,0,0,0,.73-.2c.34-.13.48,0,.58-.31.3-.15.39,0,.73-.21,0-.06-.2,0-.32.08,0-.26.35-.22.57-.33L58,73.76c.61-.31,1.2-.7,1.94-1.08a15.83,15.83,0,0,0,1.84-1.14c.16-.11.23-.07.39-.2.34-.27.68-.72,1-.66,0-.17.75-.81,1-.87,0,0-.15.22-.23.24s.56-.27.31-.3a1.31,1.31,0,0,0,.75-.46s-.13,0-.2.1A11.73,11.73,0,0,1,66.23,68a3.18,3.18,0,0,0,1.36-.92c-.12,0-.4.37-.47.13.5-.39.38-.64.89-1.11a12.24,12.24,0,0,0,1-.87c0,.07-.1.18-.18.28.28-.06.5-.53.17-.44.15-.19.28-.29.38-.23.33-.57,1.05-1.34,1.48-2-.09.41.47-.22.48-.45-.21-.08-.2.54-.35.27l1-1.29c.3-.45.56-.88.74-1.19.07.08.14,0,.21,0l0-.38c.25-.4.53-.8.75-1.2.4-.67.8-1.42,1.21-2.18.09-.18.14-.43.23-.61a24.17,24.17,0,0,0,1.42-3.42c.11-.34.13-.64.23-1,.2-.68.39-1.32.56-2,.19-.84.38-1.66.49-2.44,0-.2.1-.21.13-.42s0-.3,0-.44.24-.56.08-.86a18.65,18.65,0,0,0,.34-2.79c.11,0,.12.15.24.13l-.06.87c0,.24.21.08.29.15,0-.24-.1-.17-.1-.34s.11-.09.14-.21a.53.53,0,0,0,0-.33C78.86,42.53,79.09,42.5,79,42.27Zm-37.36,36c-.22,0-.44-.25-.65,0C41.19,78.27,41.42,78.54,41.63,78.32Zm-4.64.8a6.64,6.64,0,0,0-.76-.17c-.09.22.55.4.63.34C36.54,79.24,37,79.21,37,79.12Zm1,.73c0-.17-.72-.28-.88-.18A2.08,2.08,0,0,0,38,79.85Zm3.83-.16c-.26,0-.94-.12-1,.1C41.24,79.68,41.53,79.86,41.87,79.69Zm2.68-1.5c-.16-.11-1,.19-.75.22C43.89,78.27,44.49,78.34,44.55,78.19Zm7.52-.52a1.37,1.37,0,0,0-.74.28C51.58,77.94,52.07,77.9,52.07,77.67Zm3.12-1.23c-.08-.13-.26.16-.28.22a6.37,6.37,0,0,0,.94-.38C55.86,76,55.42,76.41,55.19,76.44Zm11.06-7.53a.57.57,0,0,0-.3.5C66.16,69.22,66.37,69,66.25,68.91Zm.06-.78c-.26.32-1.12.67-1,1,.36-.22.14-.09.2-.26C65.63,68.49,66.53,68.46,66.31,68.13ZM68,66.39c-.22.07-.47.48-.32.61C68,66.72,67.88,66.58,68,66.39Zm.23-.08c.21-.24.32-.14.53-.39C68.66,65.68,68.16,66.15,68.18,66.31Zm4.11-2.71L72,64C72.13,64.28,72.54,63.63,72.29,63.6Zm1-1.38c-.3.52-.45.1-.74.57.16.11.39-.19.58-.27s-.18.32.06.33C73.41,62.54,73.28,62.41,73.27,62.22Zm2.42-2.76a3.07,3.07,0,0,0,.23-.39C75.77,58.88,75.45,59.42,75.69,59.46Zm-.19-.9a1.35,1.35,0,0,0-.22.65.35.35,0,0,1,.22-.13C75.64,58.83,75.63,58.65,75.5,58.56Zm2.85-5.19c.19-.17.4-.2.57-.51-.13-.25-.28.24-.38.34s-.08-.06-.11,0l-.14.19c-.09.12-.13.28-.22.41C78.2,53.93,78.26,53.56,78.35,53.37Zm-.12.82-.2.54C78.13,55,78.46,54.1,78.23,54.19Zm-.75.8c.31,0,.25-.54.5-.65-.14,0,.06-.34,0-.39C77.71,54.32,77.74,54.55,77.48,55Zm.13,1.07c.19-.23.07-.33.13-.58s.41-.49.15-.56a1.86,1.86,0,0,0-.27.61C77.54,55.78,77.49,56,77.61,56.06Zm-.92,1.6c.09-.27.22-.56,0-.63C76.64,57.3,76.52,57.58,76.69,57.66Zm1.87-11.47c-.12,0-.26,0-.29.28s.13.28.33.18C78.69,46.37,78.52,46.41,78.56,46.19Zm-.11-1.57a.29.29,0,0,1-.16.19c0-.11,0-.27,0-.11.1.25-.11.35-.12.74.25.09.22-.36.22-.62C78.44,44.87,78.54,44.7,78.45,44.62ZM30.12,77.19a4.81,4.81,0,0,0-1.13,0,3.75,3.75,0,0,1-.62-.54,2.74,2.74,0,0,1,1.26,0,1.22,1.22,0,0,1-.8,0c-.08.14.08.22.36.28.17-.26,1.48-.28,1.52.22-.26-.07-.3-.19-.53-.14.37.39,1.28.22,1.54.54l.06-.24a8.28,8.28,0,0,0-.85-.16c-.12-.39,1.05,0,1.07.16a2,2,0,0,1,.85.15c-.12.09-.41,0-.48.17-.2,0,0-.21-.28-.23s-.08.16-.25.12c0,.08.25.12.41.15-.18.24-.65.14-1,.06S30.5,77.29,30.12,77.19ZM30,78l-.32-.09c.3-.06-.13-.14,0-.31C30,77.65,30,77.81,30,78Zm1.91.13c.41.12.38.07.64.17C32.52,78.36,31.71,78.27,31.91,78.1Z"/><path class="cls-3" d="M60.77,22.58a.91.91,0,0,0-.91-1,31.48,31.48,0,0,1-10.73-2.29,20.15,20.15,0,0,1-4.4-2.21c-1-.71-2-1.47-3-2.2-.52-.39-1.06-.75-1.59-1.12A3.55,3.55,0,0,0,39,13.23h-.14a7.62,7.62,0,0,0-2.33,1.25l-3.24,2.19a29.38,29.38,0,0,1-9.38,4,25.32,25.32,0,0,1-6.35.93.9.9,0,0,0-.91,1c-.6,3.56-.27,7.25-.05,10.83s.43,7.37,1,11a24.56,24.56,0,0,0,3.5,9.66,24.14,24.14,0,0,0,6.64,6.53A63.65,63.65,0,0,0,38,66.28a.84.84,0,0,0,.62.24h.13a.82.82,0,0,0,.62-.24,63.16,63.16,0,0,0,9.26-5,27.06,27.06,0,0,0,7-6.23c4.35-5.79,4.66-13.35,5.11-20.28q.2-3.12.32-6.25A29.27,29.27,0,0,0,60.77,22.58Z"/><path class="cls-4" d="M60.77,22.58a.91.91,0,0,0-.91-1,31.48,31.48,0,0,1-10.73-2.29,20.15,20.15,0,0,1-4.4-2.21c-1-.71-2-1.47-3-2.2-.52-.39-1.06-.75-1.59-1.12A3.55,3.55,0,0,0,39,13.23h-.14a7.62,7.62,0,0,0-2.33,1.25l-3.24,2.19a29.38,29.38,0,0,1-9.38,4,25.32,25.32,0,0,1-6.35.93.9.9,0,0,0-.91,1c-.6,3.56-.27,7.25-.05,10.83s.43,7.37,1,11a24.56,24.56,0,0,0,3.5,9.66,24.14,24.14,0,0,0,6.64,6.53A63.65,63.65,0,0,0,38,66.28a.84.84,0,0,0,.62.24h.13a.82.82,0,0,0,.62-.24,63.16,63.16,0,0,0,9.26-5,27.06,27.06,0,0,0,7-6.23c4.35-5.79,4.66-13.35,5.11-20.28q.2-3.12.32-6.25A29.27,29.27,0,0,0,60.77,22.58Zm-1.5,5c-.1,1.81-.26,3.63-.4,5.44-.26,3.56-.45,7.15-1,10.68A23.28,23.28,0,0,1,54.59,53a22.17,22.17,0,0,1-6.14,6,65.41,65.41,0,0,1-9.73,5.54,63.35,63.35,0,0,1-8.64-4.8,25.39,25.39,0,0,1-6.61-5.87c-4.13-5.58-4.28-12.78-4.8-19.42-.16-2.05-.32-4.1-.46-6.15a32.58,32.58,0,0,0-.4-4.84,25.65,25.65,0,0,0,5.78-.81,35.12,35.12,0,0,0,5.73-1.85,33.58,33.58,0,0,0,7.55-4.95c.54-.42,1.05-.87,1.55-1.33a3.85,3.85,0,0,0,.52-.55,8.43,8.43,0,0,0,1.59,1.62c1,.88,2,1.73,3,2.54a26.2,26.2,0,0,0,9.79,4.4,27.32,27.32,0,0,0,6.28.93A25.4,25.4,0,0,0,59.27,27.57Z"/><path class="cls-4" d="M41.08,31.84a10.24,10.24,0,0,0-2.29,1.79l-.07.08a6.86,6.86,0,0,0-1.36-1.56,4.73,4.73,0,0,0-6-.07,6.18,6.18,0,0,0-2.47,5.55,7.05,7.05,0,0,0,1.46,3c.66.9,1.23,1.87,1.94,2.73,1.59,1.93,3.8,3.17,5.46,5a.86.86,0,0,0,.87.26,1,1,0,0,0,1-.28l0,0,.28-.19.74-.5c.48-.34,1-.68,1.44-1a26.27,26.27,0,0,0,2.61-2.23,14.29,14.29,0,0,0,3.56-5.46A5.77,5.77,0,0,0,47,33.06C45.44,31.44,43.11,30.63,41.08,31.84Z"/><path class="cls-5" d="M45.82,38.84a12.18,12.18,0,0,1-2.94,4.09c-.77.75-1.61,1.44-2.45,2.11-.39.31-.78.62-1.18.91l-.71.51c-1.12-1.09-2.41-2-3.55-3a23.71,23.71,0,0,1-3.36-4.3,4,4,0,0,1-.85-2.28,4,4,0,0,1,.77-2.14,3.23,3.23,0,0,1,3.74-1.55,3.9,3.9,0,0,1,1.64,1.26,2.51,2.51,0,0,1,.8,1.73c0,.54.68.76,1,.43l0,0a.38.38,0,0,0,.18-.21,1.64,1.64,0,0,0,.33-1,5.66,5.66,0,0,1,2.26-1.83,2.45,2.45,0,0,1,2.21-.27,4.34,4.34,0,0,1,1.71,1.35A3.88,3.88,0,0,1,45.82,38.84Z"/></g></g></svg>