<svg xmlns="http://www.w3.org/2000/svg" viewBox="0 0 79.99 79.88"><defs><style>.cls-1{fill:#1daac1;}.cls-2{fill:#1ca9c0;fill-rule:evenodd;}.cls-3{fill:#ce1f46;}.cls-4{fill:#6d5857;}.cls-5{fill:#dd8729;}.cls-6{fill:#231f20;}</style></defs><g id="Layer_2" data-name="Layer 2"><g id="Layer_1-2" data-name="Layer 1"><circle class="cls-1" cx="39.67" cy="40.23" r="36.28"/><path class="cls-2" d="M9.7,55.42c.11-.05.19.2.31.06l.13.25c-.05.08-.3-.26-.2,0C9.85,55.74,9.78,55.54,9.7,55.42Zm-.89-.94c.07,0,.11.16.19.12.13.16-.05.17,0,.23s.31.47.08.49A1.8,1.8,0,0,1,8.81,54.48Zm1,.89A4,4,0,0,1,9.6,55C9.75,54.89,10.08,55.34,9.81,55.37ZM7,50.75c.15.19.17.14.2.44s.21,0,.28.12l.28.91c0,.3-.13-.14-.14-.26-.12.07,0,.35-.2.37.07.17.21,0,.3.1.26.5,0,.65,0,.92a1,1,0,0,1,.24.74,4.06,4.06,0,0,1-.43-1.49c0,.08,0,.23-.1.24-.13-.33-.25-.72,0-.8,0-.56-.45-.79-.57-1.24,0,0,.17-.12.06-.21s0,.34-.29.28c0-.34-.18-.4-.26-.63s0-.32-.11-.58c.06,0,.08.11.11.17.26.27.63.08.81.58-.13-.21-.37-.08-.52-.25-.06,0,0,.18,0,.29a2.13,2.13,0,0,0,.46.07C7.24,50.71,7.13,50.72,7,50.75Zm2,2.93c.17-.14.33.22.29.39S9.08,53.9,9,53.68Zm-.77-1.91.06.18c.13.27,0,.3.05.48.29.78-.07-.12-.22-.22C8.16,52.08,8.07,51.81,8.23,51.77ZM8.86,53c.1.17.06.24.09.36-.15-.06-.23-.44-.43-.24C8.46,53,8.79,53,8.86,53ZM8.74,54.3c.08.25-.17.08-.18-.13-.11.13.27.61.18.75-.2-.15-.11-.32-.31-.59.12-.08,0-.35.16-.38C8.71,54.09,8.55,54.31,8.74,54.3Zm1,1.75c-.17.21-.6-.57-.31-.58A1.22,1.22,0,0,0,9.7,56.05ZM62.2,67.78c0,.23.29-.12.45-.22,0,.13-.25.44-.38.32-.14.12.08.2,0,.32s-.43.36-.65.46c0,0-.07-.15-.11-.14s-.55.43-.39.13.41-.18.58-.21a1.2,1.2,0,0,0,.39-.48c-.25-.12-.25.21-.46.38-.41,0-1.49,1-2.14,1.27.56-.44,1.25-.89,1.91-1.37s1.26-1,1.8-1.45C63.12,67.08,62.27,67.49,62.2,67.78Zm1.87-2.67c-.09-.28.31-.44.42-.69s0-.09.27-.27C65.19,64.32,64.13,65.05,64.07,65.11Zm-.75.48c0,.08,0,.22.12.14s.11-.24,0-.16c0-.25.37-.27.55-.55l.08.09a10.76,10.76,0,0,1-1.37,1.55c-.26.21-.41.1-.64.46-.14,0-.09-.05-.11-.14-.18-.07-.47.2-.71.35-.21-.13.65-.46.37-.47,0-.26.33,0,.45-.06.12-.22.25-.07.3-.09s.2-.22.3-.25.12.13.22,0,0-.08-.07-.1-.17.13-.45.22c0,0,0-.17,0-.15s-.36.44-.44.22C62.52,66.13,62.87,65.92,63.32,65.59Zm0,.26c-.16.1-.24,0-.45.22C62.87,66.28,63.32,66,63.29,65.85ZM8.82,55.1c.15.36-.07.45.21.85a.57.57,0,0,1-.34-.69.75.75,0,0,1-.39-.77c0-.26,0,.25.18.44S8.71,55,8.82,55.1Zm56.36,8.37c.23-.3.8-.44.42,0C65.68,63.09,65.29,63.65,65.18,63.47Zm-.25.85.34-.35C65.51,64,65,64.56,64.93,64.32ZM10.16,56.14,10,55.89l.21-.1.14.24C10.19,56,10.31,56.07,10.16,56.14ZM60.91,67.37c0-.17.26-.38.19-.55a13.28,13.28,0,0,1,1.58-1.24c-.34.49-1,.8-1.36,1.22C61.12,67,61.13,67.18,60.91,67.37ZM32,72.22c.36-.22.82,0,1.48.15-.12.18-.45,0-.74-.07A4.3,4.3,0,0,1,32,72.22ZM7,49.67c.13.39.2-.22.32.21,0-.07,0-.22.12-.23.1.16,0,.3.08.47s.24.5,0,.48a.91.91,0,0,1-.09-.47c0-.19-.2,0-.17,0-.13,0-.13-.4-.32-.21,0-.46-.28-.47-.25-.82a.24.24,0,0,0,.2.05C6.94,49.34,7.15,49.65,7,49.67ZM59.28,68.22c0-.22.28-.32.47-.32s0-.1,0-.15c.26,0,.35-.3.52-.42s.3-.32.38-.14c-.36.2-.41.5-.6.65S59.6,68,59.28,68.22ZM73.7,28.28c.19-.21.66.76.3.76-.06-.19.12-.17,0-.42s-.12.15-.11.24c.11.43.39.15.5.6a.9.9,0,0,1-.64-.66C73.67,28.57,73.78,28.53,73.7,28.28Zm1.56,8.18c0,.24.22.62-.06.61,0-.19.15-.19.07-.51-.21-.06,0,.41-.27.32,0-.26.13-1-.09-.79-.17-.13,0-.54.13-.51s0,.29,0,.4.13.07.13.09S75.23,36.34,75.26,36.46Zm.61-1.58a8.16,8.16,0,0,1,.23,1.52c-.12-.13-.24-.25-.45-.17-.09-.33.17-.17.28-.23,0-.27-.13-.11-.2-.18s-.09-.23,0-.21c-.1,0-.17,0-.23.13s.07.12.07.09-.23.43-.11.62c-.16-.1-.21-.5-.07-.6-.05-.54-.24-.48-.17-1,.15,0,.16.32.19.58h.17c0-.4-.24-.38-.14-.8,0-.12-.12-.08-.19-.08-.08-.27.1-.22.07-.42s-.24-.16-.24-.57c.19,0,.28.24.36.55s.26.28.46.35c.13.38-.26.06-.13.43C75.78,35,75.88,35,75.87,34.88Zm-2.42-5.17c-.13-.1,0-.19-.06-.39s-.15-.26-.17-.36c0-.27,0-.47,0-.72.39.15.07.71.39,1A.74.74,0,0,0,73.45,29.71ZM74,31c-.09.07-.31-.39-.19-.46a1.4,1.4,0,0,1-.41-.71c.23.45.3.09.23-.28.43.33.15.84.47,1.32C74.06,30.87,74,30.92,74,31Zm1.39,8.76v-.3c.15.06.31.09.31.41C75.55,40,75.56,39.72,75.42,39.76Zm.77-.09c0-.19.17-.18.12-.51,0-.1-.14-.1-.13-.3.09,0,.17,0,.18-.11C76.43,39,76.51,39.64,76.19,39.67Zm.11-1c-.24-.11,0-.49-.07-.92-.24.2,0-.69-.22-1,.25-.1.21.51.27.8A2.55,2.55,0,0,1,76.3,38.65Zm-.3.21c-.06,0,0-.13-.06-.21s-.15.08-.18.21-.08-.58-.18-.2c-.22,0,0-.36,0-.41s0-.28,0-.4.11-.06.12-.1-.07-.36.1-.31c0-.18-.12-.5.07-.41,0,.26,0,.62,0,.91s-.36.37-.11.62c.11-.19,0-.67.29-.62C76.1,38.45,75.85,38.44,76,38.86ZM73.19,28.45c0,.07-.07.14-.12,0s-.17-.52-.29-.88-.29-.74-.44-1.06,0-.37.06,0A6.3,6.3,0,0,1,73.19,28.45Zm2,9.82c-.09-.19-.33-.11-.3-.49.09.29.31-.28.3.19.13-.07,0-.51.23-.41-.16.38,0,.85-.1,1.4-.16-.26,0,.16-.23.1C75,38.61,75.26,38.67,75.21,38.27Zm-.6-.18c-.13.32,0-.71-.15-.68.06-.28-.12-.41,0-.69.08.36.34.84.29,1.07C74.59,37.46,74.6,37.71,74.61,38.09Zm-.07-7c0-.22-.16-.2-.18-.27-.08-.24.12-.16.06-.43.26.18.29-.11.47.3-.16.12-.22-.12-.38,0,0,.26.33.51.36.23.07,0,0,.09,0,.1l0,.2c-.16.11-.16-.25-.33-.14.15.43.28.49.24.88-.17,0-.26-.18-.37-.33C74.4,31.3,74.55,31.32,74.54,31.09ZM69.22,20.45c0,.22-.48-.64-.67-.87C68.87,19.57,68.94,20.14,69.22,20.45Zm3,2.83A1.42,1.42,0,0,0,72,22.5c.18-.05.51.54.39.61.15,0,.27.33.41.38,0-.37-.51-.87-.59-1s.09-.07.1-.05a.76.76,0,0,0-.41-.26c-.09-.15-.09-.25,0-.33a2.73,2.73,0,0,1-.4-.61c-.26-.3.22-.15,0-.45-.09-.12-.1,0-.06.15-.14,0-.3-.49-.48-.67.14.06.3.28.44.34s0-.12,0-.15c-.15-.18-.3-.21-.45-.34.23,0-.32-.74-.43-1a2.71,2.71,0,0,1,.51.43c0-.07-.11-.25-.19-.38A5.29,5.29,0,0,1,72.16,21c.09.16.07.19,0,.24s.13,0,.2.13,0,.2,0,.24.18.11.26.22.15.54.29.8a10.75,10.75,0,0,1,.68,1.19c.15.39.18.81.33,1.24a.87.87,0,0,0,.18.26,8.13,8.13,0,0,0,.75,1.85,1.19,1.19,0,0,0,0,.34c-.15,0-.18-.62-.38-.42a4.45,4.45,0,0,0,.54.7,11.25,11.25,0,0,0,.5,2c.05.25,0,.25,0,.44s.13.62,0,.75c-.28,0-.18-.57-.26-.79s-.23-.65-.28-.89a.37.37,0,0,0-.12-.18,2.68,2.68,0,0,1,0-.33c0-.12-.18-.33-.22-.47a1.62,1.62,0,0,0-.3-.77c.16-.09.34.33.29-.1-.08-.14-.07.07-.18.06-.12-.2-.24-.52-.43-.51a17.66,17.66,0,0,1-.59-1.87,1.16,1.16,0,0,0-.65-.61,2.36,2.36,0,0,0-.34-.86l.22-.11C72.5,23.32,72.38,23.18,72.25,23.28Zm1.68,3.31s0-.13,0-.23c-.26.1,0,.31.13.61.06-.12.26-.13.26-.31C74.13,26.5,74.15,26.88,73.93,26.59Zm-.17-.71c.1.31.25.2.37.42-.06,0,0,.19.08.19-.21-.33.15-.23,0-.54C74,26.13,73.91,25.77,73.76,25.88Zm-.17-.71c-.14.11,0,.43,0,.66.2,0,.09-.19.24-.2C73.77,25.39,73.65,25.46,73.59,25.17ZM71.9,21q0-.12.06-.15c-.16-.21-.31-.45-.46-.34C71.63,20.78,71.76,21,71.9,21Zm1.32,2.85c.2.28.27,1,.33.77S73.24,23.58,73.22,23.85Zm-.51-.1c-.27.19.39,1,.62,1C73.15,24.14,72.9,24.37,72.71,23.75Zm-7,39.31c.26-.2-.09-.24.18-.48.12.15-.13.41.13.51C65.92,63.2,65.82,63.18,65.74,63.06ZM63.4,12.77c.27-.09.36.36.7.6C64.2,13.62,63.59,12.93,63.4,12.77Zm10.3,15.3c-.2-.34.1-.23,0-.52.22.08.07.51.24.57C73.94,28.46,73.8,27.85,73.7,28.07Zm.29-.85c.11-.1.15.16.24.14a1.51,1.51,0,0,0,.21.69C74.13,28,74.21,27.64,74,27.22Zm-2-1.6-.15-.36a.24.24,0,0,0,.2,0l-.07-.19c-.07-.11-.15,0-.11.05-.22,0-.11-.36-.14-.48-.1,0-.07.16-.18.19.1-.31-.08-.54-.34-.94.14,0,.26.4.41.25a1,1,0,0,1,0,.32c0,.05.15,0,.15,0a5.47,5.47,0,0,0,.35.83C72,25.39,72.13,25.63,72,25.62ZM6.79,48c.17-.06.28.29.21.44S6.83,48.2,6.79,48Zm65.94-21.9c-.17-.39-.06-.78-.41-.82-.21-.32,0-.32-.13-.6s-.41-.39-.4-.7c.15,0,.35.29.51.65S73,25.87,72.73,26.07Zm.13.16c.48-.1.37.79.74,1.13-.31,0-.09,0-.11.25C73.1,27.38,73.27,26.64,72.86,26.23Zm.19-.95c-.07-.17-.15-.17-.22-.35.16-.25.19.4.33.3a10,10,0,0,0,.48,1.47C73.55,26.91,73.15,25.55,73.05,25.28ZM60.79,16.43c.34,0,.65-.23,1.06-.06a4.3,4.3,0,0,0,.37.28,1.31,1.31,0,0,1,.67.49,3.57,3.57,0,0,0,.46.2,21.64,21.64,0,0,1,2,2.31.87.87,0,0,1-.27-.14c-.11.16.09.23.25.39-.11.17.1.59.25.71a1.29,1.29,0,0,0-.22-.86c.36.19.41.55.72.85-.26,0,0,.34-.3,0a.73.73,0,0,0,.26.49c.14-.12-.07-.39.19-.47l.26.39c-.4-.45-.27.31,0,.44.09-.05-.09-.18-.1-.27s.3.42.51.55c0,.08.07.21,0,.25.28.15.31.63.41.92-.34-.34-.68-.78-1-.64,0-.09.07-.12,0-.22s-.06.14-.2.13c-.15-.3-.3-.31-.45-.56.1-.17.2.11.3.23.28-.08-.24-.6-.4-.59-.18-.22,0-.28-.2-.52L65,20.6c-.1.08.18.23.16.22s0,.18.06.29a1.85,1.85,0,0,1,.39.59c-.25-.3-.48-.62-.75-.93L64,19.9a.66.66,0,0,0,.47-.37c-.14-.24-.25-.14-.4-.38s.07.25-.17.26l-.29-.35c-.18.21,0,.37.26.6-.32,0-.69-.61-1-.87a.26.26,0,0,0,.19-.05c-.13-.18-.23-.16-.37-.26a.21.21,0,0,0,0,.21,7.13,7.13,0,0,1-1.31-1c.13,0,.17,0,.07-.18s-.42-.1-.3,0c-.1.09-.28-.24-.41-.32C60.68,17,60.87,16.73,60.79,16.43Zm4.78,4.29c-.16.11.16.72.35.64C65.85,21.1,65.7,21.06,65.57,20.72ZM64.5,19.49c0,.31.11.39-.21.5.24.4.37-.12.46,0s.4.75.62.55c-.13-.26-.22-.11-.33-.21C64.86,20,64.87,19.58,64.5,19.49ZM63,18.26c.15.35.3.33.45.45s.31.49.37.27-.24-.32-.19-.43C63.34,18.65,63.27,18.32,63,18.26Zm.39-.1c.13-.08,0-.25-.11-.39C63.07,17.85,63.24,18,63.4,18.16ZM62.6,18a.42.42,0,0,0,.39.13c-.07-.1-.06-.18-.21-.29ZM62.28,18c.08,0,.47-.12.2-.31C62.38,17.56,62,17.83,62.28,18Zm-1.06-.7c-.07-.07-.11,0,0,.1.15-.12.13-.28,0-.46C61,17,61.35,17.17,61.22,17.27ZM70,57.18c-.19.17-.39.65-.57.56.18-.38.4-.4.55-.8C70,57,69.94,57.14,70,57.18Zm-.36.12c-.29.21,0-.5.18-.56C69.9,56.9,69.53,57.1,69.65,57.3ZM71,54.42c.1.1,0,.94-.42,1.09a2.92,2.92,0,0,1-.16.57c-.05,0,0-.06,0-.11s-.07,0-.1.05c-.11-.38.81-1,.41-1.2C70.82,54.56,70.93,54.64,71,54.42ZM69.33,58c-.3.37-.13.52-.43.88-.2-.15.21-.59.17-.81.13-.1.51-.36.46,0,.17.09,0-.42.21-.33s-.08.46-.26.64C69.27,58.3,69.4,58.11,69.33,58Zm1.6-2.1c-.34.52-.41.8-.77,1.36-.19-.21-.09-.59.13-1.05.28,0-.17.39,0,.44C70.59,56.49,70.58,55.9,70.93,55.91Zm3.5-20.37c-.1,0-.17-.15-.18,0-.19-.12,0-.44.14-.41Zm-5.8,24c.11-.25.35-.35.53-.82.1.1-.22.4,0,.46C69,59.34,68.8,59.69,68.63,59.54Zm-2.8,2.57a1.64,1.64,0,0,1,.78-1c.23.08-.1.14-.18.23A5,5,0,0,1,65.83,62.11Zm5.53-7.19c.27-.56-.31-.23,0-.76.12.12.05.36.25.44-.19.36-.26.84-.56.82C71.22,55.17,71.25,54.6,71.36,54.92Zm-4.55,5.77c0-.26.52-.68.73-1A2.52,2.52,0,0,1,66.81,60.69Zm1.09-.49c.25-.13.15-.25.38-.44.08.09-.15.33-.07.43A.26.26,0,0,1,67.9,60.2Zm-1.43,2.08c-.11-.12-.24,0-.38.19-.07-.36.5-.59.63-1,.12,0,.23.07.37-.07s-.16,0-.19-.15a.79.79,0,0,0,.29-.27c.14,0,0,.36.18.15,0,.08-.15.52-.31.5-.12.15,0,.2-.15.38-.13-.05,0-.18.09-.31-.06-.08-.14,0-.2,0-.15.35,0,.6-.34,1,0-.37-.17,0-.28.27-.09-.07,0-.18-.12-.24C66.21,62.44,66.31,62.55,66.47,62.28ZM68,58.82c.23-.11.33-.49.52-.8.08-.14.16-.13.25-.28s.06-.21.16-.35a16.05,16.05,0,0,0,1.27-2.33c.28.17-.19.61-.28.82s-.06.47-.25.62,0,.15.1.06c.09.16-.23.35-.33.25a17.77,17.77,0,0,0-1,1.75C68.26,58.67,68.1,58.88,68,58.82Zm6.27-24.14c-.12.27-.28-.55-.25-.76C74.16,33.94,74.06,34.66,74.22,34.68Zm1.27-1.4c0,.2-.07.42,0,.62-.23.09-.08-.69-.07-.61,0-.08-.16-.47-.23-.79a3.07,3.07,0,0,0-.16-.79c.1-.05.1-.21,0-.43.24.28.1.73.19,1.21C75.32,32.8,75.46,33,75.49,33.28Zm-.95,1.06c.18-.1.11.33.32.15,0,.17,0,.27-.09.32C74.7,34.64,74.52,34.71,74.54,34.34Zm.23.47c0,.28.38-.17.33.26-.13.14-.28-.26-.29,0A.15.15,0,0,1,74.77,34.81Zm.91-.53c-.05-.3.12-.41-.05-.61C75.63,33.34,76.08,34.45,75.68,34.28ZM71.76,49.81c.09-.38.17-.33.18-.63.32.09-.22.52.15.54C72.07,50.05,71.88,49.81,71.76,49.81Zm1.37-10.17a5.63,5.63,0,0,1,0-1.69c0-.42-.29-.65-.21-.93.17,0,.13.35.19.55a2.69,2.69,0,0,1,.14.47c0,.13,0,.14,0,.19s.14.36-.06.47A1.44,1.44,0,0,1,73.13,39.64Zm1.9-6.8c.11.07.15.31.22.48C75.06,33.42,75,33,75,32.84ZM74,32a2.37,2.37,0,0,0,.06-.62c.5.2.46,1.15.62,1.81,0,.11.12.06.2.07-.17.31.11.53.24.88s-.13.28-.12.52c-.18-.31,0-.71-.24-1.08-.13-.16-.33-.12-.4-.44.09,0,.12.08.2.07C74.35,32.68,74.48,31.93,74,32ZM73.06,34c-.28,0-.34-.4-.35-.81-.14-.08-.4-.74-.1-.75C72.73,32.94,73,33.63,73.06,34ZM24.86,9.3c-.39.25-1.05.59-1.48.89A3.69,3.69,0,0,1,24.86,9.3ZM63.79,70.21c-.07-.2.26-.33.46-.46C64.32,69.94,64,70.07,63.79,70.21Zm.39-.72-.74.61C63.32,70,64.09,69.28,64.18,69.49Zm.29.54c.06.2-.18.25-.38.4C64,70.3,64.31,70.05,64.47,70ZM58.7,73.18c0,.14-.45.27-.62.41C58.06,73.34,58.43,73.34,58.7,73.18ZM65,70.31a17.57,17.57,0,0,1,1.35-1.13c0,.28.38-.31.41,0-.33.18-.55.44-.8.6,0,0-.06-.1-.08-.1s-.31.31-.42.36.08,0,.06.26c-.33,0-.44.37-.83.54-.09.09,0,.09,0,0,0,.21-.27.13-.37.23-.12-.07.41-.54.11-.4.07-.25.48-.28.4,0C64.87,70.55,65.13,70.39,65,70.31ZM65.82,68c.09.22-.54.57-.82.85C65,68.46,65.6,68.34,65.82,68Zm-8.25,6.8c0-.15-.23-.09-.39-.06a.56.56,0,0,0-.12.26,7.43,7.43,0,0,0-.71.26c.18-.23,0-.19.18-.4.42-.08,0,.08.09.22.34-.17.22-.41.79-.61.12.32.26,0,.65-.14.11.23-.22.46-.63.68C57.35,74.89,57.45,74.82,57.57,74.75Zm8.6-5.91c0-.16.48-.33.71-.68C67,68.32,66.41,68.71,66.17,68.84Zm-.31,1.35c.1.09-.28.28-.39.41C65.36,70.38,65.67,70.23,65.86,70.19ZM55.74,75.73a1.08,1.08,0,0,1-.54.43C55.13,76,55.5,75.87,55.74,75.73Zm-2.85,1.08a.84.84,0,0,0,.33,0,1.08,1.08,0,0,1-.57.37C52.64,77,52.9,76.94,52.89,76.81Zm13.23-9.16c1-1,1.29-1.32,2.35-2.33.3-.18-.23.32-.4.51l-2,2.06C66,67.84,66,67.75,66.12,67.65ZM48.64,78.2c-.46.12-.44-.06-.38-.23C48.58,77.88,48.52,78.12,48.64,78.2Zm-4.8,1.49c-.28,0-.47,0-.45-.13C43.68,79.51,43.87,79.53,43.84,79.69ZM48.11,79a5.91,5.91,0,0,1-2.18.36c-.35,0-.23.21-.65.19,0,0,.1-.07.1-.13a3.87,3.87,0,0,0-1.21.25c.12-.31-.3-.25-.57-.3.24-.31,1-.11,1.21,0a.86.86,0,0,1,.84-.46c.07.16-.4.11-.42.23.13.17.37-.07.43-.11s.51-.13.66-.08,0,.13,0,.12.24-.14.42-.2.16,0,.22,0,.26-.19.54-.11h.23C47.88,78.8,47.56,79.11,48.11,79Zm-.46-.09c-.48.16-.91-.13-.85.3C47.12,79.11,47.66,79.08,47.65,78.89Zm8.14-4.15c0-.21.44-.29.66-.35C56.47,74.53,56,74.62,55.79,74.74Zm-.08.35c.14-.22.82-.34,1.15-.57C56.74,74.77,56.06,74.9,55.71,75.09Zm-14.11,3c-.2.2-.43,0-.85.07S41.37,78.13,41.6,78.11Zm3.59-.32a6.1,6.1,0,0,1-1.47.22l-1.16.11c-.37,0-.57,0-.11,0C43.14,78,44.43,77.9,45.19,77.79ZM14.85,65.68c0-.38.55.53.86.68-.24,0-.58-.23-.61-.51C15,65.74,14.91,65.64,14.85,65.68Zm-.94-1.16a7,7,0,0,0,.81.87C14.43,65.31,13.76,64.72,13.91,64.52Zm-.08-.85c-.14-.19.14-.15.19-.15.16.17.12.29.22.45C14.07,64,14,63.53,13.83,63.67Zm55.23,1a4.39,4.39,0,0,1,1-1.26A5.71,5.71,0,0,1,69.06,64.71ZM43.48,79.19c0,.52-.93.65-1.63.41-.16,0,0,.11.11.12-.31.19-.72-.07-1-.1s0,.07,0,.06a2.6,2.6,0,0,1-1.21,0c-.17.09-.63,0-.56.24a5.5,5.5,0,0,0-1.55-.14c-.26-.09-.22-.32-.63-.35s.6.17.19.38c-.23,0-.35,0-.32-.15-.75,0-1.74-.18-2.32-.17-.24,0-.34-.11-.3-.23-.19.18-.81.08-1.32-.12-.15.14-.62,0-.91,0,0-.13.18-.08.35-.05-.24-.23-.7,0-1-.24-.13,0-.08,0,0,.06-.16.2-.16-.07-.31-.13l-.53-.15c-.17-.06-.36-.08-.53-.15a.94.94,0,0,1-.29-.2c-.12,0-.31.07-.47,0s-.17-.11-.31-.14-.12,0-.23,0a3.5,3.5,0,0,0-.93-.33s.13.12.24.15a4.4,4.4,0,0,1-1.38-.56c-.16-.07-.36-.07-.54-.14a1.7,1.7,0,0,0-.39-.22c-.15,0-.05.08-.15.07s-.51-.25-.72-.28c.07-.09.23-.06.46.05-.38-.24.22-.15,0-.37-.09,0-.13,0-.23,0-.32-.09.05.15-.1.22s-.21-.11-.41-.16c0,0-.33,0-.35,0s-.39-.35-.44-.11c-.23-.08-.09-.17-.24-.26s-.21-.05-.25,0a2.15,2.15,0,0,0-1.19-.6,4.17,4.17,0,0,0-.69-.56c-.09.07,0,.14.13.21-.21,0-.34-.2-.72-.3-.18-.09-.16.14-.31.1-.27-.23-.5-.11-.68-.18s-.29-.22-.47-.3a20.67,20.67,0,0,1-3-2c-.19-.15-.59-.26-.57-.53-.18-.18-.2,0-.34-.11a12.31,12.31,0,0,1-2.32-2.08,1.33,1.33,0,0,1,.5.42,1.68,1.68,0,0,0,.54.41c.26-.07-.22-.34-.43-.5a.9.9,0,0,1-.2-.28c-.21-.17-.38-.16-.48-.3a2.57,2.57,0,0,0-1.24-1.11c-.65-.74-1.35-1.18-1.58-1.85a8.5,8.5,0,0,1-1.71-2c-.38,0-.7-.86-1.14-1.5s-.75-.89-1-1.31a14.83,14.83,0,0,1-1-1.72c-.3-.52-.46-1.14-.85-1.43,0-.34-.25-.47-.42-.78s0-.2-.09-.33c-.23-.57-.63-1.23-.93-1.9-.16-.36-.23-.71-.37-1s-.27-.36-.35-.58-.09-.52-.18-.76a3.82,3.82,0,0,1-.39-1.05c0-.1-.09-.06-.15-.07a3.42,3.42,0,0,0-.2-.87,2.58,2.58,0,0,0,0-1.24c.13-.26.37.37.65.18.13-.16-.12-.55-.16-.74s-.08,0-.26-.06c-.12-.39.18-.28.13-.58s-.21-.27-.25-.62c.1,0,.09-.15.21-.14,0-.38-.17-.4-.21-.74.09,0,.12.09.2.08-.12-.38-.27-.71-.12-1,0-.13-.08,0-.06,0a2.89,2.89,0,0,1-.08-1.3c-.07-.19-.19,0-.1-.31a1.28,1.28,0,0,0-.31-.63c0-.15.19-.15.21-.34a.63.63,0,0,1-.1-.31c-.14,0-.16.19-.35.12,0-.27,0-.13.11-.11,0-.31-.13-.28-.12-.54s.49-.56.11-.76c-.08,0-.07.32,0,.32,0,.18-.25.13-.35.23A3.63,3.63,0,0,1,.54,42c.14,0,0,.6.19.54a2,2,0,0,0-.2-1.42c.06-.36-.07-1.05.23-1,.05-.4-.16-.32-.13-.66s.06.07.06.22c.18,0,.25-.68.48-.3a1.2,1.2,0,0,0,.05-.75c-.09.08-.11.34-.16.53C1,39,.7,39.31.73,38.81s.07.13.23,0c0-.37-.16-.49.06-.65,0-.33-.14.09-.24,0a3.88,3.88,0,0,0,.14-1.08c.11-.2.24.22.32-.18,0-.19,0-.29-.09-.34s0,.32-.15.31-.06-.35-.07-.56c-.24.07-.08.43-.13.76-.29-.22,0-.76,0-1.33.08,0,.08.21.16.25,0-.73.28-.67.43-.92,0-.09,0-.12,0-.23-.21.13-.38.41-.62.45.08-.23.19-.41.37-.38A.59.59,0,0,0,1,34.34a.25.25,0,0,1,.27-.17c0-.35-.11-.16.06-.66,0-.16.1-.42.19-.4,0-.4-.19,0-.26-.28l-.05.32c-.1-.13.1-.79.29-.6a4.6,4.6,0,0,1,.29-1c-.21.22-.37,1.1-.54.76.05-.3.21-.21.28-.49,0-.09,0-.12,0-.22s-.16.09-.26,0a.78.78,0,0,0,0,.44c-.21.16,0-.69.21-.85.11,0,.09.16.2.17,0-.43.22-1.14.47-1.23-.05-.23-.22,0-.34.13,0-.64.62-1,.61-1.76.06-.34.22-.06.29-.48s-.07-.26,0-.47c.3-.44.32-.79.6-1.05,0-.12-.09-.16,0-.35s-.14-.21-.1-.4c-.11.08-.15,0-.07-.15.17,0,.22.43.42.06s-.15.1-.22-.09a8.52,8.52,0,0,0,.26-1c.17-.38.49-.54.7-1,.14-.22-.27-.07,0-.37s.08,0,.15-.05.18-.3.31-.2c.14-.43-.12-.22-.17-.47a3.07,3.07,0,0,0,.55-1.08c.22-.15.16.11.21.25.19-.1.3-.6.5-1,.12.19.26.08.12.47.09,0,.19-.2.29-.34s-.19-.17-.25-.28c.19-.28,0-.34.21-.65.06-.11,0-.14-.09-.19.45-.56.74-1.16,1.12-1.63,0-.09,0-.12,0-.17A7.13,7.13,0,0,1,7.85,17s.08.08.1.08.24-.37.34-.44,0-.13,0-.24c-.07-.23-.26.25-.32,0,.18-.5.44,0,.64-.62.09,0,0,.15.07.2.27-.21.24-.59.48-.6.07-.1,0-.14-.07-.2a8.71,8.71,0,0,0,1-1.3c0,.08-.22.25-.15.32.24,0,.67-1,.18-.44-.06-.13.36-.41.5-.6.06.12.16.06.25.09s0-.08,0,0c0-.34.89-.62.77-1,.22-.27.3,0,.55-.38-.05-.13-.19,0-.32.15,0-.18.46-.45.58-.51s-.25-.07.13-.36c.17-.17.22-.07.29,0,.31-.21.44-.56.73-.86,0,0,.14,0,.21-.09A.36.36,0,0,0,14,10c.22-.17.6-.47.94-.78.15-.14.44-.37.6-.5s.36-.44.64-.44a.71.71,0,0,0,.4-.2,1.1,1.1,0,0,0,0-.16s.79-.21.7-.55l1.08-.8.34-.29c.14-.07.21,0,.35-.06.32-.17.18-.32.49-.27l.21-.32,2.1-1.22c.7-.37,1.39-.7,2-1.05a.48.48,0,0,1,.27.08,7.34,7.34,0,0,1,1.41-.87L27.09,2c.29-.07,0-.25.38-.31,0,.2.2.19.4.19,0-.2-.32,0-.29-.22.26-.1.52-.18.57-.06a.3.3,0,0,0,.16-.3A9,9,0,0,1,30.17.87a.76.76,0,0,0-.19.71c.24,0,.19-.13.18-.22.31,0,.35.16.51.26.51-.23,1-.1,1.28-.39.24-.08.18.08.35.05s.05-.13.2-.16c.37-.13.43,0,.77-.08.08.12.2.21.57.12s-.91,0-.24-.16A2.68,2.68,0,0,1,34,1a3.07,3.07,0,0,0,.43-.17c.2,0,.25,0,.45,0A13.27,13.27,0,0,1,37.35.52c.14,0,.1-.11.11-.18a4.5,4.5,0,0,0,2-.21,3.24,3.24,0,0,1,.56,0c.21,0,.27-.12.34-.12s.15.1.22.11a5.19,5.19,0,0,0,.56,0,2.94,2.94,0,0,1,.68,0c0-.08-.28-.07-.45-.1s.75,0,1,0c-.27.13.31.22-.14.29.08.17.22-.14.56,0,.17-.12-.26-.25,0-.24s0,.09.2.2.16-.14.25-.16.58.12.46-.08a6.43,6.43,0,0,1,1.56.26c-.09.18.2.28-.06.36a7.54,7.54,0,0,0,2,.35c.1,0,.11,0,.14-.1.94.05,1.86.62,2.41.53.45.18,1.12.48,1.22.22a4.26,4.26,0,0,0,.89.19c.21,0,.44.24.61.28a1.49,1.49,0,0,0,.36,0,12,12,0,0,1,1.39.48c.37.12,1,.4,1.6.57.37.13.67.15,1,.3A7.44,7.44,0,0,0,58,4c-.16.12,0,.24-.08.37-.35-.24-.32.09-.61-.05,0,.19.35.09.6.31-.34,0-.58.3-.23.62.05,0,.28,0,.36,0s.67.36,1.07.57.6.17.87.49c.32,0,1.25.62,1.91.94.2.1.35.06.57.16A7.83,7.83,0,0,1,63.92,8.7c-.19.14.07.37,0,.53.42.45.2.78.54,1.21-.31,0-.15.18.06.42-.51,0-.07.49-.2.69-.12-.12-.18-.07-.29-.15,0,.08.18.2.29.31-.3-.05-.16.11-.45,0-.09,0,0,.14.09.22-.14-.06-.17.07-.33.05s-.13-.13-.16-.13-.14.24-.28.16,0-.14-.12-.17a.62.62,0,0,0-.52,0c-.25-.26-.36-.18-.6-.4-.1-.07-.13,0-.19.07-.25-.48-1-1.06-1.16-1.51l-.69-.44c-.24.27,0,.57-.11.85-.59-.32-.16.34-.48.33L59,10.52c-.08.12.05.24-.12.35-.43-.33-.51-.36-.87-.64a.5.5,0,0,0-.21-.41c-.3-.17-.08.14-.26,0l-.33-.21.12-.21c-.35-.16-.5-.5-.71-.34,0,.09.58.17.34.39l-2.72-1.4c-.13,0-.19,0-.32,0-.06.12.08.23-.06.36-.45-.16-.48,0-1-.27-.16.13.16.18.31.25s-.19,0-.29-.05c-.6-.3-1.74-.5-1.83-.9a1,1,0,0,1-.78-.12c.05-.07.27.09.31,0s-.07-.09,0-.14c-.22-.06-.46-.06-.54.07a11.43,11.43,0,0,0-1.68-.47c.53,0-.35-.24-.46-.13a8.43,8.43,0,0,0-1.79-.4c-.71-.08-1.5-.26-2.24-.42a7.53,7.53,0,0,0-2,0c-.16-.06,0-.11,0-.18s-.17,0-.19-.08c-.27,0-.24.1-.49.08s-.4-.16-.57-.17-.27.15-.5.12-.3,0-.28-.18c-.21.08-.24.26-.69.19,0-.06.2,0,.2-.12s-.41,0-.68,0c0,0-.18-.12-.2-.12a14.09,14.09,0,0,0-1.95.15.43.43,0,0,0-.18.2c-.39-.18-1.06.06-1.55.17l0-.18c-.21.07-.52.09-.56.24-.31,0,.09-.17.07-.25a1.39,1.39,0,0,0-.66.28,3,3,0,0,0-1.31.39c-.15,0-.26,0-.41,0a31.51,31.51,0,0,1-4.34,1.46,3.5,3.5,0,0,0-.57.42,7.61,7.61,0,0,0-1.11.34l-.09-.22c-.29.23-.73.69-1.12.6,0-.2.47-.2.63-.27s.1-.33.45-.45a.53.53,0,0,0-.41,0c.25-.22,0-.41.09-.56.24-.38.78-.43,1.21-.77.18-.05.4-.15.42,0,.14-.07.22-.16.35-.23-.06-.09-.21-.08-.42,0a2.63,2.63,0,0,1,1.15-.36c-.05.21,0,.16.18.26.23-.09.26-.32.55-.24,0-.06,0-.11.07-.14-.08-.18-.76.33-.72,0a5.38,5.38,0,0,1,1.16-.3c.35-.16,0-.2.12-.35-.3.08-.51.31-.77.24a.27.27,0,0,1,.13-.29.47.47,0,0,0-.35-.08c-.32.21.22.1.18.26-.21,0-.16.14-.14.23-.28.13-.37,0-.6.12,0-.09.23-.12.37-.18-.22-.21-.51.2-.64.33a1.42,1.42,0,0,1-.75,0c-.19.1.07.29-.3.38-.18,0-.27-.1-.38-.17-.11.11-.06.24-.2.34-.43.21-.95.42-1.49.64l-.84.34c-.28.13-.54.29-.81.43s0,.21-.19.31a.57.57,0,0,0,.41-.08c-.16.3.26.28.41.39l-.18.09-.17.1c0-.23-.08-.35-.42-.18,0,.2.33-.1.3.17a1.14,1.14,0,0,0-.84.53c.21,0,.33-.19.52-.29a4.27,4.27,0,0,1,.89-.2c-.09.13-.17.45.15.32a4.93,4.93,0,0,0-.63.69c-.21.16-.23,0-.4.07a2.93,2.93,0,0,0-.65.43c-.13.08-.18,0-.28.08-.29.16-.47.35-.72.5-.51.28-1.48,1-2,1.36-.15.09-.5.13-.45.37-.19.19-.22,0-.37.15s-.12.15-.08.22c-.21.24-.22-.08-.41.1s-.32.46-.59.5c-.09.08,0,.14,0,.2a3.26,3.26,0,0,0-1,.72.47.47,0,0,0,0,.26c-.42.34-1,1-1.76,1.75a14.3,14.3,0,0,0-1.06,1.14L12.47,19c-.16.22-.22.43-.39.68a5.74,5.74,0,0,0-1,1.43c.3-.39.32-.19,0,.27.17-.26-1.11,1.62-1.49,2.34-.06.15-.12.12-.18.23s-.13.41-.25.63S9,24.89,9,25s0,.43-.29.83a.69.69,0,0,1-.24.2c-.06.13,0,.35,0,.5s-.13.13-.17.24-.07.51-.17.76-.5,1.18-.59,1.51c0,.11.11.15,0,.31-.1,0-.06-.12-.13-.15-.07.16,0,.21-.09.38s.11,0,.15,0-.11.28-.18.14a1.38,1.38,0,0,1-.11.57c0,.07,0,.54-.06.67s-.17.33-.22.54c-.13.55-.29,1.26-.41,1.76,0,.23,0,.54,0,.77s-.08.15-.11.27a5.79,5.79,0,0,0-.08.76,3.12,3.12,0,0,1-.2.44,3.28,3.28,0,0,0-.16.56c0,.08.07.26.07.3s-.06.15-.08.27,0,.21,0,.39-.1.38-.1.56A3.56,3.56,0,0,1,5.7,39a4.85,4.85,0,0,1,.16,1.33c0,.14-.06.33-.05.48,0,1,.21,2,.26,2.93,0,.18-.14.36,0,.57.07,0,0-.18,0-.29.13.19.25,1.06,0,1,.16,0,.1.22.18.55a1.94,1.94,0,0,1,.27.82c-.12.06-.14-.12-.17-.26,0,.06-.18.25-.2-.07-.17.09.1.19.08.37A.29.29,0,0,0,6,46.47c0,.27.13.23.16.46-.27-.07-.24.34-.08.5.17-.16.11-.56.35-.65.12.13.19.38.34.43,0,.14-.2.18-.24.33s.33.17.22-.14c.27.29,0,.63-.16.71.16.15.23.52.5.38,0,.13,0,.26.12.26-.09.22.07.62-.13.71-.09-.23-.15-.45.07-.41L7,48.59c-.24,0,0,.46-.21.44-.13-.28-.08-.24,0-.48-.19.07-.09.45-.26.55.06.29.33.36.25.63-.27.06-.64-.55-.75-.41-.16-.2-.06-.53-.24-.85.15.14.08,0,.24,0-.07-.45-.44-.1-.49-.6-.06-.24,0-.12.09-.11,0-.22-.14-.12-.17-.27-.17-.42.08-.4,0-.78s-.1.22-.27.14c.09-.08-.1-.46,0-.5-.07-.23-.14.13-.14.22-.17-.22-.06-.7-.26-1-.19.21.14.33.12.58-.13.06-.07.45-.26.24,0,.45.24.35.28.76s-.13.1,0,.49a2.48,2.48,0,0,1,.22.47,3.27,3.27,0,0,0,0,.72c.13.31,0-.28.16-.14a1.59,1.59,0,0,1,.2.75c0,.28.12.52.24.57a1.16,1.16,0,0,0,.09.69c-.36-.08,0-.56-.29-.74-.12.38-.13.88-.22,1.3.29.29.22-.34.19-.58.23,0,.25.74.53.48,0,.16,0,.25,0,.31.2.13.31.6.44,1-.13,0-.14-.41-.29-.32s0,.47,0,.72.26.12.41.07c.06.23.35.63.26.75-.26.12-.1-.43-.35-.51-.15.35.29.51.29.85.11,0,.07-.16.19-.18l.35.82c0,.34-.25-.66-.4-.48s.35.63.48,1c0-.57.29.47.46.77,0,.31-.25-.44-.33-.61-.18.23.23.74.41.9a1.6,1.6,0,0,0,.57,1.16c.05-.18-.31-.61-.42-.9.1-.07.19.3.29.41.17.32.34.71.53.73a5.75,5.75,0,0,0,.71,1.53c.08.08.15,0,.22.1s.11.32,0,.37c.54.45.51,1,.95,1.41,0,.23-.12,0-.25.05.1.12.05.17.12.28s.22,0,.14-.1c.36.09.47.54.78.79.08,0,.15-.08.08-.18.24.11.31.44.62.65-.23-.09-.28.17-.15.37-.19.06-.1-.2-.26-.3-.12.06-.1.17.05.34.32.3.21-.24.46-.11a3.16,3.16,0,0,0,.61.92l-.14.11c.32.39.57.36.9.81-.21,0,0,.21,0,.26s-.23.12,0,.3-.13-.38.17-.43c.31.26,0,.36.36.62.12.08.09-.07,0-.16.27,0,.27.34.46.53s.47.31.66.48.28.41.49.49c0,.09-.13,0-.19.06.21.22.41.13.47.37s-.25-.15-.34-.07c.23.3.3.1.52.32.06-.15-.2-.39,0-.53,0,.07.27.2.3.26s-.18,0-.16,0a2,2,0,0,0,.58.85c.25.13-.15-.29.16-.19l.55.6-.12.13c.12.2.19.13.32.26s.16.4.51.32c-.13-.17-.39-.57.07-.25,0-.21-.59-.49-.82-.73.1-.18.42.19.62.34l.7.56-.19.24c.32.27.51.24.5,0l.5.32c-.08,0-.2,0-.28,0,.41.22.47.43.9.65-.05,0-.12,0-.16,0,.62.48,1,.64,1.58,1.09.17-.13.47,0,.91.23.09-.23-.55-.18-.64-.49a6,6,0,0,1,1,.47c0,.1-.13.06-.24,0,.28.21-.13.19,0,.35.39.26,0-.2.27-.06s.07.33.54.48c.17.08,0-.27.23-.22.14.24.81.28.48.38a6.26,6.26,0,0,1,1.29.55c.25-.21-.34-.28-.56-.45.17-.17.39.17.66.23s.38,0,.6.11c0,.22-.21.13-.44,0,0,.12.18.2.41.29-.11.12-.21.14,0,.31.13,0,0-.28.3-.2.16-.11-.31-.35,0-.32s.09.09,0,.15a5.78,5.78,0,0,1,1.12.44c-.1.28-.44-.27-.54,0,.14.23.26.15.52.33s.08-.18.07-.17c.15-.16.31.18.36-.11.33.17.63.08.84.29.28-.13,1.11.23,1.85.4.41.09.46,0,.75.27.1,0,.09-.1.22-.06,1.23.31,2,.21,3,.56.11,0,.09-.11.21-.09s.2.16.48.13c.08.23-.23.18-.34.26a1,1,0,0,0-.86-.27c0,.18.36.08.57.22,0,0,0,.17.07.2a3,3,0,0,0,.59.14c.15-.18-.32-.07-.17-.26s.78-.14.34-.27c.06-.08.9-.07.78.12a6.45,6.45,0,0,1,2.08.11c.9,0,2-.1,2.76-.14.27,0,.21.12.4.12a1.82,1.82,0,0,1,.5,0c.16,0,.14-.23.48-.17s-.16.13-.28.21-.13.18-.19.2-.57-.16-.5.07.14,0,.3,0,.09.31.41.15c0-.15-.45.08-.31-.15a12.69,12.69,0,0,1,1.5,0c0-.22-.65,0-.81-.1s.2-.21.18-.38a11.12,11.12,0,0,1,2.56-.16,4.14,4.14,0,0,1,1.82-.51c0-.23-.16-.26-.44-.21,0-.15.41-.15.45-.28s-.27,0-.38.08c-.32.08-.67.07-1.06.16-.1,0,0,.13-.18.16a1.1,1.1,0,0,1-.68,0c-.22.06.13.08-.08.19-.68,0-1.39.25-2,.16.25-.23-.55-.09-.6-.29-.26,0,.1.32-.28.27,0,.07.18,0,.29,0,.31,0-.16.1-.28.09a1.84,1.84,0,0,0-.69-.17c-.1.18.22.1.39.12,0,.2-.28,0-.49.06a10.52,10.52,0,0,1-1.56.08c0-.12.15-.11.3-.12-.17-.28-.55,0-.69.13-.78,0-.84-.31-1.53-.31-.1.22.45.12.66.18-.76.23-1.71-.16-2.33-.13-.07,0-.19.1-.21.1s0-.12,0-.12c-.19,0-.43.09-.6.07-.37-.07-.44-.28-.74-.32-.11,0-.1.1-.13.16a11.16,11.16,0,0,1-2.29-.47c-.11,0-.06.07,0,.06a2.66,2.66,0,0,1-1.39-.44,2.52,2.52,0,0,0-.62,0c-.37-.12-.81-.28-1.25-.46s-.85-.46-1.23-.68c0-.31-.25-.49-.13-.7a11.19,11.19,0,0,1-1.85-.75.41.41,0,0,0-.25.08,1,1,0,0,1-.4-.28c-.21-.08,0,.2.09.25.36.26.58,0,.8.33a1.4,1.4,0,0,1-.85-.22.24.24,0,0,0,.12.19c-.1.08-.14,0-.18-.08s-.19-.18-.06-.31c-.11-.06-.23-.1-.34-.17a.8.8,0,0,1-.2-.24c-.16-.07-.25.09-.48-.11.08-.21-.41-.37-.34-.57-.29-.07,0,.26-.23.21s-.38-.27-.17-.28c-.31.07-.53-.48-.67-.18s.48.09.41.25-.4-.13-.55-.2a2.32,2.32,0,0,0-.3,0c-.46-.23-1.13-.66-1.23-.94-.27-.06-.55-.4-.89-.57a3.73,3.73,0,0,0-.56-.21c.22.42.66.39.94.67-.26.07-.6-.15-.83-.34a6.51,6.51,0,0,0-.87-.77c.06-.21.28.05.38,0-.27-.14-.49-.15-.76-.3,0-.26-.29-.29-.6-.63-.13.1.46.29.19.38-.24-.17-.55-.52-.69-.39-.13-.22-.37-.46-.31-.67-.14-.06-.3-.22-.37,0-.23-.13-.17-.43-.32-.23-.26-.25-.12-.41-.21-.62s.11.26-.14.28c-.34-.61-.9-.84-1.27-1.33-.1,0-.18,0-.3-.12.37,0-.08-.24,0-.42-.15,0-.64-.49-.59-.25-.22.05-.08-.2-.14-.27-.22-.17,0,.21-.25.08-.57-.76-1.19-1.33-1.65-1.93-.1-.13-.05-.18-.12-.28s-.38-.29-.54-.58A.59.59,0,0,1,11,60c-.22-.27-.47-.63-.7-.93a3,3,0,0,1-.84-2.31c.23-.08.39-.2.3-.47.1,0,.2.08.28.28,0-.24.51,0,.3-.47.19.27.41.12.59.22s.14.34.24.18a6.21,6.21,0,0,0,.62,1.34c.27.42.54.84.77,1.26.08.13.07.3.16.45s.34.35.47.58,0,.21.16.34.48.27.48.57c.07.07.13,0,.21.07s.35.36.48.57a1.17,1.17,0,0,1,.08.29c.07.07.19.06.27.13s.24.4.37.54.21.1.33.21a2.61,2.61,0,0,1,.62.69c.09.12.15.09.21,0A13.57,13.57,0,0,0,18,65.11c.07.2-.28.07-.07.35s.05-.25.28-.16c.55.46.73.63,1.3,1-.08,0-.17,0-.29-.09.1.38.46.17.48.15.37.23-.2,0,0,.26s.19,0,.25,0l.51.4c0,.19-.05.06-.15.19l.22.18c.18.09-.12-.41.29-.08s-.06.06-.06.24c.22.13.1.18.31.2s.18-.19.29-.24l.54.34a.27.27,0,0,0-.21.15c.14,0,.41.26.44,0,.46.24.62.47.65.71s.51,0,.39.25c.24.09-.06-.32.32,0a.25.25,0,0,0-.09-.21s.82.25.5.43c.25.13.31-.09.58.09l-.09.16c.1-.07.3,0,.42,0,.24.12.24.27.3.42.13-.23.67.18.82.22s-.13-.18-.22-.18c.52.07,1,.58,1.58.72a1.35,1.35,0,0,0,.39.73c.25.15.23-.08.48.06-.17-.3.37-.14.05-.36.15-.08.6.26.54-.11a4.66,4.66,0,0,1,.81.25l.88.26a16,16,0,0,0,1.63.46c-.11.2-.55-.05-.91-.13a3.55,3.55,0,0,0-.9-.19c.14.12.42.21.46.37.35.14.29-.18.6-.08l0,.12a1.77,1.77,0,0,1,.84.42c.1,0,.09-.09.2-.06a3.56,3.56,0,0,0,.63.14c.21.12,0,.13.14.21.36.07,0-.09.23-.14s.55.15.49-.1c.52.22,1.36.25,1.8.39a6.57,6.57,0,0,1-1.46-.21c-.13.07-.29.1-.34.25.24.06.4,0,.4-.11.33.18.62.06,1.1.2-.13,0,0,.08,0,.17.79.09,1.57.06,2.6.14.22.1-.18.17.08.25s-.11-.33.48-.2c.18.16-.15.3-.4.32,0,.23.61.15.48-.13.18,0,.34,0,.19,0h3.14a26.56,26.56,0,0,0,3.08-.39c.11,0,0-.06,0,0,.21,0,.59-.11,1-.24.09.18-.31.15,0,.26s.39,0,.47,0c.25,0-.33.07-.44.21.36,0,.67,0,1.06,0,0-.29.35-.48.63-.68.23,0,.48,0,.51.14a11.36,11.36,0,0,1,1.79-.58.25.25,0,0,1,.15.2c.2,0,.15-.14.13-.23a11.86,11.86,0,0,0,1.44-.44c.77-.33,1.58-.52,2.24-.75.32-.12.57-.37.81-.28.1-.07.09-.16.2-.24a.81.81,0,0,1,.49-.06c.53-.57,1.55-.79,2.55-1.48.26,0-.06.17.07.31.38-.27.11-.53.64-.79,0,.13-.14.27,0,.41.31-.16.17-.42.52-.43,0,.14-.35.28-.3.42.26,0,.3-.45.73-.64.11.12,0,.24-.22.37.27.07.23-.28.45-.38.09.09.36-.22.47-.17.15-.23.28-.64.52-.75,0,.12.06.24,0,.36s-.21.06-.35.18c.13.27.55-.18.68-.38.13.13,0,.29.07.42.08-.15.08-.29.16-.44.24-.24.35-.1.52-.13-.18.16-.44.46-.72.72a1.45,1.45,0,0,1-.87.43c-.16.15.15,0,0,.2-.36.21-.8.62-1.09.66-.08.06,0,.11,0,.16-.48.33-.89.4-1.12.81a3.32,3.32,0,0,0-1.45.85c-.19-.07-.55.15-.86.26.09.22.44,0,.66,0,0,.28-.19.08-.44.24s.06.21,0,.31a1.53,1.53,0,0,0,.82-.79c.56-.27,1-.51,1.38-.73s.71-.47,1.12-.68c-.17.19,0,.38-.23.58.11.09.44-.3.56-.23,0-.13-.11-.15-.26,0-.08-.18.36-.37.6-.55.06.07.08.21.21.14.34-.16-.12-.27.32-.43,0,.26-.07.22.25.19.12-.13,0-.15-.15,0,0-.08.24-.19.18-.27.26,0,.49-.13.46.13.36-.21.22-.39.65-.65s.39,0,.69-.26.36-.5.09-.54q.65-.54.42-.75c.19-.22.25-.1.42-.27.12.06,0,.18-.15.28.12.13.32,0,.5,0,.24-.33.18-.27.54-.46.23.07-.21.26,0,.32s.19-.2.07-.23a5.89,5.89,0,0,1,.6-.69.26.26,0,0,0-.28-.15c0,.15-.26.35-.45.55-.14-.26-.52.21-.69,0,.87-.74,2.17-2.27,3-2.93.19.19-.1.22-.22.34-.6.59-1.47,1.53-2.09,2.13.27-.11.61-.49.83-.42.28-.21-.08-.27.23-.49.13-.18.18,0,.29-.13s.11-.27.13-.3.13,0,.18-.1.08-.16.1-.18c.31-.32.67-.48.87-1,.09-.15.15-.12.21-.08.16-.26-.15,0-.18-.15.15-.21.25-.11.39-.2s-.14-.17-.17-.27c.46-.64.85-1.26,1.27-1.79.07-.08.18,0,.22-.08s.19-.39.28-.53.31-.4.27-.54.17-.21.26-.18c.1-.52.94-1.34,1.16-2.09.21,0,0,.3.07.39a3.09,3.09,0,0,0-.54.84c-.08.18.15.19-.06.44.34-.16.22-.57.38-.83.18,0,.37-.56.53-.38,0-.2-.27,0-.22-.36s.19-.19.28-.42c-.11-.18-.2.15-.29.3a2.26,2.26,0,0,1,.3-1,5.68,5.68,0,0,1,.36-.7.73.73,0,0,1,.24-.21c0-.11,0-.17,0-.23.07-.22.3-.29.22-.56s.13-.15.2-.12c.13-.27,0-.35.11-.61.09.07.06.22,0,.42.14,0,.24-.22.37-.27.06-.22.13-.45-.08-.47.07,0,.36-.49.13-.48s-.06.38-.25.64c-.06-.11,0-.33.07-.51-.19,0-.3.45-.49.43a.84.84,0,0,1-.41.68c-.09-.1.37-.29.14-.48-.08,0-.13.16-.08.18-.24.23-.18-.57-.44.12-.21-.15.41-.67.16-.88a7,7,0,0,0-.57.89c-.08.27.19,0,.27.13-.15.2-.33.11-.5.18s-.07.41-.26.51c-.13-.45.44-.89.54-1.53.07.08-.06.3.15.28.18-.32-.18-.26,0-.61,0,0-.1,0-.14,0,0-.34.07-.73-.17-.89.06-.3.19-.23.28-.39.2-.37.13-.55.29-.89.13,0,.15.14.07.32.38-.15.33-.94.69-.85,0-.41-.33-.09-.45,0-.13,0,.06-.32.07-.47.1.33.28-.05.45-.05,0-.48-.19-.75,0-1.37,0-.26.17-.14.25-.23s0-.1,0-.19-.23.22-.21-.16c0-.2.13-.15.23-.13a4.63,4.63,0,0,1,0-1c.06-.24.23-.22.23-.62-.07,0-.08.16-.11.26-.13-.31.26-1.29.22-1.86.09-.18.32,0,.36-.33,0-.14-.08,0-.18,0a7.26,7.26,0,0,0,.07-1.51c.18,0,.3-.09.28-.44-.07,0-.08.21-.19.17s.12-.14.13-.18c.06-.2-.13-.44.06-.66.18.33,0,.63,0,1.14,0,.23.19.2.14.5-.2-.32-.1.68-.24.82l.13.31c-.09.23-.29.2-.42.32.12.31-.2.3-.2.73.33.19.35-.53.59-.18-.15.22-.3.43-.56.37-.12.39.08.46.2.24.09.08,0,.22-.09.17a1.51,1.51,0,0,1-.23.63c-.06.17.24.19.19-.06.16.17-.18.39,0,.57s.11-.06.19-.05c0-.17.13-.59-.08-.6,0-.38.23-.24.24-.63.14,0,0,.2.14.23s0-.18,0-.21.15-.12.16-.25-.08-.28,0-.5-.13-.1-.22-.13c.05-.38.24-.41.36-.62s-.11-.29-.19-.41c.1-.21.27-.27.4-.43-.23-.22-.18-.79-.2-1.27.21.11.11-.37.17-.56s-.31-.21-.19-.68a.76.76,0,0,1,.1.29c.14,0,.07-.42,0-.48s-.13.11-.19.19c-.2.25-.1.44-.26.26l-.07.85c-.19-.18,0-.59,0-1s0-.92,0-1.5c.19.07.22-.09.36-.09.08-.5,0-.72,0-1.14.13,0,.21.16.24.38.19-.28-.21-.42-.24-.67s.22-.24.16-.58c0-.17-.24,0-.17.3-.29-.18.07-.34.08-.58s-.22-.1-.4-.26c0-.37.27.1.27-.3-.15,0-.11-.48-.34-.36.07-.29-.15-.8.06-.57-.07-.25,0-.76-.15-.84,0-.18.1,0,.18,0,0-.31-.21-.11-.27-.25.21-.19-.14-.24-.14-.74.14,0,.23.16.36.23a19.81,19.81,0,0,0,.33,2.11,9.28,9.28,0,0,1,.33,2c0,.13.1,0,.11-.1a6.54,6.54,0,0,1,.14,1c0,.08-.12.17-.12.29s.06.23.06.2c0,.15-.17-.13-.11.38-.38-.17-.1-.67-.19-1a4.16,4.16,0,0,0-.34,1.7.25.25,0,0,0-.18-.1c.06.38.29.23.48.12.06-.42-.21-.32-.19-.67.27.05.56.43.6-.18,0,.39.11.86.11,1.35a4.69,4.69,0,0,1-.18,1.45,4.24,4.24,0,0,1,0,1.56c0,.19.22.11.11.41a.69.69,0,0,1-.46.22c0,.46,0,.36-.12,1,.12.07.17,0,.26-.05-.1-.17,0-.55-.12-.7.48-.52.45.47.26.93a.63.63,0,0,0-.1-.12c0,.05-.1.57,0,.51-.06.27-.13.71-.19,1.18s-.21,1-.29,1.41c-.1.59-.37,1.18-.47,1.69a6.5,6.5,0,0,1-.13.9,1.79,1.79,0,0,0-.19,1c.21,0,.33-.48.55-.42,0-.46.36-1.12.62-1.16a1,1,0,0,1-.13-.88c-.14-.13-.18.08-.31,0,.09-.6.4-.2.51,0,.06-.08.13-.49.27-.75s-.25.08-.26-.18c-.11,0,.07.51-.19.66,0-.12,0-.29-.14-.35a15.21,15.21,0,0,0,.63-2.58c.17-.29-.12.6.09.52s.18-.3.22-.55-.21-.13-.1-.43c.13.27.25-.08.23-.26s-.27,0,0-.21a.59.59,0,0,0,.24-.66c-.13.08-.17.42-.36.34,0-.31.2-.23.26-.46s0-.11,0-.2c-.15-.1-.15.18-.23.26s0-.29,0-.3c0-.23-.06-.25,0-.41,0-.43.12-1,.15-1.56.14.26,0,.38,0,.79.15,0,.15-.32.17-.58.17,0,.24-.2.33-.36-.08-.33-.18.24-.37.06,0-.57.39-.36.54-.64a3.38,3.38,0,0,1,.19-.89c0-.19-.2-.08-.22-.22,0-.51.27-.4.17-1,.28.07.25-.37.54-.29a1,1,0,0,0,.19.93c.08,0,0-.26,0-.41a.26.26,0,0,0,.25.11q0,.34-.18.3c0,.15.24.26.06.31s-.12.09-.12-.21c-.1.19-.31.09-.36-.12-.17.14.11.36,0,.61-.14,0-.24.15-.43.08,0,.3.29.11.27.42.15,0,.08-.39.26-.29,0,.15,0,.53-.1.51a.81.81,0,0,1,.13.62c-.18-.19-.36-.16-.33.37-.16.26-.14-.28-.3,0a.56.56,0,0,1,.08.52c-.1-.05-.12.06-.14.18-.13-.08-.34-.24-.47-.06,0,.18.23.16.14.52-.25.09-.1-.34-.35-.25-.1.38.15.28.21.43s-.27,0-.24.36c0,.07.21.07.24.34.15-.06-.12-.26,0-.59.14.17.14-.21.2-.27s.14,0,.18,0,.08-.24.2-.17a.94.94,0,0,1,0,.51c-.07,0-.07-.19-.16-.23,0,.25,0,.42,0,.52.3,0,.32-.48.28-.88.19-.08.09.24.09.42.17-.16.31-.25.42.06.06,0,0-.2.13-.19,0-.25-.19-.37,0-.62.25.11.11,1,0,1.56a4.47,4.47,0,0,1-.11.93s0-.33,0-.42c-.19.3,0,.36,0,.63a.59.59,0,0,1-.18.28c0,.18.1.34.09.54s-.1.22-.13.4c0,.34,0,.81-.23,1-.27-.16-.26-.57-.07-1.08-.21,0-.22.42-.34.76s.06.13.21.16c-.08.19-.08.31,0,.33,0,.18-.2.48,0,.43s0-.4.2-.49a9.45,9.45,0,0,1-.39,1.62c0,.13,0,.28,0,.44a9.11,9.11,0,0,1-.43,1.5,20.09,20.09,0,0,1-.79,2s-.1-.06-.11,0,0,.31-.1.42c-.29-.38,0,.26-.29.66,0,.11.06.13.11.17-.2.38-.4.93-.62,1-.18.28,0,.3-.18.62-.22,0-.23-.19,0-.49-.16-.09-.3.19-.45.47.13.15.24,0,.37.08a33.43,33.43,0,0,1-9.17,11.49,15.39,15.39,0,0,1-1.8,1.42c-.14.09-.11.15-.22.22-.31.19-.9.54-1.42.89-.28.19-.51.45-.83.64s-1.77.89-2.47,1.34c-.2.14-.42.32-.67.48a2.22,2.22,0,0,1-.92.29,3,3,0,0,1-1.25.53c.09,0,.25,0,.26.08-.76.2-1.22.61-2.14.83,0-.09.14-.14.14-.23-.42.06-.19.27-.42.38s-.14-.23-.09-.29c-.27.12-.38.27-.65.39a3.13,3.13,0,0,0-.89.28c-.18.06-.36,0-.51.1a3.34,3.34,0,0,1-1.19.41,1.2,1.2,0,0,1-.33-.06c-.18,0-.23.26-.51.11-.34.11-1.13.45-1.6.58a.93.93,0,0,1-.42,0c-.18,0-.21.1-.41.11s-.22-.08-.32-.08-.18.08-.31.09a15.48,15.48,0,0,0-1.56.11c-.18,0-.29.14-.51.18a.87.87,0,0,0-.31-.09,2.34,2.34,0,0,1-.94.07c-.22,0-.49.12-.73.13s-.22-.06-.42,0a17.36,17.36,0,0,1-2.41.06c-.17,0-.17-.08-.31-.09-.71,0-1.34,0-1.78,0-.22,0-.15-.09-.3-.15a11.24,11.24,0,0,1-1.67-.15c-.06-.07-.23-.1-.17-.21-.12,0-.11.09-.14.15-.66-.15-1.21.07-1.65-.29-.37,0-.37-.09-.82-.16-.1-.1-.26-.18-.13-.34-.45-.12-.16.09-.36.14-.48-.07-.45-.28-.87-.37-.19,0-.13.18-.28.18-.47-.25-1.23-.27-1.9-.61-.2-.1-.4-.28-.64-.38-.59-.25-1.77-.45-2-.85a.41.41,0,0,0-.27.07c-.55-.46-1.05-.37-1.68-.86-.27.15-.42-.08-.84-.23-.06,0,.07.24.1.26s.22,0,.34,0,.14.15.25.19.31,0,.44.09a5.24,5.24,0,0,1,.53.34,6.45,6.45,0,0,1,.95.48,1.4,1.4,0,0,1,.24.22c.1,0,.46.1.71.22s.38.13.79.31.83.34,1.38.53c0,.1-.13.06-.16.13.3.13.67.2.54.39.13,0,.12-.08.16-.15s-.35-.12-.48-.22a3,3,0,0,1,1.54.4c.24.15.39-.14.43.06s-.08.09-.26.11,0,.13-.24.06-.08-.09-.19-.12.21,0,.33,0c-.28-.24-.69-.15-1-.34-.27.27.79.23.5.51.6.08.85-.15,1.51.18.2-.21-.47-.21-.33-.41a2.92,2.92,0,0,1,1.09.43c-.19,0-.78-.12-.49.18.21,0,.15-.2.46-.06-.18.32.63.4.82.25-.07-.13-.3-.18-.6-.25.15-.19.54.06.85.11-.3.18.14.26.34.43.16-.21-.33-.28,0-.38.28.09.21.3.58.35s-.15-.12-.19-.15a15.54,15.54,0,0,1,1.83.22c.67.12,1.4.12,2.09.19.12,0,.56.2.74,0a9.2,9.2,0,0,0,1.15.17,10.53,10.53,0,0,0,1.07,0c-.16.21-.72.14-1.17.12a13.38,13.38,0,0,0-1.71-.07c0,.21.28.17.07.37.4,0,.57.15.75.06a3.42,3.42,0,0,0-.52-.17c.27-.28.64.1,1.07.09,0-.14-.49,0-.31-.21a14.43,14.43,0,0,0,2,.07l2.21,0c1.49-.13,3-.29,4.31-.51.17,0,.36,0,.53,0a6.14,6.14,0,0,1,.62-.19c.36-.06.84.11,1.07-.16.06.12.43,0,.56.06s.08-.14,0-.12A27.54,27.54,0,0,1,52,76.53c.46-.13.9-.24,1.32-.39a7,7,0,0,0,1.09-.56c.16,0,0,.06,0,.11a6.08,6.08,0,0,1,1.15-.61c0,.15-.36.24-.31.39.32-.13.67-.52,1-.47.1.24-.44.11-.42.37-.31.16-.4,0-.72.24-.08,0-.08.1-.18.14s.11.2.29.14a.54.54,0,0,0-.25.56c.25.15.59-.26.85-.23s-.3.19-.38.23,0,.13-.06.15c-.28.17-.67.3-1.1.53a.26.26,0,0,1-.07-.49c0-.16-.45-.08-.44,0-.35,0,.14-.26.1-.36-.22.08-.3.18-.24.29-.31.16-.29-.09-.66.1.11-.27.69-.15.76-.47.34-.14.85-.07,1.12-.4,0-.29-.79.33-.48-.06-.36.31-.69.3-.94.59-.2.05-.45.12-.46,0a6.34,6.34,0,0,1-2.06.64,2.47,2.47,0,0,1-1.21.49,3.24,3.24,0,0,1-.91.38c0-.1.1-.15.06-.26-.27.05-.23.19-.39.27a3.75,3.75,0,0,0-1.05.28.69.69,0,0,0,.45,0c-.19.14-.68.19-.83.35a5.7,5.7,0,0,1-1.1,0c-.16.05,0,.07,0,.18-.46.07-.6-.09-1.09,0-.11,0-.1.15-.32.16,0,.1.1.1.23.09a1.16,1.16,0,0,1-.87,0c-.24.06.14.08-.1.19s-.18-.38-.77-.22c.07.06.25,0,.22.16-.37-.07-.39.19-.65.13,0,0,.11-.17,0-.18s-.29.15-.11.13c.06.17-.59,0-.54.13s1-.11.89.2c.14,0,.08-.16.09-.25Zm11.29-2.33c-.09-.17-.2-.3-.54-.17l.13.34Zm-.38-.69-.3.13c.16.13.25.35.73.08C54.89,76.05,54.32,76.51,54.39,76.17Zm-7.94,2.12c.31-.05.14.32.67.1.09-.21-.19-.11-.25-.19S46.36,78.2,46.45,78.29ZM75.74,42.5c-.07-.24,0-.66-.25-.63-.08.32.14.22.15.42-.15,0-.29,0-.32.17ZM75,47.18l-.06.29c.2,0,.2.16.34.19C75.34,47.29,75.1,47.31,75,47.18Zm.56-.08c.14.25.26.16.32.6C75.91,47.33,75.75,46.66,75.54,47.1Zm0-1.87c.18,0,.26.49.37,0-.24.07-.15-.24-.24-.35C75.68,45,75.59,45.05,75.57,45.23Zm-.37,0c-.08,0-.07-.18-.14-.22a.84.84,0,0,0-.13.38C75.06,45.48,75.15,45.44,75.2,45.27Zm.56.62c.07,0,.08.16.21.14a1,1,0,0,1,.14-.39C75.94,45.59,75.79,45.57,75.76,45.89Zm-1.1,1.73c.2-.27,0-.64.19-1.09.09,0,.13-.14.21-.16s0,.19.08.22c.1-.23.3-.16.35-.55,0-.2-.08-.28-.11-.43-.3,0-.54.14-.65.59.1.09.1-.11.15-.17s.31-.25.31,0-.21.4-.42.32A4.5,4.5,0,0,0,74.66,47.62Zm-1.15-.08a.84.84,0,0,0,0-.6c0,.37-.06.28-.16.56Zm-1.23,1.75c.07-.06.36-.67.12-.66S72.13,49.28,72.28,49.29Zm.37,1.12c.09-.48.46-.73.4-1.19-.28-.19-.36.34-.27.52C72.7,50.12,72.52,50.18,72.65,50.41Zm-.45,1.27c.29-.23.11-.74.37-1C72.24,50.75,72.22,51.37,72.2,51.68Zm-.75.12c.15-.4.6-.76.45-1.15C71.8,51.14,71.4,51.46,71.45,51.8Zm3.63-2.71s.06,0,0,.11c.14.07.23-.08.28-.35C75.25,48.78,75.14,48.82,75.08,49.09ZM74,48.89c.21.12.22-.51.33-.73.15.2.24,0,.34-.33C74.34,47.65,74.05,48.58,74,48.89Zm.41.11c0-.32.17-.27.28-.34a.55.55,0,0,0,0-.41c-.13.37-.22.39-.28.13C74.33,48.62,74.35,49.13,74.42,49Zm.83.35c-.14.26-.4.07-.48.6.1.15.17-.14.29-.12s0,.25.11.25.16,0,.23-.37C75.05,49.72,75.33,49.53,75.25,49.35Zm-1,2.15c-.36,0,.32-.78-.14-.58a1,1,0,0,0,.05-.62,5.28,5.28,0,0,0,.59-1l-.23-.06c-.1.44-.22.67-.37.41-.12.52-.11.91-.21,1.41C74.27,51.05,73.84,52,74.27,51.5Zm.37,1.35a4.66,4.66,0,0,0,.15-1.05,4.41,4.41,0,0,0,.53-1.35.24.24,0,0,0-.31,0c0,.2-.16.58-.09.73.17-.22,0-.37.2-.48a.88.88,0,0,1-.34.76c.06-.55-.18-.24-.2-.61,0-.19.13-.2.17-.38-.16-.07-.22.25-.37.2s.05-.5-.06-.23.23.41.07.88c.32-.18.24.24.18.39.08-.18.2.14.15.27-.27-.14-.39.63-.64.64l.28.11c.1-.25.19-.58.34-.53C74.61,52.48,74.34,52.89,74.64,52.85Zm-1.19.08c0,.28-.17.21-.24.44C73.4,53.65,73.61,53,73.45,52.93Zm.33.8c.19-.4-.1-.19,0-.36s.25-.55.11-.61c-.19.34-.14.64-.29.76C73.73,53.5,73.64,53.71,73.78,53.73Zm0,.7c0-.18.35-.42.23-.58,0,.07-.09.09-.15,0C73.81,54.13,73.72,54.36,73.83,54.43Zm-.38.62c-.08.33-.21,0-.29.31,0,.16.13.16-.08.42.11.2.19-.27.31-.07-.13.28-.45.34-.29.55.13-.28.27-.22.39-.5a9.48,9.48,0,0,1,.21-1.17s-.16-.05-.12-.17c.11-.5-.16.24-.06.32s-.34.18-.22.35C73.36,55,73.5,54.91,73.45,55.05Zm-.93.91a1.55,1.55,0,0,0,.33-.52c-.12-.2-.19.27-.31.07.1-.29.23-.3.33-.51s-.07,0-.21-.11c-.08.3-.37.72-.26.89C72.63,55.36,72.47,55.9,72.52,56Zm.13.53c-.16,0-.58-.08-.55.28.1-.15.2-.15.3-.06-.07.17-.28.43-.08.42a3.29,3.29,0,0,1,.43-.7c.07-.12.35-.67.13-.4Zm-.55-.64c-.1.1-.58.79-.37.6C71.83,56.49,72.17,56,72.1,55.85Zm-.58.61c.21-.26-.13-.16.08-.42s.17,0,.24-.21l-.21-.11c-.13.36-.28.39-.42.68C71.36,56.54,71.51,56.17,71.52,56.46Zm.16,1c.11.21.59-.67.38-.48C71.94,57.38,71.79,57.07,71.68,57.47Zm-.65.09c.17-.23.35-.27.52-.63C71.39,56.78,71,57.29,71,57.56Zm-.43,1c.16-.19.64-.55.49-.76C70.92,58,70.45,58.46,70.6,58.59Zm.28.67c.12-.23.49-.26.44-.46C71.16,58.86,70.74,59,70.88,59.26Zm.45.29a4.72,4.72,0,0,0,.73-1c-.15-.21-.33.48-.48.31.07-.12-.08-.17-.16,0s.33.06.2.25A.37.37,0,0,0,71.33,59.55Zm-2.24,3.1c-.16.2-.27.18-.44.45C68.71,63.34,69.15,62.71,69.09,62.65Zm1-3.53c0,.07-.11.16-.06.2.26-.31,0-.36,0-.5l-.22.33C69.91,59.3,70,59.05,70.12,59.12Zm.78.89c.11.1.24,0,.37-.13,0-.07,0-.19-.15-.22Zm-1.71.54c.35-.4.27-.59.45-.91.13.09,0,.32,0,.47.29-.17.19-.52.18-.72-.35.39-.42.75-.79.9C69.19,60.32,69.06,60.5,69.19,60.55Zm.9.27c-.52.92.36-.25.17-.38C70.16,60.61,70.18,60.67,70.09,60.82Zm-.84,1,.24.18c.06.06-.44.61-.16.4a4.63,4.63,0,0,1,.69-.78c-.13-.3-.41.37-.54.11.13-.15.08-.22.2-.36.24.26,1-.5.78-.84-.24.35-.47.65-.55.75-.35,0,0-.38-.13-.47C69.54,61.26,69.64,61.45,69.25,61.87Zm-1.6.66c.14-.25.22-.09.35-.24s-.2,0-.08-.19c.1,0,.07-.11.19-.24.18.07,0,.27.23.19s.25-.28.2-.35-.1.06,0,0c.25-.45.41-.22.63-.41-.21-.12-.16-.34-.42-.44-.2.37-.31.38-.6.67,0,.05.09.11,0,.23s-.33.1-.53.47C67.61,62.28,67.45,62.47,67.65,62.53Zm.34.15c.35-.21.28,0,.36-.36.11.23.29-.09.41.07.17-.13.09-.43,0-.27s-.06.18-.13.16l-.09-.08c.1-.19.47-.48.39-.59-.21.07-.32.35-.44.55-.34.07-.46.4-.77.68C67.79,63,67.87,62.75,68,62.68Zm-.33,1.19c.13-.12.28-.31.41-.32l-.45.56a.28.28,0,0,0,.15.29c.45-.44.26-.63.58-1,0-.13-.2.07-.27,0s.07-.21,0-.24-.16.12-.17.12,0-.25-.16,0C68.15,63.35,67.57,63.73,67.66,63.87Zm-1,.36c.22-.06.5-.45.72-.72C67.1,63.34,66.81,64,66.69,64.23Zm0,.43-.15.1c-.1.06-.14,0-.3.13s-.29.26-.2.38c.15-.11.37-.48.47-.4-.37.31-.09.31-.15.42a1.35,1.35,0,0,0-.48.4c.23.14.66-.49,1-.64,0,0,0,.11,0,.16a1.06,1.06,0,0,0,.36-.37c-.06-.27-.33.32-.39,0l.36-.36c-.11-.25-.34.31-.49.24s0-.08,0-.11S66.7,64.61,66.66,64.66Zm-1.27,1c.42-.35.1-.25.2-.38.26-.33.72-.53.89-.82-.11.1-.17,0-.24-.1-.2.46-.54.61-1,1.12ZM63.31,67.4c0,.07.12.07.19.08a.44.44,0,0,0,.19-.4A.58.58,0,0,0,63.31,67.4Zm-.53,1.14c.12-.14.51-.33.44-.44S62.69,68.41,62.78,68.54Zm-1.56,1.7c.23,0,.11-.08.34-.23C61.5,69.77,61,70.09,61.22,70.24Zm-.42-.44c.22-.09.75-.22.88-.52C61.45,69.39,60.87,69.62,60.8,69.8Zm-2,.41c.14-.06.17.12.39-.12l-.09-.15C59,70,58.78,70.13,58.8,70.21Zm-.56.63c.36-.06.68-.35.48-.57-.06,0-.39.09-.34.22.06,0,.11,0,.12,0C58.2,70.6,58.27,70.72,58.24,70.84Zm-1.34.45c.09.27.35-.18.52-.28s.69-.19.67-.43A5.84,5.84,0,0,0,56.9,71.29Zm-.41,1c.15,0,.58-.19.5-.34C56.85,72,56.44,72.14,56.49,72.26Zm4-4c.26-.19.42-.06.71-.36C61,67.64,60.63,68,60.45,68.23Zm-.92.55c.23-.25.55-.09.6-.33-.37.16-.27,0-.14-.2C59.76,68.43,59.52,68.61,59.53,68.78ZM58.28,69c.15.07.22.31.51.09C58.7,68.85,58.47,68.94,58.28,69Zm-.08.42c.47-.23-.12.51.42.15A.23.23,0,0,0,58.2,69.39ZM56,70.88c-.11,0-.14,0-.17-.12a.83.83,0,0,0-.31.24C55.55,71.17,56,71,56,70.88Zm-1-.34c.05.07.06.22.19.17-.08-.09.24-.12.27-.08s-.19.16-.09.25c.39-.19.84-.58,1.25-.74.22-.09.41,0,.62-.06-.26.15-.66.57-.46.59.09-.27.67-.58.69-.78,0,0-.29.11-.23,0s.26-.34.42-.23c-.09.07-.24.12-.22.19s.38-.12.51-.07c-.05.13,0,.18.18.11-.15-.12.24-.26,0-.37-.2.14-.2.26-.36.15,0-.2,0-.4,0-.62a2.14,2.14,0,0,1-.32.2c0,.19.42,0,.2.16s-.37.21-.37.13.22-.16.14-.14a3,3,0,0,0-.76.41c-.17.09-.54.11-.47.32.4-.22.6-.1,1-.24-.16.3-.56.15-.77.2s-.55.47-.75.41.58-.23.34-.39C55.61,70.4,55.43,70.34,55,70.54Zm-1.13,2a.49.49,0,0,0,.75,0,.26.26,0,0,1-.23,0A1.86,1.86,0,0,1,55,72.2c0,.21.2.07.28.14.34-.09.31-.26.6-.37-.14-.14-.11-.07-.13-.27A17.85,17.85,0,0,1,53.88,72.55Zm-2.51,1.22a3.19,3.19,0,0,0,.84-.33c.07.13-.26.15-.23.26s.19,0,.21,0l.19-.06c0-.1-.11-.2,0-.27.21.19.48-.2.73-.31l.07.17c.3-.34,1-.21,1-.48-.36.21-.72.15-.56-.09a1.57,1.57,0,0,0-.76.52C52.39,73.46,51.42,73.32,51.37,73.77ZM49,72.7c.24-.17.35,0,.42-.26-.23,0-.17.06-.46.08ZM48.67,74c.13.06.35,0,.58-.1C49.33,73.63,48.65,73.89,48.67,74Zm0,.55c.64-.16,0,.22.27.25a5.07,5.07,0,0,0,1-.38c.22-.15-.21-.12,0-.26a1.88,1.88,0,0,0,.84,0,.47.47,0,0,0,.18-.43c-.34.1-.76.22-.34.23-.34.07-.55,0-.9.09C49.65,74.39,49,74.3,48.69,74.51Zm0,.31c-.12,0-.07,0,0-.11-.27.05-.26-.15-.53-.08S48.48,75,48.66,74.82ZM11.87,58.28c-.07-.08-.14-.22-.21-.2.16.3-.4,0-.1.28C11.67,58.42,11.67,58.33,11.87,58.28ZM13.47,63c-.26-.34-.35-.57-.67-.71A2.73,2.73,0,0,0,13.47,63Zm4.23,2.15c-.23-.16-.2-.28-.36-.43C17.21,64.8,17.56,65.24,17.7,65.11Zm1.11.86c-.29,0-.35-.42-.63-.42C18.22,65.64,18.71,66.18,18.81,66Zm7.52,4.75c-.12,0-.18.16-.3.18a2.11,2.11,0,0,0,.34.16C26.45,70.93,26.51,70.81,26.33,70.72ZM30,73.39c-.36-.07-.1-.31-.59-.35-.11.17.27.24,0,.31C29.62,73.44,29.84,73.47,30,73.39Zm1.89-1c-.3,0-.19-.15-.32-.22-.07.16.11.25.18.37s-.26,0-.24.18C32,72.88,31.71,72.61,31.84,72.37ZM37,73.43a.78.78,0,0,0-.57.07C36.8,73.49,37,73.71,37,73.43Zm2.38,1.35h-.49C38.81,75,39.48,75,39.4,74.78Zm.78-.91c-.25,0-.55,0-.56.13C39.81,74,40.27,74.08,40.18,73.87ZM41.7,74c-.32,0-.79.14-.57.25C41.17,74.2,41.88,74.38,41.7,74Zm2.25.7c-.08-.17-.32-.22-.69-.17C43.12,74.9,43.61,74.76,44,74.73Zm1.66-1.42c-.3-.09-.61.1-1,0,0,.17.16.06.3.09S45.55,73.58,45.61,73.31Zm1.81,1.4a1.5,1.5,0,0,0-.81.54c.26-.08.72,0,.88-.18C47.26,75.09,47.35,74.77,47.42,74.71ZM45,75.4c0,.23.55,0,.8,0s.18-.12.39-.14c0,.17.07.21.32.12,0-.2-.29-.06-.25-.26.39,0,.41-.18.56-.3A5.54,5.54,0,0,1,45,75.4Zm-5.26.27c.08,0,.12,0,.1.12a1.06,1.06,0,0,1,.5,0C40.45,75.6,39.7,75.64,39.76,75.67Zm-1.89.06c.22,0,.37,0,.4-.09a.93.93,0,0,0-.39-.09Zm-.69-.12c.1.18.13.4.57.41.12-.21-.12-.13-.18-.26s.15-.07,0-.12Zm-6.63-.8a.84.84,0,0,0,.61,0c-.29-.07-.26-.22-.55-.28ZM6.09,49c.11-.07.18.17.34.41,0-.18.12-.15,0-.4C6.37,49,6,48.62,6.09,49Zm-.56-2.08q0,.12-.09.12c0,.33.18.29.27.44C5.64,47.33,5.67,46.92,5.53,46.93Zm21-39.71c-.21.13-.47-.09-.57.17C26.1,7.39,26.49,7.44,26.55,7.22Zm1.53-.1c-.16.06-.23,0-.24-.11-.31.06-.3.2-.64.26,0,.11.54.11.64.05s-.06-.13.06-.14S28.21,7.29,28.08,7.12Zm1.51-.84c0-.16-.56-.08-.6.06A3.38,3.38,0,0,0,29.59,6.28ZM57.91,9.62c.3.24.48,0,.13-.21ZM55.5,8.41c-.09.16.19.29.45.43C56.1,8.68,55.77,8.55,55.5,8.41Zm1-4.62c.09.16-.21.32.14.47a.29.29,0,0,0,.24-.21C56.65,4,56.66,3.87,56.47,3.79ZM53.83,2.54c-.08.1.09.16.14.25-.13.11-.33.2.09.35,0-.07,0-.14,0-.2.22.1.35.08.38,0C54,2.8,54,2.66,53.83,2.54ZM51.44,7.6c.27.05.81.44.86.21s-.19.07-.38-.09c0-.07,0-.14-.14-.18C51.84,7.79,51.46,7.45,51.44,7.6Zm1.27-5c.26.08.7.13.63-.08-.4-.13-.74.12-1.11-.23C52.08,2.43,52.52,2.56,52.71,2.62Zm-1.36-.15c.2-.08.58,0,.65-.19C51.53,2.07,50.92,2.24,51.35,2.47ZM44.11,5.72c-.22,0-.14-.25-.45-.25C43.58,5.62,44,5.82,44.11,5.72ZM36.73,3.86V3.62l-.31,0C36.39,3.81,36.47,3.9,36.73,3.86ZM24.41,7.27c.29-.1.89-.43.71-.42S24.2,7.27,24.41,7.27ZM23,7.44c.24-.08.29.09.63-.11C23.59,7.2,23.11,7.22,23,7.44ZM22.6,8.63c-.09-.23-.54.25-.62.34C22.19,8.89,22.48,8.83,22.6,8.63ZM19.08,10c.2-.19.23,0,.35,0a1.75,1.75,0,0,0,.7-.62c.06.06.22-.06.31-.06a5,5,0,0,1,1.67-1c-.13,0,.5-.31.13-.2-.18.08-.17.16-.33.24-.1-.11-.45,0-.66.09s-.2.17-.42.29-.58.17-.77.31-.08.14-.23.22S18.94,9.82,19.08,10ZM10.3,18.66c.16-.18.42-.27.58-.45s.12-.31.22-.47.1,0,.11,0,0-.11,0-.12c.31-.42.46-.67.39-.88A11.23,11.23,0,0,0,10.76,18C10.59,18.22,10.16,18.41,10.3,18.66ZM6.53,32c.08-.22.22-.35.15-.56S6.38,32.05,6.53,32Zm.06-1.79c-.21.31.16.45.24.28C6.63,30.54,6.85,30.18,6.59,30.25Zm-.41.37c.08-.21.25-.11.3-.41C6.47,29.67,5.94,30.36,6.18,30.62ZM10.36,19c-.12-.12-.29.07-.41-.06,0-.07.12-.15.08-.19C9.7,19.15,10,19.45,10.36,19ZM4.83,22.51a1.35,1.35,0,0,0,.35-.81C5,22.1,4.75,22.23,4.83,22.51ZM3.66,25.22c0-.43.2-.34.4-.65-.13-.08-.08-.27-.27-.13C3.78,24.64,3.45,25.16,3.66,25.22Zm-1.81,6c.11-.11.23-.49.09-.54C1.82,30.74,1.7,31.12,1.85,31.17Zm3.2.35c.21-.31.1-.44.16-.79.2.16.16-.34.17-.36.07-.2.23-.2.3-.43-.27,0,0-.56-.12-.67.07-.17.12-.49.25-.34-.09.3-.27.34-.11.49A1.24,1.24,0,0,0,5.93,29c0-.18-.1-.93.21-.88,0,0,0,.12.06,0-.12-.18.45-.44.19-.67-.09,0-.14.35-.25.32.16-.45.45-.72.34-1.05,0-.07.22-.08.24-.11S6.93,26,7,26s.1.06.11.05c.1-.16.07-.41.21-.56.08,0,.15.09.21,0s-.18-.07-.31,0c.13-.4-.17-.2,0-.67.1-.18.21,0,.29-.3-.06-.11,0-.3.08-.42a5.91,5.91,0,0,1,1-1.77.4.4,0,0,1,.07-.43c.53-.95.78-1.4,1.38-2.37-.31-.32-.51.57-.71.87-.34.52-.73,1-1,1.39.09.05.08.15,0,.27a5.36,5.36,0,0,0-.92,1.93c-.15,0,0-.35-.21,0,0,.16-.06.41,0,.57a16,16,0,0,1-.86,1.61,1.89,1.89,0,0,1-.4,1c.31,0-.06.53,0,.75-.1-.07,0-.3-.11-.37,0,.36-.18.45-.33.85.16.23.18-.4.31-.31s-.19.44-.27.86c.06,0,.12.08,0,.23-.11-.24-.06,0-.14.27-.14.4-.25.71-.13.91A.25.25,0,0,1,5,30.14c-.16.34,0,.35,0,.54-.22.61-.37,1.19-.56,1.31s-.08-.21-.17,0,.18.21.21.37-.34.41-.13.59c.14-.41.13-.76.33-.85,0,.18-.07.46-.06.71,0,.44,0,.14-.15.48.15.29.3-.15.4-.65S5.13,31.52,5.05,31.52Zm-.62,4.65c-.2-.1-.24.32-.16.48S4.51,36.33,4.43,36.17Zm1,3a2,2,0,0,1,.13-.76c-.11.06-.4.33-.28.47,0-.06,0-.12.07-.1A.52.52,0,0,0,5.44,39.21Zm-.61.65a.64.64,0,0,0,0-.59A.52.52,0,0,0,4.83,39.86Zm-.29.28c.24,0,.15-.24.11-.48C4.45,39.55,4.56,40,4.54,40.14Zm-3.42.21c.15-.31-.12-.52-.19-.76C.92,40,1,40.24,1.12,40.35Zm-.36.21c-.19-.06-.19.23-.17.54C.78,41.15.78,40.87.76,40.56Zm.38,1.52c0-.27,0-.53-.12-.54C.92,41.7.94,42.16,1.14,42.08Zm3,1c0-.38-.2-.18-.16-.49s.26-1,0-1.1c0,.36.1.76,0,.9,0,0-.05-.32-.06-.1S3.82,43.23,4.13,43.12Zm-2.92.36c-.08-.3,0-.28,0-.54a.23.23,0,0,0-.24.12A.5.5,0,0,0,1.21,43.48Zm3.43,2.69c-.19-.48.07-.81-.17-1,0,.31-.25.35-.22.73.1.11.17.1.24,0C4.51,46.06,4.57,46.14,4.64,46.17Zm-.21,1c0-.27-.15-.31-.3-.26C4.19,47.22,4.36,47.41,4.43,47.22Zm1.35,5.36c0-.08,0-.12.09-.13,0-.29-.3-.63-.21-.67s.15.42.29.33c0-.38-.13-.35-.27-.65-.13.19-.23,0-.31.19A6.68,6.68,0,0,1,5.78,52.58Zm2.93,5.29c-.1-.16-.05-.23-.14-.38-.11.15-.2-.05-.31,0A.64.64,0,0,0,8.71,57.87Zm.67,1.23c-.07-.22,0-.44-.19-.59a.22.22,0,0,0-.1.18c-.33-.21-.18-.6-.39-.7-.1.17.23.61.28.88.08,0,.17-.14.25,0-.09.06.13.31.1.4C9.84,59.69,9.5,59.41,9.38,59.1ZM15.8,71.78c-.36-.28-.4-.46-.73-.5.1.09,0,.09-.08.09C15.35,71.53,15.45,72,15.8,71.78Zm.25,0s-.1-.18-.17-.14c.14.18,0,.33.28.53C16.36,72.13,16,71.94,16.05,71.83Zm1.16,1c-.09-.14-.51-.43-.61-.3C16.89,72.68,17,73,17.21,72.86Zm2.93-.61c-.26-.11-.54-.28-.72-.25C19.75,72.3,19.87,72.29,20.14,72.25Zm-.66,2c-.33-.25-.38-.34-.62-.26A.54.54,0,0,0,19.48,74.25Zm7.42,1.66a1.38,1.38,0,0,0-.62-.18.26.26,0,0,0,.11.3C26.36,75.74,26.74,76,26.9,75.91Zm.55.34c-.05-.06-.21-.34-.37-.21.15.35-.27-.06-.45,0C26.54,76.34,27.3,76.34,27.45,76.25Zm4.07,2.17c-.13-.09-.71-.3-.76-.13C31.08,78.24,31.27,78.54,31.52,78.42Zm4.1.62c0,.07-.16.11-.34.09-.08.18.1.25.28.32,0-.11.13-.13.35-.09C36,79.18,35.81,79.11,35.62,79Zm1,.38a1,1,0,0,0-.29-.39C36.29,79.19,36.07,79.46,36.57,79.42Zm.13-1.2c-.41.06-1.16-.11-1.31.13.17.11.13,0,.33,0S36.71,78.48,36.7,78.22Zm3.62.63c.2-.07.49-.09.54-.25-.31.05-.28-.08-.54,0Zm-.56.37a1.18,1.18,0,0,0-.54.06c-.1.14.1.4.21.24C39.17,79.46,39.65,79.28,39.76,79.22Zm1.75.15c-.27,0-.94-.1-.88.13C40.91,79.45,41.58,79.6,41.51,79.37Zm0-.06c0-.26-.91,0-1.31-.1,0,.11-.36.05-.33.18A7.49,7.49,0,0,1,41.51,79.31ZM6.92,25.93c-.12-.12-.08-.34.06-.64,0,.08,0,.17,0,.32s.07,0,.1-.06S7,25.8,6.92,25.93ZM74.33,46c.19.1,0,.39,0,.6C74.14,46.48,74.28,46.21,74.33,46ZM10.53,60.37a2.6,2.6,0,0,1,.83,1.12c-.2.16-.09-.13-.17-.25C10.93,61.1,10.69,60.62,10.53,60.37Zm9.9,9.78a7.78,7.78,0,0,1,1.12.66A3.68,3.68,0,0,1,20.43,70.15ZM74.86,55.72c.22.28-.3.93-.53,1.3s-.26.77-.49.71A10.58,10.58,0,0,0,74.86,55.72Zm1.25-12.57c0,.18,0,.22,0,.42a1,1,0,0,1-.49.14C75.74,43.41,75.87,43.16,76.11,43.15Zm-.29,10.64c0,.29-.33.91-.46,1.33A4.58,4.58,0,0,1,75.82,53.79Zm-4.7,8.31,1-1.53a10.56,10.56,0,0,1-1.87,2.75C70,63.43,70.86,62.47,71.12,62.1Zm5.34-19.53-.09,1C76.35,43.39,76.19,42.59,76.46,42.57Zm-.09-2.89c.16.14.12.35.07.62C76.29,40.15,76.33,39.94,76.37,39.68Zm.13,1.65a1.8,1.8,0,0,1-.15,1,1.62,1.62,0,0,1,0-.83C76.4,41.53,76.46,41.45,76.5,41.33Zm-2.94,9.18c-.18.37,0,.42-.08.71-.43.1-.2.61-.38.81a.25.25,0,0,0-.14-.16c.11-.18.17-.63.31-.62C73.31,51,73.25,50.39,73.56,50.51ZM18.31,13.61a10.89,10.89,0,0,1-1.54,1.28,10.94,10.94,0,0,1,1.33-1.26C18.21,13.51,18.26,13.55,18.31,13.61ZM1.27,51a6.49,6.49,0,0,1-.19-.76C1.17,50.25,1.5,51,1.27,51ZM32.9.79c0-.11.44-.24.65-.26s.62,0,.57.11A7.61,7.61,0,0,0,32.9.79ZM.18,45.65A4.69,4.69,0,0,0,.1,44.42c0-.44-.21-1,0-1.11C.09,44,.53,45.41.18,45.65ZM6.25,19.12c-.37.2.4-.73.4-.94.06,0,.15-.14.23-.24C7,18.22,6.26,18.93,6.25,19.12ZM.49,38.8c0-.28.05-.57.22-.54C.7,38.58.67,38.86.49,38.8ZM.8,46.36c-.16.07,0-.6-.18-.54.14-.1-.16-.85.1-.78A10.47,10.47,0,0,0,.8,46.36Zm.68,3.46c-.14-.49,0-.63,0-1C1.46,48.83,1.77,49.88,1.48,49.82ZM1,46c0-.36-.12-.76.09-.78C1,45.42,1.23,46,1,46Zm0-1.42c-.22-.07,0,.44-.27.35,0-.37.16-.39.1-.78C1,44.17,1,44.33,1,44.58ZM22.09,10.82c-.05.26-.59.44-.85.64-.72.52-1.32.91-2,1.34-.35.21-.61.72-.88.59.65-.41,1.26-1,1.92-1.44C20.84,11.62,21.41,11.2,22.09,10.82ZM15.59,16a3.6,3.6,0,0,1-.67.69C15,16.39,15.32,16.16,15.59,16Zm-3.71,4.14a2.37,2.37,0,0,1-.32.6C11.33,20.66,11.77,20.33,11.88,20.14Zm2.86-3.36c.18.15-.65.82-.83.93C14,17.46,14.5,17.08,14.74,16.78ZM28.58,7.72c-.24.24-.49.23-.9.34C27.76,7.89,28.31,7.84,28.58,7.72Zm7.48-1.86c-.08.21-.34.09-.57.12l-1.39.23c-.49.08-1,.23-1.36.31.08-.36.59-.24.83-.3C34.25,6.07,35,6,36.06,5.86ZM23.18,10.23c0,.23-.94.68-.92.5C22.54,10.66,22.74,10.42,23.18,10.23Zm4.29-2.16c.06.15-.36.31-.51.28S27.33,8.16,27.47,8.07ZM5.31,60.29c-.23-.14-.46-.81-.69-1.15C4.85,59.28,5.08,59.94,5.31,60.29ZM57.86,74.86c-.08.16-.38.32-.5.48a.3.3,0,0,0,.25,0c-.06.28-.21,0-.42.16C57.32,75.29,57.62,74.9,57.86,74.86Zm2.38-1.15c.07.31-.42.34-.75.47C59.5,74,60,73.87,60.24,73.71Zm-2.9,2.38c-.3.13-.62.28-.69.1C56.78,76.29,57.34,75.84,57.34,76.09Zm2.18-1.38c-.07.23-.58.33-.71.32-.24.14-.25.27-.49.27A2.75,2.75,0,0,1,59.52,74.71Zm-2.28.9c0,.17-.32.16-.48.28s0,.14,0,.15-.21,0-.33.07-.19.35-.55.43c-.17-.12.19-.19.37-.28-.13-.16.14-.33-.22-.24,0-.24.23,0,.33-.07s0-.1,0-.15.47,0,.74-.25C57.11,75.62,57.16,75.64,57.24,75.61Zm-5.75,2.27c-.53.14-.58.39-1.24.51,0-.15-.17-.06-.34,0a1.36,1.36,0,0,1,1.25-.44c0-.14-.24-.12-.08-.29a6.52,6.52,0,0,1-1,.31c-.39.07-.75,0-.84-.11.44-.09.66,0,1.09-.09.13,0,.32-.28.06-.21.61-.39,1.84-.5,2.37-.8-.11.27-.67.4-.87.52,0,.15.46.12.46,0,.43,0-.37.24-.6.31s0-.19,0-.32a5.9,5.9,0,0,1-.95.23c0,.25.37,0,.46,0s-.13.14-.07.15.39-.13.36.08C51.46,77.76,51.5,77.82,51.49,77.88Zm6.13-1.45a12.55,12.55,0,0,0-1,.77c-.25.17-.18,0-.42.18a9.74,9.74,0,0,1-2.55,1.34c-.13,0-.39,0-.49,0-.11-.25.57-.35.2-.5.35-.22.5-.1.83-.35-.08-.23-.68.08-1.12.19,0-.1.1-.16,0-.26.62.07,1.24-.41,2-.7.09.1-.11.17-.27.24a.73.73,0,0,0-.31.46c.43,0,.31-.19.48-.34a8.82,8.82,0,0,0,2.18-.92A.69.69,0,0,0,57.62,76.43Zm-1.93,1c-.06-.07-.26,0-.36,0,0,.25.46,0,.8-.15C56.83,77,56,77.23,55.69,77.39Zm-3.21.3c0-.07.19-.1.17-.18s-.45.12-.65.14c0,.06.14,0,.23,0,.11.16-.21.34.28.16-.19.22-.28.19-.62.26-.08,0,.2-.15.2-.13a7.46,7.46,0,0,0-.75.23c-.08-.1.12-.15.29-.21A2.51,2.51,0,0,1,53,77.15c0,.07-.08.13,0,.21.19-.14.1-.34.55-.43,0,.16.13.24.39.1,0,.4-.58.44-1,.65-.06-.16.13-.17-.08-.23S52.83,77.66,52.48,77.69Zm7.83-4.51c0,.09-.27.18-.22.27l-.77.42c-.34.17-.74.41-.85.25.22-.14.26,0,.51-.2l-.09-.16c-.36,0-.56.28-1.07.51-.21-.14.25-.24.42-.36s.28-.27.42-.37c.45-.29,1-.52,1.29-.77.29,0-.08.18,0,.31-.21-.16-.9.26-1.19.52.16.11.39.1.71,0,0-.16-.14-.17-.37,0C59.43,73.21,59.93,73.37,60.31,73.18ZM49.93,78.47c-.37.35-.57,0-1.2.2.49,0,.26.16-.17.28,0-.29-.44,0-.71-.16.07-.06.42-.28,0-.18.06-.25.53-.16.85-.24,0,.16-.55.17-.37.39.1,0,.07-.09.08-.14l.76-.16c.17,0-.24-.24.27-.3C49.66,78.29,49.08,78.68,49.93,78.47Zm13.39-6.68c.33-.21.33,0,.57-.34C64.09,71.61,63.35,72,63.32,71.79Zm2.89-56.23a9.21,9.21,0,0,1-1-.9C65.51,14.74,65.93,15.26,66.21,15.56ZM63.34,71.63c-.13.18-.35.38-.28.55-.33.21-.7.5-.84.35a2,2,0,0,0,.83-.56s-.14,0-.22.08A.68.68,0,0,1,63.34,71.63Zm3.9-59.3c.1-.05.24,0,.41.23.12-.11-.05-.21.17-.17a4.91,4.91,0,0,1,1,.88c.51.51,1.06,1,1.58,1.59a1.27,1.27,0,0,1,.16.3c.75.83,1.49,1.68,2.17,2.57.12.16.2.42.33.59s.27.2.35.31.16.35.26.5c.39.66.93,1.47,1.28,2.23-.19,0-.06.21-.21.23.28.36.1-.08.27-.13a6,6,0,0,0,.88,1.32c.22.18.07.32.12.44s.36.36.31.73c.3-.27.22.26.44.43a1.07,1.07,0,0,1,.1-.53c-.16-.14-.19.13-.42-.08s-.06-.4-.26-.75l.22-.09c-.12-.36-.31.06-.55-.38.1-.06.17.08.27,0-.13-.43-.47-.43-.47-.79a2.46,2.46,0,0,1-.8-1,1.59,1.59,0,0,1,.48.51,2.12,2.12,0,0,0,0-.48c-.13-.21-.06.16-.06.16s-.1-.18-.21-.28-.36,0-.38-.44c.09-.17.18.19.27.25s.18-.13.32.09c0-.49-.26-.64-.44-1.06-.25.13.18.42.12.58s-.33-.25-.48-.25c-.14-.36.07-.11.2-.25a1,1,0,0,0-.17-.81c.18-.11.54.18.43.41.2.25,0-.32.21-.24s.26.47.39.71a2.79,2.79,0,0,1,.27.38c.25.47.44,1.06.72,1.58.11.2.21.24.27.38.31.77.64,1.74,1,2.47a7.47,7.47,0,0,1,.3.87c.3.92.53,1.89.8,2.84.12.47.26.94.35,1.42s.14.95.2,1.42c0,.19,0,.31,0,.47a7.89,7.89,0,0,0,.26,1.22,3.71,3.71,0,0,0,.16.9c.07.35-.13.32-.11.58.18.55,0,1.2.26,1.8,0,.2-.23,0-.21-.21-.16.42.2,1,.28.88,0,.42,0,1-.23,1,.29.52-.17,1.44.15,1.91.06.21-.11.27-.11.33s.08.19.06.34,0,.58-.1.94a8.09,8.09,0,0,0-.15,1.07c0,.16,0,.55.07.57s-.12.08-.19.09a6.1,6.1,0,0,1-.13,1.56c0,.11.07.1.11.13-.13.4,0,.64-.24.87s.09.17.06.35A6.2,6.2,0,0,0,79,47.07c0,.28-.1.83-.12,1s0,.47,0,.69c-.16.8-.43,1.6-.63,2.27s-.14,1.37-.51,1.72c0,.18,0,.27,0,.46s-.14.16-.18.29-.12.62-.22.89c-.22.59-.54,1.11-.75,1.75a1.7,1.7,0,0,1-.09.33c-.08.18-.22.31-.3.48s-.05.33-.1.45-.14.16-.2.28-.06.24-.15.43c-.43.76-.84,1.61-1.24,2.27-.08.17-.16.13-.23.26A3.57,3.57,0,0,1,73.4,62a5.83,5.83,0,0,1-1,1.62c-.08-.08.2-.32.07-.37a.5.5,0,0,0-.14.46c-.21.1-.49.55-.74.84s.06.21-.07.38a29.2,29.2,0,0,1-2,2.4c-.17.2-.23.39-.39.57-.47.53-1,1-1.54,1.49a3.14,3.14,0,0,1-.46.5c-.17.13-.32.14-.51.27s-.22.27-.39.41c-.65.53-1.42,1.12-2.16,1.62-.15-.1.34-.27.58-.53s.38-.69.6-.51c.33-.23.08-.34.41-.57.06.08.16.07.28,0-.12-.07.13-.45.48-.48,0-.25-.38.2-.45,0,.54-.52.82-.68,1.22-1.14-.09-.24-.41.27-.47,0,.63-.45.74-1.09,1.35-1.29.13-.19.1-.24-.05-.21.12-.24.4-.19.31-.32.19-.17,0,.21.09.25a8.13,8.13,0,0,1,1.35-1.61s-.12.08-.19.14a9.33,9.33,0,0,1,1.24-1.55c.27-.29,0-.35.27-.63a1.46,1.46,0,0,0,.5-.44c.14-.14.1-.19,0-.25.18-.17.47-.39.34-.57-.14,0-.37.49-.57.67-.1-.12-.22-.13-.39.11,0,.07,0,.12-.09.21.1,0,.21-.16.28-.06-.9,1-1.47,1.79-2.08,2.52s-1.29,1.38-2.22,2.25c-.15,0-.1,0-.13-.14a8,8,0,0,1-1.36,1.24c-.09.08,0,.14-.1.23s-.5.34-.6.11c-.17.24-.22.26,0,.33-.1,0-.17,0-.32.11-.1-.19.21-.47.27-.69.38-.17.35-.19.78-.58.27.06-.25.27-.13.35s.66-.54.3-.49c.36-.22.39-.49.64-.56s0,.2-.15.31c.23,0,.51-.47.38-.54a8.85,8.85,0,0,0,1.27-1.31c.24-.2.42-.23.66-.41.07-.1,0-.14.06-.24.74-.69,1.4-1.82,2-2.37.22,0-.14.32-.25.5.41-.17.44-.67.47-.87l.66-.71c.18-.25.34-.49.5-.73.32-.49.62-1,1-1.56.14,0,.21-.25.21,0,.25-.25.07-.27.14-.43l.4-.53.33-.58c.21-.4.4-.79.56-1.15s.36-.84.53-1.18.33-.48.43-.76A5.18,5.18,0,0,1,75.5,55c.06-.16.2-.19.27-.36a12.57,12.57,0,0,0,.36-1.26c0-.11-.08-.12,0-.25a1.79,1.79,0,0,0,.33-.68c.12-.34.27-.4.14-.64.08-.33.25-.3.32-.69-.07,0-.1.17-.14.29-.2-.18,0-.41.11-.64.18-.66.34-1.28.51-1.93s.26-1.37.45-2.18a18.39,18.39,0,0,0,.35-2.14c0-.19.08-.22.09-.42,0-.44-.1-1,.16-1.19a2.5,2.5,0,0,1,0-1.31s.07.26,0,.33.15-.6,0-.43a1.3,1.3,0,0,0,.14-.87c-.06,0,0,.14-.06.22a13,13,0,0,1-.09-2,3.26,3.26,0,0,0,.2-1.63c-.1.07,0,.55-.22.44,0-.63-.23-.71-.25-1.39,0-.41,0-.84,0-1.31.07,0,.07.19.09.32.14-.25-.08-.72-.22-.41,0-.25,0-.41.07-.45-.21-.62-.33-1.66-.56-2.43.25.32.14-.51,0-.66-.2.1.27.5,0,.44-.11-.51-.22-1.07-.33-1.6s-.29-1-.41-1.34c.1,0,.07-.12.14-.15l-.27-.26c-.14-.45-.26-.92-.42-1.35-.25-.74-.56-1.54-.87-2.34-.07-.19-.22-.39-.31-.58a23,23,0,0,0-1.65-3.3c-.19-.3-.4-.52-.58-.8-.38-.59-.74-1.16-1.13-1.72s-1-1.37-1.53-2c-.13-.15-.09-.22-.23-.37s-.24-.19-.32-.3-.28-.55-.61-.62A18.68,18.68,0,0,0,67,13c.07-.08.19,0,.25-.09l.62.61c.16.18.2-.1.31-.12-.15-.19-.2,0-.33-.15s0-.13-.06-.23a.53.53,0,0,0-.28-.19C67.36,12.6,67.49,12.41,67.24,12.33ZM70.1,64.18c-.13.18-.48.17-.46.47C69.77,64.47,70.12,64.48,70.1,64.18Zm-2.43,4a6,6,0,0,0-.62.47c.1.2.65-.16.66-.26C67.47,68.63,67.77,68.23,67.67,68.21Zm1.24-.32c-.12-.12-.69.37-.71.55A2.12,2.12,0,0,0,68.91,67.89Zm2.38-3c-.19.17-.7.63-.58.82C70.87,65.36,71.2,65.26,71.29,64.9Zm.62-3c-.19,0-.48.85-.32.71C71.54,62.44,72,62,71.91,61.88Zm4.52-6a1.4,1.4,0,0,0-.27.73C76.31,56.4,76.6,56,76.43,55.86Zm1.11-3.17c-.15,0-.05.3,0,.35a6.63,6.63,0,0,0,.32-.95C77.67,51.91,77.67,52.49,77.54,52.69Zm1.53-13.3a.58.58,0,0,0,.19.56C79.25,39.67,79.24,39.38,79.07,39.39Zm-.55-.55c.07.41-.23,1.29.08,1.42.07-.42,0-.17-.06-.33C78.34,39.59,78.92,38.89,78.52,38.84Zm-.24-2.38c-.09.22,0,.67.25.64C78.53,36.68,78.37,36.64,78.28,36.46Zm.09-.22c-.05-.32.1-.35,0-.66C78.2,35.46,78.23,36.15,78.37,36.24ZM79,31.35l.09.44C79.41,31.92,79.19,31.18,79,31.35Zm-.41-1.64c.2.57-.21.41,0,.93.19-.05.11-.42.18-.61s.12.35.28.17C78.93,29.82,78.75,29.82,78.6,29.71Zm-.5-3.64c0-.14-.09-.29-.15-.43C77.71,25.63,77.91,26.23,78.1,26.07Zm-.81-.44c.12.3.22.53.35.59a.31.31,0,0,1,0-.25C77.58,25.7,77.44,25.59,77.29,25.63Zm-2.06-5.55c0-.25.11-.43,0-.77-.27-.06,0,.38,0,.52s-.1,0-.1.05.06.26,0,.23c0,.15.13.28.17.43C75.56,20.56,75.31,20.27,75.23,20.08Zm.54.63.28.5C76.3,21.29,75.85,20.47,75.77,20.71Zm.11,1.09c.23-.22-.24-.54-.16-.81-.11.09-.22-.26-.33-.22C75.53,21.18,75.72,21.31,75.88,21.8Zm.9.6c0-.3-.21-.27-.35-.48s-.11-.63-.33-.48a1.76,1.76,0,0,0,.29.6C76.52,22.27,76.67,22.46,76.78,22.4Zm.6,1.74c-.14-.25-.27-.53-.44-.44C77.08,23.94,77.21,24.22,77.38,24.14Zm-7.45-8.91c-.06.11-.18.19,0,.4s.3.08.36-.13C70.15,15.24,70.07,15.4,69.93,15.23Zm-1.26-1a.3.3,0,0,1,0,.25c-.07-.09-.19-.2-.11,0,.25.09.2.32.49.58.22-.13-.13-.4-.33-.57C68.86,14.45,68.79,14.27,68.67,14.28Zm-7,57.87c-.43.31-.43.46-.78.82a3.56,3.56,0,0,1-.81.11c.07-.31.47-.64.79-1a1.18,1.18,0,0,1-.5.63c.06.15.23.08.46-.09-.09-.3.75-1.31,1.15-1-.22.14-.33.09-.44.3.52,0,1-.83,1.41-.81l-.14-.2c-.36.19-.39.35-.68.54-.37-.17.66-.83.82-.71a2,2,0,0,1,.67-.54c0,.14-.25.33-.19.47-.16.12-.17-.11-.36.06s.08.16-.07.27c.08,0,.26-.11.38-.22.07.3-.32.59-.62.82S62,71.92,61.72,72.15Zm.51.6-.27.18c.14-.27-.2,0-.26-.19A.36.36,0,0,1,62.23,72.75Zm1.35-1.36a4.85,4.85,0,0,1,.54-.37C64.18,71.09,63.57,71.65,63.58,71.39Z"/><path class="cls-3" d="M39.15,31a6.41,6.41,0,0,0-4.43-2.68c-2.78-.2-5.27,3.62-5.27,3.62l1.15,5.58,8.66,7.1L43,42.37l6.05-8V29.46l-4-1.2Z"/><path class="cls-4" d="M36.45,65.68a80.2,80.2,0,0,0,.29-13.63,25.24,25.24,0,0,0-2.88-5.66c-1.48-2.33-6.17-6.69-7.1-6.71-.69,0-1.29.71-1.53,1.34-.74,1.95,2.23,4.39,1.63,5.09-.29.33-1.19,0-1.73-.19A4.52,4.52,0,0,1,22.83,44c-.3-.54-.37-1-.48-3.17a25.92,25.92,0,0,0-.29-4.22c-.25-1.1-.61-2.57-1.82-3.17-.29-.14-.9-.44-1.34-.19-1,.55,0,3.06.19,7.2.17,3.71-.53,3.53-.1,5.47.53,2.35,1.84,3.89,4.41,6.9,2.71,3.17,3.4,3.11,4.13,4.89,1.1,2.69,0,3.88,1,5.66C30.06,65.78,36,68.24,36.45,65.68Z"/><path class="cls-4" d="M43.15,66a78.75,78.75,0,0,1-.28-13.62,25,25,0,0,1,2.87-5.66c1.48-2.34,6.18-6.69,7.1-6.71.69,0,1.3.71,1.54,1.34.74,1.94-2.23,4.39-1.63,5.08.29.34,1.18,0,1.72-.19a4.47,4.47,0,0,0,2.31-1.92c.3-.53.36-1,.48-3.16A25.28,25.28,0,0,1,57.54,37c.25-1.1.62-2.57,1.83-3.17.29-.14.89-.44,1.34-.19,1,.55,0,3.06-.19,7.2-.17,3.71.52,3.53.09,5.46-.52,2.36-1.84,3.9-4.41,6.91-2.71,3.17-3.4,3.11-4.12,4.89C51,60.77,52.12,62,51,63.74,49.54,66.14,43.58,68.61,43.15,66Z"/><polygon class="cls-5" points="55.01 29.99 42.4 17.09 39.26 16.23 34.1 20.02 22.93 30.46 23.41 33.16 37.46 20.98 39.76 19.63 42.7 21.12 53.96 32.63 55.01 32.35 55.01 29.99"/><path class="cls-6" d="M45.87,40.51a16.81,16.81,0,0,0,4.23-6.3A6.06,6.06,0,0,0,50,29.73c1.48,1.5,3,3,4.35,4.6a1.07,1.07,0,0,0,1.81-.75v-.09a1,1,0,0,0,0-.17,3.49,3.49,0,0,0,0-.79c0-.16,0-.33,0-.49s0-.14,0-.21,0-.27,0-.25c0-.17,0-.44-.07-.73a1,1,0,0,0,.13-.49v-.09a1,1,0,0,0-.52-.89c-2-2.26-4.11-4.37-6.22-6.49-1.81-1.82-3.62-3.65-5.51-5.39A7.78,7.78,0,0,0,41,15.63a4.33,4.33,0,0,0-2.88.23c-1.79.74-3.1,2.24-4.45,3.57-.7.69-1.47,1.31-2.19,2-1.05.95-2.08,1.9-3.1,2.86-1.21,1.12-2.41,2.26-3.56,3.43-.39.4-.79.79-1.15,1.22l-.34.39-.08.1c0-.05.07-.08,0,0l-.21.28-.21.28a.6.6,0,0,0-.33.38,8.1,8.1,0,0,0-.24,1.7c-.06.56-.34,1.58.13,2a.81.81,0,0,0,.94.13,1,1,0,0,0,.24-.27c.16-.1.31-.22.47-.34.32-.23,0,0,.13-.08l.2-.14q.59-.44,1.14-.9c1-.89,2-1.81,3.06-2.72,1.81-1.61,3.56-3.28,5.4-4.85l.18-.15.38-.34c.34-.32.67-.65,1-1a19.42,19.42,0,0,1,1.95-1.79,4.51,4.51,0,0,1,2.07-1,3,3,0,0,1,2.32.94c.87.77,1.65,1.66,2.45,2.5,1,1,2,2,2.94,3l.81.81a6.74,6.74,0,0,0-5.74.12A8.2,8.2,0,0,0,39.5,30.4l-.21-.28a7.39,7.39,0,0,0-2.81-2.3,5.85,5.85,0,0,0-6.14,1.34,5.51,5.51,0,0,0-1.7,5.29A11.73,11.73,0,0,0,32,40.12a40.65,40.65,0,0,0,6.79,5.16.77.77,0,0,0,.72.11h0c1.32-.18,2.53-1.28,3.51-2.12A36.46,36.46,0,0,0,45.87,40.51Zm-2-19.79A7.78,7.78,0,0,0,41,18.85a4.39,4.39,0,0,0-2.88.22c-1.79.75-3.1,2.25-4.45,3.58-.7.69-1.47,1.3-2.19,2-1.05.94-2.08,1.9-3.1,2.86-1.21,1.12-2.41,2.26-3.56,3.43-.32.33-.65.65-1,1a4.28,4.28,0,0,0-.07-1.38l.28-.2.13-.09.2-.14c.39-.28.77-.59,1.14-.9,1-.89,2-1.81,3.06-2.72,1.81-1.61,3.56-3.28,5.4-4.85l.18-.15.38-.34c.34-.32.67-.65,1-1a19.42,19.42,0,0,1,1.95-1.79,4.72,4.72,0,0,1,2.07-1,3,3,0,0,1,2.32.94c.87.77,1.65,1.66,2.45,2.5,1,1,2,2,2.94,3,2.39,2.41,4.83,4.8,7.08,7.34a.68.68,0,0,0,.12.12v.06c-1.63-1.77-3.35-3.47-5.05-5.18S45.78,22.46,43.89,20.72ZM42.31,41.38a17.26,17.26,0,0,1-1.5,1.32c-.4.31-.88.56-1.3.87-1.7-1.14-3.4-2.31-5-3.57A12.65,12.65,0,0,1,31,36a4.86,4.86,0,0,1-.5-4.22,4.85,4.85,0,0,1,3.61-2.63,3.74,3.74,0,0,1,2.64.74A10.91,10.91,0,0,1,38,30.93c.23.2.44.43.65.64l0,0a3.62,3.62,0,0,1-.22.32,1.68,1.68,0,0,1-.52.54c-.27.14-.41,0-.65-.13a.26.26,0,0,0-.38.29,1.35,1.35,0,0,0,.8,1,1.81,1.81,0,0,0,1.53-.49c.78-.63,1.26-1.56,2-2.25a6.17,6.17,0,0,1,2.35-1.48,5.12,5.12,0,0,1,2.71-.1,2.48,2.48,0,0,1,1,.4l.17.11.18.17.14.15s.06.07.07.07l.08.12a2.85,2.85,0,0,1,.39,2.17,12.73,12.73,0,0,1-3.23,5.89C44.17,39.45,43.28,40.45,42.31,41.38Zm-19.1-12ZM53,41.07h0Zm0,0Zm8.89-5.53c-.07-.6-.12-1.2-.22-1.79a1.47,1.47,0,0,0-.59-1.11l-.07,0a.93.93,0,0,0-.58-.25c-1.24,0-2.29,1.1-2.83,2.1a9.38,9.38,0,0,0-1.12,3.68c-.11,1.5.29,3.1-.08,4.57a3.33,3.33,0,0,1-1.18,1.55c-.32.28-.65.54-1,.8a7.85,7.85,0,0,0,.65-1.41c.44-1.28.57-3-.48-4.08-1.27-1.24-2.95-.16-3.93.86s-1.67,2.11-2.68,3S45.9,45,45,45.76a9.71,9.71,0,0,0-2.32,2.94,10.39,10.39,0,0,0-.86,4.64c0,.91.12,1.82.17,2.73s.11,1.89.21,2.83.24,1.62.29,2.44a16.73,16.73,0,0,1,0,2.45A.32.32,0,0,0,43,64c1-.93,1-2.46.94-3.73,0-1.46-.06-2.92-.07-4.38,0-2.58-.38-5.39,1.37-7.48,1.45-1.72,3.47-2.83,5-4.49a13.31,13.31,0,0,1,2.54-2.75,1.36,1.36,0,0,1,.2-.11c-.05,0,0,0,0,0h0s.09.16.08.13a1.69,1.69,0,0,1,.1.55,4.22,4.22,0,0,1-.11.93,9.83,9.83,0,0,1-2.26,3.61,15,15,0,0,0-1.3,2,8.47,8.47,0,0,0-.5,1,4.68,4.68,0,0,0-.18,1.18.5.5,0,0,0,.84.35c.22-.28.5-.51.7-.8s.42-.66.64-1l.21-.29a6.67,6.67,0,0,0,.74-.29,22.35,22.35,0,0,0,2.12-1.22,12.88,12.88,0,0,0,3.35-2.79c1-1.24.89-2.83.83-4.31a13.47,13.47,0,0,1,0-2.29,8.9,8.9,0,0,1,.46-1.58,5.27,5.27,0,0,1,.75-1.5,1.71,1.71,0,0,1,.58-.48c0,.55,0,1.11.06,1.66,0,1.18,0,2.37-.09,3.55s-.14,2.39-.26,3.58a19.82,19.82,0,0,1-.51,3.34C58,50.62,54,53.09,51.85,56.72a10.94,10.94,0,0,0-1.24,3.37,18.18,18.18,0,0,0-.43,3.3.85.85,0,0,0,.76,1.15H51a.86.86,0,0,0,.82-.63c.19-1.06.23-2.14.45-3.21a8.52,8.52,0,0,1,1.15-2.87,51.48,51.48,0,0,1,4.28-5.15,27.52,27.52,0,0,0,2.06-2.64,11.25,11.25,0,0,0,1.37-3.11,20.8,20.8,0,0,0,.55-3.69c.12-1.25.21-2.51.26-3.76A26,26,0,0,0,61.86,35.54ZM53,41.05h0s-.08-.12,0,0Zm0,0s0,0,0,0ZM35.23,46.4A34.75,34.75,0,0,0,32.47,44a18.63,18.63,0,0,1-2.63-2.77c-.86-1.07-2.18-2.56-3.72-2.19s-1.83,2.23-1.63,3.57A6.76,6.76,0,0,0,25.35,45l-.51-.4a6.2,6.2,0,0,1-1.43-1.46,3.73,3.73,0,0,1-.33-2c0-.79.07-1.58.07-2.36a9.58,9.58,0,0,0-.94-3.93c-.52-1.16-1.62-2.56-3-2.52a1,1,0,0,0-.58.25l-.06,0a1.23,1.23,0,0,0-.56.91c-.1.49-.14,1-.2,1.51a29.73,29.73,0,0,0-.21,3.53c0,1.26.11,2.51.22,3.76a33.71,33.71,0,0,0,.43,3.77,12,12,0,0,0,1.18,3.29,18.1,18.1,0,0,0,1.94,2.66c1.39,1.75,3,3.28,4.33,5.1a9.19,9.19,0,0,1,1.5,3.1c.3,1.2.34,2.43.56,3.65a.85.85,0,0,0,.82.63h.09a.85.85,0,0,0,.76-1.15A18,18,0,0,0,29,60.46a12.71,12.71,0,0,0-.95-3.07c-.92-2-2.59-3.55-4-5.15a17.5,17.5,0,0,1-3.49-5.05A12.22,12.22,0,0,1,19.93,44c-.14-1.19-.25-2.38-.32-3.58s-.16-2.7-.14-4c0-.59.05-1.19.06-1.78v-.29a1.59,1.59,0,0,1,.52.41,4.44,4.44,0,0,1,.68,1.2c.19.49.35,1,.49,1.5a7,7,0,0,1,.15,2.09c0,1.41-.29,3.18.46,4.46a9.86,9.86,0,0,0,3.19,3,22.59,22.59,0,0,0,2.32,1.39,7.58,7.58,0,0,0,1.05.46l0,0c.22.32.44.65.65,1a10.65,10.65,0,0,0,.86,1,.49.49,0,0,0,.83-.35,6.38,6.38,0,0,0-.1-1,6.28,6.28,0,0,0-.43-1c-.31-.58-.7-1.09-1.06-1.64a27.83,27.83,0,0,1-2.33-3.28,4.1,4.1,0,0,1-.42-1.75,1.33,1.33,0,0,1,.1-.62s0-.05.06-.11.05,0,0,0h0l.14.08a3.39,3.39,0,0,1,.69.56c.46.46.86,1,1.27,1.47a16.41,16.41,0,0,0,2.48,2.45,33.16,33.16,0,0,1,2.55,2.17,6.13,6.13,0,0,1,1.65,2.59,13,13,0,0,1,.33,4.31c0,1.66,0,3.33-.07,5,0,1.43-.23,3.26.92,4.33a.32.32,0,0,0,.55-.22,21.62,21.62,0,0,1,.16-4.33c.22-1.64.25-3.3.39-5a12.43,12.43,0,0,0-.39-4.78A8.49,8.49,0,0,0,35.23,46.4ZM26.63,41Zm0,0h.05Z"/></g></g></svg>