<svg xmlns="http://www.w3.org/2000/svg" viewBox="0 0 79.44 79.92"><defs><style>.cls-1{fill:#417c3b;}.cls-2{fill:#417d3b;fill-rule:evenodd;}.cls-3{fill:#3cc3d8;}.cls-4{fill:#20aab5;}.cls-5{fill:#a2dbe5;}.cls-6{fill:#231f20;}.cls-7{fill:#d7d639;}.cls-8{fill:#aead35;}.cls-9{fill:#efeb95;}</style></defs><g id="Layer_2" data-name="Layer 2"><g id="Layer_1-2" data-name="Layer 1"><circle class="cls-1" cx="40.07" cy="39.63" r="36.28"/><path class="cls-2" d="M66.65,19.08c-.1.07-.22-.15-.31,0l-.18-.22c0-.09.35.2.2,0C66.45,18.8,66.55,19,66.65,19.08Zm1,.77c-.07,0-.14-.14-.2-.09-.16-.13,0-.18,0-.23s-.39-.41-.16-.47A1.77,1.77,0,0,1,67.7,19.85Zm-1.15-.7a4.68,4.68,0,0,1,.29.37C66.71,19.62,66.3,19.24,66.55,19.15Zm3.6,4c-.19-.16-.2-.1-.28-.39s-.21,0-.3-.06l-.45-.84c-.11-.29.15.11.19.22.11-.09-.06-.35.12-.4-.09-.15-.2.05-.31,0-.35-.44-.17-.63-.17-.91a1,1,0,0,1-.38-.67,3.86,3.86,0,0,1,.71,1.38c0-.09-.07-.22,0-.26.19.3.38.66.18.78.14.55.6.7.8,1.11,0,0-.14.15,0,.22s-.05-.34.23-.33c0,.33.25.35.38.57s0,.32.22.54c-.06,0-.1-.08-.15-.14-.3-.22-.63,0-.9-.42.17.18.38,0,.56.16.05-.05,0-.18-.09-.29a2.66,2.66,0,0,0-.46,0C70,23.25,70.07,23.22,70.15,23.17Zm-2.48-2.51c-.14.17-.36-.15-.36-.32S67.55,20.46,67.67,20.66Zm1.11,1.73-.08-.16c-.19-.24-.08-.29-.15-.46-.42-.71.1.1.26.17C68.79,22.08,68.94,22.33,68.78,22.39Zm-.85-1.12c-.13-.15-.1-.23-.16-.34.16,0,.31.39.46.15C68.33,21.27,68,21.31,67.93,21.27ZM67.81,20c-.13-.24.15-.11.2.09.08-.15-.38-.55-.32-.71.23.11.16.3.42.53-.1.1.09.34-.09.4C67.87,20.21,68,20,67.81,20Zm-1.28-1.54c.14-.24.7.45.42.51A1.22,1.22,0,0,0,66.53,18.47ZM12.77,16.81c-.09-.21-.27.18-.41.31,0-.14.16-.49.32-.39.11-.15-.11-.18,0-.32.23-.11.35-.44.55-.58,0,0,.1.14.13.13s.46-.53.37-.21a.71.71,0,0,1-.54.32,1.15,1.15,0,0,0-.29.54c.27.07.21-.25.38-.46.4-.07,1.28-1.29,1.87-1.65-.48.54-1.07,1.12-1.62,1.71S12.43,17.45,12,18C12,17.67,12.75,17.11,12.77,16.81Zm-1.34,3c.15.26-.22.49-.28.76s0,.1-.22.32C10.48,20.77,11.39,19.86,11.43,19.78Zm.64-.61c0-.08,0-.22-.14-.11s-.06.25,0,.15c0,.25-.31.34-.43.64l-.1-.07A11.62,11.62,0,0,1,12.49,18c.21-.25.38-.17.54-.57.14,0,.1,0,.14.12s.41-.29.63-.48c.23.09-.56.57-.28.53,0,.27-.32.11-.43.14-.08.25-.24.12-.28.15s-.16.25-.24.3-.15-.1-.22.08,0,.08.09.07.14-.15.4-.3c0,0,0,.18,0,.16s.28-.5.4-.3C12.77,18.49,12.46,18.76,12.07,19.17Zm0-.26c.13-.13.24,0,.4-.3C12.39,18.41,12,18.77,12.06,18.91Zm55.52.32c-.21-.32,0-.45-.37-.79a.57.57,0,0,1,.47.61c.22.07.57.37.53.69s-.1-.24-.27-.4S67.7,19.27,67.58,19.23ZM10.66,21.61c-.18.33-.72.57-.42.08C10.23,22.07,10.51,21.45,10.66,21.61Zm.08-.88-.27.4C10.23,21.16,10.67,20.5,10.74,20.73Zm55.33-2.26.17.21-.19.15-.17-.22C66.07,18.66,65.93,18.56,66.07,18.47Zm-52-1.5c.08.16-.18.42-.08.57a14,14,0,0,1-1.32,1.52,16.3,16.3,0,0,1,1.11-1.45C14,17.35,13.93,17.2,14.11,17ZM41.62,6.77c-.31.28-.81.12-1.48.13.08-.2.46,0,.74-.07A4.91,4.91,0,0,1,41.62,6.77ZM70.37,24.23c-.2-.36-.15.25-.35-.15,0,.08,0,.22-.07.25-.13-.13-.11-.29-.17-.44s-.33-.45-.11-.47a.79.79,0,0,1,.16.44c.1.18.19-.08.17-.08s.2.37.35.15c.07.45.37.41.4.75a.3.3,0,0,0-.21,0C70.51,24.54,70.25,24.27,70.37,24.23Zm-54.82-8.4c0,.22-.21.36-.4.4s0,.11,0,.15c-.24.08-.28.36-.43.52s-.23.36-.34.2c.32-.26.31-.57.47-.75S15.29,16.13,15.55,15.83ZM8.89,57.76c-.14.25-.79-.61-.43-.68.09.18-.09.19.08.41s.09-.17.07-.26c-.19-.4-.42-.07-.61-.49a.92.92,0,0,1,.76.52C8.87,57.48,8.77,57.53,8.89,57.76ZM5.83,50c-.1-.22-.34-.57-.06-.6,0,.19-.12.21,0,.51.22,0,0-.41.2-.37,0,.26.06,1,.23.76.2.1.14.53,0,.53s-.06-.29-.12-.38-.14,0-.15-.06S5.88,50.14,5.83,50Zm-.3,1.67A6.88,6.88,0,0,1,5,50.24c.14.11.28.21.47.09.16.3-.13.2-.23.27,0,.28.15.08.23.15s.14.21.06.19c.11,0,.17,0,.2-.16s-.08-.11-.08-.08.14-.47,0-.63c.18.07.3.45.18.58.15.52.32.42.35.94-.15,0-.21-.29-.29-.54l-.17.05c.12.38.31.33.3.76,0,.11.12,0,.2,0,.12.25-.06.23,0,.42s.27.12.35.52c-.19.07-.33-.19-.46-.48s-.31-.22-.52-.26c-.2-.34.25-.1,0-.44C5.59,51.54,5.5,51.59,5.53,51.69Zm3.34,4.62c.15.08,0,.2.13.38s.2.23.24.32c.09.26,0,.47.17.7-.41-.07-.2-.69-.57-.94A.86.86,0,0,0,8.87,56.31Zm-.82-1.15c.08-.09.39.33.29.42.18.18.37.23.53.62-.32-.4-.31,0-.17.31-.49-.24-.31-.79-.72-1.21C8.05,55.29,8.07,55.24,8.05,55.16Zm-3-8.35.06.3c-.15,0-.32,0-.38-.35C4.89,46.65,4.92,46.88,5.05,46.81Zm-.75.24c0,.19-.13.21,0,.52.06.09.15.08.18.28-.09,0-.17,0-.16.13C4.19,47.75,4,47.13,4.3,47.05Zm.09,1c.26.06.08.48.25.89.19-.24.14.68.4,1-.23.14-.31-.47-.42-.74A2.68,2.68,0,0,1,4.39,48.07Zm.25-.26c.06,0,.08.12.1.19s.14-.11.14-.23.19.55.22.16c.22,0,0,.35,0,.4s.09.28.08.4-.09.08-.1.13.13.33,0,.32c0,.17.21.47,0,.41,0-.27-.14-.6-.12-.91s.28-.43,0-.62c-.07.2.09.67-.17.66C4.62,48.23,4.88,48.19,4.64,47.81Zm4.73,9.7c0-.08,0-.16.1-.06a8.28,8.28,0,0,1,.45.81c.21.32.43.68.64,1s.11.36-.05,0A6.06,6.06,0,0,1,9.37,57.51ZM5.53,48.25c.12.16.34,0,.39.42-.14-.27-.25.32-.33-.13-.11.09.09.49-.15.44.08-.41-.17-.83-.17-1.39.21.22,0-.17.22-.15C5.65,47.87,5.4,47.86,5.53,48.25Zm.62.06c.07-.35.12.69.29.64,0,.28.19.38.14.66-.14-.33-.5-.76-.48-1C6.29,48.92,6.23,48.67,6.15,48.31Zm1.39,6.86c0,.21.19.16.22.23s-.08.18,0,.43c-.29-.13-.27.17-.52-.21.14-.14.24.08.38-.06-.09-.24-.42-.44-.4-.15-.07,0-.07-.08,0-.1l-.08-.18c.14-.15.21.21.35.06-.22-.38-.36-.42-.4-.81.16-.06.29.12.43.25C7.64,54.94,7.48,54.94,7.54,55.17Zm7.23,9.45c0-.22.59.54.81.73C15.27,65.42,15.1,64.87,14.77,64.62Zm-3.51-2.21a1.36,1.36,0,0,0,.42.71c-.17.09-.6-.44-.5-.53-.14.06-.33-.27-.48-.29.06.37.67.76.77.85s-.07.08-.09.07a.79.79,0,0,0,.45.17c.12.14.14.24.1.32a3,3,0,0,1,.51.52c.32.25-.19.19.13.44.11.1.08-.06,0-.16.15,0,.4.43.61.57-.15,0-.35-.21-.5-.25s0,.12,0,.16a2.59,2.59,0,0,0,.5.25c-.22.06.45.66.6.86a3.17,3.17,0,0,1-.57-.33c0,.08.15.22.25.34a5.18,5.18,0,0,1-1.68-1.46c-.12-.14-.11-.17,0-.24-.09-.07-.13,0-.22-.09s0-.2,0-.23-.2-.08-.3-.17-.25-.5-.44-.73a11.08,11.08,0,0,1-.89-1c-.22-.36-.33-.76-.55-1.15a.66.66,0,0,0-.23-.23A7.84,7.84,0,0,0,8,59.09a1,1,0,0,0,0-.33c.15,0,.29.58.46.34a4.93,4.93,0,0,0-.66-.59,12.91,12.91,0,0,0-.88-1.9c-.09-.23,0-.25,0-.44s-.24-.58-.13-.73c.28,0,.28.52.4.72s.35.6.44.82a.32.32,0,0,0,.15.15,2.63,2.63,0,0,1,0,.33c0,.11.23.29.3.43a1.61,1.61,0,0,0,.44.7c-.14.11-.39-.26-.26.14.09.13,0-.07.15-.08.16.17.34.46.52.41a18.45,18.45,0,0,1,.94,1.73,1.12,1.12,0,0,0,.75.48,2.26,2.26,0,0,0,.5.78l-.2.15C11,62.41,11.15,62.53,11.26,62.41ZM9,59.47c-.05.05,0,.14,0,.23.24-.15-.06-.3-.24-.58,0,.14-.24.18-.2.36C8.8,59.59,8.72,59.23,9,59.47Zm.3.66c-.16-.28-.29-.14-.44-.34.05,0,0-.19-.12-.17.27.29-.1.25.14.53C9,59.94,9.15,60.27,9.29,60.13Zm.3.67c.11-.13-.07-.42-.14-.65-.19,0,0,.21-.2.25C9.37,60.62,9.47,60.53,9.59,60.8ZM12,64.58c0,.07,0,.13,0,.16.19.17.39.38.52.25C12.34,64.75,12.17,64.59,12,64.58ZM10.19,62c-.24-.24-.45-.94-.46-.7S10.23,62.3,10.19,62Zm.53,0c.22-.25-.57-.89-.79-.84C10.21,61.73,10.41,61.46,10.72,62Zm-.54-39.93c-.22.25.13.22-.09.51-.14-.13.06-.43-.22-.48A.18.18,0,0,1,10.18,22.11Zm11.74,49c-.24.15-.42-.28-.79-.45C21,70.38,21.71,71,21.92,71.06ZM8.93,58c.26.3,0,.25.14.51-.23,0-.17-.49-.34-.51C8.62,57.63,8.88,58.21,8.93,58Zm-.13.89c-.09.12-.17-.13-.25-.09a1.53,1.53,0,0,0-.34-.64C8.53,58.14,8.51,58.49,8.8,58.86Zm2.31,1.19.22.33a.23.23,0,0,0-.21,0l.11.16c.08.1.16,0,.1-.06.22,0,.18.34.23.45.09-.06,0-.18.14-.22,0,.32.18.51.51.85-.14.06-.33-.34-.45-.17,0,0-.09-.3-.09-.3s-.15,0-.15,0a5.53,5.53,0,0,0-.5-.75C11.12,60.28,10.93,60.08,11.11,60.05Zm59.8-34.19c-.16.08-.32-.23-.29-.39S70.83,25.64,70.91,25.86ZM10.27,59.76c.23.34.2.75.55.72.26.28,0,.32.23.57s.48.31.53.62c-.15,0-.4-.23-.62-.55S10.08,60,10.27,59.76Zm-.17-.14c-.45.19-.51-.7-.93-1,.3,0,.08,0,.05-.26C9.65,58.54,9.62,59.3,10.1,59.62Zm0,1c.1.16.18.14.28.31-.11.27-.27-.36-.38-.24a10.48,10.48,0,0,0-.75-1.35C9.3,59.09,9.94,60.35,10.1,60.59ZM23.8,67c-.33.09-.59.34-1,.25a4,4,0,0,0-.41-.2,1.33,1.33,0,0,1-.76-.36,3.11,3.11,0,0,0-.49-.11,23.68,23.68,0,0,1-2.38-1.9,1,1,0,0,1,.3.09c.07-.18-.14-.21-.32-.33.08-.19-.21-.57-.38-.66a1.3,1.3,0,0,0,.37.8c-.38-.11-.5-.46-.86-.69.26,0-.05-.34.3,0,0-.15-.23-.42-.35-.44-.12.15.15.38-.1.5l-.32-.33c.47.37.2-.35-.09-.43-.07.06.13.16.15.24s-.37-.35-.6-.44c0-.08-.11-.19,0-.25-.31-.1-.43-.56-.58-.83.4.27.82.64,1.12.44.06.08,0,.12,0,.21s0-.15.17-.17c.21.27.36.25.55.47-.06.19-.21-.07-.34-.17-.25.14.36.54.51.51.22.18,0,.27.29.47l.33.05c.08-.1-.22-.19-.2-.18s0-.19-.11-.28-.35-.21-.5-.51c.31.25.6.52.91.77l1,.7a.62.62,0,0,0-.39.46c.18.21.27.09.45.3s-.11-.24.13-.29l.34.28c.15-.23-.07-.35-.37-.53.32,0,.8.46,1.18.66a.25.25,0,0,0-.18.08c.17.15.27.11.42.18a.26.26,0,0,0-.07-.2A7,7,0,0,1,23,65.8c-.13,0-.16.07,0,.19s.43,0,.28-.1c.09-.1.33.19.47.25C23.8,66.42,23.66,66.7,23.8,67Zm-5.5-3.33c.14-.13-.29-.67-.46-.55C18,63.35,18.11,63.35,18.3,63.66Zm1.29,1c-.11-.29-.19-.35.1-.53-.31-.34-.34.19-.44.1s-.54-.66-.71-.43c.16.24.23.07.36.15C19.13,64.23,19.2,64.65,19.59,64.67Zm1.68.93c-.21-.31-.35-.27-.52-.35s-.4-.43-.42-.2.3.27.27.38C20.88,65.28,21,65.59,21.27,65.6Zm-.35.17c-.12.1,0,.25.18.36C21.3,66,21.1,65.92,20.92,65.77Zm.8,0a.4.4,0,0,0-.41,0c.09.08.09.16.27.24Zm.33,0c-.09,0-.45.2-.14.34C22,66.17,22.34,65.84,22.05,65.75Zm1.17.49c.08.05.1,0,0-.1-.13.15-.07.3.13.45C23.48,66.47,23.11,66.36,23.22,66.24ZM7.09,28.69c.15-.2.26-.71.46-.65-.11.4-.32.46-.4.88C7.09,28.87,7.16,28.72,7.09,28.69Zm.33-.19c.24-.25.08.5-.07.59C7.25,28.94,7.57,28.67,7.42,28.5Zm-.8,3.09c-.11-.08-.18-.93.21-1.15a3.13,3.13,0,0,1,0-.59s0,0,0,.11.06,0,.08-.07c.18.36-.61,1.14-.18,1.25C6.79,31.41,6.66,31.36,6.62,31.59Zm1-3.85c.22-.41,0-.52.25-.94.23.11-.09.62,0,.83-.1.12-.44.45-.44.14-.18-.06,0,.42-.15.36s0-.47.14-.68C7.6,27.45,7.51,27.66,7.6,27.74ZM6.43,30.11c.23-.58.24-.86.49-1.48.23.17.2.57.07,1.05-.27.08.1-.41-.06-.43C6.65,29.47,6.77,30.05,6.43,30.11Zm.38,20.66c.09-.05.2.12.17-.05.22.09.09.43-.05.43ZM8,26.12c-.06.26-.28.4-.37.9-.12-.08.14-.44-.07-.46C7.7,26.37,7.81,26,8,26.12Zm2.26-3.06a1.56,1.56,0,0,1-.58,1.1c-.23,0,.08-.16.14-.25A5.64,5.64,0,0,1,10.26,23.06Zm-4.08,8.1c-.16.6.35.17.16.75-.15-.09-.12-.35-.32-.39.11-.38.08-.87.38-.9C6.28,30.89,6.35,31.46,6.18,31.16Zm3.39-6.52c0,.26-.38.76-.53,1.12A2.54,2.54,0,0,1,9.57,24.64Zm-1,.69c-.22.17-.1.27-.29.5-.1-.07.09-.36,0-.44A.27.27,0,0,1,8.59,25.33Zm1-2.32c.12.11.23,0,.34-.25.13.34-.39.67-.44,1.09-.11,0-.24,0-.34.14s.15,0,.21.11a.83.83,0,0,0-.24.31c-.14,0,0-.35-.21-.11-.06-.07.05-.54.22-.54.09-.18-.08-.19.08-.41.13,0,0,.18,0,.32s.13,0,.2,0c.08-.36-.09-.58.14-1,.12.36.16-.07.23-.32.1.05.06.18.16.22C9.83,22.81,9.71,22.73,9.61,23ZM8.8,26.69c-.2.16-.23.54-.35.88-.06.16-.14.17-.2.33s0,.21-.09.38a14.38,14.38,0,0,0-.81,2.52c-.31-.12.07-.64.13-.86s0-.47.12-.66-.08-.13-.11,0c-.12-.14.16-.39.28-.3A17.42,17.42,0,0,0,8.4,27C8.53,26.9,8.64,26.66,8.8,26.69ZM7.18,51.58c.07-.29.38.49.39.69C7.38,52.3,7.34,51.57,7.18,51.58Zm-1,1.61c-.06-.19,0-.43-.13-.6.21-.14.21.65.18.58s.25.44.37.73a3.1,3.1,0,0,0,.32.76c-.09.06-.06.21,0,.42-.28-.23-.23-.7-.41-1.15C6.45,53.64,6.28,53.45,6.2,53.19ZM6.93,52c-.15.13-.17-.31-.34-.1-.06-.16,0-.26,0-.32C6.72,51.71,6.88,51.6,6.93,52Zm-.32-.42c-.07-.27-.33.23-.37-.2.1-.16.32.21.29-.09A.16.16,0,0,1,6.61,51.56Zm-.79.68c.1.3,0,.44.16.6C6,53.17,5.4,52.15,5.82,52.24Zm.93-16c0,.39-.1.36,0,.66-.34,0,.11-.55-.26-.51C6.41,36.08,6.64,36.28,6.75,36.25Zm.57,10.26a5.38,5.38,0,0,1,.33,1.65c.12.4.41.58.38.87-.15.07-.19-.32-.28-.5a3.06,3.06,0,0,1-.23-.43c0-.13,0-.15,0-.2s-.21-.33,0-.47A1.47,1.47,0,0,1,7.32,46.51Zm-.59,7c-.12,0-.21-.27-.31-.43C6.59,53,6.76,53.36,6.73,53.54Zm1.16.61a2.94,2.94,0,0,0,.07.62c-.54-.1-.68-1-1-1.66-.06-.11-.14,0-.21,0,.1-.34-.22-.5-.41-.82s.08-.3,0-.53c.23.27.16.69.44,1,.16.13.35.06.48.36-.08.06-.14-.05-.21,0C7.43,53.57,7.44,54.33,7.89,54.15Zm.56-2.09c.28,0,.42.33.5.73.15.05.53.65.24.72C9,53,8.54,52.39,8.45,52.06Zm52,15.18c.33-.32.92-.78,1.29-1.16A3.81,3.81,0,0,1,60.43,67.24ZM10.75,14.73c.11.18-.19.37-.36.53C10.28,15.09,10.58,14.89,10.75,14.73Zm-.25.78.61-.75C11.25,14.84,10.63,15.69,10.5,15.51ZM10.12,15c-.1-.18.12-.28.3-.46C10.52,14.68,10.27,15,10.12,15Zm5.07-4.18c0-.13.39-.35.54-.52C15.79,10.57,15.42,10.64,15.19,10.85Zm-5.62,4c-.42.66-.76.88-1.11,1.37-.08-.27-.32.37-.4.11.29-.24.46-.54.68-.74,0,0,.07.09.09.08s.25-.36.35-.43-.09,0-.12-.24c.33-.08.37-.45.73-.69.07-.11,0-.09,0,0-.07-.21.24-.19.33-.31.12.06-.31.62,0,.42,0,.26-.42.37-.38.1C9.63,14.59,9.4,14.8,9.57,14.84Zm-.39,2.48c-.13-.19.42-.66.64-1C9.89,16.67,9.33,16.9,9.18,17.32ZM16,9.1c.07.13.24,0,.39,0a.59.59,0,0,0,.06-.28,5.07,5.07,0,0,0,.66-.39c-.13.27.06.18-.1.43-.41.16,0-.07-.14-.2-.3.23-.13.45-.66.75-.17-.29-.26,0-.61.26-.15-.21.13-.49.49-.79C16.2,8.92,16.11,9,16,9.1ZM8.67,16.52c0,.16-.42.41-.57.79C8,17.18,8.45,16.69,8.67,16.52Zm.05-1.39c-.12-.07.23-.32.3-.47C9.17,14.85,8.9,15.06,8.72,15.13Zm8.9-7.34a1,1,0,0,1,.44-.52C18.16,7.42,17.83,7.61,17.62,7.79Zm2.6-1.6a1,1,0,0,0-.32.1c.13-.15.15-.31.49-.46C20.42,6,20.18,6.07,20.22,6.19ZM8.94,17.68c-.82,1.19-1,1.53-1.87,2.72-.26.24.16-.35.3-.57L9,17.42C9.07,17.45,9,17.56,8.94,17.68ZM24.13,4c.43-.2.45,0,.42.15C24.25,4.33,24.27,4.09,24.13,4Zm4.43-2.37c.27-.1.46-.11.47.05C28.76,1.81,28.57,1.83,28.56,1.66ZM24.5,3.16a6.13,6.13,0,0,1,2.08-.76c.34-.07.18-.25.6-.31,0,.05-.09.09-.07.15a4.06,4.06,0,0,0,1.13-.48c-.06.33.34.2.62.19-.18.35-.95.29-1.19.24,0,.24-.41.6-.73.6-.1-.14.37-.17.36-.3s-.34.14-.4.19-.47.22-.63.2c0,0,0-.12,0-.11s-.2.19-.36.28-.17,0-.23,0-.21.24-.5.21a1.6,1.6,0,0,0-.23,0C24.76,3.3,25,2.93,24.5,3.16Zm.47,0c.44-.24.92,0,.78-.45C25.45,2.85,24.93,3,25,3.16ZM17.76,8.78c.06.2-.38.36-.59.46C17.13,9.1,17.59,8.93,17.76,8.78Zm0-.37c-.1.24-.75.49-1,.78C16.82,8.92,17.46,8.67,17.77,8.41ZM31.06,2.8c.16-.24.41-.13.82-.23S31.28,2.73,31.06,2.8Zm-3.47,1a6.23,6.23,0,0,1,1.4-.5L30.11,3c.36-.09.57-.1.12,0C29.57,3.2,28.32,3.54,27.59,3.79ZM59.67,10c.07.37-.64-.42-1-.51.25,0,.62.12.7.39C59.5,9.94,59.62,10,59.67,10Zm1.14,1a6.85,6.85,0,0,0-1-.7C60.15,10.27,60.92,10.71,60.81,10.94Zm.23.82c.19.16-.1.18-.15.19-.19-.15-.17-.27-.3-.41C60.75,11.47,60.86,11.94,61,11.76ZM6.61,21.12a4.51,4.51,0,0,1-.75,1.42A5.51,5.51,0,0,1,6.61,21.12ZM29,2.09c-.08-.51.79-.82,1.53-.72.14-.05,0-.1-.14-.09.27-.25.73-.06,1-.09s0-.08,0-.05A2.39,2.39,0,0,1,32.59,1c.15-.12.61-.14.5-.35A5.61,5.61,0,0,0,34.64.45c.27,0,.28.27.68.23S34.7.62,35.07.34c.22,0,.35,0,.34.08.75-.09,1.74-.15,2.31-.27.24,0,.35.05.34.18.15-.22.78-.23,1.32-.14C39.5,0,40,.07,40.27,0c0,.13-.16.12-.34.12.28.18.7-.09,1,.05.12,0,.06-.06,0-.06.13-.22.18,0,.33.07l.55.05c.18,0,.37,0,.55,0a1.38,1.38,0,0,1,.32.15c.12,0,.29-.13.46-.14s.18.08.32.09.12-.06.23,0a3.27,3.27,0,0,0,1,.14S44.51.39,44.4.38a4.51,4.51,0,0,1,1.47.28c.17,0,.36,0,.55,0a1.53,1.53,0,0,0,.42.14c.16,0,0-.08.14-.09s.54.15.76.14c-.05.09-.22.1-.46,0,.41.17-.2.19,0,.37.09,0,.12,0,.23,0,.33,0-.08-.15.05-.24s.23.07.43.08c0,0,.34-.06.36-.05s.44.27.44,0c.25,0,.13.15.29.2s.22,0,.25-.05a2.07,2.07,0,0,0,1.27.37,4.13,4.13,0,0,0,.79.41c.08-.08,0-.13-.17-.17.21,0,.38.13.76.16.2,0,.14-.18.3-.17.3.18.5,0,.69,0a4.24,4.24,0,0,0,.52.21,20.25,20.25,0,0,1,3.29,1.38c.21.11.63.15.66.41.21.14.2,0,.35.05a12,12,0,0,1,2.67,1.61,1.32,1.32,0,0,1-.56-.32,1.72,1.72,0,0,0-.62-.31c-.24.12.29.3.53.42a.85.85,0,0,1,.24.23c.23.13.4.08.53.2A2.6,2.6,0,0,0,62,6.65c.78.6,1.55.9,1.91,1.51a8.47,8.47,0,0,1,2,1.68c.38-.05.85.71,1.4,1.25s.91.74,1.27,1.1A18.64,18.64,0,0,1,70,13.68c.39.46.66,1,1.1,1.25,0,.34.33.42.56.69s.07.19.15.31c.33.51.85,1.08,1.27,1.68.23.33.36.67.56,1s.34.3.46.51.18.48.31.71a3.47,3.47,0,0,1,.58.95c0,.1.11.05.16.05a3.93,3.93,0,0,0,.37.81,2.38,2.38,0,0,0,.25,1.22c-.08.27-.44-.3-.68-.06-.09.18.22.52.3.7s.07-.07.26,0c.2.36-.12.3,0,.59s.26.23.36.56c-.1,0-.06.17-.18.18.1.37.24.36.35.68-.08.06-.14-.06-.21,0,.18.36.4.65.29.93,0,.12.08,0,.06,0a2.83,2.83,0,0,1,.32,1.25c.11.18.2,0,.16.3a1.25,1.25,0,0,0,.42.55c0,.16-.15.19-.14.37a.76.76,0,0,1,.16.3c.13,0,.11-.22.31-.19.09.26,0,.13-.08.13,0,.31.18.25.22.51s-.37.64,0,.77c.07,0,0-.34-.07-.32,0-.19.22-.17.31-.29a3.45,3.45,0,0,1,.23.84c-.14,0-.11-.59-.28-.5a2,2,0,0,0,.46,1.36c0,.36.27,1,0,1,0,.41.21.28.25.63,0,.2-.07-.06-.1-.21-.17.07-.12.72-.41.39a1.11,1.11,0,0,0,.09.74c.08-.1,0-.35.06-.55.1.17.32-.21.39.28s-.1-.11-.24,0c.05.36.25.45.07.65.08.32.12-.12.24,0a4.3,4.3,0,0,0,.06,1.09c-.07.22-.27-.17-.28.24,0,.18.08.27.16.31s0-.32.08-.33.13.33.18.54c.22-.12,0-.44,0-.77.33.16.15.74.26,1.3-.08,0-.12-.19-.2-.21.19.7-.15.7-.25,1,0,.08.06.1.06.21.19-.16.29-.47.53-.56,0,.25-.11.44-.29.45a.53.53,0,0,0,.19.54.26.26,0,0,1-.24.22c0,.35.14.13.07.66,0,.16,0,.43-.12.43.05.4.18,0,.3.23v-.33c.12.11,0,.79-.17.65a5.37,5.37,0,0,1-.09,1.08c.17-.25.15-1.15.39-.85,0,.31-.17.24-.18.53,0,.09.05.12,0,.23s.13-.13.25-.1a1,1,0,0,0,0-.44c.17-.19.1.69,0,.88-.11,0-.12-.15-.23-.13.07.43,0,1.16-.23,1.29.09.23.21-.07.32-.18.12.62-.43,1.09-.28,1.84,0,.34-.2.1-.19.52s.11.25.1.46c-.22.5-.17.84-.39,1.15,0,.11.11.14,0,.34s.18.19.18.38c.09-.1.14-.07.1.14-.18,0-.31-.39-.43,0s.12-.13.23,0a7.89,7.89,0,0,0-.07,1c-.1.4-.38.62-.5,1.12-.09.24.28,0,.08.37s-.08,0-.14.07-.12.33-.26.26c-.06.45.15.19.25.42a3.16,3.16,0,0,0-.34,1.17c-.19.19-.18-.08-.25-.21-.17.14-.18.65-.3,1.06-.16-.16-.28,0-.22-.44-.09,0-.15.24-.21.39s.21.13.29.23c-.13.31.1.32-.08.68,0,.12.07.12.13.17-.35.63-.52,1.28-.8,1.81,0,.1,0,.11.07.15a7.73,7.73,0,0,1-.48,1s-.09-.06-.11-.05-.17.4-.25.49.07.12,0,.25c.11.21.21-.3.31-.08-.08.52-.43.07-.51.72-.1,0,0-.14-.11-.18-.23.26-.13.63-.36.68,0,.12.06.14.11.19A9.9,9.9,0,0,0,74,59.94c0-.06.17-.28.08-.34s-.46,1.15-.09.47c.09.11-.28.47-.37.68-.08-.11-.18,0-.26,0s0,.08.05,0c0,.34-.75.78-.58,1.08-.16.31-.28.1-.46.49.07.12.18-.07.28-.21,0,.17-.36.53-.48.61s.27,0-.06.37c-.12.21-.2.12-.28.06-.26.26-.32.63-.56,1,0,0-.12.07-.18.13s-.07.19-.1.21c-.17.21-.5.57-.77,1-.12.16-.36.44-.5.6s-.26.49-.54.55a.71.71,0,0,0-.36.27.76.76,0,0,0,0,.16s-.75.36-.59.68l-.91,1c-.08.09-.3.37-.28.35s-.21,0-.34.12-.1.35-.43.35c0,.12-.09.24-.14.36L64.3,71.43c-.62.5-1.24.95-1.8,1.42a.52.52,0,0,1-.28,0A7.12,7.12,0,0,1,61,73.93l-1.39.87c-.27.12,0,.25-.32.37,0-.19-.23-.15-.43-.11,0,.21.32,0,.33.16-.24.14-.48.27-.55.16a.29.29,0,0,0-.1.32,8.76,8.76,0,0,1-1.74.82.76.76,0,0,0,.05-.74c-.23.06-.16.16-.13.25-.3.09-.38-.09-.55-.16-.46.32-1,.29-1.19.62-.22.13-.19,0-.35,0s0,.14-.16.2c-.35.19-.42.09-.75.21-.1-.09-.23-.16-.58,0-.19.26.88-.21.26.1a2.43,2.43,0,0,1-.42.14,3.42,3.42,0,0,0-.39.24c-.19.07-.25,0-.45.08a13.06,13.06,0,0,1-2.33.72c-.13,0-.07.13-.07.2a4.56,4.56,0,0,0-2,.59,3.74,3.74,0,0,1-.55.05c-.21,0-.25.17-.32.19s-.16-.08-.23-.08-.51.12-.55.13a3.44,3.44,0,0,1-.67.13c.05.08.29,0,.46,0s-.74.12-1,.17c.24-.18-.35-.15.08-.31-.11-.15-.19.18-.55.12-.14.15.31.2,0,.24s0-.09-.24-.15-.12.16-.21.2-.6,0-.44.17a6.51,6.51,0,0,1-1.58,0c.05-.19-.25-.23,0-.36a7.14,7.14,0,0,0-2,0,.12.12,0,0,0-.11.12c-.94.13-2-.25-2.47-.06-.48-.09-1.2-.26-1.25,0a3.83,3.83,0,0,0-.9,0c-.22,0-.48-.15-.66-.17a2.52,2.52,0,0,0-.35.06,14.66,14.66,0,0,1-1.46-.21c-.39-.05-1.07-.2-1.68-.26-.38-.06-.68,0-1-.1a7,7,0,0,0-1.22-.29c.14-.15,0-.24,0-.38.39.17.3-.15.61-.07-.05-.18-.36,0-.65-.19.33-.1.52-.4.1-.65-.05,0-.26,0-.35,0s-.73-.23-1.16-.36-.62-.05-1-.32c-.3.11-1.35-.37-2-.56-.22-.06-.36,0-.59,0a8.06,8.06,0,0,1-1.66-.92c.17-.18-.13-.35-.09-.52-.5-.36-.35-.73-.76-1.08.3-.09.11-.21-.13-.41.5-.07,0-.49.06-.71.14.09.19,0,.31.09s-.21-.16-.34-.24c.3,0,.14-.15.43-.11.09-.07,0-.14-.12-.2.14,0,.16-.11.31-.11S22,72,22,72s.1-.26.25-.21.06.13.15.15a.64.64,0,0,0,.52-.07c.29.21.39.11.66.28.11,0,.13,0,.17-.11.33.43,1.21.86,1.42,1.27l.77.31c.18-.32-.1-.57-.06-.86.64.2.1-.36.42-.42l.36.15c.06-.13-.08-.23.06-.37.48.24.56.26,1,.46a.49.49,0,0,0,.28.37c.32.11.05-.15.24-.09l.37.15-.08.22c.38.1.59.4.77.2,0-.09-.61-.06-.41-.31l2.93.86c.13,0,.18-.06.32,0,0-.13-.12-.21,0-.37.47.08.46-.11,1,.09.14-.16-.19-.15-.35-.19s.19-.05.3,0c.64.19,1.8.18,2,.55a.92.92,0,0,1,.79,0c0,.08-.28,0-.3.06s.08.08.07.14c.24,0,.47,0,.52-.18a10.23,10.23,0,0,0,1.74.15c-.52.13.39.17.48,0a8.79,8.79,0,0,0,1.83.06c.71-.06,1.52,0,2.28,0a7.54,7.54,0,0,0,2-.34c.18,0,0,.1,0,.18s.17,0,.2,0c.28,0,.22-.13.47-.17s.42.08.6.06.23-.19.46-.2.31,0,.31.12c.19-.12.19-.31.64-.32,0,.07-.19.08-.17.16s.4-.09.68-.08c0,0,.19.08.21.08a13.72,13.72,0,0,0,1.89-.51.51.51,0,0,0,.14-.23c.42.09,1-.27,1.49-.46l.05.17c.2-.11.5-.19.51-.34.3,0-.06.18,0,.25a1.2,1.2,0,0,0,.59-.39,3,3,0,0,0,1.22-.63c.14,0,.26,0,.4,0a32.57,32.57,0,0,1,4-2.25,3.33,3.33,0,0,0,.48-.52,6,6,0,0,0,1-.54l.13.2c.24-.28.59-.82,1-.8,0,.2-.42.28-.57.38s0,.34-.35.53a.59.59,0,0,0,.39-.12c-.21.26.08.39,0,.57-.16.41-.68.57-1,1-.17.08-.37.22-.42.06-.11.1-.18.2-.29.29.07.09.22,0,.41-.08a2.66,2.66,0,0,1-1.06.57c0-.22,0-.16-.23-.22-.21.13-.19.36-.5.33,0,.06,0,.11,0,.16.11.15.69-.47.71-.17a5.42,5.42,0,0,1-1.09.51c-.32.22.08.19-.05.37.28-.14.44-.4.71-.38a.27.27,0,0,1-.07.31.46.46,0,0,0,.35,0c.28-.27-.23-.06-.23-.22.21-.07.14-.16.1-.25.25-.19.36-.12.57-.23,0,.08-.21.16-.33.24.26.16.46-.29.56-.44A1.48,1.48,0,0,1,59,70.7c.16-.13-.12-.27.22-.42a.63.63,0,0,1,.41.09c.08-.13,0-.25.13-.37.38-.28.85-.59,1.34-.91l.76-.49c.25-.18.48-.38.72-.58s0-.21.12-.33c-.1,0-.23,0-.38.15.1-.32-.31-.23-.47-.3l.15-.13.15-.13c0,.24.15.33.45.1-.05-.19-.31.16-.33-.11a1.13,1.13,0,0,0,.73-.68c-.22,0-.29.25-.46.38a4.51,4.51,0,0,1-.84.37c.06-.15.09-.48-.21-.29a4.05,4.05,0,0,0,.49-.79c.18-.2.23,0,.38-.15s.35-.35.56-.54.17,0,.26-.14c.26-.21.4-.42.62-.62.44-.37,1.26-1.26,1.71-1.71.12-.12.46-.23.37-.45.14-.22.21-.07.34-.21s.08-.18,0-.23c.16-.28.23,0,.38-.18s.23-.52.49-.61c.07-.09,0-.13-.07-.19a3.28,3.28,0,0,0,.89-.9.46.46,0,0,0,0-.26c.34-.41.83-1.2,1.4-2,.27-.43.59-.86.82-1.32s.45-.92.64-1.33c.12-.25.14-.47.26-.74A6,6,0,0,0,71.72,53c-.23.44-.28.25-.1-.25-.11.29.79-1.81,1-2.59,0-.15.11-.13.14-.25s0-.44.13-.67.16-.33.19-.44-.06-.42.13-.86a1,1,0,0,1,.19-.24c0-.15-.06-.35,0-.51A.76.76,0,0,0,73.5,47c0-.24,0-.51,0-.78s.28-1.24.3-1.59c0-.11-.14-.12-.06-.3.1,0,.08.1.16.12,0-.17,0-.21,0-.38s-.11,0-.14.07,0-.29.16-.17a1.42,1.42,0,0,1,0-.58c0-.07-.07-.53-.06-.67s.1-.36.11-.57c0-.57.05-1.29.07-1.8,0-.25-.12-.53-.13-.77s0-.16.06-.28a7.34,7.34,0,0,0-.07-.76A3.35,3.35,0,0,1,74,38a4.26,4.26,0,0,0,0-.57c0-.09-.12-.25-.13-.28s0-.16,0-.29-.09-.2-.1-.37,0-.39,0-.58a3.54,3.54,0,0,1-.22-1.5,5,5,0,0,1-.41-1.29c0-.13,0-.33,0-.47-.24-1-.6-2-.81-2.83,0-.18.07-.38-.11-.56-.06,0,0,.18,0,.29-.16-.17-.44-1-.19-1-.16,0-.13-.2-.28-.51a2.23,2.23,0,0,1-.41-.75c.1-.09.16.08.22.22,0-.07.12-.28.21,0,.14-.12-.14-.17-.15-.36a.27.27,0,0,0,.26,0c-.06-.27-.17-.2-.24-.42.27,0,.16-.38,0-.51-.14.19,0,.58-.22.7-.14-.1-.26-.33-.41-.35,0-.15.16-.21.17-.37s-.35-.11-.19.17c-.32-.23-.11-.61,0-.72-.19-.11-.33-.47-.57-.28,0-.12-.09-.25-.16-.23,0-.23-.19-.6,0-.72.14.21.24.41,0,.41l.18.43c.24,0-.11-.45.13-.47.17.25.12.22.12.47.18-.11,0-.46.15-.59-.11-.28-.39-.29-.36-.57.25-.12.74.42.82.26.19.16.15.51.39.79-.18-.11-.07,0-.22.09.15.43.44,0,.59.49.1.24,0,.13-.07.14.05.21.16.09.22.23.24.38,0,.41.19.76s.06-.24.24-.19c-.07.09.19.43.08.49.11.21.11-.15.09-.24.21.19.19.67.44.89.14-.24-.2-.3-.23-.54.12-.09,0-.46.21-.29-.1-.44-.3-.3-.42-.69s.11-.12-.13-.48a2.26,2.26,0,0,1-.3-.41,2.8,2.8,0,0,0-.11-.71c-.18-.29.09.26-.12.16a1.59,1.59,0,0,1-.35-.7c-.1-.27-.21-.49-.34-.51a1.1,1.1,0,0,0-.22-.67c.37,0,.14.55.43.68,0-.4,0-.89,0-1.32-.34-.23-.16.37-.08.6-.22.06-.38-.68-.61-.37-.08-.14-.08-.24,0-.31-.22-.08-.42-.53-.62-.91.12,0,.22.38.34.26a5.07,5.07,0,0,0-.17-.7c-.14-.21-.28-.07-.42,0-.1-.21-.46-.56-.39-.69.23-.17.18.4.44.44.08-.38-.38-.45-.45-.78-.1,0,0,.17-.15.21l-.49-.74c-.06-.33.36.61.48.39s-.47-.55-.66-.87c.13.55-.38-.41-.59-.68s.32.39.43.54c.13-.26-.37-.68-.57-.81a1.65,1.65,0,0,0-.77-1c0,.19.42.55.58.8-.1.09-.25-.25-.37-.34-.23-.28-.47-.63-.65-.62a6.08,6.08,0,0,0-1-1.37c-.08-.06-.13,0-.23-.06s-.16-.28,0-.37c-.61-.34-.68-.86-1.2-1.2-.05-.23.12,0,.25-.1-.13-.1-.09-.16-.18-.25s-.21,0-.12.12c-.37,0-.56-.44-.92-.63-.06.06-.12.11,0,.2-.26-.07-.38-.38-.73-.52.25,0,.25-.22.08-.4.17-.09.13.18.31.25.1-.08.07-.19-.11-.32-.37-.24-.17.27-.43.19a3.3,3.3,0,0,0-.77-.79l.11-.14c-.38-.31-.63-.24-1-.62.21,0,0-.2-.05-.25s.2-.16,0-.3.2.34-.08.44c-.36-.18-.1-.34-.48-.53-.13-.06-.07.08,0,.16-.27,0-.32-.29-.55-.44s-.51-.21-.73-.34-.36-.35-.58-.39c0-.1.13,0,.18-.09-.25-.19-.43-.06-.54-.29,0-.13.28.11.35,0-.28-.26-.31-.05-.57-.22,0,.16.28.35.15.51-.05-.07-.31-.15-.34-.2s.18,0,.15-.06a1.89,1.89,0,0,0-.73-.72c-.27-.08.2.25-.12.21l-.65-.48.09-.16c-.16-.17-.21-.09-.36-.19s-.24-.36-.56-.22c.16.14.48.48,0,.25.08.21.66.38.94.57-.07.2-.45-.11-.68-.22L55,7.39l.14-.27c-.37-.2-.54-.14-.49.09L54.06,7c.06-.05.2,0,.26-.09-.44-.13-.53-.32-1-.46,0,0,.12,0,.15-.07-.7-.36-1.12-.44-1.76-.77-.14.16-.45.12-.93-.06-.06.24.57.07.71.36a6.33,6.33,0,0,1-1.06-.27c0-.11.11-.09.23-.06-.32-.16.09-.21-.1-.34-.43-.18.09.19-.25.11S50.18,5,49.69,5c-.18,0,.09.25-.18.26-.19-.22-.85-.13-.54-.29a5.45,5.45,0,0,1-1.38-.3c-.21.26.38.21.64.34-.14.2-.42-.09-.69-.1s-.37.08-.62,0c-.05-.22.18-.17.44-.11,0-.13-.22-.17-.47-.21.09-.14.18-.18,0-.31s.06.28-.26.26c-.14.13.37.28,0,.31s-.11-.06-.07-.13a6.17,6.17,0,0,1-1.17-.22c0-.3.48.18.52-.09-.18-.2-.28-.09-.57-.23s0,.2,0,.18c-.13.19-.35-.11-.34.18-.35-.11-.64,0-.88-.12-.25.17-1.13,0-1.89-.05-.42,0-.46.05-.78-.12-.11,0-.08.11-.21.1-1.27-.08-2,.16-3.06,0-.11,0-.07.12-.2.13s-.22-.13-.49,0c-.12-.22.2-.22.28-.32a1,1,0,0,0,.9.11c-.06-.18-.36,0-.6-.11-.06,0-.06-.17-.1-.18a2,2,0,0,0-.61,0c-.11.21.33,0,.21.22s-.74.28-.28.33c0,.09-.87.24-.79,0a6.27,6.27,0,0,1-2.06.29c-.9.15-2,.48-2.69.66-.25.09-.22-.08-.41,0a1.91,1.91,0,0,1-.49.11c-.14.07-.09.24-.44.26-.23-.14.13-.16.24-.26s.09-.2.15-.24.58,0,.47-.16-.13.07-.29.06-.14-.29-.43-.07c0,.15.43-.16.33.09a13.71,13.71,0,0,1-1.46.32c.06.21.63-.15.81-.06s-.16.25-.1.41a10.89,10.89,0,0,1-2.49.64,4.24,4.24,0,0,1-1.7.84c0,.24.21.23.48.13,0,.14-.38.21-.39.35s.26-.1.36-.15c.3-.13.65-.19,1-.35.09-.06,0-.14.14-.19A1.06,1.06,0,0,1,28.19,7c.2-.1-.14-.06,0-.2.67-.08,1.32-.51,2-.55-.2.28.55,0,.64.18.25-.06-.17-.3.22-.32,0-.06-.18,0-.29,0-.31,0,.14-.13.26-.15a1.61,1.61,0,0,0,.71,0c.06-.19-.23-.06-.41,0,0-.2.27-.1.47-.15a11.05,11.05,0,0,1,1.51-.38c.07.12-.11.14-.26.18.22.25.53-.13.65-.26.77-.15.88.15,1.57,0,0-.24-.47,0-.69,0,.7-.37,1.7-.17,2.31-.31.07,0,.17-.14.19-.14s0,.12,0,.12c.2,0,.41-.17.58-.18.38,0,.48.19.79.17.11,0,.08-.11.09-.18a11.07,11.07,0,0,1,2.34,0c.12,0,0-.07,0-.06A2.65,2.65,0,0,1,42.34,5a3.15,3.15,0,0,0,.6-.13,12.94,12.94,0,0,1,1.32.22c.46.11.92.29,1.34.43.08.3.33.43.26.66a12.47,12.47,0,0,1,2,.39A.37.37,0,0,0,48,6.42a1.06,1.06,0,0,1,.45.19c.22,0-.06-.18-.14-.22-.4-.19-.57.08-.85-.18a1.54,1.54,0,0,1,.88.06.26.26,0,0,0-.15-.17c.08-.09.15,0,.19.06s.22.13.11.28c.12,0,.26.06.37.11a.79.79,0,0,1,.24.19c.17,0,.24-.13.5,0,0,.22.47.29.43.5.31,0-.06-.25.19-.25s.42.2.22.25c.29-.13.61.37.69,0s-.48,0-.45-.17.43,0,.58.09.27,0,.31,0A3.17,3.17,0,0,1,53,7.91c.28,0,.62.3,1,.4a2.49,2.49,0,0,0,.6.09c-.3-.36-.73-.25-1.06-.47.25-.12.62,0,.88.18a7.35,7.35,0,0,0,1,.59c0,.21-.28,0-.37.08.29.09.51.05.8.15.1.25.34.23.71.51.11-.13-.51-.21-.25-.34.27.12.63.41.74.26.17.18.45.37.44.59.14,0,.33.16.37,0,.25.08.24.38.35.16.3.2.2.38.32.57s-.15-.23.09-.3c.45.54,1,.65,1.5,1.07.1,0,.17-.06.31.06-.36.06.12.21.05.42.15,0,.72.35.63.13.2-.09.11.18.19.23.25.13,0-.21.23-.12.69.64,1.42,1.08,2,1.59.12.1.08.16.17.25s.42.22.63.46c.07.08.2.22.19.36.27.23.59.54.88.79a3,3,0,0,1,1.25,2.11c-.21.13-.35.28-.2.52-.1.05-.21,0-.34-.22,0,.23-.49.12-.2.51-.23-.22-.43,0-.62-.1s-.2-.31-.27-.13a6.15,6.15,0,0,0-.86-1.2c-.34-.36-.69-.72-1-1.09a3.61,3.61,0,0,0-.24-.41c-.16-.18-.39-.28-.56-.49s-.1-.19-.23-.3-.52-.18-.57-.47c-.09-.05-.13,0-.23,0s-.4-.29-.57-.47a1.15,1.15,0,0,1-.14-.26c-.07-.07-.19,0-.29-.09s-.31-.35-.46-.46-.22-.06-.36-.14a2.73,2.73,0,0,1-.74-.56c-.12-.1-.17-.06-.22,0a12.56,12.56,0,0,0-1.77-1.18c-.11-.18.27-.13,0-.36-.29-.07,0,.26-.24.21A16,16,0,0,0,55,10.2a.29.29,0,0,1,.31,0c-.17-.34-.49-.08-.5-.05-.4-.16.19-.08-.08-.25s-.19,0-.24.07l-.58-.3c-.08-.18,0-.06.11-.21l-.25-.14c-.19-.05.2.39-.27.14s.05-.07,0-.25c-.24-.09-.13-.16-.35-.14s-.14.22-.23.29l-.6-.24A.24.24,0,0,0,52.53,9c-.14,0-.45-.18-.44.08-.49-.14-.69-.34-.76-.57s-.5.12-.43-.17c-.26-.05.11.3-.32.06a.27.27,0,0,0,.13.18c-.05,0-.86-.09-.57-.32-.27-.08-.29.14-.59,0l.06-.17c-.09.08-.3,0-.41.06-.26-.07-.29-.22-.37-.35-.1.25-.7,0-.85-.06s.16.15.25.13c-.53,0-1.07-.38-1.7-.41A1.25,1.25,0,0,0,46,6.79c-.27-.1-.21.13-.48,0,.23.27-.34.21,0,.37-.13.11-.64-.14-.5.21a6.47,6.47,0,0,1-.85-.09l-.91-.09a16,16,0,0,0-1.69-.15c.07-.22.55-.06.92,0a3.62,3.62,0,0,0,.92,0c-.17-.1-.45-.14-.52-.29-.37-.07-.26.24-.58.2V6.84a1.85,1.85,0,0,1-.9-.26c-.1,0-.07.11-.19.1a3.53,3.53,0,0,0-.65,0c-.22-.08,0-.12-.18-.18-.36,0,0,.09-.19.18s-.57,0-.46.19c-.56-.12-1.39,0-1.84,0a7.38,7.38,0,0,1,1.47-.07c.11-.09.27-.15.28-.3-.24,0-.4,0-.37.18-.35-.12-.61.06-1.11,0,.11-.08,0-.09,0-.18-.79.07-1.55.25-2.58.36-.23-.06.15-.2-.12-.23s.17.3-.43.29c-.21-.13.09-.33.33-.4-.1-.21-.63,0-.45.23-.18,0-.33.07-.18.08l-3.08.6a28,28,0,0,0-3,1c-.09,0,0,.07,0,.05a9.6,9.6,0,0,0-.93.42c-.12-.16.28-.21,0-.26s-.37.11-.45.12c-.25,0,.31-.13.39-.29-.36.07-.67.08-1.05.18,0,.29-.25.54-.49.78-.22.06-.46.14-.52,0a13.31,13.31,0,0,1-1.65.91.27.27,0,0,1-.19-.17c-.19.07-.12.16-.09.25a12.58,12.58,0,0,0-1.33.7c-.69.47-1.45.8-2.05,1.16-.3.17-.5.47-.75.42-.09.09-.05.18-.15.28A.88.88,0,0,1,19,13c-.42.66-1.37,1.07-2.22,1.93-.26.06,0-.18-.14-.29-.31.34,0,.54-.47.9,0-.14.09-.3-.11-.4-.27.22-.09.44-.43.52,0-.13.29-.35.21-.47-.25.06-.2.5-.59.76-.14-.09,0-.23.14-.4-.27,0-.16.32-.36.45-.11-.07-.32.29-.43.26-.11.26-.16.69-.38.84,0-.13-.1-.22-.09-.35s.19-.1.3-.24c-.17-.24-.5.28-.59.5-.15-.1,0-.3-.15-.4,0,.16,0,.3-.07.47s-.32.16-.48.21c.14-.18.34-.53.56-.84a1.45,1.45,0,0,1,.78-.58c.13-.18-.15,0-.06-.19.31-.28.68-.76.94-.86.07-.07,0-.11,0-.16.4-.41.79-.55,1-1,.32,0,1-.77,1.26-1.11.2,0,.52-.25.79-.42-.12-.19-.43.1-.64.14,0-.27.17-.12.39-.32s-.1-.2-.11-.3a1.58,1.58,0,0,0-.66.93c-.5.37-.87.69-1.22,1s-.61.6-1,.88c.12-.22-.09-.37.11-.62-.12-.07-.38.38-.51.34.06.11.14.12.26,0,.11.15-.28.43-.48.65-.07-.06-.12-.19-.24-.1-.3.22.17.24-.23.48,0-.26,0-.23-.28-.14-.09.15,0,.15.16,0,0,.07-.2.22-.13.29-.24.1-.45.23-.47,0-.31.27-.15.41-.52.75s-.39.07-.63.39-.26.56,0,.55c-.36.43-.45.71-.28.81-.14.25-.23.15-.36.35-.13,0,0-.18.09-.31-.14-.1-.32,0-.49.13-.17.37-.12.29-.44.55-.23,0,.16-.29-.07-.31s-.15.23,0,.24a6.13,6.13,0,0,1-.46.79.27.27,0,0,0,.3.09,1.69,1.69,0,0,1,.34-.62c.19.23.47-.31.68-.1-.71.89-1.7,2.63-2.36,3.44-.23-.15.05-.25.15-.38C9.78,21,10.47,19.9,11,19.19c-.24.16-.5.6-.74.57-.22.26.13.25-.13.52-.09.21-.17.06-.26.19s-.05.28-.07.31-.12.08-.16.14,0,.17-.06.2c-.25.37-.57.59-.67,1.11-.06.16-.13.14-.2.11-.1.29.16,0,.21.13-.11.22-.23.14-.34.26s.16.15.21.24c-.33.71-.59,1.39-.91,2,0,.09-.17.08-.2.12s-.11.42-.17.58-.24.44-.17.58-.13.23-.22.22c0,.53-.67,1.5-.75,2.27-.21,0,0-.29-.14-.37a2.79,2.79,0,0,0,.37-.93c.05-.18-.19-.16,0-.44-.3.22-.11.6-.22.89-.17,0-.25.62-.45.47,0,.2.28,0,.29.32s-.15.22-.2.46c.15.15.16-.18.23-.35.1.19,0,.7-.11,1a6.3,6.3,0,0,1-.22.76,1.07,1.07,0,0,1-.2.25c0,.11.07.16.06.22,0,.22-.24.34-.11.59,0,.17-.09.17-.17.16-.08.28.07.33,0,.61-.1,0-.11-.2,0-.42-.13,0-.19.27-.31.34,0,.23,0,.47.17.44-.06.06-.26.55,0,.51s0-.4.13-.69c.07.11,0,.34,0,.52.19,0,.21-.5.4-.52a.8.8,0,0,1,.27-.74c.11.08-.31.36,0,.5.07,0,.09-.18,0-.2.2-.27.29.54.42-.19.24.11-.28.73,0,.89a6.36,6.36,0,0,0,.4-1c0-.28-.18.08-.29-.08.11-.22.3-.17.45-.27s0-.41.16-.55c.22.42-.26,1-.24,1.6-.08-.06,0-.3-.2-.24-.12.35.23.22.07.6.07,0,.11,0,.14-.06.06.33.06.73.33.84,0,.3-.15.27-.2.44a8.18,8.18,0,0,0-.12.93c-.13,0-.17-.11-.12-.31-.35.23-.16,1-.52,1,0,.41.34,0,.43-.13.13,0,0,.34,0,.48-.16-.31-.27.11-.43.13.06.48.32.7.24,1.36,0,.25-.14.17-.2.26s0,.1,0,.2.18-.26.23.11c0,.2-.1.17-.19.17a5.94,5.94,0,0,1,.15,1c0,.24-.19.25-.12.65.07,0,0-.17.06-.28.18.28,0,1.32.14,1.88-.06.19-.31.08-.3.38,0,.14.08,0,.18,0a7.58,7.58,0,0,0,.22,1.49c-.17,0-.27.15-.19.49.05-.06,0-.22.16-.2.09.18-.1.16-.1.2,0,.2.21.41.07.66-.24-.29-.12-.62-.24-1.12,0-.22-.23-.16-.23-.46.26.28,0-.69.08-.86l-.19-.27c0-.25.25-.25.36-.39-.18-.28.14-.33,0-.76-.36-.13-.24.59-.54.29.11-.25.22-.48.48-.47,0-.41-.17-.44-.24-.19-.1-.07,0-.22.06-.19a1.33,1.33,0,0,1,.11-.66c0-.18-.28-.15-.18.09-.19-.13.11-.42-.07-.57S6.08,39,6,39c.08.17,0,.61.19.58.06.38-.18.28-.11.66-.13.06-.09-.18-.18-.19s.06.17.06.19-.13.16-.12.29S6,40.81,6,41s.15.07.24.09c0,.38-.16.44-.24.67s.17.27.26.37-.21.32-.3.5c.26.17.32.74.43,1.21-.23-.07,0,.38-.06.58s.34.15.31.63a.81.81,0,0,1-.15-.26c-.13,0,0,.42,0,.47s.11-.13.16-.21c.15-.29,0-.46.21-.32l-.09-.84c.22.14.08.58.16,1s.22.89.29,1.48c-.2,0-.2.13-.34.15,0,.5.18.7.17,1.13-.14,0-.24-.12-.31-.32-.13.3.29.37.37.6s-.17.28,0,.6c.07.17.23-.08.11-.32.32.12,0,.35,0,.58.19.35.24.06.44.18.08.37-.29,0-.21.35.16,0,.2.45.4.29,0,.3.3.75.05.57.11.24.15.75.31.8,0,.18-.1.05-.17.06,0,.31.22.06.31.19-.17.23.18.22.27.71-.13,0-.26-.12-.39-.16a19.43,19.43,0,0,0-.73-2A9.34,9.34,0,0,1,6.82,48c-.05-.12-.11,0-.1.12a6.23,6.23,0,0,1-.31-.92c0-.08.08-.19.06-.3s-.1-.22-.1-.18c0-.16.2.09,0-.4.4.1.22.64.37.91a4,4,0,0,0,0-1.74.29.29,0,0,0,.2.07c-.14-.37-.33-.17-.5,0,0,.42.27.28.32.63-.28,0-.63-.33-.56.28-.07-.38-.27-.82-.36-1.3a4.82,4.82,0,0,1-.1-1.46,4.46,4.46,0,0,1-.29-1.53c0-.18-.23-.07-.19-.38a.67.67,0,0,1,.42-.3c-.06-.46,0-.37-.07-1-.13,0-.16.07-.24.1.13.15.11.54.25.67-.38.6-.53-.38-.43-.87,0,0,.12.12.12.1s0-.58-.13-.49c0-.28,0-.72,0-1.2s0-1,0-1.44c0-.6.14-1.23.15-1.75a5,5,0,0,1,0-.9,1.88,1.88,0,0,0,0-1c-.21,0-.24.54-.46.52,0,.45-.15,1.16-.4,1.25.21.13.28.45.29.84.17.11.17-.12.31-.06,0,.61-.36.28-.49.14,0,.09,0,.5-.13.79s.23-.13.29.13c.11,0-.16-.49.06-.69.07.1.09.28.21.32a15.52,15.52,0,0,0-.14,2.65c-.12.31,0-.61-.19-.5s-.11.33-.11.59.23.09.19.4c-.19-.24-.23.13-.18.3s.27,0,.06.2a.6.6,0,0,0-.11.69c.12-.1.09-.44.29-.4,0,.31-.15.27-.17.5,0,.08.06.1.06.2.16.06.12-.21.18-.3s.06.28.06.29c0,.23.11.23.13.39,0,.43.07,1,.15,1.56-.19-.23-.09-.37-.14-.77-.16,0-.09.33-.06.59-.17,0-.2.24-.26.42.14.31.13-.27.35-.13.11.57-.31.43-.4.74a3.83,3.83,0,0,1,0,.91c0,.18.2,0,.26.16.13.5-.19.45,0,1-.28,0-.17.41-.47.38.09-.36-.21-.68-.37-.86-.07,0,0,.25,0,.4a.27.27,0,0,0-.26-.06Q3.81,46,4,46c0-.15-.29-.21-.12-.29s.11-.11.15.18c.07-.2.3-.14.38,0,.14-.16-.18-.32-.15-.59.14,0,.21-.19.41-.15,0-.31-.31-.06-.35-.37-.16,0,0,.4-.2.33,0-.15-.13-.51,0-.51A.84.84,0,0,1,3.9,44c.21.16.38.09.25-.43.11-.28.19.25.3,0a.56.56,0,0,1-.17-.49c.11,0,.1-.09.1-.21.14,0,.38.17.48,0-.08-.17-.26-.11-.24-.48.23-.14.16.31.39.17,0-.38-.2-.24-.29-.38s.27,0,.17-.4c-.06-.05-.22,0-.3-.29-.14.09.17.24.07.6-.17-.15-.11.22-.16.3s-.13,0-.18,0,0,.26-.15.21a.93.93,0,0,1-.11-.5c.07,0,.1.17.19.19,0-.25,0-.41-.14-.49-.29,0-.22.53-.11.91-.17.11-.13-.22-.17-.4-.13.2-.25.31-.42,0-.06,0,0,.21-.1.21,0,.26.27.33.13.61-.27-.06-.28-.92-.29-1.53a5.15,5.15,0,0,1-.07-.94s.1.32.07.42c.12-.33-.06-.35-.07-.62a.54.54,0,0,1,.12-.31c0-.18-.16-.32-.19-.52s.06-.23.05-.42c0-.34-.15-.79,0-1,.3.1.37.51.27,1,.21,0,.13-.46.19-.81s-.08-.12-.23-.12c0-.2,0-.32-.09-.32,0-.18.1-.51-.09-.42s.06.39-.1.51a8.73,8.73,0,0,1,.08-1.66c0-.13-.09-.27-.09-.43a10.39,10.39,0,0,1,.14-1.56,18.23,18.23,0,0,1,.4-2.15s.1,0,.11,0,0-.31,0-.42c.36.31-.09-.25.17-.71,0-.12-.09-.12-.15-.15.13-.41.22-1,.43-1.07.12-.31-.11-.28.06-.64q.33,0,.12.48c.17.06.25-.25.34-.55-.15-.13-.24,0-.37,0a33.33,33.33,0,0,1,6.85-13,14.63,14.63,0,0,1,1.5-1.74c.12-.11.08-.17.17-.26.27-.24.78-.7,1.23-1.14.24-.24.41-.54.69-.78a25.48,25.48,0,0,0,2.17-1.79c.18-.16.36-.38.58-.59a2.1,2.1,0,0,1,.85-.46,3,3,0,0,1,1.12-.75c-.09,0-.23.08-.27,0,.71-.34,1.09-.83,1.95-1.22,0,.09-.12.17-.1.25.41-.14.14-.3.35-.45s.18.2.14.26c.24-.16.32-.33.56-.5a2.91,2.91,0,0,0,.83-.44c.16-.09.34-.11.48-.19a3.14,3.14,0,0,1,1.09-.63,1.36,1.36,0,0,1,.34,0c.17,0,.17-.29.48-.2.31-.17,1-.66,1.46-.86a.9.9,0,0,1,.41-.09c.18,0,.19-.13.38-.18s.24,0,.33,0,.17-.12.28-.15c.44-.12,1.13-.24,1.52-.4.17-.07.26-.19.47-.27a1,1,0,0,0,.32,0,2.38,2.38,0,0,1,.91-.25c.22,0,.46-.21.69-.27s.23,0,.42,0a17,17,0,0,1,2.36-.51c.17,0,.18,0,.32,0,.7-.1,1.31-.29,1.76-.31.22,0,.15.06.31.09a10.88,10.88,0,0,1,1.67-.16c.07.06.25.06.21.17.13,0,.09-.11.11-.18.68,0,1.18-.29,1.67,0,.38,0,.38,0,.84,0,.12.08.29.13.19.32.46,0,.14-.13.33-.22.49,0,.49.2.93.2.19,0,.08-.19.23-.22.51.16,1.26,0,2,.24.22.06.46.2.7.25.63.14,1.83.11,2.14.46a.48.48,0,0,0,.25-.11c.63.34,1.1.15,1.81.52.24-.2.43,0,.87.06.06,0-.11-.21-.15-.23s-.21.06-.34,0-.17-.13-.28-.15-.31,0-.44,0-.36-.16-.6-.23a6.76,6.76,0,0,1-1-.29,1.71,1.71,0,0,1-.28-.18c-.11,0-.48,0-.74-.08s-.4-.06-.84-.15-.87-.19-1.45-.27c0-.1.11-.08.13-.16-.32-.07-.69-.07-.6-.27-.13,0-.11.1-.13.17S44.83,2,45,2a3.06,3.06,0,0,1-1.59-.09c-.25-.11-.35.2-.43,0s.06-.11.23-.16,0-.13.23-.1.1.07.21.07-.2,0-.33,0c.32.19.7,0,1.05.15.21-.32-.82-.09-.59-.41-.6,0-.81.3-1.51.11-.17.24.49.11.39.33a2.75,2.75,0,0,1-1.15-.22c.19-.07.79,0,.45-.26-.21,0-.11.23-.44.15.11-.35-.7-.28-.85-.09.09.11.33.11.63.13-.11.21-.53,0-.85.05.25-.24-.19-.24-.41-.36-.13.24.37.21.09.36-.28,0-.26-.25-.63-.23s.17.09.21.12c-.52.07-1.16.1-1.84.12s-1.4.14-2.08.21c-.12,0-.6-.1-.73.14a8.35,8.35,0,0,0-1.17,0c-.42.07-.81.17-1,.22.12-.23.68-.27,1.13-.34a12.68,12.68,0,0,0,1.69-.24c0-.21-.31-.12-.14-.35-.38.1-.58,0-.75.08a4.92,4.92,0,0,0,.55.06c-.22.33-.65,0-1.07.12,0,.15.48-.09.34.14a14,14,0,0,0-2,.32l-2.17.44C29,3,27.51,3.45,26.28,3.91c-.16.08-.35.08-.51.15s-.36.23-.57.31-.85,0-1,.35c-.09-.11-.42.1-.56,0s-.06.15,0,.11A27,27,0,0,1,21.15,6.3c-.42.21-.84.41-1.22.63a7.74,7.74,0,0,0-1,.75c-.14.07,0,0-.06-.1a6,6,0,0,1-1,.82c-.08-.14.3-.31.23-.44-.29.18-.56.63-.87.65-.14-.22.42-.2.35-.45.27-.22.38-.13.66-.37.07-.06.06-.11.15-.17s-.14-.18-.31-.09a.55.55,0,0,0,.14-.6c-.27-.09-.53.37-.8.39s.27-.24.34-.29,0-.13,0-.17c.24-.21.6-.42,1-.72a.26.26,0,0,1,.16.47c0,.16.46,0,.42-.14.34-.1-.09.29,0,.38.2-.12.27-.23.18-.33.27-.22.31,0,.63-.22,0,.28-.65.28-.66.6-.3.2-.82.23-1,.61,0,.29.72-.48.49,0,.29-.37.61-.42.8-.75.19-.09.42-.21.47-.06a6.57,6.57,0,0,1,1.9-1,2.47,2.47,0,0,1,1.09-.71,3.61,3.61,0,0,1,.83-.54c.05.1-.08.17,0,.27.25-.1.19-.23.33-.34a3.9,3.9,0,0,0,1-.47.63.63,0,0,0-.45,0c.16-.17.63-.32.74-.5a6.26,6.26,0,0,1,1.1-.17c.14-.07-.07-.06-.06-.17.44-.15.61,0,1.07-.21.1-.07.07-.16.28-.21,0-.11-.11-.08-.24-.05a1.23,1.23,0,0,1,.85-.2c.23-.1-.15-.05.06-.2s.25.33.8.06c-.08,0-.25,0-.25-.11.38,0,.35-.26.61-.25,0,0-.07.19.05.18s.25-.2.07-.15c-.08-.15.6-.08.51-.23s-1,.3-.91,0c-.13.07,0,.18,0,.27ZM18.36,6.49c.12.16.25.27.56.07l-.19-.31Zm.5.61.27-.18c-.18-.09-.31-.3-.73.06C18.39,7.32,18.87,6.76,18.86,7.1Zm7.41-3.57c-.31.1-.21-.29-.69,0,0,.22.21.07.29.14S26.37,3.6,26.27,3.53Zm-22,40.65c.11.22.12.65.36.57,0-.32-.17-.18-.22-.38.15,0,.29,0,.28-.23Zm-.13-4.73v-.3c-.18.06-.22-.12-.36-.12C3.71,39.4,4,39.34,4.09,39.45Zm-.54.18c-.18-.22-.29-.11-.43-.53C3.14,39.47,3.43,40.1,3.55,39.63Zm.32,1.84c-.18,0-.35-.43-.36.11.23-.12.2.21.31.3C3.8,41.68,3.88,41.65,3.87,41.47Zm.36-.11c.09,0,.1.16.18.2,0-.14.09-.2.06-.4C4.33,41.13,4.24,41.18,4.23,41.36Zm-.67-.5c-.08,0-.11-.15-.24-.1a.93.93,0,0,1,0,.41C3.44,41.19,3.6,41.18,3.56,40.86ZM4.32,39c-.15.3.07.63,0,1.1-.08,0-.09.16-.17.19s-.06-.17-.13-.2c0,.25-.26.22-.23.61,0,.2.13.27.19.4.3,0,.5-.23.53-.7-.12-.07-.08.13-.12.2s-.25.3-.3.1.14-.44.36-.4A5.27,5.27,0,0,0,4.32,39Zm1.14-.14a.76.76,0,0,0,.13.58c-.12-.35,0-.28,0-.58Zm.88-2c-.06.07-.23.72,0,.67S6.49,36.85,6.34,36.87Zm-.57-1c0,.49-.32.81-.17,1.25.31.13.29-.4.17-.57C5.77,36.13,5.94,36,5.77,35.83ZM6,34.5c-.24.29,0,.75-.18,1C6.1,35.42,6,34.81,6,34.5Zm.72-.26c-.08.42-.45.87-.23,1.21C6.47,35,6.8,34.57,6.69,34.24ZM3.63,37.59s-.07,0,0-.1c-.16-.05-.21.12-.22.39C3.52,37.92,3.62,37.86,3.63,37.59Zm1.08,0c-.23-.08-.11.54-.18.79-.18-.18-.24,0-.27.38C4.63,38.86,4.73,37.89,4.71,37.58Zm-.41,0c0,.32-.12.3-.22.38a.52.52,0,0,0,.09.41c0-.39.14-.42.25-.18C4.45,37.91,4.34,37.41,4.3,37.55Zm-.89-.18c.09-.29.38-.15.36-.69-.12-.12-.14.18-.26.18s0-.25-.16-.22-.15,0-.15.39C3.54,37,3.3,37.21,3.41,37.37ZM4,35.07c.36-.06-.17.82.25.55a.91.91,0,0,0,.07.61,5,5,0,0,0-.4,1.08l.24,0c0-.45.09-.7.29-.47,0-.54-.07-.92-.06-1.43C4.06,35.51,4.29,34.46,4,35.07Zm-.62-1.26a5.06,5.06,0,0,0,0,1.06,4.57,4.57,0,0,0-.26,1.43.25.25,0,0,0,.3-.07c0-.19,0-.6,0-.73-.13.25,0,.37-.11.5a.87.87,0,0,1,.19-.8c0,.55.23.19.32.56,0,.19-.09.22-.1.4.17,0,.17-.29.33-.27s0,.51.1.22-.31-.36-.23-.85c-.29.23-.28-.19-.25-.35-.05.19-.22-.1-.2-.24.29.09.27-.69.5-.75l-.29-.05c0,.27-.08.6-.23.58C3.45,34.18,3.64,33.72,3.35,33.81Zm1.15-.3c0-.29.14-.24.16-.48C4.43,32.8,4.35,33.51,4.5,33.51ZM4,32.79c-.11.43.13.16.12.34s-.14.58,0,.62c.13-.37,0-.66.15-.8C4.12,33,4.18,32.78,4,32.79Zm-.18-.68c0,.18-.26.47-.11.61,0-.07.07-.1.13-.07C3.93,32.4,4,32.16,3.85,32.11Zm.26-.68c0-.34.21,0,.23-.36,0-.17-.16-.14,0-.43-.15-.18-.14.31-.29.13.07-.3.37-.42.17-.6-.07.3-.22.27-.29.57a7.48,7.48,0,0,1,0,1.18c.06,0,.16,0,.15.15,0,.51.11-.26,0-.32s.3-.24.15-.39C4.21,31.47,4.09,31.58,4.11,31.43Zm.74-1.07a1.41,1.41,0,0,0-.22.57c.15.18.13-.3.28-.13,0,.31-.16.34-.22.57s.07,0,.23.06c0-.3.22-.77.08-.92C4.86,31,4.91,30.41,4.85,30.36Zm-.23-.5c.15-.05.59,0,.49-.38-.06.17-.16.19-.29.12,0-.18.21-.47,0-.43a3.06,3.06,0,0,1-.28.77c0,.13-.22.72-.06.42Zm.67.52c.08-.11.42-.88.25-.65C5.43,29.71,5.18,30.23,5.29,30.38Zm.45-.7c-.16.29.16.14,0,.42s-.17,0-.2.26l.23.07c.06-.38.21-.44.28-.75C5.89,29.58,5.8,30,5.74,29.68Zm-.35-1c-.15-.18-.45.77-.28.55C5.15,28.85,5.36,29.13,5.39,28.72ZM6,28.51c-.13.25-.3.33-.4.71C5.81,29.34,6.09,28.76,6,28.51Zm.22-1.09c-.12.21-.52.66-.33.84C6,28,6.41,27.51,6.24,27.42Zm-.4-.61c-.07.25-.43.34-.34.53C5.64,27.25,6,27,5.84,26.81Zm-.5-.2a4.91,4.91,0,0,0-.52,1.14c.19.17.24-.54.42-.4,0,.13.1.15.15-.05s-.34,0-.24-.21A.38.38,0,0,0,5.34,26.61ZM7,23.14c.11-.22.23-.22.34-.52C7.21,22.39,6.89,23.09,7,23.14Zm-.35,3.67c0-.08.07-.19,0-.21-.2.35,0,.36.13.49l.14-.37C6.79,26.58,6.73,26.85,6.62,26.81Zm-.94-.73c-.13-.08-.23.07-.33.19.06.07.05.18.18.19Zm1.58-.85c-.27.45-.15.63-.27,1-.14-.07,0-.33-.07-.48-.26.23-.09.56,0,.75.27-.45.28-.81.61-1C7.31,25.45,7.4,25.25,7.26,25.23Zm-.93-.11c.33-1-.31.32-.1.41C6.3,25.35,6.27,25.3,6.33,25.12ZM7,23.94l-.27-.13c-.07,0,.32-.68.09-.42a4.44,4.44,0,0,1-.54.89c.19.27.33-.44.52-.21-.1.17,0,.23-.14.39-.28-.2-.86.67-.6,1a7.42,7.42,0,0,1,.4-.83c.34-.06,0,.38.21.44C6.79,24.59,6.65,24.42,7,23.94ZM8.4,23c-.09.26-.2.12-.29.29s.18,0,.11.18c-.11,0-.05.12-.14.26-.2,0-.08-.25-.27-.14s-.19.32-.13.39.09-.08.05,0c-.16.49-.36.29-.54.51.23.08.21.31.49.36a2.11,2.11,0,0,1,.47-.77c-.06,0-.11-.09,0-.23s.3-.16.43-.56C8.49,23.23,8.6,23,8.4,23ZM8,22.91c-.31.27-.28.06-.29.42-.15-.21-.27.14-.41,0-.15.16,0,.43.06.26s0-.19.1-.18l.1.06c-.06.2-.37.56-.28.66.2-.12.25-.41.33-.63.33-.14.39-.48.63-.81C8.18,22.56,8.14,22.82,8,22.91Zm.1-1.24c-.11.15-.22.37-.34.4l.34-.64a.31.31,0,0,0-.21-.25c-.36.51-.14.67-.38,1.1.08.12.19-.11.25-.09s0,.22,0,.24.14-.15.15-.15,0,.25.15,0C7.76,22.28,8.25,21.79,8.14,21.67ZM9,21.14c-.2.1-.4.54-.56.84C8.79,22.1,9,21.44,9,21.14Zm0-.42.13-.13c.09-.09.14,0,.27-.19s.23-.3.12-.41c-.12.13-.27.54-.38.48.31-.37,0-.32.07-.44a1.25,1.25,0,0,0,.39-.48c-.25-.1-.55.61-.82.81-.05,0,0-.11,0-.15a1.06,1.06,0,0,0-.29.43c.11.25.27-.38.37-.13l-.28.43c.15.22.27-.37.43-.33s.06.07,0,.11S8.94,20.77,9,20.72ZM10,19.5c-.34.42,0,.27-.12.41-.2.38-.6.66-.72,1,.09-.12.17,0,.26.05.11-.49.41-.71.78-1.3Zm1.72-2.11a.21.21,0,0,0-.2,0,.44.44,0,0,0-.12.43A.57.57,0,0,0,11.75,17.39Zm.3-1.22c-.09.16-.44.42-.34.52C11.85,16.64,12.17,16.28,12.05,16.17Zm1.22-2c-.22.07-.09.1-.3.29C13.08,14.72,13.49,14.32,13.27,14.21Zm.49.35c-.19.14-.69.36-.76.68C13.2,15.09,13.73,14.76,13.76,14.56Zm1.89-.78c-.13.09-.19-.08-.36.19l.12.14C15.51,14,15.68,13.86,15.65,13.78Zm.43-.71c-.34.12-.6.46-.36.64,0,0,.36-.16.29-.27s-.1.07-.12,0C16.17,13.29,16.07,13.19,16.08,13.07Zm1.24-.7c-.15-.25-.32.24-.47.37s-.64.31-.57.55A6.56,6.56,0,0,0,17.32,12.37Zm.22-1c-.15,0-.54.3-.44.44C17.22,11.63,17.61,11.45,17.54,11.33ZM14.4,16c-.22.23-.4.13-.62.48C14,16.73,14.27,16.31,14.4,16Zm.8-.71c-.17.28-.53.19-.52.44.32-.24.26-.07.17.17C15,15.72,15.24,15.5,15.2,15.33Zm1.19-.43c-.16,0-.27-.26-.51,0C16,15.11,16.21,15,16.39,14.9Zm0-.42c-.43.31,0-.53-.45-.07A.23.23,0,0,0,16.4,14.48Zm1.85-1.87c.09-.06.14,0,.18.08a.79.79,0,0,0,.27-.29C18.66,12.24,18.22,12.46,18.25,12.61Zm1.06.14c-.07-.06-.1-.2-.22-.13.1.08-.22.16-.25.13s.16-.19,0-.27c-.34.26-.71.73-1.08,1-.21.12-.41,0-.6.18.23-.21.54-.69.34-.67,0,.28-.56.69-.53.9,0,0,.26-.17.23,0s-.2.38-.38.3c.08-.08.22-.17.19-.23s-.36.19-.49.17c0-.13,0-.18-.2-.07.18.09-.18.29.06.36.17-.18.15-.29.33-.21s.08.39.14.6a3.32,3.32,0,0,1,.28-.26c0-.19-.41.1-.23-.12.07-.06.33-.27.34-.19s-.18.19-.11.16a3,3,0,0,0,.67-.54c.15-.13.51-.22.4-.41-.35.29-.57.21-.89.42.1-.32.51-.25.71-.35s.46-.56.66-.54-.52.34-.26.44C18.75,13,18.94,13,19.31,12.75ZM20,10.57a.49.49,0,0,0-.74.13.27.27,0,0,1,.23,0c-.06.14-.32.29-.54.43,0-.21-.22,0-.31-.08-.31.15-.25.31-.51.47.16.11.12.05.18.25A16.57,16.57,0,0,1,20,10.57ZM22.28,8.9a3.23,3.23,0,0,0-.76.47c-.1-.11.22-.19.17-.3s-.17.09-.2,0l-.18.1c0,.09.14.18,0,.27-.24-.15-.43.28-.66.44l-.09-.16c-.24.39-1,.41-.88.66.32-.27.68-.29.57,0a1.59,1.59,0,0,0,.65-.65C21.33,9.39,22.32,9.34,22.28,8.9Zm2.58.59c-.21.21-.34.11-.37.33.23,0,.15-.09.44-.16Zm0-1.29a1,1,0,0,0-.55.2C24.31,8.64,24.92,8.26,24.9,8.2Zm-.13-.54c-.6.28,0-.22-.31-.19a5.07,5.07,0,0,0-.94.56c-.19.19.23.08,0,.26a2.14,2.14,0,0,0-.83.11.47.47,0,0,0-.1.46c.32-.16.71-.35.29-.29.32-.14.54-.11.87-.26C23.85,8,24.55,7.92,24.77,7.66Zm0-.31c.12,0,.08,0,.05.11.24-.1.27.09.53,0S24.87,7.1,24.74,7.35ZM64,16.68c.08.07.17.2.24.16-.21-.27.4,0,0-.29C64.16,16.51,64.17,16.6,64,16.68Zm-2.46-4.29c.33.28.46.5.79.57A2.56,2.56,0,0,0,61.53,12.39ZM57,11.07c.26.12.25.24.43.36C57.51,11.29,57.09,10.92,57,11.07Zm-1.25-.63c.29,0,.42.34.69.29C56.36,10.65,55.79,10.21,55.73,10.44ZM47.45,7.18c.11,0,.14-.18.26-.23-.12,0-.24-.08-.37-.1C47.29,7,47.26,7.13,47.45,7.18ZM43.38,5.24c.38,0,.16.29.65.23.08-.18-.31-.18-.05-.3A.77.77,0,0,0,43.38,5.24ZM41.72,6.6c.3,0,.22.11.36.15,0-.17-.15-.22-.25-.32s.26,0,.21-.22C41.48,6.13,41.81,6.34,41.72,6.6Zm-5.28-.07A.79.79,0,0,0,37,6.35C36.64,6.43,36.43,6.24,36.44,6.53Zm-2.59-.88.47-.1C34.38,5.29,33.72,5.43,33.85,5.65Zm-.6,1c.24-.05.55-.07.53-.23C33.6,6.54,33.12,6.5,33.25,6.69Zm-1.52.13c.32,0,.75-.29.51-.35C32.22,6.55,31.49,6.51,31.73,6.82Zm-2.35-.26c.12.15.36.15.72,0C30.17,6.23,29.72,6.46,29.38,6.56ZM28,8.26c.32,0,.58-.21.94-.13,0-.17-.17,0-.3,0S28,8,28,8.26Zm-2-1a1.48,1.48,0,0,0,.7-.68c-.25.13-.71.11-.83.35C26.06,6.83,26,7.16,26,7.22ZM28.21,6.1c0-.23-.55.08-.79.14s-.15.15-.35.21c0-.17-.11-.19-.34-.06,0,.21.29,0,.29.21-.38.1-.36.26-.49.4C27.06,6.71,27.66,6.15,28.21,6.1Zm5.11-1.26c-.07,0-.12,0-.11-.1a.94.94,0,0,1-.49.1C32.66,5,33.39,4.86,33.32,4.84Zm1.85-.41c-.23,0-.37.06-.38.17s.2.06.4,0Zm.7,0c-.13-.16-.2-.37-.63-.3-.08.23.13.11.22.22s-.14.1,0,.12ZM42.54,4c-.29,0-.51,0-.61.07.29,0,.29.16.58.17ZM71.41,24.71c-.1.08-.22-.14-.42-.34.09.16-.09.17.05.39C71.13,24.78,71.58,25.07,71.41,24.71Zm.93,1.93c0-.07,0-.12.08-.13-.09-.32-.24-.25-.36-.39C72.16,26.27,72.21,26.68,72.34,26.64Zm-13.18,43c.18-.18.48,0,.53-.28C59.57,69.34,59.18,69.37,59.16,69.6ZM57.67,70c.15-.09.23-.06.26.07.29-.13.26-.26.58-.38,0-.1-.55,0-.64.07s.09.12,0,.15S57.52,69.84,57.67,70Zm-1.32,1.11c0,.16.57,0,.58-.17A3.31,3.31,0,0,0,56.35,71.09Zm-28.44,2c-.34-.18-.47.13-.09.23Zm2.59.73c.06-.17-.24-.25-.52-.33C29.86,73.71,30.21,73.78,30.5,73.86Zm-.08,4.73c-.12-.14.14-.36-.23-.44a.26.26,0,0,0-.19.25C30.21,78.45,30.22,78.54,30.42,78.59Zm2.83.73c0-.11-.13-.15-.19-.22.1-.13.29-.26-.15-.33,0,.08,0,.14.07.19-.24,0-.36,0-.37.12A1.14,1.14,0,0,1,33.25,79.32Zm1.39-5.42c-.28,0-.87-.29-.89,0s.18-.11.4,0c0,.07,0,.14.17.15C34.21,73.79,34.65,74.05,34.64,73.9ZM34.33,79c-.27,0-.72,0-.6.19.42.06.7-.25,1.13,0C35,79.09,34.53,79.05,34.33,79Zm1.37-.11c-.19.12-.58.1-.61.31C35.59,79.35,36.17,79.06,35.7,78.92Zm6.49-4.55c.23,0,.19.22.5.15C42.74,74.37,42.28,74.25,42.19,74.37Zm7.6.44.06.24.29-.1C50.13,74.79,50,74.72,49.79,74.81Zm11.46-5.67c-.26.16-.79.59-.61.55S61.46,69.1,61.25,69.14Zm1.32-.42c-.22.12-.29,0-.59.22C62.07,69.06,62.54,69,62.57,68.72Zm.21-1.26c.12.22.48-.34.54-.44C63.13,67.14,62.85,67.25,62.78,67.46Zm3.19-2c-.17.22-.22,0-.34.08a1.76,1.76,0,0,0-.57.74c-.07,0-.2.11-.29.13a5,5,0,0,1-1.46,1.27c.14,0-.43.4-.09.22.16-.11.13-.19.28-.3.12.09.44-.09.63-.2s.16-.22.36-.38.54-.26.7-.44,0-.16.18-.26S66.14,65.62,66,65.43Zm7-10.12c-.14.2-.37.34-.49.54s-.06.33-.14.51-.08,0-.09.06,0,.11,0,.12c-.22.47-.32.74-.22.94a11.33,11.33,0,0,0,.61-1.42C72.78,55.79,73.16,55.52,73,55.31Zm1.18-13.85c0,.22-.15.38,0,.57S74.31,41.41,74.16,41.46Zm.27,1.77c.16-.35-.23-.42-.28-.23C74.34,43,74.2,43.34,74.43,43.23Zm.34-.45c0,.23-.22.16-.22.46C74.67,43.77,75.05,43,74.77,42.78ZM72.86,55c.14.1.27-.12.41,0,0,.07-.09.18,0,.21C73.47,54.71,73.16,54.47,72.86,55Zm4.76-4.52a1.35,1.35,0,0,0-.19.86C77.53,50.93,77.75,50.76,77.62,50.5Zm.64-2.89c0,.43-.13.38-.27.72.14.05.13.24.29.08C78.25,48.21,78.48,47.63,78.26,47.61Zm.66-6.18c-.09.13-.13.52,0,.55C79,41.85,79.07,41.45,78.92,41.43Zm-3.21.26c-.15.34,0,.44,0,.8-.23-.12-.09.37-.09.39,0,.21-.19.24-.22.48.27,0,.06.55.24.64,0,.17,0,.5-.18.37,0-.31.21-.38,0-.5a1.27,1.27,0,0,0-.13.48c0,.18.27.89,0,.9,0,0,0-.12,0,0,.14.16-.37.52-.07.7.09,0,.08-.37.19-.37-.07.48-.31.79-.15,1.1,0,.08-.19.12-.21.15s-.09.64-.13.69-.11,0-.11,0c-.07.18,0,.42-.11.59-.08,0-.16-.06-.2,0s.19,0,.31,0c-.06.42.2.17.12.66-.05.19-.19.08-.22.35.07.1,0,.3,0,.43A6.24,6.24,0,0,1,74,51.45a.42.42,0,0,1,0,.44c-.35,1-.5,1.52-.91,2.59.36.26.39-.65.53-1,.23-.57.54-1.07.76-1.56-.1,0-.12-.13-.09-.25a5.83,5.83,0,0,0,.54-2.07c.14,0,.1.34.2,0-.08-.15,0-.42-.09-.56a17.47,17.47,0,0,1,.53-1.75,1.86,1.86,0,0,1,.21-1.09c-.31.06,0-.54-.11-.75.11,0,.06.29.18.35,0-.37.1-.48.17-.9-.21-.2-.1.42-.26.36s.11-.47.11-.9c-.07,0-.13,0-.08-.22.15.23.06,0,.09-.29.06-.42.1-.74,0-.92A.29.29,0,0,1,76,43c.09-.36-.1-.34-.14-.52a3.94,3.94,0,0,1,.3-1.39c.07,0,.12.19.18,0s-.21-.17-.27-.32.26-.46,0-.61c-.06.44,0,.78-.16.9,0-.17,0-.46-.08-.71-.07-.42,0-.14.06-.49-.21-.26-.27.2-.27.71S75.63,41.7,75.71,41.69ZM75.45,37c.21.06.18-.35.06-.5S75.34,36.86,75.45,37Zm-1.57-2.8c0,.28.1.63,0,.77.1-.07.33-.39.19-.5,0,.06,0,.11,0,.1A.53.53,0,0,0,73.88,34.2Zm.48-.75a.62.62,0,0,0,.16.57A.53.53,0,0,0,74.36,33.45Zm.24-.33c-.24,0-.11.27,0,.5C74.8,33.69,74.61,33.31,74.6,33.12Zm3.31-.84c-.09.33.22.49.33.71C78.18,32.61,78.07,32.36,77.91,32.28Zm.32-.27c.19,0,.14-.27.06-.57C78.1,31.42,78.15,31.7,78.23,32Zm-.67-1.43c0,.27.1.52.23.51C77.85,30.91,77.75,30.47,77.56,30.58Zm-3.12-.46c0,.38.23.14.24.46s-.06,1,.23,1.07c0-.36-.25-.72-.13-.89,0,0,.11.3.08.08S74.72,30,74.44,30.12Zm2.8-.9c.13.28,0,.29.09.53a.23.23,0,0,0,.21-.16A.51.51,0,0,0,77.24,29.22Zm-3.88-2c.28.43.09.81.35.93,0-.31.18-.38.08-.76-.12-.08-.18-.06-.23.08C73.51,27.3,73.44,27.24,73.36,27.22Zm0-1.07c.09.25.21.28.35.2C73.61,26.1,73.4,26,73.37,26.15Zm-2.34-5c0,.07,0,.12,0,.14.07.28.41.57.33.63s-.23-.39-.35-.27c.07.37.19.31.38.59.09-.22.23-.08.28-.26A6,6,0,0,1,71,21.14Zm-3.86-4.65c.13.14.08.22.2.35.08-.17.21,0,.3-.11A.7.7,0,0,0,67.17,16.49Zm-.89-1.08c.11.21.09.44.29.54a.2.2,0,0,0,.07-.19c.36.15.29.56.51.62.07-.19-.33-.56-.43-.81-.08,0-.15.17-.25.07.08-.08-.18-.29-.17-.38C65.72,14.92,66.1,15.13,66.28,15.41ZM57.58,4.16c.42.21.49.38.82.36-.11-.07,0-.09.06-.1C58.07,4.33,57.89,3.9,57.58,4.16Zm-.25,0s.14.15.2.1c-.18-.16-.09-.32-.38-.47C57,3.93,57.35,4,57.33,4.17ZM56,3.37c.11.12.58.33.66.17C56.35,3.49,56.23,3.23,56,3.37ZM53.24,4.52a1.86,1.86,0,0,0,.76.11C53.61,4.39,53.5,4.42,53.24,4.52Zm.27-2.09c.38.18.44.26.66.14A.55.55,0,0,0,53.51,2.43Zm-7.6-.23a1.5,1.5,0,0,0,.64,0A.25.25,0,0,0,46.39,2C46.48,2.26,46.05,2.11,45.91,2.2ZM45.31,2c.06,0,.27.3.4.14-.22-.32.28,0,.45,0C46.19,1.7,45.44,1.85,45.31,2ZM40.9.59c.15.07.76.17.77,0C41.37.69,41.12.43,40.9.59ZM36.76.76c0-.08.13-.14.32-.15,0-.2-.15-.23-.35-.27,0,.11-.1.15-.32.16C36.37.69,36.56.73,36.76.76Zm-1-.19c.06.14.22.22.35.32C36.07.73,36.23.43,35.76.57Zm.09,1.19c.4-.13,1.16-.1,1.26-.37-.18-.07-.12.05-.31.09S35.79,1.51,35.85,1.76Zm-3.67.07c-.19.11-.47.18-.48.34.29-.11.29,0,.53,0Zm.47-.47a1.33,1.33,0,0,0,.53-.16C33.25,1,33,.82,32.93,1,33.19,1,32.76,1.28,32.65,1.36Zm-1.74.18c.26-.1.94-.08.84-.29C31.48,1.35,30.79,1.32,30.91,1.54Zm0,.06c.09.24.91-.13,1.31-.15,0-.11.34-.11.29-.24A7.33,7.33,0,0,1,30.92,1.6Zm44,45.93c.14.1.15.32.06.64-.06-.07-.08-.16,0-.33s-.06,0-.08.09S74.89,47.67,74.92,47.53Zm-70-7.07c-.2-.06-.09-.37-.07-.59C5,40,5,40.27,4.94,40.46Zm60-26.08a2.47,2.47,0,0,1-1-.94c.16-.2.1.11.21.21C64.38,13.74,64.71,14.17,64.91,14.38ZM53.34,6.63a9.31,9.31,0,0,1-1.22-.43A3.68,3.68,0,0,1,53.34,6.63ZM2.6,31c-.27-.24.12-1,.27-1.38s.12-.81.36-.79A10.28,10.28,0,0,0,2.6,31ZM3.74,43.61c0-.18-.1-.2-.11-.4A1,1,0,0,1,4.09,43C4.05,43.29,4,43.56,3.74,43.61ZM2,33.11a6,6,0,0,1,.19-1.39A4.38,4.38,0,0,1,2,33.11Zm3.05-9-.68,1.69A10.64,10.64,0,0,1,5.71,22.7C5.9,22.56,5.26,23.66,5.07,24.06ZM3.5,44.25l-.11-1C3.45,43.42,3.76,44.18,3.5,44.25Zm.62,2.83C4,47,4,46.75,3.94,46.48,4.12,46.6,4.12,46.81,4.12,47.08Zm-.42-1.6a1.81,1.81,0,0,1-.06-1,1.51,1.51,0,0,1,.21.8C3.75,45.26,3.71,45.35,3.7,45.48Zm1.16-9.57c.1-.4-.1-.41-.06-.71.4-.18.08-.64.22-.87,0,.06.08.12.16.13-.07.19,0,.65-.18.67C5,35.35,5.18,36,4.86,35.91ZM66.05,61.78a11.31,11.31,0,0,1,1.27-1.56,9.94,9.94,0,0,1-1.06,1.49C66.17,61.85,66.11,61.82,66.05,61.78Zm9.71-39.94a5.05,5.05,0,0,1,.33.71C76,22.56,75.54,21.89,75.76,21.84ZM54.13,77.11c0,.1-.38.31-.58.37s-.61.14-.59,0A7.33,7.33,0,0,0,54.13,77.11ZM77.84,26.9a4.49,4.49,0,0,0,.31,1.18c.12.44.4,1,.2,1.1C78.23,28.46,77.54,27.19,77.84,26.9Zm-1,27.19c.33-.27-.25.8-.21,1-.07,0-.12.17-.18.28C76.3,55.12,76.89,54.28,76.86,54.09Zm2-20.41c0,.28,0,.57-.12.57C78.66,33.94,78.64,33.66,78.83,33.68Zm-1.74-7.36c.15-.1.14.58.28.49-.11.13.32.8.06.78A11.62,11.62,0,0,0,77.09,26.32Zm-1.31-3.27c.23.45.1.62.22,1C76,24,75.48,23,75.78,23.05ZM77,26.7c.11.35.26.74.06.78C77.06,27.28,76.75,26.74,77,26.7Zm.25,1.41c.22,0-.06-.45.19-.4.11.35-.07.41,0,.78C77.35,28.5,77.27,28.35,77.21,28.11ZM62.87,65.22c0-.26.49-.54.7-.79.62-.64,1.13-1.14,1.7-1.69.3-.26.45-.82.75-.74-.56.53-1.06,1.18-1.62,1.77C63.94,64.2,63.46,64.72,62.87,65.22Zm5.41-6.31a3.25,3.25,0,0,1,.53-.8C68.82,58.41,68.51,58.7,68.28,58.91Zm2.87-4.76a2.28,2.28,0,0,1,.19-.65C71.59,53.53,71.21,53.94,71.15,54.15ZM69,58c-.21-.11.48-.93.64-1.07C69.59,57.18,69.14,57.64,69,58ZM57.07,69.48c.2-.27.44-.31.83-.5C57.84,69.16,57.31,69.31,57.07,69.48Zm-7,3.24c0-.22.32-.15.54-.23L51.94,72c.46-.18.9-.41,1.27-.56,0,.36-.53.34-.76.44C51.81,72.17,51.13,72.38,50.07,72.72ZM61.9,66c0-.24.8-.85.82-.67C62.45,65.46,62.3,65.73,61.9,66Zm-3.81,2.93c-.08-.15.31-.38.45-.38S58.22,68.81,58.09,68.94Zm12-55.46c.25.09.6.7.9,1C70.69,14.39,70.34,13.78,70.05,13.48ZM15.69,9c.06-.17.33-.38.41-.56a.28.28,0,0,0-.24,0c0-.29.21,0,.37-.23C16.15,8.52,15.93,9,15.69,9Zm-2.11,1.58c-.13-.29.35-.42.64-.61C14.25,10.17,13.76,10.42,13.58,10.62ZM16,7.73c.27-.18.56-.38.65-.22C16.49,7.44,16,8,16,7.73ZM14.09,9.5c0-.24.52-.43.64-.45.21-.18.2-.31.43-.35C15,9.07,14.37,9.33,14.09,9.5Zm2.08-1.31c0-.17.28-.21.41-.36s0-.15,0-.16.2,0,.31-.14.12-.38.45-.52c.19.09-.14.23-.3.35.15.12-.08.35.26.19,0,.25-.22.08-.31.13s0,.1,0,.16-.45.14-.67.38C16.29,8.15,16.24,8.15,16.17,8.19Zm5.22-3.31c.49-.24.49-.49,1.12-.73,0,.14.18,0,.34,0a1.39,1.39,0,0,1-1.14.67c.07.13.26.07.13.27a6.51,6.51,0,0,1,.94-.5c.36-.14.72-.17.84,0-.42.17-.66.1-1.06.3-.12,0-.25.33,0,.21-.52.5-1.71.84-2.17,1.24.06-.29.58-.52.75-.68,0-.16-.47,0-.44.1-.43.06.31-.31.52-.42s0,.18,0,.32a8.29,8.29,0,0,1,.89-.41c0-.25-.36,0-.46,0s.1-.17,0-.16-.35.2-.37,0C21.44,5,21.39,4.94,21.39,4.88ZM15.64,7.46c.36-.3.57-.66.87-1s.18,0,.38-.26a9.58,9.58,0,0,1,2.25-1.79c.13,0,.37-.12.48-.06.17.22-.49.45-.1.53-.3.28-.47.19-.75.5.13.21.66-.21,1.07-.4.06.09-.06.18,0,.27-.62,0-1.14.63-1.83,1.06-.11-.08.07-.18.22-.29a.76.76,0,0,0,.22-.5c-.43.07-.28.23-.41.41a8.54,8.54,0,0,0-2,1.32A.69.69,0,0,0,15.64,7.46Zm1.72-1.31c.07.06.24-.08.35-.08-.07-.25-.45.09-.76.28C16.32,6.8,17.11,6.36,17.36,6.15Zm3.1-.9c0,.07-.18.14-.14.21s.42-.2.61-.26c0,0-.14,0-.22,0-.14-.14.14-.38-.31-.11.14-.26.24-.24.56-.37.08,0-.17.18-.17.16s.55-.32.69-.37-.09.18-.24.27a2.56,2.56,0,0,1-1.2,1c0-.07.06-.14,0-.21-.16.17,0,.35-.46.52-.05-.15-.17-.21-.4,0-.09-.38.49-.54.82-.81.08.14-.11.19.11.21S20.12,5.35,20.46,5.25Zm-6.85,5.9c0-.08.23-.23.17-.3l.67-.56c.31-.23.65-.54.79-.41-.19.18-.25.06-.46.3l.11.14c.37,0,.5-.38,1-.71.23.11-.2.29-.34.44s-.23.32-.35.43c-.38.38-.87.7-1.12,1-.28.07.05-.2-.11-.3.23.12.83-.42,1.08-.73-.18-.08-.41,0-.7.18,0,.16.18.14.37-.07C14.47,11,13.94,10.89,13.61,11.15ZM22.81,4c.29-.41.56-.11,1.14-.41-.47.11-.28-.11.12-.31,0,.29.43-.09.72,0-.05.07-.36.36.06.17,0,.26-.49.26-.79.39,0-.15.52-.26.3-.44-.1,0-.05.1-.06.15l-.71.3c-.16.08.28.19-.21.35C23.1,4.13,23.61,3.64,22.81,4ZM10.92,13.09c-.29.27-.33.07-.5.44C10.19,13.4,10.85,12.93,10.92,13.09Zm7.72,55.77a9.55,9.55,0,0,1,1.12.7A4.06,4.06,0,0,1,18.64,68.86ZM10.92,13.25c.1-.21.28-.45.18-.6.28-.27.59-.62.75-.5-.25.08-.55.49-.7.7,0,0,.13-.06.2-.11A.72.72,0,0,1,10.92,13.25Zm7.31,59c-.08.07-.24,0-.44-.15-.1.13.09.2-.14.2a5.05,5.05,0,0,1-1.16-.67c-.59-.41-1.23-.8-1.84-1.27a1,1,0,0,1-.22-.26c-.89-.68-1.77-1.38-2.61-2.12-.15-.14-.28-.38-.43-.52s-.31-.14-.41-.23-.22-.32-.34-.44c-.51-.58-1.2-1.28-1.69-2,.2,0,0-.21.17-.27-.34-.29-.08.1-.24.19-.57-.61-.77-.95-1.11-1.14s-.13-.29-.2-.41-.42-.28-.44-.65c-.25.32-.27-.21-.52-.34a1.09,1.09,0,0,1,0,.54c.19.1.16-.17.43,0s.13.39.39.69l-.2.14c.2.32.3-.13.62.26-.08.08-.19,0-.26,0,.2.41.54.34.6.69a2.48,2.48,0,0,1,1,.82,1.87,1.87,0,0,1-.57-.42,2.24,2.24,0,0,0,.15.46c.16.19,0-.16,0-.16s.14.15.26.23.36-.06.45.36c-.05.19-.21-.15-.3-.19s-.16.16-.34,0c.09.49.38.58.63,1,.22-.18-.25-.38-.22-.55s.37.19.52.16c.2.33,0,.11-.16.28a1,1,0,0,0,.33.76c-.16.14-.57-.07-.51-.32-.24-.21.11.31-.15.28s-.35-.42-.52-.63a2.9,2.9,0,0,1-.34-.32c-.33-.42-.63-1-1-1.41-.15-.19-.26-.2-.34-.33-.45-.7-1-1.59-1.43-2.24a8.06,8.06,0,0,1-.45-.8c-.47-.85-.88-1.76-1.32-2.64-.21-.44-.43-.88-.61-1.33s-.32-.91-.46-1.36a4.3,4.3,0,0,1-.07-.46,8.2,8.2,0,0,0-.48-1.16,3.79,3.79,0,0,0-.32-.84c-.14-.34.06-.34,0-.6-.28-.5-.28-1.16-.6-1.71-.07-.19.23-.07.24.17.09-.45-.37-.95-.44-.82-.07-.41-.2-.93,0-1-.38-.46-.11-1.45-.51-1.85-.1-.2,0-.28,0-.35s-.11-.17-.13-.32-.06-.58-.07-.94,0-.75,0-1.08c0-.16-.08-.55-.18-.55s.09-.1.16-.12a6.55,6.55,0,0,1-.16-1.56c0-.11-.09-.08-.14-.1.06-.42-.08-.64.08-.9s-.12-.16-.13-.33A5.72,5.72,0,0,0,.2,40.3c0-.28-.06-.83-.07-1S0,38.84,0,38.62a23.31,23.31,0,0,1,.19-2.35c.08-.65-.12-1.37.17-1.78,0-.19-.06-.27,0-.46s.11-.19.12-.33,0-.63,0-.9c.1-.63.32-1.2.41-1.87a3.11,3.11,0,0,1,0-.34c0-.19.16-.34.21-.53s0-.33,0-.46.11-.19.15-.31,0-.24.07-.45c.27-.83.52-1.74.78-2.47,0-.17.14-.15.18-.29a3.86,3.86,0,0,1,.53-1.48,6,6,0,0,1,.7-1.78c.09.06-.14.35,0,.38a.51.51,0,0,0,.05-.48,4.35,4.35,0,0,0,.57-1c.14-.22-.09-.19,0-.38a27.51,27.51,0,0,1,1.56-2.75c.12-.22.14-.42.27-.63.36-.61.84-1.16,1.23-1.75a4.32,4.32,0,0,1,.36-.58c.14-.15.29-.2.45-.36s.17-.31.31-.48c.53-.63,1.18-1.36,1.81-2,.17.07-.28.34-.47.64s-.25.75-.49.61c-.28.29,0,.35-.29.64-.08-.07-.17,0-.28,0,.13.05,0,.47-.38.57.1.23.34-.27.44-.07a15.88,15.88,0,0,0-1,1.35c.13.21.35-.35.47-.06-.54.56-.53,1.2-1.08,1.52-.1.21-.06.25.08.2-.07.25-.35.26-.24.36-.16.21-.06-.19-.14-.22a8.09,8.09,0,0,1-1,1.83s.1-.09.15-.16A9,9,0,0,1,5,21.83c-.21.33.06.34-.15.67a1.54,1.54,0,0,0-.41.53c-.1.15,0,.2,0,.25-.15.2-.39.47-.23.62.14,0,.28-.55.44-.76.12.09.25.08.36-.18,0-.09,0-.13,0-.23s-.17.2-.26.12C5.51,21.68,5.93,20.8,6.39,20s1-1.59,1.76-2.62c.14-.06.1,0,.14.11A7.75,7.75,0,0,1,9.41,16c.06-.1-.05-.13,0-.24s.44-.43.57-.23c.13-.27.18-.29,0-.32.1-.06.17,0,.3-.18.13.18-.12.51-.14.74-.34.24-.3.25-.66.71-.27,0,.21-.31.07-.36s-.55.65-.2.53c-.31.29-.3.56-.53.68-.12,0,0-.21.09-.34-.23,0-.41.56-.27.6a7.94,7.94,0,0,0-1,1.53c-.2.23-.38.3-.57.53s.06.12,0,.24c-.6.81-1,2.05-1.55,2.71-.23,0,.07-.34.14-.54-.36.24-.3.74-.29.95-.19.28-.36.55-.51.82s-.25.54-.36.81c-.22.54-.42,1.09-.65,1.71-.13,0-.15.28-.2,0-.19.29,0,.28,0,.45l-.3.59-.21.64c-.14.42-.25.84-.34,1.22s-.2.9-.3,1.27a6.63,6.63,0,0,0-.27.83c0,.17,0,.38,0,.55s-.16.22-.2.4-.12,1-.12,1.3.1.1.08.24a1.78,1.78,0,0,0-.2.73c-.05.36-.19.44,0,.66,0,.34-.19.33-.18.74.07,0,.07-.2.09-.32.22.14,0,.41,0,.65-.05.68-.09,1.32-.14,2s0,1.39,0,2.22a18.36,18.36,0,0,0,.06,2.16c0,.2,0,.23,0,.44.06.43.28,1,.07,1.19a2.47,2.47,0,0,1,.26,1.28c0,.06-.11-.23-.09-.31s0,.62.1.42a1.24,1.24,0,0,0,0,.87c.06,0,0-.13,0-.22a12.55,12.55,0,0,1,.45,1.91,3.24,3.24,0,0,0,.12,1.64c.08-.09-.12-.54.12-.48.09.63.36.66.51,1.33.1.39.13.83.27,1.27-.07,0-.11-.17-.15-.29-.09.27.21.69.3.36.09.23.1.4,0,.45.32.57.63,1.58,1,2.29-.31-.28-.05.52.14.65.18-.15-.36-.45,0-.45.2.48.42,1,.62,1.51s.48.92.66,1.24c-.1,0,0,.13-.11.17l.31.21c.22.41.43.86.67,1.24.38.69.83,1.41,1.29,2.14.11.17.29.35.41.51A22.37,22.37,0,0,0,10.67,65c.24.27.49.44.71.68.49.51.94,1,1.43,1.48s1.26,1.16,1.88,1.65c.15.12.13.19.3.32s.27.14.37.23.37.48.71.5a19.32,19.32,0,0,0,2.24,1.69c0,.1-.18,0-.23.14l-.73-.49c-.18-.14-.17.14-.27.18.18.16.2,0,.35.09s0,.13.11.22a.57.57,0,0,0,.3.13C18.07,72,18,72.19,18.23,72.22ZM5.69,21.83c.09-.2.43-.25.35-.54C6,21.48,5.61,21.54,5.69,21.83Zm1.62-4.41a6.1,6.1,0,0,0,.53-.58c-.14-.18-.61.28-.61.38C7.44,17,7.21,17.41,7.31,17.42ZM6.16,18c.13.09.6-.5.59-.69A2.13,2.13,0,0,0,6.16,18ZM4.38,21.35c.15-.2.57-.75.42-.92C4.71,20.82,4.4,21,4.38,21.35Zm0,3.08c.17-.08.31-.93.18-.76C4.6,23.81,4.24,24.31,4.34,24.43ZM1,31.2a1.5,1.5,0,0,0,.13-.78C1,30.64.83,31.09,1,31.2ZM.54,34.52c.15,0,0-.31-.06-.35a6.74,6.74,0,0,0-.14,1C.56,35.3.45,34.74.54,34.52Zm1,13.34a.59.59,0,0,0-.29-.51C1.3,47.63,1.37,47.91,1.53,47.86Zm.64.44c-.14-.38,0-1.3-.34-1.38,0,.42,0,.17.12.31C2.21,47.53,1.77,48.33,2.17,48.3Zm.69,2.29c.05-.22-.18-.64-.36-.58C2.57,50.43,2.73,50.44,2.86,50.59Zm0,.24c.11.3,0,.36.08.66C3.12,51.56,3,50.89,2.81,50.83Zm.29,4.92-.17-.42C2.6,55.26,3,56,3.1,55.75Zm.71,1.53c-.3-.51.13-.43-.13-.92-.17.09,0,.43-.05.64s-.19-.32-.31-.12C3.46,57.24,3.64,57.2,3.81,57.28ZM5,60.76c.08.13.14.28.23.4S5.14,60.57,5,60.76Zm.87.29c-.17-.27-.31-.48-.45-.52a.33.33,0,0,1,0,.26C5.56,61,5.73,61.11,5.86,61.05Zm3.07,5.06a1.72,1.72,0,0,0,.16.75c.28,0-.06-.37-.11-.5s.1,0,.1-.08S9,66,9,66.07c-.06-.15-.18-.25-.24-.39C8.52,65.7,8.81,65.94,8.93,66.11Zm-.65-.52-.36-.44C7.66,65.12,8.25,65.84,8.28,65.59Zm-.31-1c-.19.25.34.48.31.76.09-.11.26.21.36.15C8.43,65.08,8.22,65,8,64.55Zm-1-.43c.1.28.25.23.43.4s.22.6.41.42a1.64,1.64,0,0,0-.39-.54C7.25,64.2,7.07,64,7,64.12Zm-.93-1.59c.19.21.38.46.52.35C6.39,62.66,6.2,62.42,6.05,62.53Zm9,7.35c0-.12.14-.22-.1-.39s-.31,0-.32.2C14.83,69.91,14.88,69.74,15.05,69.88Zm1.42.69a.33.33,0,0,1-.1-.23c.09.08.24.15.13,0-.27,0-.26-.27-.59-.48-.2.18.2.38.43.51C16.25,70.44,16.35,70.6,16.47,70.57Zm-4-58.14a4,4,0,0,0,.61-.95,3.46,3.46,0,0,1,.78-.27,2.91,2.91,0,0,1-.6,1.11,1.16,1.16,0,0,1,.37-.71c-.08-.14-.24,0-.43.17.15.28-.49,1.43-1,1.2.2-.18.32-.15.39-.38-.52.12-.83,1-1.24,1.06l.18.17c.32-.25.31-.42.56-.65.4.09-.49.93-.67.84a2.09,2.09,0,0,1-.55.66c0-.14.17-.37.09-.49.14-.16.19.07.34-.13s-.1-.15,0-.28c-.08,0-.23.16-.33.28-.12-.28.2-.63.46-.91S12.14,12.72,12.42,12.43Zm-.62-.49L12,11.7c-.1.3.19,0,.28.15A.37.37,0,0,1,11.8,11.94Zm-1.07,1.58a4.15,4.15,0,0,1-.46.47C10.2,13.93,10.69,13.27,10.73,13.52Z"/><polygon class="cls-3" points="58.76 50.48 23.67 50.48 27.76 28.75 54.29 28.75 58.76 50.48"/><path class="cls-4" d="M23,51H58.46l-.34,11.35c-11.27,1.45-27.28,1.33-33.14.42C23.49,62.58,23,58.11,23,51Z"/><path class="cls-4" d="M38.58,46.84c-3.65,2.09-7.09,1.69-8.22,0-.6-.91-1.08-3.31,0-3.2,1.72.18,2.73,2.76,8.22,0Z"/><path class="cls-4" d="M52.81,46.84c-3.64,2.09-7.09,1.69-8.21,0-.6-.91-1.08-3.31,0-3.2,1.72.18,2.73,2.76,8.21,0Z"/><path class="cls-4" d="M52.69,36.2c-3.64,2.09-7.09,1.69-8.21,0-.6-.91-1.08-3.31,0-3.2,1.72.18,2.73,2.76,8.21,0Z"/><path class="cls-4" d="M38.8,36.2c-3.64,2.09-7.09,1.69-8.21,0-.61-.91-1.09-3.31,0-3.2,1.71.18,2.73,2.76,8.21,0Z"/><ellipse class="cls-5" cx="34.37" cy="31.12" rx="3.97" ry="3.09"/><ellipse class="cls-5" cx="48.26" cy="31.12" rx="3.97" ry="3.09"/><ellipse class="cls-5" cx="34.49" cy="41.74" rx="3.97" ry="3.09"/><ellipse class="cls-5" cx="48.39" cy="41.74" rx="3.97" ry="3.09"/><path class="cls-6" d="M32.73,48.53a7.67,7.67,0,0,0,4.14-.19,3.36,3.36,0,0,0,2.49-2.19,9.89,9.89,0,0,0,0-2.55c0-.44,0-.88,0-1.32a5.63,5.63,0,0,0-.08-.61,3.19,3.19,0,0,0-.12-.6,3.91,3.91,0,0,0-1.87-2.15,6.22,6.22,0,0,0-3.33-.74,5.73,5.73,0,0,0-1.65.3,4.51,4.51,0,0,0-.79.32,3.57,3.57,0,0,0-1.86,2.39,3.24,3.24,0,0,0,0,1v0c0,.39.08.77.07,1.16a11.85,11.85,0,0,0-.07,2.38C29.84,47.23,31.4,48.18,32.73,48.53Zm-1.08-8.71.29-.19.39-.11a5.38,5.38,0,0,1,1.26-.17,6.6,6.6,0,0,1,2.38.28c1.31.45,2.64,1.67,1.94,3.16a3.79,3.79,0,0,1-3.76,1.87,3.68,3.68,0,0,1-3.48-2.58A2.3,2.3,0,0,1,31.65,39.82Zm-1,4.35a5.08,5.08,0,0,0,2.54,1.46,5.38,5.38,0,0,0,5.21-1.46c0,.41.06.82,0,1.23a2,2,0,0,1-1.51,1.78,7,7,0,0,1-3.32.42A4.42,4.42,0,0,1,31.8,47a2.4,2.4,0,0,1-1.12-1.17A4.24,4.24,0,0,1,30.61,44.17Zm16,4.36a7.64,7.64,0,0,0,4.13-.19,3.37,3.37,0,0,0,2.5-2.19,9.47,9.47,0,0,0,0-2.55c0-.44,0-.88,0-1.32a5.63,5.63,0,0,0-.08-.61,3.16,3.16,0,0,0-.11-.6,4,4,0,0,0-1.87-2.15,6.26,6.26,0,0,0-3.34-.74,5.79,5.79,0,0,0-1.65.3,4.84,4.84,0,0,0-.79.32,3.62,3.62,0,0,0-1.86,2.39,2.94,2.94,0,0,0,0,1v0c0,.39.07.77.06,1.16a13.53,13.53,0,0,0-.07,2.38C43.73,47.23,45.3,48.18,46.63,48.53Zm-1.08-8.71.28-.19.39-.11a5.38,5.38,0,0,1,1.26-.17,6.57,6.57,0,0,1,2.38.28c1.31.45,2.65,1.67,2,3.16a3.79,3.79,0,0,1-3.76,1.87,3.66,3.66,0,0,1-3.48-2.58A2.26,2.26,0,0,1,45.55,39.82Zm-1,4.35A5,5,0,0,0,47,45.63a5.38,5.38,0,0,0,5.21-1.46c0,.41.07.82.06,1.23a2.06,2.06,0,0,1-1.52,1.78,6.93,6.93,0,0,1-3.31.42A4.41,4.41,0,0,1,45.69,47a2.38,2.38,0,0,1-1.11-1.17A4.24,4.24,0,0,1,44.51,44.17Zm14.8,12.22c0-1.31,0-2.62-.05-3.92,0-.58-.1-1.15-.12-1.72a.84.84,0,0,0-.06-.24.62.62,0,0,0,0-.27,11.33,11.33,0,0,1-.28-1.15L58.36,47c-.39-2-.76-4-1.13-6-.61-3.36-1.23-6.73-1.8-10.1-.15-.92-.3-2.06-1.22-2.52a3.94,3.94,0,0,0-1.77-.23c-.31,0-.63,0-.95,0a2.7,2.7,0,0,0-.39.08h0a6.24,6.24,0,0,0-3.26-.69,5.45,5.45,0,0,0-1.65.29,4.14,4.14,0,0,0-.79.33l-.09.05h0c-2.37,0-4.73-.17-7.11-.08a6.85,6.85,0,0,0-.91,0,.34.34,0,0,0-.12,0,6.16,6.16,0,0,0-3.21-.67,5.4,5.4,0,0,0-1.65.29,3.89,3.89,0,0,0-.79.33l-.29.17a.35.35,0,0,0-.11,0,4.81,4.81,0,0,0-.85-.09,10.85,10.85,0,0,0-1.71,0,1.75,1.75,0,0,0-1.49.92,4.8,4.8,0,0,0-.43,1.5c-.19,1.09-.37,2.18-.56,3.27-.73,4.12-1.45,8.23-2.27,12.33-.18.87-.38,1.73-.58,2.59-.1.46-.18.93-.32,1.38a.69.69,0,0,0,0,.24l0,.15,0,.17s0,.32,0,.21c0,.1,0,.21,0,.32s0,.09,0,.14,0,0,0,0v.08c0,.21,0,.43,0,.64,0,1,0,2,0,3.07.07,1.91.14,3.83.35,5.73a4,4,0,0,0,.09.68,2.94,2.94,0,0,0,1.25,1.61,7.12,7.12,0,0,0,3.57.87c1,0,2,0,3-.06l12.44-.29c3.21-.08,6.41-.18,9.62-.2a15.18,15.18,0,0,0,3.75-.16,3.3,3.3,0,0,0,2-1.3,4.29,4.29,0,0,0,.6-2.12C59.43,58.8,59.32,57.58,59.31,56.39Zm-14-27a.51.51,0,0,0,.44-.32l0,0,.39-.12a5.38,5.38,0,0,1,1.26-.17,6.8,6.8,0,0,1,2.38.28c1.31.45,2.65,1.67,2,3.16a3.78,3.78,0,0,1-3.76,1.87,3.64,3.64,0,0,1-3.48-2.58A2.23,2.23,0,0,1,45.35,29.38Zm-.84,4.2A5.06,5.06,0,0,0,47,35a5.36,5.36,0,0,0,5.21-1.46c0,.41.07.82.06,1.23a2.06,2.06,0,0,1-1.52,1.78,6.93,6.93,0,0,1-3.31.42,4.55,4.55,0,0,1-1.79-.62,2.4,2.4,0,0,1-1.11-1.18A4.19,4.19,0,0,1,44.51,33.58ZM31.65,29.22a2.29,2.29,0,0,1,.29-.18c.13-.05.27-.08.39-.12a5.38,5.38,0,0,1,1.26-.17A6.82,6.82,0,0,1,36,29c1.31.45,2.64,1.67,1.94,3.16a3.77,3.77,0,0,1-3.76,1.87,3.66,3.66,0,0,1-3.48-2.58A2.3,2.3,0,0,1,31.65,29.22Zm-1,4.36A5.14,5.14,0,0,0,33.15,35a5.36,5.36,0,0,0,5.21-1.46c0,.41.06.82,0,1.23a2,2,0,0,1-1.51,1.78,7,7,0,0,1-3.32.42,4.56,4.56,0,0,1-1.78-.62,2.42,2.42,0,0,1-1.12-1.18A4.19,4.19,0,0,1,30.61,33.58ZM24.85,47.32c.34-2,.73-4,1.08-6,.6-3.37,1.22-6.74,1.77-10.11,0-.17.05-.33.09-.49a3.92,3.92,0,0,1,.26-1,1.22,1.22,0,0,1,.24-.3l0,0h0l.18,0,.27,0h.43c.33,0,.65,0,1,0a3.19,3.19,0,0,0-.56,1.26,3.25,3.25,0,0,0,0,1v.06c0,.38.08.76.07,1.15a12,12,0,0,0-.07,2.39c.23,1.46,1.79,2.41,3.12,2.76a7.67,7.67,0,0,0,4.14-.18,3.39,3.39,0,0,0,2.49-2.2,9.82,9.82,0,0,0,0-2.54c0-.45,0-.88,0-1.33a6,6,0,0,0-.08-.61,2.94,2.94,0,0,0-.12-.59,3.35,3.35,0,0,0-.84-1.37l1.59.1c1.39.07,2.79.1,4.18.14h0a3.15,3.15,0,0,0-.55,1.24,3,3,0,0,0,0,1v.06c0,.38.07.76.06,1.15a13.64,13.64,0,0,0-.07,2.39c.23,1.46,1.8,2.41,3.13,2.76a7.64,7.64,0,0,0,4.13-.18,3.41,3.41,0,0,0,2.5-2.2,9.39,9.39,0,0,0,0-2.54c0-.45,0-.88,0-1.33a6,6,0,0,0-.08-.61,2.93,2.93,0,0,0-.11-.59,3.43,3.43,0,0,0-.72-1.24,6.09,6.09,0,0,1,1.24.11l.1,0,.06,0a1,1,0,0,1,.25.3,3.72,3.72,0,0,1,.23.87c0,.19.07.38.1.57.2,1.21.41,2.43.63,3.64q1,6,2.15,12c.19,1,.34,2,.57,3l-2.29-.05c-2.31,0-4.63,0-6.94,0h-24C24.61,48.93,24.72,48.11,24.85,47.32ZM58.1,59.71a3.22,3.22,0,0,1-.53,1.81,2.41,2.41,0,0,1-1.65.74,15.64,15.64,0,0,1-2.27,0c-1.09,0-2.18,0-3.26,0l-5.54.13-12.52.29-3.84.08a12,12,0,0,1-1.7-.07c-.9-.11-2.21-.44-2.46-1.47,0,0,0-.06,0-.09v0c0-.11,0-.22,0-.34,0-.37-.07-.73-.09-1.1-.08-1-.13-2-.19-2.93s-.11-2.17-.15-3.25c0-.48-.06-1-.09-1.43s0-.62-.08-1h31c1.08,0,2.16,0,3.24-.05,0,.48.1,1,.11,1.43s0,1.21,0,1.82c0,1.18,0,2.35,0,3.53A17,17,0,0,1,58.1,59.71Z"/><polygon class="cls-7" points="58.48 37.93 23.4 37.93 27.49 16.19 54.01 16.19 58.48 37.93"/><path class="cls-8" d="M22.77,38.49H58.18l-.33,11.34c-11.27,1.45-27.28,1.34-33.14.43C23.21,50,22.7,45.56,22.77,38.49Z"/><path class="cls-8" d="M38.31,34.29c-3.65,2.09-7.1,1.69-8.22,0-.6-.91-1.08-3.32,0-3.2,1.72.18,2.73,2.76,8.22,0Z"/><path class="cls-8" d="M52.54,34.29c-3.64,2.09-7.09,1.69-8.21,0-.6-.91-1.09-3.32,0-3.2,1.72.18,2.73,2.76,8.21,0Z"/><path class="cls-8" d="M52.42,23.65c-3.64,2.09-7.09,1.69-8.21,0-.61-.91-1.09-3.32,0-3.2,1.72.18,2.73,2.76,8.21,0Z"/><path class="cls-8" d="M38.53,23.65c-3.64,2.09-7.09,1.69-8.22,0-.6-.91-1.08-3.32,0-3.2,1.72.18,2.74,2.76,8.22,0Z"/><ellipse class="cls-9" cx="34.1" cy="18.57" rx="3.97" ry="3.09"/><ellipse class="cls-9" cx="47.99" cy="18.57" rx="3.97" ry="3.09"/><ellipse class="cls-9" cx="34.22" cy="29.19" rx="3.97" ry="3.09"/><ellipse class="cls-9" cx="48.11" cy="29.19" rx="3.97" ry="3.09"/><path class="cls-6" d="M32.46,36a7.67,7.67,0,0,0,4.14-.18,3.37,3.37,0,0,0,2.49-2.2,9.4,9.4,0,0,0,0-2.54c0-.44,0-.88,0-1.32a6.17,6.17,0,0,0-.08-.62,3.25,3.25,0,0,0-.12-.59A3.91,3.91,0,0,0,37,26.37a6.13,6.13,0,0,0-3.33-.74,5.12,5.12,0,0,0-1.65.3,3.85,3.85,0,0,0-.79.32,3.57,3.57,0,0,0-1.86,2.39,2.94,2.94,0,0,0,0,1v.05c0,.39.07.77.06,1.15a12.75,12.75,0,0,0-.06,2.39C29.57,34.68,31.13,35.63,32.46,36Zm-1.08-8.7a2.9,2.9,0,0,1,.29-.19l.39-.11a5.31,5.31,0,0,1,1.26-.17,6.62,6.62,0,0,1,2.38.28c1.3.44,2.64,1.67,1.94,3.15a3.78,3.78,0,0,1-3.76,1.88,3.66,3.66,0,0,1-3.48-2.58A2.3,2.3,0,0,1,31.38,27.27Zm-1,4.35a5.11,5.11,0,0,0,2.54,1.46,5.36,5.36,0,0,0,5.21-1.47c0,.41.06.83,0,1.24a2,2,0,0,1-1.52,1.77,6.92,6.92,0,0,1-3.31.43,4.47,4.47,0,0,1-1.78-.63,2.42,2.42,0,0,1-1.12-1.18A4.18,4.18,0,0,1,30.34,31.62Zm16,4.35a7.67,7.67,0,0,0,4.14-.18,3.4,3.4,0,0,0,2.5-2.2,9.4,9.4,0,0,0,0-2.54c0-.44,0-.88,0-1.32a6.17,6.17,0,0,0-.08-.62,3.21,3.21,0,0,0-.11-.59,4,4,0,0,0-1.88-2.15,6.11,6.11,0,0,0-3.33-.74,5.17,5.17,0,0,0-1.65.3,4.09,4.09,0,0,0-.79.32,3.57,3.57,0,0,0-1.86,2.39,3.23,3.23,0,0,0,0,1v.05c0,.39.07.77.06,1.15a12.76,12.76,0,0,0-.07,2.39C43.46,34.68,45,35.63,46.35,36Zm-1.07-8.7.28-.19L46,27a5.38,5.38,0,0,1,1.26-.17,6.6,6.6,0,0,1,2.38.28c1.31.44,2.64,1.67,1.95,3.15a3.8,3.8,0,0,1-3.77,1.88,3.66,3.66,0,0,1-3.47-2.58A2.26,2.26,0,0,1,45.28,27.27Zm-1,4.35a5.08,5.08,0,0,0,2.53,1.46A5.36,5.36,0,0,0,52,31.61c0,.41.06.83.05,1.24a2,2,0,0,1-1.51,1.77,7,7,0,0,1-3.32.43,4.58,4.58,0,0,1-1.78-.63,2.36,2.36,0,0,1-1.11-1.18A4.18,4.18,0,0,1,44.24,31.62ZM59,43.84c0-1.31,0-2.62,0-3.93,0-.57-.1-1.14-.13-1.71a.6.6,0,0,0,0-.24.62.62,0,0,0,0-.27,9.18,9.18,0,0,1-.28-1.15q-.23-1-.42-2.1-.59-3-1.13-6c-.62-3.36-1.24-6.73-1.8-10.1-.15-.92-.31-2.06-1.23-2.52a4,4,0,0,0-1.76-.24c-.31,0-.64,0-1,0a2.7,2.7,0,0,0-.39.08h0a6.25,6.25,0,0,0-3.26-.7,5.79,5.79,0,0,0-1.65.3,4.84,4.84,0,0,0-.79.32l-.09.06h0c-2.37,0-4.74-.17-7.11-.08a7.08,7.08,0,0,0-.92,0l-.11,0A6.26,6.26,0,0,0,33.67,15a5.73,5.73,0,0,0-1.65.3,4.51,4.51,0,0,0-.79.32,2.82,2.82,0,0,0-.29.18l-.11,0a6,6,0,0,0-.85-.08,9.79,9.79,0,0,0-1.71,0,1.76,1.76,0,0,0-1.49.91,4.93,4.93,0,0,0-.43,1.51c-.19,1.09-.37,2.18-.57,3.27-.72,4.11-1.44,8.23-2.26,12.32-.18.87-.38,1.74-.58,2.6-.1.46-.18.93-.32,1.38a.5.5,0,0,0,0,.24l0,.15,0,.16c0,.06,0,.33,0,.21,0,.11,0,.22,0,.33s0,.09,0,.13,0,0,0,0V39c0,.21,0,.42,0,.64,0,1,0,2,0,3.07.07,1.9.14,3.83.34,5.73a5.31,5.31,0,0,0,.1.68,2.89,2.89,0,0,0,1.25,1.6,6.89,6.89,0,0,0,3.56.87c1,0,2,0,3-.05l12.45-.29c3.21-.08,6.41-.18,9.62-.21a15.68,15.68,0,0,0,3.75-.15,3.27,3.27,0,0,0,1.95-1.31,4.33,4.33,0,0,0,.6-2.11C59.15,46.24,59.05,45,59,43.84Zm-14-27a.51.51,0,0,0,.44-.32l0,0,.39-.11a5.38,5.38,0,0,1,1.26-.17,6.6,6.6,0,0,1,2.38.28c1.31.45,2.64,1.67,1.95,3.16a3.79,3.79,0,0,1-3.77,1.87,3.65,3.65,0,0,1-3.47-2.58A2.23,2.23,0,0,1,45.08,16.83ZM44.24,21a5.06,5.06,0,0,0,2.53,1.45A5.38,5.38,0,0,0,52,21c0,.41.06.82.05,1.23A2,2,0,0,1,50.52,24a7,7,0,0,1-3.32.42,4.42,4.42,0,0,1-1.78-.63,2.34,2.34,0,0,1-1.11-1.17A4.2,4.2,0,0,1,44.24,21ZM31.38,16.67a2.9,2.9,0,0,1,.29-.19l.39-.11a5.31,5.31,0,0,1,1.26-.17,6.62,6.62,0,0,1,2.38.28c1.3.45,2.64,1.67,1.94,3.16a3.78,3.78,0,0,1-3.76,1.87,3.65,3.65,0,0,1-3.48-2.58A2.3,2.3,0,0,1,31.38,16.67Zm-1,4.36a5.09,5.09,0,0,0,2.54,1.45A5.38,5.38,0,0,0,38.09,21c0,.41.06.82,0,1.23A2,2,0,0,1,36.62,24a6.92,6.92,0,0,1-3.31.42,4.32,4.32,0,0,1-1.78-.63,2.4,2.4,0,0,1-1.12-1.17A4.2,4.2,0,0,1,30.34,21ZM24.58,34.77c.34-2,.72-4,1.08-6,.6-3.37,1.21-6.74,1.77-10.11,0-.17.05-.33.09-.49a3.92,3.92,0,0,1,.26-1,1.23,1.23,0,0,1,.24-.31l0,0h0l.18-.05.27,0h1.41A3,3,0,0,0,29.37,18a3,3,0,0,0,0,1v.05c0,.39.07.77.06,1.16a12.71,12.71,0,0,0-.06,2.39c.23,1.46,1.79,2.41,3.12,2.76a7.67,7.67,0,0,0,4.14-.19A3.36,3.36,0,0,0,39.09,23a9.47,9.47,0,0,0,0-2.55c0-.44,0-.88,0-1.32a5.63,5.63,0,0,0-.08-.61,3.19,3.19,0,0,0-.12-.6A3.32,3.32,0,0,0,38,16.56l1.59.1c1.39.07,2.79.1,4.18.14h0A3.28,3.28,0,0,0,43.26,18a3.24,3.24,0,0,0,0,1v.05c0,.39.07.77.06,1.16a12.71,12.71,0,0,0-.07,2.39c.23,1.46,1.8,2.41,3.12,2.76a7.67,7.67,0,0,0,4.14-.19A3.39,3.39,0,0,0,53,23a9.47,9.47,0,0,0,0-2.55c0-.44,0-.88,0-1.32a5.63,5.63,0,0,0-.08-.61,3.16,3.16,0,0,0-.11-.6A3.35,3.35,0,0,0,52,16.69a6.19,6.19,0,0,1,1.25.11l.09,0,.07,0a1.07,1.07,0,0,1,.25.31,3.78,3.78,0,0,1,.23.86c0,.19.07.38.1.57.2,1.22.41,2.44.62,3.65.7,4,1.41,8,2.16,12,.19,1,.34,2,.57,3l-2.3,0c-2.31,0-4.62,0-6.93,0h-24C24.34,36.38,24.45,35.56,24.58,34.77ZM57.83,47.15A3.31,3.31,0,0,1,57.3,49a2.43,2.43,0,0,1-1.65.74,15.77,15.77,0,0,1-2.28,0c-1.08,0-2.17,0-3.26,0l-5.53.13-12.52.29-3.85.08a13.89,13.89,0,0,1-1.7-.07c-.89-.11-2.2-.44-2.45-1.47,0,0,0-.06,0-.09v0c0-.11,0-.23,0-.34,0-.37-.07-.74-.1-1.1-.07-1-.12-2-.18-2.94s-.11-2.16-.15-3.25c0-.47-.06-.94-.09-1.42s-.05-.62-.08-1h31c1.08,0,2.17,0,3.25,0,0,.48.09.95.11,1.42s0,1.22,0,1.83c0,1.17,0,2.35,0,3.53C57.86,45.9,57.86,46.53,57.83,47.15Z"/></g></g></svg>