<svg id="instagram-light" xmlns="http://www.w3.org/2000/svg" width="37.209" height="37.208" viewBox="0 0 37.209 37.208">
  <defs>
    <style>
      .cls-1 {
        fill: #e9e9e9;
        fill-rule: evenodd;
      }
    </style>
  </defs>
  <path id="Path_1" data-name="Path 1" class="cls-1" d="M365.255,204.079h-3.239a11.449,11.449,0,1,1-22.147,0H336.63v15.743a1.432,1.432,0,0,0,1.433,1.431h25.76a1.432,1.432,0,0,0,1.433-1.431Zm0-10.018a1.432,1.432,0,0,0-1.433-1.431H359.53a1.43,1.43,0,0,0-1.431,1.431v4.294a1.429,1.429,0,0,0,1.431,1.431h4.292a1.431,1.431,0,0,0,1.433-1.431Zm-14.312,5.724a7.156,7.156,0,1,0,7.157,7.157,7.155,7.155,0,0,0-7.157-7.157m14.312,25.761H336.63a4.292,4.292,0,0,1-4.292-4.294V192.63a4.292,4.292,0,0,1,4.292-4.292h28.625a4.292,4.292,0,0,1,4.292,4.292v28.622a4.292,4.292,0,0,1-4.292,4.294" transform="translate(-332.338 -188.338)"/>
</svg>
